%TF.GenerationSoftware,KiCad,Pcbnew,7.0.1-0*%
%TF.CreationDate,2023-03-30T13:35:29-06:00*%
%TF.ProjectId,Phase_A_UnoShield,50686173-655f-4415-9f55-6e6f53686965,rev?*%
%TF.SameCoordinates,Original*%
%TF.FileFunction,Copper,L2,Bot*%
%TF.FilePolarity,Positive*%
%FSLAX46Y46*%
G04 Gerber Fmt 4.6, Leading zero omitted, Abs format (unit mm)*
G04 Created by KiCad (PCBNEW 7.0.1-0) date 2023-03-30 13:35:29*
%MOMM*%
%LPD*%
G01*
G04 APERTURE LIST*
%TA.AperFunction,ComponentPad*%
%ADD10C,1.500000*%
%TD*%
%TA.AperFunction,ComponentPad*%
%ADD11R,1.500000X1.500000*%
%TD*%
%TA.AperFunction,ComponentPad*%
%ADD12R,1.700000X1.700000*%
%TD*%
%TA.AperFunction,ComponentPad*%
%ADD13O,1.700000X1.700000*%
%TD*%
%TA.AperFunction,ComponentPad*%
%ADD14R,1.800000X1.800000*%
%TD*%
%TA.AperFunction,ComponentPad*%
%ADD15C,1.800000*%
%TD*%
%TA.AperFunction,ComponentPad*%
%ADD16R,2.400000X1.600000*%
%TD*%
%TA.AperFunction,ComponentPad*%
%ADD17O,2.400000X1.600000*%
%TD*%
%TA.AperFunction,ComponentPad*%
%ADD18C,1.600000*%
%TD*%
%TA.AperFunction,ComponentPad*%
%ADD19O,1.600000X1.600000*%
%TD*%
%TA.AperFunction,ComponentPad*%
%ADD20C,2.000000*%
%TD*%
%TA.AperFunction,ComponentPad*%
%ADD21R,2.000000X2.000000*%
%TD*%
%TA.AperFunction,ComponentPad*%
%ADD22O,3.048000X1.850000*%
%TD*%
G04 APERTURE END LIST*
D10*
%TO.P,U1,12,CA1*%
%TO.N,Dig1*%
X105080000Y-56820000D03*
%TO.P,U1,11,a*%
%TO.N,Net-(U1-a)*%
X107620000Y-56820000D03*
%TO.P,U1,10,f*%
%TO.N,Net-(U1-f)*%
X110160000Y-56820000D03*
%TO.P,U1,9,CA2*%
%TO.N,Dig2*%
X112700000Y-56820000D03*
%TO.P,U1,8,CA3*%
%TO.N,Dig3*%
X115240000Y-56820000D03*
%TO.P,U1,7,b*%
%TO.N,Net-(U1-b)*%
X117780000Y-56820000D03*
%TO.P,U1,6,CA4*%
%TO.N,Dig4*%
X117780000Y-72060000D03*
%TO.P,U1,5,g*%
%TO.N,Net-(U1-g)*%
X115240000Y-72060000D03*
%TO.P,U1,4,c*%
%TO.N,Net-(U1-c)*%
X112700000Y-72060000D03*
%TO.P,U1,3,DPX*%
%TO.N,Net-(U1-DPX)*%
X110160000Y-72060000D03*
%TO.P,U1,2,d*%
%TO.N,Net-(U1-d)*%
X107620000Y-72060000D03*
D11*
%TO.P,U1,1,e*%
%TO.N,Net-(U1-e)*%
X105080000Y-72060000D03*
%TD*%
D12*
%TO.P,J1,1,Pin_1*%
%TO.N,unconnected-(J1-Pin_1-Pad1)*%
X127940000Y-97460000D03*
D13*
%TO.P,J1,2,Pin_2*%
%TO.N,/IOREF*%
X130480000Y-97460000D03*
%TO.P,J1,3,Pin_3*%
%TO.N,/~{RESET}*%
X133020000Y-97460000D03*
%TO.P,J1,4,Pin_4*%
%TO.N,+3V3*%
X135560000Y-97460000D03*
%TO.P,J1,5,Pin_5*%
%TO.N,+5V*%
X138100000Y-97460000D03*
%TO.P,J1,6,Pin_6*%
%TO.N,GND*%
X140640000Y-97460000D03*
%TO.P,J1,7,Pin_7*%
X143180000Y-97460000D03*
%TO.P,J1,8,Pin_8*%
%TO.N,VCC*%
X145720000Y-97460000D03*
%TD*%
D12*
%TO.P,J3,1,Pin_1*%
%TO.N,/A0*%
X150800000Y-97460000D03*
D13*
%TO.P,J3,2,Pin_2*%
%TO.N,/A1*%
X153340000Y-97460000D03*
%TO.P,J3,3,Pin_3*%
%TO.N,/A2*%
X155880000Y-97460000D03*
%TO.P,J3,4,Pin_4*%
%TO.N,/A3*%
X158420000Y-97460000D03*
%TO.P,J3,5,Pin_5*%
%TO.N,/SDA{slash}A4*%
X160960000Y-97460000D03*
%TO.P,J3,6,Pin_6*%
%TO.N,/SCL{slash}A5*%
X163500000Y-97460000D03*
%TD*%
%TO.P,J2,10,Pin_10*%
%TO.N,ST_CP*%
X141656000Y-49200000D03*
%TO.P,J2,9,Pin_9*%
%TO.N,DS*%
X139116000Y-49200000D03*
%TO.P,J2,8,Pin_8*%
%TO.N,Dig4*%
X136576000Y-49200000D03*
%TO.P,J2,7,Pin_7*%
%TO.N,Dig3*%
X134036000Y-49200000D03*
%TO.P,J2,6,Pin_6*%
%TO.N,Dig2*%
X131496000Y-49200000D03*
%TO.P,J2,5,Pin_5*%
%TO.N,Dig1*%
X128956000Y-49200000D03*
%TO.P,J2,4,Pin_4*%
%TO.N,GND*%
X126416000Y-49200000D03*
%TO.P,J2,3,Pin_3*%
%TO.N,unconnected-(J2-Pin_3-Pad3)*%
X123876000Y-49200000D03*
%TO.P,J2,2,Pin_2*%
%TO.N,unconnected-(J2-Pin_2-Pad2)*%
X121336000Y-49200000D03*
D12*
%TO.P,J2,1,Pin_1*%
%TO.N,unconnected-(J2-Pin_1-Pad1)*%
X118796000Y-49200000D03*
%TD*%
%TO.P,J4,1,Pin_1*%
%TO.N,SH_CP*%
X145720000Y-49200000D03*
D13*
%TO.P,J4,2,Pin_2*%
%TO.N,Buzzer*%
X148260000Y-49200000D03*
%TO.P,J4,3,Pin_3*%
%TO.N,RED_LED*%
X150800000Y-49200000D03*
%TO.P,J4,4,Pin_4*%
%TO.N,GREEN_LED*%
X153340000Y-49200000D03*
%TO.P,J4,5,Pin_5*%
%TO.N,Button_2*%
X155880000Y-49200000D03*
%TO.P,J4,6,Pin_6*%
%TO.N,Button_1*%
X158420000Y-49200000D03*
%TO.P,J4,7,Pin_7*%
%TO.N,/TX{slash}1*%
X160960000Y-49200000D03*
%TO.P,J4,8,Pin_8*%
%TO.N,/RX{slash}0*%
X163500000Y-49200000D03*
%TD*%
D14*
%TO.P,D2,1,K*%
%TO.N,GND*%
X181280000Y-56820000D03*
D15*
%TO.P,D2,2,A*%
%TO.N,Net-(D2-A)*%
X183820000Y-56820000D03*
%TD*%
D16*
%TO.P,U2,1,QB*%
%TO.N,b*%
X158420000Y-69520000D03*
D17*
%TO.P,U2,2,QC*%
%TO.N,c*%
X158420000Y-72060000D03*
%TO.P,U2,3,QD*%
%TO.N,d*%
X158420000Y-74600000D03*
%TO.P,U2,4,QE*%
%TO.N,e*%
X158420000Y-77140000D03*
%TO.P,U2,5,QF*%
%TO.N,f*%
X158420000Y-79680000D03*
%TO.P,U2,6,QG*%
%TO.N,g*%
X158420000Y-82220000D03*
%TO.P,U2,7,QH*%
%TO.N,dp*%
X158420000Y-84760000D03*
%TO.P,U2,8,GND*%
%TO.N,GND*%
X158420000Y-87300000D03*
%TO.P,U2,9,QH'*%
%TO.N,unconnected-(U2-QH'-Pad9)*%
X166040000Y-87300000D03*
%TO.P,U2,10,~{SRCLR}*%
%TO.N,+5V*%
X166040000Y-84760000D03*
%TO.P,U2,11,SRCLK*%
%TO.N,SH_CP*%
X166040000Y-82220000D03*
%TO.P,U2,12,RCLK*%
%TO.N,ST_CP*%
X166040000Y-79680000D03*
%TO.P,U2,13,~{OE}*%
%TO.N,GND*%
X166040000Y-77140000D03*
%TO.P,U2,14,SER*%
%TO.N,DS*%
X166040000Y-74600000D03*
%TO.P,U2,15,QA*%
%TO.N,a*%
X166040000Y-72060000D03*
%TO.P,U2,16,VCC*%
%TO.N,+5V*%
X166040000Y-69520000D03*
%TD*%
D18*
%TO.P,R8,1*%
%TO.N,d*%
X144610000Y-77620000D03*
D19*
%TO.P,R8,2*%
%TO.N,Net-(U1-d)*%
X154770000Y-77620000D03*
%TD*%
D18*
%TO.P,R5,1*%
%TO.N,a*%
X158420000Y-64440000D03*
D19*
%TO.P,R5,2*%
%TO.N,Net-(U1-a)*%
X168580000Y-64440000D03*
%TD*%
D14*
%TO.P,D1,1,K*%
%TO.N,GND*%
X166040000Y-56820000D03*
D15*
%TO.P,D1,2,A*%
%TO.N,Net-(D1-A)*%
X168580000Y-56820000D03*
%TD*%
D18*
%TO.P,R1,1*%
%TO.N,Button_1*%
X107620000Y-92380000D03*
D19*
%TO.P,R1,2*%
%TO.N,GND*%
X117780000Y-92380000D03*
%TD*%
D20*
%TO.P,LS1,2,2*%
%TO.N,GND*%
X153320000Y-59360000D03*
D21*
%TO.P,LS1,1,1*%
%TO.N,Buzzer*%
X145720000Y-59360000D03*
%TD*%
D19*
%TO.P,R2,2*%
%TO.N,GND*%
X97460000Y-92380000D03*
D18*
%TO.P,R2,1*%
%TO.N,Button_2*%
X87300000Y-92380000D03*
%TD*%
D22*
%TO.P,SW1,1,1*%
%TO.N,+5V*%
X107820000Y-79680000D03*
X120320000Y-79680000D03*
%TO.P,SW1,2,2*%
%TO.N,Button_1*%
X107820000Y-84680000D03*
X120320000Y-84680000D03*
%TD*%
%TO.P,SW2,1,1*%
%TO.N,+5V*%
X87500000Y-79680000D03*
X100000000Y-79680000D03*
%TO.P,SW2,2,2*%
%TO.N,Button_2*%
X87500000Y-84680000D03*
X100000000Y-84680000D03*
%TD*%
D18*
%TO.P,R12,1*%
%TO.N,dp*%
X144610000Y-93820000D03*
D19*
%TO.P,R12,2*%
%TO.N,Net-(U1-DPX)*%
X154770000Y-93820000D03*
%TD*%
D18*
%TO.P,R10,1*%
%TO.N,f*%
X144610000Y-85720000D03*
D19*
%TO.P,R10,2*%
%TO.N,Net-(U1-f)*%
X154770000Y-85720000D03*
%TD*%
D18*
%TO.P,R9,1*%
%TO.N,e*%
X144610000Y-81670000D03*
D19*
%TO.P,R9,2*%
%TO.N,Net-(U1-e)*%
X154770000Y-81670000D03*
%TD*%
D18*
%TO.P,R6,1*%
%TO.N,b*%
X144610000Y-69520000D03*
D19*
%TO.P,R6,2*%
%TO.N,Net-(U1-b)*%
X154770000Y-69520000D03*
%TD*%
D18*
%TO.P,R3,1*%
%TO.N,RED_LED*%
X173660000Y-61900000D03*
D19*
%TO.P,R3,2*%
%TO.N,Net-(D1-A)*%
X173660000Y-51740000D03*
%TD*%
D18*
%TO.P,R7,1*%
%TO.N,c*%
X144610000Y-73570000D03*
D19*
%TO.P,R7,2*%
%TO.N,Net-(U1-c)*%
X154770000Y-73570000D03*
%TD*%
D18*
%TO.P,R11,1*%
%TO.N,g*%
X144610000Y-89770000D03*
D19*
%TO.P,R11,2*%
%TO.N,Net-(U1-g)*%
X154770000Y-89770000D03*
%TD*%
D18*
%TO.P,R4,1*%
%TO.N,GREEN_LED*%
X176200000Y-61900000D03*
D19*
%TO.P,R4,2*%
%TO.N,Net-(D2-A)*%
X176200000Y-51740000D03*
%TD*%
%TA.AperFunction,Conductor*%
%TO.N,GND*%
G36*
X186222500Y-46752113D02*
G01*
X186267887Y-46797500D01*
X186284500Y-46859500D01*
X186284500Y-99800500D01*
X186267887Y-99862500D01*
X186222500Y-99907887D01*
X186160500Y-99924500D01*
X165305480Y-99924500D01*
X100789480Y-99924500D01*
X82419500Y-99924500D01*
X82357500Y-99907887D01*
X82312113Y-99862500D01*
X82295500Y-99800500D01*
X82295500Y-98358634D01*
X126581500Y-98358634D01*
X126588011Y-98419205D01*
X126639110Y-98556203D01*
X126726738Y-98673261D01*
X126843796Y-98760889D01*
X126980794Y-98811988D01*
X126980797Y-98811988D01*
X126980799Y-98811989D01*
X127041362Y-98818500D01*
X128838634Y-98818500D01*
X128838638Y-98818500D01*
X128899201Y-98811989D01*
X128899203Y-98811988D01*
X128899205Y-98811988D01*
X128981097Y-98781443D01*
X129036204Y-98760889D01*
X129153261Y-98673261D01*
X129240889Y-98556204D01*
X129286137Y-98434889D01*
X129322089Y-98383677D01*
X129378471Y-98356539D01*
X129440925Y-98360387D01*
X129493548Y-98394241D01*
X129530969Y-98434890D01*
X129556760Y-98462906D01*
X129734424Y-98601189D01*
X129932426Y-98708342D01*
X130145365Y-98781444D01*
X130367431Y-98818500D01*
X130592569Y-98818500D01*
X130814635Y-98781444D01*
X131027574Y-98708342D01*
X131225576Y-98601189D01*
X131403240Y-98462906D01*
X131555722Y-98297268D01*
X131646190Y-98158795D01*
X131690982Y-98117561D01*
X131750000Y-98102616D01*
X131809018Y-98117561D01*
X131853809Y-98158795D01*
X131944278Y-98297268D01*
X132096760Y-98462906D01*
X132274424Y-98601189D01*
X132472426Y-98708342D01*
X132685365Y-98781444D01*
X132907431Y-98818500D01*
X133132569Y-98818500D01*
X133354635Y-98781444D01*
X133567574Y-98708342D01*
X133765576Y-98601189D01*
X133943240Y-98462906D01*
X134095722Y-98297268D01*
X134186190Y-98158795D01*
X134230982Y-98117561D01*
X134290000Y-98102616D01*
X134349018Y-98117561D01*
X134393809Y-98158795D01*
X134484278Y-98297268D01*
X134636760Y-98462906D01*
X134814424Y-98601189D01*
X135012426Y-98708342D01*
X135225365Y-98781444D01*
X135447431Y-98818500D01*
X135672569Y-98818500D01*
X135894635Y-98781444D01*
X136107574Y-98708342D01*
X136305576Y-98601189D01*
X136483240Y-98462906D01*
X136635722Y-98297268D01*
X136726190Y-98158795D01*
X136770982Y-98117561D01*
X136830000Y-98102616D01*
X136889018Y-98117561D01*
X136933809Y-98158795D01*
X137024278Y-98297268D01*
X137176760Y-98462906D01*
X137354424Y-98601189D01*
X137552426Y-98708342D01*
X137765365Y-98781444D01*
X137987431Y-98818500D01*
X138212569Y-98818500D01*
X138434635Y-98781444D01*
X138647574Y-98708342D01*
X138845576Y-98601189D01*
X139023240Y-98462906D01*
X139175722Y-98297268D01*
X139269748Y-98153349D01*
X139313663Y-98112595D01*
X139371562Y-98097188D01*
X139429926Y-98110726D01*
X139475131Y-98150048D01*
X139601892Y-98331080D01*
X139768918Y-98498106D01*
X139962423Y-98633600D01*
X140176507Y-98733430D01*
X140389999Y-98790635D01*
X140390000Y-98790636D01*
X140390000Y-97710000D01*
X140890000Y-97710000D01*
X140890000Y-98790635D01*
X141103492Y-98733430D01*
X141317576Y-98633600D01*
X141511081Y-98498106D01*
X141678106Y-98331081D01*
X141808425Y-98144968D01*
X141852743Y-98106103D01*
X141910000Y-98092092D01*
X141967257Y-98106103D01*
X142011575Y-98144968D01*
X142141893Y-98331081D01*
X142308918Y-98498106D01*
X142502423Y-98633600D01*
X142716507Y-98733430D01*
X142929999Y-98790635D01*
X142930000Y-98790636D01*
X142930000Y-98790635D01*
X143430000Y-98790635D01*
X143643492Y-98733430D01*
X143857576Y-98633600D01*
X144051081Y-98498106D01*
X144218106Y-98331081D01*
X144344868Y-98150048D01*
X144390072Y-98110726D01*
X144448436Y-98097188D01*
X144506335Y-98112595D01*
X144550252Y-98153351D01*
X144644276Y-98297267D01*
X144723824Y-98383677D01*
X144796760Y-98462906D01*
X144974424Y-98601189D01*
X145172426Y-98708342D01*
X145385365Y-98781444D01*
X145607431Y-98818500D01*
X145832569Y-98818500D01*
X146054635Y-98781444D01*
X146267574Y-98708342D01*
X146465576Y-98601189D01*
X146643240Y-98462906D01*
X146739230Y-98358634D01*
X149441500Y-98358634D01*
X149448011Y-98419205D01*
X149499110Y-98556203D01*
X149586738Y-98673261D01*
X149703796Y-98760889D01*
X149840794Y-98811988D01*
X149840797Y-98811988D01*
X149840799Y-98811989D01*
X149901362Y-98818500D01*
X151698634Y-98818500D01*
X151698638Y-98818500D01*
X151759201Y-98811989D01*
X151759203Y-98811988D01*
X151759205Y-98811988D01*
X151841097Y-98781443D01*
X151896204Y-98760889D01*
X152013261Y-98673261D01*
X152100889Y-98556204D01*
X152146137Y-98434889D01*
X152182089Y-98383677D01*
X152238471Y-98356539D01*
X152300925Y-98360387D01*
X152353548Y-98394241D01*
X152390969Y-98434890D01*
X152416760Y-98462906D01*
X152594424Y-98601189D01*
X152792426Y-98708342D01*
X153005365Y-98781444D01*
X153227431Y-98818500D01*
X153452569Y-98818500D01*
X153674635Y-98781444D01*
X153887574Y-98708342D01*
X154085576Y-98601189D01*
X154263240Y-98462906D01*
X154415722Y-98297268D01*
X154506190Y-98158795D01*
X154550982Y-98117561D01*
X154610000Y-98102616D01*
X154669018Y-98117561D01*
X154713809Y-98158795D01*
X154804278Y-98297268D01*
X154956760Y-98462906D01*
X155134424Y-98601189D01*
X155332426Y-98708342D01*
X155545365Y-98781444D01*
X155767431Y-98818500D01*
X155992569Y-98818500D01*
X156214635Y-98781444D01*
X156427574Y-98708342D01*
X156625576Y-98601189D01*
X156803240Y-98462906D01*
X156955722Y-98297268D01*
X157046190Y-98158795D01*
X157090982Y-98117561D01*
X157150000Y-98102616D01*
X157209018Y-98117561D01*
X157253809Y-98158795D01*
X157344278Y-98297268D01*
X157496760Y-98462906D01*
X157674424Y-98601189D01*
X157872426Y-98708342D01*
X158085365Y-98781444D01*
X158307431Y-98818500D01*
X158532569Y-98818500D01*
X158754635Y-98781444D01*
X158967574Y-98708342D01*
X159165576Y-98601189D01*
X159343240Y-98462906D01*
X159495722Y-98297268D01*
X159586190Y-98158795D01*
X159630982Y-98117561D01*
X159690000Y-98102616D01*
X159749018Y-98117561D01*
X159793809Y-98158795D01*
X159884278Y-98297268D01*
X160036760Y-98462906D01*
X160214424Y-98601189D01*
X160412426Y-98708342D01*
X160625365Y-98781444D01*
X160847431Y-98818500D01*
X161072569Y-98818500D01*
X161294635Y-98781444D01*
X161507574Y-98708342D01*
X161705576Y-98601189D01*
X161883240Y-98462906D01*
X162035722Y-98297268D01*
X162126190Y-98158795D01*
X162170982Y-98117561D01*
X162230000Y-98102616D01*
X162289018Y-98117561D01*
X162333809Y-98158795D01*
X162424278Y-98297268D01*
X162576760Y-98462906D01*
X162754424Y-98601189D01*
X162952426Y-98708342D01*
X163165365Y-98781444D01*
X163387431Y-98818500D01*
X163612569Y-98818500D01*
X163834635Y-98781444D01*
X164047574Y-98708342D01*
X164245576Y-98601189D01*
X164423240Y-98462906D01*
X164575722Y-98297268D01*
X164698860Y-98108791D01*
X164789296Y-97902616D01*
X164844564Y-97684368D01*
X164863156Y-97460000D01*
X164844564Y-97235632D01*
X164789296Y-97017384D01*
X164698860Y-96811209D01*
X164575722Y-96622732D01*
X164423240Y-96457094D01*
X164245576Y-96318811D01*
X164047574Y-96211658D01*
X164047573Y-96211657D01*
X164047572Y-96211657D01*
X163834636Y-96138556D01*
X163612569Y-96101500D01*
X163387431Y-96101500D01*
X163165363Y-96138556D01*
X162952427Y-96211657D01*
X162754424Y-96318811D01*
X162576760Y-96457094D01*
X162424279Y-96622730D01*
X162333809Y-96761205D01*
X162289017Y-96802438D01*
X162230000Y-96817383D01*
X162170983Y-96802438D01*
X162126191Y-96761205D01*
X162035723Y-96622734D01*
X162035722Y-96622732D01*
X161883240Y-96457094D01*
X161705576Y-96318811D01*
X161507574Y-96211658D01*
X161507573Y-96211657D01*
X161507572Y-96211657D01*
X161294636Y-96138556D01*
X161072569Y-96101500D01*
X160847431Y-96101500D01*
X160625363Y-96138556D01*
X160412427Y-96211657D01*
X160214424Y-96318811D01*
X160036760Y-96457094D01*
X159884279Y-96622730D01*
X159793809Y-96761205D01*
X159749017Y-96802438D01*
X159690000Y-96817383D01*
X159630983Y-96802438D01*
X159586191Y-96761205D01*
X159495723Y-96622734D01*
X159495722Y-96622732D01*
X159343240Y-96457094D01*
X159165576Y-96318811D01*
X158967574Y-96211658D01*
X158967573Y-96211657D01*
X158967572Y-96211657D01*
X158754636Y-96138556D01*
X158532569Y-96101500D01*
X158307431Y-96101500D01*
X158085363Y-96138556D01*
X157872427Y-96211657D01*
X157674424Y-96318811D01*
X157496760Y-96457094D01*
X157344279Y-96622730D01*
X157253809Y-96761205D01*
X157209017Y-96802438D01*
X157150000Y-96817383D01*
X157090983Y-96802438D01*
X157046191Y-96761205D01*
X156955723Y-96622734D01*
X156955722Y-96622732D01*
X156803240Y-96457094D01*
X156625576Y-96318811D01*
X156427574Y-96211658D01*
X156427573Y-96211657D01*
X156427572Y-96211657D01*
X156214636Y-96138556D01*
X155992569Y-96101500D01*
X155767431Y-96101500D01*
X155545363Y-96138556D01*
X155332427Y-96211657D01*
X155134424Y-96318811D01*
X154956760Y-96457094D01*
X154804279Y-96622730D01*
X154713809Y-96761205D01*
X154669017Y-96802438D01*
X154610000Y-96817383D01*
X154550983Y-96802438D01*
X154506191Y-96761205D01*
X154415723Y-96622734D01*
X154415722Y-96622732D01*
X154263240Y-96457094D01*
X154085576Y-96318811D01*
X153887574Y-96211658D01*
X153887573Y-96211657D01*
X153887572Y-96211657D01*
X153674636Y-96138556D01*
X153452569Y-96101500D01*
X153227431Y-96101500D01*
X153005363Y-96138556D01*
X152792427Y-96211657D01*
X152594424Y-96318811D01*
X152416759Y-96457094D01*
X152353548Y-96525759D01*
X152300924Y-96559612D01*
X152238470Y-96563460D01*
X152182089Y-96536322D01*
X152146138Y-96485110D01*
X152121427Y-96418861D01*
X152100889Y-96363796D01*
X152042951Y-96286400D01*
X152013261Y-96246738D01*
X151896203Y-96159110D01*
X151759205Y-96108011D01*
X151728919Y-96104755D01*
X151698638Y-96101500D01*
X149901362Y-96101500D01*
X149874445Y-96104393D01*
X149840794Y-96108011D01*
X149703796Y-96159110D01*
X149586738Y-96246738D01*
X149499110Y-96363796D01*
X149448011Y-96500794D01*
X149444393Y-96534445D01*
X149441689Y-96559612D01*
X149441500Y-96561366D01*
X149441500Y-98358634D01*
X146739230Y-98358634D01*
X146795722Y-98297268D01*
X146918860Y-98108791D01*
X147009296Y-97902616D01*
X147064564Y-97684368D01*
X147083156Y-97460000D01*
X147064564Y-97235632D01*
X147009296Y-97017384D01*
X146918860Y-96811209D01*
X146795722Y-96622732D01*
X146643240Y-96457094D01*
X146465576Y-96318811D01*
X146267574Y-96211658D01*
X146267573Y-96211657D01*
X146267572Y-96211657D01*
X146054636Y-96138556D01*
X145832569Y-96101500D01*
X145607431Y-96101500D01*
X145385363Y-96138556D01*
X145172427Y-96211657D01*
X144974424Y-96318811D01*
X144796760Y-96457094D01*
X144644275Y-96622734D01*
X144550250Y-96766650D01*
X144506334Y-96807405D01*
X144448435Y-96822812D01*
X144390071Y-96809274D01*
X144344867Y-96769951D01*
X144218109Y-96588921D01*
X144051081Y-96421893D01*
X143857576Y-96286399D01*
X143643492Y-96186569D01*
X143430000Y-96129364D01*
X143430000Y-98790635D01*
X142930000Y-98790635D01*
X142930000Y-97710000D01*
X140890000Y-97710000D01*
X140390000Y-97710000D01*
X140390000Y-97210000D01*
X140890000Y-97210000D01*
X142930000Y-97210000D01*
X142930000Y-96129364D01*
X142929999Y-96129364D01*
X142716507Y-96186569D01*
X142502421Y-96286400D01*
X142308921Y-96421890D01*
X142141893Y-96588918D01*
X142011575Y-96775032D01*
X141967257Y-96813897D01*
X141910000Y-96827908D01*
X141852743Y-96813897D01*
X141808425Y-96775032D01*
X141678106Y-96588918D01*
X141511081Y-96421893D01*
X141317576Y-96286399D01*
X141103492Y-96186569D01*
X140890000Y-96129364D01*
X140890000Y-97210000D01*
X140390000Y-97210000D01*
X140390000Y-96129364D01*
X140389999Y-96129364D01*
X140176507Y-96186569D01*
X139962421Y-96286400D01*
X139768921Y-96421890D01*
X139601893Y-96588918D01*
X139475132Y-96769952D01*
X139429928Y-96809274D01*
X139371564Y-96822812D01*
X139313665Y-96807405D01*
X139269748Y-96766649D01*
X139175723Y-96622732D01*
X139086451Y-96525759D01*
X139023240Y-96457094D01*
X138845576Y-96318811D01*
X138647574Y-96211658D01*
X138647573Y-96211657D01*
X138647572Y-96211657D01*
X138434636Y-96138556D01*
X138212569Y-96101500D01*
X137987431Y-96101500D01*
X137765363Y-96138556D01*
X137552427Y-96211657D01*
X137354424Y-96318811D01*
X137176760Y-96457094D01*
X137024279Y-96622730D01*
X136933809Y-96761205D01*
X136889017Y-96802438D01*
X136830000Y-96817383D01*
X136770983Y-96802438D01*
X136726191Y-96761205D01*
X136635723Y-96622734D01*
X136635722Y-96622732D01*
X136483240Y-96457094D01*
X136305576Y-96318811D01*
X136107574Y-96211658D01*
X136107573Y-96211657D01*
X136107572Y-96211657D01*
X135894636Y-96138556D01*
X135672569Y-96101500D01*
X135447431Y-96101500D01*
X135225363Y-96138556D01*
X135012427Y-96211657D01*
X134814424Y-96318811D01*
X134636760Y-96457094D01*
X134484279Y-96622730D01*
X134393809Y-96761205D01*
X134349017Y-96802438D01*
X134290000Y-96817383D01*
X134230983Y-96802438D01*
X134186191Y-96761205D01*
X134095723Y-96622734D01*
X134095722Y-96622732D01*
X133943240Y-96457094D01*
X133765576Y-96318811D01*
X133567574Y-96211658D01*
X133567573Y-96211657D01*
X133567572Y-96211657D01*
X133354636Y-96138556D01*
X133132569Y-96101500D01*
X132907431Y-96101500D01*
X132685363Y-96138556D01*
X132472427Y-96211657D01*
X132274424Y-96318811D01*
X132096760Y-96457094D01*
X131944279Y-96622730D01*
X131853809Y-96761205D01*
X131809017Y-96802438D01*
X131750000Y-96817383D01*
X131690983Y-96802438D01*
X131646191Y-96761205D01*
X131555723Y-96622734D01*
X131555722Y-96622732D01*
X131403240Y-96457094D01*
X131225576Y-96318811D01*
X131027574Y-96211658D01*
X131027573Y-96211657D01*
X131027572Y-96211657D01*
X130814636Y-96138556D01*
X130592569Y-96101500D01*
X130367431Y-96101500D01*
X130145363Y-96138556D01*
X129932427Y-96211657D01*
X129734424Y-96318811D01*
X129556759Y-96457094D01*
X129493548Y-96525759D01*
X129440924Y-96559612D01*
X129378470Y-96563460D01*
X129322089Y-96536322D01*
X129286138Y-96485110D01*
X129261427Y-96418861D01*
X129240889Y-96363796D01*
X129182951Y-96286400D01*
X129153261Y-96246738D01*
X129036203Y-96159110D01*
X128899205Y-96108011D01*
X128868919Y-96104755D01*
X128838638Y-96101500D01*
X127041362Y-96101500D01*
X127014445Y-96104393D01*
X126980794Y-96108011D01*
X126843796Y-96159110D01*
X126726738Y-96246738D01*
X126639110Y-96363796D01*
X126588011Y-96500794D01*
X126584393Y-96534445D01*
X126581689Y-96559612D01*
X126581500Y-96561366D01*
X126581500Y-98358634D01*
X82295500Y-98358634D01*
X82295500Y-93819999D01*
X143296501Y-93819999D01*
X143316456Y-94048084D01*
X143375717Y-94269246D01*
X143472474Y-94476744D01*
X143472476Y-94476746D01*
X143472477Y-94476749D01*
X143603802Y-94664300D01*
X143765700Y-94826198D01*
X143953251Y-94957523D01*
X144160757Y-95054284D01*
X144381913Y-95113543D01*
X144610000Y-95133498D01*
X144838087Y-95113543D01*
X145059243Y-95054284D01*
X145266749Y-94957523D01*
X145454300Y-94826198D01*
X145616198Y-94664300D01*
X145747523Y-94476749D01*
X145844284Y-94269243D01*
X145903543Y-94048087D01*
X145923498Y-93820000D01*
X145923498Y-93819999D01*
X153456501Y-93819999D01*
X153476456Y-94048084D01*
X153535717Y-94269246D01*
X153632474Y-94476744D01*
X153632476Y-94476746D01*
X153632477Y-94476749D01*
X153763802Y-94664300D01*
X153925700Y-94826198D01*
X154113251Y-94957523D01*
X154320757Y-95054284D01*
X154541913Y-95113543D01*
X154770000Y-95133498D01*
X154998087Y-95113543D01*
X155219243Y-95054284D01*
X155426749Y-94957523D01*
X155614300Y-94826198D01*
X155776198Y-94664300D01*
X155907523Y-94476749D01*
X156004284Y-94269243D01*
X156063543Y-94048087D01*
X156083498Y-93820000D01*
X156063543Y-93591913D01*
X156004284Y-93370757D01*
X155907523Y-93163251D01*
X155776198Y-92975700D01*
X155614300Y-92813802D01*
X155426749Y-92682477D01*
X155426746Y-92682476D01*
X155426744Y-92682474D01*
X155219246Y-92585717D01*
X155219243Y-92585716D01*
X155108665Y-92556086D01*
X154998084Y-92526456D01*
X154770000Y-92506501D01*
X154541915Y-92526456D01*
X154320753Y-92585717D01*
X154113255Y-92682474D01*
X153925696Y-92813805D01*
X153763805Y-92975696D01*
X153632474Y-93163255D01*
X153535717Y-93370753D01*
X153476456Y-93591915D01*
X153456501Y-93819999D01*
X145923498Y-93819999D01*
X145903543Y-93591913D01*
X145844284Y-93370757D01*
X145747523Y-93163251D01*
X145616198Y-92975700D01*
X145454300Y-92813802D01*
X145266749Y-92682477D01*
X145266746Y-92682476D01*
X145266744Y-92682474D01*
X145059246Y-92585717D01*
X145059243Y-92585716D01*
X144948665Y-92556086D01*
X144838084Y-92526456D01*
X144610000Y-92506501D01*
X144381915Y-92526456D01*
X144160753Y-92585717D01*
X143953255Y-92682474D01*
X143765696Y-92813805D01*
X143603805Y-92975696D01*
X143472474Y-93163255D01*
X143375717Y-93370753D01*
X143316456Y-93591915D01*
X143296501Y-93819999D01*
X82295500Y-93819999D01*
X82295500Y-92379999D01*
X85986501Y-92379999D01*
X86006456Y-92608084D01*
X86026389Y-92682474D01*
X86064934Y-92826326D01*
X86065717Y-92829246D01*
X86162474Y-93036744D01*
X86162476Y-93036746D01*
X86162477Y-93036749D01*
X86293802Y-93224300D01*
X86455700Y-93386198D01*
X86643251Y-93517523D01*
X86850757Y-93614284D01*
X87071913Y-93673543D01*
X87300000Y-93693498D01*
X87528087Y-93673543D01*
X87749243Y-93614284D01*
X87956749Y-93517523D01*
X88144300Y-93386198D01*
X88306198Y-93224300D01*
X88437523Y-93036749D01*
X88534284Y-92829243D01*
X88587671Y-92630000D01*
X96181128Y-92630000D01*
X96233733Y-92826326D01*
X96329865Y-93032480D01*
X96460341Y-93218819D01*
X96621180Y-93379658D01*
X96807519Y-93510134D01*
X97013673Y-93606266D01*
X97209999Y-93658871D01*
X97210000Y-93658872D01*
X97210000Y-92630000D01*
X97710000Y-92630000D01*
X97710000Y-93658871D01*
X97906326Y-93606266D01*
X98112480Y-93510134D01*
X98298819Y-93379658D01*
X98459658Y-93218819D01*
X98590134Y-93032480D01*
X98686266Y-92826326D01*
X98738872Y-92630000D01*
X97710000Y-92630000D01*
X97210000Y-92630000D01*
X96181128Y-92630000D01*
X88587671Y-92630000D01*
X88593543Y-92608087D01*
X88613498Y-92380000D01*
X88613498Y-92379999D01*
X106306501Y-92379999D01*
X106326456Y-92608084D01*
X106346389Y-92682474D01*
X106384934Y-92826326D01*
X106385717Y-92829246D01*
X106482474Y-93036744D01*
X106482476Y-93036746D01*
X106482477Y-93036749D01*
X106613802Y-93224300D01*
X106775700Y-93386198D01*
X106963251Y-93517523D01*
X107170757Y-93614284D01*
X107391913Y-93673543D01*
X107620000Y-93693498D01*
X107848087Y-93673543D01*
X108069243Y-93614284D01*
X108276749Y-93517523D01*
X108464300Y-93386198D01*
X108626198Y-93224300D01*
X108757523Y-93036749D01*
X108854284Y-92829243D01*
X108907671Y-92630000D01*
X116501128Y-92630000D01*
X116553733Y-92826326D01*
X116649865Y-93032480D01*
X116780341Y-93218819D01*
X116941180Y-93379658D01*
X117127519Y-93510134D01*
X117333673Y-93606266D01*
X117529999Y-93658871D01*
X117530000Y-93658872D01*
X117530000Y-92630000D01*
X118030000Y-92630000D01*
X118030000Y-93658871D01*
X118226326Y-93606266D01*
X118432480Y-93510134D01*
X118618819Y-93379658D01*
X118779658Y-93218819D01*
X118910134Y-93032480D01*
X119006266Y-92826326D01*
X119058872Y-92630000D01*
X118030000Y-92630000D01*
X117530000Y-92630000D01*
X116501128Y-92630000D01*
X108907671Y-92630000D01*
X108913543Y-92608087D01*
X108933498Y-92380000D01*
X108913543Y-92151913D01*
X108907671Y-92130000D01*
X116501128Y-92130000D01*
X117530000Y-92130000D01*
X117530000Y-91101128D01*
X118030000Y-91101128D01*
X118030000Y-92130000D01*
X119058872Y-92130000D01*
X119058871Y-92129999D01*
X119006266Y-91933673D01*
X118910134Y-91727519D01*
X118779658Y-91541180D01*
X118618819Y-91380341D01*
X118432480Y-91249865D01*
X118226326Y-91153733D01*
X118030000Y-91101128D01*
X117530000Y-91101128D01*
X117529999Y-91101128D01*
X117333673Y-91153733D01*
X117127519Y-91249865D01*
X116941180Y-91380341D01*
X116780341Y-91541180D01*
X116649865Y-91727519D01*
X116553733Y-91933673D01*
X116501128Y-92129999D01*
X116501128Y-92130000D01*
X108907671Y-92130000D01*
X108854284Y-91930757D01*
X108757523Y-91723251D01*
X108626198Y-91535700D01*
X108464300Y-91373802D01*
X108276749Y-91242477D01*
X108276746Y-91242476D01*
X108276744Y-91242474D01*
X108069246Y-91145717D01*
X108069243Y-91145716D01*
X107902840Y-91101128D01*
X107848084Y-91086456D01*
X107620000Y-91066501D01*
X107391915Y-91086456D01*
X107170753Y-91145717D01*
X106963255Y-91242474D01*
X106775696Y-91373805D01*
X106613805Y-91535696D01*
X106482474Y-91723255D01*
X106385717Y-91930753D01*
X106326456Y-92151915D01*
X106306501Y-92379999D01*
X88613498Y-92379999D01*
X88593543Y-92151913D01*
X88587671Y-92130000D01*
X96181128Y-92130000D01*
X97210000Y-92130000D01*
X97210000Y-91101128D01*
X97710000Y-91101128D01*
X97710000Y-92130000D01*
X98738872Y-92130000D01*
X98738871Y-92129999D01*
X98686266Y-91933673D01*
X98590134Y-91727519D01*
X98459658Y-91541180D01*
X98298819Y-91380341D01*
X98112480Y-91249865D01*
X97906326Y-91153733D01*
X97710000Y-91101128D01*
X97210000Y-91101128D01*
X97209999Y-91101128D01*
X97013673Y-91153733D01*
X96807519Y-91249865D01*
X96621180Y-91380341D01*
X96460341Y-91541180D01*
X96329865Y-91727519D01*
X96233733Y-91933673D01*
X96181128Y-92129999D01*
X96181128Y-92130000D01*
X88587671Y-92130000D01*
X88534284Y-91930757D01*
X88437523Y-91723251D01*
X88306198Y-91535700D01*
X88144300Y-91373802D01*
X87956749Y-91242477D01*
X87956746Y-91242476D01*
X87956744Y-91242474D01*
X87749246Y-91145717D01*
X87749243Y-91145716D01*
X87582840Y-91101128D01*
X87528084Y-91086456D01*
X87300000Y-91066501D01*
X87071915Y-91086456D01*
X86850753Y-91145717D01*
X86643255Y-91242474D01*
X86455696Y-91373805D01*
X86293805Y-91535696D01*
X86162474Y-91723255D01*
X86065717Y-91930753D01*
X86006456Y-92151915D01*
X85986501Y-92379999D01*
X82295500Y-92379999D01*
X82295500Y-89770000D01*
X143296501Y-89770000D01*
X143316456Y-89998084D01*
X143375717Y-90219246D01*
X143472474Y-90426744D01*
X143472476Y-90426746D01*
X143472477Y-90426749D01*
X143603802Y-90614300D01*
X143765700Y-90776198D01*
X143953251Y-90907523D01*
X144160757Y-91004284D01*
X144381913Y-91063543D01*
X144610000Y-91083498D01*
X144838087Y-91063543D01*
X145059243Y-91004284D01*
X145266749Y-90907523D01*
X145454300Y-90776198D01*
X145616198Y-90614300D01*
X145747523Y-90426749D01*
X145844284Y-90219243D01*
X145903543Y-89998087D01*
X145923498Y-89770000D01*
X153456501Y-89770000D01*
X153476456Y-89998084D01*
X153535717Y-90219246D01*
X153632474Y-90426744D01*
X153632476Y-90426746D01*
X153632477Y-90426749D01*
X153763802Y-90614300D01*
X153925700Y-90776198D01*
X154113251Y-90907523D01*
X154320757Y-91004284D01*
X154541913Y-91063543D01*
X154770000Y-91083498D01*
X154998087Y-91063543D01*
X155219243Y-91004284D01*
X155426749Y-90907523D01*
X155614300Y-90776198D01*
X155776198Y-90614300D01*
X155907523Y-90426749D01*
X156004284Y-90219243D01*
X156063543Y-89998087D01*
X156083498Y-89770000D01*
X156063543Y-89541913D01*
X156004284Y-89320757D01*
X155907523Y-89113251D01*
X155776198Y-88925700D01*
X155614300Y-88763802D01*
X155426749Y-88632477D01*
X155426746Y-88632476D01*
X155426744Y-88632474D01*
X155219246Y-88535717D01*
X155219243Y-88535716D01*
X155108665Y-88506086D01*
X154998084Y-88476456D01*
X154770000Y-88456501D01*
X154541915Y-88476456D01*
X154320753Y-88535717D01*
X154113255Y-88632474D01*
X153925696Y-88763805D01*
X153763805Y-88925696D01*
X153632474Y-89113255D01*
X153535717Y-89320753D01*
X153476456Y-89541915D01*
X153456501Y-89770000D01*
X145923498Y-89770000D01*
X145903543Y-89541913D01*
X145844284Y-89320757D01*
X145747523Y-89113251D01*
X145616198Y-88925700D01*
X145454300Y-88763802D01*
X145266749Y-88632477D01*
X145266746Y-88632476D01*
X145266744Y-88632474D01*
X145059246Y-88535717D01*
X145059243Y-88535716D01*
X144948665Y-88506086D01*
X144838084Y-88476456D01*
X144610000Y-88456501D01*
X144381915Y-88476456D01*
X144160753Y-88535717D01*
X143953255Y-88632474D01*
X143765696Y-88763805D01*
X143603805Y-88925696D01*
X143472474Y-89113255D01*
X143375717Y-89320753D01*
X143316456Y-89541915D01*
X143296501Y-89770000D01*
X82295500Y-89770000D01*
X82295500Y-87550000D01*
X156741128Y-87550000D01*
X156793733Y-87746326D01*
X156889865Y-87952480D01*
X157020341Y-88138819D01*
X157181180Y-88299658D01*
X157367519Y-88430134D01*
X157573673Y-88526266D01*
X157793397Y-88585141D01*
X157963235Y-88600000D01*
X158170000Y-88600000D01*
X158170000Y-87550000D01*
X158670000Y-87550000D01*
X158670000Y-88600000D01*
X158876765Y-88600000D01*
X159046602Y-88585141D01*
X159266326Y-88526266D01*
X159472480Y-88430134D01*
X159658819Y-88299658D01*
X159819658Y-88138819D01*
X159950134Y-87952480D01*
X160046266Y-87746326D01*
X160098872Y-87550000D01*
X158670000Y-87550000D01*
X158170000Y-87550000D01*
X156741128Y-87550000D01*
X82295500Y-87550000D01*
X82295500Y-87300000D01*
X164326501Y-87300000D01*
X164346456Y-87528084D01*
X164376086Y-87638664D01*
X164404934Y-87746326D01*
X164405717Y-87749246D01*
X164502474Y-87956744D01*
X164502476Y-87956746D01*
X164502477Y-87956749D01*
X164633802Y-88144300D01*
X164795700Y-88306198D01*
X164983251Y-88437523D01*
X165190757Y-88534284D01*
X165411913Y-88593543D01*
X165485717Y-88600000D01*
X165582871Y-88608500D01*
X165582873Y-88608500D01*
X166497127Y-88608500D01*
X166497129Y-88608500D01*
X166565511Y-88602517D01*
X166668087Y-88593543D01*
X166889243Y-88534284D01*
X167096749Y-88437523D01*
X167284300Y-88306198D01*
X167446198Y-88144300D01*
X167577523Y-87956749D01*
X167674284Y-87749243D01*
X167733543Y-87528087D01*
X167753498Y-87300000D01*
X167733543Y-87071913D01*
X167674284Y-86850757D01*
X167577523Y-86643251D01*
X167446198Y-86455700D01*
X167284300Y-86293802D01*
X167096749Y-86162477D01*
X167063708Y-86147070D01*
X167053655Y-86142382D01*
X167001479Y-86096625D01*
X166982059Y-86030000D01*
X167001479Y-85963375D01*
X167053655Y-85917618D01*
X167056882Y-85916112D01*
X167096749Y-85897523D01*
X167284300Y-85766198D01*
X167446198Y-85604300D01*
X167577523Y-85416749D01*
X167674284Y-85209243D01*
X167733543Y-84988087D01*
X167753498Y-84760000D01*
X167749456Y-84713805D01*
X167737967Y-84582477D01*
X167733543Y-84531913D01*
X167674284Y-84310757D01*
X167577523Y-84103251D01*
X167446198Y-83915700D01*
X167284300Y-83753802D01*
X167096749Y-83622477D01*
X167053655Y-83602382D01*
X167001479Y-83556625D01*
X166982059Y-83490000D01*
X167001479Y-83423375D01*
X167053655Y-83377618D01*
X167056882Y-83376112D01*
X167096749Y-83357523D01*
X167284300Y-83226198D01*
X167446198Y-83064300D01*
X167577523Y-82876749D01*
X167674284Y-82669243D01*
X167733543Y-82448087D01*
X167753498Y-82220000D01*
X167733543Y-81991913D01*
X167674284Y-81770757D01*
X167577523Y-81563251D01*
X167446198Y-81375700D01*
X167284300Y-81213802D01*
X167096749Y-81082477D01*
X167053655Y-81062382D01*
X167001479Y-81016625D01*
X166982059Y-80950000D01*
X167001479Y-80883375D01*
X167053655Y-80837618D01*
X167056882Y-80836112D01*
X167096749Y-80817523D01*
X167284300Y-80686198D01*
X167446198Y-80524300D01*
X167577523Y-80336749D01*
X167674284Y-80129243D01*
X167733543Y-79908087D01*
X167753498Y-79680000D01*
X167733543Y-79451913D01*
X167674284Y-79230757D01*
X167577523Y-79023251D01*
X167446198Y-78835700D01*
X167284300Y-78673802D01*
X167096749Y-78542477D01*
X167096748Y-78542476D01*
X167096746Y-78542475D01*
X167043598Y-78517692D01*
X166991422Y-78471934D01*
X166972003Y-78405309D01*
X166991423Y-78338683D01*
X167043600Y-78292927D01*
X167092481Y-78270133D01*
X167278819Y-78139658D01*
X167439658Y-77978819D01*
X167570134Y-77792480D01*
X167666266Y-77586326D01*
X167718872Y-77390000D01*
X164361128Y-77390000D01*
X164413733Y-77586326D01*
X164509865Y-77792480D01*
X164640341Y-77978819D01*
X164801180Y-78139658D01*
X164987516Y-78270132D01*
X165036400Y-78292927D01*
X165088576Y-78338684D01*
X165107996Y-78405309D01*
X165088577Y-78471934D01*
X165036402Y-78517691D01*
X164983256Y-78542474D01*
X164983255Y-78542475D01*
X164983251Y-78542477D01*
X164795700Y-78673802D01*
X164795696Y-78673805D01*
X164633805Y-78835696D01*
X164502474Y-79023255D01*
X164405717Y-79230753D01*
X164346456Y-79451915D01*
X164326501Y-79680000D01*
X164346456Y-79908084D01*
X164405717Y-80129246D01*
X164502474Y-80336744D01*
X164502476Y-80336746D01*
X164502477Y-80336749D01*
X164633802Y-80524300D01*
X164795700Y-80686198D01*
X164983251Y-80817523D01*
X165023334Y-80836214D01*
X165026345Y-80837618D01*
X165078521Y-80883375D01*
X165097940Y-80950000D01*
X165078521Y-81016625D01*
X165026344Y-81062382D01*
X164983251Y-81082477D01*
X164959947Y-81098795D01*
X164795696Y-81213805D01*
X164633805Y-81375696D01*
X164502474Y-81563255D01*
X164405717Y-81770753D01*
X164346456Y-81991915D01*
X164326501Y-82220000D01*
X164346456Y-82448084D01*
X164405717Y-82669246D01*
X164502474Y-82876744D01*
X164502476Y-82876746D01*
X164502477Y-82876749D01*
X164633802Y-83064300D01*
X164795700Y-83226198D01*
X164983251Y-83357523D01*
X165023334Y-83376214D01*
X165026345Y-83377618D01*
X165078521Y-83423375D01*
X165097940Y-83490000D01*
X165078521Y-83556625D01*
X165026344Y-83602382D01*
X164983251Y-83622477D01*
X164795700Y-83753802D01*
X164795696Y-83753805D01*
X164633805Y-83915696D01*
X164502474Y-84103255D01*
X164405717Y-84310753D01*
X164346456Y-84531915D01*
X164326501Y-84759999D01*
X164346456Y-84988084D01*
X164405717Y-85209246D01*
X164502474Y-85416744D01*
X164502476Y-85416746D01*
X164502477Y-85416749D01*
X164633802Y-85604300D01*
X164795700Y-85766198D01*
X164983251Y-85897523D01*
X165023334Y-85916214D01*
X165026345Y-85917618D01*
X165078521Y-85963375D01*
X165097940Y-86030000D01*
X165078521Y-86096625D01*
X165026345Y-86142382D01*
X164983255Y-86162475D01*
X164983251Y-86162477D01*
X164795700Y-86293802D01*
X164795696Y-86293805D01*
X164633805Y-86455696D01*
X164502474Y-86643255D01*
X164405717Y-86850753D01*
X164346456Y-87071915D01*
X164326501Y-87300000D01*
X82295500Y-87300000D01*
X82295500Y-84798783D01*
X85467500Y-84798783D01*
X85506602Y-85033112D01*
X85567069Y-85209243D01*
X85583740Y-85257804D01*
X85669757Y-85416749D01*
X85696810Y-85466738D01*
X85842724Y-85654211D01*
X85914190Y-85719999D01*
X86017508Y-85815110D01*
X86216391Y-85945046D01*
X86433948Y-86040476D01*
X86664245Y-86098795D01*
X86735230Y-86104676D01*
X86841703Y-86113500D01*
X86841709Y-86113500D01*
X88158291Y-86113500D01*
X88158297Y-86113500D01*
X88255089Y-86105479D01*
X88335755Y-86098795D01*
X88566052Y-86040476D01*
X88783609Y-85945046D01*
X88982492Y-85815110D01*
X89157275Y-85654211D01*
X89303191Y-85466737D01*
X89416260Y-85257804D01*
X89493398Y-85033110D01*
X89532500Y-84798783D01*
X97967500Y-84798783D01*
X98006602Y-85033112D01*
X98067069Y-85209243D01*
X98083740Y-85257804D01*
X98169757Y-85416749D01*
X98196810Y-85466738D01*
X98342724Y-85654211D01*
X98414190Y-85719999D01*
X98517508Y-85815110D01*
X98716391Y-85945046D01*
X98933948Y-86040476D01*
X99164245Y-86098795D01*
X99235230Y-86104676D01*
X99341703Y-86113500D01*
X99341709Y-86113500D01*
X100658291Y-86113500D01*
X100658297Y-86113500D01*
X100755089Y-86105479D01*
X100835755Y-86098795D01*
X101066052Y-86040476D01*
X101283609Y-85945046D01*
X101482492Y-85815110D01*
X101657275Y-85654211D01*
X101803191Y-85466737D01*
X101916260Y-85257804D01*
X101993398Y-85033110D01*
X102032500Y-84798783D01*
X105787500Y-84798783D01*
X105826602Y-85033112D01*
X105887069Y-85209243D01*
X105903740Y-85257804D01*
X105989757Y-85416749D01*
X106016810Y-85466738D01*
X106162724Y-85654211D01*
X106234190Y-85719999D01*
X106337508Y-85815110D01*
X106536391Y-85945046D01*
X106753948Y-86040476D01*
X106984245Y-86098795D01*
X107055230Y-86104676D01*
X107161703Y-86113500D01*
X107161709Y-86113500D01*
X108478291Y-86113500D01*
X108478297Y-86113500D01*
X108575089Y-86105479D01*
X108655755Y-86098795D01*
X108886052Y-86040476D01*
X109103609Y-85945046D01*
X109302492Y-85815110D01*
X109477275Y-85654211D01*
X109623191Y-85466737D01*
X109736260Y-85257804D01*
X109813398Y-85033110D01*
X109852500Y-84798783D01*
X118287500Y-84798783D01*
X118326602Y-85033112D01*
X118387069Y-85209243D01*
X118403740Y-85257804D01*
X118489757Y-85416749D01*
X118516810Y-85466738D01*
X118662724Y-85654211D01*
X118734190Y-85719999D01*
X118837508Y-85815110D01*
X119036391Y-85945046D01*
X119253948Y-86040476D01*
X119484245Y-86098795D01*
X119555230Y-86104676D01*
X119661703Y-86113500D01*
X119661709Y-86113500D01*
X120978291Y-86113500D01*
X120978297Y-86113500D01*
X121075089Y-86105479D01*
X121155755Y-86098795D01*
X121386052Y-86040476D01*
X121603609Y-85945046D01*
X121802492Y-85815110D01*
X121905810Y-85719999D01*
X143296501Y-85719999D01*
X143316456Y-85948084D01*
X143338406Y-86030000D01*
X143369774Y-86147069D01*
X143375717Y-86169246D01*
X143472474Y-86376744D01*
X143472476Y-86376746D01*
X143472477Y-86376749D01*
X143603802Y-86564300D01*
X143765700Y-86726198D01*
X143953251Y-86857523D01*
X144160757Y-86954284D01*
X144381913Y-87013543D01*
X144610000Y-87033498D01*
X144838087Y-87013543D01*
X145059243Y-86954284D01*
X145266749Y-86857523D01*
X145454300Y-86726198D01*
X145616198Y-86564300D01*
X145747523Y-86376749D01*
X145844284Y-86169243D01*
X145903543Y-85948087D01*
X145923498Y-85720000D01*
X145923498Y-85719999D01*
X153456501Y-85719999D01*
X153476456Y-85948084D01*
X153498406Y-86030000D01*
X153529774Y-86147069D01*
X153535717Y-86169246D01*
X153632474Y-86376744D01*
X153632476Y-86376746D01*
X153632477Y-86376749D01*
X153763802Y-86564300D01*
X153925700Y-86726198D01*
X154113251Y-86857523D01*
X154320757Y-86954284D01*
X154541913Y-87013543D01*
X154770000Y-87033498D01*
X154998087Y-87013543D01*
X155219243Y-86954284D01*
X155426749Y-86857523D01*
X155614300Y-86726198D01*
X155776198Y-86564300D01*
X155907523Y-86376749D01*
X156004284Y-86169243D01*
X156063543Y-85948087D01*
X156083498Y-85720000D01*
X156063543Y-85491913D01*
X156004284Y-85270757D01*
X155907523Y-85063251D01*
X155776198Y-84875700D01*
X155660497Y-84759999D01*
X156706501Y-84759999D01*
X156726456Y-84988084D01*
X156785717Y-85209246D01*
X156882474Y-85416744D01*
X156882476Y-85416746D01*
X156882477Y-85416749D01*
X157013802Y-85604300D01*
X157175700Y-85766198D01*
X157363251Y-85897523D01*
X157416401Y-85922307D01*
X157468576Y-85968061D01*
X157487996Y-86034686D01*
X157468578Y-86101311D01*
X157416403Y-86147069D01*
X157367520Y-86169864D01*
X157181180Y-86300341D01*
X157020341Y-86461180D01*
X156889865Y-86647519D01*
X156793733Y-86853673D01*
X156741128Y-87049999D01*
X156741128Y-87050000D01*
X160098872Y-87050000D01*
X160098871Y-87049999D01*
X160046266Y-86853673D01*
X159950134Y-86647519D01*
X159819658Y-86461180D01*
X159658819Y-86300341D01*
X159472482Y-86169866D01*
X159423597Y-86147070D01*
X159371422Y-86101312D01*
X159352003Y-86034686D01*
X159371424Y-85968061D01*
X159423596Y-85922308D01*
X159476749Y-85897523D01*
X159664300Y-85766198D01*
X159826198Y-85604300D01*
X159957523Y-85416749D01*
X160054284Y-85209243D01*
X160113543Y-84988087D01*
X160133498Y-84760000D01*
X160129456Y-84713805D01*
X160117967Y-84582477D01*
X160113543Y-84531913D01*
X160054284Y-84310757D01*
X159957523Y-84103251D01*
X159826198Y-83915700D01*
X159664300Y-83753802D01*
X159476749Y-83622477D01*
X159433655Y-83602382D01*
X159381479Y-83556625D01*
X159362059Y-83490000D01*
X159381479Y-83423375D01*
X159433655Y-83377618D01*
X159436882Y-83376112D01*
X159476749Y-83357523D01*
X159664300Y-83226198D01*
X159826198Y-83064300D01*
X159957523Y-82876749D01*
X160054284Y-82669243D01*
X160113543Y-82448087D01*
X160133498Y-82220000D01*
X160113543Y-81991913D01*
X160054284Y-81770757D01*
X159957523Y-81563251D01*
X159826198Y-81375700D01*
X159664300Y-81213802D01*
X159476749Y-81082477D01*
X159433655Y-81062382D01*
X159381479Y-81016625D01*
X159362059Y-80950000D01*
X159381479Y-80883375D01*
X159433655Y-80837618D01*
X159436882Y-80836112D01*
X159476749Y-80817523D01*
X159664300Y-80686198D01*
X159826198Y-80524300D01*
X159957523Y-80336749D01*
X160054284Y-80129243D01*
X160113543Y-79908087D01*
X160133498Y-79680000D01*
X160113543Y-79451913D01*
X160054284Y-79230757D01*
X159957523Y-79023251D01*
X159826198Y-78835700D01*
X159664300Y-78673802D01*
X159476749Y-78542477D01*
X159433655Y-78522382D01*
X159381479Y-78476625D01*
X159362059Y-78410000D01*
X159381479Y-78343375D01*
X159433655Y-78297618D01*
X159436882Y-78296112D01*
X159476749Y-78277523D01*
X159664300Y-78146198D01*
X159826198Y-77984300D01*
X159957523Y-77796749D01*
X160054284Y-77589243D01*
X160113543Y-77368087D01*
X160133498Y-77140000D01*
X160113543Y-76911913D01*
X160054284Y-76690757D01*
X159957523Y-76483251D01*
X159826198Y-76295700D01*
X159664300Y-76133802D01*
X159476749Y-76002477D01*
X159433653Y-75982381D01*
X159381478Y-75936623D01*
X159362059Y-75869997D01*
X159381480Y-75803372D01*
X159433654Y-75757618D01*
X159476749Y-75737523D01*
X159664300Y-75606198D01*
X159826198Y-75444300D01*
X159957523Y-75256749D01*
X160054284Y-75049243D01*
X160113543Y-74828087D01*
X160133498Y-74600000D01*
X164326501Y-74600000D01*
X164346456Y-74828084D01*
X164405717Y-75049246D01*
X164502474Y-75256744D01*
X164502476Y-75256746D01*
X164502477Y-75256749D01*
X164633802Y-75444300D01*
X164795700Y-75606198D01*
X164983251Y-75737523D01*
X165036401Y-75762307D01*
X165088576Y-75808061D01*
X165107996Y-75874686D01*
X165088578Y-75941311D01*
X165036403Y-75987069D01*
X164987520Y-76009864D01*
X164801180Y-76140341D01*
X164640341Y-76301180D01*
X164509865Y-76487519D01*
X164413733Y-76693673D01*
X164361128Y-76889999D01*
X164361128Y-76890000D01*
X167718872Y-76890000D01*
X167718871Y-76889999D01*
X167666266Y-76693673D01*
X167570134Y-76487519D01*
X167439658Y-76301180D01*
X167278819Y-76140341D01*
X167092482Y-76009866D01*
X167043597Y-75987070D01*
X166991422Y-75941312D01*
X166972003Y-75874686D01*
X166991424Y-75808061D01*
X167043596Y-75762308D01*
X167096749Y-75737523D01*
X167284300Y-75606198D01*
X167446198Y-75444300D01*
X167577523Y-75256749D01*
X167674284Y-75049243D01*
X167733543Y-74828087D01*
X167753498Y-74600000D01*
X167733543Y-74371913D01*
X167674284Y-74150757D01*
X167577523Y-73943251D01*
X167446198Y-73755700D01*
X167284300Y-73593802D01*
X167096749Y-73462477D01*
X167053655Y-73442382D01*
X167001479Y-73396625D01*
X166982059Y-73330000D01*
X167001479Y-73263375D01*
X167053655Y-73217618D01*
X167056882Y-73216112D01*
X167096749Y-73197523D01*
X167284300Y-73066198D01*
X167446198Y-72904300D01*
X167577523Y-72716749D01*
X167674284Y-72509243D01*
X167733543Y-72288087D01*
X167753498Y-72060000D01*
X167733543Y-71831913D01*
X167674284Y-71610757D01*
X167577523Y-71403251D01*
X167446198Y-71215700D01*
X167284300Y-71053802D01*
X167096749Y-70922477D01*
X167053655Y-70902382D01*
X167001479Y-70856625D01*
X166982059Y-70790000D01*
X167001479Y-70723375D01*
X167053655Y-70677618D01*
X167056882Y-70676112D01*
X167096749Y-70657523D01*
X167284300Y-70526198D01*
X167446198Y-70364300D01*
X167577523Y-70176749D01*
X167674284Y-69969243D01*
X167733543Y-69748087D01*
X167753498Y-69520000D01*
X167733543Y-69291913D01*
X167674284Y-69070757D01*
X167577523Y-68863251D01*
X167446198Y-68675700D01*
X167284300Y-68513802D01*
X167096749Y-68382477D01*
X167096746Y-68382476D01*
X167096744Y-68382474D01*
X166889246Y-68285717D01*
X166889243Y-68285716D01*
X166778665Y-68256086D01*
X166668084Y-68226456D01*
X166497129Y-68211500D01*
X166497127Y-68211500D01*
X165582873Y-68211500D01*
X165582871Y-68211500D01*
X165411915Y-68226456D01*
X165190753Y-68285717D01*
X164983255Y-68382474D01*
X164795696Y-68513805D01*
X164633805Y-68675696D01*
X164502474Y-68863255D01*
X164405717Y-69070753D01*
X164346456Y-69291915D01*
X164326501Y-69519999D01*
X164346456Y-69748084D01*
X164405717Y-69969246D01*
X164502474Y-70176744D01*
X164502476Y-70176746D01*
X164502477Y-70176749D01*
X164633802Y-70364300D01*
X164795700Y-70526198D01*
X164983251Y-70657523D01*
X165023334Y-70676214D01*
X165026345Y-70677618D01*
X165078521Y-70723375D01*
X165097940Y-70790000D01*
X165078521Y-70856625D01*
X165026344Y-70902382D01*
X164983251Y-70922477D01*
X164803368Y-71048433D01*
X164795696Y-71053805D01*
X164633805Y-71215696D01*
X164502474Y-71403255D01*
X164405717Y-71610753D01*
X164346456Y-71831915D01*
X164326501Y-72060000D01*
X164346456Y-72288084D01*
X164376086Y-72398665D01*
X164401116Y-72492077D01*
X164405717Y-72509246D01*
X164502474Y-72716744D01*
X164502476Y-72716746D01*
X164502477Y-72716749D01*
X164633802Y-72904300D01*
X164795700Y-73066198D01*
X164983251Y-73197523D01*
X165026345Y-73217618D01*
X165078520Y-73263372D01*
X165097940Y-73329997D01*
X165078522Y-73396622D01*
X165026347Y-73442380D01*
X164983254Y-73462475D01*
X164795696Y-73593805D01*
X164633805Y-73755696D01*
X164502474Y-73943255D01*
X164405717Y-74150753D01*
X164346456Y-74371915D01*
X164326501Y-74600000D01*
X160133498Y-74600000D01*
X160113543Y-74371913D01*
X160054284Y-74150757D01*
X159957523Y-73943251D01*
X159826198Y-73755700D01*
X159664300Y-73593802D01*
X159476749Y-73462477D01*
X159433655Y-73442382D01*
X159381479Y-73396625D01*
X159362059Y-73330000D01*
X159381479Y-73263375D01*
X159433655Y-73217618D01*
X159436882Y-73216112D01*
X159476749Y-73197523D01*
X159664300Y-73066198D01*
X159826198Y-72904300D01*
X159957523Y-72716749D01*
X160054284Y-72509243D01*
X160113543Y-72288087D01*
X160133498Y-72060000D01*
X160113543Y-71831913D01*
X160054284Y-71610757D01*
X159957523Y-71403251D01*
X159826198Y-71215700D01*
X159664300Y-71053802D01*
X159656629Y-71048431D01*
X159617496Y-71003592D01*
X159603762Y-70945679D01*
X159618596Y-70888037D01*
X159658580Y-70843948D01*
X159714500Y-70823569D01*
X159729201Y-70821989D01*
X159729203Y-70821988D01*
X159729205Y-70821988D01*
X159814966Y-70790000D01*
X159866204Y-70770889D01*
X159983261Y-70683261D01*
X160070889Y-70566204D01*
X160121989Y-70429201D01*
X160128500Y-70368638D01*
X160128500Y-68671362D01*
X160121989Y-68610799D01*
X160121988Y-68610797D01*
X160121988Y-68610794D01*
X160070889Y-68473796D01*
X159983261Y-68356738D01*
X159866203Y-68269110D01*
X159729205Y-68218011D01*
X159698919Y-68214755D01*
X159668638Y-68211500D01*
X157171362Y-68211500D01*
X157144445Y-68214393D01*
X157110794Y-68218011D01*
X156973796Y-68269110D01*
X156856738Y-68356738D01*
X156769110Y-68473796D01*
X156718011Y-68610794D01*
X156711500Y-68671366D01*
X156711500Y-70368634D01*
X156718011Y-70429205D01*
X156769110Y-70566203D01*
X156856738Y-70683261D01*
X156973796Y-70770889D01*
X157110794Y-70821988D01*
X157110797Y-70821988D01*
X157110799Y-70821989D01*
X157125497Y-70823569D01*
X157181419Y-70843948D01*
X157221403Y-70888036D01*
X157236237Y-70945677D01*
X157222505Y-71003590D01*
X157183368Y-71048433D01*
X157175698Y-71053803D01*
X157013805Y-71215696D01*
X156882474Y-71403255D01*
X156785717Y-71610753D01*
X156726456Y-71831915D01*
X156706501Y-72060000D01*
X156726456Y-72288084D01*
X156756086Y-72398665D01*
X156781116Y-72492077D01*
X156785717Y-72509246D01*
X156882474Y-72716744D01*
X156882476Y-72716746D01*
X156882477Y-72716749D01*
X157013802Y-72904300D01*
X157175700Y-73066198D01*
X157363251Y-73197523D01*
X157406345Y-73217618D01*
X157458520Y-73263372D01*
X157477940Y-73329997D01*
X157458522Y-73396622D01*
X157406347Y-73442380D01*
X157363254Y-73462475D01*
X157175696Y-73593805D01*
X157013805Y-73755696D01*
X156882474Y-73943255D01*
X156785717Y-74150753D01*
X156726456Y-74371915D01*
X156706501Y-74600000D01*
X156726456Y-74828084D01*
X156785717Y-75049246D01*
X156882474Y-75256744D01*
X156882476Y-75256746D01*
X156882477Y-75256749D01*
X157013802Y-75444300D01*
X157175700Y-75606198D01*
X157363251Y-75737523D01*
X157406345Y-75757618D01*
X157458520Y-75803372D01*
X157477940Y-75869997D01*
X157458522Y-75936622D01*
X157406347Y-75982380D01*
X157363254Y-76002475D01*
X157363251Y-76002476D01*
X157363251Y-76002477D01*
X157352699Y-76009866D01*
X157175696Y-76133805D01*
X157013805Y-76295696D01*
X157013802Y-76295699D01*
X157013802Y-76295700D01*
X156992266Y-76326456D01*
X156882474Y-76483255D01*
X156785717Y-76690753D01*
X156726456Y-76911915D01*
X156706501Y-77140000D01*
X156726456Y-77368084D01*
X156732841Y-77391913D01*
X156784934Y-77586326D01*
X156785717Y-77589246D01*
X156882474Y-77796744D01*
X156882476Y-77796746D01*
X156882477Y-77796749D01*
X157013802Y-77984300D01*
X157175700Y-78146198D01*
X157363251Y-78277523D01*
X157403334Y-78296214D01*
X157406345Y-78297618D01*
X157458521Y-78343375D01*
X157477940Y-78410000D01*
X157458521Y-78476625D01*
X157406344Y-78522382D01*
X157363251Y-78542477D01*
X157175700Y-78673802D01*
X157175696Y-78673805D01*
X157013805Y-78835696D01*
X156882474Y-79023255D01*
X156785717Y-79230753D01*
X156726456Y-79451915D01*
X156706501Y-79680000D01*
X156726456Y-79908084D01*
X156785717Y-80129246D01*
X156882474Y-80336744D01*
X156882476Y-80336746D01*
X156882477Y-80336749D01*
X157013802Y-80524300D01*
X157175700Y-80686198D01*
X157363251Y-80817523D01*
X157403334Y-80836214D01*
X157406345Y-80837618D01*
X157458521Y-80883375D01*
X157477940Y-80950000D01*
X157458521Y-81016625D01*
X157406344Y-81062382D01*
X157363251Y-81082477D01*
X157339947Y-81098795D01*
X157175696Y-81213805D01*
X157013805Y-81375696D01*
X156882474Y-81563255D01*
X156785717Y-81770753D01*
X156726456Y-81991915D01*
X156706501Y-82220000D01*
X156726456Y-82448084D01*
X156785717Y-82669246D01*
X156882474Y-82876744D01*
X156882476Y-82876746D01*
X156882477Y-82876749D01*
X157013802Y-83064300D01*
X157175700Y-83226198D01*
X157363251Y-83357523D01*
X157403334Y-83376214D01*
X157406345Y-83377618D01*
X157458521Y-83423375D01*
X157477940Y-83490000D01*
X157458521Y-83556625D01*
X157406344Y-83602382D01*
X157363251Y-83622477D01*
X157175700Y-83753802D01*
X157175696Y-83753805D01*
X157013805Y-83915696D01*
X156882474Y-84103255D01*
X156785717Y-84310753D01*
X156726456Y-84531915D01*
X156706501Y-84759999D01*
X155660497Y-84759999D01*
X155614300Y-84713802D01*
X155426749Y-84582477D01*
X155426746Y-84582476D01*
X155426744Y-84582474D01*
X155219246Y-84485717D01*
X155219243Y-84485716D01*
X155108665Y-84456086D01*
X154998084Y-84426456D01*
X154770000Y-84406501D01*
X154541915Y-84426456D01*
X154320753Y-84485717D01*
X154113255Y-84582474D01*
X153925696Y-84713805D01*
X153763805Y-84875696D01*
X153632474Y-85063255D01*
X153535717Y-85270753D01*
X153476456Y-85491915D01*
X153456501Y-85719999D01*
X145923498Y-85719999D01*
X145903543Y-85491913D01*
X145844284Y-85270757D01*
X145747523Y-85063251D01*
X145616198Y-84875700D01*
X145454300Y-84713802D01*
X145266749Y-84582477D01*
X145266746Y-84582476D01*
X145266744Y-84582474D01*
X145059246Y-84485717D01*
X145059243Y-84485716D01*
X144948665Y-84456086D01*
X144838084Y-84426456D01*
X144610000Y-84406501D01*
X144381915Y-84426456D01*
X144160753Y-84485717D01*
X143953255Y-84582474D01*
X143765696Y-84713805D01*
X143603805Y-84875696D01*
X143472474Y-85063255D01*
X143375717Y-85270753D01*
X143316456Y-85491915D01*
X143296501Y-85719999D01*
X121905810Y-85719999D01*
X121977275Y-85654211D01*
X122123191Y-85466737D01*
X122236260Y-85257804D01*
X122313398Y-85033110D01*
X122352500Y-84798783D01*
X122352500Y-84561217D01*
X122313398Y-84326890D01*
X122236260Y-84102196D01*
X122123191Y-83893263D01*
X122070236Y-83825226D01*
X121977275Y-83705788D01*
X121864945Y-83602382D01*
X121802492Y-83544890D01*
X121703050Y-83479921D01*
X121603611Y-83414955D01*
X121518492Y-83377618D01*
X121386052Y-83319524D01*
X121155755Y-83261205D01*
X121155753Y-83261204D01*
X121155750Y-83261204D01*
X120978297Y-83246500D01*
X120978291Y-83246500D01*
X119661709Y-83246500D01*
X119661703Y-83246500D01*
X119484249Y-83261204D01*
X119253948Y-83319524D01*
X119036388Y-83414955D01*
X118837509Y-83544889D01*
X118662724Y-83705788D01*
X118516810Y-83893261D01*
X118403738Y-84102200D01*
X118326602Y-84326887D01*
X118287500Y-84561217D01*
X118287500Y-84798783D01*
X109852500Y-84798783D01*
X109852500Y-84561217D01*
X109813398Y-84326890D01*
X109736260Y-84102196D01*
X109623191Y-83893263D01*
X109570236Y-83825226D01*
X109477275Y-83705788D01*
X109364945Y-83602382D01*
X109302492Y-83544890D01*
X109203050Y-83479921D01*
X109103611Y-83414955D01*
X109018492Y-83377618D01*
X108886052Y-83319524D01*
X108655755Y-83261205D01*
X108655753Y-83261204D01*
X108655750Y-83261204D01*
X108478297Y-83246500D01*
X108478291Y-83246500D01*
X107161709Y-83246500D01*
X107161703Y-83246500D01*
X106984249Y-83261204D01*
X106753948Y-83319524D01*
X106536388Y-83414955D01*
X106337509Y-83544889D01*
X106162724Y-83705788D01*
X106016810Y-83893261D01*
X105903738Y-84102200D01*
X105826602Y-84326887D01*
X105787500Y-84561217D01*
X105787500Y-84798783D01*
X102032500Y-84798783D01*
X102032500Y-84561217D01*
X101993398Y-84326890D01*
X101916260Y-84102196D01*
X101803191Y-83893263D01*
X101750236Y-83825226D01*
X101657275Y-83705788D01*
X101544945Y-83602382D01*
X101482492Y-83544890D01*
X101383050Y-83479921D01*
X101283611Y-83414955D01*
X101198492Y-83377618D01*
X101066052Y-83319524D01*
X100835755Y-83261205D01*
X100835753Y-83261204D01*
X100835750Y-83261204D01*
X100658297Y-83246500D01*
X100658291Y-83246500D01*
X99341709Y-83246500D01*
X99341703Y-83246500D01*
X99164249Y-83261204D01*
X98933948Y-83319524D01*
X98716388Y-83414955D01*
X98517509Y-83544889D01*
X98342724Y-83705788D01*
X98196810Y-83893261D01*
X98083738Y-84102200D01*
X98006602Y-84326887D01*
X97967500Y-84561217D01*
X97967500Y-84798783D01*
X89532500Y-84798783D01*
X89532500Y-84561217D01*
X89493398Y-84326890D01*
X89416260Y-84102196D01*
X89303191Y-83893263D01*
X89250236Y-83825226D01*
X89157275Y-83705788D01*
X89044945Y-83602382D01*
X88982492Y-83544890D01*
X88883050Y-83479921D01*
X88783611Y-83414955D01*
X88698492Y-83377618D01*
X88566052Y-83319524D01*
X88335755Y-83261205D01*
X88335753Y-83261204D01*
X88335750Y-83261204D01*
X88158297Y-83246500D01*
X88158291Y-83246500D01*
X86841709Y-83246500D01*
X86841703Y-83246500D01*
X86664249Y-83261204D01*
X86433948Y-83319524D01*
X86216388Y-83414955D01*
X86017509Y-83544889D01*
X85842724Y-83705788D01*
X85696810Y-83893261D01*
X85583738Y-84102200D01*
X85506602Y-84326887D01*
X85467500Y-84561217D01*
X85467500Y-84798783D01*
X82295500Y-84798783D01*
X82295500Y-81670000D01*
X143296501Y-81670000D01*
X143316456Y-81898084D01*
X143375717Y-82119246D01*
X143472474Y-82326744D01*
X143472476Y-82326746D01*
X143472477Y-82326749D01*
X143603802Y-82514300D01*
X143765700Y-82676198D01*
X143953251Y-82807523D01*
X144160757Y-82904284D01*
X144381913Y-82963543D01*
X144610000Y-82983498D01*
X144838087Y-82963543D01*
X145059243Y-82904284D01*
X145266749Y-82807523D01*
X145454300Y-82676198D01*
X145616198Y-82514300D01*
X145747523Y-82326749D01*
X145844284Y-82119243D01*
X145903543Y-81898087D01*
X145923498Y-81670000D01*
X153456501Y-81670000D01*
X153476456Y-81898084D01*
X153535717Y-82119246D01*
X153632474Y-82326744D01*
X153632476Y-82326746D01*
X153632477Y-82326749D01*
X153763802Y-82514300D01*
X153925700Y-82676198D01*
X154113251Y-82807523D01*
X154320757Y-82904284D01*
X154541913Y-82963543D01*
X154770000Y-82983498D01*
X154998087Y-82963543D01*
X155219243Y-82904284D01*
X155426749Y-82807523D01*
X155614300Y-82676198D01*
X155776198Y-82514300D01*
X155907523Y-82326749D01*
X156004284Y-82119243D01*
X156063543Y-81898087D01*
X156083498Y-81670000D01*
X156063543Y-81441913D01*
X156004284Y-81220757D01*
X155939803Y-81082476D01*
X155907525Y-81013255D01*
X155907524Y-81013254D01*
X155907523Y-81013251D01*
X155776198Y-80825700D01*
X155614300Y-80663802D01*
X155426749Y-80532477D01*
X155426746Y-80532476D01*
X155426744Y-80532474D01*
X155219246Y-80435717D01*
X155219243Y-80435716D01*
X155108665Y-80406086D01*
X154998084Y-80376456D01*
X154770000Y-80356501D01*
X154541915Y-80376456D01*
X154320753Y-80435717D01*
X154113255Y-80532474D01*
X154113250Y-80532477D01*
X154113251Y-80532477D01*
X153939398Y-80654211D01*
X153925696Y-80663805D01*
X153763805Y-80825696D01*
X153632474Y-81013255D01*
X153535717Y-81220753D01*
X153476456Y-81441915D01*
X153456501Y-81670000D01*
X145923498Y-81670000D01*
X145903543Y-81441913D01*
X145844284Y-81220757D01*
X145779803Y-81082476D01*
X145747525Y-81013255D01*
X145747524Y-81013254D01*
X145747523Y-81013251D01*
X145616198Y-80825700D01*
X145454300Y-80663802D01*
X145266749Y-80532477D01*
X145266746Y-80532476D01*
X145266744Y-80532474D01*
X145059246Y-80435717D01*
X145059243Y-80435716D01*
X144948665Y-80406086D01*
X144838084Y-80376456D01*
X144610000Y-80356501D01*
X144381915Y-80376456D01*
X144160753Y-80435717D01*
X143953255Y-80532474D01*
X143953250Y-80532477D01*
X143953251Y-80532477D01*
X143779398Y-80654211D01*
X143765696Y-80663805D01*
X143603805Y-80825696D01*
X143472474Y-81013255D01*
X143375717Y-81220753D01*
X143316456Y-81441915D01*
X143296501Y-81670000D01*
X82295500Y-81670000D01*
X82295500Y-79798783D01*
X85467500Y-79798783D01*
X85506602Y-80033112D01*
X85583738Y-80257799D01*
X85583740Y-80257804D01*
X85680022Y-80435717D01*
X85696810Y-80466738D01*
X85842724Y-80654211D01*
X85877472Y-80686198D01*
X86017508Y-80815110D01*
X86216391Y-80945046D01*
X86433948Y-81040476D01*
X86664245Y-81098795D01*
X86735230Y-81104676D01*
X86841703Y-81113500D01*
X86841709Y-81113500D01*
X88158291Y-81113500D01*
X88158297Y-81113500D01*
X88255089Y-81105479D01*
X88335755Y-81098795D01*
X88566052Y-81040476D01*
X88783609Y-80945046D01*
X88982492Y-80815110D01*
X89157275Y-80654211D01*
X89303191Y-80466737D01*
X89416260Y-80257804D01*
X89493398Y-80033110D01*
X89532500Y-79798783D01*
X97967500Y-79798783D01*
X98006602Y-80033112D01*
X98083738Y-80257799D01*
X98083740Y-80257804D01*
X98180022Y-80435717D01*
X98196810Y-80466738D01*
X98342724Y-80654211D01*
X98377472Y-80686198D01*
X98517508Y-80815110D01*
X98716391Y-80945046D01*
X98933948Y-81040476D01*
X99164245Y-81098795D01*
X99235230Y-81104676D01*
X99341703Y-81113500D01*
X99341709Y-81113500D01*
X100658291Y-81113500D01*
X100658297Y-81113500D01*
X100755089Y-81105479D01*
X100835755Y-81098795D01*
X101066052Y-81040476D01*
X101283609Y-80945046D01*
X101482492Y-80815110D01*
X101657275Y-80654211D01*
X101803191Y-80466737D01*
X101916260Y-80257804D01*
X101993398Y-80033110D01*
X102032500Y-79798783D01*
X105787500Y-79798783D01*
X105826602Y-80033112D01*
X105903738Y-80257799D01*
X105903740Y-80257804D01*
X106000022Y-80435717D01*
X106016810Y-80466738D01*
X106162724Y-80654211D01*
X106197472Y-80686198D01*
X106337508Y-80815110D01*
X106536391Y-80945046D01*
X106753948Y-81040476D01*
X106984245Y-81098795D01*
X107055230Y-81104676D01*
X107161703Y-81113500D01*
X107161709Y-81113500D01*
X108478291Y-81113500D01*
X108478297Y-81113500D01*
X108575089Y-81105479D01*
X108655755Y-81098795D01*
X108886052Y-81040476D01*
X109103609Y-80945046D01*
X109302492Y-80815110D01*
X109477275Y-80654211D01*
X109623191Y-80466737D01*
X109736260Y-80257804D01*
X109813398Y-80033110D01*
X109852500Y-79798783D01*
X118287500Y-79798783D01*
X118326602Y-80033112D01*
X118403738Y-80257799D01*
X118403740Y-80257804D01*
X118500022Y-80435717D01*
X118516810Y-80466738D01*
X118662724Y-80654211D01*
X118697472Y-80686198D01*
X118837508Y-80815110D01*
X119036391Y-80945046D01*
X119253948Y-81040476D01*
X119484245Y-81098795D01*
X119555230Y-81104676D01*
X119661703Y-81113500D01*
X119661709Y-81113500D01*
X120978291Y-81113500D01*
X120978297Y-81113500D01*
X121075089Y-81105479D01*
X121155755Y-81098795D01*
X121386052Y-81040476D01*
X121603609Y-80945046D01*
X121802492Y-80815110D01*
X121977275Y-80654211D01*
X122123191Y-80466737D01*
X122236260Y-80257804D01*
X122313398Y-80033110D01*
X122352500Y-79798783D01*
X122352500Y-79561217D01*
X122313398Y-79326890D01*
X122236260Y-79102196D01*
X122123191Y-78893263D01*
X122017541Y-78757523D01*
X121977275Y-78705788D01*
X121882341Y-78618396D01*
X121802492Y-78544890D01*
X121603609Y-78414954D01*
X121386052Y-78319524D01*
X121155755Y-78261205D01*
X121155753Y-78261204D01*
X121155750Y-78261204D01*
X120978297Y-78246500D01*
X120978291Y-78246500D01*
X119661709Y-78246500D01*
X119661703Y-78246500D01*
X119484249Y-78261204D01*
X119253948Y-78319524D01*
X119036388Y-78414955D01*
X118837509Y-78544889D01*
X118662724Y-78705788D01*
X118516810Y-78893261D01*
X118403738Y-79102200D01*
X118326602Y-79326887D01*
X118287500Y-79561217D01*
X118287500Y-79798783D01*
X109852500Y-79798783D01*
X109852500Y-79561217D01*
X109813398Y-79326890D01*
X109736260Y-79102196D01*
X109623191Y-78893263D01*
X109517541Y-78757523D01*
X109477275Y-78705788D01*
X109382341Y-78618396D01*
X109302492Y-78544890D01*
X109103609Y-78414954D01*
X108886052Y-78319524D01*
X108655755Y-78261205D01*
X108655753Y-78261204D01*
X108655750Y-78261204D01*
X108478297Y-78246500D01*
X108478291Y-78246500D01*
X107161709Y-78246500D01*
X107161703Y-78246500D01*
X106984249Y-78261204D01*
X106753948Y-78319524D01*
X106536388Y-78414955D01*
X106337509Y-78544889D01*
X106162724Y-78705788D01*
X106016810Y-78893261D01*
X105903738Y-79102200D01*
X105826602Y-79326887D01*
X105787500Y-79561217D01*
X105787500Y-79798783D01*
X102032500Y-79798783D01*
X102032500Y-79561217D01*
X101993398Y-79326890D01*
X101916260Y-79102196D01*
X101803191Y-78893263D01*
X101697541Y-78757523D01*
X101657275Y-78705788D01*
X101562341Y-78618396D01*
X101482492Y-78544890D01*
X101283609Y-78414954D01*
X101066052Y-78319524D01*
X100835755Y-78261205D01*
X100835753Y-78261204D01*
X100835750Y-78261204D01*
X100658297Y-78246500D01*
X100658291Y-78246500D01*
X99341709Y-78246500D01*
X99341703Y-78246500D01*
X99164249Y-78261204D01*
X98933948Y-78319524D01*
X98716388Y-78414955D01*
X98517509Y-78544889D01*
X98342724Y-78705788D01*
X98196810Y-78893261D01*
X98083738Y-79102200D01*
X98006602Y-79326887D01*
X97967500Y-79561217D01*
X97967500Y-79798783D01*
X89532500Y-79798783D01*
X89532500Y-79561217D01*
X89493398Y-79326890D01*
X89416260Y-79102196D01*
X89303191Y-78893263D01*
X89197541Y-78757523D01*
X89157275Y-78705788D01*
X89062341Y-78618396D01*
X88982492Y-78544890D01*
X88783609Y-78414954D01*
X88566052Y-78319524D01*
X88335755Y-78261205D01*
X88335753Y-78261204D01*
X88335750Y-78261204D01*
X88158297Y-78246500D01*
X88158291Y-78246500D01*
X86841709Y-78246500D01*
X86841703Y-78246500D01*
X86664249Y-78261204D01*
X86433948Y-78319524D01*
X86216388Y-78414955D01*
X86017509Y-78544889D01*
X85842724Y-78705788D01*
X85696810Y-78893261D01*
X85583738Y-79102200D01*
X85506602Y-79326887D01*
X85467500Y-79561217D01*
X85467500Y-79798783D01*
X82295500Y-79798783D01*
X82295500Y-77619999D01*
X143296501Y-77619999D01*
X143316456Y-77848084D01*
X143375717Y-78069246D01*
X143472474Y-78276744D01*
X143472476Y-78276746D01*
X143472477Y-78276749D01*
X143603802Y-78464300D01*
X143765700Y-78626198D01*
X143953251Y-78757523D01*
X144160757Y-78854284D01*
X144381913Y-78913543D01*
X144610000Y-78933498D01*
X144838087Y-78913543D01*
X145059243Y-78854284D01*
X145266749Y-78757523D01*
X145454300Y-78626198D01*
X145616198Y-78464300D01*
X145747523Y-78276749D01*
X145844284Y-78069243D01*
X145903543Y-77848087D01*
X145923498Y-77620000D01*
X145923498Y-77619999D01*
X153456501Y-77619999D01*
X153476456Y-77848084D01*
X153535717Y-78069246D01*
X153632474Y-78276744D01*
X153632476Y-78276746D01*
X153632477Y-78276749D01*
X153763802Y-78464300D01*
X153925700Y-78626198D01*
X154113251Y-78757523D01*
X154320757Y-78854284D01*
X154541913Y-78913543D01*
X154770000Y-78933498D01*
X154998087Y-78913543D01*
X155219243Y-78854284D01*
X155426749Y-78757523D01*
X155614300Y-78626198D01*
X155776198Y-78464300D01*
X155907523Y-78276749D01*
X156004284Y-78069243D01*
X156063543Y-77848087D01*
X156083498Y-77620000D01*
X156063543Y-77391913D01*
X156004284Y-77170757D01*
X155907523Y-76963251D01*
X155776198Y-76775700D01*
X155614300Y-76613802D01*
X155426749Y-76482477D01*
X155426746Y-76482476D01*
X155426744Y-76482474D01*
X155219246Y-76385717D01*
X155219243Y-76385716D01*
X155108664Y-76356086D01*
X154998084Y-76326456D01*
X154770000Y-76306501D01*
X154541915Y-76326456D01*
X154320753Y-76385717D01*
X154113255Y-76482474D01*
X153925696Y-76613805D01*
X153763805Y-76775696D01*
X153632474Y-76963255D01*
X153535717Y-77170753D01*
X153476456Y-77391915D01*
X153456501Y-77619999D01*
X145923498Y-77619999D01*
X145903543Y-77391913D01*
X145844284Y-77170757D01*
X145747523Y-76963251D01*
X145616198Y-76775700D01*
X145454300Y-76613802D01*
X145266749Y-76482477D01*
X145266746Y-76482476D01*
X145266744Y-76482474D01*
X145059246Y-76385717D01*
X145059243Y-76385716D01*
X144948664Y-76356086D01*
X144838084Y-76326456D01*
X144610000Y-76306501D01*
X144381915Y-76326456D01*
X144160753Y-76385717D01*
X143953255Y-76482474D01*
X143765696Y-76613805D01*
X143603805Y-76775696D01*
X143472474Y-76963255D01*
X143375717Y-77170753D01*
X143316456Y-77391915D01*
X143296501Y-77619999D01*
X82295500Y-77619999D01*
X82295500Y-73569999D01*
X143296501Y-73569999D01*
X143316456Y-73798084D01*
X143375717Y-74019246D01*
X143472474Y-74226744D01*
X143472476Y-74226746D01*
X143472477Y-74226749D01*
X143603802Y-74414300D01*
X143765700Y-74576198D01*
X143953251Y-74707523D01*
X144160757Y-74804284D01*
X144381913Y-74863543D01*
X144610000Y-74883498D01*
X144838087Y-74863543D01*
X145059243Y-74804284D01*
X145266749Y-74707523D01*
X145454300Y-74576198D01*
X145616198Y-74414300D01*
X145747523Y-74226749D01*
X145844284Y-74019243D01*
X145903543Y-73798087D01*
X145923498Y-73570000D01*
X145923498Y-73569999D01*
X153456501Y-73569999D01*
X153476456Y-73798084D01*
X153535717Y-74019246D01*
X153632474Y-74226744D01*
X153632476Y-74226746D01*
X153632477Y-74226749D01*
X153763802Y-74414300D01*
X153925700Y-74576198D01*
X154113251Y-74707523D01*
X154320757Y-74804284D01*
X154541913Y-74863543D01*
X154770000Y-74883498D01*
X154998087Y-74863543D01*
X155219243Y-74804284D01*
X155426749Y-74707523D01*
X155614300Y-74576198D01*
X155776198Y-74414300D01*
X155907523Y-74226749D01*
X156004284Y-74019243D01*
X156063543Y-73798087D01*
X156083498Y-73570000D01*
X156063543Y-73341913D01*
X156004284Y-73120757D01*
X155955903Y-73017003D01*
X155907525Y-72913255D01*
X155907524Y-72913254D01*
X155907523Y-72913251D01*
X155776198Y-72725700D01*
X155614300Y-72563802D01*
X155426749Y-72432477D01*
X155426746Y-72432476D01*
X155426744Y-72432474D01*
X155219246Y-72335717D01*
X155219243Y-72335716D01*
X155108664Y-72306086D01*
X154998084Y-72276456D01*
X154770000Y-72256501D01*
X154541915Y-72276456D01*
X154320753Y-72335717D01*
X154113255Y-72432474D01*
X153925696Y-72563805D01*
X153763805Y-72725696D01*
X153763802Y-72725699D01*
X153763802Y-72725700D01*
X153741804Y-72757117D01*
X153632474Y-72913255D01*
X153535717Y-73120753D01*
X153476456Y-73341915D01*
X153456501Y-73569999D01*
X145923498Y-73569999D01*
X145903543Y-73341913D01*
X145844284Y-73120757D01*
X145795903Y-73017003D01*
X145747525Y-72913255D01*
X145747524Y-72913254D01*
X145747523Y-72913251D01*
X145616198Y-72725700D01*
X145454300Y-72563802D01*
X145266749Y-72432477D01*
X145266746Y-72432476D01*
X145266744Y-72432474D01*
X145059246Y-72335717D01*
X145059243Y-72335716D01*
X144948664Y-72306086D01*
X144838084Y-72276456D01*
X144610000Y-72256501D01*
X144381915Y-72276456D01*
X144160753Y-72335717D01*
X143953255Y-72432474D01*
X143765696Y-72563805D01*
X143603805Y-72725696D01*
X143603802Y-72725699D01*
X143603802Y-72725700D01*
X143581804Y-72757117D01*
X143472474Y-72913255D01*
X143375717Y-73120753D01*
X143316456Y-73341915D01*
X143296501Y-73569999D01*
X82295500Y-73569999D01*
X82295500Y-72858634D01*
X103821500Y-72858634D01*
X103828011Y-72919205D01*
X103879110Y-73056203D01*
X103966738Y-73173261D01*
X104083796Y-73260889D01*
X104220794Y-73311988D01*
X104220797Y-73311988D01*
X104220799Y-73311989D01*
X104281362Y-73318500D01*
X105878634Y-73318500D01*
X105878638Y-73318500D01*
X105939201Y-73311989D01*
X105939203Y-73311988D01*
X105939205Y-73311988D01*
X106017124Y-73282924D01*
X106076204Y-73260889D01*
X106193261Y-73173261D01*
X106280889Y-73056204D01*
X106331989Y-72919201D01*
X106338500Y-72858638D01*
X106338500Y-72817233D01*
X106354047Y-72757117D01*
X106396790Y-72712075D01*
X106456010Y-72693403D01*
X106516858Y-72705782D01*
X106564072Y-72746106D01*
X106652251Y-72872038D01*
X106807962Y-73027749D01*
X106988346Y-73154056D01*
X107187924Y-73247120D01*
X107400629Y-73304115D01*
X107620000Y-73323307D01*
X107839371Y-73304115D01*
X108052076Y-73247120D01*
X108251654Y-73154056D01*
X108432038Y-73027749D01*
X108587749Y-72872038D01*
X108714056Y-72691654D01*
X108761224Y-72590499D01*
X108777618Y-72555344D01*
X108823375Y-72503168D01*
X108890000Y-72483748D01*
X108956625Y-72503168D01*
X109002382Y-72555344D01*
X109065941Y-72691649D01*
X109065943Y-72691651D01*
X109065944Y-72691654D01*
X109192251Y-72872038D01*
X109347962Y-73027749D01*
X109528346Y-73154056D01*
X109727924Y-73247120D01*
X109940629Y-73304115D01*
X110160000Y-73323307D01*
X110379371Y-73304115D01*
X110592076Y-73247120D01*
X110791654Y-73154056D01*
X110972038Y-73027749D01*
X111127749Y-72872038D01*
X111254056Y-72691654D01*
X111301224Y-72590499D01*
X111317618Y-72555344D01*
X111363375Y-72503168D01*
X111430000Y-72483748D01*
X111496625Y-72503168D01*
X111542382Y-72555344D01*
X111605941Y-72691649D01*
X111605943Y-72691651D01*
X111605944Y-72691654D01*
X111732251Y-72872038D01*
X111887962Y-73027749D01*
X112068346Y-73154056D01*
X112267924Y-73247120D01*
X112480629Y-73304115D01*
X112700000Y-73323307D01*
X112919371Y-73304115D01*
X113132076Y-73247120D01*
X113331654Y-73154056D01*
X113512038Y-73027749D01*
X113667749Y-72872038D01*
X113794056Y-72691654D01*
X113841224Y-72590499D01*
X113857618Y-72555344D01*
X113903375Y-72503168D01*
X113970000Y-72483748D01*
X114036625Y-72503168D01*
X114082382Y-72555344D01*
X114145941Y-72691649D01*
X114145943Y-72691651D01*
X114145944Y-72691654D01*
X114272251Y-72872038D01*
X114427962Y-73027749D01*
X114608346Y-73154056D01*
X114807924Y-73247120D01*
X115020629Y-73304115D01*
X115240000Y-73323307D01*
X115459371Y-73304115D01*
X115672076Y-73247120D01*
X115871654Y-73154056D01*
X116052038Y-73027749D01*
X116207749Y-72872038D01*
X116334056Y-72691654D01*
X116381224Y-72590499D01*
X116397618Y-72555344D01*
X116443375Y-72503168D01*
X116510000Y-72483748D01*
X116576625Y-72503168D01*
X116622382Y-72555344D01*
X116685941Y-72691649D01*
X116685943Y-72691651D01*
X116685944Y-72691654D01*
X116812251Y-72872038D01*
X116967962Y-73027749D01*
X117148346Y-73154056D01*
X117347924Y-73247120D01*
X117560629Y-73304115D01*
X117780000Y-73323307D01*
X117999371Y-73304115D01*
X118212076Y-73247120D01*
X118411654Y-73154056D01*
X118592038Y-73027749D01*
X118747749Y-72872038D01*
X118874056Y-72691654D01*
X118967120Y-72492076D01*
X119024115Y-72279371D01*
X119043307Y-72060000D01*
X119024115Y-71840629D01*
X118967120Y-71627924D01*
X118874056Y-71428347D01*
X118747749Y-71247962D01*
X118592038Y-71092251D01*
X118411654Y-70965944D01*
X118244581Y-70888037D01*
X118212077Y-70872880D01*
X117999368Y-70815884D01*
X117780000Y-70796692D01*
X117560631Y-70815884D01*
X117347922Y-70872880D01*
X117189532Y-70946739D01*
X117148347Y-70965944D01*
X117022869Y-71053805D01*
X116967958Y-71092254D01*
X116812254Y-71247958D01*
X116812251Y-71247961D01*
X116812251Y-71247962D01*
X116687170Y-71426597D01*
X116685943Y-71428349D01*
X116622382Y-71564656D01*
X116576625Y-71616832D01*
X116510000Y-71636251D01*
X116443375Y-71616832D01*
X116397618Y-71564656D01*
X116383634Y-71534668D01*
X116334056Y-71428347D01*
X116207749Y-71247962D01*
X116052038Y-71092251D01*
X115871654Y-70965944D01*
X115704581Y-70888037D01*
X115672077Y-70872880D01*
X115459368Y-70815884D01*
X115240000Y-70796692D01*
X115020631Y-70815884D01*
X114807922Y-70872880D01*
X114649532Y-70946739D01*
X114608347Y-70965944D01*
X114482869Y-71053805D01*
X114427958Y-71092254D01*
X114272254Y-71247958D01*
X114272251Y-71247961D01*
X114272251Y-71247962D01*
X114147170Y-71426597D01*
X114145943Y-71428349D01*
X114082382Y-71564656D01*
X114036625Y-71616832D01*
X113970000Y-71636251D01*
X113903375Y-71616832D01*
X113857618Y-71564656D01*
X113843634Y-71534668D01*
X113794056Y-71428347D01*
X113667749Y-71247962D01*
X113512038Y-71092251D01*
X113331654Y-70965944D01*
X113164581Y-70888037D01*
X113132077Y-70872880D01*
X112919368Y-70815884D01*
X112700000Y-70796692D01*
X112480631Y-70815884D01*
X112267922Y-70872880D01*
X112109532Y-70946739D01*
X112068347Y-70965944D01*
X111942869Y-71053805D01*
X111887958Y-71092254D01*
X111732254Y-71247958D01*
X111732251Y-71247961D01*
X111732251Y-71247962D01*
X111607170Y-71426597D01*
X111605943Y-71428349D01*
X111542382Y-71564656D01*
X111496625Y-71616832D01*
X111430000Y-71636251D01*
X111363375Y-71616832D01*
X111317618Y-71564656D01*
X111303634Y-71534668D01*
X111254056Y-71428347D01*
X111127749Y-71247962D01*
X110972038Y-71092251D01*
X110791654Y-70965944D01*
X110624581Y-70888037D01*
X110592077Y-70872880D01*
X110379368Y-70815884D01*
X110160000Y-70796692D01*
X109940631Y-70815884D01*
X109727922Y-70872880D01*
X109569532Y-70946739D01*
X109528347Y-70965944D01*
X109402869Y-71053805D01*
X109347958Y-71092254D01*
X109192254Y-71247958D01*
X109192251Y-71247961D01*
X109192251Y-71247962D01*
X109067170Y-71426597D01*
X109065943Y-71428349D01*
X109002382Y-71564656D01*
X108956625Y-71616832D01*
X108890000Y-71636251D01*
X108823375Y-71616832D01*
X108777618Y-71564656D01*
X108763634Y-71534668D01*
X108714056Y-71428347D01*
X108587749Y-71247962D01*
X108432038Y-71092251D01*
X108251654Y-70965944D01*
X108084581Y-70888037D01*
X108052077Y-70872880D01*
X107839368Y-70815884D01*
X107620000Y-70796692D01*
X107400631Y-70815884D01*
X107187922Y-70872880D01*
X107029532Y-70946739D01*
X106988347Y-70965944D01*
X106862869Y-71053805D01*
X106807958Y-71092254D01*
X106652254Y-71247958D01*
X106652251Y-71247961D01*
X106652251Y-71247962D01*
X106571783Y-71362883D01*
X106564075Y-71373891D01*
X106516858Y-71414218D01*
X106456010Y-71426597D01*
X106396790Y-71407925D01*
X106354047Y-71362883D01*
X106338500Y-71302767D01*
X106338500Y-71261366D01*
X106333591Y-71215700D01*
X106331989Y-71200799D01*
X106331988Y-71200797D01*
X106331988Y-71200794D01*
X106280889Y-71063796D01*
X106193261Y-70946738D01*
X106076203Y-70859110D01*
X105939205Y-70808011D01*
X105908919Y-70804755D01*
X105878638Y-70801500D01*
X104281362Y-70801500D01*
X104254445Y-70804393D01*
X104220794Y-70808011D01*
X104083796Y-70859110D01*
X103966738Y-70946738D01*
X103879110Y-71063796D01*
X103828011Y-71200794D01*
X103821500Y-71261366D01*
X103821500Y-72858634D01*
X82295500Y-72858634D01*
X82295500Y-69519999D01*
X143296501Y-69519999D01*
X143316456Y-69748084D01*
X143375717Y-69969246D01*
X143472474Y-70176744D01*
X143472476Y-70176746D01*
X143472477Y-70176749D01*
X143603802Y-70364300D01*
X143765700Y-70526198D01*
X143953251Y-70657523D01*
X144160757Y-70754284D01*
X144381913Y-70813543D01*
X144610000Y-70833498D01*
X144838087Y-70813543D01*
X145059243Y-70754284D01*
X145266749Y-70657523D01*
X145454300Y-70526198D01*
X145616198Y-70364300D01*
X145747523Y-70176749D01*
X145844284Y-69969243D01*
X145903543Y-69748087D01*
X145923498Y-69520000D01*
X145923498Y-69519999D01*
X153456501Y-69519999D01*
X153476456Y-69748084D01*
X153535717Y-69969246D01*
X153632474Y-70176744D01*
X153632476Y-70176746D01*
X153632477Y-70176749D01*
X153763802Y-70364300D01*
X153925700Y-70526198D01*
X154113251Y-70657523D01*
X154320757Y-70754284D01*
X154541913Y-70813543D01*
X154770000Y-70833498D01*
X154998087Y-70813543D01*
X155219243Y-70754284D01*
X155426749Y-70657523D01*
X155614300Y-70526198D01*
X155776198Y-70364300D01*
X155907523Y-70176749D01*
X156004284Y-69969243D01*
X156063543Y-69748087D01*
X156083498Y-69520000D01*
X156063543Y-69291913D01*
X156004284Y-69070757D01*
X155907523Y-68863251D01*
X155776198Y-68675700D01*
X155614300Y-68513802D01*
X155426749Y-68382477D01*
X155426746Y-68382476D01*
X155426744Y-68382474D01*
X155219246Y-68285717D01*
X155219243Y-68285716D01*
X155108665Y-68256086D01*
X154998084Y-68226456D01*
X154770000Y-68206501D01*
X154541915Y-68226456D01*
X154320753Y-68285717D01*
X154113255Y-68382474D01*
X153925696Y-68513805D01*
X153763805Y-68675696D01*
X153632474Y-68863255D01*
X153535717Y-69070753D01*
X153476456Y-69291915D01*
X153456501Y-69519999D01*
X145923498Y-69519999D01*
X145903543Y-69291913D01*
X145844284Y-69070757D01*
X145747523Y-68863251D01*
X145616198Y-68675700D01*
X145454300Y-68513802D01*
X145266749Y-68382477D01*
X145266746Y-68382476D01*
X145266744Y-68382474D01*
X145059246Y-68285717D01*
X145059243Y-68285716D01*
X144948665Y-68256086D01*
X144838084Y-68226456D01*
X144610000Y-68206501D01*
X144381915Y-68226456D01*
X144160753Y-68285717D01*
X143953255Y-68382474D01*
X143765696Y-68513805D01*
X143603805Y-68675696D01*
X143472474Y-68863255D01*
X143375717Y-69070753D01*
X143316456Y-69291915D01*
X143296501Y-69519999D01*
X82295500Y-69519999D01*
X82295500Y-64439999D01*
X157106501Y-64439999D01*
X157126456Y-64668084D01*
X157185717Y-64889246D01*
X157282474Y-65096744D01*
X157282476Y-65096746D01*
X157282477Y-65096749D01*
X157413802Y-65284300D01*
X157575700Y-65446198D01*
X157763251Y-65577523D01*
X157970757Y-65674284D01*
X158191913Y-65733543D01*
X158420000Y-65753498D01*
X158648087Y-65733543D01*
X158869243Y-65674284D01*
X159076749Y-65577523D01*
X159264300Y-65446198D01*
X159426198Y-65284300D01*
X159557523Y-65096749D01*
X159654284Y-64889243D01*
X159713543Y-64668087D01*
X159733498Y-64440000D01*
X159733498Y-64439999D01*
X167266501Y-64439999D01*
X167286456Y-64668084D01*
X167345717Y-64889246D01*
X167442474Y-65096744D01*
X167442476Y-65096746D01*
X167442477Y-65096749D01*
X167573802Y-65284300D01*
X167735700Y-65446198D01*
X167923251Y-65577523D01*
X168130757Y-65674284D01*
X168351913Y-65733543D01*
X168580000Y-65753498D01*
X168808087Y-65733543D01*
X169029243Y-65674284D01*
X169236749Y-65577523D01*
X169424300Y-65446198D01*
X169586198Y-65284300D01*
X169717523Y-65096749D01*
X169814284Y-64889243D01*
X169873543Y-64668087D01*
X169893498Y-64440000D01*
X169873543Y-64211913D01*
X169814284Y-63990757D01*
X169717523Y-63783251D01*
X169586198Y-63595700D01*
X169424300Y-63433802D01*
X169236749Y-63302477D01*
X169236746Y-63302476D01*
X169236744Y-63302474D01*
X169029246Y-63205717D01*
X169029243Y-63205716D01*
X168918665Y-63176086D01*
X168808084Y-63146456D01*
X168580000Y-63126501D01*
X168351915Y-63146456D01*
X168130753Y-63205717D01*
X167923255Y-63302474D01*
X167735696Y-63433805D01*
X167573805Y-63595696D01*
X167442474Y-63783255D01*
X167345717Y-63990753D01*
X167286456Y-64211915D01*
X167266501Y-64439999D01*
X159733498Y-64439999D01*
X159713543Y-64211913D01*
X159654284Y-63990757D01*
X159557523Y-63783251D01*
X159426198Y-63595700D01*
X159264300Y-63433802D01*
X159076749Y-63302477D01*
X159076746Y-63302476D01*
X159076744Y-63302474D01*
X158869246Y-63205717D01*
X158869243Y-63205716D01*
X158758665Y-63176086D01*
X158648084Y-63146456D01*
X158420000Y-63126501D01*
X158191915Y-63146456D01*
X157970753Y-63205717D01*
X157763255Y-63302474D01*
X157575696Y-63433805D01*
X157413805Y-63595696D01*
X157282474Y-63783255D01*
X157185717Y-63990753D01*
X157126456Y-64211915D01*
X157106501Y-64439999D01*
X82295500Y-64439999D01*
X82295500Y-61899999D01*
X172346501Y-61899999D01*
X172366456Y-62128084D01*
X172425717Y-62349246D01*
X172522474Y-62556744D01*
X172522475Y-62556745D01*
X172522477Y-62556749D01*
X172653802Y-62744300D01*
X172815700Y-62906198D01*
X173003251Y-63037523D01*
X173210757Y-63134284D01*
X173431913Y-63193543D01*
X173660000Y-63213498D01*
X173888087Y-63193543D01*
X174109243Y-63134284D01*
X174316749Y-63037523D01*
X174504300Y-62906198D01*
X174666198Y-62744300D01*
X174797523Y-62556749D01*
X174817617Y-62513655D01*
X174863375Y-62461479D01*
X174930000Y-62442059D01*
X174996625Y-62461479D01*
X175042382Y-62513655D01*
X175062477Y-62556749D01*
X175193802Y-62744300D01*
X175355700Y-62906198D01*
X175543251Y-63037523D01*
X175750757Y-63134284D01*
X175971913Y-63193543D01*
X176200000Y-63213498D01*
X176428087Y-63193543D01*
X176649243Y-63134284D01*
X176856749Y-63037523D01*
X177044300Y-62906198D01*
X177206198Y-62744300D01*
X177337523Y-62556749D01*
X177434284Y-62349243D01*
X177493543Y-62128087D01*
X177513498Y-61900000D01*
X177493543Y-61671913D01*
X177434284Y-61450757D01*
X177337523Y-61243251D01*
X177206198Y-61055700D01*
X177044300Y-60893802D01*
X176856749Y-60762477D01*
X176856746Y-60762476D01*
X176856744Y-60762474D01*
X176649246Y-60665717D01*
X176649243Y-60665716D01*
X176478828Y-60620053D01*
X176428084Y-60606456D01*
X176200000Y-60586501D01*
X175971915Y-60606456D01*
X175750753Y-60665717D01*
X175543255Y-60762474D01*
X175355696Y-60893805D01*
X175193805Y-61055696D01*
X175062476Y-61243253D01*
X175042382Y-61286345D01*
X174996625Y-61338521D01*
X174930000Y-61357940D01*
X174863375Y-61338521D01*
X174817618Y-61286345D01*
X174816214Y-61283334D01*
X174797523Y-61243251D01*
X174666198Y-61055700D01*
X174504300Y-60893802D01*
X174316749Y-60762477D01*
X174316746Y-60762476D01*
X174316744Y-60762474D01*
X174109246Y-60665717D01*
X174109243Y-60665716D01*
X173938828Y-60620053D01*
X173888084Y-60606456D01*
X173660000Y-60586501D01*
X173431915Y-60606456D01*
X173210753Y-60665717D01*
X173003255Y-60762474D01*
X172815696Y-60893805D01*
X172653805Y-61055696D01*
X172522474Y-61243255D01*
X172425717Y-61450753D01*
X172366456Y-61671915D01*
X172346501Y-61899999D01*
X82295500Y-61899999D01*
X82295500Y-60408634D01*
X144211500Y-60408634D01*
X144218011Y-60469205D01*
X144269110Y-60606203D01*
X144356738Y-60723261D01*
X144473796Y-60810889D01*
X144610794Y-60861988D01*
X144610797Y-60861988D01*
X144610799Y-60861989D01*
X144671362Y-60868500D01*
X146768634Y-60868500D01*
X146768638Y-60868500D01*
X146829201Y-60861989D01*
X146829203Y-60861988D01*
X146829205Y-60861988D01*
X146944235Y-60819083D01*
X146966204Y-60810889D01*
X147083261Y-60723261D01*
X147170889Y-60606204D01*
X147179316Y-60583610D01*
X152449942Y-60583610D01*
X152496766Y-60620055D01*
X152715393Y-60738368D01*
X152950506Y-60819083D01*
X153195707Y-60860000D01*
X153444293Y-60860000D01*
X153689493Y-60819083D01*
X153924606Y-60738368D01*
X154143233Y-60620053D01*
X154190056Y-60583609D01*
X153320000Y-59713553D01*
X152449942Y-60583609D01*
X152449942Y-60583610D01*
X147179316Y-60583610D01*
X147221989Y-60469201D01*
X147228500Y-60408638D01*
X147228500Y-59359999D01*
X151814858Y-59359999D01*
X151835386Y-59607732D01*
X151896413Y-59848721D01*
X151996268Y-60076370D01*
X152096563Y-60229882D01*
X152096564Y-60229882D01*
X152966447Y-59360001D01*
X153673553Y-59360001D01*
X154543434Y-60229882D01*
X154643730Y-60076369D01*
X154743586Y-59848721D01*
X154804613Y-59607732D01*
X154825141Y-59359999D01*
X154804613Y-59112267D01*
X154743586Y-58871278D01*
X154643730Y-58643630D01*
X154543434Y-58490116D01*
X153673553Y-59360000D01*
X153673553Y-59360001D01*
X152966447Y-59360001D01*
X152966447Y-59360000D01*
X152096564Y-58490116D01*
X151996266Y-58643634D01*
X151896413Y-58871278D01*
X151835386Y-59112267D01*
X151814858Y-59359999D01*
X147228500Y-59359999D01*
X147228500Y-58311362D01*
X147221989Y-58250799D01*
X147221988Y-58250797D01*
X147221988Y-58250794D01*
X147179316Y-58136390D01*
X152449942Y-58136390D01*
X153320000Y-59006447D01*
X153320001Y-59006447D01*
X154190057Y-58136390D01*
X154190056Y-58136388D01*
X154143235Y-58099947D01*
X153924606Y-57981631D01*
X153689493Y-57900916D01*
X153444293Y-57860000D01*
X153195707Y-57860000D01*
X152950506Y-57900916D01*
X152715393Y-57981631D01*
X152496764Y-58099946D01*
X152449942Y-58136388D01*
X152449942Y-58136390D01*
X147179316Y-58136390D01*
X147170889Y-58113796D01*
X147083261Y-57996738D01*
X146966203Y-57909110D01*
X146829205Y-57858011D01*
X146798919Y-57854755D01*
X146768638Y-57851500D01*
X144671362Y-57851500D01*
X144644445Y-57854393D01*
X144610794Y-57858011D01*
X144473796Y-57909110D01*
X144356738Y-57996738D01*
X144269110Y-58113796D01*
X144218011Y-58250794D01*
X144211500Y-58311366D01*
X144211500Y-60408634D01*
X82295500Y-60408634D01*
X82295500Y-56820000D01*
X103816692Y-56820000D01*
X103835884Y-57039368D01*
X103835885Y-57039371D01*
X103892880Y-57252076D01*
X103985944Y-57451654D01*
X104112251Y-57632038D01*
X104267962Y-57787749D01*
X104448346Y-57914056D01*
X104647924Y-58007120D01*
X104860629Y-58064115D01*
X105080000Y-58083307D01*
X105299371Y-58064115D01*
X105512076Y-58007120D01*
X105711654Y-57914056D01*
X105892038Y-57787749D01*
X106047749Y-57632038D01*
X106174056Y-57451654D01*
X106237617Y-57315344D01*
X106283375Y-57263168D01*
X106350000Y-57243748D01*
X106416625Y-57263168D01*
X106462382Y-57315344D01*
X106525941Y-57451649D01*
X106525943Y-57451651D01*
X106525944Y-57451654D01*
X106652251Y-57632038D01*
X106807962Y-57787749D01*
X106988346Y-57914056D01*
X107187924Y-58007120D01*
X107400629Y-58064115D01*
X107620000Y-58083307D01*
X107839371Y-58064115D01*
X108052076Y-58007120D01*
X108251654Y-57914056D01*
X108432038Y-57787749D01*
X108587749Y-57632038D01*
X108714056Y-57451654D01*
X108777617Y-57315344D01*
X108823375Y-57263168D01*
X108890000Y-57243748D01*
X108956625Y-57263168D01*
X109002382Y-57315344D01*
X109065941Y-57451649D01*
X109065943Y-57451651D01*
X109065944Y-57451654D01*
X109192251Y-57632038D01*
X109347962Y-57787749D01*
X109528346Y-57914056D01*
X109727924Y-58007120D01*
X109940629Y-58064115D01*
X110160000Y-58083307D01*
X110379371Y-58064115D01*
X110592076Y-58007120D01*
X110791654Y-57914056D01*
X110972038Y-57787749D01*
X111127749Y-57632038D01*
X111254056Y-57451654D01*
X111317617Y-57315344D01*
X111363375Y-57263168D01*
X111430000Y-57243748D01*
X111496625Y-57263168D01*
X111542382Y-57315344D01*
X111605941Y-57451649D01*
X111605943Y-57451651D01*
X111605944Y-57451654D01*
X111732251Y-57632038D01*
X111887962Y-57787749D01*
X112068346Y-57914056D01*
X112267924Y-58007120D01*
X112480629Y-58064115D01*
X112700000Y-58083307D01*
X112919371Y-58064115D01*
X113132076Y-58007120D01*
X113331654Y-57914056D01*
X113512038Y-57787749D01*
X113667749Y-57632038D01*
X113794056Y-57451654D01*
X113857617Y-57315344D01*
X113903375Y-57263168D01*
X113970000Y-57243748D01*
X114036625Y-57263168D01*
X114082382Y-57315344D01*
X114145941Y-57451649D01*
X114145943Y-57451651D01*
X114145944Y-57451654D01*
X114272251Y-57632038D01*
X114427962Y-57787749D01*
X114608346Y-57914056D01*
X114807924Y-58007120D01*
X115020629Y-58064115D01*
X115240000Y-58083307D01*
X115459371Y-58064115D01*
X115672076Y-58007120D01*
X115871654Y-57914056D01*
X116052038Y-57787749D01*
X116207749Y-57632038D01*
X116334056Y-57451654D01*
X116397617Y-57315344D01*
X116443375Y-57263168D01*
X116510000Y-57243748D01*
X116576625Y-57263168D01*
X116622382Y-57315344D01*
X116685941Y-57451649D01*
X116685943Y-57451651D01*
X116685944Y-57451654D01*
X116812251Y-57632038D01*
X116967962Y-57787749D01*
X117148346Y-57914056D01*
X117347924Y-58007120D01*
X117560629Y-58064115D01*
X117780000Y-58083307D01*
X117999371Y-58064115D01*
X118212076Y-58007120D01*
X118411654Y-57914056D01*
X118592038Y-57787749D01*
X118747749Y-57632038D01*
X118874056Y-57451654D01*
X118967120Y-57252076D01*
X119015908Y-57070000D01*
X164640000Y-57070000D01*
X164640000Y-57767824D01*
X164646402Y-57827375D01*
X164696647Y-57962089D01*
X164782811Y-58077188D01*
X164897910Y-58163352D01*
X165032624Y-58213597D01*
X165092176Y-58220000D01*
X165790000Y-58220000D01*
X166290000Y-58220000D01*
X166987824Y-58220000D01*
X167047375Y-58213597D01*
X167182089Y-58163352D01*
X167297188Y-58077188D01*
X167383352Y-57962088D01*
X167408940Y-57893485D01*
X167444891Y-57842271D01*
X167501273Y-57815133D01*
X167563727Y-57818981D01*
X167616351Y-57852835D01*
X167622776Y-57859815D01*
X167622780Y-57859818D01*
X167806983Y-58003190D01*
X168012273Y-58114287D01*
X168067467Y-58133235D01*
X168233046Y-58190080D01*
X168463288Y-58228500D01*
X168696712Y-58228500D01*
X168926953Y-58190080D01*
X169037338Y-58152183D01*
X169147727Y-58114287D01*
X169353017Y-58003190D01*
X169537220Y-57859818D01*
X169695314Y-57688083D01*
X169822984Y-57492669D01*
X169916749Y-57278907D01*
X169969651Y-57070000D01*
X179880000Y-57070000D01*
X179880000Y-57767824D01*
X179886402Y-57827375D01*
X179936647Y-57962089D01*
X180022811Y-58077188D01*
X180137910Y-58163352D01*
X180272624Y-58213597D01*
X180332176Y-58220000D01*
X181030000Y-58220000D01*
X181530000Y-58220000D01*
X182227824Y-58220000D01*
X182287375Y-58213597D01*
X182422089Y-58163352D01*
X182537188Y-58077188D01*
X182623352Y-57962088D01*
X182648940Y-57893485D01*
X182684891Y-57842271D01*
X182741273Y-57815133D01*
X182803727Y-57818981D01*
X182856351Y-57852835D01*
X182862776Y-57859815D01*
X182862780Y-57859818D01*
X183046983Y-58003190D01*
X183252273Y-58114287D01*
X183307467Y-58133235D01*
X183473046Y-58190080D01*
X183703288Y-58228500D01*
X183936712Y-58228500D01*
X184166953Y-58190080D01*
X184277338Y-58152183D01*
X184387727Y-58114287D01*
X184593017Y-58003190D01*
X184777220Y-57859818D01*
X184935314Y-57688083D01*
X185062984Y-57492669D01*
X185156749Y-57278907D01*
X185214051Y-57052626D01*
X185233327Y-56820000D01*
X185214051Y-56587374D01*
X185156749Y-56361093D01*
X185062984Y-56147331D01*
X184935314Y-55951917D01*
X184777220Y-55780182D01*
X184593017Y-55636810D01*
X184387727Y-55525713D01*
X184387726Y-55525712D01*
X184387725Y-55525712D01*
X184166953Y-55449919D01*
X183936712Y-55411500D01*
X183703288Y-55411500D01*
X183473046Y-55449919D01*
X183252274Y-55525712D01*
X183046983Y-55636810D01*
X182862777Y-55780184D01*
X182856348Y-55787168D01*
X182803724Y-55821019D01*
X182741271Y-55824866D01*
X182684891Y-55797727D01*
X182648940Y-55746514D01*
X182623352Y-55677911D01*
X182537188Y-55562811D01*
X182422089Y-55476647D01*
X182287375Y-55426402D01*
X182227824Y-55420000D01*
X181530000Y-55420000D01*
X181530000Y-58220000D01*
X181030000Y-58220000D01*
X181030000Y-57070000D01*
X179880000Y-57070000D01*
X169969651Y-57070000D01*
X169974051Y-57052626D01*
X169993327Y-56820000D01*
X169974051Y-56587374D01*
X169969651Y-56570000D01*
X179880000Y-56570000D01*
X181030000Y-56570000D01*
X181030000Y-55420000D01*
X180332176Y-55420000D01*
X180272624Y-55426402D01*
X180137910Y-55476647D01*
X180022811Y-55562811D01*
X179936647Y-55677910D01*
X179886402Y-55812624D01*
X179880000Y-55872176D01*
X179880000Y-56570000D01*
X169969651Y-56570000D01*
X169916749Y-56361093D01*
X169822984Y-56147331D01*
X169695314Y-55951917D01*
X169537220Y-55780182D01*
X169353017Y-55636810D01*
X169147727Y-55525713D01*
X169147726Y-55525712D01*
X169147725Y-55525712D01*
X168926953Y-55449919D01*
X168696712Y-55411500D01*
X168463288Y-55411500D01*
X168233046Y-55449919D01*
X168012274Y-55525712D01*
X167806983Y-55636810D01*
X167622777Y-55780184D01*
X167616348Y-55787168D01*
X167563724Y-55821019D01*
X167501271Y-55824866D01*
X167444891Y-55797727D01*
X167408940Y-55746514D01*
X167383352Y-55677911D01*
X167297188Y-55562811D01*
X167182089Y-55476647D01*
X167047375Y-55426402D01*
X166987824Y-55420000D01*
X166290000Y-55420000D01*
X166290000Y-58220000D01*
X165790000Y-58220000D01*
X165790000Y-57070000D01*
X164640000Y-57070000D01*
X119015908Y-57070000D01*
X119024115Y-57039371D01*
X119043307Y-56820000D01*
X119024115Y-56600629D01*
X119015908Y-56570000D01*
X164640000Y-56570000D01*
X165790000Y-56570000D01*
X165790000Y-55420000D01*
X165092176Y-55420000D01*
X165032624Y-55426402D01*
X164897910Y-55476647D01*
X164782811Y-55562811D01*
X164696647Y-55677910D01*
X164646402Y-55812624D01*
X164640000Y-55872176D01*
X164640000Y-56570000D01*
X119015908Y-56570000D01*
X118967120Y-56387924D01*
X118874056Y-56188347D01*
X118747749Y-56007962D01*
X118592038Y-55852251D01*
X118411654Y-55725944D01*
X118308644Y-55677910D01*
X118212077Y-55632880D01*
X117999368Y-55575884D01*
X117780000Y-55556692D01*
X117560631Y-55575884D01*
X117347922Y-55632880D01*
X117148349Y-55725943D01*
X117148347Y-55725944D01*
X117012566Y-55821019D01*
X116967958Y-55852254D01*
X116812254Y-56007958D01*
X116812251Y-56007961D01*
X116812251Y-56007962D01*
X116714665Y-56147330D01*
X116685943Y-56188349D01*
X116622382Y-56324656D01*
X116576625Y-56376832D01*
X116510000Y-56396251D01*
X116443375Y-56376832D01*
X116397618Y-56324656D01*
X116383634Y-56294668D01*
X116334056Y-56188347D01*
X116207749Y-56007962D01*
X116052038Y-55852251D01*
X115871654Y-55725944D01*
X115768644Y-55677910D01*
X115672077Y-55632880D01*
X115459368Y-55575884D01*
X115240000Y-55556692D01*
X115020631Y-55575884D01*
X114807922Y-55632880D01*
X114608349Y-55725943D01*
X114608347Y-55725944D01*
X114472566Y-55821019D01*
X114427958Y-55852254D01*
X114272254Y-56007958D01*
X114272251Y-56007961D01*
X114272251Y-56007962D01*
X114174665Y-56147330D01*
X114145943Y-56188349D01*
X114082382Y-56324656D01*
X114036625Y-56376832D01*
X113970000Y-56396251D01*
X113903375Y-56376832D01*
X113857618Y-56324656D01*
X113843634Y-56294668D01*
X113794056Y-56188347D01*
X113667749Y-56007962D01*
X113512038Y-55852251D01*
X113331654Y-55725944D01*
X113228644Y-55677910D01*
X113132077Y-55632880D01*
X112919368Y-55575884D01*
X112700000Y-55556692D01*
X112480631Y-55575884D01*
X112267922Y-55632880D01*
X112068349Y-55725943D01*
X112068347Y-55725944D01*
X111932566Y-55821019D01*
X111887958Y-55852254D01*
X111732254Y-56007958D01*
X111732251Y-56007961D01*
X111732251Y-56007962D01*
X111634665Y-56147330D01*
X111605943Y-56188349D01*
X111542382Y-56324656D01*
X111496625Y-56376832D01*
X111430000Y-56396251D01*
X111363375Y-56376832D01*
X111317618Y-56324656D01*
X111303634Y-56294668D01*
X111254056Y-56188347D01*
X111127749Y-56007962D01*
X110972038Y-55852251D01*
X110791654Y-55725944D01*
X110688644Y-55677910D01*
X110592077Y-55632880D01*
X110379368Y-55575884D01*
X110160000Y-55556692D01*
X109940631Y-55575884D01*
X109727922Y-55632880D01*
X109528349Y-55725943D01*
X109528347Y-55725944D01*
X109392566Y-55821019D01*
X109347958Y-55852254D01*
X109192254Y-56007958D01*
X109192251Y-56007961D01*
X109192251Y-56007962D01*
X109094665Y-56147330D01*
X109065943Y-56188349D01*
X109002382Y-56324656D01*
X108956625Y-56376832D01*
X108890000Y-56396251D01*
X108823375Y-56376832D01*
X108777618Y-56324656D01*
X108763634Y-56294668D01*
X108714056Y-56188347D01*
X108587749Y-56007962D01*
X108432038Y-55852251D01*
X108251654Y-55725944D01*
X108148644Y-55677910D01*
X108052077Y-55632880D01*
X107839368Y-55575884D01*
X107620000Y-55556692D01*
X107400631Y-55575884D01*
X107187922Y-55632880D01*
X106988349Y-55725943D01*
X106988347Y-55725944D01*
X106852566Y-55821019D01*
X106807958Y-55852254D01*
X106652254Y-56007958D01*
X106652251Y-56007961D01*
X106652251Y-56007962D01*
X106554665Y-56147330D01*
X106525943Y-56188349D01*
X106462382Y-56324656D01*
X106416625Y-56376832D01*
X106350000Y-56396251D01*
X106283375Y-56376832D01*
X106237618Y-56324656D01*
X106223634Y-56294668D01*
X106174056Y-56188347D01*
X106047749Y-56007962D01*
X105892038Y-55852251D01*
X105711654Y-55725944D01*
X105608644Y-55677910D01*
X105512077Y-55632880D01*
X105299368Y-55575884D01*
X105080000Y-55556692D01*
X104860631Y-55575884D01*
X104647922Y-55632880D01*
X104448349Y-55725943D01*
X104448347Y-55725944D01*
X104312566Y-55821019D01*
X104267958Y-55852254D01*
X104112254Y-56007958D01*
X104112251Y-56007961D01*
X104112251Y-56007962D01*
X104014665Y-56147330D01*
X103985943Y-56188349D01*
X103892880Y-56387922D01*
X103835884Y-56600631D01*
X103816692Y-56820000D01*
X82295500Y-56820000D01*
X82295500Y-51739999D01*
X172346501Y-51739999D01*
X172366456Y-51968084D01*
X172425717Y-52189246D01*
X172522474Y-52396744D01*
X172522475Y-52396745D01*
X172522477Y-52396749D01*
X172653802Y-52584300D01*
X172815700Y-52746198D01*
X173003251Y-52877523D01*
X173210757Y-52974284D01*
X173431913Y-53033543D01*
X173660000Y-53053498D01*
X173888087Y-53033543D01*
X174109243Y-52974284D01*
X174316749Y-52877523D01*
X174504300Y-52746198D01*
X174666198Y-52584300D01*
X174797523Y-52396749D01*
X174817617Y-52353655D01*
X174863375Y-52301479D01*
X174930000Y-52282059D01*
X174996625Y-52301479D01*
X175042382Y-52353655D01*
X175062477Y-52396749D01*
X175193802Y-52584300D01*
X175355700Y-52746198D01*
X175543251Y-52877523D01*
X175750757Y-52974284D01*
X175971913Y-53033543D01*
X176200000Y-53053498D01*
X176428087Y-53033543D01*
X176649243Y-52974284D01*
X176856749Y-52877523D01*
X177044300Y-52746198D01*
X177206198Y-52584300D01*
X177337523Y-52396749D01*
X177434284Y-52189243D01*
X177493543Y-51968087D01*
X177513498Y-51740000D01*
X177493543Y-51511913D01*
X177434284Y-51290757D01*
X177337523Y-51083251D01*
X177206198Y-50895700D01*
X177044300Y-50733802D01*
X176856749Y-50602477D01*
X176856746Y-50602476D01*
X176856744Y-50602474D01*
X176649246Y-50505717D01*
X176649243Y-50505716D01*
X176528751Y-50473430D01*
X176428084Y-50446456D01*
X176200000Y-50426501D01*
X175971915Y-50446456D01*
X175750753Y-50505717D01*
X175543255Y-50602474D01*
X175355696Y-50733805D01*
X175193805Y-50895696D01*
X175062476Y-51083253D01*
X175042382Y-51126345D01*
X174996625Y-51178521D01*
X174930000Y-51197940D01*
X174863375Y-51178521D01*
X174817618Y-51126345D01*
X174816214Y-51123334D01*
X174797523Y-51083251D01*
X174666198Y-50895700D01*
X174504300Y-50733802D01*
X174316749Y-50602477D01*
X174316746Y-50602476D01*
X174316744Y-50602474D01*
X174109246Y-50505717D01*
X174109243Y-50505716D01*
X173988751Y-50473430D01*
X173888084Y-50446456D01*
X173660000Y-50426501D01*
X173431915Y-50446456D01*
X173210753Y-50505717D01*
X173003255Y-50602474D01*
X172815696Y-50733805D01*
X172653805Y-50895696D01*
X172522474Y-51083255D01*
X172425717Y-51290753D01*
X172366456Y-51511915D01*
X172346501Y-51739999D01*
X82295500Y-51739999D01*
X82295500Y-50098634D01*
X117437500Y-50098634D01*
X117444011Y-50159205D01*
X117495110Y-50296203D01*
X117582738Y-50413261D01*
X117699796Y-50500889D01*
X117836794Y-50551988D01*
X117836797Y-50551988D01*
X117836799Y-50551989D01*
X117897362Y-50558500D01*
X119694634Y-50558500D01*
X119694638Y-50558500D01*
X119755201Y-50551989D01*
X119755203Y-50551988D01*
X119755205Y-50551988D01*
X119837097Y-50521443D01*
X119892204Y-50500889D01*
X120009261Y-50413261D01*
X120096889Y-50296204D01*
X120142137Y-50174889D01*
X120178089Y-50123677D01*
X120234471Y-50096539D01*
X120296925Y-50100387D01*
X120349548Y-50134241D01*
X120386969Y-50174890D01*
X120412760Y-50202906D01*
X120590424Y-50341189D01*
X120788426Y-50448342D01*
X121001365Y-50521444D01*
X121223431Y-50558500D01*
X121448569Y-50558500D01*
X121670635Y-50521444D01*
X121883574Y-50448342D01*
X122081576Y-50341189D01*
X122259240Y-50202906D01*
X122411722Y-50037268D01*
X122502190Y-49898795D01*
X122546982Y-49857561D01*
X122606000Y-49842616D01*
X122665018Y-49857561D01*
X122709809Y-49898795D01*
X122800278Y-50037268D01*
X122952760Y-50202906D01*
X123130424Y-50341189D01*
X123328426Y-50448342D01*
X123541365Y-50521444D01*
X123763431Y-50558500D01*
X123988569Y-50558500D01*
X124210635Y-50521444D01*
X124423574Y-50448342D01*
X124621576Y-50341189D01*
X124799240Y-50202906D01*
X124951722Y-50037268D01*
X125045748Y-49893349D01*
X125089663Y-49852595D01*
X125147562Y-49837188D01*
X125205926Y-49850726D01*
X125251131Y-49890048D01*
X125377892Y-50071080D01*
X125544918Y-50238106D01*
X125738423Y-50373600D01*
X125952507Y-50473430D01*
X126165999Y-50530635D01*
X126166000Y-50530636D01*
X126166000Y-50530635D01*
X126666000Y-50530635D01*
X126879492Y-50473430D01*
X127093576Y-50373600D01*
X127287081Y-50238106D01*
X127454106Y-50071081D01*
X127580868Y-49890048D01*
X127626072Y-49850726D01*
X127684436Y-49837188D01*
X127742335Y-49852595D01*
X127786252Y-49893351D01*
X127880276Y-50037267D01*
X127959824Y-50123677D01*
X128032760Y-50202906D01*
X128210424Y-50341189D01*
X128408426Y-50448342D01*
X128621365Y-50521444D01*
X128843431Y-50558500D01*
X129068569Y-50558500D01*
X129290635Y-50521444D01*
X129503574Y-50448342D01*
X129701576Y-50341189D01*
X129879240Y-50202906D01*
X130031722Y-50037268D01*
X130122190Y-49898795D01*
X130166982Y-49857561D01*
X130226000Y-49842616D01*
X130285018Y-49857561D01*
X130329809Y-49898795D01*
X130420278Y-50037268D01*
X130572760Y-50202906D01*
X130750424Y-50341189D01*
X130948426Y-50448342D01*
X131161365Y-50521444D01*
X131383431Y-50558500D01*
X131608569Y-50558500D01*
X131830635Y-50521444D01*
X132043574Y-50448342D01*
X132241576Y-50341189D01*
X132419240Y-50202906D01*
X132571722Y-50037268D01*
X132662190Y-49898795D01*
X132706982Y-49857561D01*
X132766000Y-49842616D01*
X132825018Y-49857561D01*
X132869809Y-49898795D01*
X132960278Y-50037268D01*
X133112760Y-50202906D01*
X133290424Y-50341189D01*
X133488426Y-50448342D01*
X133701365Y-50521444D01*
X133923431Y-50558500D01*
X134148569Y-50558500D01*
X134370635Y-50521444D01*
X134583574Y-50448342D01*
X134781576Y-50341189D01*
X134959240Y-50202906D01*
X135111722Y-50037268D01*
X135202190Y-49898795D01*
X135246982Y-49857561D01*
X135306000Y-49842616D01*
X135365018Y-49857561D01*
X135409809Y-49898795D01*
X135500278Y-50037268D01*
X135652760Y-50202906D01*
X135830424Y-50341189D01*
X136028426Y-50448342D01*
X136241365Y-50521444D01*
X136463431Y-50558500D01*
X136688569Y-50558500D01*
X136910635Y-50521444D01*
X137123574Y-50448342D01*
X137321576Y-50341189D01*
X137499240Y-50202906D01*
X137651722Y-50037268D01*
X137742190Y-49898795D01*
X137786982Y-49857561D01*
X137846000Y-49842616D01*
X137905018Y-49857561D01*
X137949809Y-49898795D01*
X138040278Y-50037268D01*
X138192760Y-50202906D01*
X138370424Y-50341189D01*
X138568426Y-50448342D01*
X138781365Y-50521444D01*
X139003431Y-50558500D01*
X139228569Y-50558500D01*
X139450635Y-50521444D01*
X139663574Y-50448342D01*
X139861576Y-50341189D01*
X140039240Y-50202906D01*
X140191722Y-50037268D01*
X140282190Y-49898795D01*
X140326982Y-49857561D01*
X140386000Y-49842616D01*
X140445018Y-49857561D01*
X140489809Y-49898795D01*
X140580278Y-50037268D01*
X140732760Y-50202906D01*
X140910424Y-50341189D01*
X141108426Y-50448342D01*
X141321365Y-50521444D01*
X141543431Y-50558500D01*
X141768569Y-50558500D01*
X141990635Y-50521444D01*
X142203574Y-50448342D01*
X142401576Y-50341189D01*
X142579240Y-50202906D01*
X142675230Y-50098634D01*
X144361500Y-50098634D01*
X144368011Y-50159205D01*
X144419110Y-50296203D01*
X144506738Y-50413261D01*
X144623796Y-50500889D01*
X144760794Y-50551988D01*
X144760797Y-50551988D01*
X144760799Y-50551989D01*
X144821362Y-50558500D01*
X146618634Y-50558500D01*
X146618638Y-50558500D01*
X146679201Y-50551989D01*
X146679203Y-50551988D01*
X146679205Y-50551988D01*
X146761097Y-50521443D01*
X146816204Y-50500889D01*
X146933261Y-50413261D01*
X147020889Y-50296204D01*
X147066137Y-50174889D01*
X147102089Y-50123677D01*
X147158471Y-50096539D01*
X147220925Y-50100387D01*
X147273548Y-50134241D01*
X147310969Y-50174890D01*
X147336760Y-50202906D01*
X147514424Y-50341189D01*
X147712426Y-50448342D01*
X147925365Y-50521444D01*
X148147431Y-50558500D01*
X148372569Y-50558500D01*
X148594635Y-50521444D01*
X148807574Y-50448342D01*
X149005576Y-50341189D01*
X149183240Y-50202906D01*
X149335722Y-50037268D01*
X149426190Y-49898795D01*
X149470982Y-49857561D01*
X149530000Y-49842616D01*
X149589018Y-49857561D01*
X149633809Y-49898795D01*
X149724278Y-50037268D01*
X149876760Y-50202906D01*
X150054424Y-50341189D01*
X150252426Y-50448342D01*
X150465365Y-50521444D01*
X150687431Y-50558500D01*
X150912569Y-50558500D01*
X151134635Y-50521444D01*
X151347574Y-50448342D01*
X151545576Y-50341189D01*
X151723240Y-50202906D01*
X151875722Y-50037268D01*
X151966190Y-49898795D01*
X152010982Y-49857561D01*
X152070000Y-49842616D01*
X152129018Y-49857561D01*
X152173809Y-49898795D01*
X152264278Y-50037268D01*
X152416760Y-50202906D01*
X152594424Y-50341189D01*
X152792426Y-50448342D01*
X153005365Y-50521444D01*
X153227431Y-50558500D01*
X153452569Y-50558500D01*
X153674635Y-50521444D01*
X153887574Y-50448342D01*
X154085576Y-50341189D01*
X154263240Y-50202906D01*
X154415722Y-50037268D01*
X154506190Y-49898795D01*
X154550982Y-49857561D01*
X154610000Y-49842616D01*
X154669018Y-49857561D01*
X154713809Y-49898795D01*
X154804278Y-50037268D01*
X154956760Y-50202906D01*
X155134424Y-50341189D01*
X155332426Y-50448342D01*
X155545365Y-50521444D01*
X155767431Y-50558500D01*
X155992569Y-50558500D01*
X156214635Y-50521444D01*
X156427574Y-50448342D01*
X156625576Y-50341189D01*
X156803240Y-50202906D01*
X156955722Y-50037268D01*
X157046190Y-49898795D01*
X157090982Y-49857561D01*
X157150000Y-49842616D01*
X157209018Y-49857561D01*
X157253809Y-49898795D01*
X157344278Y-50037268D01*
X157496760Y-50202906D01*
X157674424Y-50341189D01*
X157872426Y-50448342D01*
X158085365Y-50521444D01*
X158307431Y-50558500D01*
X158532569Y-50558500D01*
X158754635Y-50521444D01*
X158967574Y-50448342D01*
X159165576Y-50341189D01*
X159343240Y-50202906D01*
X159495722Y-50037268D01*
X159586190Y-49898795D01*
X159630982Y-49857561D01*
X159690000Y-49842616D01*
X159749018Y-49857561D01*
X159793809Y-49898795D01*
X159884278Y-50037268D01*
X160036760Y-50202906D01*
X160214424Y-50341189D01*
X160412426Y-50448342D01*
X160625365Y-50521444D01*
X160847431Y-50558500D01*
X161072569Y-50558500D01*
X161294635Y-50521444D01*
X161507574Y-50448342D01*
X161705576Y-50341189D01*
X161883240Y-50202906D01*
X162035722Y-50037268D01*
X162126190Y-49898795D01*
X162170982Y-49857561D01*
X162230000Y-49842616D01*
X162289018Y-49857561D01*
X162333809Y-49898795D01*
X162424278Y-50037268D01*
X162576760Y-50202906D01*
X162754424Y-50341189D01*
X162952426Y-50448342D01*
X163165365Y-50521444D01*
X163387431Y-50558500D01*
X163612569Y-50558500D01*
X163834635Y-50521444D01*
X164047574Y-50448342D01*
X164245576Y-50341189D01*
X164423240Y-50202906D01*
X164575722Y-50037268D01*
X164698860Y-49848791D01*
X164789296Y-49642616D01*
X164844564Y-49424368D01*
X164863156Y-49200000D01*
X164844564Y-48975632D01*
X164789296Y-48757384D01*
X164698860Y-48551209D01*
X164575722Y-48362732D01*
X164423240Y-48197094D01*
X164245576Y-48058811D01*
X164047574Y-47951658D01*
X164047573Y-47951657D01*
X164047572Y-47951657D01*
X163834636Y-47878556D01*
X163612569Y-47841500D01*
X163387431Y-47841500D01*
X163165363Y-47878556D01*
X162952427Y-47951657D01*
X162754424Y-48058811D01*
X162576760Y-48197094D01*
X162424279Y-48362730D01*
X162333809Y-48501205D01*
X162289017Y-48542438D01*
X162230000Y-48557383D01*
X162170983Y-48542438D01*
X162126191Y-48501205D01*
X162035723Y-48362734D01*
X162035722Y-48362732D01*
X161883240Y-48197094D01*
X161705576Y-48058811D01*
X161507574Y-47951658D01*
X161507573Y-47951657D01*
X161507572Y-47951657D01*
X161294636Y-47878556D01*
X161072569Y-47841500D01*
X160847431Y-47841500D01*
X160625363Y-47878556D01*
X160412427Y-47951657D01*
X160214424Y-48058811D01*
X160036760Y-48197094D01*
X159884279Y-48362730D01*
X159793809Y-48501205D01*
X159749017Y-48542438D01*
X159690000Y-48557383D01*
X159630983Y-48542438D01*
X159586191Y-48501205D01*
X159495723Y-48362734D01*
X159495722Y-48362732D01*
X159343240Y-48197094D01*
X159165576Y-48058811D01*
X158967574Y-47951658D01*
X158967573Y-47951657D01*
X158967572Y-47951657D01*
X158754636Y-47878556D01*
X158532569Y-47841500D01*
X158307431Y-47841500D01*
X158085363Y-47878556D01*
X157872427Y-47951657D01*
X157674424Y-48058811D01*
X157496760Y-48197094D01*
X157344279Y-48362730D01*
X157253809Y-48501205D01*
X157209017Y-48542438D01*
X157150000Y-48557383D01*
X157090983Y-48542438D01*
X157046191Y-48501205D01*
X156955723Y-48362734D01*
X156955722Y-48362732D01*
X156803240Y-48197094D01*
X156625576Y-48058811D01*
X156427574Y-47951658D01*
X156427573Y-47951657D01*
X156427572Y-47951657D01*
X156214636Y-47878556D01*
X155992569Y-47841500D01*
X155767431Y-47841500D01*
X155545363Y-47878556D01*
X155332427Y-47951657D01*
X155134424Y-48058811D01*
X154956760Y-48197094D01*
X154804279Y-48362730D01*
X154713809Y-48501205D01*
X154669017Y-48542438D01*
X154610000Y-48557383D01*
X154550983Y-48542438D01*
X154506191Y-48501205D01*
X154415723Y-48362734D01*
X154415722Y-48362732D01*
X154263240Y-48197094D01*
X154085576Y-48058811D01*
X153887574Y-47951658D01*
X153887573Y-47951657D01*
X153887572Y-47951657D01*
X153674636Y-47878556D01*
X153452569Y-47841500D01*
X153227431Y-47841500D01*
X153005363Y-47878556D01*
X152792427Y-47951657D01*
X152594424Y-48058811D01*
X152416760Y-48197094D01*
X152264279Y-48362730D01*
X152173809Y-48501205D01*
X152129017Y-48542438D01*
X152070000Y-48557383D01*
X152010983Y-48542438D01*
X151966191Y-48501205D01*
X151875723Y-48362734D01*
X151875722Y-48362732D01*
X151723240Y-48197094D01*
X151545576Y-48058811D01*
X151347574Y-47951658D01*
X151347573Y-47951657D01*
X151347572Y-47951657D01*
X151134636Y-47878556D01*
X150912569Y-47841500D01*
X150687431Y-47841500D01*
X150465363Y-47878556D01*
X150252427Y-47951657D01*
X150054424Y-48058811D01*
X149876760Y-48197094D01*
X149724279Y-48362730D01*
X149633809Y-48501205D01*
X149589017Y-48542438D01*
X149530000Y-48557383D01*
X149470983Y-48542438D01*
X149426191Y-48501205D01*
X149335723Y-48362734D01*
X149335722Y-48362732D01*
X149183240Y-48197094D01*
X149005576Y-48058811D01*
X148807574Y-47951658D01*
X148807573Y-47951657D01*
X148807572Y-47951657D01*
X148594636Y-47878556D01*
X148372569Y-47841500D01*
X148147431Y-47841500D01*
X147925363Y-47878556D01*
X147712427Y-47951657D01*
X147514424Y-48058811D01*
X147336759Y-48197094D01*
X147273548Y-48265759D01*
X147220924Y-48299612D01*
X147158470Y-48303460D01*
X147102089Y-48276322D01*
X147066138Y-48225110D01*
X147041427Y-48158861D01*
X147020889Y-48103796D01*
X146962951Y-48026400D01*
X146933261Y-47986738D01*
X146816203Y-47899110D01*
X146679205Y-47848011D01*
X146648919Y-47844755D01*
X146618638Y-47841500D01*
X144821362Y-47841500D01*
X144794445Y-47844393D01*
X144760794Y-47848011D01*
X144623796Y-47899110D01*
X144506738Y-47986738D01*
X144419110Y-48103796D01*
X144368011Y-48240794D01*
X144364393Y-48274445D01*
X144361689Y-48299612D01*
X144361500Y-48301366D01*
X144361500Y-50098634D01*
X142675230Y-50098634D01*
X142731722Y-50037268D01*
X142854860Y-49848791D01*
X142945296Y-49642616D01*
X143000564Y-49424368D01*
X143019156Y-49200000D01*
X143000564Y-48975632D01*
X142945296Y-48757384D01*
X142854860Y-48551209D01*
X142731722Y-48362732D01*
X142579240Y-48197094D01*
X142401576Y-48058811D01*
X142203574Y-47951658D01*
X142203573Y-47951657D01*
X142203572Y-47951657D01*
X141990636Y-47878556D01*
X141768569Y-47841500D01*
X141543431Y-47841500D01*
X141321363Y-47878556D01*
X141108427Y-47951657D01*
X140910424Y-48058811D01*
X140732760Y-48197094D01*
X140580279Y-48362730D01*
X140489809Y-48501205D01*
X140445017Y-48542438D01*
X140386000Y-48557383D01*
X140326983Y-48542438D01*
X140282191Y-48501205D01*
X140191723Y-48362734D01*
X140191722Y-48362732D01*
X140039240Y-48197094D01*
X139861576Y-48058811D01*
X139663574Y-47951658D01*
X139663573Y-47951657D01*
X139663572Y-47951657D01*
X139450636Y-47878556D01*
X139228569Y-47841500D01*
X139003431Y-47841500D01*
X138781363Y-47878556D01*
X138568427Y-47951657D01*
X138370424Y-48058811D01*
X138192760Y-48197094D01*
X138040279Y-48362730D01*
X137949809Y-48501205D01*
X137905017Y-48542438D01*
X137846000Y-48557383D01*
X137786983Y-48542438D01*
X137742191Y-48501205D01*
X137651723Y-48362734D01*
X137651722Y-48362732D01*
X137499240Y-48197094D01*
X137321576Y-48058811D01*
X137123574Y-47951658D01*
X137123573Y-47951657D01*
X137123572Y-47951657D01*
X136910636Y-47878556D01*
X136688569Y-47841500D01*
X136463431Y-47841500D01*
X136241363Y-47878556D01*
X136028427Y-47951657D01*
X135830424Y-48058811D01*
X135652760Y-48197094D01*
X135500279Y-48362730D01*
X135409809Y-48501205D01*
X135365017Y-48542438D01*
X135306000Y-48557383D01*
X135246983Y-48542438D01*
X135202191Y-48501205D01*
X135111723Y-48362734D01*
X135111722Y-48362732D01*
X134959240Y-48197094D01*
X134781576Y-48058811D01*
X134583574Y-47951658D01*
X134583573Y-47951657D01*
X134583572Y-47951657D01*
X134370636Y-47878556D01*
X134148569Y-47841500D01*
X133923431Y-47841500D01*
X133701363Y-47878556D01*
X133488427Y-47951657D01*
X133290424Y-48058811D01*
X133112760Y-48197094D01*
X132960279Y-48362730D01*
X132869809Y-48501205D01*
X132825017Y-48542438D01*
X132766000Y-48557383D01*
X132706983Y-48542438D01*
X132662191Y-48501205D01*
X132571723Y-48362734D01*
X132571722Y-48362732D01*
X132419240Y-48197094D01*
X132241576Y-48058811D01*
X132043574Y-47951658D01*
X132043573Y-47951657D01*
X132043572Y-47951657D01*
X131830636Y-47878556D01*
X131608569Y-47841500D01*
X131383431Y-47841500D01*
X131161363Y-47878556D01*
X130948427Y-47951657D01*
X130750424Y-48058811D01*
X130572760Y-48197094D01*
X130420279Y-48362730D01*
X130329809Y-48501205D01*
X130285017Y-48542438D01*
X130226000Y-48557383D01*
X130166983Y-48542438D01*
X130122191Y-48501205D01*
X130031723Y-48362734D01*
X130031722Y-48362732D01*
X129879240Y-48197094D01*
X129701576Y-48058811D01*
X129503574Y-47951658D01*
X129503573Y-47951657D01*
X129503572Y-47951657D01*
X129290636Y-47878556D01*
X129068569Y-47841500D01*
X128843431Y-47841500D01*
X128621363Y-47878556D01*
X128408427Y-47951657D01*
X128210424Y-48058811D01*
X128032760Y-48197094D01*
X127880275Y-48362734D01*
X127786250Y-48506650D01*
X127742334Y-48547405D01*
X127684435Y-48562812D01*
X127626071Y-48549274D01*
X127580867Y-48509951D01*
X127454109Y-48328921D01*
X127287081Y-48161893D01*
X127093576Y-48026399D01*
X126879492Y-47926569D01*
X126666000Y-47869364D01*
X126666000Y-50530635D01*
X126166000Y-50530635D01*
X126166000Y-47869364D01*
X126165999Y-47869364D01*
X125952507Y-47926569D01*
X125738421Y-48026400D01*
X125544921Y-48161890D01*
X125377893Y-48328918D01*
X125251132Y-48509952D01*
X125205928Y-48549274D01*
X125147564Y-48562812D01*
X125089665Y-48547405D01*
X125045748Y-48506649D01*
X124951723Y-48362732D01*
X124862451Y-48265759D01*
X124799240Y-48197094D01*
X124621576Y-48058811D01*
X124423574Y-47951658D01*
X124423573Y-47951657D01*
X124423572Y-47951657D01*
X124210636Y-47878556D01*
X123988569Y-47841500D01*
X123763431Y-47841500D01*
X123541363Y-47878556D01*
X123328427Y-47951657D01*
X123130424Y-48058811D01*
X122952760Y-48197094D01*
X122800279Y-48362730D01*
X122709809Y-48501205D01*
X122665017Y-48542438D01*
X122606000Y-48557383D01*
X122546983Y-48542438D01*
X122502191Y-48501205D01*
X122411723Y-48362734D01*
X122411722Y-48362732D01*
X122259240Y-48197094D01*
X122081576Y-48058811D01*
X121883574Y-47951658D01*
X121883573Y-47951657D01*
X121883572Y-47951657D01*
X121670636Y-47878556D01*
X121448569Y-47841500D01*
X121223431Y-47841500D01*
X121001363Y-47878556D01*
X120788427Y-47951657D01*
X120590424Y-48058811D01*
X120412759Y-48197094D01*
X120349548Y-48265759D01*
X120296924Y-48299612D01*
X120234470Y-48303460D01*
X120178089Y-48276322D01*
X120142138Y-48225110D01*
X120117427Y-48158861D01*
X120096889Y-48103796D01*
X120038951Y-48026400D01*
X120009261Y-47986738D01*
X119892203Y-47899110D01*
X119755205Y-47848011D01*
X119724919Y-47844755D01*
X119694638Y-47841500D01*
X117897362Y-47841500D01*
X117870445Y-47844393D01*
X117836794Y-47848011D01*
X117699796Y-47899110D01*
X117582738Y-47986738D01*
X117495110Y-48103796D01*
X117444011Y-48240794D01*
X117440393Y-48274445D01*
X117437689Y-48299612D01*
X117437500Y-48301366D01*
X117437500Y-50098634D01*
X82295500Y-50098634D01*
X82295500Y-46859500D01*
X82312113Y-46797500D01*
X82357500Y-46752113D01*
X82419500Y-46735500D01*
X100734520Y-46735500D01*
X100775312Y-46735500D01*
X163472520Y-46735500D01*
X163513312Y-46735500D01*
X186160500Y-46735500D01*
X186222500Y-46752113D01*
G37*
%TD.AperFunction*%
%TD*%
M02*
