%TF.GenerationSoftware,KiCad,Pcbnew,7.0.1-0*%
%TF.CreationDate,2023-03-30T13:35:29-06:00*%
%TF.ProjectId,Phase_A_UnoShield,50686173-655f-4415-9f55-6e6f53686965,rev?*%
%TF.SameCoordinates,Original*%
%TF.FileFunction,Legend,Top*%
%TF.FilePolarity,Positive*%
%FSLAX46Y46*%
G04 Gerber Fmt 4.6, Leading zero omitted, Abs format (unit mm)*
G04 Created by KiCad (PCBNEW 7.0.1-0) date 2023-03-30 13:35:29*
%MOMM*%
%LPD*%
G01*
G04 APERTURE LIST*
%ADD10C,0.150000*%
%ADD11C,0.120000*%
G04 APERTURE END LIST*
D10*
X165306190Y-93975238D02*
X165306190Y-91975238D01*
X166449047Y-93975238D02*
X165591904Y-92832380D01*
X166449047Y-91975238D02*
X165306190Y-93118095D01*
X167306190Y-93975238D02*
X167306190Y-92641904D01*
X167306190Y-91975238D02*
X167210952Y-92070476D01*
X167210952Y-92070476D02*
X167306190Y-92165714D01*
X167306190Y-92165714D02*
X167401428Y-92070476D01*
X167401428Y-92070476D02*
X167306190Y-91975238D01*
X167306190Y-91975238D02*
X167306190Y-92165714D01*
X167972857Y-92641904D02*
X168734761Y-92641904D01*
X168258571Y-91975238D02*
X168258571Y-93689523D01*
X168258571Y-93689523D02*
X168353809Y-93880000D01*
X168353809Y-93880000D02*
X168544285Y-93975238D01*
X168544285Y-93975238D02*
X168734761Y-93975238D01*
X170258571Y-93880000D02*
X170068095Y-93975238D01*
X170068095Y-93975238D02*
X169687142Y-93975238D01*
X169687142Y-93975238D02*
X169496666Y-93880000D01*
X169496666Y-93880000D02*
X169401428Y-93784761D01*
X169401428Y-93784761D02*
X169306190Y-93594285D01*
X169306190Y-93594285D02*
X169306190Y-93022857D01*
X169306190Y-93022857D02*
X169401428Y-92832380D01*
X169401428Y-92832380D02*
X169496666Y-92737142D01*
X169496666Y-92737142D02*
X169687142Y-92641904D01*
X169687142Y-92641904D02*
X170068095Y-92641904D01*
X170068095Y-92641904D02*
X170258571Y-92737142D01*
X171115714Y-93975238D02*
X171115714Y-91975238D01*
X171972857Y-93975238D02*
X171972857Y-92927619D01*
X171972857Y-92927619D02*
X171877619Y-92737142D01*
X171877619Y-92737142D02*
X171687143Y-92641904D01*
X171687143Y-92641904D02*
X171401428Y-92641904D01*
X171401428Y-92641904D02*
X171210952Y-92737142D01*
X171210952Y-92737142D02*
X171115714Y-92832380D01*
X173687143Y-93880000D02*
X173496667Y-93975238D01*
X173496667Y-93975238D02*
X173115714Y-93975238D01*
X173115714Y-93975238D02*
X172925238Y-93880000D01*
X172925238Y-93880000D02*
X172830000Y-93689523D01*
X172830000Y-93689523D02*
X172830000Y-92927619D01*
X172830000Y-92927619D02*
X172925238Y-92737142D01*
X172925238Y-92737142D02*
X173115714Y-92641904D01*
X173115714Y-92641904D02*
X173496667Y-92641904D01*
X173496667Y-92641904D02*
X173687143Y-92737142D01*
X173687143Y-92737142D02*
X173782381Y-92927619D01*
X173782381Y-92927619D02*
X173782381Y-93118095D01*
X173782381Y-93118095D02*
X172830000Y-93308571D01*
X174639524Y-92641904D02*
X174639524Y-93975238D01*
X174639524Y-92832380D02*
X174734762Y-92737142D01*
X174734762Y-92737142D02*
X174925238Y-92641904D01*
X174925238Y-92641904D02*
X175210953Y-92641904D01*
X175210953Y-92641904D02*
X175401429Y-92737142D01*
X175401429Y-92737142D02*
X175496667Y-92927619D01*
X175496667Y-92927619D02*
X175496667Y-93975238D01*
X177687144Y-91975238D02*
X178830001Y-91975238D01*
X178258572Y-93975238D02*
X178258572Y-91975238D01*
X179496668Y-93975238D02*
X179496668Y-92641904D01*
X179496668Y-91975238D02*
X179401430Y-92070476D01*
X179401430Y-92070476D02*
X179496668Y-92165714D01*
X179496668Y-92165714D02*
X179591906Y-92070476D01*
X179591906Y-92070476D02*
X179496668Y-91975238D01*
X179496668Y-91975238D02*
X179496668Y-92165714D01*
X180449049Y-93975238D02*
X180449049Y-92641904D01*
X180449049Y-92832380D02*
X180544287Y-92737142D01*
X180544287Y-92737142D02*
X180734763Y-92641904D01*
X180734763Y-92641904D02*
X181020478Y-92641904D01*
X181020478Y-92641904D02*
X181210954Y-92737142D01*
X181210954Y-92737142D02*
X181306192Y-92927619D01*
X181306192Y-92927619D02*
X181306192Y-93975238D01*
X181306192Y-92927619D02*
X181401430Y-92737142D01*
X181401430Y-92737142D02*
X181591906Y-92641904D01*
X181591906Y-92641904D02*
X181877620Y-92641904D01*
X181877620Y-92641904D02*
X182068097Y-92737142D01*
X182068097Y-92737142D02*
X182163335Y-92927619D01*
X182163335Y-92927619D02*
X182163335Y-93975238D01*
X183877621Y-93880000D02*
X183687145Y-93975238D01*
X183687145Y-93975238D02*
X183306192Y-93975238D01*
X183306192Y-93975238D02*
X183115716Y-93880000D01*
X183115716Y-93880000D02*
X183020478Y-93689523D01*
X183020478Y-93689523D02*
X183020478Y-92927619D01*
X183020478Y-92927619D02*
X183115716Y-92737142D01*
X183115716Y-92737142D02*
X183306192Y-92641904D01*
X183306192Y-92641904D02*
X183687145Y-92641904D01*
X183687145Y-92641904D02*
X183877621Y-92737142D01*
X183877621Y-92737142D02*
X183972859Y-92927619D01*
X183972859Y-92927619D02*
X183972859Y-93118095D01*
X183972859Y-93118095D02*
X183020478Y-93308571D01*
X184830002Y-93975238D02*
X184830002Y-92641904D01*
X184830002Y-93022857D02*
X184925240Y-92832380D01*
X184925240Y-92832380D02*
X185020478Y-92737142D01*
X185020478Y-92737142D02*
X185210954Y-92641904D01*
X185210954Y-92641904D02*
X185401431Y-92641904D01*
X165020476Y-95215238D02*
X165687142Y-97215238D01*
X165687142Y-97215238D02*
X166353809Y-95215238D01*
X167782381Y-97120000D02*
X167591905Y-97215238D01*
X167591905Y-97215238D02*
X167210952Y-97215238D01*
X167210952Y-97215238D02*
X167020476Y-97120000D01*
X167020476Y-97120000D02*
X166925238Y-96929523D01*
X166925238Y-96929523D02*
X166925238Y-96167619D01*
X166925238Y-96167619D02*
X167020476Y-95977142D01*
X167020476Y-95977142D02*
X167210952Y-95881904D01*
X167210952Y-95881904D02*
X167591905Y-95881904D01*
X167591905Y-95881904D02*
X167782381Y-95977142D01*
X167782381Y-95977142D02*
X167877619Y-96167619D01*
X167877619Y-96167619D02*
X167877619Y-96358095D01*
X167877619Y-96358095D02*
X166925238Y-96548571D01*
X168734762Y-97215238D02*
X168734762Y-95881904D01*
X168734762Y-96262857D02*
X168830000Y-96072380D01*
X168830000Y-96072380D02*
X168925238Y-95977142D01*
X168925238Y-95977142D02*
X169115714Y-95881904D01*
X169115714Y-95881904D02*
X169306191Y-95881904D01*
X169877619Y-97120000D02*
X170068095Y-97215238D01*
X170068095Y-97215238D02*
X170449047Y-97215238D01*
X170449047Y-97215238D02*
X170639524Y-97120000D01*
X170639524Y-97120000D02*
X170734762Y-96929523D01*
X170734762Y-96929523D02*
X170734762Y-96834285D01*
X170734762Y-96834285D02*
X170639524Y-96643809D01*
X170639524Y-96643809D02*
X170449047Y-96548571D01*
X170449047Y-96548571D02*
X170163333Y-96548571D01*
X170163333Y-96548571D02*
X169972857Y-96453333D01*
X169972857Y-96453333D02*
X169877619Y-96262857D01*
X169877619Y-96262857D02*
X169877619Y-96167619D01*
X169877619Y-96167619D02*
X169972857Y-95977142D01*
X169972857Y-95977142D02*
X170163333Y-95881904D01*
X170163333Y-95881904D02*
X170449047Y-95881904D01*
X170449047Y-95881904D02*
X170639524Y-95977142D01*
X171591905Y-97215238D02*
X171591905Y-95881904D01*
X171591905Y-95215238D02*
X171496667Y-95310476D01*
X171496667Y-95310476D02*
X171591905Y-95405714D01*
X171591905Y-95405714D02*
X171687143Y-95310476D01*
X171687143Y-95310476D02*
X171591905Y-95215238D01*
X171591905Y-95215238D02*
X171591905Y-95405714D01*
X172830000Y-97215238D02*
X172639524Y-97120000D01*
X172639524Y-97120000D02*
X172544286Y-97024761D01*
X172544286Y-97024761D02*
X172449048Y-96834285D01*
X172449048Y-96834285D02*
X172449048Y-96262857D01*
X172449048Y-96262857D02*
X172544286Y-96072380D01*
X172544286Y-96072380D02*
X172639524Y-95977142D01*
X172639524Y-95977142D02*
X172830000Y-95881904D01*
X172830000Y-95881904D02*
X173115715Y-95881904D01*
X173115715Y-95881904D02*
X173306191Y-95977142D01*
X173306191Y-95977142D02*
X173401429Y-96072380D01*
X173401429Y-96072380D02*
X173496667Y-96262857D01*
X173496667Y-96262857D02*
X173496667Y-96834285D01*
X173496667Y-96834285D02*
X173401429Y-97024761D01*
X173401429Y-97024761D02*
X173306191Y-97120000D01*
X173306191Y-97120000D02*
X173115715Y-97215238D01*
X173115715Y-97215238D02*
X172830000Y-97215238D01*
X174353810Y-95881904D02*
X174353810Y-97215238D01*
X174353810Y-96072380D02*
X174449048Y-95977142D01*
X174449048Y-95977142D02*
X174639524Y-95881904D01*
X174639524Y-95881904D02*
X174925239Y-95881904D01*
X174925239Y-95881904D02*
X175115715Y-95977142D01*
X175115715Y-95977142D02*
X175210953Y-96167619D01*
X175210953Y-96167619D02*
X175210953Y-97215238D01*
X178734763Y-97215238D02*
X177591906Y-97215238D01*
X178163334Y-97215238D02*
X178163334Y-95215238D01*
X178163334Y-95215238D02*
X177972858Y-95500952D01*
X177972858Y-95500952D02*
X177782382Y-95691428D01*
X177782382Y-95691428D02*
X177591906Y-95786666D01*
X179591906Y-97024761D02*
X179687144Y-97120000D01*
X179687144Y-97120000D02*
X179591906Y-97215238D01*
X179591906Y-97215238D02*
X179496668Y-97120000D01*
X179496668Y-97120000D02*
X179591906Y-97024761D01*
X179591906Y-97024761D02*
X179591906Y-97215238D01*
X180925239Y-95215238D02*
X181115716Y-95215238D01*
X181115716Y-95215238D02*
X181306192Y-95310476D01*
X181306192Y-95310476D02*
X181401430Y-95405714D01*
X181401430Y-95405714D02*
X181496668Y-95596190D01*
X181496668Y-95596190D02*
X181591906Y-95977142D01*
X181591906Y-95977142D02*
X181591906Y-96453333D01*
X181591906Y-96453333D02*
X181496668Y-96834285D01*
X181496668Y-96834285D02*
X181401430Y-97024761D01*
X181401430Y-97024761D02*
X181306192Y-97120000D01*
X181306192Y-97120000D02*
X181115716Y-97215238D01*
X181115716Y-97215238D02*
X180925239Y-97215238D01*
X180925239Y-97215238D02*
X180734763Y-97120000D01*
X180734763Y-97120000D02*
X180639525Y-97024761D01*
X180639525Y-97024761D02*
X180544287Y-96834285D01*
X180544287Y-96834285D02*
X180449049Y-96453333D01*
X180449049Y-96453333D02*
X180449049Y-95977142D01*
X180449049Y-95977142D02*
X180544287Y-95596190D01*
X180544287Y-95596190D02*
X180639525Y-95405714D01*
X180639525Y-95405714D02*
X180734763Y-95310476D01*
X180734763Y-95310476D02*
X180925239Y-95215238D01*
%TO.C,U1*%
X84232619Y-73221904D02*
X85042142Y-73221904D01*
X85042142Y-73221904D02*
X85137380Y-73174285D01*
X85137380Y-73174285D02*
X85185000Y-73126666D01*
X85185000Y-73126666D02*
X85232619Y-73031428D01*
X85232619Y-73031428D02*
X85232619Y-72840952D01*
X85232619Y-72840952D02*
X85185000Y-72745714D01*
X85185000Y-72745714D02*
X85137380Y-72698095D01*
X85137380Y-72698095D02*
X85042142Y-72650476D01*
X85042142Y-72650476D02*
X84232619Y-72650476D01*
X85232619Y-71650476D02*
X85232619Y-72221904D01*
X85232619Y-71936190D02*
X84232619Y-71936190D01*
X84232619Y-71936190D02*
X84375476Y-72031428D01*
X84375476Y-72031428D02*
X84470714Y-72126666D01*
X84470714Y-72126666D02*
X84518333Y-72221904D01*
%TO.C,D2*%
X181811905Y-53322619D02*
X181811905Y-52322619D01*
X181811905Y-52322619D02*
X182050000Y-52322619D01*
X182050000Y-52322619D02*
X182192857Y-52370238D01*
X182192857Y-52370238D02*
X182288095Y-52465476D01*
X182288095Y-52465476D02*
X182335714Y-52560714D01*
X182335714Y-52560714D02*
X182383333Y-52751190D01*
X182383333Y-52751190D02*
X182383333Y-52894047D01*
X182383333Y-52894047D02*
X182335714Y-53084523D01*
X182335714Y-53084523D02*
X182288095Y-53179761D01*
X182288095Y-53179761D02*
X182192857Y-53275000D01*
X182192857Y-53275000D02*
X182050000Y-53322619D01*
X182050000Y-53322619D02*
X181811905Y-53322619D01*
X182764286Y-52417857D02*
X182811905Y-52370238D01*
X182811905Y-52370238D02*
X182907143Y-52322619D01*
X182907143Y-52322619D02*
X183145238Y-52322619D01*
X183145238Y-52322619D02*
X183240476Y-52370238D01*
X183240476Y-52370238D02*
X183288095Y-52417857D01*
X183288095Y-52417857D02*
X183335714Y-52513095D01*
X183335714Y-52513095D02*
X183335714Y-52608333D01*
X183335714Y-52608333D02*
X183288095Y-52751190D01*
X183288095Y-52751190D02*
X182716667Y-53322619D01*
X182716667Y-53322619D02*
X183335714Y-53322619D01*
%TO.C,U2*%
X161468095Y-66652619D02*
X161468095Y-67462142D01*
X161468095Y-67462142D02*
X161515714Y-67557380D01*
X161515714Y-67557380D02*
X161563333Y-67605000D01*
X161563333Y-67605000D02*
X161658571Y-67652619D01*
X161658571Y-67652619D02*
X161849047Y-67652619D01*
X161849047Y-67652619D02*
X161944285Y-67605000D01*
X161944285Y-67605000D02*
X161991904Y-67557380D01*
X161991904Y-67557380D02*
X162039523Y-67462142D01*
X162039523Y-67462142D02*
X162039523Y-66652619D01*
X162468095Y-66747857D02*
X162515714Y-66700238D01*
X162515714Y-66700238D02*
X162610952Y-66652619D01*
X162610952Y-66652619D02*
X162849047Y-66652619D01*
X162849047Y-66652619D02*
X162944285Y-66700238D01*
X162944285Y-66700238D02*
X162991904Y-66747857D01*
X162991904Y-66747857D02*
X163039523Y-66843095D01*
X163039523Y-66843095D02*
X163039523Y-66938333D01*
X163039523Y-66938333D02*
X162991904Y-67081190D01*
X162991904Y-67081190D02*
X162420476Y-67652619D01*
X162420476Y-67652619D02*
X163039523Y-67652619D01*
%TO.C,R8*%
X149523333Y-75712619D02*
X149190000Y-75236428D01*
X148951905Y-75712619D02*
X148951905Y-74712619D01*
X148951905Y-74712619D02*
X149332857Y-74712619D01*
X149332857Y-74712619D02*
X149428095Y-74760238D01*
X149428095Y-74760238D02*
X149475714Y-74807857D01*
X149475714Y-74807857D02*
X149523333Y-74903095D01*
X149523333Y-74903095D02*
X149523333Y-75045952D01*
X149523333Y-75045952D02*
X149475714Y-75141190D01*
X149475714Y-75141190D02*
X149428095Y-75188809D01*
X149428095Y-75188809D02*
X149332857Y-75236428D01*
X149332857Y-75236428D02*
X148951905Y-75236428D01*
X150094762Y-75141190D02*
X149999524Y-75093571D01*
X149999524Y-75093571D02*
X149951905Y-75045952D01*
X149951905Y-75045952D02*
X149904286Y-74950714D01*
X149904286Y-74950714D02*
X149904286Y-74903095D01*
X149904286Y-74903095D02*
X149951905Y-74807857D01*
X149951905Y-74807857D02*
X149999524Y-74760238D01*
X149999524Y-74760238D02*
X150094762Y-74712619D01*
X150094762Y-74712619D02*
X150285238Y-74712619D01*
X150285238Y-74712619D02*
X150380476Y-74760238D01*
X150380476Y-74760238D02*
X150428095Y-74807857D01*
X150428095Y-74807857D02*
X150475714Y-74903095D01*
X150475714Y-74903095D02*
X150475714Y-74950714D01*
X150475714Y-74950714D02*
X150428095Y-75045952D01*
X150428095Y-75045952D02*
X150380476Y-75093571D01*
X150380476Y-75093571D02*
X150285238Y-75141190D01*
X150285238Y-75141190D02*
X150094762Y-75141190D01*
X150094762Y-75141190D02*
X149999524Y-75188809D01*
X149999524Y-75188809D02*
X149951905Y-75236428D01*
X149951905Y-75236428D02*
X149904286Y-75331666D01*
X149904286Y-75331666D02*
X149904286Y-75522142D01*
X149904286Y-75522142D02*
X149951905Y-75617380D01*
X149951905Y-75617380D02*
X149999524Y-75665000D01*
X149999524Y-75665000D02*
X150094762Y-75712619D01*
X150094762Y-75712619D02*
X150285238Y-75712619D01*
X150285238Y-75712619D02*
X150380476Y-75665000D01*
X150380476Y-75665000D02*
X150428095Y-75617380D01*
X150428095Y-75617380D02*
X150475714Y-75522142D01*
X150475714Y-75522142D02*
X150475714Y-75331666D01*
X150475714Y-75331666D02*
X150428095Y-75236428D01*
X150428095Y-75236428D02*
X150380476Y-75188809D01*
X150380476Y-75188809D02*
X150285238Y-75141190D01*
%TO.C,R5*%
X163333333Y-62532619D02*
X163000000Y-62056428D01*
X162761905Y-62532619D02*
X162761905Y-61532619D01*
X162761905Y-61532619D02*
X163142857Y-61532619D01*
X163142857Y-61532619D02*
X163238095Y-61580238D01*
X163238095Y-61580238D02*
X163285714Y-61627857D01*
X163285714Y-61627857D02*
X163333333Y-61723095D01*
X163333333Y-61723095D02*
X163333333Y-61865952D01*
X163333333Y-61865952D02*
X163285714Y-61961190D01*
X163285714Y-61961190D02*
X163238095Y-62008809D01*
X163238095Y-62008809D02*
X163142857Y-62056428D01*
X163142857Y-62056428D02*
X162761905Y-62056428D01*
X164238095Y-61532619D02*
X163761905Y-61532619D01*
X163761905Y-61532619D02*
X163714286Y-62008809D01*
X163714286Y-62008809D02*
X163761905Y-61961190D01*
X163761905Y-61961190D02*
X163857143Y-61913571D01*
X163857143Y-61913571D02*
X164095238Y-61913571D01*
X164095238Y-61913571D02*
X164190476Y-61961190D01*
X164190476Y-61961190D02*
X164238095Y-62008809D01*
X164238095Y-62008809D02*
X164285714Y-62104047D01*
X164285714Y-62104047D02*
X164285714Y-62342142D01*
X164285714Y-62342142D02*
X164238095Y-62437380D01*
X164238095Y-62437380D02*
X164190476Y-62485000D01*
X164190476Y-62485000D02*
X164095238Y-62532619D01*
X164095238Y-62532619D02*
X163857143Y-62532619D01*
X163857143Y-62532619D02*
X163761905Y-62485000D01*
X163761905Y-62485000D02*
X163714286Y-62437380D01*
%TO.C,D1*%
X166571905Y-53322619D02*
X166571905Y-52322619D01*
X166571905Y-52322619D02*
X166810000Y-52322619D01*
X166810000Y-52322619D02*
X166952857Y-52370238D01*
X166952857Y-52370238D02*
X167048095Y-52465476D01*
X167048095Y-52465476D02*
X167095714Y-52560714D01*
X167095714Y-52560714D02*
X167143333Y-52751190D01*
X167143333Y-52751190D02*
X167143333Y-52894047D01*
X167143333Y-52894047D02*
X167095714Y-53084523D01*
X167095714Y-53084523D02*
X167048095Y-53179761D01*
X167048095Y-53179761D02*
X166952857Y-53275000D01*
X166952857Y-53275000D02*
X166810000Y-53322619D01*
X166810000Y-53322619D02*
X166571905Y-53322619D01*
X168095714Y-53322619D02*
X167524286Y-53322619D01*
X167810000Y-53322619D02*
X167810000Y-52322619D01*
X167810000Y-52322619D02*
X167714762Y-52465476D01*
X167714762Y-52465476D02*
X167619524Y-52560714D01*
X167619524Y-52560714D02*
X167524286Y-52608333D01*
%TO.C,R1*%
X112533333Y-90472619D02*
X112200000Y-89996428D01*
X111961905Y-90472619D02*
X111961905Y-89472619D01*
X111961905Y-89472619D02*
X112342857Y-89472619D01*
X112342857Y-89472619D02*
X112438095Y-89520238D01*
X112438095Y-89520238D02*
X112485714Y-89567857D01*
X112485714Y-89567857D02*
X112533333Y-89663095D01*
X112533333Y-89663095D02*
X112533333Y-89805952D01*
X112533333Y-89805952D02*
X112485714Y-89901190D01*
X112485714Y-89901190D02*
X112438095Y-89948809D01*
X112438095Y-89948809D02*
X112342857Y-89996428D01*
X112342857Y-89996428D02*
X111961905Y-89996428D01*
X113485714Y-90472619D02*
X112914286Y-90472619D01*
X113200000Y-90472619D02*
X113200000Y-89472619D01*
X113200000Y-89472619D02*
X113104762Y-89615476D01*
X113104762Y-89615476D02*
X113009524Y-89710714D01*
X113009524Y-89710714D02*
X112914286Y-89758333D01*
%TO.C,LS1*%
X148877142Y-52622619D02*
X148400952Y-52622619D01*
X148400952Y-52622619D02*
X148400952Y-51622619D01*
X149162857Y-52575000D02*
X149305714Y-52622619D01*
X149305714Y-52622619D02*
X149543809Y-52622619D01*
X149543809Y-52622619D02*
X149639047Y-52575000D01*
X149639047Y-52575000D02*
X149686666Y-52527380D01*
X149686666Y-52527380D02*
X149734285Y-52432142D01*
X149734285Y-52432142D02*
X149734285Y-52336904D01*
X149734285Y-52336904D02*
X149686666Y-52241666D01*
X149686666Y-52241666D02*
X149639047Y-52194047D01*
X149639047Y-52194047D02*
X149543809Y-52146428D01*
X149543809Y-52146428D02*
X149353333Y-52098809D01*
X149353333Y-52098809D02*
X149258095Y-52051190D01*
X149258095Y-52051190D02*
X149210476Y-52003571D01*
X149210476Y-52003571D02*
X149162857Y-51908333D01*
X149162857Y-51908333D02*
X149162857Y-51813095D01*
X149162857Y-51813095D02*
X149210476Y-51717857D01*
X149210476Y-51717857D02*
X149258095Y-51670238D01*
X149258095Y-51670238D02*
X149353333Y-51622619D01*
X149353333Y-51622619D02*
X149591428Y-51622619D01*
X149591428Y-51622619D02*
X149734285Y-51670238D01*
X150686666Y-52622619D02*
X150115238Y-52622619D01*
X150400952Y-52622619D02*
X150400952Y-51622619D01*
X150400952Y-51622619D02*
X150305714Y-51765476D01*
X150305714Y-51765476D02*
X150210476Y-51860714D01*
X150210476Y-51860714D02*
X150115238Y-51908333D01*
X145329048Y-56901666D02*
X146090953Y-56901666D01*
X145710000Y-57282619D02*
X145710000Y-56520714D01*
%TO.C,R2*%
X92213333Y-90472619D02*
X91880000Y-89996428D01*
X91641905Y-90472619D02*
X91641905Y-89472619D01*
X91641905Y-89472619D02*
X92022857Y-89472619D01*
X92022857Y-89472619D02*
X92118095Y-89520238D01*
X92118095Y-89520238D02*
X92165714Y-89567857D01*
X92165714Y-89567857D02*
X92213333Y-89663095D01*
X92213333Y-89663095D02*
X92213333Y-89805952D01*
X92213333Y-89805952D02*
X92165714Y-89901190D01*
X92165714Y-89901190D02*
X92118095Y-89948809D01*
X92118095Y-89948809D02*
X92022857Y-89996428D01*
X92022857Y-89996428D02*
X91641905Y-89996428D01*
X92594286Y-89567857D02*
X92641905Y-89520238D01*
X92641905Y-89520238D02*
X92737143Y-89472619D01*
X92737143Y-89472619D02*
X92975238Y-89472619D01*
X92975238Y-89472619D02*
X93070476Y-89520238D01*
X93070476Y-89520238D02*
X93118095Y-89567857D01*
X93118095Y-89567857D02*
X93165714Y-89663095D01*
X93165714Y-89663095D02*
X93165714Y-89758333D01*
X93165714Y-89758333D02*
X93118095Y-89901190D01*
X93118095Y-89901190D02*
X92546667Y-90472619D01*
X92546667Y-90472619D02*
X93165714Y-90472619D01*
%TO.C,SW1*%
X112566667Y-75435000D02*
X112709524Y-75482619D01*
X112709524Y-75482619D02*
X112947619Y-75482619D01*
X112947619Y-75482619D02*
X113042857Y-75435000D01*
X113042857Y-75435000D02*
X113090476Y-75387380D01*
X113090476Y-75387380D02*
X113138095Y-75292142D01*
X113138095Y-75292142D02*
X113138095Y-75196904D01*
X113138095Y-75196904D02*
X113090476Y-75101666D01*
X113090476Y-75101666D02*
X113042857Y-75054047D01*
X113042857Y-75054047D02*
X112947619Y-75006428D01*
X112947619Y-75006428D02*
X112757143Y-74958809D01*
X112757143Y-74958809D02*
X112661905Y-74911190D01*
X112661905Y-74911190D02*
X112614286Y-74863571D01*
X112614286Y-74863571D02*
X112566667Y-74768333D01*
X112566667Y-74768333D02*
X112566667Y-74673095D01*
X112566667Y-74673095D02*
X112614286Y-74577857D01*
X112614286Y-74577857D02*
X112661905Y-74530238D01*
X112661905Y-74530238D02*
X112757143Y-74482619D01*
X112757143Y-74482619D02*
X112995238Y-74482619D01*
X112995238Y-74482619D02*
X113138095Y-74530238D01*
X113471429Y-74482619D02*
X113709524Y-75482619D01*
X113709524Y-75482619D02*
X113900000Y-74768333D01*
X113900000Y-74768333D02*
X114090476Y-75482619D01*
X114090476Y-75482619D02*
X114328572Y-74482619D01*
X115233333Y-75482619D02*
X114661905Y-75482619D01*
X114947619Y-75482619D02*
X114947619Y-74482619D01*
X114947619Y-74482619D02*
X114852381Y-74625476D01*
X114852381Y-74625476D02*
X114757143Y-74720714D01*
X114757143Y-74720714D02*
X114661905Y-74768333D01*
%TO.C,SW2*%
X92246667Y-75435000D02*
X92389524Y-75482619D01*
X92389524Y-75482619D02*
X92627619Y-75482619D01*
X92627619Y-75482619D02*
X92722857Y-75435000D01*
X92722857Y-75435000D02*
X92770476Y-75387380D01*
X92770476Y-75387380D02*
X92818095Y-75292142D01*
X92818095Y-75292142D02*
X92818095Y-75196904D01*
X92818095Y-75196904D02*
X92770476Y-75101666D01*
X92770476Y-75101666D02*
X92722857Y-75054047D01*
X92722857Y-75054047D02*
X92627619Y-75006428D01*
X92627619Y-75006428D02*
X92437143Y-74958809D01*
X92437143Y-74958809D02*
X92341905Y-74911190D01*
X92341905Y-74911190D02*
X92294286Y-74863571D01*
X92294286Y-74863571D02*
X92246667Y-74768333D01*
X92246667Y-74768333D02*
X92246667Y-74673095D01*
X92246667Y-74673095D02*
X92294286Y-74577857D01*
X92294286Y-74577857D02*
X92341905Y-74530238D01*
X92341905Y-74530238D02*
X92437143Y-74482619D01*
X92437143Y-74482619D02*
X92675238Y-74482619D01*
X92675238Y-74482619D02*
X92818095Y-74530238D01*
X93151429Y-74482619D02*
X93389524Y-75482619D01*
X93389524Y-75482619D02*
X93580000Y-74768333D01*
X93580000Y-74768333D02*
X93770476Y-75482619D01*
X93770476Y-75482619D02*
X94008572Y-74482619D01*
X94341905Y-74577857D02*
X94389524Y-74530238D01*
X94389524Y-74530238D02*
X94484762Y-74482619D01*
X94484762Y-74482619D02*
X94722857Y-74482619D01*
X94722857Y-74482619D02*
X94818095Y-74530238D01*
X94818095Y-74530238D02*
X94865714Y-74577857D01*
X94865714Y-74577857D02*
X94913333Y-74673095D01*
X94913333Y-74673095D02*
X94913333Y-74768333D01*
X94913333Y-74768333D02*
X94865714Y-74911190D01*
X94865714Y-74911190D02*
X94294286Y-75482619D01*
X94294286Y-75482619D02*
X94913333Y-75482619D01*
%TO.C,R12*%
X149047142Y-91912619D02*
X148713809Y-91436428D01*
X148475714Y-91912619D02*
X148475714Y-90912619D01*
X148475714Y-90912619D02*
X148856666Y-90912619D01*
X148856666Y-90912619D02*
X148951904Y-90960238D01*
X148951904Y-90960238D02*
X148999523Y-91007857D01*
X148999523Y-91007857D02*
X149047142Y-91103095D01*
X149047142Y-91103095D02*
X149047142Y-91245952D01*
X149047142Y-91245952D02*
X148999523Y-91341190D01*
X148999523Y-91341190D02*
X148951904Y-91388809D01*
X148951904Y-91388809D02*
X148856666Y-91436428D01*
X148856666Y-91436428D02*
X148475714Y-91436428D01*
X149999523Y-91912619D02*
X149428095Y-91912619D01*
X149713809Y-91912619D02*
X149713809Y-90912619D01*
X149713809Y-90912619D02*
X149618571Y-91055476D01*
X149618571Y-91055476D02*
X149523333Y-91150714D01*
X149523333Y-91150714D02*
X149428095Y-91198333D01*
X150380476Y-91007857D02*
X150428095Y-90960238D01*
X150428095Y-90960238D02*
X150523333Y-90912619D01*
X150523333Y-90912619D02*
X150761428Y-90912619D01*
X150761428Y-90912619D02*
X150856666Y-90960238D01*
X150856666Y-90960238D02*
X150904285Y-91007857D01*
X150904285Y-91007857D02*
X150951904Y-91103095D01*
X150951904Y-91103095D02*
X150951904Y-91198333D01*
X150951904Y-91198333D02*
X150904285Y-91341190D01*
X150904285Y-91341190D02*
X150332857Y-91912619D01*
X150332857Y-91912619D02*
X150951904Y-91912619D01*
%TO.C,R10*%
X149047142Y-83812619D02*
X148713809Y-83336428D01*
X148475714Y-83812619D02*
X148475714Y-82812619D01*
X148475714Y-82812619D02*
X148856666Y-82812619D01*
X148856666Y-82812619D02*
X148951904Y-82860238D01*
X148951904Y-82860238D02*
X148999523Y-82907857D01*
X148999523Y-82907857D02*
X149047142Y-83003095D01*
X149047142Y-83003095D02*
X149047142Y-83145952D01*
X149047142Y-83145952D02*
X148999523Y-83241190D01*
X148999523Y-83241190D02*
X148951904Y-83288809D01*
X148951904Y-83288809D02*
X148856666Y-83336428D01*
X148856666Y-83336428D02*
X148475714Y-83336428D01*
X149999523Y-83812619D02*
X149428095Y-83812619D01*
X149713809Y-83812619D02*
X149713809Y-82812619D01*
X149713809Y-82812619D02*
X149618571Y-82955476D01*
X149618571Y-82955476D02*
X149523333Y-83050714D01*
X149523333Y-83050714D02*
X149428095Y-83098333D01*
X150618571Y-82812619D02*
X150713809Y-82812619D01*
X150713809Y-82812619D02*
X150809047Y-82860238D01*
X150809047Y-82860238D02*
X150856666Y-82907857D01*
X150856666Y-82907857D02*
X150904285Y-83003095D01*
X150904285Y-83003095D02*
X150951904Y-83193571D01*
X150951904Y-83193571D02*
X150951904Y-83431666D01*
X150951904Y-83431666D02*
X150904285Y-83622142D01*
X150904285Y-83622142D02*
X150856666Y-83717380D01*
X150856666Y-83717380D02*
X150809047Y-83765000D01*
X150809047Y-83765000D02*
X150713809Y-83812619D01*
X150713809Y-83812619D02*
X150618571Y-83812619D01*
X150618571Y-83812619D02*
X150523333Y-83765000D01*
X150523333Y-83765000D02*
X150475714Y-83717380D01*
X150475714Y-83717380D02*
X150428095Y-83622142D01*
X150428095Y-83622142D02*
X150380476Y-83431666D01*
X150380476Y-83431666D02*
X150380476Y-83193571D01*
X150380476Y-83193571D02*
X150428095Y-83003095D01*
X150428095Y-83003095D02*
X150475714Y-82907857D01*
X150475714Y-82907857D02*
X150523333Y-82860238D01*
X150523333Y-82860238D02*
X150618571Y-82812619D01*
%TO.C,R9*%
X149523333Y-79762619D02*
X149190000Y-79286428D01*
X148951905Y-79762619D02*
X148951905Y-78762619D01*
X148951905Y-78762619D02*
X149332857Y-78762619D01*
X149332857Y-78762619D02*
X149428095Y-78810238D01*
X149428095Y-78810238D02*
X149475714Y-78857857D01*
X149475714Y-78857857D02*
X149523333Y-78953095D01*
X149523333Y-78953095D02*
X149523333Y-79095952D01*
X149523333Y-79095952D02*
X149475714Y-79191190D01*
X149475714Y-79191190D02*
X149428095Y-79238809D01*
X149428095Y-79238809D02*
X149332857Y-79286428D01*
X149332857Y-79286428D02*
X148951905Y-79286428D01*
X149999524Y-79762619D02*
X150190000Y-79762619D01*
X150190000Y-79762619D02*
X150285238Y-79715000D01*
X150285238Y-79715000D02*
X150332857Y-79667380D01*
X150332857Y-79667380D02*
X150428095Y-79524523D01*
X150428095Y-79524523D02*
X150475714Y-79334047D01*
X150475714Y-79334047D02*
X150475714Y-78953095D01*
X150475714Y-78953095D02*
X150428095Y-78857857D01*
X150428095Y-78857857D02*
X150380476Y-78810238D01*
X150380476Y-78810238D02*
X150285238Y-78762619D01*
X150285238Y-78762619D02*
X150094762Y-78762619D01*
X150094762Y-78762619D02*
X149999524Y-78810238D01*
X149999524Y-78810238D02*
X149951905Y-78857857D01*
X149951905Y-78857857D02*
X149904286Y-78953095D01*
X149904286Y-78953095D02*
X149904286Y-79191190D01*
X149904286Y-79191190D02*
X149951905Y-79286428D01*
X149951905Y-79286428D02*
X149999524Y-79334047D01*
X149999524Y-79334047D02*
X150094762Y-79381666D01*
X150094762Y-79381666D02*
X150285238Y-79381666D01*
X150285238Y-79381666D02*
X150380476Y-79334047D01*
X150380476Y-79334047D02*
X150428095Y-79286428D01*
X150428095Y-79286428D02*
X150475714Y-79191190D01*
%TO.C,R6*%
X149523333Y-67612619D02*
X149190000Y-67136428D01*
X148951905Y-67612619D02*
X148951905Y-66612619D01*
X148951905Y-66612619D02*
X149332857Y-66612619D01*
X149332857Y-66612619D02*
X149428095Y-66660238D01*
X149428095Y-66660238D02*
X149475714Y-66707857D01*
X149475714Y-66707857D02*
X149523333Y-66803095D01*
X149523333Y-66803095D02*
X149523333Y-66945952D01*
X149523333Y-66945952D02*
X149475714Y-67041190D01*
X149475714Y-67041190D02*
X149428095Y-67088809D01*
X149428095Y-67088809D02*
X149332857Y-67136428D01*
X149332857Y-67136428D02*
X148951905Y-67136428D01*
X150380476Y-66612619D02*
X150190000Y-66612619D01*
X150190000Y-66612619D02*
X150094762Y-66660238D01*
X150094762Y-66660238D02*
X150047143Y-66707857D01*
X150047143Y-66707857D02*
X149951905Y-66850714D01*
X149951905Y-66850714D02*
X149904286Y-67041190D01*
X149904286Y-67041190D02*
X149904286Y-67422142D01*
X149904286Y-67422142D02*
X149951905Y-67517380D01*
X149951905Y-67517380D02*
X149999524Y-67565000D01*
X149999524Y-67565000D02*
X150094762Y-67612619D01*
X150094762Y-67612619D02*
X150285238Y-67612619D01*
X150285238Y-67612619D02*
X150380476Y-67565000D01*
X150380476Y-67565000D02*
X150428095Y-67517380D01*
X150428095Y-67517380D02*
X150475714Y-67422142D01*
X150475714Y-67422142D02*
X150475714Y-67184047D01*
X150475714Y-67184047D02*
X150428095Y-67088809D01*
X150428095Y-67088809D02*
X150380476Y-67041190D01*
X150380476Y-67041190D02*
X150285238Y-66993571D01*
X150285238Y-66993571D02*
X150094762Y-66993571D01*
X150094762Y-66993571D02*
X149999524Y-67041190D01*
X149999524Y-67041190D02*
X149951905Y-67088809D01*
X149951905Y-67088809D02*
X149904286Y-67184047D01*
%TO.C,R3*%
X171752619Y-56986666D02*
X171276428Y-57319999D01*
X171752619Y-57558094D02*
X170752619Y-57558094D01*
X170752619Y-57558094D02*
X170752619Y-57177142D01*
X170752619Y-57177142D02*
X170800238Y-57081904D01*
X170800238Y-57081904D02*
X170847857Y-57034285D01*
X170847857Y-57034285D02*
X170943095Y-56986666D01*
X170943095Y-56986666D02*
X171085952Y-56986666D01*
X171085952Y-56986666D02*
X171181190Y-57034285D01*
X171181190Y-57034285D02*
X171228809Y-57081904D01*
X171228809Y-57081904D02*
X171276428Y-57177142D01*
X171276428Y-57177142D02*
X171276428Y-57558094D01*
X170752619Y-56653332D02*
X170752619Y-56034285D01*
X170752619Y-56034285D02*
X171133571Y-56367618D01*
X171133571Y-56367618D02*
X171133571Y-56224761D01*
X171133571Y-56224761D02*
X171181190Y-56129523D01*
X171181190Y-56129523D02*
X171228809Y-56081904D01*
X171228809Y-56081904D02*
X171324047Y-56034285D01*
X171324047Y-56034285D02*
X171562142Y-56034285D01*
X171562142Y-56034285D02*
X171657380Y-56081904D01*
X171657380Y-56081904D02*
X171705000Y-56129523D01*
X171705000Y-56129523D02*
X171752619Y-56224761D01*
X171752619Y-56224761D02*
X171752619Y-56510475D01*
X171752619Y-56510475D02*
X171705000Y-56605713D01*
X171705000Y-56605713D02*
X171657380Y-56653332D01*
%TO.C,R7*%
X149523333Y-71662619D02*
X149190000Y-71186428D01*
X148951905Y-71662619D02*
X148951905Y-70662619D01*
X148951905Y-70662619D02*
X149332857Y-70662619D01*
X149332857Y-70662619D02*
X149428095Y-70710238D01*
X149428095Y-70710238D02*
X149475714Y-70757857D01*
X149475714Y-70757857D02*
X149523333Y-70853095D01*
X149523333Y-70853095D02*
X149523333Y-70995952D01*
X149523333Y-70995952D02*
X149475714Y-71091190D01*
X149475714Y-71091190D02*
X149428095Y-71138809D01*
X149428095Y-71138809D02*
X149332857Y-71186428D01*
X149332857Y-71186428D02*
X148951905Y-71186428D01*
X149856667Y-70662619D02*
X150523333Y-70662619D01*
X150523333Y-70662619D02*
X150094762Y-71662619D01*
%TO.C,R11*%
X149047142Y-87862619D02*
X148713809Y-87386428D01*
X148475714Y-87862619D02*
X148475714Y-86862619D01*
X148475714Y-86862619D02*
X148856666Y-86862619D01*
X148856666Y-86862619D02*
X148951904Y-86910238D01*
X148951904Y-86910238D02*
X148999523Y-86957857D01*
X148999523Y-86957857D02*
X149047142Y-87053095D01*
X149047142Y-87053095D02*
X149047142Y-87195952D01*
X149047142Y-87195952D02*
X148999523Y-87291190D01*
X148999523Y-87291190D02*
X148951904Y-87338809D01*
X148951904Y-87338809D02*
X148856666Y-87386428D01*
X148856666Y-87386428D02*
X148475714Y-87386428D01*
X149999523Y-87862619D02*
X149428095Y-87862619D01*
X149713809Y-87862619D02*
X149713809Y-86862619D01*
X149713809Y-86862619D02*
X149618571Y-87005476D01*
X149618571Y-87005476D02*
X149523333Y-87100714D01*
X149523333Y-87100714D02*
X149428095Y-87148333D01*
X150951904Y-87862619D02*
X150380476Y-87862619D01*
X150666190Y-87862619D02*
X150666190Y-86862619D01*
X150666190Y-86862619D02*
X150570952Y-87005476D01*
X150570952Y-87005476D02*
X150475714Y-87100714D01*
X150475714Y-87100714D02*
X150380476Y-87148333D01*
%TO.C,R4*%
X175292619Y-56986666D02*
X174816428Y-57319999D01*
X175292619Y-57558094D02*
X174292619Y-57558094D01*
X174292619Y-57558094D02*
X174292619Y-57177142D01*
X174292619Y-57177142D02*
X174340238Y-57081904D01*
X174340238Y-57081904D02*
X174387857Y-57034285D01*
X174387857Y-57034285D02*
X174483095Y-56986666D01*
X174483095Y-56986666D02*
X174625952Y-56986666D01*
X174625952Y-56986666D02*
X174721190Y-57034285D01*
X174721190Y-57034285D02*
X174768809Y-57081904D01*
X174768809Y-57081904D02*
X174816428Y-57177142D01*
X174816428Y-57177142D02*
X174816428Y-57558094D01*
X174625952Y-56129523D02*
X175292619Y-56129523D01*
X174245000Y-56367618D02*
X174959285Y-56605713D01*
X174959285Y-56605713D02*
X174959285Y-55986666D01*
D11*
%TO.C,U1*%
X136700000Y-54820000D02*
X86160000Y-54820000D01*
X136700000Y-74060000D02*
X136700000Y-54820000D01*
X86160000Y-74060000D02*
X86160000Y-54820000D01*
X86160000Y-74060000D02*
X136700000Y-74060000D01*
X104080000Y-74440000D02*
X106080000Y-74440000D01*
%TO.C,J1*%
X129210000Y-98790000D02*
X147050000Y-98790000D01*
X129210000Y-98790000D02*
X129210000Y-96130000D01*
X147050000Y-98790000D02*
X147050000Y-96130000D01*
X126610000Y-97460000D02*
X126610000Y-96130000D01*
X126610000Y-96130000D02*
X127940000Y-96130000D01*
X129210000Y-96130000D02*
X147050000Y-96130000D01*
%TO.C,J3*%
X152070000Y-98790000D02*
X164830000Y-98790000D01*
X152070000Y-98790000D02*
X152070000Y-96130000D01*
X164830000Y-98790000D02*
X164830000Y-96130000D01*
X149470000Y-97460000D02*
X149470000Y-96130000D01*
X149470000Y-96130000D02*
X150800000Y-96130000D01*
X152070000Y-96130000D02*
X164830000Y-96130000D01*
%TO.C,J2*%
X120066000Y-47870000D02*
X142986000Y-47870000D01*
X117466000Y-47870000D02*
X118796000Y-47870000D01*
X117466000Y-49200000D02*
X117466000Y-47870000D01*
X142986000Y-50530000D02*
X142986000Y-47870000D01*
X120066000Y-50530000D02*
X120066000Y-47870000D01*
X120066000Y-50530000D02*
X142986000Y-50530000D01*
%TO.C,J4*%
X146990000Y-50530000D02*
X164830000Y-50530000D01*
X146990000Y-50530000D02*
X146990000Y-47870000D01*
X164830000Y-50530000D02*
X164830000Y-47870000D01*
X144390000Y-49200000D02*
X144390000Y-47870000D01*
X144390000Y-47870000D02*
X145720000Y-47870000D01*
X146990000Y-47870000D02*
X164830000Y-47870000D01*
%TO.C,D2*%
X179990000Y-55275000D02*
X179990000Y-58365000D01*
X185539999Y-56820462D02*
G75*
G03*
X179990001Y-55275170I-2989999J462D01*
G01*
X179990000Y-58364830D02*
G75*
G03*
X185540000Y-56819538I2560000J1544830D01*
G01*
X185050000Y-56820000D02*
G75*
G03*
X185050000Y-56820000I-2500000J0D01*
G01*
%TO.C,U2*%
X156980000Y-68130000D02*
X156980000Y-88690000D01*
X156980000Y-88690000D02*
X167480000Y-88690000D01*
X159980000Y-68190000D02*
X159980000Y-88630000D01*
X159980000Y-88630000D02*
X164480000Y-88630000D01*
X161230000Y-68190000D02*
X159980000Y-68190000D01*
X164480000Y-68190000D02*
X163230000Y-68190000D01*
X164480000Y-88630000D02*
X164480000Y-68190000D01*
X167480000Y-68130000D02*
X156980000Y-68130000D01*
X167480000Y-88690000D02*
X167480000Y-68130000D01*
X161230000Y-68190000D02*
G75*
G03*
X163230000Y-68190000I1000000J0D01*
G01*
%TO.C,R8*%
X145650000Y-77620000D02*
X146420000Y-77620000D01*
X146420000Y-76250000D02*
X146420000Y-78990000D01*
X146420000Y-78990000D02*
X152960000Y-78990000D01*
X152960000Y-76250000D02*
X146420000Y-76250000D01*
X152960000Y-78990000D02*
X152960000Y-76250000D01*
X153730000Y-77620000D02*
X152960000Y-77620000D01*
%TO.C,R5*%
X159460000Y-64440000D02*
X160230000Y-64440000D01*
X160230000Y-63070000D02*
X160230000Y-65810000D01*
X160230000Y-65810000D02*
X166770000Y-65810000D01*
X166770000Y-63070000D02*
X160230000Y-63070000D01*
X166770000Y-65810000D02*
X166770000Y-63070000D01*
X167540000Y-64440000D02*
X166770000Y-64440000D01*
%TO.C,D1*%
X164750000Y-55275000D02*
X164750000Y-58365000D01*
X170299999Y-56820462D02*
G75*
G03*
X164750001Y-55275170I-2989999J462D01*
G01*
X164750000Y-58364830D02*
G75*
G03*
X170300000Y-56819538I2560000J1544830D01*
G01*
X169810000Y-56820000D02*
G75*
G03*
X169810000Y-56820000I-2500000J0D01*
G01*
%TO.C,R1*%
X108660000Y-92380000D02*
X109430000Y-92380000D01*
X109430000Y-91010000D02*
X109430000Y-93750000D01*
X109430000Y-93750000D02*
X115970000Y-93750000D01*
X115970000Y-91010000D02*
X109430000Y-91010000D01*
X115970000Y-93750000D02*
X115970000Y-91010000D01*
X116740000Y-92380000D02*
X115970000Y-92380000D01*
%TO.C,LS1*%
X155620000Y-59360000D02*
G75*
G03*
X155620000Y-59360000I-6100000J0D01*
G01*
%TO.C,R2*%
X96420000Y-92380000D02*
X95650000Y-92380000D01*
X95650000Y-93750000D02*
X95650000Y-91010000D01*
X95650000Y-91010000D02*
X89110000Y-91010000D01*
X89110000Y-93750000D02*
X95650000Y-93750000D01*
X89110000Y-91010000D02*
X89110000Y-93750000D01*
X88340000Y-92380000D02*
X89110000Y-92380000D01*
%TO.C,SW1*%
X107920000Y-76030000D02*
X120220000Y-76030000D01*
X107920000Y-78750000D02*
X107920000Y-76030000D01*
X107920000Y-83750000D02*
X107920000Y-80610000D01*
X107920000Y-88330000D02*
X107920000Y-85610000D01*
X120220000Y-76030000D02*
X120220000Y-78750000D01*
X120220000Y-80610000D02*
X120220000Y-83750000D01*
X120220000Y-85610000D02*
X120220000Y-88330000D01*
X120220000Y-88330000D02*
X107920000Y-88330000D01*
X118749050Y-82220000D02*
G75*
G03*
X118749050Y-82220000I-4579050J0D01*
G01*
%TO.C,SW2*%
X87600000Y-76030000D02*
X99900000Y-76030000D01*
X87600000Y-78750000D02*
X87600000Y-76030000D01*
X87600000Y-83750000D02*
X87600000Y-80610000D01*
X87600000Y-88330000D02*
X87600000Y-85610000D01*
X99900000Y-76030000D02*
X99900000Y-78750000D01*
X99900000Y-80610000D02*
X99900000Y-83750000D01*
X99900000Y-85610000D02*
X99900000Y-88330000D01*
X99900000Y-88330000D02*
X87600000Y-88330000D01*
X98429050Y-82220000D02*
G75*
G03*
X98429050Y-82220000I-4579050J0D01*
G01*
%TO.C,R12*%
X145650000Y-93820000D02*
X146420000Y-93820000D01*
X146420000Y-92450000D02*
X146420000Y-95190000D01*
X146420000Y-95190000D02*
X152960000Y-95190000D01*
X152960000Y-92450000D02*
X146420000Y-92450000D01*
X152960000Y-95190000D02*
X152960000Y-92450000D01*
X153730000Y-93820000D02*
X152960000Y-93820000D01*
%TO.C,R10*%
X145650000Y-85720000D02*
X146420000Y-85720000D01*
X146420000Y-84350000D02*
X146420000Y-87090000D01*
X146420000Y-87090000D02*
X152960000Y-87090000D01*
X152960000Y-84350000D02*
X146420000Y-84350000D01*
X152960000Y-87090000D02*
X152960000Y-84350000D01*
X153730000Y-85720000D02*
X152960000Y-85720000D01*
%TO.C,R9*%
X145650000Y-81670000D02*
X146420000Y-81670000D01*
X146420000Y-80300000D02*
X146420000Y-83040000D01*
X146420000Y-83040000D02*
X152960000Y-83040000D01*
X152960000Y-80300000D02*
X146420000Y-80300000D01*
X152960000Y-83040000D02*
X152960000Y-80300000D01*
X153730000Y-81670000D02*
X152960000Y-81670000D01*
%TO.C,R6*%
X145650000Y-69520000D02*
X146420000Y-69520000D01*
X146420000Y-68150000D02*
X146420000Y-70890000D01*
X146420000Y-70890000D02*
X152960000Y-70890000D01*
X152960000Y-68150000D02*
X146420000Y-68150000D01*
X152960000Y-70890000D02*
X152960000Y-68150000D01*
X153730000Y-69520000D02*
X152960000Y-69520000D01*
%TO.C,R3*%
X173660000Y-60860000D02*
X173660000Y-60090000D01*
X172290000Y-60090000D02*
X175030000Y-60090000D01*
X175030000Y-60090000D02*
X175030000Y-53550000D01*
X172290000Y-53550000D02*
X172290000Y-60090000D01*
X175030000Y-53550000D02*
X172290000Y-53550000D01*
X173660000Y-52780000D02*
X173660000Y-53550000D01*
%TO.C,R7*%
X145650000Y-73570000D02*
X146420000Y-73570000D01*
X146420000Y-72200000D02*
X146420000Y-74940000D01*
X146420000Y-74940000D02*
X152960000Y-74940000D01*
X152960000Y-72200000D02*
X146420000Y-72200000D01*
X152960000Y-74940000D02*
X152960000Y-72200000D01*
X153730000Y-73570000D02*
X152960000Y-73570000D01*
%TO.C,R11*%
X145650000Y-89770000D02*
X146420000Y-89770000D01*
X146420000Y-88400000D02*
X146420000Y-91140000D01*
X146420000Y-91140000D02*
X152960000Y-91140000D01*
X152960000Y-88400000D02*
X146420000Y-88400000D01*
X152960000Y-91140000D02*
X152960000Y-88400000D01*
X153730000Y-89770000D02*
X152960000Y-89770000D01*
%TO.C,R4*%
X176200000Y-60860000D02*
X176200000Y-60090000D01*
X174830000Y-60090000D02*
X177570000Y-60090000D01*
X177570000Y-60090000D02*
X177570000Y-53550000D01*
X174830000Y-53550000D02*
X174830000Y-60090000D01*
X177570000Y-53550000D02*
X174830000Y-53550000D01*
X176200000Y-52780000D02*
X176200000Y-53550000D01*
%TD*%
M02*
