M48
; DRILL file {KiCad 7.0.1-0} date 2023 April 20, Thursday 13:11:38
; FORMAT={-:-/ absolute / inch / decimal}
; #@! TF.CreationDate,2023-04-20T13:11:38-06:00
; #@! TF.GenerationSoftware,Kicad,Pcbnew,7.0.1-0
; #@! TF.FileFunction,Plated,1,2,PTH
FMAT,2
INCH
; #@! TA.AperFunction,Plated,PTH,ViaDrill
T1C0.0157
; #@! TA.AperFunction,Plated,PTH,ComponentDrill
T2C0.0394
%
G90
G05
T1
X5.2106Y-3.0039
X5.2632Y-3.0526
X5.3248Y-2.6024
X5.3622Y-3.1492
X5.5354Y-3.0768
X5.6043Y-3.2421
X5.6558Y-3.2916
X5.6575Y-2.935
X5.6993Y-2.502
X5.813Y-3.7441
X5.8701Y-2.8957
X5.876Y-2.9764
X5.9075Y-2.1693
X5.998Y-2.5197
X5.998Y-2.6043
X6.0963Y-2.9273
X6.1337Y-2.9647
X6.1448Y-2.8808
X6.1783Y-2.9083
X6.2402Y-3.2835
X6.311Y-2.4193
X6.3248Y-2.498
X6.3287Y-2.6358
X6.3287Y-2.7008
X6.3335Y-2.3158
X6.3976Y-2.8228
X6.3976Y-3.1142
X6.4241Y-2.2253
X6.4251Y-2.5246
X6.4252Y-2.6821
X6.4252Y-2.9083
X6.4252Y-2.9755
X6.4528Y-2.8228
X6.4528Y-3.1142
X6.4686Y-2.2757
X6.4846Y-2.3724
X6.5177Y-3.2815
X6.5302Y-2.4219
X6.5492Y-2.6083
X6.5519Y-2.5237
X6.555Y-2.9083
X6.5571Y-2.4685
X6.5586Y-2.5694
X6.5669Y-2.2402
X6.5797Y-1.5384
X6.5827Y-2.9755
X6.5878Y-2.171
X6.5943Y-2.9083
X6.5965Y-2.4685
X6.6168Y-1.4974
X6.6319Y-3.0374
X6.6398Y-2.2382
X6.6614Y-2.8091
X6.6772Y-3.1831
X6.6811Y-2.2382
X6.6969Y-3.0256
X6.7521Y-3.0295
X6.8169Y-3.2972
X6.8209Y-2.5237
X6.8228Y-2.3602
X6.8228Y-2.6752
X6.8228Y-2.7304
X6.8504Y-2.4646
X6.8543Y-2.7953
X6.8839Y-2.2323
X6.8937Y-2.5079
X6.8937Y-2.7537
X6.8957Y-2.7972
X6.9039Y-2.9133
X6.9318Y-2.9411
X6.9389Y-1.8977
X6.939Y-3.2205
X6.9665Y-3.626
X6.9783Y-2.9705
X7.0174Y-1.898
X7.0492Y-2.2087
X7.0492Y-2.248
X7.0745Y-2.5709
X7.0768Y-2.2902
X7.1142Y-2.385
X7.122Y-2.7618
X7.187Y-2.2753
X7.1929Y-2.5709
X7.1949Y-2.5157
X7.2146Y-2.2067
X7.2146Y-2.2461
X7.2244Y-2.2874
X7.2244Y-2.3574
X7.2323Y-2.8348
X7.2343Y-2.7056
X7.2618Y-2.5197
X7.2637Y-2.2884
X7.2638Y-2.3574
X7.269Y-2.4017
X7.3035Y-2.2877
X7.3366Y-1.9193
X7.4187Y-1.9218
X7.4409Y-2.5236
X7.531Y-2.1122
X7.5588Y-2.14
X7.561Y-2.3602
X7.6039Y-2.1048
X7.6084Y-1.925
X7.6201Y-2.1407
X7.6583Y-1.8968
X7.6929Y-2.2727
X7.7618Y-3.5649
X7.7638Y-3.6201
X7.7669Y-2.0835
X7.8346Y-2.2185
X7.8404Y-2.0789
X7.8682Y-2.1067
X7.9154Y-3.626
X7.9567Y-2.1161
X8.0708Y-2.1757
X8.126Y-2.1752
X8.1811Y-2.8012
T2
X5.185Y-3.1559
X5.185Y-3.2559
X5.185Y-3.3559
X5.185Y-3.4559
X5.285Y-3.1559
X5.285Y-3.2559
X5.285Y-3.3559
X5.285Y-3.4559
X5.5421Y-3.6358
X5.5421Y-3.7358
X5.6421Y-3.6358
X5.6421Y-3.7358
X5.7421Y-3.6358
X5.7421Y-3.7358
X6.4331Y-1.3528
X6.4331Y-1.9528
X6.5331Y-1.3528
X6.5331Y-1.9528
X6.6331Y-1.3528
X6.6331Y-1.9528
X6.7331Y-1.3528
X6.7331Y-1.9528
X6.8331Y-1.3528
X6.8331Y-1.9528
X6.9331Y-1.3528
X6.9331Y-1.9528
X7.7933Y-2.7992
X8.0925Y-2.7992
T0
M30
