%TF.GenerationSoftware,KiCad,Pcbnew,7.0.1-0*%
%TF.CreationDate,2023-04-20T13:11:41-06:00*%
%TF.ProjectId,Phase_B_ATMEGA_v3,50686173-655f-4425-9f41-544d4547415f,rev?*%
%TF.SameCoordinates,Original*%
%TF.FileFunction,Copper,L1,Top*%
%TF.FilePolarity,Positive*%
%FSLAX46Y46*%
G04 Gerber Fmt 4.6, Leading zero omitted, Abs format (unit mm)*
G04 Created by KiCad (PCBNEW 7.0.1-0) date 2023-04-20 13:11:41*
%MOMM*%
%LPD*%
G01*
G04 APERTURE LIST*
G04 Aperture macros list*
%AMRoundRect*
0 Rectangle with rounded corners*
0 $1 Rounding radius*
0 $2 $3 $4 $5 $6 $7 $8 $9 X,Y pos of 4 corners*
0 Add a 4 corners polygon primitive as box body*
4,1,4,$2,$3,$4,$5,$6,$7,$8,$9,$2,$3,0*
0 Add four circle primitives for the rounded corners*
1,1,$1+$1,$2,$3*
1,1,$1+$1,$4,$5*
1,1,$1+$1,$6,$7*
1,1,$1+$1,$8,$9*
0 Add four rect primitives between the rounded corners*
20,1,$1+$1,$2,$3,$4,$5,0*
20,1,$1+$1,$4,$5,$6,$7,0*
20,1,$1+$1,$6,$7,$8,$9,0*
20,1,$1+$1,$8,$9,$2,$3,0*%
G04 Aperture macros list end*
%TA.AperFunction,SMDPad,CuDef*%
%ADD10RoundRect,0.225000X-0.225000X-0.250000X0.225000X-0.250000X0.225000X0.250000X-0.225000X0.250000X0*%
%TD*%
%TA.AperFunction,SMDPad,CuDef*%
%ADD11RoundRect,0.225000X0.250000X-0.225000X0.250000X0.225000X-0.250000X0.225000X-0.250000X-0.225000X0*%
%TD*%
%TA.AperFunction,SMDPad,CuDef*%
%ADD12RoundRect,0.250000X-0.312500X-1.450000X0.312500X-1.450000X0.312500X1.450000X-0.312500X1.450000X0*%
%TD*%
%TA.AperFunction,SMDPad,CuDef*%
%ADD13RoundRect,0.250000X0.450000X-0.262500X0.450000X0.262500X-0.450000X0.262500X-0.450000X-0.262500X0*%
%TD*%
%TA.AperFunction,SMDPad,CuDef*%
%ADD14R,2.000000X1.500000*%
%TD*%
%TA.AperFunction,SMDPad,CuDef*%
%ADD15RoundRect,0.243750X-0.243750X-0.456250X0.243750X-0.456250X0.243750X0.456250X-0.243750X0.456250X0*%
%TD*%
%TA.AperFunction,SMDPad,CuDef*%
%ADD16RoundRect,0.250000X-0.262500X-0.450000X0.262500X-0.450000X0.262500X0.450000X-0.262500X0.450000X0*%
%TD*%
%TA.AperFunction,SMDPad,CuDef*%
%ADD17RoundRect,0.200000X0.200000X0.275000X-0.200000X0.275000X-0.200000X-0.275000X0.200000X-0.275000X0*%
%TD*%
%TA.AperFunction,SMDPad,CuDef*%
%ADD18RoundRect,0.250000X0.250000X0.475000X-0.250000X0.475000X-0.250000X-0.475000X0.250000X-0.475000X0*%
%TD*%
%TA.AperFunction,SMDPad,CuDef*%
%ADD19RoundRect,0.100000X0.637500X0.100000X-0.637500X0.100000X-0.637500X-0.100000X0.637500X-0.100000X0*%
%TD*%
%TA.AperFunction,SMDPad,CuDef*%
%ADD20R,1.700000X2.000000*%
%TD*%
%TA.AperFunction,SMDPad,CuDef*%
%ADD21R,2.000000X0.500000*%
%TD*%
%TA.AperFunction,SMDPad,CuDef*%
%ADD22RoundRect,0.250000X-0.450000X0.262500X-0.450000X-0.262500X0.450000X-0.262500X0.450000X0.262500X0*%
%TD*%
%TA.AperFunction,SMDPad,CuDef*%
%ADD23R,1.000000X0.700000*%
%TD*%
%TA.AperFunction,SMDPad,CuDef*%
%ADD24RoundRect,0.200000X-0.200000X-0.275000X0.200000X-0.275000X0.200000X0.275000X-0.200000X0.275000X0*%
%TD*%
%TA.AperFunction,SMDPad,CuDef*%
%ADD25RoundRect,0.150000X-0.512500X-0.150000X0.512500X-0.150000X0.512500X0.150000X-0.512500X0.150000X0*%
%TD*%
%TA.AperFunction,ComponentPad*%
%ADD26C,2.000000*%
%TD*%
%TA.AperFunction,ComponentPad*%
%ADD27R,2.000000X2.000000*%
%TD*%
%TA.AperFunction,SMDPad,CuDef*%
%ADD28RoundRect,0.200000X-0.275000X0.200000X-0.275000X-0.200000X0.275000X-0.200000X0.275000X0.200000X0*%
%TD*%
%TA.AperFunction,SMDPad,CuDef*%
%ADD29R,1.400000X1.200000*%
%TD*%
%TA.AperFunction,SMDPad,CuDef*%
%ADD30RoundRect,0.225000X-0.250000X0.225000X-0.250000X-0.225000X0.250000X-0.225000X0.250000X0.225000X0*%
%TD*%
%TA.AperFunction,ComponentPad*%
%ADD31O,1.700000X1.700000*%
%TD*%
%TA.AperFunction,ComponentPad*%
%ADD32R,1.700000X1.700000*%
%TD*%
%TA.AperFunction,SMDPad,CuDef*%
%ADD33RoundRect,0.225000X0.225000X0.250000X-0.225000X0.250000X-0.225000X-0.250000X0.225000X-0.250000X0*%
%TD*%
%TA.AperFunction,ComponentPad*%
%ADD34C,1.500000*%
%TD*%
%TA.AperFunction,ComponentPad*%
%ADD35R,1.500000X1.500000*%
%TD*%
%TA.AperFunction,SMDPad,CuDef*%
%ADD36R,0.550000X1.500000*%
%TD*%
%TA.AperFunction,SMDPad,CuDef*%
%ADD37R,1.500000X0.550000*%
%TD*%
%TA.AperFunction,ViaPad*%
%ADD38C,0.800000*%
%TD*%
%TA.AperFunction,Conductor*%
%ADD39C,0.508000*%
%TD*%
%TA.AperFunction,Conductor*%
%ADD40C,0.203200*%
%TD*%
%TA.AperFunction,Conductor*%
%ADD41C,0.200000*%
%TD*%
G04 APERTURE END LIST*
D10*
%TO.P,C15,2*%
%TO.N,GND*%
X148100000Y-75450000D03*
%TO.P,C15,1*%
%TO.N,Net-(U5-BP)*%
X146550000Y-75450000D03*
%TD*%
D11*
%TO.P,C5,2*%
%TO.N,GND*%
X166750000Y-57875000D03*
%TO.P,C5,1*%
%TO.N,+5V*%
X166750000Y-59425000D03*
%TD*%
D12*
%TO.P,F1,2*%
%TO.N,+5V*%
X144287500Y-57100000D03*
%TO.P,F1,1*%
%TO.N,Net-(J2-VBUS)*%
X140012500Y-57100000D03*
%TD*%
D10*
%TO.P,C2,2*%
%TO.N,XTAL1*%
X167950000Y-83500000D03*
%TO.P,C2,1*%
%TO.N,GND*%
X166400000Y-83500000D03*
%TD*%
D13*
%TO.P,R7,2*%
%TO.N,Net-(U1-c)*%
X171200000Y-52760000D03*
%TO.P,R7,1*%
%TO.N,c*%
X171200000Y-54585000D03*
%TD*%
D10*
%TO.P,C3,2*%
%TO.N,GND*%
X175400000Y-81800000D03*
%TO.P,C3,1*%
%TO.N,XTAL2*%
X173850000Y-81800000D03*
%TD*%
D13*
%TO.P,R9,2*%
%TO.N,Net-(U1-e)*%
X163400000Y-52685000D03*
%TO.P,R9,1*%
%TO.N,e*%
X163400000Y-54510000D03*
%TD*%
D14*
%TO.P,S1,D1,COM_2*%
%TO.N,unconnected-(S1-COM_2-PadD1)*%
X171550000Y-97400000D03*
%TO.P,S1,C1,COM_1*%
%TO.N,+5V*%
X157250000Y-97400000D03*
%TO.P,S1,B1,NO_2*%
%TO.N,Button_1*%
X171550000Y-92400000D03*
%TO.P,S1,A1,NO_1*%
%TO.N,unconnected-(S1-NO_1-PadA1)*%
X157250000Y-92400000D03*
%TD*%
D15*
%TO.P,D1,2,A*%
%TO.N,Net-(D1-A)*%
X187237500Y-64050000D03*
%TO.P,D1,1,K*%
%TO.N,GND*%
X185362500Y-64050000D03*
%TD*%
D14*
%TO.P,S2,D1,COM_2*%
%TO.N,unconnected-(S2-COM_2-PadD1)*%
X195600000Y-97300000D03*
%TO.P,S2,C1,COM_1*%
%TO.N,+5V*%
X181300000Y-97300000D03*
%TO.P,S2,B1,NO_2*%
%TO.N,Button_2*%
X195600000Y-92300000D03*
%TO.P,S2,A1,NO_1*%
%TO.N,unconnected-(S2-NO_1-PadA1)*%
X181300000Y-92300000D03*
%TD*%
D13*
%TO.P,R11,2*%
%TO.N,Net-(U1-g)*%
X173850000Y-52660000D03*
%TO.P,R11,1*%
%TO.N,g*%
X173850000Y-54485000D03*
%TD*%
D16*
%TO.P,R2,2*%
%TO.N,GND*%
X200325000Y-92250000D03*
%TO.P,R2,1*%
%TO.N,Button_2*%
X198500000Y-92250000D03*
%TD*%
D17*
%TO.P,R17,2*%
%TO.N,Net-(J3-Pin_5)*%
X136815000Y-85290000D03*
%TO.P,R17,1*%
%TO.N,+3.3V*%
X138465000Y-85290000D03*
%TD*%
D18*
%TO.P,C8,2*%
%TO.N,GND*%
X161250000Y-61650000D03*
%TO.P,C8,1*%
%TO.N,+5V*%
X163150000Y-61650000D03*
%TD*%
D19*
%TO.P,U2,16,VCC*%
%TO.N,+5V*%
X197587500Y-58325000D03*
%TO.P,U2,15,QA*%
%TO.N,a*%
X197587500Y-57675000D03*
%TO.P,U2,14,SER*%
%TO.N,DS*%
X197587500Y-57025000D03*
%TO.P,U2,13,~{OE}*%
%TO.N,GND*%
X197587500Y-56375000D03*
%TO.P,U2,12,RCLK*%
%TO.N,ST_CP*%
X197587500Y-55725000D03*
%TO.P,U2,11,SRCLK*%
%TO.N,SH_CP*%
X197587500Y-55075000D03*
%TO.P,U2,10,~{SRCLR}*%
%TO.N,+5V*%
X197587500Y-54425000D03*
%TO.P,U2,9,QH'*%
%TO.N,unconnected-(U2-QH'-Pad9)*%
X197587500Y-53775000D03*
%TO.P,U2,8,GND*%
%TO.N,GND*%
X203312500Y-53775000D03*
%TO.P,U2,7,QH*%
%TO.N,dp*%
X203312500Y-54425000D03*
%TO.P,U2,6,QG*%
%TO.N,g*%
X203312500Y-55075000D03*
%TO.P,U2,5,QF*%
%TO.N,f*%
X203312500Y-55725000D03*
%TO.P,U2,4,QE*%
%TO.N,e*%
X203312500Y-56375000D03*
%TO.P,U2,3,QD*%
%TO.N,d*%
X203312500Y-57025000D03*
%TO.P,U2,2,QC*%
%TO.N,c*%
X203312500Y-57675000D03*
%TO.P,U2,1,QB*%
%TO.N,b*%
X203312500Y-58325000D03*
%TD*%
D20*
%TO.P,J2,6,Shield*%
%TO.N,unconnected-(J2-Shield-Pad6)*%
X131175000Y-68850000D03*
X136625000Y-68850000D03*
X131175000Y-59950000D03*
X136625000Y-59950000D03*
D21*
%TO.P,J2,5,GND*%
%TO.N,GND*%
X136725000Y-66000000D03*
%TO.P,J2,4,ID*%
%TO.N,unconnected-(J2-ID-Pad4)*%
X136725000Y-65200000D03*
%TO.P,J2,3,D+*%
%TO.N,Net-(J2-D+)*%
X136725000Y-64400000D03*
%TO.P,J2,2,D-*%
%TO.N,Net-(J2-D-)*%
X136725000Y-63600000D03*
%TO.P,J2,1,VBUS*%
%TO.N,Net-(J2-VBUS)*%
X136725000Y-62800000D03*
%TD*%
D13*
%TO.P,R12,2*%
%TO.N,Net-(U1-DPX)*%
X168550000Y-52697500D03*
%TO.P,R12,1*%
%TO.N,dp*%
X168550000Y-54522500D03*
%TD*%
D15*
%TO.P,D2,2,A*%
%TO.N,Net-(D2-A)*%
X191850000Y-64150000D03*
%TO.P,D2,1,K*%
%TO.N,GND*%
X189975000Y-64150000D03*
%TD*%
D22*
%TO.P,R6,2*%
%TO.N,Net-(U1-b)*%
X176150000Y-30962500D03*
%TO.P,R6,1*%
%TO.N,b*%
X176150000Y-29137500D03*
%TD*%
D23*
%TO.P,S3,4*%
%TO.N,N/C*%
X151600000Y-79200000D03*
%TO.P,S3,3*%
%TO.N,RST*%
X157600000Y-79200000D03*
%TO.P,S3,2*%
%TO.N,N/C*%
X151600000Y-82900000D03*
%TO.P,S3,1*%
%TO.N,GND*%
X157600000Y-82900000D03*
%TD*%
D15*
%TO.P,D3,2,A*%
%TO.N,Net-(D3-A)*%
X152800000Y-55100000D03*
%TO.P,D3,1,K*%
%TO.N,GND*%
X150925000Y-55100000D03*
%TD*%
D24*
%TO.P,R14,2*%
%TO.N,USB_CONN_D+*%
X141600000Y-64400000D03*
%TO.P,R14,1*%
%TO.N,Net-(J2-D+)*%
X139950000Y-64400000D03*
%TD*%
D25*
%TO.P,U5,5,VOUT*%
%TO.N,+3.3V*%
X144600000Y-73600000D03*
%TO.P,U5,4,BP*%
%TO.N,Net-(U5-BP)*%
X144600000Y-75500000D03*
%TO.P,U5,3,ON/~{OFF}*%
%TO.N,+5V*%
X142325000Y-75500000D03*
%TO.P,U5,2,GND*%
%TO.N,GND*%
X142325000Y-74550000D03*
%TO.P,U5,1,VIN*%
%TO.N,+5V*%
X142325000Y-73600000D03*
%TD*%
D16*
%TO.P,R1,2*%
%TO.N,GND*%
X176125000Y-92200000D03*
%TO.P,R1,1*%
%TO.N,Button_1*%
X174300000Y-92200000D03*
%TD*%
D10*
%TO.P,C14,2*%
%TO.N,GND*%
X148100000Y-73550000D03*
%TO.P,C14,1*%
%TO.N,+3.3V*%
X146550000Y-73550000D03*
%TD*%
D26*
%TO.P,LS1,2,2*%
%TO.N,GND*%
X205550000Y-71100000D03*
D27*
%TO.P,LS1,1,1*%
%TO.N,Buzzer*%
X197950000Y-71100000D03*
%TD*%
D13*
%TO.P,R8,2*%
%TO.N,Net-(U1-d)*%
X166050000Y-52760000D03*
%TO.P,R8,1*%
%TO.N,d*%
X166050000Y-54585000D03*
%TD*%
D28*
%TO.P,R13,2*%
%TO.N,RST*%
X159150000Y-79100000D03*
%TO.P,R13,1*%
%TO.N,+5V*%
X159150000Y-77450000D03*
%TD*%
D22*
%TO.P,R10,2*%
%TO.N,Net-(U1-f)*%
X168550000Y-31162500D03*
%TO.P,R10,1*%
%TO.N,f*%
X168550000Y-29337500D03*
%TD*%
%TO.P,R5,2*%
%TO.N,Net-(U1-a)*%
X166150000Y-31200000D03*
%TO.P,R5,1*%
%TO.N,a*%
X166150000Y-29375000D03*
%TD*%
D10*
%TO.P,C11,2*%
%TO.N,GND*%
X179975000Y-70200000D03*
%TO.P,C11,1*%
%TO.N,+5V*%
X178425000Y-70200000D03*
%TD*%
D29*
%TO.P,Y1,4,4*%
%TO.N,GND*%
X169800000Y-81850000D03*
%TO.P,Y1,3,3*%
%TO.N,XTAL2*%
X172000000Y-81850000D03*
%TO.P,Y1,2,2*%
%TO.N,GND*%
X172000000Y-83550000D03*
%TO.P,Y1,1,1*%
%TO.N,XTAL1*%
X169800000Y-83550000D03*
%TD*%
D24*
%TO.P,R15,2*%
%TO.N,USB_CONN_D-*%
X141575000Y-62700000D03*
%TO.P,R15,1*%
%TO.N,Net-(J2-D-)*%
X139925000Y-62700000D03*
%TD*%
D16*
%TO.P,R3,2*%
%TO.N,Net-(D1-A)*%
X187250000Y-66150000D03*
%TO.P,R3,1*%
%TO.N,RED_LED*%
X185425000Y-66150000D03*
%TD*%
D24*
%TO.P,R16,2*%
%TO.N,Net-(D3-A)*%
X152645000Y-57015000D03*
%TO.P,R16,1*%
%TO.N,+5V*%
X150995000Y-57015000D03*
%TD*%
D30*
%TO.P,C6,2*%
%TO.N,GND*%
X168400000Y-76225000D03*
%TO.P,C6,1*%
%TO.N,+5V*%
X168400000Y-74675000D03*
%TD*%
D31*
%TO.P,J1,6,GND*%
%TO.N,GND*%
X145850000Y-94890000D03*
%TO.P,J1,5,~{RST}*%
%TO.N,RST*%
X145850000Y-92350000D03*
%TO.P,J1,4,MOSI*%
%TO.N,MOSI*%
X143310000Y-94890000D03*
%TO.P,J1,3,SCK*%
%TO.N,SCK*%
X143310000Y-92350000D03*
%TO.P,J1,2,VCC*%
%TO.N,+5V*%
X140770000Y-94890000D03*
D32*
%TO.P,J1,1,MISO*%
%TO.N,MISO*%
X140770000Y-92350000D03*
%TD*%
D11*
%TO.P,C4,2*%
%TO.N,GND*%
X174800000Y-57850000D03*
%TO.P,C4,1*%
%TO.N,+5V*%
X174800000Y-59400000D03*
%TD*%
D33*
%TO.P,C7,2*%
%TO.N,GND*%
X161625000Y-63500000D03*
%TO.P,C7,1*%
%TO.N,+5V*%
X163175000Y-63500000D03*
%TD*%
D34*
%TO.P,U1,12,CA1*%
%TO.N,Dig1*%
X163400000Y-34360000D03*
%TO.P,U1,11,a*%
%TO.N,Net-(U1-a)*%
X165940000Y-34360000D03*
%TO.P,U1,10,f*%
%TO.N,Net-(U1-f)*%
X168480000Y-34360000D03*
%TO.P,U1,9,CA2*%
%TO.N,Dig2*%
X171020000Y-34360000D03*
%TO.P,U1,8,CA3*%
%TO.N,Dig3*%
X173560000Y-34360000D03*
%TO.P,U1,7,b*%
%TO.N,Net-(U1-b)*%
X176100000Y-34360000D03*
%TO.P,U1,6,CA4*%
%TO.N,Dig4*%
X176100000Y-49600000D03*
%TO.P,U1,5,g*%
%TO.N,Net-(U1-g)*%
X173560000Y-49600000D03*
%TO.P,U1,4,c*%
%TO.N,Net-(U1-c)*%
X171020000Y-49600000D03*
%TO.P,U1,3,DPX*%
%TO.N,Net-(U1-DPX)*%
X168480000Y-49600000D03*
%TO.P,U1,2,d*%
%TO.N,Net-(U1-d)*%
X165940000Y-49600000D03*
D35*
%TO.P,U1,1,e*%
%TO.N,Net-(U1-e)*%
X163400000Y-49600000D03*
%TD*%
D16*
%TO.P,R4,2*%
%TO.N,Net-(D2-A)*%
X191785000Y-66210000D03*
%TO.P,R4,1*%
%TO.N,GREEN_LED*%
X189960000Y-66210000D03*
%TD*%
D36*
%TO.P,U3,44,AVCC*%
%TO.N,+5V*%
X166750000Y-61350000D03*
%TO.P,U3,43,GND*%
%TO.N,GND*%
X167550000Y-61350000D03*
%TO.P,U3,42,AREF*%
%TO.N,/AREF*%
X168350000Y-61350000D03*
%TO.P,U3,41,PF0*%
%TO.N,unconnected-(U3-PF0-Pad41)*%
X169150000Y-61350000D03*
%TO.P,U3,40,PF1*%
%TO.N,unconnected-(U3-PF1-Pad40)*%
X169950000Y-61350000D03*
%TO.P,U3,39,PF4*%
%TO.N,unconnected-(U3-PF4-Pad39)*%
X170750000Y-61350000D03*
%TO.P,U3,38,PF5*%
%TO.N,unconnected-(U3-PF5-Pad38)*%
X171550000Y-61350000D03*
%TO.P,U3,37,PF6*%
%TO.N,unconnected-(U3-PF6-Pad37)*%
X172350000Y-61350000D03*
%TO.P,U3,36,PF7*%
%TO.N,unconnected-(U3-PF7-Pad36)*%
X173150000Y-61350000D03*
%TO.P,U3,35,GND*%
%TO.N,GND*%
X173950000Y-61350000D03*
%TO.P,U3,34,VCC*%
%TO.N,+5V*%
X174750000Y-61350000D03*
D37*
%TO.P,U3,33,~{HWB}/PE2*%
%TO.N,GND*%
X176450000Y-63050000D03*
%TO.P,U3,32,PC7*%
%TO.N,Dig1*%
X176450000Y-63850000D03*
%TO.P,U3,31,PC6*%
%TO.N,RED_LED*%
X176450000Y-64650000D03*
%TO.P,U3,30,PB6*%
%TO.N,Dig4*%
X176450000Y-65450000D03*
%TO.P,U3,29,PB5*%
%TO.N,DS*%
X176450000Y-66250000D03*
%TO.P,U3,28,PB4*%
%TO.N,ST_CP*%
X176450000Y-67050000D03*
%TO.P,U3,27,PD7*%
%TO.N,Buzzer*%
X176450000Y-67850000D03*
%TO.P,U3,26,PD6*%
%TO.N,Dig2*%
X176450000Y-68650000D03*
%TO.P,U3,25,PD4*%
%TO.N,GREEN_LED*%
X176450000Y-69450000D03*
%TO.P,U3,24,AVCC*%
%TO.N,+5V*%
X176450000Y-70250000D03*
%TO.P,U3,23,GND*%
%TO.N,GND*%
X176450000Y-71050000D03*
D36*
%TO.P,U3,22,PD5*%
%TO.N,unconnected-(U3-PD5-Pad22)*%
X174750000Y-72750000D03*
%TO.P,U3,21,PD3*%
%TO.N,RX*%
X173950000Y-72750000D03*
%TO.P,U3,20,PD2*%
%TO.N,TX*%
X173150000Y-72750000D03*
%TO.P,U3,19,PD1*%
%TO.N,Button_1*%
X172350000Y-72750000D03*
%TO.P,U3,18,PD0*%
%TO.N,Button_2*%
X171550000Y-72750000D03*
%TO.P,U3,17,XTAL1*%
%TO.N,XTAL1*%
X170750000Y-72750000D03*
%TO.P,U3,16,XTAL2*%
%TO.N,XTAL2*%
X169950000Y-72750000D03*
%TO.P,U3,15,GND*%
%TO.N,GND*%
X169150000Y-72750000D03*
%TO.P,U3,14,VCC*%
%TO.N,+5V*%
X168350000Y-72750000D03*
%TO.P,U3,13,~{RESET}*%
%TO.N,RST*%
X167550000Y-72750000D03*
%TO.P,U3,12,PB7*%
%TO.N,Dig3*%
X166750000Y-72750000D03*
D37*
%TO.P,U3,11,PB3*%
%TO.N,MISO*%
X165050000Y-71050000D03*
%TO.P,U3,10,PB2*%
%TO.N,MOSI*%
X165050000Y-70250000D03*
%TO.P,U3,9,PB1*%
%TO.N,SCK*%
X165050000Y-69450000D03*
%TO.P,U3,8,PB0*%
%TO.N,unconnected-(U3-PB0-Pad8)*%
X165050000Y-68650000D03*
%TO.P,U3,7,VBUS*%
%TO.N,+5V*%
X165050000Y-67850000D03*
%TO.P,U3,6,UCAP*%
%TO.N,/UCAP*%
X165050000Y-67050000D03*
%TO.P,U3,5,UGND*%
%TO.N,GND*%
X165050000Y-66250000D03*
%TO.P,U3,4,D+*%
%TO.N,USB_D+*%
X165050000Y-65450000D03*
%TO.P,U3,3,D-*%
%TO.N,USB_D-*%
X165050000Y-64650000D03*
%TO.P,U3,2,UVCC*%
%TO.N,+5V*%
X165050000Y-63850000D03*
%TO.P,U3,1,PE6*%
%TO.N,SH_CP*%
X165050000Y-63050000D03*
%TD*%
D33*
%TO.P,C10,2*%
%TO.N,GND*%
X161600000Y-68650000D03*
%TO.P,C10,1*%
%TO.N,+5V*%
X163150000Y-68650000D03*
%TD*%
D25*
%TO.P,U4,6,I/O1*%
%TO.N,USB_D-*%
X148137500Y-62650000D03*
%TO.P,U4,5,VBUS*%
%TO.N,+5V*%
X148137500Y-63600000D03*
%TO.P,U4,4,I/O2*%
%TO.N,USB_D+*%
X148137500Y-64550000D03*
%TO.P,U4,3,I/O2*%
%TO.N,USB_CONN_D+*%
X145862500Y-64550000D03*
%TO.P,U4,2,GND*%
%TO.N,GND*%
X145862500Y-63600000D03*
%TO.P,U4,1,I/O1*%
%TO.N,USB_CONN_D-*%
X145862500Y-62650000D03*
%TD*%
D31*
%TO.P,J3,8,Pin_8*%
%TO.N,+3.3V*%
X131700000Y-87780000D03*
%TO.P,J3,7,Pin_7*%
%TO.N,RX*%
X134240000Y-87780000D03*
%TO.P,J3,6,Pin_6*%
%TO.N,+3.3V*%
X131700000Y-85240000D03*
%TO.P,J3,5,Pin_5*%
%TO.N,Net-(J3-Pin_5)*%
X134240000Y-85240000D03*
%TO.P,J3,4,Pin_4*%
%TO.N,+3.3V*%
X131700000Y-82700000D03*
%TO.P,J3,3,Pin_3*%
%TO.N,unconnected-(J3-Pin_3-Pad3)*%
X134240000Y-82700000D03*
%TO.P,J3,2,Pin_2*%
%TO.N,TX*%
X131700000Y-80160000D03*
D32*
%TO.P,J3,1,Pin_1*%
%TO.N,GND*%
X134240000Y-80160000D03*
%TD*%
D30*
%TO.P,C13,2*%
%TO.N,GND*%
X140500000Y-77225000D03*
%TO.P,C13,1*%
%TO.N,+5V*%
X140500000Y-75675000D03*
%TD*%
D33*
%TO.P,C9,2*%
%TO.N,GND*%
X161600000Y-67050000D03*
%TO.P,C9,1*%
%TO.N,/UCAP*%
X163150000Y-67050000D03*
%TD*%
%TO.P,C1,2*%
%TO.N,GND*%
X192925000Y-59900000D03*
%TO.P,C1,1*%
%TO.N,+5V*%
X194475000Y-59900000D03*
%TD*%
D11*
%TO.P,C12,2*%
%TO.N,GND*%
X168500000Y-57850000D03*
%TO.P,C12,1*%
%TO.N,/AREF*%
X168500000Y-59400000D03*
%TD*%
D38*
%TO.N,+5V*%
X152350000Y-66150000D03*
X163196495Y-64125500D03*
X152350000Y-64000000D03*
X163200000Y-68124500D03*
%TO.N,GND*%
X176250000Y-81800000D03*
X180900000Y-70150000D03*
X202100000Y-53750000D03*
X176950000Y-92100000D03*
X136200000Y-79990000D03*
X207800000Y-71150000D03*
X150050000Y-55100000D03*
X166800000Y-56900000D03*
X175100498Y-63700000D03*
X167550000Y-62700000D03*
X158500000Y-83400000D03*
X175150000Y-71050000D03*
X147650000Y-95100000D03*
X192050000Y-59950000D03*
X160750000Y-66950000D03*
X149100000Y-73550000D03*
X174850000Y-56700000D03*
X173150000Y-83750000D03*
X160750000Y-68600000D03*
X160650000Y-63450000D03*
X160300000Y-61450000D03*
X174000000Y-62600000D03*
X165550000Y-83350000D03*
X144762500Y-63550000D03*
X169600000Y-80850000D03*
X135250000Y-66100000D03*
X149250000Y-75600000D03*
X169200000Y-71350000D03*
X199000000Y-56350000D03*
X201050000Y-92100000D03*
X140600000Y-78150000D03*
X189000000Y-64100000D03*
X168450000Y-77150000D03*
X168650000Y-56850000D03*
X143700000Y-74550000D03*
X166350000Y-66250000D03*
X184450000Y-64000000D03*
%TO.N,XTAL2*%
X171502700Y-76950000D03*
X170100500Y-76850000D03*
%TO.N,MISO*%
X163901100Y-71700000D03*
X156928516Y-73871500D03*
X155796484Y-75303516D03*
X162498900Y-71700000D03*
%TO.N,SCK*%
X154846484Y-74353516D03*
X156078516Y-73171484D03*
%TO.N,MOSI*%
X163200000Y-75578500D03*
X163200000Y-73871500D03*
%TO.N,RST*%
X162498900Y-79100000D03*
X167200000Y-75578500D03*
X163901100Y-79100000D03*
X167495519Y-73871500D03*
%TO.N,TX*%
X132350000Y-76300000D03*
X133686449Y-77536449D03*
%TO.N,RX*%
X143657386Y-83607386D03*
X197150000Y-90547300D03*
X142350000Y-82350000D03*
X197199502Y-91949500D03*
%TO.N,Buzzer*%
X183750000Y-68722300D03*
X183700000Y-72003500D03*
%TO.N,a*%
X195400000Y-57726100D03*
X193550000Y-54373900D03*
%TO.N,c*%
X176249247Y-48200753D03*
X194520753Y-48179247D03*
X193254247Y-48895753D03*
X188435648Y-48814352D03*
X178240753Y-48209247D03*
X186350000Y-48750000D03*
%TO.N,d*%
X175101246Y-69945062D03*
X169700000Y-56849500D03*
X173300000Y-59950000D03*
X173250000Y-64102700D03*
X167329387Y-55142500D03*
X173300000Y-69351100D03*
X177250000Y-75450000D03*
X173300000Y-67948900D03*
%TO.N,e*%
X176067039Y-74703733D03*
X166587524Y-65262476D03*
X164708984Y-60258984D03*
X165866016Y-61516016D03*
X163171484Y-56521484D03*
X166550000Y-62700500D03*
X174100000Y-71000000D03*
X164303516Y-57803516D03*
%TO.N,f*%
X204998900Y-55263504D03*
X206401100Y-55250000D03*
%TO.N,g*%
X183250212Y-56050497D03*
X191287387Y-53649103D03*
X199852508Y-53511002D03*
X179048900Y-56100000D03*
%TO.N,dp*%
X191994142Y-54355858D03*
X197279247Y-52920753D03*
X199145753Y-52804247D03*
X193139788Y-53462456D03*
X179048900Y-57100000D03*
X183250212Y-57050000D03*
%TO.N,Dig4*%
X179693438Y-65301100D03*
X179750000Y-58171500D03*
%TO.N,Dig3*%
X166496016Y-73871500D03*
X175360284Y-73996978D03*
%TO.N,Dig2*%
X166419255Y-64102700D03*
X168065753Y-38034247D03*
X167124247Y-39075753D03*
X160871484Y-58821484D03*
%TO.N,Dig1*%
X182549112Y-57792080D03*
X180700000Y-60579600D03*
%TO.N,SH_CP*%
X183500000Y-58100000D03*
X183500000Y-59878500D03*
%TO.N,ST_CP*%
X184499177Y-58125500D03*
X184499503Y-59878500D03*
%TO.N,DS*%
X185508092Y-58108092D03*
X182700000Y-65301100D03*
X184633814Y-61004317D03*
X182750000Y-63898900D03*
%TD*%
D39*
%TO.N,+5V*%
X140500000Y-75675000D02*
X140500000Y-74858315D01*
X151050000Y-66150000D02*
X149775000Y-66150000D01*
D40*
X199701600Y-56866348D02*
X199701600Y-55701600D01*
D39*
X168350000Y-74725000D02*
X168400000Y-74675000D01*
X139683315Y-75675000D02*
X139466000Y-75892315D01*
X164196000Y-56704000D02*
X164604000Y-56704000D01*
X192800000Y-63413232D02*
X192800000Y-66903106D01*
X163150000Y-63475000D02*
X163175000Y-63500000D01*
X165946000Y-56754000D02*
X165946000Y-56546261D01*
X163200000Y-68600000D02*
X163150000Y-68650000D01*
X153200000Y-97400000D02*
X154404000Y-98604000D01*
X194475000Y-59900000D02*
X194533000Y-59900000D01*
X149850000Y-59700000D02*
X149850000Y-61500000D01*
X191829000Y-58979000D02*
X191900000Y-59050000D01*
X149450000Y-57100000D02*
X149850000Y-57100000D01*
X141758315Y-73600000D02*
X142325000Y-73600000D01*
%TO.N,+3.3V*%
X149378739Y-72621000D02*
X150150000Y-73392261D01*
X146500000Y-73600000D02*
X146550000Y-73550000D01*
X138465000Y-85290000D02*
X138465000Y-85399135D01*
X134780135Y-89084000D02*
X133004000Y-89084000D01*
D40*
%TO.N,MISO*%
X144461600Y-92827009D02*
X143787009Y-93501600D01*
%TO.N,RST*%
X159100000Y-79100000D02*
X159150000Y-79100000D01*
%TO.N,TX*%
X201198400Y-91248400D02*
X201751600Y-91801600D01*
%TO.N,RX*%
X132851600Y-84999791D02*
X133762991Y-84088400D01*
X142158400Y-95367009D02*
X142832991Y-96041600D01*
X142158400Y-94412991D02*
X142158400Y-95367009D01*
%TO.N,Button_1*%
X174100000Y-92400000D02*
X174300000Y-92200000D01*
%TO.N,Button_2*%
X173851600Y-84040613D02*
X173851600Y-83051600D01*
%TO.N,RED_LED*%
X179278500Y-64600000D02*
X179228500Y-64650000D01*
%TO.N,a*%
X174189895Y-35560105D02*
X173272918Y-35560105D01*
%TO.N,b*%
X207700000Y-54943313D02*
X207700000Y-54841600D01*
%TO.N,c*%
X173299247Y-48200753D02*
X172201600Y-49298400D01*
X205700000Y-55942948D02*
X205700000Y-54250000D01*
%TO.N,e*%
X200508000Y-71715410D02*
X197519677Y-74703733D01*
%TO.N,f*%
X170301600Y-29951600D02*
X169687500Y-29337500D01*
%TO.N,dp*%
X204400000Y-53992948D02*
X204400000Y-53557052D01*
D41*
%TO.N,USB_CONN_D+*%
X142638603Y-64400000D02*
X142788603Y-64550000D01*
%TO.N,USB_CONN_D-*%
X144062500Y-63260050D02*
X144472550Y-62850000D01*
X145052450Y-62850000D02*
X145202450Y-63000000D01*
X144322549Y-64099999D02*
X144062500Y-63839950D01*
D40*
%TO.N,Dig3*%
X197656222Y-73996978D02*
X200104800Y-71548400D01*
%TO.N,SH_CP*%
X166251600Y-63401600D02*
X165900000Y-63050000D01*
%TO.N,ST_CP*%
X186239100Y-66828480D02*
X185915980Y-67151600D01*
%TO.N,DS*%
X185500000Y-58125500D02*
X185500000Y-58116184D01*
D41*
%TO.N,USB_D-*%
X163749999Y-64825000D02*
X163924999Y-64650000D01*
X148487500Y-63000000D02*
X148836396Y-63000000D01*
%TO.N,USB_D+*%
X163749999Y-65275000D02*
X163924999Y-65450000D01*
X149401103Y-64550000D02*
X150126103Y-65275000D01*
D39*
%TO.N,+5V*%
X166750000Y-59425000D02*
X166750000Y-61350000D01*
X152350000Y-66150000D02*
X151050000Y-66150000D01*
X130396000Y-79619865D02*
X130396000Y-88346000D01*
X192800000Y-66903106D02*
X188553106Y-71150000D01*
X188411768Y-59025000D02*
X192800000Y-63413232D01*
X144287500Y-57100000D02*
X149450000Y-57100000D01*
X147021000Y-59529000D02*
X147021000Y-63050185D01*
X146187500Y-69737500D02*
X142325000Y-73600000D01*
X165300000Y-57400000D02*
X165946000Y-56754000D01*
X188553106Y-71150000D02*
X179375000Y-71150000D01*
X140500000Y-74858315D02*
X141758315Y-73600000D01*
X153200000Y-97400000D02*
X157250000Y-97400000D01*
X196104000Y-58329000D02*
X197587500Y-58329000D01*
X156425000Y-74725000D02*
X159150000Y-77450000D01*
X151050000Y-69350000D02*
X156425000Y-74725000D01*
X174800000Y-61300000D02*
X174750000Y-61350000D01*
X165946000Y-56546261D02*
X166496261Y-55996000D01*
X191900000Y-59050000D02*
X191979000Y-58971000D01*
X147021000Y-63050185D02*
X147570815Y-63600000D01*
X163525000Y-63850000D02*
X165050000Y-63850000D01*
D40*
X197587500Y-58325000D02*
X198242948Y-58325000D01*
D39*
X149850000Y-59700000D02*
X161200000Y-59700000D01*
X149775000Y-66150000D02*
X146187500Y-69737500D01*
X139466000Y-75892315D02*
X134123550Y-75892315D01*
X151050000Y-66150000D02*
X151050000Y-69350000D01*
X136940000Y-94890000D02*
X140770000Y-94890000D01*
X194533000Y-59900000D02*
X196104000Y-58329000D01*
X182529000Y-58979000D02*
X191829000Y-58979000D01*
X164604000Y-56704000D02*
X165300000Y-57400000D01*
X163175000Y-63500000D02*
X163175000Y-64104005D01*
X154404000Y-98604000D02*
X179996000Y-98604000D01*
X168400000Y-74675000D02*
X168400000Y-72800000D01*
X161200000Y-59700000D02*
X163150000Y-61650000D01*
X193546000Y-58971000D02*
X194475000Y-59900000D01*
X163200000Y-68124500D02*
X163200000Y-68600000D01*
X163950000Y-67850000D02*
X165050000Y-67850000D01*
X179996000Y-98604000D02*
X181300000Y-97300000D01*
X134123550Y-75892315D02*
X130396000Y-79619865D01*
X163150000Y-61650000D02*
X163150000Y-63475000D01*
X191979000Y-58971000D02*
X193546000Y-58971000D01*
X164525000Y-61650000D02*
X166750000Y-59425000D01*
X174800000Y-59400000D02*
X174800000Y-61300000D01*
X163175000Y-63500000D02*
X163525000Y-63850000D01*
X149850000Y-57100000D02*
X149850000Y-59700000D01*
X143280000Y-97400000D02*
X153200000Y-97400000D01*
X171396000Y-55996000D02*
X174800000Y-59400000D01*
X140500000Y-75675000D02*
X139683315Y-75675000D01*
X178425000Y-70200000D02*
X176500000Y-70200000D01*
X161200000Y-59700000D02*
X164196000Y-56704000D01*
X149850000Y-61500000D02*
X152350000Y-64000000D01*
X150910000Y-57100000D02*
X150995000Y-57015000D01*
X171396000Y-55996000D02*
X174425000Y-59025000D01*
D40*
X199701600Y-55701600D02*
X198425000Y-54425000D01*
D39*
X179375000Y-71150000D02*
X178425000Y-70200000D01*
D40*
X198242948Y-58325000D02*
X199701600Y-56866348D01*
D39*
X156425000Y-74725000D02*
X168350000Y-74725000D01*
X163175000Y-64104005D02*
X163196495Y-64125500D01*
X130396000Y-88346000D02*
X136940000Y-94890000D01*
X149450000Y-57100000D02*
X147021000Y-59529000D01*
X140500000Y-75675000D02*
X142150000Y-75675000D01*
X168400000Y-72800000D02*
X168350000Y-72750000D01*
X142150000Y-75675000D02*
X142325000Y-75500000D01*
X176500000Y-70200000D02*
X176450000Y-70250000D01*
X149850000Y-57100000D02*
X150910000Y-57100000D01*
X166496261Y-55996000D02*
X171396000Y-55996000D01*
X174425000Y-59025000D02*
X188411768Y-59025000D01*
X147570815Y-63600000D02*
X148137500Y-63600000D01*
X163150000Y-68650000D02*
X163950000Y-67850000D01*
X140770000Y-94890000D02*
X143280000Y-97400000D01*
X163150000Y-61650000D02*
X164525000Y-61650000D01*
D40*
X198425000Y-54425000D02*
X197587500Y-54425000D01*
%TO.N,GND*%
X176950000Y-92100000D02*
X176225000Y-92100000D01*
X143700000Y-74550000D02*
X142325000Y-74550000D01*
X174850000Y-57800000D02*
X174800000Y-57850000D01*
X166800000Y-57825000D02*
X166750000Y-57875000D01*
X158500000Y-83400000D02*
X158100000Y-83400000D01*
X173150000Y-83750000D02*
X172200000Y-83750000D01*
X179975000Y-70200000D02*
X180850000Y-70200000D01*
X180850000Y-70200000D02*
X180900000Y-70150000D01*
X168450000Y-77150000D02*
X168450000Y-76275000D01*
X175750498Y-63050000D02*
X176450000Y-63050000D01*
X140600000Y-78150000D02*
X140600000Y-77325000D01*
X169200000Y-71350000D02*
X169200000Y-72700000D01*
X175100498Y-63700000D02*
X175750498Y-63050000D01*
X175150000Y-71050000D02*
X176450000Y-71050000D01*
X174000000Y-62600000D02*
X174000000Y-61400000D01*
X201050000Y-92100000D02*
X200475000Y-92100000D01*
X149250000Y-75600000D02*
X148250000Y-75600000D01*
X192050000Y-59950000D02*
X192875000Y-59950000D01*
X172200000Y-83750000D02*
X172000000Y-83550000D01*
X146060000Y-95100000D02*
X145850000Y-94890000D01*
X145812500Y-63550000D02*
X145862500Y-63600000D01*
X192875000Y-59950000D02*
X192925000Y-59900000D01*
X166800000Y-56900000D02*
X166800000Y-57825000D01*
X185312500Y-64000000D02*
X185362500Y-64050000D01*
X169600000Y-81650000D02*
X169800000Y-81850000D01*
X160750000Y-66950000D02*
X161500000Y-66950000D01*
X148250000Y-75600000D02*
X148100000Y-75450000D01*
X165550000Y-83350000D02*
X166250000Y-83350000D01*
X189000000Y-64100000D02*
X189925000Y-64100000D01*
X167550000Y-62700000D02*
X167550000Y-61350000D01*
X174000000Y-61400000D02*
X173950000Y-61350000D01*
X150050000Y-55100000D02*
X150925000Y-55100000D01*
X168450000Y-76275000D02*
X168400000Y-76225000D01*
X176250000Y-81800000D02*
X175400000Y-81800000D01*
X199000000Y-56350000D02*
X197612500Y-56350000D01*
X158100000Y-83400000D02*
X157600000Y-82900000D01*
X161050000Y-61450000D02*
X161250000Y-61650000D01*
X176225000Y-92100000D02*
X176125000Y-92200000D01*
X136625000Y-66100000D02*
X136725000Y-66000000D01*
X169200000Y-72700000D02*
X169150000Y-72750000D01*
X160300000Y-61450000D02*
X161050000Y-61450000D01*
X189925000Y-64100000D02*
X189975000Y-64150000D01*
X168650000Y-56850000D02*
X168650000Y-57700000D01*
X160750000Y-68600000D02*
X161550000Y-68600000D01*
X200475000Y-92100000D02*
X200325000Y-92250000D01*
X166350000Y-66250000D02*
X165050000Y-66250000D01*
X203287500Y-53750000D02*
X203312500Y-53775000D01*
X136200000Y-79990000D02*
X134410000Y-79990000D01*
X161575000Y-63450000D02*
X161625000Y-63500000D01*
X169600000Y-80850000D02*
X169600000Y-81650000D01*
X140600000Y-77325000D02*
X140500000Y-77225000D01*
X207800000Y-71150000D02*
X207750000Y-71100000D01*
X168650000Y-57700000D02*
X168500000Y-57850000D01*
X147650000Y-95100000D02*
X146060000Y-95100000D01*
X160650000Y-63450000D02*
X161575000Y-63450000D01*
X202100000Y-53750000D02*
X203287500Y-53750000D01*
X174850000Y-56700000D02*
X174850000Y-57800000D01*
X207750000Y-71100000D02*
X205550000Y-71100000D01*
X161550000Y-68600000D02*
X161600000Y-68650000D01*
X149100000Y-73550000D02*
X148100000Y-73550000D01*
X197612500Y-56350000D02*
X197587500Y-56375000D01*
X184450000Y-64000000D02*
X185312500Y-64000000D01*
X161500000Y-66950000D02*
X161600000Y-67050000D01*
X144762500Y-63550000D02*
X145812500Y-63550000D01*
X134410000Y-79990000D02*
X134240000Y-80160000D01*
X135250000Y-66100000D02*
X136625000Y-66100000D01*
X166250000Y-83350000D02*
X166400000Y-83500000D01*
%TO.N,XTAL1*%
X170003200Y-83550000D02*
X170801600Y-82751600D01*
X169800000Y-83550000D02*
X170003200Y-83550000D01*
X170801600Y-72801600D02*
X170750000Y-72750000D01*
X170801600Y-82751600D02*
X170801600Y-72801600D01*
%TO.N,XTAL2*%
X172000000Y-77447300D02*
X171502700Y-76950000D01*
X170100500Y-76850000D02*
X169950000Y-76699500D01*
X172000000Y-81850000D02*
X172000000Y-77447300D01*
X169950000Y-76699500D02*
X169950000Y-72750000D01*
%TO.N,/UCAP*%
X163150000Y-67050000D02*
X165050000Y-67050000D01*
D39*
%TO.N,/AREF*%
X168500000Y-59400000D02*
X168350000Y-59550000D01*
X168350000Y-59550000D02*
X168350000Y-61350000D01*
%TO.N,+3.3V*%
X146550000Y-73550000D02*
X147479000Y-72621000D01*
X140767739Y-85290000D02*
X138465000Y-85290000D01*
X147479000Y-72621000D02*
X149378739Y-72621000D01*
X131700000Y-87780000D02*
X131700000Y-85240000D01*
X138465000Y-85399135D02*
X134780135Y-89084000D01*
X150150000Y-73392261D02*
X150150000Y-75907739D01*
X133004000Y-89084000D02*
X131700000Y-87780000D01*
X131700000Y-85240000D02*
X131700000Y-82700000D01*
X144600000Y-73600000D02*
X146500000Y-73600000D01*
X150150000Y-75907739D02*
X140767739Y-85290000D01*
D40*
%TO.N,Net-(U5-BP)*%
X144650000Y-75450000D02*
X144600000Y-75500000D01*
X146550000Y-75450000D02*
X144650000Y-75450000D01*
%TO.N,Net-(D1-A)*%
X187237500Y-66137500D02*
X187250000Y-66150000D01*
X187237500Y-64050000D02*
X187237500Y-66137500D01*
%TO.N,Net-(D2-A)*%
X191850000Y-64150000D02*
X191850000Y-66145000D01*
X191850000Y-66145000D02*
X191785000Y-66210000D01*
%TO.N,Net-(D3-A)*%
X152800000Y-55100000D02*
X152800000Y-56860000D01*
X152800000Y-56860000D02*
X152645000Y-57015000D01*
D39*
%TO.N,Net-(J2-VBUS)*%
X140012500Y-59512500D02*
X140012500Y-57100000D01*
X136725000Y-62800000D02*
X140012500Y-59512500D01*
D40*
%TO.N,MISO*%
X159100016Y-71700000D02*
X156928516Y-73871500D01*
X141921600Y-93501600D02*
X140770000Y-92350000D01*
X143787009Y-93501600D02*
X141921600Y-93501600D01*
X155796484Y-75303516D02*
X155796484Y-80253516D01*
X164551100Y-71050000D02*
X163901100Y-71700000D01*
X144461600Y-91588400D02*
X144461600Y-92827009D01*
X165050000Y-71050000D02*
X164551100Y-71050000D01*
X155796484Y-80253516D02*
X144461600Y-91588400D01*
X162498900Y-71700000D02*
X159100016Y-71700000D01*
%TO.N,SCK*%
X154846484Y-74353516D02*
X143310000Y-85890000D01*
X165050000Y-69450000D02*
X159800000Y-69450000D01*
X159800000Y-69450000D02*
X156078516Y-73171484D01*
X143310000Y-85890000D02*
X143310000Y-92350000D01*
%TO.N,MOSI*%
X163200000Y-71146800D02*
X163200000Y-73871500D01*
X165050000Y-70250000D02*
X164096800Y-70250000D01*
X144461600Y-93738400D02*
X143310000Y-94890000D01*
X163200000Y-75578500D02*
X163200000Y-81750000D01*
X151211600Y-93738400D02*
X144461600Y-93738400D01*
X164096800Y-70250000D02*
X163200000Y-71146800D01*
X163200000Y-81750000D02*
X151211600Y-93738400D01*
%TO.N,RST*%
X145850000Y-92350000D02*
X159100000Y-79100000D01*
X163901100Y-78877400D02*
X167200000Y-75578500D01*
X157700000Y-79100000D02*
X157600000Y-79200000D01*
X159150000Y-79100000D02*
X162746800Y-79100000D01*
X163901100Y-79100000D02*
X163901100Y-78877400D01*
X167495519Y-72804481D02*
X167550000Y-72750000D01*
X167495519Y-73871500D02*
X167495519Y-72804481D01*
X159150000Y-79100000D02*
X157700000Y-79100000D01*
X162746800Y-79100000D02*
X162498900Y-79100000D01*
D39*
%TO.N,Net-(J2-D-)*%
X139925000Y-62700000D02*
X139025000Y-63600000D01*
X139025000Y-63600000D02*
X136725000Y-63600000D01*
%TO.N,Net-(J2-D+)*%
X139950000Y-64400000D02*
X136725000Y-64400000D01*
D40*
%TO.N,TX*%
X133686449Y-78173551D02*
X131700000Y-80160000D01*
X201751600Y-93436800D02*
X196028800Y-99159600D01*
X201751600Y-91801600D02*
X201751600Y-93436800D01*
X137431200Y-99159600D02*
X129800000Y-91528400D01*
X173150000Y-73578200D02*
X190820200Y-91248400D01*
X129800000Y-91528400D02*
X129800000Y-78850000D01*
X129800000Y-78850000D02*
X132350000Y-76300000D01*
X173150000Y-72750000D02*
X173150000Y-73578200D01*
X133686449Y-77536449D02*
X133686449Y-78173551D01*
X196028800Y-99159600D02*
X137431200Y-99159600D01*
X190820200Y-91248400D02*
X201198400Y-91248400D01*
%TO.N,Net-(J3-Pin_5)*%
X136815000Y-85290000D02*
X136765000Y-85240000D01*
X136765000Y-85240000D02*
X134240000Y-85240000D01*
%TO.N,RX*%
X139618400Y-87646372D02*
X139618400Y-93501600D01*
X142832991Y-96041600D02*
X194211600Y-96041600D01*
X133762991Y-84088400D02*
X140611600Y-84088400D01*
X139618400Y-93501600D02*
X141247009Y-93501600D01*
X197150000Y-90547300D02*
X190919100Y-90547300D01*
X132851600Y-86391600D02*
X132851600Y-84999791D01*
X134240000Y-87780000D02*
X132851600Y-86391600D01*
X190919100Y-90547300D02*
X173950000Y-73578200D01*
X140611600Y-84088400D02*
X142350000Y-82350000D01*
X173950000Y-73578200D02*
X173950000Y-72750000D01*
X197199502Y-93053698D02*
X197199502Y-91949500D01*
X141247009Y-93501600D02*
X142158400Y-94412991D01*
X194211600Y-96041600D02*
X197199502Y-93053698D01*
X143657386Y-83607386D02*
X139618400Y-87646372D01*
%TO.N,Buzzer*%
X183750000Y-68722300D02*
X182877700Y-67850000D01*
X197950000Y-71100000D02*
X197344400Y-71705600D01*
X183997900Y-71705600D02*
X183700000Y-72003500D01*
X197344400Y-71705600D02*
X183997900Y-71705600D01*
X182877700Y-67850000D02*
X176450000Y-67850000D01*
%TO.N,Button_1*%
X171550000Y-92400000D02*
X174100000Y-92400000D01*
X174300000Y-92200000D02*
X174601600Y-91898400D01*
X172350000Y-73578200D02*
X172350000Y-72750000D01*
X174601600Y-75829800D02*
X172350000Y-73578200D01*
X174601600Y-91898400D02*
X174601600Y-75829800D01*
%TO.N,Button_2*%
X195600000Y-92300000D02*
X194448400Y-93451600D01*
X170248400Y-93451600D02*
X170248400Y-87643813D01*
X170248400Y-87643813D02*
X173851600Y-84040613D01*
X173851600Y-83051600D02*
X173001600Y-82201600D01*
X173001600Y-74951600D02*
X171550000Y-73500000D01*
X173001600Y-82201600D02*
X173001600Y-74951600D01*
X171550000Y-73500000D02*
X171550000Y-72750000D01*
X194448400Y-93451600D02*
X170248400Y-93451600D01*
%TO.N,RED_LED*%
X179228500Y-64650000D02*
X176450000Y-64650000D01*
X183875000Y-64600000D02*
X185425000Y-66150000D01*
X179278500Y-64600000D02*
X183875000Y-64600000D01*
%TO.N,GREEN_LED*%
X176476600Y-69423400D02*
X176450000Y-69450000D01*
X186746600Y-69423400D02*
X176476600Y-69423400D01*
X189960000Y-66210000D02*
X186746600Y-69423400D01*
%TO.N,a*%
X172508400Y-32808400D02*
X169851600Y-30151600D01*
X172508400Y-34795587D02*
X172508400Y-32808400D01*
X173272918Y-35560105D02*
X172508400Y-34795587D01*
X193003690Y-54373900D02*
X174189895Y-35560105D01*
X193550000Y-54373900D02*
X193003690Y-54373900D01*
X197587500Y-57675000D02*
X195451100Y-57675000D01*
X169851600Y-30151600D02*
X166926600Y-30151600D01*
X166926600Y-30151600D02*
X166150000Y-29375000D01*
X195451100Y-57675000D02*
X195400000Y-57726100D01*
%TO.N,Net-(U1-a)*%
X165940000Y-31410000D02*
X165940000Y-34360000D01*
X166150000Y-31200000D02*
X165940000Y-31410000D01*
%TO.N,b*%
X207700000Y-54841600D02*
X181995900Y-29137500D01*
X203312500Y-58325000D02*
X204318313Y-58325000D01*
X204318313Y-58325000D02*
X207700000Y-54943313D01*
X181995900Y-29137500D02*
X176150000Y-29137500D01*
%TO.N,Net-(U1-b)*%
X176150000Y-30962500D02*
X176100000Y-31012500D01*
X176100000Y-31012500D02*
X176100000Y-34360000D01*
%TO.N,c*%
X193172846Y-48814352D02*
X188435648Y-48814352D01*
X199629247Y-48179247D02*
X194520753Y-48179247D01*
X203967948Y-57675000D02*
X205700000Y-55942948D01*
X172201600Y-53583400D02*
X171200000Y-54585000D01*
X178781506Y-48750000D02*
X178240753Y-48209247D01*
X193254247Y-48895753D02*
X193172846Y-48814352D01*
X172201600Y-49298400D02*
X172201600Y-53583400D01*
X176249247Y-48200753D02*
X173299247Y-48200753D01*
X205700000Y-54250000D02*
X199629247Y-48179247D01*
X186350000Y-48750000D02*
X178781506Y-48750000D01*
X203312500Y-57675000D02*
X203967948Y-57675000D01*
%TO.N,Net-(U1-c)*%
X171020000Y-52580000D02*
X171020000Y-49600000D01*
X171200000Y-52760000D02*
X171020000Y-52580000D01*
%TO.N,d*%
X203312500Y-57025000D02*
X202577262Y-57025000D01*
X166607500Y-55142500D02*
X166050000Y-54585000D01*
X173893962Y-69945062D02*
X173300000Y-69351100D01*
X197343620Y-75450000D02*
X177250000Y-75450000D01*
X170199500Y-56849500D02*
X169700000Y-56849500D01*
X167329387Y-55142500D02*
X166607500Y-55142500D01*
X202577262Y-57025000D02*
X200911200Y-58691062D01*
X173300000Y-64152700D02*
X173250000Y-64102700D01*
X200911200Y-71882420D02*
X197343620Y-75450000D01*
X200911200Y-58691062D02*
X200911200Y-71882420D01*
X173300000Y-59950000D02*
X170199500Y-56849500D01*
X175101246Y-69945062D02*
X173893962Y-69945062D01*
X173300000Y-67948900D02*
X173300000Y-64152700D01*
%TO.N,Net-(U1-d)*%
X165940000Y-52650000D02*
X165940000Y-49600000D01*
X166050000Y-52760000D02*
X165940000Y-52650000D01*
%TO.N,e*%
X164708984Y-60258984D02*
X164708984Y-58208984D01*
X200508000Y-58524052D02*
X200508000Y-71715410D01*
X174100000Y-71000000D02*
X172325048Y-71000000D01*
X166550000Y-62700500D02*
X165866016Y-62016516D01*
X197519677Y-74703733D02*
X176067039Y-74703733D01*
X202657052Y-56375000D02*
X200508000Y-58524052D01*
X164708984Y-58208984D02*
X164303516Y-57803516D01*
X203312500Y-56375000D02*
X202657052Y-56375000D01*
X172325048Y-71000000D02*
X166587524Y-65262476D01*
X163171484Y-56521484D02*
X163400000Y-56292968D01*
X165866016Y-62016516D02*
X165866016Y-61516016D01*
X163400000Y-56292968D02*
X163400000Y-54510000D01*
%TO.N,Net-(U1-e)*%
X163400000Y-52685000D02*
X163400000Y-49600000D01*
%TO.N,f*%
X169687500Y-29337500D02*
X168550000Y-29337500D01*
X203312500Y-55725000D02*
X204537404Y-55725000D01*
X206401100Y-55250000D02*
X206401100Y-54380890D01*
X181971810Y-29951600D02*
X170301600Y-29951600D01*
X204537404Y-55725000D02*
X204998900Y-55263504D01*
X206401100Y-54380890D02*
X181971810Y-29951600D01*
%TO.N,Net-(U1-f)*%
X168480000Y-31232500D02*
X168480000Y-34360000D01*
X168550000Y-31162500D02*
X168480000Y-31232500D01*
%TO.N,g*%
X177433900Y-54485000D02*
X173850000Y-54485000D01*
X191287387Y-53649103D02*
X185651606Y-53649103D01*
X201416506Y-55075000D02*
X199852508Y-53511002D01*
X185651606Y-53649103D02*
X183250212Y-56050497D01*
X179048900Y-56100000D02*
X177433900Y-54485000D01*
X203312500Y-55075000D02*
X201416506Y-55075000D01*
%TO.N,Net-(U1-g)*%
X173850000Y-52660000D02*
X173560000Y-52370000D01*
X173560000Y-52370000D02*
X173560000Y-49600000D01*
%TO.N,dp*%
X179048900Y-57100000D02*
X177389300Y-55440400D01*
X203967948Y-54425000D02*
X204400000Y-53992948D01*
X169467900Y-55440400D02*
X168550000Y-54522500D01*
X185944354Y-54355858D02*
X183250212Y-57050000D01*
X193681491Y-52920753D02*
X193139788Y-53462456D01*
X177389300Y-55440400D02*
X169467900Y-55440400D01*
X197279247Y-52920753D02*
X193681491Y-52920753D01*
X204400000Y-53557052D02*
X203647195Y-52804247D01*
X203312500Y-54425000D02*
X203967948Y-54425000D01*
X191994142Y-54355858D02*
X185944354Y-54355858D01*
X203647195Y-52804247D02*
X199145753Y-52804247D01*
%TO.N,Net-(U1-DPX)*%
X168550000Y-52697500D02*
X168480000Y-52627500D01*
X168480000Y-52627500D02*
X168480000Y-49600000D01*
D41*
%TO.N,USB_CONN_D+*%
X141600000Y-64400000D02*
X142638603Y-64400000D01*
X142788603Y-64550000D02*
X145862500Y-64550000D01*
%TO.N,USB_CONN_D-*%
X144062500Y-63839950D02*
X144062500Y-63260050D01*
X141575000Y-62700000D02*
X142974999Y-64099999D01*
X145512500Y-63000000D02*
X145862500Y-62650000D01*
X144472550Y-62850000D02*
X145052450Y-62850000D01*
X145202450Y-63000000D02*
X145512500Y-63000000D01*
X142974999Y-64099999D02*
X144322549Y-64099999D01*
D40*
%TO.N,Dig4*%
X179544538Y-65450000D02*
X179693438Y-65301100D01*
X179750000Y-53250000D02*
X176100000Y-49600000D01*
X179750000Y-58171500D02*
X179750000Y-53250000D01*
X176450000Y-65450000D02*
X179544538Y-65450000D01*
%TO.N,Dig3*%
X174611600Y-35411600D02*
X173560000Y-34360000D01*
X175360284Y-73996978D02*
X197656222Y-73996978D01*
X200104800Y-71548400D02*
X200104800Y-54754800D01*
X200104800Y-54754800D02*
X180761600Y-35411600D01*
X166750000Y-73617516D02*
X166496016Y-73871500D01*
X180761600Y-35411600D02*
X174611600Y-35411600D01*
X166750000Y-72750000D02*
X166750000Y-73617516D01*
%TO.N,Dig2*%
X160871484Y-58821484D02*
X160871484Y-45328516D01*
X176450000Y-68650000D02*
X170966555Y-68650000D01*
X160871484Y-45328516D02*
X167124247Y-39075753D01*
X168065753Y-38034247D02*
X168065753Y-37314247D01*
X168065753Y-37314247D02*
X171020000Y-34360000D01*
X170966555Y-68650000D02*
X166419255Y-64102700D01*
%TO.N,Dig1*%
X177429600Y-63850000D02*
X176450000Y-63850000D01*
X163400000Y-34360000D02*
X182549112Y-53509112D01*
X182549112Y-53509112D02*
X182549112Y-57792080D01*
X180700000Y-60579600D02*
X177429600Y-63850000D01*
%TO.N,SH_CP*%
X186525000Y-55075000D02*
X183500000Y-58100000D01*
X165900000Y-63050000D02*
X165050000Y-63050000D01*
X174190613Y-63401600D02*
X166251600Y-63401600D01*
X197587500Y-55075000D02*
X186525000Y-55075000D01*
X183500000Y-59878500D02*
X177713713Y-59878500D01*
X177713713Y-59878500D02*
X174190613Y-63401600D01*
%TO.N,ST_CP*%
X184499503Y-59878500D02*
X186239100Y-61618097D01*
X197587500Y-55725000D02*
X186899677Y-55725000D01*
X186239100Y-61618097D02*
X186239100Y-66828480D01*
X186899677Y-55725000D02*
X184499177Y-58125500D01*
X185915980Y-67151600D02*
X176551600Y-67151600D01*
X176551600Y-67151600D02*
X176450000Y-67050000D01*
%TO.N,DS*%
X197587500Y-57025000D02*
X186600500Y-57025000D01*
X185500000Y-58116184D02*
X185508092Y-58108092D01*
X182700000Y-65301100D02*
X181751100Y-66250000D01*
X184633814Y-61004317D02*
X182750000Y-62888131D01*
X182750000Y-62888131D02*
X182750000Y-63898900D01*
X186600500Y-57025000D02*
X185500000Y-58125500D01*
X181751100Y-66250000D02*
X176450000Y-66250000D01*
D41*
%TO.N,USB_D-*%
X163924999Y-64650000D02*
X165050000Y-64650000D01*
X150661396Y-64825000D02*
X163749999Y-64825000D01*
X148137500Y-62650000D02*
X148487500Y-63000000D01*
X148836396Y-63000000D02*
X150661396Y-64825000D01*
%TO.N,USB_D+*%
X148137500Y-64550000D02*
X149401103Y-64550000D01*
X163924999Y-65450000D02*
X165050000Y-65450000D01*
X150126103Y-65275000D02*
X163749999Y-65275000D01*
%TD*%
M02*
