%TF.GenerationSoftware,KiCad,Pcbnew,7.0.1-0*%
%TF.CreationDate,2023-04-20T13:11:41-06:00*%
%TF.ProjectId,Phase_B_ATMEGA_v3,50686173-655f-4425-9f41-544d4547415f,rev?*%
%TF.SameCoordinates,Original*%
%TF.FileFunction,Paste,Top*%
%TF.FilePolarity,Positive*%
%FSLAX46Y46*%
G04 Gerber Fmt 4.6, Leading zero omitted, Abs format (unit mm)*
G04 Created by KiCad (PCBNEW 7.0.1-0) date 2023-04-20 13:11:41*
%MOMM*%
%LPD*%
G01*
G04 APERTURE LIST*
G04 Aperture macros list*
%AMRoundRect*
0 Rectangle with rounded corners*
0 $1 Rounding radius*
0 $2 $3 $4 $5 $6 $7 $8 $9 X,Y pos of 4 corners*
0 Add a 4 corners polygon primitive as box body*
4,1,4,$2,$3,$4,$5,$6,$7,$8,$9,$2,$3,0*
0 Add four circle primitives for the rounded corners*
1,1,$1+$1,$2,$3*
1,1,$1+$1,$4,$5*
1,1,$1+$1,$6,$7*
1,1,$1+$1,$8,$9*
0 Add four rect primitives between the rounded corners*
20,1,$1+$1,$2,$3,$4,$5,0*
20,1,$1+$1,$4,$5,$6,$7,0*
20,1,$1+$1,$6,$7,$8,$9,0*
20,1,$1+$1,$8,$9,$2,$3,0*%
G04 Aperture macros list end*
%ADD10RoundRect,0.225000X-0.225000X-0.250000X0.225000X-0.250000X0.225000X0.250000X-0.225000X0.250000X0*%
%ADD11RoundRect,0.225000X0.250000X-0.225000X0.250000X0.225000X-0.250000X0.225000X-0.250000X-0.225000X0*%
%ADD12RoundRect,0.250000X-0.312500X-1.450000X0.312500X-1.450000X0.312500X1.450000X-0.312500X1.450000X0*%
%ADD13RoundRect,0.250000X0.450000X-0.262500X0.450000X0.262500X-0.450000X0.262500X-0.450000X-0.262500X0*%
%ADD14R,2.000000X1.500000*%
%ADD15RoundRect,0.243750X-0.243750X-0.456250X0.243750X-0.456250X0.243750X0.456250X-0.243750X0.456250X0*%
%ADD16RoundRect,0.250000X-0.262500X-0.450000X0.262500X-0.450000X0.262500X0.450000X-0.262500X0.450000X0*%
%ADD17RoundRect,0.200000X0.200000X0.275000X-0.200000X0.275000X-0.200000X-0.275000X0.200000X-0.275000X0*%
%ADD18RoundRect,0.250000X0.250000X0.475000X-0.250000X0.475000X-0.250000X-0.475000X0.250000X-0.475000X0*%
%ADD19RoundRect,0.100000X0.637500X0.100000X-0.637500X0.100000X-0.637500X-0.100000X0.637500X-0.100000X0*%
%ADD20R,1.700000X2.000000*%
%ADD21R,2.000000X0.500000*%
%ADD22RoundRect,0.250000X-0.450000X0.262500X-0.450000X-0.262500X0.450000X-0.262500X0.450000X0.262500X0*%
%ADD23R,1.000000X0.700000*%
%ADD24RoundRect,0.200000X-0.200000X-0.275000X0.200000X-0.275000X0.200000X0.275000X-0.200000X0.275000X0*%
%ADD25RoundRect,0.150000X-0.512500X-0.150000X0.512500X-0.150000X0.512500X0.150000X-0.512500X0.150000X0*%
%ADD26RoundRect,0.200000X-0.275000X0.200000X-0.275000X-0.200000X0.275000X-0.200000X0.275000X0.200000X0*%
%ADD27R,1.400000X1.200000*%
%ADD28RoundRect,0.225000X-0.250000X0.225000X-0.250000X-0.225000X0.250000X-0.225000X0.250000X0.225000X0*%
%ADD29RoundRect,0.225000X0.225000X0.250000X-0.225000X0.250000X-0.225000X-0.250000X0.225000X-0.250000X0*%
%ADD30R,0.550000X1.500000*%
%ADD31R,1.500000X0.550000*%
G04 APERTURE END LIST*
D10*
%TO.C,C15*%
X148100000Y-75450000D03*
X146550000Y-75450000D03*
%TD*%
D11*
%TO.C,C5*%
X166750000Y-57875000D03*
X166750000Y-59425000D03*
%TD*%
D12*
%TO.C,F1*%
X144287500Y-57100000D03*
X140012500Y-57100000D03*
%TD*%
D10*
%TO.C,C2*%
X167950000Y-83500000D03*
X166400000Y-83500000D03*
%TD*%
D13*
%TO.C,R7*%
X171200000Y-52760000D03*
X171200000Y-54585000D03*
%TD*%
D10*
%TO.C,C3*%
X175400000Y-81800000D03*
X173850000Y-81800000D03*
%TD*%
D13*
%TO.C,R9*%
X163400000Y-52685000D03*
X163400000Y-54510000D03*
%TD*%
D14*
%TO.C,S1*%
X171550000Y-97400000D03*
X157250000Y-97400000D03*
X171550000Y-92400000D03*
X157250000Y-92400000D03*
%TD*%
D15*
%TO.C,D1*%
X187237500Y-64050000D03*
X185362500Y-64050000D03*
%TD*%
D14*
%TO.C,S2*%
X195600000Y-97300000D03*
X181300000Y-97300000D03*
X195600000Y-92300000D03*
X181300000Y-92300000D03*
%TD*%
D13*
%TO.C,R11*%
X173850000Y-52660000D03*
X173850000Y-54485000D03*
%TD*%
D16*
%TO.C,R2*%
X200325000Y-92250000D03*
X198500000Y-92250000D03*
%TD*%
D17*
%TO.C,R17*%
X136815000Y-85290000D03*
X138465000Y-85290000D03*
%TD*%
D18*
%TO.C,C8*%
X161250000Y-61650000D03*
X163150000Y-61650000D03*
%TD*%
D19*
%TO.C,U2*%
X197587500Y-58325000D03*
X197587500Y-57675000D03*
X197587500Y-57025000D03*
X197587500Y-56375000D03*
X197587500Y-55725000D03*
X197587500Y-55075000D03*
X197587500Y-54425000D03*
X197587500Y-53775000D03*
X203312500Y-53775000D03*
X203312500Y-54425000D03*
X203312500Y-55075000D03*
X203312500Y-55725000D03*
X203312500Y-56375000D03*
X203312500Y-57025000D03*
X203312500Y-57675000D03*
X203312500Y-58325000D03*
%TD*%
D20*
%TO.C,J2*%
X131175000Y-68850000D03*
X136625000Y-68850000D03*
X131175000Y-59950000D03*
X136625000Y-59950000D03*
D21*
X136725000Y-66000000D03*
X136725000Y-65200000D03*
X136725000Y-64400000D03*
X136725000Y-63600000D03*
X136725000Y-62800000D03*
%TD*%
D13*
%TO.C,R12*%
X168550000Y-52697500D03*
X168550000Y-54522500D03*
%TD*%
D15*
%TO.C,D2*%
X191850000Y-64150000D03*
X189975000Y-64150000D03*
%TD*%
D22*
%TO.C,R6*%
X176150000Y-30962500D03*
X176150000Y-29137500D03*
%TD*%
D23*
%TO.C,S3*%
X151600000Y-79200000D03*
X157600000Y-79200000D03*
X151600000Y-82900000D03*
X157600000Y-82900000D03*
%TD*%
D15*
%TO.C,D3*%
X152800000Y-55100000D03*
X150925000Y-55100000D03*
%TD*%
D24*
%TO.C,R14*%
X141600000Y-64400000D03*
X139950000Y-64400000D03*
%TD*%
D25*
%TO.C,U5*%
X144600000Y-73600000D03*
X144600000Y-75500000D03*
X142325000Y-75500000D03*
X142325000Y-74550000D03*
X142325000Y-73600000D03*
%TD*%
D16*
%TO.C,R1*%
X176125000Y-92200000D03*
X174300000Y-92200000D03*
%TD*%
D10*
%TO.C,C14*%
X148100000Y-73550000D03*
X146550000Y-73550000D03*
%TD*%
D13*
%TO.C,R8*%
X166050000Y-52760000D03*
X166050000Y-54585000D03*
%TD*%
D26*
%TO.C,R13*%
X159150000Y-79100000D03*
X159150000Y-77450000D03*
%TD*%
D22*
%TO.C,R10*%
X168550000Y-31162500D03*
X168550000Y-29337500D03*
%TD*%
%TO.C,R5*%
X166150000Y-31200000D03*
X166150000Y-29375000D03*
%TD*%
D10*
%TO.C,C11*%
X179975000Y-70200000D03*
X178425000Y-70200000D03*
%TD*%
D27*
%TO.C,Y1*%
X169800000Y-81850000D03*
X172000000Y-81850000D03*
X172000000Y-83550000D03*
X169800000Y-83550000D03*
%TD*%
D24*
%TO.C,R15*%
X141575000Y-62700000D03*
X139925000Y-62700000D03*
%TD*%
D16*
%TO.C,R3*%
X187250000Y-66150000D03*
X185425000Y-66150000D03*
%TD*%
D24*
%TO.C,R16*%
X152645000Y-57015000D03*
X150995000Y-57015000D03*
%TD*%
D28*
%TO.C,C6*%
X168400000Y-76225000D03*
X168400000Y-74675000D03*
%TD*%
D11*
%TO.C,C4*%
X174800000Y-57850000D03*
X174800000Y-59400000D03*
%TD*%
D29*
%TO.C,C7*%
X161625000Y-63500000D03*
X163175000Y-63500000D03*
%TD*%
D16*
%TO.C,R4*%
X191785000Y-66210000D03*
X189960000Y-66210000D03*
%TD*%
D30*
%TO.C,U3*%
X166750000Y-61350000D03*
X167550000Y-61350000D03*
X168350000Y-61350000D03*
X169150000Y-61350000D03*
X169950000Y-61350000D03*
X170750000Y-61350000D03*
X171550000Y-61350000D03*
X172350000Y-61350000D03*
X173150000Y-61350000D03*
X173950000Y-61350000D03*
X174750000Y-61350000D03*
D31*
X176450000Y-63050000D03*
X176450000Y-63850000D03*
X176450000Y-64650000D03*
X176450000Y-65450000D03*
X176450000Y-66250000D03*
X176450000Y-67050000D03*
X176450000Y-67850000D03*
X176450000Y-68650000D03*
X176450000Y-69450000D03*
X176450000Y-70250000D03*
X176450000Y-71050000D03*
D30*
X174750000Y-72750000D03*
X173950000Y-72750000D03*
X173150000Y-72750000D03*
X172350000Y-72750000D03*
X171550000Y-72750000D03*
X170750000Y-72750000D03*
X169950000Y-72750000D03*
X169150000Y-72750000D03*
X168350000Y-72750000D03*
X167550000Y-72750000D03*
X166750000Y-72750000D03*
D31*
X165050000Y-71050000D03*
X165050000Y-70250000D03*
X165050000Y-69450000D03*
X165050000Y-68650000D03*
X165050000Y-67850000D03*
X165050000Y-67050000D03*
X165050000Y-66250000D03*
X165050000Y-65450000D03*
X165050000Y-64650000D03*
X165050000Y-63850000D03*
X165050000Y-63050000D03*
%TD*%
D29*
%TO.C,C10*%
X161600000Y-68650000D03*
X163150000Y-68650000D03*
%TD*%
D25*
%TO.C,U4*%
X148137500Y-62650000D03*
X148137500Y-63600000D03*
X148137500Y-64550000D03*
X145862500Y-64550000D03*
X145862500Y-63600000D03*
X145862500Y-62650000D03*
%TD*%
D28*
%TO.C,C13*%
X140500000Y-77225000D03*
X140500000Y-75675000D03*
%TD*%
D29*
%TO.C,C9*%
X161600000Y-67050000D03*
X163150000Y-67050000D03*
%TD*%
%TO.C,C1*%
X192925000Y-59900000D03*
X194475000Y-59900000D03*
%TD*%
D11*
%TO.C,C12*%
X168500000Y-57850000D03*
X168500000Y-59400000D03*
%TD*%
M02*
