<?xml version="1.0" standalone="no"?>
 <!DOCTYPE svg PUBLIC "-//W3C//DTD SVG 1.1//EN" 
 "http://www.w3.org/Graphics/SVG/1.1/DTD/svg11.dtd"> 
<svg
  xmlns:svg="http://www.w3.org/2000/svg"
  xmlns="http://www.w3.org/2000/svg"
  xmlns:xlink="http://www.w3.org/1999/xlink"
  version="1.1"
  width="297.0022mm" height="210.0072mm" viewBox="0.0000 0.0000 297.0022 210.0072">
<title>SVG Image created as Phase_B_ATMEGA_v3-F_Courtyard.svg date 2023/04/20 13:25:54 </title>
  <desc>Image generated by PCBNEW </desc>
<g style="fill:#000000; fill-opacity:1.0000;stroke:#000000; stroke-opacity:1.0000;
stroke-linecap:round; stroke-linejoin:round;"
 transform="translate(0 0) scale(1 1)">
</g>
<g style="fill:#000000; fill-opacity:0.0; 
stroke:#000000; stroke-width:0.0000; stroke-opacity:1; 
stroke-linecap:round; stroke-linejoin:round;">
</g>
<g style="fill:#000000; fill-opacity:0.0; 
stroke:#000000; stroke-width:0.0212; stroke-opacity:1; 
stroke-linecap:round; stroke-linejoin:round;">
</g>
<g style="fill:#000000; fill-opacity:0.0; 
stroke:#000000; stroke-width:0.1500; stroke-opacity:1; 
stroke-linecap:round; stroke-linejoin:round;">
<path d="M177.0022 166.0072
L285.0022 166.0072
L285.0022 198.0072
L177.0022 198.0072
L177.0022 166.0072
" />
</g>
<g style="fill:#000000; fill-opacity:0.0; 
stroke:#000000; stroke-width:0.0212; stroke-opacity:1; 
stroke-linecap:round; stroke-linejoin:round;">
</g>
<g style="fill:#000000; fill-opacity:0.0; 
stroke:#000000; stroke-width:0.1500; stroke-opacity:1; 
stroke-linecap:round; stroke-linejoin:round;">
<path d="M10.0000 10.0000
L287.0022 10.0000
L287.0022 200.0072
L10.0000 200.0072
L10.0000 10.0000
" />
</g>
<g style="fill:#000000; fill-opacity:0.0; 
stroke:#000000; stroke-width:0.0212; stroke-opacity:1; 
stroke-linecap:round; stroke-linejoin:round;">
</g>
<g style="fill:#000000; fill-opacity:0.0; 
stroke:#000000; stroke-width:0.1500; stroke-opacity:1; 
stroke-linecap:round; stroke-linejoin:round;">
<path d="M12.0000 12.0000
L285.0022 12.0000
L285.0022 198.0072
L12.0000 198.0072
L12.0000 12.0000
" />
</g>
<g style="fill:#000000; fill-opacity:0.0; 
stroke:#000000; stroke-width:0.0212; stroke-opacity:1; 
stroke-linecap:round; stroke-linejoin:round;">
</g>
<g style="fill:#000000; fill-opacity:0.0; 
stroke:#000000; stroke-width:0.1500; stroke-opacity:1; 
stroke-linecap:round; stroke-linejoin:round;">
<path d="M60.0000 12.0000
L60.0000 10.0000
" />
</g>
<g style="fill:#000000; fill-opacity:0.0; 
stroke:#000000; stroke-width:0.0212; stroke-opacity:1; 
stroke-linecap:round; stroke-linejoin:round;">
</g>
<g style="fill:#000000; fill-opacity:0.0; 
stroke:#000000; stroke-width:0.1500; stroke-opacity:1; 
stroke-linecap:round; stroke-linejoin:round;">
<path d="M110.0000 12.0000
L110.0000 10.0000
" />
</g>
<g style="fill:#000000; fill-opacity:0.0; 
stroke:#000000; stroke-width:0.0212; stroke-opacity:1; 
stroke-linecap:round; stroke-linejoin:round;">
</g>
<g style="fill:#000000; fill-opacity:0.0; 
stroke:#000000; stroke-width:0.1500; stroke-opacity:1; 
stroke-linecap:round; stroke-linejoin:round;">
<path d="M160.0000 12.0000
L160.0000 10.0000
" />
</g>
<g style="fill:#000000; fill-opacity:0.0; 
stroke:#000000; stroke-width:0.0212; stroke-opacity:1; 
stroke-linecap:round; stroke-linejoin:round;">
</g>
<g style="fill:#000000; fill-opacity:0.0; 
stroke:#000000; stroke-width:0.1500; stroke-opacity:1; 
stroke-linecap:round; stroke-linejoin:round;">
<path d="M210.0000 12.0000
L210.0000 10.0000
" />
</g>
<g style="fill:#000000; fill-opacity:0.0; 
stroke:#000000; stroke-width:0.0212; stroke-opacity:1; 
stroke-linecap:round; stroke-linejoin:round;">
</g>
<g style="fill:#000000; fill-opacity:0.0; 
stroke:#000000; stroke-width:0.1500; stroke-opacity:1; 
stroke-linecap:round; stroke-linejoin:round;">
<path d="M260.0000 12.0000
L260.0000 10.0000
" />
</g>
<g style="fill:#000000; fill-opacity:0.0; 
stroke:#000000; stroke-width:0.0212; stroke-opacity:1; 
stroke-linecap:round; stroke-linejoin:round;">
</g>
<g style="fill:#000000; fill-opacity:0.0; 
stroke:#000000; stroke-width:0.1500; stroke-opacity:1; 
stroke-linecap:round; stroke-linejoin:round;">
<text x="35.0000" y="11.6500"
textLength="1.3531" font-size="1.7333" lengthAdjust="spacingAndGlyphs"
text-anchor="start" opacity="0">1</text>
<g class="stroked-text"><desc>1</desc>
<path d="M35.9905 11.6014
L35.2476 11.6014
" />
<path d="M35.6190 11.6014
L35.6190 10.3014
" />
<path d="M35.6190 10.3014
L35.4952 10.4871
" />
<path d="M35.4952 10.4871
L35.3714 10.6109
" />
<path d="M35.3714 10.6109
L35.2476 10.6728
" />
</g></g>
<g style="fill:#000000; fill-opacity:0.0; 
stroke:#000000; stroke-width:0.0212; stroke-opacity:1; 
stroke-linecap:round; stroke-linejoin:round;">
</g>
<g style="fill:#000000; fill-opacity:0.0; 
stroke:#000000; stroke-width:0.1500; stroke-opacity:1; 
stroke-linecap:round; stroke-linejoin:round;">
<text x="85.0000" y="11.6500"
textLength="1.3531" font-size="1.7333" lengthAdjust="spacingAndGlyphs"
text-anchor="start" opacity="0">2</text>
<g class="stroked-text"><desc>2</desc>
<path d="M85.2476 10.4252
L85.3095 10.3633
" />
<path d="M85.3095 10.3633
L85.4333 10.3014
" />
<path d="M85.4333 10.3014
L85.7429 10.3014
" />
<path d="M85.7429 10.3014
L85.8667 10.3633
" />
<path d="M85.8667 10.3633
L85.9286 10.4252
" />
<path d="M85.9286 10.4252
L85.9905 10.5490
" />
<path d="M85.9905 10.5490
L85.9905 10.6728
" />
<path d="M85.9905 10.6728
L85.9286 10.8585
" />
<path d="M85.9286 10.8585
L85.1857 11.6014
" />
<path d="M85.1857 11.6014
L85.9905 11.6014
" />
</g></g>
<g style="fill:#000000; fill-opacity:0.0; 
stroke:#000000; stroke-width:0.0212; stroke-opacity:1; 
stroke-linecap:round; stroke-linejoin:round;">
</g>
<g style="fill:#000000; fill-opacity:0.0; 
stroke:#000000; stroke-width:0.1500; stroke-opacity:1; 
stroke-linecap:round; stroke-linejoin:round;">
<text x="135.0000" y="11.6500"
textLength="1.3531" font-size="1.7333" lengthAdjust="spacingAndGlyphs"
text-anchor="start" opacity="0">3</text>
<g class="stroked-text"><desc>3</desc>
<path d="M135.1857 10.3014
L135.9905 10.3014
" />
<path d="M135.9905 10.3014
L135.5571 10.7966
" />
<path d="M135.5571 10.7966
L135.7429 10.7966
" />
<path d="M135.7429 10.7966
L135.8667 10.8585
" />
<path d="M135.8667 10.8585
L135.9286 10.9205
" />
<path d="M135.9286 10.9205
L135.9905 11.0443
" />
<path d="M135.9905 11.0443
L135.9905 11.3538
" />
<path d="M135.9905 11.3538
L135.9286 11.4776
" />
<path d="M135.9286 11.4776
L135.8667 11.5395
" />
<path d="M135.8667 11.5395
L135.7429 11.6014
" />
<path d="M135.7429 11.6014
L135.3714 11.6014
" />
<path d="M135.3714 11.6014
L135.2476 11.5395
" />
<path d="M135.2476 11.5395
L135.1857 11.4776
" />
</g></g>
<g style="fill:#000000; fill-opacity:0.0; 
stroke:#000000; stroke-width:0.0212; stroke-opacity:1; 
stroke-linecap:round; stroke-linejoin:round;">
</g>
<g style="fill:#000000; fill-opacity:0.0; 
stroke:#000000; stroke-width:0.1500; stroke-opacity:1; 
stroke-linecap:round; stroke-linejoin:round;">
<text x="185.0000" y="11.6500"
textLength="1.3531" font-size="1.7333" lengthAdjust="spacingAndGlyphs"
text-anchor="start" opacity="0">4</text>
<g class="stroked-text"><desc>4</desc>
<path d="M185.8667 10.7347
L185.8667 11.6014
" />
<path d="M185.5571 10.2395
L185.2476 11.1681
" />
<path d="M185.2476 11.1681
L186.0524 11.1681
" />
</g></g>
<g style="fill:#000000; fill-opacity:0.0; 
stroke:#000000; stroke-width:0.0212; stroke-opacity:1; 
stroke-linecap:round; stroke-linejoin:round;">
</g>
<g style="fill:#000000; fill-opacity:0.0; 
stroke:#000000; stroke-width:0.1500; stroke-opacity:1; 
stroke-linecap:round; stroke-linejoin:round;">
<text x="235.0000" y="11.6500"
textLength="1.3531" font-size="1.7333" lengthAdjust="spacingAndGlyphs"
text-anchor="start" opacity="0">5</text>
<g class="stroked-text"><desc>5</desc>
<path d="M235.9286 10.3014
L235.3095 10.3014
" />
<path d="M235.3095 10.3014
L235.2476 10.9205
" />
<path d="M235.2476 10.9205
L235.3095 10.8585
" />
<path d="M235.3095 10.8585
L235.4333 10.7966
" />
<path d="M235.4333 10.7966
L235.7429 10.7966
" />
<path d="M235.7429 10.7966
L235.8667 10.8585
" />
<path d="M235.8667 10.8585
L235.9286 10.9205
" />
<path d="M235.9286 10.9205
L235.9905 11.0443
" />
<path d="M235.9905 11.0443
L235.9905 11.3538
" />
<path d="M235.9905 11.3538
L235.9286 11.4776
" />
<path d="M235.9286 11.4776
L235.8667 11.5395
" />
<path d="M235.8667 11.5395
L235.7429 11.6014
" />
<path d="M235.7429 11.6014
L235.4333 11.6014
" />
<path d="M235.4333 11.6014
L235.3095 11.5395
" />
<path d="M235.3095 11.5395
L235.2476 11.4776
" />
</g></g>
<g style="fill:#000000; fill-opacity:0.0; 
stroke:#000000; stroke-width:0.0212; stroke-opacity:1; 
stroke-linecap:round; stroke-linejoin:round;">
</g>
<g style="fill:#000000; fill-opacity:0.0; 
stroke:#000000; stroke-width:0.1500; stroke-opacity:1; 
stroke-linecap:round; stroke-linejoin:round;">
<text x="285.0000" y="11.6500"
textLength="1.3531" font-size="1.7333" lengthAdjust="spacingAndGlyphs"
text-anchor="start" opacity="0">6</text>
<g class="stroked-text"><desc>6</desc>
<path d="M285.8667 10.3014
L285.6190 10.3014
" />
<path d="M285.6190 10.3014
L285.4952 10.3633
" />
<path d="M285.4952 10.3633
L285.4333 10.4252
" />
<path d="M285.4333 10.4252
L285.3095 10.6109
" />
<path d="M285.3095 10.6109
L285.2476 10.8585
" />
<path d="M285.2476 10.8585
L285.2476 11.3538
" />
<path d="M285.2476 11.3538
L285.3095 11.4776
" />
<path d="M285.3095 11.4776
L285.3714 11.5395
" />
<path d="M285.3714 11.5395
L285.4952 11.6014
" />
<path d="M285.4952 11.6014
L285.7429 11.6014
" />
<path d="M285.7429 11.6014
L285.8667 11.5395
" />
<path d="M285.8667 11.5395
L285.9286 11.4776
" />
<path d="M285.9286 11.4776
L285.9905 11.3538
" />
<path d="M285.9905 11.3538
L285.9905 11.0443
" />
<path d="M285.9905 11.0443
L285.9286 10.9205
" />
<path d="M285.9286 10.9205
L285.8667 10.8585
" />
<path d="M285.8667 10.8585
L285.7429 10.7966
" />
<path d="M285.7429 10.7966
L285.4952 10.7966
" />
<path d="M285.4952 10.7966
L285.3714 10.8585
" />
<path d="M285.3714 10.8585
L285.3095 10.9205
" />
<path d="M285.3095 10.9205
L285.2476 11.0443
" />
</g></g>
<g style="fill:#000000; fill-opacity:0.0; 
stroke:#000000; stroke-width:0.0212; stroke-opacity:1; 
stroke-linecap:round; stroke-linejoin:round;">
</g>
<g style="fill:#000000; fill-opacity:0.0; 
stroke:#000000; stroke-width:0.1500; stroke-opacity:1; 
stroke-linecap:round; stroke-linejoin:round;">
<path d="M60.0000 198.0072
L60.0000 200.0072
" />
</g>
<g style="fill:#000000; fill-opacity:0.0; 
stroke:#000000; stroke-width:0.0212; stroke-opacity:1; 
stroke-linecap:round; stroke-linejoin:round;">
</g>
<g style="fill:#000000; fill-opacity:0.0; 
stroke:#000000; stroke-width:0.1500; stroke-opacity:1; 
stroke-linecap:round; stroke-linejoin:round;">
<path d="M110.0000 198.0072
L110.0000 200.0072
" />
</g>
<g style="fill:#000000; fill-opacity:0.0; 
stroke:#000000; stroke-width:0.0212; stroke-opacity:1; 
stroke-linecap:round; stroke-linejoin:round;">
</g>
<g style="fill:#000000; fill-opacity:0.0; 
stroke:#000000; stroke-width:0.1500; stroke-opacity:1; 
stroke-linecap:round; stroke-linejoin:round;">
<path d="M160.0000 198.0072
L160.0000 200.0072
" />
</g>
<g style="fill:#000000; fill-opacity:0.0; 
stroke:#000000; stroke-width:0.0212; stroke-opacity:1; 
stroke-linecap:round; stroke-linejoin:round;">
</g>
<g style="fill:#000000; fill-opacity:0.0; 
stroke:#000000; stroke-width:0.1500; stroke-opacity:1; 
stroke-linecap:round; stroke-linejoin:round;">
<path d="M210.0000 198.0072
L210.0000 200.0072
" />
</g>
<g style="fill:#000000; fill-opacity:0.0; 
stroke:#000000; stroke-width:0.0212; stroke-opacity:1; 
stroke-linecap:round; stroke-linejoin:round;">
</g>
<g style="fill:#000000; fill-opacity:0.0; 
stroke:#000000; stroke-width:0.1500; stroke-opacity:1; 
stroke-linecap:round; stroke-linejoin:round;">
<path d="M260.0000 198.0072
L260.0000 200.0072
" />
</g>
<g style="fill:#000000; fill-opacity:0.0; 
stroke:#000000; stroke-width:0.0212; stroke-opacity:1; 
stroke-linecap:round; stroke-linejoin:round;">
</g>
<g style="fill:#000000; fill-opacity:0.0; 
stroke:#000000; stroke-width:0.1500; stroke-opacity:1; 
stroke-linecap:round; stroke-linejoin:round;">
<text x="35.0000" y="199.6572"
textLength="1.3531" font-size="1.7333" lengthAdjust="spacingAndGlyphs"
text-anchor="start" opacity="0">1</text>
<g class="stroked-text"><desc>1</desc>
<path d="M35.9905 199.6086
L35.2476 199.6086
" />
<path d="M35.6190 199.6086
L35.6190 198.3086
" />
<path d="M35.6190 198.3086
L35.4952 198.4943
" />
<path d="M35.4952 198.4943
L35.3714 198.6181
" />
<path d="M35.3714 198.6181
L35.2476 198.6800
" />
</g></g>
<g style="fill:#000000; fill-opacity:0.0; 
stroke:#000000; stroke-width:0.0212; stroke-opacity:1; 
stroke-linecap:round; stroke-linejoin:round;">
</g>
<g style="fill:#000000; fill-opacity:0.0; 
stroke:#000000; stroke-width:0.1500; stroke-opacity:1; 
stroke-linecap:round; stroke-linejoin:round;">
<text x="85.0000" y="199.6572"
textLength="1.3531" font-size="1.7333" lengthAdjust="spacingAndGlyphs"
text-anchor="start" opacity="0">2</text>
<g class="stroked-text"><desc>2</desc>
<path d="M85.2476 198.4324
L85.3095 198.3705
" />
<path d="M85.3095 198.3705
L85.4333 198.3086
" />
<path d="M85.4333 198.3086
L85.7429 198.3086
" />
<path d="M85.7429 198.3086
L85.8667 198.3705
" />
<path d="M85.8667 198.3705
L85.9286 198.4324
" />
<path d="M85.9286 198.4324
L85.9905 198.5562
" />
<path d="M85.9905 198.5562
L85.9905 198.6800
" />
<path d="M85.9905 198.6800
L85.9286 198.8657
" />
<path d="M85.9286 198.8657
L85.1857 199.6086
" />
<path d="M85.1857 199.6086
L85.9905 199.6086
" />
</g></g>
<g style="fill:#000000; fill-opacity:0.0; 
stroke:#000000; stroke-width:0.0212; stroke-opacity:1; 
stroke-linecap:round; stroke-linejoin:round;">
</g>
<g style="fill:#000000; fill-opacity:0.0; 
stroke:#000000; stroke-width:0.1500; stroke-opacity:1; 
stroke-linecap:round; stroke-linejoin:round;">
<text x="135.0000" y="199.6572"
textLength="1.3531" font-size="1.7333" lengthAdjust="spacingAndGlyphs"
text-anchor="start" opacity="0">3</text>
<g class="stroked-text"><desc>3</desc>
<path d="M135.1857 198.3086
L135.9905 198.3086
" />
<path d="M135.9905 198.3086
L135.5571 198.8038
" />
<path d="M135.5571 198.8038
L135.7429 198.8038
" />
<path d="M135.7429 198.8038
L135.8667 198.8657
" />
<path d="M135.8667 198.8657
L135.9286 198.9277
" />
<path d="M135.9286 198.9277
L135.9905 199.0515
" />
<path d="M135.9905 199.0515
L135.9905 199.3610
" />
<path d="M135.9905 199.3610
L135.9286 199.4848
" />
<path d="M135.9286 199.4848
L135.8667 199.5467
" />
<path d="M135.8667 199.5467
L135.7429 199.6086
" />
<path d="M135.7429 199.6086
L135.3714 199.6086
" />
<path d="M135.3714 199.6086
L135.2476 199.5467
" />
<path d="M135.2476 199.5467
L135.1857 199.4848
" />
</g></g>
<g style="fill:#000000; fill-opacity:0.0; 
stroke:#000000; stroke-width:0.0212; stroke-opacity:1; 
stroke-linecap:round; stroke-linejoin:round;">
</g>
<g style="fill:#000000; fill-opacity:0.0; 
stroke:#000000; stroke-width:0.1500; stroke-opacity:1; 
stroke-linecap:round; stroke-linejoin:round;">
<text x="185.0000" y="199.6572"
textLength="1.3531" font-size="1.7333" lengthAdjust="spacingAndGlyphs"
text-anchor="start" opacity="0">4</text>
<g class="stroked-text"><desc>4</desc>
<path d="M185.8667 198.7419
L185.8667 199.6086
" />
<path d="M185.5571 198.2467
L185.2476 199.1753
" />
<path d="M185.2476 199.1753
L186.0524 199.1753
" />
</g></g>
<g style="fill:#000000; fill-opacity:0.0; 
stroke:#000000; stroke-width:0.0212; stroke-opacity:1; 
stroke-linecap:round; stroke-linejoin:round;">
</g>
<g style="fill:#000000; fill-opacity:0.0; 
stroke:#000000; stroke-width:0.1500; stroke-opacity:1; 
stroke-linecap:round; stroke-linejoin:round;">
<text x="235.0000" y="199.6572"
textLength="1.3531" font-size="1.7333" lengthAdjust="spacingAndGlyphs"
text-anchor="start" opacity="0">5</text>
<g class="stroked-text"><desc>5</desc>
<path d="M235.9286 198.3086
L235.3095 198.3086
" />
<path d="M235.3095 198.3086
L235.2476 198.9277
" />
<path d="M235.2476 198.9277
L235.3095 198.8657
" />
<path d="M235.3095 198.8657
L235.4333 198.8038
" />
<path d="M235.4333 198.8038
L235.7429 198.8038
" />
<path d="M235.7429 198.8038
L235.8667 198.8657
" />
<path d="M235.8667 198.8657
L235.9286 198.9277
" />
<path d="M235.9286 198.9277
L235.9905 199.0515
" />
<path d="M235.9905 199.0515
L235.9905 199.3610
" />
<path d="M235.9905 199.3610
L235.9286 199.4848
" />
<path d="M235.9286 199.4848
L235.8667 199.5467
" />
<path d="M235.8667 199.5467
L235.7429 199.6086
" />
<path d="M235.7429 199.6086
L235.4333 199.6086
" />
<path d="M235.4333 199.6086
L235.3095 199.5467
" />
<path d="M235.3095 199.5467
L235.2476 199.4848
" />
</g></g>
<g style="fill:#000000; fill-opacity:0.0; 
stroke:#000000; stroke-width:0.0212; stroke-opacity:1; 
stroke-linecap:round; stroke-linejoin:round;">
</g>
<g style="fill:#000000; fill-opacity:0.0; 
stroke:#000000; stroke-width:0.1500; stroke-opacity:1; 
stroke-linecap:round; stroke-linejoin:round;">
<text x="285.0000" y="199.6572"
textLength="1.3531" font-size="1.7333" lengthAdjust="spacingAndGlyphs"
text-anchor="start" opacity="0">6</text>
<g class="stroked-text"><desc>6</desc>
<path d="M285.8667 198.3086
L285.6190 198.3086
" />
<path d="M285.6190 198.3086
L285.4952 198.3705
" />
<path d="M285.4952 198.3705
L285.4333 198.4324
" />
<path d="M285.4333 198.4324
L285.3095 198.6181
" />
<path d="M285.3095 198.6181
L285.2476 198.8657
" />
<path d="M285.2476 198.8657
L285.2476 199.3610
" />
<path d="M285.2476 199.3610
L285.3095 199.4848
" />
<path d="M285.3095 199.4848
L285.3714 199.5467
" />
<path d="M285.3714 199.5467
L285.4952 199.6086
" />
<path d="M285.4952 199.6086
L285.7429 199.6086
" />
<path d="M285.7429 199.6086
L285.8667 199.5467
" />
<path d="M285.8667 199.5467
L285.9286 199.4848
" />
<path d="M285.9286 199.4848
L285.9905 199.3610
" />
<path d="M285.9905 199.3610
L285.9905 199.0515
" />
<path d="M285.9905 199.0515
L285.9286 198.9277
" />
<path d="M285.9286 198.9277
L285.8667 198.8657
" />
<path d="M285.8667 198.8657
L285.7429 198.8038
" />
<path d="M285.7429 198.8038
L285.4952 198.8038
" />
<path d="M285.4952 198.8038
L285.3714 198.8657
" />
<path d="M285.3714 198.8657
L285.3095 198.9277
" />
<path d="M285.3095 198.9277
L285.2476 199.0515
" />
</g></g>
<g style="fill:#000000; fill-opacity:0.0; 
stroke:#000000; stroke-width:0.0212; stroke-opacity:1; 
stroke-linecap:round; stroke-linejoin:round;">
</g>
<g style="fill:#000000; fill-opacity:0.0; 
stroke:#000000; stroke-width:0.1500; stroke-opacity:1; 
stroke-linecap:round; stroke-linejoin:round;">
<path d="M10.0000 60.0000
L12.0000 60.0000
" />
</g>
<g style="fill:#000000; fill-opacity:0.0; 
stroke:#000000; stroke-width:0.0212; stroke-opacity:1; 
stroke-linecap:round; stroke-linejoin:round;">
</g>
<g style="fill:#000000; fill-opacity:0.0; 
stroke:#000000; stroke-width:0.1500; stroke-opacity:1; 
stroke-linecap:round; stroke-linejoin:round;">
<path d="M10.0000 110.0000
L12.0000 110.0000
" />
</g>
<g style="fill:#000000; fill-opacity:0.0; 
stroke:#000000; stroke-width:0.0212; stroke-opacity:1; 
stroke-linecap:round; stroke-linejoin:round;">
</g>
<g style="fill:#000000; fill-opacity:0.0; 
stroke:#000000; stroke-width:0.1500; stroke-opacity:1; 
stroke-linecap:round; stroke-linejoin:round;">
<path d="M10.0000 160.0000
L12.0000 160.0000
" />
</g>
<g style="fill:#000000; fill-opacity:0.0; 
stroke:#000000; stroke-width:0.0212; stroke-opacity:1; 
stroke-linecap:round; stroke-linejoin:round;">
</g>
<g style="fill:#000000; fill-opacity:0.0; 
stroke:#000000; stroke-width:0.1500; stroke-opacity:1; 
stroke-linecap:round; stroke-linejoin:round;">
<text x="11.0000" y="35.6500"
textLength="1.2293" font-size="1.7333" lengthAdjust="spacingAndGlyphs"
text-anchor="middle" opacity="0">A</text>
<g class="stroked-text"><desc>A</desc>
<path d="M10.6905 35.2300
L11.3095 35.2300
" />
<path d="M10.5667 35.6014
L11.0000 34.3014
" />
<path d="M11.0000 34.3014
L11.4333 35.6014
" />
</g></g>
<g style="fill:#000000; fill-opacity:0.0; 
stroke:#000000; stroke-width:0.0212; stroke-opacity:1; 
stroke-linecap:round; stroke-linejoin:round;">
</g>
<g style="fill:#000000; fill-opacity:0.0; 
stroke:#000000; stroke-width:0.1500; stroke-opacity:1; 
stroke-linecap:round; stroke-linejoin:round;">
<text x="11.0000" y="85.6500"
textLength="1.4150" font-size="1.7333" lengthAdjust="spacingAndGlyphs"
text-anchor="middle" opacity="0">B</text>
<g class="stroked-text"><desc>B</desc>
<path d="M11.0929 84.9205
L11.2786 84.9824
" />
<path d="M11.2786 84.9824
L11.3405 85.0443
" />
<path d="M11.3405 85.0443
L11.4024 85.1681
" />
<path d="M11.4024 85.1681
L11.4024 85.3538
" />
<path d="M11.4024 85.3538
L11.3405 85.4776
" />
<path d="M11.3405 85.4776
L11.2786 85.5395
" />
<path d="M11.2786 85.5395
L11.1548 85.6014
" />
<path d="M11.1548 85.6014
L10.6595 85.6014
" />
<path d="M10.6595 85.6014
L10.6595 84.3014
" />
<path d="M10.6595 84.3014
L11.0929 84.3014
" />
<path d="M11.0929 84.3014
L11.2167 84.3633
" />
<path d="M11.2167 84.3633
L11.2786 84.4252
" />
<path d="M11.2786 84.4252
L11.3405 84.5490
" />
<path d="M11.3405 84.5490
L11.3405 84.6728
" />
<path d="M11.3405 84.6728
L11.2786 84.7966
" />
<path d="M11.2786 84.7966
L11.2167 84.8585
" />
<path d="M11.2167 84.8585
L11.0929 84.9205
" />
<path d="M11.0929 84.9205
L10.6595 84.9205
" />
</g></g>
<g style="fill:#000000; fill-opacity:0.0; 
stroke:#000000; stroke-width:0.0212; stroke-opacity:1; 
stroke-linecap:round; stroke-linejoin:round;">
</g>
<g style="fill:#000000; fill-opacity:0.0; 
stroke:#000000; stroke-width:0.1500; stroke-opacity:1; 
stroke-linecap:round; stroke-linejoin:round;">
<text x="11.0000" y="135.6500"
textLength="1.4150" font-size="1.7333" lengthAdjust="spacingAndGlyphs"
text-anchor="middle" opacity="0">C</text>
<g class="stroked-text"><desc>C</desc>
<path d="M11.4024 135.4776
L11.3405 135.5395
" />
<path d="M11.3405 135.5395
L11.1548 135.6014
" />
<path d="M11.1548 135.6014
L11.0310 135.6014
" />
<path d="M11.0310 135.6014
L10.8452 135.5395
" />
<path d="M10.8452 135.5395
L10.7214 135.4157
" />
<path d="M10.7214 135.4157
L10.6595 135.2919
" />
<path d="M10.6595 135.2919
L10.5976 135.0443
" />
<path d="M10.5976 135.0443
L10.5976 134.8585
" />
<path d="M10.5976 134.8585
L10.6595 134.6109
" />
<path d="M10.6595 134.6109
L10.7214 134.4871
" />
<path d="M10.7214 134.4871
L10.8452 134.3633
" />
<path d="M10.8452 134.3633
L11.0310 134.3014
" />
<path d="M11.0310 134.3014
L11.1548 134.3014
" />
<path d="M11.1548 134.3014
L11.3405 134.3633
" />
<path d="M11.3405 134.3633
L11.4024 134.4252
" />
</g></g>
<g style="fill:#000000; fill-opacity:0.0; 
stroke:#000000; stroke-width:0.0212; stroke-opacity:1; 
stroke-linecap:round; stroke-linejoin:round;">
</g>
<g style="fill:#000000; fill-opacity:0.0; 
stroke:#000000; stroke-width:0.1500; stroke-opacity:1; 
stroke-linecap:round; stroke-linejoin:round;">
<text x="11.0000" y="185.6500"
textLength="1.4150" font-size="1.7333" lengthAdjust="spacingAndGlyphs"
text-anchor="middle" opacity="0">D</text>
<g class="stroked-text"><desc>D</desc>
<path d="M10.6595 185.6014
L10.6595 184.3014
" />
<path d="M10.6595 184.3014
L10.9690 184.3014
" />
<path d="M10.9690 184.3014
L11.1548 184.3633
" />
<path d="M11.1548 184.3633
L11.2786 184.4871
" />
<path d="M11.2786 184.4871
L11.3405 184.6109
" />
<path d="M11.3405 184.6109
L11.4024 184.8585
" />
<path d="M11.4024 184.8585
L11.4024 185.0443
" />
<path d="M11.4024 185.0443
L11.3405 185.2919
" />
<path d="M11.3405 185.2919
L11.2786 185.4157
" />
<path d="M11.2786 185.4157
L11.1548 185.5395
" />
<path d="M11.1548 185.5395
L10.9690 185.6014
" />
<path d="M10.9690 185.6014
L10.6595 185.6014
" />
</g></g>
<g style="fill:#000000; fill-opacity:0.0; 
stroke:#000000; stroke-width:0.0212; stroke-opacity:1; 
stroke-linecap:round; stroke-linejoin:round;">
</g>
<g style="fill:#000000; fill-opacity:0.0; 
stroke:#000000; stroke-width:0.1500; stroke-opacity:1; 
stroke-linecap:round; stroke-linejoin:round;">
<path d="M287.0022 60.0000
L285.0022 60.0000
" />
</g>
<g style="fill:#000000; fill-opacity:0.0; 
stroke:#000000; stroke-width:0.0212; stroke-opacity:1; 
stroke-linecap:round; stroke-linejoin:round;">
</g>
<g style="fill:#000000; fill-opacity:0.0; 
stroke:#000000; stroke-width:0.1500; stroke-opacity:1; 
stroke-linecap:round; stroke-linejoin:round;">
<path d="M287.0022 110.0000
L285.0022 110.0000
" />
</g>
<g style="fill:#000000; fill-opacity:0.0; 
stroke:#000000; stroke-width:0.0212; stroke-opacity:1; 
stroke-linecap:round; stroke-linejoin:round;">
</g>
<g style="fill:#000000; fill-opacity:0.0; 
stroke:#000000; stroke-width:0.1500; stroke-opacity:1; 
stroke-linecap:round; stroke-linejoin:round;">
<path d="M287.0022 160.0000
L285.0022 160.0000
" />
</g>
<g style="fill:#000000; fill-opacity:0.0; 
stroke:#000000; stroke-width:0.0212; stroke-opacity:1; 
stroke-linecap:round; stroke-linejoin:round;">
</g>
<g style="fill:#000000; fill-opacity:0.0; 
stroke:#000000; stroke-width:0.1500; stroke-opacity:1; 
stroke-linecap:round; stroke-linejoin:round;">
<text x="286.0022" y="35.6500"
textLength="1.2293" font-size="1.7333" lengthAdjust="spacingAndGlyphs"
text-anchor="middle" opacity="0">A</text>
<g class="stroked-text"><desc>A</desc>
<path d="M285.6927 35.2300
L286.3117 35.2300
" />
<path d="M285.5689 35.6014
L286.0022 34.3014
" />
<path d="M286.0022 34.3014
L286.4355 35.6014
" />
</g></g>
<g style="fill:#000000; fill-opacity:0.0; 
stroke:#000000; stroke-width:0.0212; stroke-opacity:1; 
stroke-linecap:round; stroke-linejoin:round;">
</g>
<g style="fill:#000000; fill-opacity:0.0; 
stroke:#000000; stroke-width:0.1500; stroke-opacity:1; 
stroke-linecap:round; stroke-linejoin:round;">
<text x="286.0022" y="85.6500"
textLength="1.4150" font-size="1.7333" lengthAdjust="spacingAndGlyphs"
text-anchor="middle" opacity="0">B</text>
<g class="stroked-text"><desc>B</desc>
<path d="M286.0951 84.9205
L286.2808 84.9824
" />
<path d="M286.2808 84.9824
L286.3427 85.0443
" />
<path d="M286.3427 85.0443
L286.4046 85.1681
" />
<path d="M286.4046 85.1681
L286.4046 85.3538
" />
<path d="M286.4046 85.3538
L286.3427 85.4776
" />
<path d="M286.3427 85.4776
L286.2808 85.5395
" />
<path d="M286.2808 85.5395
L286.1570 85.6014
" />
<path d="M286.1570 85.6014
L285.6617 85.6014
" />
<path d="M285.6617 85.6014
L285.6617 84.3014
" />
<path d="M285.6617 84.3014
L286.0951 84.3014
" />
<path d="M286.0951 84.3014
L286.2189 84.3633
" />
<path d="M286.2189 84.3633
L286.2808 84.4252
" />
<path d="M286.2808 84.4252
L286.3427 84.5490
" />
<path d="M286.3427 84.5490
L286.3427 84.6728
" />
<path d="M286.3427 84.6728
L286.2808 84.7966
" />
<path d="M286.2808 84.7966
L286.2189 84.8585
" />
<path d="M286.2189 84.8585
L286.0951 84.9205
" />
<path d="M286.0951 84.9205
L285.6617 84.9205
" />
</g></g>
<g style="fill:#000000; fill-opacity:0.0; 
stroke:#000000; stroke-width:0.0212; stroke-opacity:1; 
stroke-linecap:round; stroke-linejoin:round;">
</g>
<g style="fill:#000000; fill-opacity:0.0; 
stroke:#000000; stroke-width:0.1500; stroke-opacity:1; 
stroke-linecap:round; stroke-linejoin:round;">
<text x="286.0022" y="135.6500"
textLength="1.4150" font-size="1.7333" lengthAdjust="spacingAndGlyphs"
text-anchor="middle" opacity="0">C</text>
<g class="stroked-text"><desc>C</desc>
<path d="M286.4046 135.4776
L286.3427 135.5395
" />
<path d="M286.3427 135.5395
L286.1570 135.6014
" />
<path d="M286.1570 135.6014
L286.0332 135.6014
" />
<path d="M286.0332 135.6014
L285.8474 135.5395
" />
<path d="M285.8474 135.5395
L285.7236 135.4157
" />
<path d="M285.7236 135.4157
L285.6617 135.2919
" />
<path d="M285.6617 135.2919
L285.5998 135.0443
" />
<path d="M285.5998 135.0443
L285.5998 134.8585
" />
<path d="M285.5998 134.8585
L285.6617 134.6109
" />
<path d="M285.6617 134.6109
L285.7236 134.4871
" />
<path d="M285.7236 134.4871
L285.8474 134.3633
" />
<path d="M285.8474 134.3633
L286.0332 134.3014
" />
<path d="M286.0332 134.3014
L286.1570 134.3014
" />
<path d="M286.1570 134.3014
L286.3427 134.3633
" />
<path d="M286.3427 134.3633
L286.4046 134.4252
" />
</g></g>
<g style="fill:#000000; fill-opacity:0.0; 
stroke:#000000; stroke-width:0.0212; stroke-opacity:1; 
stroke-linecap:round; stroke-linejoin:round;">
</g>
<g style="fill:#000000; fill-opacity:0.0; 
stroke:#000000; stroke-width:0.1500; stroke-opacity:1; 
stroke-linecap:round; stroke-linejoin:round;">
<text x="286.0022" y="185.6500"
textLength="1.4150" font-size="1.7333" lengthAdjust="spacingAndGlyphs"
text-anchor="middle" opacity="0">D</text>
<g class="stroked-text"><desc>D</desc>
<path d="M285.6617 185.6014
L285.6617 184.3014
" />
<path d="M285.6617 184.3014
L285.9712 184.3014
" />
<path d="M285.9712 184.3014
L286.1570 184.3633
" />
<path d="M286.1570 184.3633
L286.2808 184.4871
" />
<path d="M286.2808 184.4871
L286.3427 184.6109
" />
<path d="M286.3427 184.6109
L286.4046 184.8585
" />
<path d="M286.4046 184.8585
L286.4046 185.0443
" />
<path d="M286.4046 185.0443
L286.3427 185.2919
" />
<path d="M286.3427 185.2919
L286.2808 185.4157
" />
<path d="M286.2808 185.4157
L286.1570 185.5395
" />
<path d="M286.1570 185.5395
L285.9712 185.6014
" />
<path d="M285.9712 185.6014
L285.6617 185.6014
" />
</g></g>
<g style="fill:#000000; fill-opacity:0.0; 
stroke:#000000; stroke-width:0.0212; stroke-opacity:1; 
stroke-linecap:round; stroke-linejoin:round;">
</g>
<g style="fill:#000000; fill-opacity:0.0; 
stroke:#000000; stroke-width:0.1500; stroke-opacity:1; 
stroke-linecap:round; stroke-linejoin:round;">
<text x="200.0022" y="193.8572"
textLength="6.9321" font-size="2.0000" lengthAdjust="spacingAndGlyphs"
text-anchor="start" opacity="0">Date: </text>
<g class="stroked-text"><desc>Date: </desc>
<path d="M200.3593 193.8011
L200.3593 192.3011
" />
<path d="M200.3593 192.3011
L200.7165 192.3011
" />
<path d="M200.7165 192.3011
L200.9308 192.3726
" />
<path d="M200.9308 192.3726
L201.0736 192.5154
" />
<path d="M201.0736 192.5154
L201.1451 192.6583
" />
<path d="M201.1451 192.6583
L201.2165 192.9440
" />
<path d="M201.2165 192.9440
L201.2165 193.1583
" />
<path d="M201.2165 193.1583
L201.1451 193.4440
" />
<path d="M201.1451 193.4440
L201.0736 193.5868
" />
<path d="M201.0736 193.5868
L200.9308 193.7297
" />
<path d="M200.9308 193.7297
L200.7165 193.8011
" />
<path d="M200.7165 193.8011
L200.3593 193.8011
" />
<path d="M202.5022 193.8011
L202.5022 193.0154
" />
<path d="M202.5022 193.0154
L202.4308 192.8726
" />
<path d="M202.4308 192.8726
L202.2879 192.8011
" />
<path d="M202.2879 192.8011
L202.0022 192.8011
" />
<path d="M202.0022 192.8011
L201.8593 192.8726
" />
<path d="M202.5022 193.7297
L202.3593 193.8011
" />
<path d="M202.3593 193.8011
L202.0022 193.8011
" />
<path d="M202.0022 193.8011
L201.8593 193.7297
" />
<path d="M201.8593 193.7297
L201.7879 193.5868
" />
<path d="M201.7879 193.5868
L201.7879 193.4440
" />
<path d="M201.7879 193.4440
L201.8593 193.3011
" />
<path d="M201.8593 193.3011
L202.0022 193.2297
" />
<path d="M202.0022 193.2297
L202.3593 193.2297
" />
<path d="M202.3593 193.2297
L202.5022 193.1583
" />
<path d="M203.0022 192.8011
L203.5736 192.8011
" />
<path d="M203.2165 192.3011
L203.2165 193.5868
" />
<path d="M203.2165 193.5868
L203.2879 193.7297
" />
<path d="M203.2879 193.7297
L203.4308 193.8011
" />
<path d="M203.4308 193.8011
L203.5736 193.8011
" />
<path d="M204.6451 193.7297
L204.5022 193.8011
" />
<path d="M204.5022 193.8011
L204.2165 193.8011
" />
<path d="M204.2165 193.8011
L204.0736 193.7297
" />
<path d="M204.0736 193.7297
L204.0022 193.5868
" />
<path d="M204.0022 193.5868
L204.0022 193.0154
" />
<path d="M204.0022 193.0154
L204.0736 192.8726
" />
<path d="M204.0736 192.8726
L204.2165 192.8011
" />
<path d="M204.2165 192.8011
L204.5022 192.8011
" />
<path d="M204.5022 192.8011
L204.6451 192.8726
" />
<path d="M204.6451 192.8726
L204.7165 193.0154
" />
<path d="M204.7165 193.0154
L204.7165 193.1583
" />
<path d="M204.7165 193.1583
L204.0022 193.3011
" />
<path d="M205.3593 193.6583
L205.4308 193.7297
" />
<path d="M205.4308 193.7297
L205.3593 193.8011
" />
<path d="M205.3593 193.8011
L205.2879 193.7297
" />
<path d="M205.2879 193.7297
L205.3593 193.6583
" />
<path d="M205.3593 193.6583
L205.3593 193.8011
" />
<path d="M205.3593 192.8726
L205.4308 192.9440
" />
<path d="M205.4308 192.9440
L205.3593 193.0154
" />
<path d="M205.3593 193.0154
L205.2879 192.9440
" />
<path d="M205.2879 192.9440
L205.3593 192.8726
" />
<path d="M205.3593 192.8726
L205.3593 193.0154
" />
</g></g>
<g style="fill:#000000; fill-opacity:0.0; 
stroke:#000000; stroke-width:0.0212; stroke-opacity:1; 
stroke-linecap:round; stroke-linejoin:round;">
</g>
<g style="fill:#000000; fill-opacity:0.0; 
stroke:#000000; stroke-width:0.1500; stroke-opacity:1; 
stroke-linecap:round; stroke-linejoin:round;">
<path d="M177.0022 194.5072
L285.0022 194.5072
" />
</g>
<g style="fill:#000000; fill-opacity:0.0; 
stroke:#000000; stroke-width:0.0212; stroke-opacity:1; 
stroke-linecap:round; stroke-linejoin:round;">
</g>
<g style="fill:#000000; fill-opacity:0.0; 
stroke:#000000; stroke-width:0.1500; stroke-opacity:1; 
stroke-linecap:round; stroke-linejoin:round;">
<text x="178.0022" y="196.6572"
textLength="32.2893" font-size="2.0000" lengthAdjust="spacingAndGlyphs"
text-anchor="start" opacity="0">KiCad E.D.A.  kicad 7.0.1-0</text>
<g class="stroked-text"><desc>KiCad E.D.A.  kicad 7.0.1-0</desc>
<path d="M178.3593 196.6011
L178.3593 195.1011
" />
<path d="M179.2165 196.6011
L178.5736 195.7440
" />
<path d="M179.2165 195.1011
L178.3593 195.9583
" />
<path d="M179.8593 196.6011
L179.8593 195.6011
" />
<path d="M179.8593 195.1011
L179.7879 195.1726
" />
<path d="M179.7879 195.1726
L179.8593 195.2440
" />
<path d="M179.8593 195.2440
L179.9308 195.1726
" />
<path d="M179.9308 195.1726
L179.8593 195.1011
" />
<path d="M179.8593 195.1011
L179.8593 195.2440
" />
<path d="M181.4308 196.4583
L181.3593 196.5297
" />
<path d="M181.3593 196.5297
L181.1451 196.6011
" />
<path d="M181.1451 196.6011
L181.0022 196.6011
" />
<path d="M181.0022 196.6011
L180.7879 196.5297
" />
<path d="M180.7879 196.5297
L180.6451 196.3868
" />
<path d="M180.6451 196.3868
L180.5736 196.2440
" />
<path d="M180.5736 196.2440
L180.5022 195.9583
" />
<path d="M180.5022 195.9583
L180.5022 195.7440
" />
<path d="M180.5022 195.7440
L180.5736 195.4583
" />
<path d="M180.5736 195.4583
L180.6451 195.3154
" />
<path d="M180.6451 195.3154
L180.7879 195.1726
" />
<path d="M180.7879 195.1726
L181.0022 195.1011
" />
<path d="M181.0022 195.1011
L181.1451 195.1011
" />
<path d="M181.1451 195.1011
L181.3593 195.1726
" />
<path d="M181.3593 195.1726
L181.4308 195.2440
" />
<path d="M182.7165 196.6011
L182.7165 195.8154
" />
<path d="M182.7165 195.8154
L182.6451 195.6726
" />
<path d="M182.6451 195.6726
L182.5022 195.6011
" />
<path d="M182.5022 195.6011
L182.2165 195.6011
" />
<path d="M182.2165 195.6011
L182.0736 195.6726
" />
<path d="M182.7165 196.5297
L182.5736 196.6011
" />
<path d="M182.5736 196.6011
L182.2165 196.6011
" />
<path d="M182.2165 196.6011
L182.0736 196.5297
" />
<path d="M182.0736 196.5297
L182.0022 196.3868
" />
<path d="M182.0022 196.3868
L182.0022 196.2440
" />
<path d="M182.0022 196.2440
L182.0736 196.1011
" />
<path d="M182.0736 196.1011
L182.2165 196.0297
" />
<path d="M182.2165 196.0297
L182.5736 196.0297
" />
<path d="M182.5736 196.0297
L182.7165 195.9583
" />
<path d="M184.0736 196.6011
L184.0736 195.1011
" />
<path d="M184.0736 196.5297
L183.9308 196.6011
" />
<path d="M183.9308 196.6011
L183.6451 196.6011
" />
<path d="M183.6451 196.6011
L183.5022 196.5297
" />
<path d="M183.5022 196.5297
L183.4308 196.4583
" />
<path d="M183.4308 196.4583
L183.3593 196.3154
" />
<path d="M183.3593 196.3154
L183.3593 195.8868
" />
<path d="M183.3593 195.8868
L183.4308 195.7440
" />
<path d="M183.4308 195.7440
L183.5022 195.6726
" />
<path d="M183.5022 195.6726
L183.6451 195.6011
" />
<path d="M183.6451 195.6011
L183.9308 195.6011
" />
<path d="M183.9308 195.6011
L184.0736 195.6726
" />
<path d="M185.9308 195.8154
L186.4308 195.8154
" />
<path d="M186.6451 196.6011
L185.9308 196.6011
" />
<path d="M185.9308 196.6011
L185.9308 195.1011
" />
<path d="M185.9308 195.1011
L186.6451 195.1011
" />
<path d="M187.2879 196.4583
L187.3593 196.5297
" />
<path d="M187.3593 196.5297
L187.2879 196.6011
" />
<path d="M187.2879 196.6011
L187.2165 196.5297
" />
<path d="M187.2165 196.5297
L187.2879 196.4583
" />
<path d="M187.2879 196.4583
L187.2879 196.6011
" />
<path d="M188.0022 196.6011
L188.0022 195.1011
" />
<path d="M188.0022 195.1011
L188.3593 195.1011
" />
<path d="M188.3593 195.1011
L188.5736 195.1726
" />
<path d="M188.5736 195.1726
L188.7165 195.3154
" />
<path d="M188.7165 195.3154
L188.7879 195.4583
" />
<path d="M188.7879 195.4583
L188.8593 195.7440
" />
<path d="M188.8593 195.7440
L188.8593 195.9583
" />
<path d="M188.8593 195.9583
L188.7879 196.2440
" />
<path d="M188.7879 196.2440
L188.7165 196.3868
" />
<path d="M188.7165 196.3868
L188.5736 196.5297
" />
<path d="M188.5736 196.5297
L188.3593 196.6011
" />
<path d="M188.3593 196.6011
L188.0022 196.6011
" />
<path d="M189.5022 196.4583
L189.5736 196.5297
" />
<path d="M189.5736 196.5297
L189.5022 196.6011
" />
<path d="M189.5022 196.6011
L189.4308 196.5297
" />
<path d="M189.4308 196.5297
L189.5022 196.4583
" />
<path d="M189.5022 196.4583
L189.5022 196.6011
" />
<path d="M190.1451 196.1726
L190.8593 196.1726
" />
<path d="M190.0022 196.6011
L190.5022 195.1011
" />
<path d="M190.5022 195.1011
L191.0022 196.6011
" />
<path d="M191.5022 196.4583
L191.5736 196.5297
" />
<path d="M191.5736 196.5297
L191.5022 196.6011
" />
<path d="M191.5022 196.6011
L191.4308 196.5297
" />
<path d="M191.4308 196.5297
L191.5022 196.4583
" />
<path d="M191.5022 196.4583
L191.5022 196.6011
" />
<path d="M194.5022 196.6011
L194.5022 195.1011
" />
<path d="M194.6451 196.0297
L195.0736 196.6011
" />
<path d="M195.0736 195.6011
L194.5022 196.1726
" />
<path d="M195.7165 196.6011
L195.7165 195.6011
" />
<path d="M195.7165 195.1011
L195.6451 195.1726
" />
<path d="M195.6451 195.1726
L195.7165 195.2440
" />
<path d="M195.7165 195.2440
L195.7879 195.1726
" />
<path d="M195.7879 195.1726
L195.7165 195.1011
" />
<path d="M195.7165 195.1011
L195.7165 195.2440
" />
<path d="M197.0736 196.5297
L196.9308 196.6011
" />
<path d="M196.9308 196.6011
L196.6451 196.6011
" />
<path d="M196.6451 196.6011
L196.5022 196.5297
" />
<path d="M196.5022 196.5297
L196.4308 196.4583
" />
<path d="M196.4308 196.4583
L196.3593 196.3154
" />
<path d="M196.3593 196.3154
L196.3593 195.8868
" />
<path d="M196.3593 195.8868
L196.4308 195.7440
" />
<path d="M196.4308 195.7440
L196.5022 195.6726
" />
<path d="M196.5022 195.6726
L196.6451 195.6011
" />
<path d="M196.6451 195.6011
L196.9308 195.6011
" />
<path d="M196.9308 195.6011
L197.0736 195.6726
" />
<path d="M198.3593 196.6011
L198.3593 195.8154
" />
<path d="M198.3593 195.8154
L198.2879 195.6726
" />
<path d="M198.2879 195.6726
L198.1451 195.6011
" />
<path d="M198.1451 195.6011
L197.8593 195.6011
" />
<path d="M197.8593 195.6011
L197.7165 195.6726
" />
<path d="M198.3593 196.5297
L198.2165 196.6011
" />
<path d="M198.2165 196.6011
L197.8593 196.6011
" />
<path d="M197.8593 196.6011
L197.7165 196.5297
" />
<path d="M197.7165 196.5297
L197.6451 196.3868
" />
<path d="M197.6451 196.3868
L197.6451 196.2440
" />
<path d="M197.6451 196.2440
L197.7165 196.1011
" />
<path d="M197.7165 196.1011
L197.8593 196.0297
" />
<path d="M197.8593 196.0297
L198.2165 196.0297
" />
<path d="M198.2165 196.0297
L198.3593 195.9583
" />
<path d="M199.7165 196.6011
L199.7165 195.1011
" />
<path d="M199.7165 196.5297
L199.5736 196.6011
" />
<path d="M199.5736 196.6011
L199.2879 196.6011
" />
<path d="M199.2879 196.6011
L199.1451 196.5297
" />
<path d="M199.1451 196.5297
L199.0736 196.4583
" />
<path d="M199.0736 196.4583
L199.0022 196.3154
" />
<path d="M199.0022 196.3154
L199.0022 195.8868
" />
<path d="M199.0022 195.8868
L199.0736 195.7440
" />
<path d="M199.0736 195.7440
L199.1451 195.6726
" />
<path d="M199.1451 195.6726
L199.2879 195.6011
" />
<path d="M199.2879 195.6011
L199.5736 195.6011
" />
<path d="M199.5736 195.6011
L199.7165 195.6726
" />
<path d="M201.4308 195.1011
L202.4308 195.1011
" />
<path d="M202.4308 195.1011
L201.7879 196.6011
" />
<path d="M203.0022 196.4583
L203.0736 196.5297
" />
<path d="M203.0736 196.5297
L203.0022 196.6011
" />
<path d="M203.0022 196.6011
L202.9308 196.5297
" />
<path d="M202.9308 196.5297
L203.0022 196.4583
" />
<path d="M203.0022 196.4583
L203.0022 196.6011
" />
<path d="M204.0022 195.1011
L204.1451 195.1011
" />
<path d="M204.1451 195.1011
L204.2879 195.1726
" />
<path d="M204.2879 195.1726
L204.3593 195.2440
" />
<path d="M204.3593 195.2440
L204.4308 195.3868
" />
<path d="M204.4308 195.3868
L204.5022 195.6726
" />
<path d="M204.5022 195.6726
L204.5022 196.0297
" />
<path d="M204.5022 196.0297
L204.4308 196.3154
" />
<path d="M204.4308 196.3154
L204.3593 196.4583
" />
<path d="M204.3593 196.4583
L204.2879 196.5297
" />
<path d="M204.2879 196.5297
L204.1451 196.6011
" />
<path d="M204.1451 196.6011
L204.0022 196.6011
" />
<path d="M204.0022 196.6011
L203.8593 196.5297
" />
<path d="M203.8593 196.5297
L203.7879 196.4583
" />
<path d="M203.7879 196.4583
L203.7165 196.3154
" />
<path d="M203.7165 196.3154
L203.6451 196.0297
" />
<path d="M203.6451 196.0297
L203.6451 195.6726
" />
<path d="M203.6451 195.6726
L203.7165 195.3868
" />
<path d="M203.7165 195.3868
L203.7879 195.2440
" />
<path d="M203.7879 195.2440
L203.8593 195.1726
" />
<path d="M203.8593 195.1726
L204.0022 195.1011
" />
<path d="M205.1451 196.4583
L205.2165 196.5297
" />
<path d="M205.2165 196.5297
L205.1451 196.6011
" />
<path d="M205.1451 196.6011
L205.0736 196.5297
" />
<path d="M205.0736 196.5297
L205.1451 196.4583
" />
<path d="M205.1451 196.4583
L205.1451 196.6011
" />
<path d="M206.6451 196.6011
L205.7879 196.6011
" />
<path d="M206.2165 196.6011
L206.2165 195.1011
" />
<path d="M206.2165 195.1011
L206.0736 195.3154
" />
<path d="M206.0736 195.3154
L205.9308 195.4583
" />
<path d="M205.9308 195.4583
L205.7879 195.5297
" />
<path d="M207.2879 196.0297
L208.4308 196.0297
" />
<path d="M209.4308 195.1011
L209.5736 195.1011
" />
<path d="M209.5736 195.1011
L209.7165 195.1726
" />
<path d="M209.7165 195.1726
L209.7879 195.2440
" />
<path d="M209.7879 195.2440
L209.8593 195.3868
" />
<path d="M209.8593 195.3868
L209.9308 195.6726
" />
<path d="M209.9308 195.6726
L209.9308 196.0297
" />
<path d="M209.9308 196.0297
L209.8593 196.3154
" />
<path d="M209.8593 196.3154
L209.7879 196.4583
" />
<path d="M209.7879 196.4583
L209.7165 196.5297
" />
<path d="M209.7165 196.5297
L209.5736 196.6011
" />
<path d="M209.5736 196.6011
L209.4308 196.6011
" />
<path d="M209.4308 196.6011
L209.2879 196.5297
" />
<path d="M209.2879 196.5297
L209.2165 196.4583
" />
<path d="M209.2165 196.4583
L209.1451 196.3154
" />
<path d="M209.1451 196.3154
L209.0736 196.0297
" />
<path d="M209.0736 196.0297
L209.0736 195.6726
" />
<path d="M209.0736 195.6726
L209.1451 195.3868
" />
<path d="M209.1451 195.3868
L209.2165 195.2440
" />
<path d="M209.2165 195.2440
L209.2879 195.1726
" />
<path d="M209.2879 195.1726
L209.4308 195.1011
" />
</g></g>
<g style="fill:#000000; fill-opacity:0.0; 
stroke:#000000; stroke-width:0.0212; stroke-opacity:1; 
stroke-linecap:round; stroke-linejoin:round;">
</g>
<g style="fill:#000000; fill-opacity:0.0; 
stroke:#000000; stroke-width:0.1500; stroke-opacity:1; 
stroke-linecap:round; stroke-linejoin:round;">
<path d="M177.0022 191.5072
L285.0022 191.5072
" />
</g>
<g style="fill:#000000; fill-opacity:0.0; 
stroke:#000000; stroke-width:0.0212; stroke-opacity:1; 
stroke-linecap:round; stroke-linejoin:round;">
</g>
<g style="fill:#000000; fill-opacity:0.0; 
stroke:#000000; stroke-width:0.3000; stroke-opacity:1; 
stroke-linecap:round; stroke-linejoin:round;">
<text x="263.0022" y="193.8572"
textLength="6.2357" font-size="2.0000" lengthAdjust="spacingAndGlyphs"
text-anchor="start" opacity="0">Rev: </text>
<g class="stroked-text"><desc>Rev: </desc>
<path d="M264.2165 193.8011
L263.7165 193.0868
" />
<path d="M263.3593 193.8011
L263.3593 192.3011
" />
<path d="M263.3593 192.3011
L263.9308 192.3011
" />
<path d="M263.9308 192.3011
L264.0736 192.3726
" />
<path d="M264.0736 192.3726
L264.1451 192.4440
" />
<path d="M264.1451 192.4440
L264.2165 192.5868
" />
<path d="M264.2165 192.5868
L264.2165 192.8011
" />
<path d="M264.2165 192.8011
L264.1451 192.9440
" />
<path d="M264.1451 192.9440
L264.0736 193.0154
" />
<path d="M264.0736 193.0154
L263.9308 193.0868
" />
<path d="M263.9308 193.0868
L263.3593 193.0868
" />
<path d="M265.4308 193.7297
L265.2879 193.8011
" />
<path d="M265.2879 193.8011
L265.0022 193.8011
" />
<path d="M265.0022 193.8011
L264.8593 193.7297
" />
<path d="M264.8593 193.7297
L264.7879 193.5868
" />
<path d="M264.7879 193.5868
L264.7879 193.0154
" />
<path d="M264.7879 193.0154
L264.8593 192.8726
" />
<path d="M264.8593 192.8726
L265.0022 192.8011
" />
<path d="M265.0022 192.8011
L265.2879 192.8011
" />
<path d="M265.2879 192.8011
L265.4308 192.8726
" />
<path d="M265.4308 192.8726
L265.5022 193.0154
" />
<path d="M265.5022 193.0154
L265.5022 193.1583
" />
<path d="M265.5022 193.1583
L264.7879 193.3011
" />
<path d="M266.0022 192.8011
L266.3593 193.8011
" />
<path d="M266.3593 193.8011
L266.7165 192.8011
" />
<path d="M267.2879 193.6583
L267.3593 193.7297
" />
<path d="M267.3593 193.7297
L267.2879 193.8011
" />
<path d="M267.2879 193.8011
L267.2165 193.7297
" />
<path d="M267.2165 193.7297
L267.2879 193.6583
" />
<path d="M267.2879 193.6583
L267.2879 193.8011
" />
<path d="M267.2879 192.8726
L267.3593 192.9440
" />
<path d="M267.3593 192.9440
L267.2879 193.0154
" />
<path d="M267.2879 193.0154
L267.2165 192.9440
" />
<path d="M267.2165 192.9440
L267.2879 192.8726
" />
<path d="M267.2879 192.8726
L267.2879 193.0154
" />
</g></g>
<g style="fill:#000000; fill-opacity:0.0; 
stroke:#000000; stroke-width:0.0212; stroke-opacity:1; 
stroke-linecap:round; stroke-linejoin:round;">
</g>
<g style="fill:#000000; fill-opacity:0.0; 
stroke:#000000; stroke-width:0.1500; stroke-opacity:1; 
stroke-linecap:round; stroke-linejoin:round;">
<text x="178.0022" y="193.8572"
textLength="9.2893" font-size="2.0000" lengthAdjust="spacingAndGlyphs"
text-anchor="start" opacity="0">Size: A4</text>
<g class="stroked-text"><desc>Size: A4</desc>
<path d="M178.2879 193.7297
L178.5022 193.8011
" />
<path d="M178.5022 193.8011
L178.8593 193.8011
" />
<path d="M178.8593 193.8011
L179.0022 193.7297
" />
<path d="M179.0022 193.7297
L179.0736 193.6583
" />
<path d="M179.0736 193.6583
L179.1451 193.5154
" />
<path d="M179.1451 193.5154
L179.1451 193.3726
" />
<path d="M179.1451 193.3726
L179.0736 193.2297
" />
<path d="M179.0736 193.2297
L179.0022 193.1583
" />
<path d="M179.0022 193.1583
L178.8593 193.0868
" />
<path d="M178.8593 193.0868
L178.5736 193.0154
" />
<path d="M178.5736 193.0154
L178.4308 192.9440
" />
<path d="M178.4308 192.9440
L178.3593 192.8726
" />
<path d="M178.3593 192.8726
L178.2879 192.7297
" />
<path d="M178.2879 192.7297
L178.2879 192.5868
" />
<path d="M178.2879 192.5868
L178.3593 192.4440
" />
<path d="M178.3593 192.4440
L178.4308 192.3726
" />
<path d="M178.4308 192.3726
L178.5736 192.3011
" />
<path d="M178.5736 192.3011
L178.9308 192.3011
" />
<path d="M178.9308 192.3011
L179.1451 192.3726
" />
<path d="M179.7879 193.8011
L179.7879 192.8011
" />
<path d="M179.7879 192.3011
L179.7165 192.3726
" />
<path d="M179.7165 192.3726
L179.7879 192.4440
" />
<path d="M179.7879 192.4440
L179.8593 192.3726
" />
<path d="M179.8593 192.3726
L179.7879 192.3011
" />
<path d="M179.7879 192.3011
L179.7879 192.4440
" />
<path d="M180.3593 192.8011
L181.1451 192.8011
" />
<path d="M181.1451 192.8011
L180.3593 193.8011
" />
<path d="M180.3593 193.8011
L181.1451 193.8011
" />
<path d="M182.2879 193.7297
L182.1451 193.8011
" />
<path d="M182.1451 193.8011
L181.8593 193.8011
" />
<path d="M181.8593 193.8011
L181.7165 193.7297
" />
<path d="M181.7165 193.7297
L181.6451 193.5868
" />
<path d="M181.6451 193.5868
L181.6451 193.0154
" />
<path d="M181.6451 193.0154
L181.7165 192.8726
" />
<path d="M181.7165 192.8726
L181.8593 192.8011
" />
<path d="M181.8593 192.8011
L182.1451 192.8011
" />
<path d="M182.1451 192.8011
L182.2879 192.8726
" />
<path d="M182.2879 192.8726
L182.3593 193.0154
" />
<path d="M182.3593 193.0154
L182.3593 193.1583
" />
<path d="M182.3593 193.1583
L181.6451 193.3011
" />
<path d="M183.0022 193.6583
L183.0736 193.7297
" />
<path d="M183.0736 193.7297
L183.0022 193.8011
" />
<path d="M183.0022 193.8011
L182.9308 193.7297
" />
<path d="M182.9308 193.7297
L183.0022 193.6583
" />
<path d="M183.0022 193.6583
L183.0022 193.8011
" />
<path d="M183.0022 192.8726
L183.0736 192.9440
" />
<path d="M183.0736 192.9440
L183.0022 193.0154
" />
<path d="M183.0022 193.0154
L182.9308 192.9440
" />
<path d="M182.9308 192.9440
L183.0022 192.8726
" />
<path d="M183.0022 192.8726
L183.0022 193.0154
" />
<path d="M184.7879 193.3726
L185.5022 193.3726
" />
<path d="M184.6451 193.8011
L185.1451 192.3011
" />
<path d="M185.1451 192.3011
L185.6451 193.8011
" />
<path d="M186.7879 192.8011
L186.7879 193.8011
" />
<path d="M186.4308 192.2297
L186.0736 193.3011
" />
<path d="M186.0736 193.3011
L187.0022 193.3011
" />
</g></g>
<g style="fill:#000000; fill-opacity:0.0; 
stroke:#000000; stroke-width:0.0212; stroke-opacity:1; 
stroke-linecap:round; stroke-linejoin:round;">
</g>
<g style="fill:#000000; fill-opacity:0.0; 
stroke:#000000; stroke-width:0.1500; stroke-opacity:1; 
stroke-linecap:round; stroke-linejoin:round;">
<text x="263.0022" y="196.6572"
textLength="8.4321" font-size="2.0000" lengthAdjust="spacingAndGlyphs"
text-anchor="start" opacity="0">Id: 1/1</text>
<g class="stroked-text"><desc>Id: 1/1</desc>
<path d="M263.3593 196.6011
L263.3593 195.1011
" />
<path d="M264.7165 196.6011
L264.7165 195.1011
" />
<path d="M264.7165 196.5297
L264.5736 196.6011
" />
<path d="M264.5736 196.6011
L264.2879 196.6011
" />
<path d="M264.2879 196.6011
L264.1451 196.5297
" />
<path d="M264.1451 196.5297
L264.0736 196.4583
" />
<path d="M264.0736 196.4583
L264.0022 196.3154
" />
<path d="M264.0022 196.3154
L264.0022 195.8868
" />
<path d="M264.0022 195.8868
L264.0736 195.7440
" />
<path d="M264.0736 195.7440
L264.1451 195.6726
" />
<path d="M264.1451 195.6726
L264.2879 195.6011
" />
<path d="M264.2879 195.6011
L264.5736 195.6011
" />
<path d="M264.5736 195.6011
L264.7165 195.6726
" />
<path d="M265.4308 196.4583
L265.5022 196.5297
" />
<path d="M265.5022 196.5297
L265.4308 196.6011
" />
<path d="M265.4308 196.6011
L265.3593 196.5297
" />
<path d="M265.3593 196.5297
L265.4308 196.4583
" />
<path d="M265.4308 196.4583
L265.4308 196.6011
" />
<path d="M265.4308 195.6726
L265.5022 195.7440
" />
<path d="M265.5022 195.7440
L265.4308 195.8154
" />
<path d="M265.4308 195.8154
L265.3593 195.7440
" />
<path d="M265.3593 195.7440
L265.4308 195.6726
" />
<path d="M265.4308 195.6726
L265.4308 195.8154
" />
<path d="M268.0736 196.6011
L267.2165 196.6011
" />
<path d="M267.6451 196.6011
L267.6451 195.1011
" />
<path d="M267.6451 195.1011
L267.5022 195.3154
" />
<path d="M267.5022 195.3154
L267.3593 195.4583
" />
<path d="M267.3593 195.4583
L267.2165 195.5297
" />
<path d="M269.7879 195.0297
L268.5022 196.9583
" />
<path d="M271.0736 196.6011
L270.2165 196.6011
" />
<path d="M270.6451 196.6011
L270.6451 195.1011
" />
<path d="M270.6451 195.1011
L270.5022 195.3154
" />
<path d="M270.5022 195.3154
L270.3593 195.4583
" />
<path d="M270.3593 195.4583
L270.2165 195.5297
" />
</g></g>
<g style="fill:#000000; fill-opacity:0.0; 
stroke:#000000; stroke-width:0.0212; stroke-opacity:1; 
stroke-linecap:round; stroke-linejoin:round;">
</g>
<g style="fill:#000000; fill-opacity:0.0; 
stroke:#000000; stroke-width:0.1500; stroke-opacity:1; 
stroke-linecap:round; stroke-linejoin:round;">
<path d="M177.0022 187.5072
L285.0022 187.5072
" />
</g>
<g style="fill:#000000; fill-opacity:0.0; 
stroke:#000000; stroke-width:0.0212; stroke-opacity:1; 
stroke-linecap:round; stroke-linejoin:round;">
</g>
<g style="fill:#000000; fill-opacity:0.0; 
stroke:#000000; stroke-width:0.4000; stroke-opacity:1; 
stroke-linecap:round; stroke-linejoin:round;">
<text x="178.0022" y="190.3072"
textLength="9.3857" font-size="2.6667" lengthAdjust="spacingAndGlyphs"
text-anchor="start" opacity="0">Title: </text>
<g class="stroked-text"><desc>Title: </desc>
<path d="M178.4308 188.2324
L179.5736 188.2324
" />
<path d="M178.7522 190.2324
L179.0022 188.2324
" />
<path d="M179.9784 190.2324
L180.1451 188.8991
" />
<path d="M180.2284 188.2324
L180.1212 188.3277
" />
<path d="M180.1212 188.3277
L180.2046 188.4229
" />
<path d="M180.2046 188.4229
L180.3117 188.3277
" />
<path d="M180.3117 188.3277
L180.2284 188.2324
" />
<path d="M180.2284 188.2324
L180.2046 188.4229
" />
<path d="M180.7998 188.8991
L181.5617 188.8991
" />
<path d="M181.1689 188.2324
L180.9546 189.9467
" />
<path d="M180.9546 189.9467
L181.0260 190.1372
" />
<path d="M181.0260 190.1372
L181.2046 190.2324
" />
<path d="M181.2046 190.2324
L181.3951 190.2324
" />
<path d="M182.3355 190.2324
L182.1570 190.1372
" />
<path d="M182.1570 190.1372
L182.0855 189.9467
" />
<path d="M182.0855 189.9467
L182.2998 188.2324
" />
<path d="M183.8593 190.1372
L183.6570 190.2324
" />
<path d="M183.6570 190.2324
L183.2760 190.2324
" />
<path d="M183.2760 190.2324
L183.0974 190.1372
" />
<path d="M183.0974 190.1372
L183.0260 189.9467
" />
<path d="M183.0260 189.9467
L183.1212 189.1848
" />
<path d="M183.1212 189.1848
L183.2403 188.9943
" />
<path d="M183.2403 188.9943
L183.4427 188.8991
" />
<path d="M183.4427 188.8991
L183.8236 188.8991
" />
<path d="M183.8236 188.8991
L184.0022 188.9943
" />
<path d="M184.0022 188.9943
L184.0736 189.1848
" />
<path d="M184.0736 189.1848
L184.0498 189.3753
" />
<path d="M184.0498 189.3753
L183.0736 189.5658
" />
<path d="M184.8117 190.0420
L184.8951 190.1372
" />
<path d="M184.8951 190.1372
L184.7879 190.2324
" />
<path d="M184.7879 190.2324
L184.7046 190.1372
" />
<path d="M184.7046 190.1372
L184.8117 190.0420
" />
<path d="M184.8117 190.0420
L184.7879 190.2324
" />
<path d="M184.9427 188.9943
L185.0260 189.0896
" />
<path d="M185.0260 189.0896
L184.9189 189.1848
" />
<path d="M184.9189 189.1848
L184.8355 189.0896
" />
<path d="M184.8355 189.0896
L184.9427 188.9943
" />
<path d="M184.9427 188.9943
L184.9189 189.1848
" />
</g></g>
<g style="fill:#000000; fill-opacity:0.0; 
stroke:#000000; stroke-width:0.0212; stroke-opacity:1; 
stroke-linecap:round; stroke-linejoin:round;">
</g>
<g style="fill:#000000; fill-opacity:0.0; 
stroke:#000000; stroke-width:0.1500; stroke-opacity:1; 
stroke-linecap:round; stroke-linejoin:round;">
<text x="178.0022" y="186.4572"
textLength="40.2893" font-size="2.0000" lengthAdjust="spacingAndGlyphs"
text-anchor="start" opacity="0">File: Phase_B_ATMEGA_v3.kicad_pcb</text>
<g class="stroked-text"><desc>File: Phase_B_ATMEGA_v3.kicad_pcb</desc>
<path d="M178.8593 185.6154
L178.3593 185.6154
" />
<path d="M178.3593 186.4011
L178.3593 184.9011
" />
<path d="M178.3593 184.9011
L179.0736 184.9011
" />
<path d="M179.6451 186.4011
L179.6451 185.4011
" />
<path d="M179.6451 184.9011
L179.5736 184.9726
" />
<path d="M179.5736 184.9726
L179.6451 185.0440
" />
<path d="M179.6451 185.0440
L179.7165 184.9726
" />
<path d="M179.7165 184.9726
L179.6451 184.9011
" />
<path d="M179.6451 184.9011
L179.6451 185.0440
" />
<path d="M180.5736 186.4011
L180.4308 186.3297
" />
<path d="M180.4308 186.3297
L180.3593 186.1868
" />
<path d="M180.3593 186.1868
L180.3593 184.9011
" />
<path d="M181.7165 186.3297
L181.5736 186.4011
" />
<path d="M181.5736 186.4011
L181.2879 186.4011
" />
<path d="M181.2879 186.4011
L181.1451 186.3297
" />
<path d="M181.1451 186.3297
L181.0736 186.1868
" />
<path d="M181.0736 186.1868
L181.0736 185.6154
" />
<path d="M181.0736 185.6154
L181.1451 185.4726
" />
<path d="M181.1451 185.4726
L181.2879 185.4011
" />
<path d="M181.2879 185.4011
L181.5736 185.4011
" />
<path d="M181.5736 185.4011
L181.7165 185.4726
" />
<path d="M181.7165 185.4726
L181.7879 185.6154
" />
<path d="M181.7879 185.6154
L181.7879 185.7583
" />
<path d="M181.7879 185.7583
L181.0736 185.9011
" />
<path d="M182.4308 186.2583
L182.5022 186.3297
" />
<path d="M182.5022 186.3297
L182.4308 186.4011
" />
<path d="M182.4308 186.4011
L182.3593 186.3297
" />
<path d="M182.3593 186.3297
L182.4308 186.2583
" />
<path d="M182.4308 186.2583
L182.4308 186.4011
" />
<path d="M182.4308 185.4726
L182.5022 185.5440
" />
<path d="M182.5022 185.5440
L182.4308 185.6154
" />
<path d="M182.4308 185.6154
L182.3593 185.5440
" />
<path d="M182.3593 185.5440
L182.4308 185.4726
" />
<path d="M182.4308 185.4726
L182.4308 185.6154
" />
<path d="M184.2879 186.4011
L184.2879 184.9011
" />
<path d="M184.2879 184.9011
L184.8593 184.9011
" />
<path d="M184.8593 184.9011
L185.0022 184.9726
" />
<path d="M185.0022 184.9726
L185.0736 185.0440
" />
<path d="M185.0736 185.0440
L185.1451 185.1868
" />
<path d="M185.1451 185.1868
L185.1451 185.4011
" />
<path d="M185.1451 185.4011
L185.0736 185.5440
" />
<path d="M185.0736 185.5440
L185.0022 185.6154
" />
<path d="M185.0022 185.6154
L184.8593 185.6868
" />
<path d="M184.8593 185.6868
L184.2879 185.6868
" />
<path d="M185.7879 186.4011
L185.7879 184.9011
" />
<path d="M186.4308 186.4011
L186.4308 185.6154
" />
<path d="M186.4308 185.6154
L186.3593 185.4726
" />
<path d="M186.3593 185.4726
L186.2165 185.4011
" />
<path d="M186.2165 185.4011
L186.0022 185.4011
" />
<path d="M186.0022 185.4011
L185.8593 185.4726
" />
<path d="M185.8593 185.4726
L185.7879 185.5440
" />
<path d="M187.7879 186.4011
L187.7879 185.6154
" />
<path d="M187.7879 185.6154
L187.7165 185.4726
" />
<path d="M187.7165 185.4726
L187.5736 185.4011
" />
<path d="M187.5736 185.4011
L187.2879 185.4011
" />
<path d="M187.2879 185.4011
L187.1451 185.4726
" />
<path d="M187.7879 186.3297
L187.6451 186.4011
" />
<path d="M187.6451 186.4011
L187.2879 186.4011
" />
<path d="M187.2879 186.4011
L187.1451 186.3297
" />
<path d="M187.1451 186.3297
L187.0736 186.1868
" />
<path d="M187.0736 186.1868
L187.0736 186.0440
" />
<path d="M187.0736 186.0440
L187.1451 185.9011
" />
<path d="M187.1451 185.9011
L187.2879 185.8297
" />
<path d="M187.2879 185.8297
L187.6451 185.8297
" />
<path d="M187.6451 185.8297
L187.7879 185.7583
" />
<path d="M188.4308 186.3297
L188.5736 186.4011
" />
<path d="M188.5736 186.4011
L188.8593 186.4011
" />
<path d="M188.8593 186.4011
L189.0022 186.3297
" />
<path d="M189.0022 186.3297
L189.0736 186.1868
" />
<path d="M189.0736 186.1868
L189.0736 186.1154
" />
<path d="M189.0736 186.1154
L189.0022 185.9726
" />
<path d="M189.0022 185.9726
L188.8593 185.9011
" />
<path d="M188.8593 185.9011
L188.6451 185.9011
" />
<path d="M188.6451 185.9011
L188.5022 185.8297
" />
<path d="M188.5022 185.8297
L188.4308 185.6868
" />
<path d="M188.4308 185.6868
L188.4308 185.6154
" />
<path d="M188.4308 185.6154
L188.5022 185.4726
" />
<path d="M188.5022 185.4726
L188.6451 185.4011
" />
<path d="M188.6451 185.4011
L188.8593 185.4011
" />
<path d="M188.8593 185.4011
L189.0022 185.4726
" />
<path d="M190.2879 186.3297
L190.1451 186.4011
" />
<path d="M190.1451 186.4011
L189.8593 186.4011
" />
<path d="M189.8593 186.4011
L189.7165 186.3297
" />
<path d="M189.7165 186.3297
L189.6451 186.1868
" />
<path d="M189.6451 186.1868
L189.6451 185.6154
" />
<path d="M189.6451 185.6154
L189.7165 185.4726
" />
<path d="M189.7165 185.4726
L189.8593 185.4011
" />
<path d="M189.8593 185.4011
L190.1451 185.4011
" />
<path d="M190.1451 185.4011
L190.2879 185.4726
" />
<path d="M190.2879 185.4726
L190.3593 185.6154
" />
<path d="M190.3593 185.6154
L190.3593 185.7583
" />
<path d="M190.3593 185.7583
L189.6451 185.9011
" />
<path d="M190.6451 186.5440
L191.7879 186.5440
" />
<path d="M192.6451 185.6154
L192.8593 185.6868
" />
<path d="M192.8593 185.6868
L192.9308 185.7583
" />
<path d="M192.9308 185.7583
L193.0022 185.9011
" />
<path d="M193.0022 185.9011
L193.0022 186.1154
" />
<path d="M193.0022 186.1154
L192.9308 186.2583
" />
<path d="M192.9308 186.2583
L192.8593 186.3297
" />
<path d="M192.8593 186.3297
L192.7165 186.4011
" />
<path d="M192.7165 186.4011
L192.1451 186.4011
" />
<path d="M192.1451 186.4011
L192.1451 184.9011
" />
<path d="M192.1451 184.9011
L192.6451 184.9011
" />
<path d="M192.6451 184.9011
L192.7879 184.9726
" />
<path d="M192.7879 184.9726
L192.8593 185.0440
" />
<path d="M192.8593 185.0440
L192.9308 185.1868
" />
<path d="M192.9308 185.1868
L192.9308 185.3297
" />
<path d="M192.9308 185.3297
L192.8593 185.4726
" />
<path d="M192.8593 185.4726
L192.7879 185.5440
" />
<path d="M192.7879 185.5440
L192.6451 185.6154
" />
<path d="M192.6451 185.6154
L192.1451 185.6154
" />
<path d="M193.2879 186.5440
L194.4308 186.5440
" />
<path d="M194.7165 185.9726
L195.4308 185.9726
" />
<path d="M194.5736 186.4011
L195.0736 184.9011
" />
<path d="M195.0736 184.9011
L195.5736 186.4011
" />
<path d="M195.8593 184.9011
L196.7165 184.9011
" />
<path d="M196.2879 186.4011
L196.2879 184.9011
" />
<path d="M197.2165 186.4011
L197.2165 184.9011
" />
<path d="M197.2165 184.9011
L197.7165 185.9726
" />
<path d="M197.7165 185.9726
L198.2165 184.9011
" />
<path d="M198.2165 184.9011
L198.2165 186.4011
" />
<path d="M198.9308 185.6154
L199.4308 185.6154
" />
<path d="M199.6451 186.4011
L198.9308 186.4011
" />
<path d="M198.9308 186.4011
L198.9308 184.9011
" />
<path d="M198.9308 184.9011
L199.6451 184.9011
" />
<path d="M201.0736 184.9726
L200.9308 184.9011
" />
<path d="M200.9308 184.9011
L200.7165 184.9011
" />
<path d="M200.7165 184.9011
L200.5022 184.9726
" />
<path d="M200.5022 184.9726
L200.3593 185.1154
" />
<path d="M200.3593 185.1154
L200.2879 185.2583
" />
<path d="M200.2879 185.2583
L200.2165 185.5440
" />
<path d="M200.2165 185.5440
L200.2165 185.7583
" />
<path d="M200.2165 185.7583
L200.2879 186.0440
" />
<path d="M200.2879 186.0440
L200.3593 186.1868
" />
<path d="M200.3593 186.1868
L200.5022 186.3297
" />
<path d="M200.5022 186.3297
L200.7165 186.4011
" />
<path d="M200.7165 186.4011
L200.8593 186.4011
" />
<path d="M200.8593 186.4011
L201.0736 186.3297
" />
<path d="M201.0736 186.3297
L201.1451 186.2583
" />
<path d="M201.1451 186.2583
L201.1451 185.7583
" />
<path d="M201.1451 185.7583
L200.8593 185.7583
" />
<path d="M201.7165 185.9726
L202.4308 185.9726
" />
<path d="M201.5736 186.4011
L202.0736 184.9011
" />
<path d="M202.0736 184.9011
L202.5736 186.4011
" />
<path d="M202.7165 186.5440
L203.8593 186.5440
" />
<path d="M204.0736 185.4011
L204.4308 186.4011
" />
<path d="M204.4308 186.4011
L204.7879 185.4011
" />
<path d="M205.2165 184.9011
L206.1451 184.9011
" />
<path d="M206.1451 184.9011
L205.6451 185.4726
" />
<path d="M205.6451 185.4726
L205.8593 185.4726
" />
<path d="M205.8593 185.4726
L206.0022 185.5440
" />
<path d="M206.0022 185.5440
L206.0736 185.6154
" />
<path d="M206.0736 185.6154
L206.1451 185.7583
" />
<path d="M206.1451 185.7583
L206.1451 186.1154
" />
<path d="M206.1451 186.1154
L206.0736 186.2583
" />
<path d="M206.0736 186.2583
L206.0022 186.3297
" />
<path d="M206.0022 186.3297
L205.8593 186.4011
" />
<path d="M205.8593 186.4011
L205.4308 186.4011
" />
<path d="M205.4308 186.4011
L205.2879 186.3297
" />
<path d="M205.2879 186.3297
L205.2165 186.2583
" />
<path d="M206.7879 186.2583
L206.8593 186.3297
" />
<path d="M206.8593 186.3297
L206.7879 186.4011
" />
<path d="M206.7879 186.4011
L206.7165 186.3297
" />
<path d="M206.7165 186.3297
L206.7879 186.2583
" />
<path d="M206.7879 186.2583
L206.7879 186.4011
" />
<path d="M207.5022 186.4011
L207.5022 184.9011
" />
<path d="M207.6451 185.8297
L208.0736 186.4011
" />
<path d="M208.0736 185.4011
L207.5022 185.9726
" />
<path d="M208.7165 186.4011
L208.7165 185.4011
" />
<path d="M208.7165 184.9011
L208.6451 184.9726
" />
<path d="M208.6451 184.9726
L208.7165 185.0440
" />
<path d="M208.7165 185.0440
L208.7879 184.9726
" />
<path d="M208.7879 184.9726
L208.7165 184.9011
" />
<path d="M208.7165 184.9011
L208.7165 185.0440
" />
<path d="M210.0736 186.3297
L209.9308 186.4011
" />
<path d="M209.9308 186.4011
L209.6451 186.4011
" />
<path d="M209.6451 186.4011
L209.5022 186.3297
" />
<path d="M209.5022 186.3297
L209.4308 186.2583
" />
<path d="M209.4308 186.2583
L209.3593 186.1154
" />
<path d="M209.3593 186.1154
L209.3593 185.6868
" />
<path d="M209.3593 185.6868
L209.4308 185.5440
" />
<path d="M209.4308 185.5440
L209.5022 185.4726
" />
<path d="M209.5022 185.4726
L209.6451 185.4011
" />
<path d="M209.6451 185.4011
L209.9308 185.4011
" />
<path d="M209.9308 185.4011
L210.0736 185.4726
" />
<path d="M211.3593 186.4011
L211.3593 185.6154
" />
<path d="M211.3593 185.6154
L211.2879 185.4726
" />
<path d="M211.2879 185.4726
L211.1451 185.4011
" />
<path d="M211.1451 185.4011
L210.8593 185.4011
" />
<path d="M210.8593 185.4011
L210.7165 185.4726
" />
<path d="M211.3593 186.3297
L211.2165 186.4011
" />
<path d="M211.2165 186.4011
L210.8593 186.4011
" />
<path d="M210.8593 186.4011
L210.7165 186.3297
" />
<path d="M210.7165 186.3297
L210.6451 186.1868
" />
<path d="M210.6451 186.1868
L210.6451 186.0440
" />
<path d="M210.6451 186.0440
L210.7165 185.9011
" />
<path d="M210.7165 185.9011
L210.8593 185.8297
" />
<path d="M210.8593 185.8297
L211.2165 185.8297
" />
<path d="M211.2165 185.8297
L211.3593 185.7583
" />
<path d="M212.7165 186.4011
L212.7165 184.9011
" />
<path d="M212.7165 186.3297
L212.5736 186.4011
" />
<path d="M212.5736 186.4011
L212.2879 186.4011
" />
<path d="M212.2879 186.4011
L212.1451 186.3297
" />
<path d="M212.1451 186.3297
L212.0736 186.2583
" />
<path d="M212.0736 186.2583
L212.0022 186.1154
" />
<path d="M212.0022 186.1154
L212.0022 185.6868
" />
<path d="M212.0022 185.6868
L212.0736 185.5440
" />
<path d="M212.0736 185.5440
L212.1451 185.4726
" />
<path d="M212.1451 185.4726
L212.2879 185.4011
" />
<path d="M212.2879 185.4011
L212.5736 185.4011
" />
<path d="M212.5736 185.4011
L212.7165 185.4726
" />
<path d="M213.0736 186.5440
L214.2165 186.5440
" />
<path d="M214.5736 185.4011
L214.5736 186.9011
" />
<path d="M214.5736 185.4726
L214.7165 185.4011
" />
<path d="M214.7165 185.4011
L215.0022 185.4011
" />
<path d="M215.0022 185.4011
L215.1451 185.4726
" />
<path d="M215.1451 185.4726
L215.2165 185.5440
" />
<path d="M215.2165 185.5440
L215.2879 185.6868
" />
<path d="M215.2879 185.6868
L215.2879 186.1154
" />
<path d="M215.2879 186.1154
L215.2165 186.2583
" />
<path d="M215.2165 186.2583
L215.1451 186.3297
" />
<path d="M215.1451 186.3297
L215.0022 186.4011
" />
<path d="M215.0022 186.4011
L214.7165 186.4011
" />
<path d="M214.7165 186.4011
L214.5736 186.3297
" />
<path d="M216.5736 186.3297
L216.4308 186.4011
" />
<path d="M216.4308 186.4011
L216.1451 186.4011
" />
<path d="M216.1451 186.4011
L216.0022 186.3297
" />
<path d="M216.0022 186.3297
L215.9308 186.2583
" />
<path d="M215.9308 186.2583
L215.8593 186.1154
" />
<path d="M215.8593 186.1154
L215.8593 185.6868
" />
<path d="M215.8593 185.6868
L215.9308 185.5440
" />
<path d="M215.9308 185.5440
L216.0022 185.4726
" />
<path d="M216.0022 185.4726
L216.1451 185.4011
" />
<path d="M216.1451 185.4011
L216.4308 185.4011
" />
<path d="M216.4308 185.4011
L216.5736 185.4726
" />
<path d="M217.2165 186.4011
L217.2165 184.9011
" />
<path d="M217.2165 185.4726
L217.3593 185.4011
" />
<path d="M217.3593 185.4011
L217.6451 185.4011
" />
<path d="M217.6451 185.4011
L217.7879 185.4726
" />
<path d="M217.7879 185.4726
L217.8593 185.5440
" />
<path d="M217.8593 185.5440
L217.9308 185.6868
" />
<path d="M217.9308 185.6868
L217.9308 186.1154
" />
<path d="M217.9308 186.1154
L217.8593 186.2583
" />
<path d="M217.8593 186.2583
L217.7879 186.3297
" />
<path d="M217.7879 186.3297
L217.6451 186.4011
" />
<path d="M217.6451 186.4011
L217.3593 186.4011
" />
<path d="M217.3593 186.4011
L217.2165 186.3297
" />
</g></g>
<g style="fill:#000000; fill-opacity:0.0; 
stroke:#000000; stroke-width:0.0212; stroke-opacity:1; 
stroke-linecap:round; stroke-linejoin:round;">
</g>
<g style="fill:#000000; fill-opacity:0.0; 
stroke:#000000; stroke-width:0.1500; stroke-opacity:1; 
stroke-linecap:round; stroke-linejoin:round;">
<path d="M177.0022 181.5072
L285.0022 181.5072
" />
</g>
<g style="fill:#000000; fill-opacity:0.0; 
stroke:#000000; stroke-width:0.0212; stroke-opacity:1; 
stroke-linecap:round; stroke-linejoin:round;">
</g>
<g style="fill:#000000; fill-opacity:0.0; 
stroke:#000000; stroke-width:0.1500; stroke-opacity:1; 
stroke-linecap:round; stroke-linejoin:round;">
<text x="178.0022" y="183.7572"
textLength="8.1464" font-size="2.0000" lengthAdjust="spacingAndGlyphs"
text-anchor="start" opacity="0">Sheet: </text>
<g class="stroked-text"><desc>Sheet: </desc>
<path d="M178.2879 183.6297
L178.5022 183.7011
" />
<path d="M178.5022 183.7011
L178.8593 183.7011
" />
<path d="M178.8593 183.7011
L179.0022 183.6297
" />
<path d="M179.0022 183.6297
L179.0736 183.5583
" />
<path d="M179.0736 183.5583
L179.1451 183.4154
" />
<path d="M179.1451 183.4154
L179.1451 183.2726
" />
<path d="M179.1451 183.2726
L179.0736 183.1297
" />
<path d="M179.0736 183.1297
L179.0022 183.0583
" />
<path d="M179.0022 183.0583
L178.8593 182.9868
" />
<path d="M178.8593 182.9868
L178.5736 182.9154
" />
<path d="M178.5736 182.9154
L178.4308 182.8440
" />
<path d="M178.4308 182.8440
L178.3593 182.7726
" />
<path d="M178.3593 182.7726
L178.2879 182.6297
" />
<path d="M178.2879 182.6297
L178.2879 182.4868
" />
<path d="M178.2879 182.4868
L178.3593 182.3440
" />
<path d="M178.3593 182.3440
L178.4308 182.2726
" />
<path d="M178.4308 182.2726
L178.5736 182.2011
" />
<path d="M178.5736 182.2011
L178.9308 182.2011
" />
<path d="M178.9308 182.2011
L179.1451 182.2726
" />
<path d="M179.7879 183.7011
L179.7879 182.2011
" />
<path d="M180.4308 183.7011
L180.4308 182.9154
" />
<path d="M180.4308 182.9154
L180.3593 182.7726
" />
<path d="M180.3593 182.7726
L180.2165 182.7011
" />
<path d="M180.2165 182.7011
L180.0022 182.7011
" />
<path d="M180.0022 182.7011
L179.8593 182.7726
" />
<path d="M179.8593 182.7726
L179.7879 182.8440
" />
<path d="M181.7165 183.6297
L181.5736 183.7011
" />
<path d="M181.5736 183.7011
L181.2879 183.7011
" />
<path d="M181.2879 183.7011
L181.1451 183.6297
" />
<path d="M181.1451 183.6297
L181.0736 183.4868
" />
<path d="M181.0736 183.4868
L181.0736 182.9154
" />
<path d="M181.0736 182.9154
L181.1451 182.7726
" />
<path d="M181.1451 182.7726
L181.2879 182.7011
" />
<path d="M181.2879 182.7011
L181.5736 182.7011
" />
<path d="M181.5736 182.7011
L181.7165 182.7726
" />
<path d="M181.7165 182.7726
L181.7879 182.9154
" />
<path d="M181.7879 182.9154
L181.7879 183.0583
" />
<path d="M181.7879 183.0583
L181.0736 183.2011
" />
<path d="M183.0022 183.6297
L182.8593 183.7011
" />
<path d="M182.8593 183.7011
L182.5736 183.7011
" />
<path d="M182.5736 183.7011
L182.4308 183.6297
" />
<path d="M182.4308 183.6297
L182.3593 183.4868
" />
<path d="M182.3593 183.4868
L182.3593 182.9154
" />
<path d="M182.3593 182.9154
L182.4308 182.7726
" />
<path d="M182.4308 182.7726
L182.5736 182.7011
" />
<path d="M182.5736 182.7011
L182.8593 182.7011
" />
<path d="M182.8593 182.7011
L183.0022 182.7726
" />
<path d="M183.0022 182.7726
L183.0736 182.9154
" />
<path d="M183.0736 182.9154
L183.0736 183.0583
" />
<path d="M183.0736 183.0583
L182.3593 183.2011
" />
<path d="M183.5022 182.7011
L184.0736 182.7011
" />
<path d="M183.7165 182.2011
L183.7165 183.4868
" />
<path d="M183.7165 183.4868
L183.7879 183.6297
" />
<path d="M183.7879 183.6297
L183.9308 183.7011
" />
<path d="M183.9308 183.7011
L184.0736 183.7011
" />
<path d="M184.5736 183.5583
L184.6451 183.6297
" />
<path d="M184.6451 183.6297
L184.5736 183.7011
" />
<path d="M184.5736 183.7011
L184.5022 183.6297
" />
<path d="M184.5022 183.6297
L184.5736 183.5583
" />
<path d="M184.5736 183.5583
L184.5736 183.7011
" />
<path d="M184.5736 182.7726
L184.6451 182.8440
" />
<path d="M184.6451 182.8440
L184.5736 182.9154
" />
<path d="M184.5736 182.9154
L184.5022 182.8440
" />
<path d="M184.5022 182.8440
L184.5736 182.7726
" />
<path d="M184.5736 182.7726
L184.5736 182.9154
" />
</g></g>
<g style="fill:#000000; fill-opacity:0.0; 
stroke:#000000; stroke-width:0.0212; stroke-opacity:1; 
stroke-linecap:round; stroke-linejoin:round;">
</g>
<g style="fill:#000000; fill-opacity:0.0; 
stroke:#000000; stroke-width:0.3000; stroke-opacity:1; 
stroke-linecap:round; stroke-linejoin:round;">
<text x="178.0022" y="180.7572"
textLength="0.7500" font-size="2.0000" lengthAdjust="spacingAndGlyphs"
text-anchor="start" opacity="0"></text>
<g class="stroked-text"><desc></desc>
</g></g>
<g style="fill:#000000; fill-opacity:0.0; 
stroke:#000000; stroke-width:0.0212; stroke-opacity:1; 
stroke-linecap:round; stroke-linejoin:round;">
</g>
<g style="fill:#000000; fill-opacity:0.0; 
stroke:#000000; stroke-width:0.1500; stroke-opacity:1; 
stroke-linecap:round; stroke-linejoin:round;">
<text x="178.0022" y="177.7572"
textLength="0.3750" font-size="2.0000" lengthAdjust="spacingAndGlyphs"
text-anchor="start" opacity="0"></text>
<g class="stroked-text"><desc></desc>
</g></g>
<g style="fill:#000000; fill-opacity:0.0; 
stroke:#000000; stroke-width:0.0212; stroke-opacity:1; 
stroke-linecap:round; stroke-linejoin:round;">
</g>
<g style="fill:#000000; fill-opacity:0.0; 
stroke:#000000; stroke-width:0.1500; stroke-opacity:1; 
stroke-linecap:round; stroke-linejoin:round;">
<text x="178.0022" y="174.7572"
textLength="0.3750" font-size="2.0000" lengthAdjust="spacingAndGlyphs"
text-anchor="start" opacity="0"></text>
<g class="stroked-text"><desc></desc>
</g></g>
<g style="fill:#000000; fill-opacity:0.0; 
stroke:#000000; stroke-width:0.0212; stroke-opacity:1; 
stroke-linecap:round; stroke-linejoin:round;">
</g>
<g style="fill:#000000; fill-opacity:0.0; 
stroke:#000000; stroke-width:0.1500; stroke-opacity:1; 
stroke-linecap:round; stroke-linejoin:round;">
<text x="178.0022" y="171.7572"
textLength="0.3750" font-size="2.0000" lengthAdjust="spacingAndGlyphs"
text-anchor="start" opacity="0"></text>
<g class="stroked-text"><desc></desc>
</g></g>
<g style="fill:#000000; fill-opacity:0.0; 
stroke:#000000; stroke-width:0.0212; stroke-opacity:1; 
stroke-linecap:round; stroke-linejoin:round;">
</g>
<g style="fill:#000000; fill-opacity:0.0; 
stroke:#000000; stroke-width:0.1500; stroke-opacity:1; 
stroke-linecap:round; stroke-linejoin:round;">
<text x="178.0022" y="168.7572"
textLength="0.3750" font-size="2.0000" lengthAdjust="spacingAndGlyphs"
text-anchor="start" opacity="0"></text>
<g class="stroked-text"><desc></desc>
</g></g>
<g style="fill:#000000; fill-opacity:0.0; 
stroke:#000000; stroke-width:0.0212; stroke-opacity:1; 
stroke-linecap:round; stroke-linejoin:round;">
</g>
<g style="fill:#000000; fill-opacity:0.0; 
stroke:#000000; stroke-width:0.1500; stroke-opacity:1; 
stroke-linecap:round; stroke-linejoin:round;">
<path d="M197.0022 191.5072
L197.0022 194.5072
" />
</g>
<g style="fill:#000000; fill-opacity:0.0; 
stroke:#000000; stroke-width:0.0212; stroke-opacity:1; 
stroke-linecap:round; stroke-linejoin:round;">
</g>
<g style="fill:#000000; fill-opacity:0.0; 
stroke:#000000; stroke-width:0.1500; stroke-opacity:1; 
stroke-linecap:round; stroke-linejoin:round;">
<path d="M261.0022 191.5072
L261.0022 198.0072
" />
</g>
<g style="fill:#FF26E2; fill-opacity:0.0; 
stroke:#FF26E2; stroke-width:0.1500; stroke-opacity:1; 
stroke-linecap:round; stroke-linejoin:round;">
</g>
<g style="fill:#FF26E2; fill-opacity:0.0; 
stroke:#FF26E2; stroke-width:0.0500; stroke-opacity:1; 
stroke-linecap:round; stroke-linejoin:round;">
<path d="M145.8450 74.7200
L148.8050 74.7200
" />
<path d="M145.8450 76.1800
L145.8450 74.7200
" />
<path d="M148.8050 74.7200
L148.8050 76.1800
" />
<path d="M148.8050 76.1800
L145.8450 76.1800
" />
<path d="M166.0200 60.1300
L166.0200 57.1700
" />
<path d="M167.4800 60.1300
L166.0200 60.1300
" />
<path d="M166.0200 57.1700
L167.4800 57.1700
" />
<path d="M167.4800 57.1700
L167.4800 60.1300
" />
<path d="M139.2000 55.1500
L145.1000 55.1500
" />
<path d="M139.2000 59.0500
L139.2000 55.1500
" />
<path d="M145.1000 55.1500
L145.1000 59.0500
" />
<path d="M145.1000 59.0500
L139.2000 59.0500
" />
<path d="M165.6950 82.7700
L168.6550 82.7700
" />
<path d="M165.6950 84.2300
L165.6950 82.7700
" />
<path d="M168.6550 82.7700
L168.6550 84.2300
" />
<path d="M168.6550 84.2300
L165.6950 84.2300
" />
<path d="M170.2500 55.3525
L170.2500 51.9925
" />
<path d="M172.1500 55.3525
L170.2500 55.3525
" />
<path d="M170.2500 51.9925
L172.1500 51.9925
" />
<path d="M172.1500 51.9925
L172.1500 55.3525
" />
<path d="M173.1450 81.0700
L176.1050 81.0700
" />
<path d="M173.1450 82.5300
L173.1450 81.0700
" />
<path d="M176.1050 81.0700
L176.1050 82.5300
" />
<path d="M176.1050 82.5300
L173.1450 82.5300
" />
<path d="M162.4500 55.2775
L162.4500 51.9175
" />
<path d="M164.3500 55.2775
L162.4500 55.2775
" />
<path d="M162.4500 51.9175
L164.3500 51.9175
" />
<path d="M164.3500 51.9175
L164.3500 55.2775
" />
</g>
<g style="fill:#FF26E2; fill-opacity:0.0; 
stroke:#FF26E2; stroke-width:0.1000; stroke-opacity:1; 
stroke-linecap:round; stroke-linejoin:round;">
<path d="M155.2500 87.9000
L173.5500 87.9000
" />
<path d="M155.2500 87.9000
L173.5500 87.9000
" />
<path d="M155.2500 101.9000
L155.2500 87.9000
" />
<path d="M155.2500 101.9000
L155.2500 87.9000
" />
<path d="M173.5500 87.9000
L173.5500 101.9000
" />
<path d="M173.5500 87.9000
L173.5500 101.9000
" />
<path d="M173.5500 101.9000
L155.2500 101.9000
" />
<path d="M173.5500 101.9000
L155.2500 101.9000
" />
</g>
<g style="fill:#FF26E2; fill-opacity:0.0; 
stroke:#FF26E2; stroke-width:0.0500; stroke-opacity:1; 
stroke-linecap:round; stroke-linejoin:round;">
<path d="M184.6200 63.1000
L187.9800 63.1000
" />
<path d="M184.6200 65.0000
L184.6200 63.1000
" />
<path d="M187.9800 63.1000
L187.9800 65.0000
" />
<path d="M187.9800 65.0000
L184.6200 65.0000
" />
</g>
<g style="fill:#FF26E2; fill-opacity:0.0; 
stroke:#FF26E2; stroke-width:0.1000; stroke-opacity:1; 
stroke-linecap:round; stroke-linejoin:round;">
<path d="M179.3000 87.8000
L197.6000 87.8000
" />
<path d="M179.3000 87.8000
L197.6000 87.8000
" />
<path d="M179.3000 101.8000
L179.3000 87.8000
" />
<path d="M179.3000 101.8000
L179.3000 87.8000
" />
<path d="M197.6000 87.8000
L197.6000 101.8000
" />
<path d="M197.6000 87.8000
L197.6000 101.8000
" />
<path d="M197.6000 101.8000
L179.3000 101.8000
" />
<path d="M197.6000 101.8000
L179.3000 101.8000
" />
</g>
<g style="fill:#FF26E2; fill-opacity:0.0; 
stroke:#FF26E2; stroke-width:0.0500; stroke-opacity:1; 
stroke-linecap:round; stroke-linejoin:round;">
<path d="M172.9000 55.2525
L172.9000 51.8925
" />
<path d="M174.8000 55.2525
L172.9000 55.2525
" />
<path d="M172.9000 51.8925
L174.8000 51.8925
" />
<path d="M174.8000 51.8925
L174.8000 55.2525
" />
<path d="M197.7325 91.3000
L201.0925 91.3000
" />
<path d="M197.7325 93.2000
L197.7325 91.3000
" />
<path d="M201.0925 91.3000
L201.0925 93.2000
" />
<path d="M201.0925 93.2000
L197.7325 93.2000
" />
<path d="M139.1200 86.0200
L136.1600 86.0200
" />
<path d="M139.1200 84.5600
L139.1200 86.0200
" />
<path d="M136.1600 86.0200
L136.1600 84.5600
" />
<path d="M136.1600 84.5600
L139.1200 84.5600
" />
<path d="M163.9000 62.6300
L160.5000 62.6300
" />
<path d="M163.9000 60.6700
L163.9000 62.6300
" />
<path d="M160.5000 62.6300
L160.5000 60.6700
" />
<path d="M160.5000 60.6700
L163.9000 60.6700
" />
<path d="M204.3000 58.8000
L204.3000 53.3000
" />
<path d="M204.3000 53.3000
L196.6000 53.3000
" />
<path d="M196.6000 58.8000
L204.3000 58.8000
" />
<path d="M196.6000 53.3000
L196.6000 58.8000
" />
<path d="M137.9750 58.4500
L135.2750 58.4500
" />
<path d="M137.9750 58.4500
L137.9750 62.0500
" />
<path d="M132.5250 58.4500
L129.8250 58.4500
" />
<path d="M135.2750 60.0500
L135.2750 58.4500
" />
<path d="M135.2750 60.0500
L132.5250 60.0500
" />
<path d="M132.5250 60.0500
L132.5250 58.4500
" />
<path d="M129.8250 60.0500
L129.8250 58.4500
" />
<path d="M127.6750 60.0500
L129.8250 60.0500
" />
<path d="M127.6750 60.0500
L127.6750 68.7500
" />
<path d="M137.9750 62.0500
L138.2250 62.0500
" />
<path d="M138.2250 66.7500
L138.2250 62.0500
" />
<path d="M137.9750 66.7500
L138.2250 66.7500
" />
<path d="M135.2750 68.7500
L132.5250 68.7500
" />
<path d="M135.2750 68.7500
L135.2750 70.3500
" />
<path d="M132.5250 68.7500
L132.5250 70.3500
" />
<path d="M129.8250 68.7500
L129.8250 70.3500
" />
<path d="M127.6750 68.7500
L129.8250 68.7500
" />
<path d="M137.9750 70.3500
L137.9750 66.7500
" />
<path d="M137.9750 70.3500
L135.2750 70.3500
" />
<path d="M132.5250 70.3500
L129.8250 70.3500
" />
<circle cx="205.4000" cy="98.1500" r="2.4500" /> 
<path d="M167.6000 55.2900
L167.6000 51.9300
" />
<path d="M169.5000 55.2900
L167.6000 55.2900
" />
<path d="M167.6000 51.9300
L169.5000 51.9300
" />
<path d="M169.5000 51.9300
L169.5000 55.2900
" />
<path d="M189.2325 63.2000
L192.5925 63.2000
" />
<path d="M189.2325 65.1000
L189.2325 63.2000
" />
<path d="M192.5925 63.2000
L192.5925 65.1000
" />
<path d="M192.5925 65.1000
L189.2325 65.1000
" />
<path d="M177.1000 28.3700
L177.1000 31.7300
" />
<path d="M175.2000 28.3700
L177.1000 28.3700
" />
<path d="M177.1000 31.7300
L175.2000 31.7300
" />
<path d="M175.2000 31.7300
L175.2000 28.3700
" />
<path d="M158.3500 83.7000
L150.8500 83.7000
" />
<path d="M158.3500 78.4000
L158.3500 83.7000
" />
<path d="M150.8500 83.7000
L150.8500 78.4000
" />
<path d="M150.8500 78.4000
L158.3500 78.4000
" />
<path d="M150.1825 54.1500
L153.5425 54.1500
" />
<path d="M150.1825 56.0500
L150.1825 54.1500
" />
<path d="M153.5425 54.1500
L153.5425 56.0500
" />
<path d="M153.5425 56.0500
L150.1825 56.0500
" />
<path d="M139.2950 63.6700
L142.2550 63.6700
" />
<path d="M139.2950 65.1300
L139.2950 63.6700
" />
<path d="M142.2550 63.6700
L142.2550 65.1300
" />
<path d="M142.2550 65.1300
L139.2950 65.1300
" />
<path d="M141.4125 72.8500
L141.4125 76.2500
" />
<path d="M141.4125 76.2500
L145.5125 76.2500
" />
<path d="M145.5125 72.8500
L141.4125 72.8500
" />
<path d="M145.5125 76.2500
L145.5125 72.8500
" />
<path d="M173.5325 91.2500
L176.8925 91.2500
" />
<path d="M173.5325 93.1500
L173.5325 91.2500
" />
<path d="M176.8925 91.2500
L176.8925 93.1500
" />
<path d="M176.8925 93.1500
L173.5325 93.1500
" />
<path d="M145.8450 72.8200
L148.8050 72.8200
" />
<path d="M145.8450 74.2800
L145.8450 72.8200
" />
<path d="M148.8050 72.8200
L148.8050 74.2800
" />
<path d="M148.8050 74.2800
L145.8450 74.2800
" />
<circle cx="133.3500" cy="33.2000" r="2.4500" /> 
<circle cx="201.7500" cy="71.1000" r="6.2500" /> 
<path d="M165.1000 55.3525
L165.1000 51.9925
" />
<path d="M167.0000 55.3525
L165.1000 55.3525
" />
<path d="M165.1000 51.9925
L167.0000 51.9925
" />
<path d="M167.0000 51.9925
L167.0000 55.3525
" />
<path d="M159.8800 76.7950
L159.8800 79.7550
" />
<path d="M158.4200 76.7950
L159.8800 76.7950
" />
<path d="M159.8800 79.7550
L158.4200 79.7550
" />
<path d="M158.4200 79.7550
L158.4200 76.7950
" />
<path d="M169.5000 28.5700
L169.5000 31.9300
" />
<path d="M167.6000 28.5700
L169.5000 28.5700
" />
<path d="M169.5000 31.9300
L167.6000 31.9300
" />
<path d="M167.6000 31.9300
L167.6000 28.5700
" />
<path d="M167.1000 28.6075
L167.1000 31.9675
" />
<path d="M165.2000 28.6075
L167.1000 28.6075
" />
<path d="M167.1000 31.9675
L165.2000 31.9675
" />
<path d="M165.2000 31.9675
L165.2000 28.6075
" />
<path d="M177.7200 69.4700
L180.6800 69.4700
" />
<path d="M177.7200 70.9300
L177.7200 69.4700
" />
<path d="M180.6800 69.4700
L180.6800 70.9300
" />
<path d="M180.6800 70.9300
L177.7200 70.9300
" />
<path d="M168.8000 81.0000
L168.8000 84.4000
" />
<path d="M168.8000 84.4000
L173.0000 84.4000
" />
<path d="M173.0000 81.0000
L168.8000 81.0000
" />
<path d="M173.0000 84.4000
L173.0000 81.0000
" />
<path d="M139.2700 61.9700
L142.2300 61.9700
" />
<path d="M139.2700 63.4300
L139.2700 61.9700
" />
<path d="M142.2300 61.9700
L142.2300 63.4300
" />
<path d="M142.2300 63.4300
L139.2700 63.4300
" />
<path d="M184.6575 65.2000
L188.0175 65.2000
" />
<path d="M184.6575 67.1000
L184.6575 65.2000
" />
<path d="M188.0175 65.2000
L188.0175 67.1000
" />
<path d="M188.0175 67.1000
L184.6575 67.1000
" />
<path d="M150.3400 56.2850
L153.3000 56.2850
" />
<path d="M150.3400 57.7450
L150.3400 56.2850
" />
<path d="M153.3000 56.2850
L153.3000 57.7450
" />
<path d="M153.3000 57.7450
L150.3400 57.7450
" />
<circle cx="205.3000" cy="43.9000" r="2.4500" /> 
<path d="M169.1300 73.9700
L169.1300 76.9300
" />
<path d="M167.6700 73.9700
L169.1300 73.9700
" />
<path d="M169.1300 76.9300
L167.6700 76.9300
" />
<path d="M167.6700 76.9300
L167.6700 73.9700
" />
<path d="M138.9700 96.6900
L138.9700 90.5900
" />
<path d="M147.6200 96.6900
L138.9700 96.6900
" />
<path d="M138.9700 90.5900
L147.6200 90.5900
" />
<path d="M147.6200 90.5900
L147.6200 96.6900
" />
<path d="M174.0700 60.1050
L174.0700 57.1450
" />
<path d="M175.5300 60.1050
L174.0700 60.1050
" />
<path d="M174.0700 57.1450
L175.5300 57.1450
" />
<path d="M175.5300 57.1450
L175.5300 60.1050
" />
<path d="M163.8800 64.2300
L160.9200 64.2300
" />
<path d="M163.8800 62.7700
L163.8800 64.2300
" />
<path d="M160.9200 64.2300
L160.9200 62.7700
" />
<path d="M160.9200 62.7700
L163.8800 62.7700
" />
<path d="M144.3500 51.7300
L144.3500 32.2300
" />
<path d="M195.1500 51.7300
L144.3500 51.7300
" />
<path d="M144.3500 32.2300
L195.1500 32.2300
" />
<path d="M195.1500 32.2300
L195.1500 51.7300
" />
<path d="M189.1925 65.2600
L192.5525 65.2600
" />
<path d="M189.1925 67.1600
L189.1925 65.2600
" />
<path d="M192.5525 65.2600
L192.5525 67.1600
" />
<path d="M192.5525 67.1600
L189.1925 67.1600
" />
<path d="M164.0500 60.3500
L164.0500 73.7500
" />
<path d="M164.0500 60.3500
L177.4500 60.3500
" />
<path d="M164.0500 73.7500
L177.4500 73.7500
" />
<path d="M177.4500 60.3500
L177.4500 73.7500
" />
<path d="M163.8550 69.3800
L160.8950 69.3800
" />
<path d="M163.8550 67.9200
L163.8550 69.3800
" />
<path d="M160.8950 69.3800
L160.8950 67.9200
" />
<path d="M160.8950 67.9200
L163.8550 67.9200
" />
<path d="M144.9500 61.9000
L144.9500 65.3000
" />
<path d="M144.9500 65.3000
L149.0500 65.3000
" />
<path d="M149.0500 61.9000
L144.9500 61.9000
" />
<path d="M149.0500 65.3000
L149.0500 61.9000
" />
<path d="M129.9000 78.3600
L136.0000 78.3600
" />
<path d="M129.9000 89.5600
L129.9000 78.3600
" />
<path d="M136.0000 78.3600
L136.0000 89.5600
" />
<path d="M136.0000 89.5600
L129.9000 89.5600
" />
<path d="M141.2300 74.9700
L141.2300 77.9300
" />
<path d="M139.7700 74.9700
L141.2300 74.9700
" />
<path d="M141.2300 77.9300
L139.7700 77.9300
" />
<path d="M139.7700 77.9300
L139.7700 74.9700
" />
<path d="M163.8550 67.7800
L160.8950 67.7800
" />
<path d="M163.8550 66.3200
L163.8550 67.7800
" />
<path d="M160.8950 67.7800
L160.8950 66.3200
" />
<path d="M160.8950 66.3200
L163.8550 66.3200
" />
<path d="M195.1800 60.6300
L192.2200 60.6300
" />
<path d="M195.1800 59.1700
L195.1800 60.6300
" />
<path d="M192.2200 60.6300
L192.2200 59.1700
" />
<path d="M192.2200 59.1700
L195.1800 59.1700
" />
<path d="M167.7700 60.1050
L167.7700 57.1450
" />
<path d="M169.2300 60.1050
L167.7700 60.1050
" />
<path d="M167.7700 57.1450
L169.2300 57.1450
" />
<path d="M169.2300 57.1450
L169.2300 60.1050
" />
<g >
</g>
<g >
</g>
<g >
</g>
<g >
</g>
<g >
</g>
<g >
</g>
<g >
</g>
<g >
</g>
<g >
</g>
<g >
</g>
<g >
</g>
<g >
</g>
<g >
</g>
<g >
</g>
<g >
</g>
<g >
</g>
<g >
</g>
<g >
</g>
<g >
</g>
<g >
</g>
<g >
</g>
<g >
</g>
<g >
</g>
<g >
</g>
<g >
</g>
<g >
</g>
<g >
</g>
<g >
</g>
<g >
</g>
<g >
</g>
<g >
</g>
<g >
</g>
<g >
</g>
<g >
</g>
<g >
</g>
<g >
</g>
<g >
</g>
<g >
</g>
<g >
</g>
<g >
</g>
<g >
</g>
<g >
</g>
<g >
</g>
<g >
</g>
<g >
</g>
<g >
</g>
<g >
</g>
<g >
</g>
<g >
</g>
<g >
</g>
<g >
</g>
<g >
</g>
<g >
</g>
<g >
</g>
<g >
</g>
</g>
<g style="fill:#000000; fill-opacity:0.0; 
stroke:#000000; stroke-width:0.0500; stroke-opacity:1; 
stroke-linecap:round; stroke-linejoin:round;">
</g>
<g style="fill:#D0D2CD; fill-opacity:0.0; 
stroke:#D0D2CD; stroke-width:0.0500; stroke-opacity:1; 
stroke-linecap:round; stroke-linejoin:round;">
</g>
<g style="fill:#D0D2CD; fill-opacity:0.0; 
stroke:#D0D2CD; stroke-width:0.1000; stroke-opacity:1; 
stroke-linecap:round; stroke-linejoin:round;">
<path d="M128.2700 102.2350 A1.9050 1.9050 0.0 0 0 130.1750 104.1400" />
<path d="M130.1750 27.9400
L208.9150 27.9400
" />
<path d="M128.2700 29.8450
L128.2700 102.2350
" />
<path d="M210.8200 29.8450
L210.8200 102.2350
" />
<path d="M130.1750 104.1400
L208.9150 104.1400
" />
<path d="M208.9150 104.1400 A1.9050 1.9050 0.0 0 0 210.8200 102.2350" />
<path d="M210.8200 29.8450 A1.9050 1.9050 0.0 0 0 208.9150 27.9400" />
<path d="M130.1750 27.9400 A1.9050 1.9050 0.0 0 0 128.2700 29.8450" />
<g >
</g>
<g >
</g>
<g >
</g>
<g >
</g>
<g >
</g>
<g >
</g>
<g >
</g>
<g >
</g>
<g >
</g>
<g >
</g>
<g >
</g>
<g >
</g>
<g >
</g>
<g >
</g>
<g >
</g>
<g >
</g>
<g >
</g>
<g >
</g>
<g >
</g>
<g >
</g>
<g >
</g>
<g >
</g>
<g >
</g>
<g >
</g>
<g >
</g>
<g >
</g>
<g >
</g>
<g >
</g>
<g >
</g>
<g >
</g>
<g >
</g>
<g >
</g>
<g >
</g>
<g >
</g>
<g >
</g>
<g >
</g>
<g >
</g>
<g >
</g>
<g >
</g>
<g >
</g>
<g >
</g>
<g >
</g>
<g >
</g>
<g >
</g>
<g >
</g>
<g >
</g>
<g >
</g>
<g >
</g>
<g >
</g>
<g >
</g>
<g >
</g>
<g >
</g>
<g >
</g>
<g >
</g>
<g >
</g>
</g> 
</svg>
