  0
SECTION
  2
HEADER
  9
$ANGBASE
  50
0.0
  9
$ANGDIR
  70
1
  9
$MEASUREMENT
  70
0
  0
ENDSEC
  0
SECTION
  2
TABLES
  0
TABLE
  2
LTYPE
  70
4
  0
LTYPE
  5
40F
  2
CONTINUOUS
  70
0
  3
Solid line
  72
65
  73
0
  40
0.0
  0
LTYPE
  5
410
  2
DASHDOT
 70
0
  3
Dash Dot ____ _ ____ _
 72
65
 73
4
 40
2.0
 49
1.25
 49
-0.25
 49
0.25
 49
-0.25
  0
LTYPE
  5
411
  2
DASHED
 70
0
  3
Dashed __ __ __ __ __
 72
65
 73
2
 40
0.75
 49
0.5
 49
-0.25
  0
LTYPE
  5
43B
  2
DOTTED
 70
0
  3
Dotted .  .  .  .
 72
65
 73
2
 40
0.2
 49
0.0
 49
-0.2
  0
ENDTAB
  0
TABLE
  2
STYLE
  70
4
  0
STYLE
  2
KICAD
  70
0
  40
0
  41
1
  42
1
  50
0
  71
0
  3
isocp.shx
  0
STYLE
  2
KICADB
  70
0
  40
0
  41
1
  42
1
  50
0
  71
0
  3
isocp.shx
  0
STYLE
  2
KICADI
  70
0
  40
0
  41
1
  42
1
  50
15
  71
0
  3
isocp.shx
  0
STYLE
  2
KICADBI
  70
0
  40
0
  41
1
  42
1
  50
15
  71
0
  3
isocp.shx
  0
ENDTAB
  0
TABLE
  2
LAYER
  70
1
  0
LAYER
  2
BLACK
  70
0
  62
7
  6
CONTINUOUS
  0
ENDTAB
  0
ENDSEC
  0
SECTION
  2
ENTITIES
0
LINE
8
BLACK
6
CONTINUOUS
10
8.225
20
-1.09803
11
8.23505
21
-1.09869
0
LINE
8
BLACK
6
CONTINUOUS
10
8.23505
20
-1.09869
11
8.24492
21
-1.10065
0
LINE
8
BLACK
6
CONTINUOUS
10
8.24492
20
-1.10065
11
8.25445
21
-1.10389
0
LINE
8
BLACK
6
CONTINUOUS
10
8.25445
20
-1.10389
11
8.26348
21
-1.10834
0
LINE
8
BLACK
6
CONTINUOUS
10
8.26348
20
-1.10834
11
8.27186
21
-1.11394
0
LINE
8
BLACK
6
CONTINUOUS
10
8.27186
20
-1.11394
11
8.27942
21
-1.12058
0
LINE
8
BLACK
6
CONTINUOUS
10
8.27942
20
-1.12058
11
8.28606
21
-1.12814
0
LINE
8
BLACK
6
CONTINUOUS
10
8.28606
20
-1.12814
11
8.29166
21
-1.13652
0
LINE
8
BLACK
6
CONTINUOUS
10
8.29166
20
-1.13652
11
8.29611
21
-1.14555
0
LINE
8
BLACK
6
CONTINUOUS
10
8.29611
20
-1.14555
11
8.29935
21
-1.15508
0
LINE
8
BLACK
6
CONTINUOUS
10
8.29935
20
-1.15508
11
8.30131
21
-1.16495
0
LINE
8
BLACK
6
CONTINUOUS
10
8.30131
20
-1.16495
11
8.30197
21
-1.175
0
LINE
8
BLACK
6
CONTINUOUS
10
8.30197
20
-1.175
11
8.30197
21
-4.025
0
LINE
8
BLACK
6
CONTINUOUS
10
8.30197
20
-4.025
11
8.30131
21
-4.03505
0
LINE
8
BLACK
6
CONTINUOUS
10
8.30131
20
-4.03505
11
8.29935
21
-4.04492
0
LINE
8
BLACK
6
CONTINUOUS
10
8.29935
20
-4.04492
11
8.29611
21
-4.05445
0
LINE
8
BLACK
6
CONTINUOUS
10
8.29611
20
-4.05445
11
8.29166
21
-4.06348
0
LINE
8
BLACK
6
CONTINUOUS
10
8.29166
20
-4.06348
11
8.28606
21
-4.07186
0
LINE
8
BLACK
6
CONTINUOUS
10
8.28606
20
-4.07186
11
8.27942
21
-4.07942
0
LINE
8
BLACK
6
CONTINUOUS
10
8.27942
20
-4.07942
11
8.27186
21
-4.08606
0
LINE
8
BLACK
6
CONTINUOUS
10
8.27186
20
-4.08606
11
8.26348
21
-4.09166
0
LINE
8
BLACK
6
CONTINUOUS
10
8.26348
20
-4.09166
11
8.25445
21
-4.09611
0
LINE
8
BLACK
6
CONTINUOUS
10
8.25445
20
-4.09611
11
8.24492
21
-4.09935
0
LINE
8
BLACK
6
CONTINUOUS
10
8.24492
20
-4.09935
11
8.23505
21
-4.10131
0
LINE
8
BLACK
6
CONTINUOUS
10
8.23505
20
-4.10131
11
8.225
21
-4.10197
0
LINE
8
BLACK
6
CONTINUOUS
10
8.225
20
-4.10197
11
5.125
21
-4.10197
0
LINE
8
BLACK
6
CONTINUOUS
10
5.125
20
-4.10197
11
5.11495
21
-4.10131
0
LINE
8
BLACK
6
CONTINUOUS
10
5.11495
20
-4.10131
11
5.10508
21
-4.09935
0
LINE
8
BLACK
6
CONTINUOUS
10
5.10508
20
-4.09935
11
5.09555
21
-4.09611
0
LINE
8
BLACK
6
CONTINUOUS
10
5.09555
20
-4.09611
11
5.08652
21
-4.09166
0
LINE
8
BLACK
6
CONTINUOUS
10
5.08652
20
-4.09166
11
5.07814
21
-4.08606
0
LINE
8
BLACK
6
CONTINUOUS
10
5.07814
20
-4.08606
11
5.07058
21
-4.07942
0
LINE
8
BLACK
6
CONTINUOUS
10
5.07058
20
-4.07942
11
5.06394
21
-4.07186
0
LINE
8
BLACK
6
CONTINUOUS
10
5.06394
20
-4.07186
11
5.05834
21
-4.06348
0
LINE
8
BLACK
6
CONTINUOUS
10
5.05834
20
-4.06348
11
5.05389
21
-4.05445
0
LINE
8
BLACK
6
CONTINUOUS
10
5.05389
20
-4.05445
11
5.05065
21
-4.04492
0
LINE
8
BLACK
6
CONTINUOUS
10
5.05065
20
-4.04492
11
5.04869
21
-4.03505
0
LINE
8
BLACK
6
CONTINUOUS
10
5.04869
20
-4.03505
11
5.04803
21
-4.025
0
LINE
8
BLACK
6
CONTINUOUS
10
5.04803
20
-4.025
11
5.04803
21
-1.175
0
LINE
8
BLACK
6
CONTINUOUS
10
5.04803
20
-1.175
11
5.04803
21
-1.175
0
LINE
8
BLACK
6
CONTINUOUS
10
5.04803
20
-1.175
11
5.04869
21
-1.16495
0
LINE
8
BLACK
6
CONTINUOUS
10
5.04869
20
-1.16495
11
5.05065
21
-1.15508
0
LINE
8
BLACK
6
CONTINUOUS
10
5.05065
20
-1.15508
11
5.05389
21
-1.14555
0
LINE
8
BLACK
6
CONTINUOUS
10
5.05389
20
-1.14555
11
5.05834
21
-1.13652
0
LINE
8
BLACK
6
CONTINUOUS
10
5.05834
20
-1.13652
11
5.06394
21
-1.12814
0
LINE
8
BLACK
6
CONTINUOUS
10
5.06394
20
-1.12814
11
5.07058
21
-1.12058
0
LINE
8
BLACK
6
CONTINUOUS
10
5.07058
20
-1.12058
11
5.07814
21
-1.11394
0
LINE
8
BLACK
6
CONTINUOUS
10
5.07814
20
-1.11394
11
5.08652
21
-1.10834
0
LINE
8
BLACK
6
CONTINUOUS
10
5.08652
20
-1.10834
11
5.09555
21
-1.10389
0
LINE
8
BLACK
6
CONTINUOUS
10
5.09555
20
-1.10389
11
5.10508
21
-1.10065
0
LINE
8
BLACK
6
CONTINUOUS
10
5.10508
20
-1.10065
11
5.11495
21
-1.09869
0
LINE
8
BLACK
6
CONTINUOUS
10
5.11495
20
-1.09869
11
5.125
21
-1.09803
0
LINE
8
BLACK
6
CONTINUOUS
10
5.125
20
-1.09803
11
8.225
21
-1.09803
0
LINE
8
BLACK
6
CONTINUOUS
10
5.125
20
-1.10197
11
5.12021
21
-1.10197
0
LINE
8
BLACK
6
CONTINUOUS
10
5.12021
20
-1.10197
11
5.11072
21
-1.10322
0
LINE
8
BLACK
6
CONTINUOUS
10
5.11072
20
-1.10322
11
5.10147
21
-1.1057
0
LINE
8
BLACK
6
CONTINUOUS
10
5.10147
20
-1.1057
11
5.09263
21
-1.10936
0
LINE
8
BLACK
6
CONTINUOUS
10
5.09263
20
-1.10936
11
5.08434
21
-1.11415
0
LINE
8
BLACK
6
CONTINUOUS
10
5.08434
20
-1.11415
11
5.07674
21
-1.11997
0
LINE
8
BLACK
6
CONTINUOUS
10
5.07674
20
-1.11997
11
5.06997
21
-1.12674
0
LINE
8
BLACK
6
CONTINUOUS
10
5.06997
20
-1.12674
11
5.06415
21
-1.13434
0
LINE
8
BLACK
6
CONTINUOUS
10
5.06415
20
-1.13434
11
5.05936
21
-1.14263
0
LINE
8
BLACK
6
CONTINUOUS
10
5.05936
20
-1.14263
11
5.0557
21
-1.15147
0
LINE
8
BLACK
6
CONTINUOUS
10
5.0557
20
-1.15147
11
5.05322
21
-1.16072
0
LINE
8
BLACK
6
CONTINUOUS
10
5.05322
20
-1.16072
11
5.05197
21
-1.17021
0
LINE
8
BLACK
6
CONTINUOUS
10
5.05197
20
-1.17021
11
5.05197
21
-1.175
0
LINE
8
BLACK
6
CONTINUOUS
10
5.05197
20
-1.175
11
5.05197
21
-4.025
0
LINE
8
BLACK
6
CONTINUOUS
10
5.05197
20
-4.025
11
5.05197
21
-4.02979
0
LINE
8
BLACK
6
CONTINUOUS
10
5.05197
20
-4.02979
11
5.05322
21
-4.03928
0
LINE
8
BLACK
6
CONTINUOUS
10
5.05322
20
-4.03928
11
5.0557
21
-4.04853
0
LINE
8
BLACK
6
CONTINUOUS
10
5.0557
20
-4.04853
11
5.05936
21
-4.05737
0
LINE
8
BLACK
6
CONTINUOUS
10
5.05936
20
-4.05737
11
5.06415
21
-4.06566
0
LINE
8
BLACK
6
CONTINUOUS
10
5.06415
20
-4.06566
11
5.06997
21
-4.07326
0
LINE
8
BLACK
6
CONTINUOUS
10
5.06997
20
-4.07326
11
5.07674
21
-4.08003
0
LINE
8
BLACK
6
CONTINUOUS
10
5.07674
20
-4.08003
11
5.08434
21
-4.08585
0
LINE
8
BLACK
6
CONTINUOUS
10
5.08434
20
-4.08585
11
5.09263
21
-4.09064
0
LINE
8
BLACK
6
CONTINUOUS
10
5.09263
20
-4.09064
11
5.10147
21
-4.0943
0
LINE
8
BLACK
6
CONTINUOUS
10
5.10147
20
-4.0943
11
5.11072
21
-4.09678
0
LINE
8
BLACK
6
CONTINUOUS
10
5.11072
20
-4.09678
11
5.12021
21
-4.09803
0
LINE
8
BLACK
6
CONTINUOUS
10
5.12021
20
-4.09803
11
5.125
21
-4.09803
0
LINE
8
BLACK
6
CONTINUOUS
10
5.125
20
-4.09803
11
8.225
21
-4.09803
0
LINE
8
BLACK
6
CONTINUOUS
10
8.225
20
-4.09803
11
8.22979
21
-4.09803
0
LINE
8
BLACK
6
CONTINUOUS
10
8.22979
20
-4.09803
11
8.23928
21
-4.09678
0
LINE
8
BLACK
6
CONTINUOUS
10
8.23928
20
-4.09678
11
8.24853
21
-4.0943
0
LINE
8
BLACK
6
CONTINUOUS
10
8.24853
20
-4.0943
11
8.25737
21
-4.09064
0
LINE
8
BLACK
6
CONTINUOUS
10
8.25737
20
-4.09064
11
8.26566
21
-4.08585
0
LINE
8
BLACK
6
CONTINUOUS
10
8.26566
20
-4.08585
11
8.27326
21
-4.08003
0
LINE
8
BLACK
6
CONTINUOUS
10
8.27326
20
-4.08003
11
8.28003
21
-4.07326
0
LINE
8
BLACK
6
CONTINUOUS
10
8.28003
20
-4.07326
11
8.28585
21
-4.06566
0
LINE
8
BLACK
6
CONTINUOUS
10
8.28585
20
-4.06566
11
8.29064
21
-4.05737
0
LINE
8
BLACK
6
CONTINUOUS
10
8.29064
20
-4.05737
11
8.2943
21
-4.04853
0
LINE
8
BLACK
6
CONTINUOUS
10
8.2943
20
-4.04853
11
8.29678
21
-4.03928
0
LINE
8
BLACK
6
CONTINUOUS
10
8.29678
20
-4.03928
11
8.29803
21
-4.02979
0
LINE
8
BLACK
6
CONTINUOUS
10
8.29803
20
-4.02979
11
8.29803
21
-4.025
0
LINE
8
BLACK
6
CONTINUOUS
10
8.29803
20
-4.025
11
8.29803
21
-1.175
0
LINE
8
BLACK
6
CONTINUOUS
10
8.29803
20
-1.175
11
8.29803
21
-1.17021
0
LINE
8
BLACK
6
CONTINUOUS
10
8.29803
20
-1.17021
11
8.29678
21
-1.16072
0
LINE
8
BLACK
6
CONTINUOUS
10
8.29678
20
-1.16072
11
8.2943
21
-1.15147
0
LINE
8
BLACK
6
CONTINUOUS
10
8.2943
20
-1.15147
11
8.29064
21
-1.14263
0
LINE
8
BLACK
6
CONTINUOUS
10
8.29064
20
-1.14263
11
8.28585
21
-1.13434
0
LINE
8
BLACK
6
CONTINUOUS
10
8.28585
20
-1.13434
11
8.28003
21
-1.12674
0
LINE
8
BLACK
6
CONTINUOUS
10
8.28003
20
-1.12674
11
8.27326
21
-1.11997
0
LINE
8
BLACK
6
CONTINUOUS
10
8.27326
20
-1.11997
11
8.26566
21
-1.11415
0
LINE
8
BLACK
6
CONTINUOUS
10
8.26566
20
-1.11415
11
8.25737
21
-1.10936
0
LINE
8
BLACK
6
CONTINUOUS
10
8.25737
20
-1.10936
11
8.24853
21
-1.1057
0
LINE
8
BLACK
6
CONTINUOUS
10
8.24853
20
-1.1057
11
8.23928
21
-1.10322
0
LINE
8
BLACK
6
CONTINUOUS
10
8.23928
20
-1.10322
11
8.22979
21
-1.10197
0
LINE
8
BLACK
6
CONTINUOUS
10
8.22979
20
-1.10197
11
8.225
21
-1.10197
0
LINE
8
BLACK
6
CONTINUOUS
10
8.225
20
-1.10197
11
5.125
21
-1.10197
  0
ENDSEC
  0
EOF
