  0
SECTION
  2
HEADER
  9
$ANGBASE
  50
0.0
  9
$ANGDIR
  70
1
  9
$MEASUREMENT
  70
0
  0
ENDSEC
  0
SECTION
  2
TABLES
  0
TABLE
  2
LTYPE
  70
4
  0
LTYPE
  5
40F
  2
CONTINUOUS
  70
0
  3
Solid line
  72
65
  73
0
  40
0.0
  0
LTYPE
  5
410
  2
DASHDOT
 70
0
  3
Dash Dot ____ _ ____ _
 72
65
 73
4
 40
2.0
 49
1.25
 49
-0.25
 49
0.25
 49
-0.25
  0
LTYPE
  5
411
  2
DASHED
 70
0
  3
Dashed __ __ __ __ __
 72
65
 73
2
 40
0.75
 49
0.5
 49
-0.25
  0
LTYPE
  5
43B
  2
DOTTED
 70
0
  3
Dotted .  .  .  .
 72
65
 73
2
 40
0.2
 49
0.0
 49
-0.2
  0
ENDTAB
  0
TABLE
  2
STYLE
  70
4
  0
STYLE
  2
KICAD
  70
0
  40
0
  41
1
  42
1
  50
0
  71
0
  3
isocp.shx
  0
STYLE
  2
KICADB
  70
0
  40
0
  41
1
  42
1
  50
0
  71
0
  3
isocp.shx
  0
STYLE
  2
KICADI
  70
0
  40
0
  41
1
  42
1
  50
15
  71
0
  3
isocp.shx
  0
STYLE
  2
KICADBI
  70
0
  40
0
  41
1
  42
1
  50
15
  71
0
  3
isocp.shx
  0
ENDTAB
  0
TABLE
  2
LAYER
  70
1
  0
LAYER
  2
BLACK
  70
0
  62
7
  6
CONTINUOUS
  0
ENDTAB
  0
ENDSEC
  0
SECTION
  2
ENTITIES
0
LINE
8
BLACK
6
CONTINUOUS
10
8.09847
20
-3.82252
11
8.10592
21
-3.82541
0
LINE
8
BLACK
6
CONTINUOUS
10
8.10592
20
-3.82541
11
8.11271
21
-3.82961
0
LINE
8
BLACK
6
CONTINUOUS
10
8.11271
20
-3.82961
11
8.11862
21
-3.835
0
LINE
8
BLACK
6
CONTINUOUS
10
8.11862
20
-3.835
11
8.12343
21
-3.84137
0
LINE
8
BLACK
6
CONTINUOUS
10
8.12343
20
-3.84137
11
8.127
21
-3.84853
0
LINE
8
BLACK
6
CONTINUOUS
10
8.127
20
-3.84853
11
8.12918
21
-3.85622
0
LINE
8
BLACK
6
CONTINUOUS
10
8.12918
20
-3.85622
11
8.12992
21
-3.86417
0
LINE
8
BLACK
6
CONTINUOUS
10
8.12992
20
-3.86417
11
8.12918
21
-3.87213
0
LINE
8
BLACK
6
CONTINUOUS
10
8.12918
20
-3.87213
11
8.127
21
-3.87982
0
LINE
8
BLACK
6
CONTINUOUS
10
8.127
20
-3.87982
11
8.12343
21
-3.88697
0
LINE
8
BLACK
6
CONTINUOUS
10
8.12343
20
-3.88697
11
8.11862
21
-3.89335
0
LINE
8
BLACK
6
CONTINUOUS
10
8.11862
20
-3.89335
11
8.11271
21
-3.89873
0
LINE
8
BLACK
6
CONTINUOUS
10
8.11271
20
-3.89873
11
8.10592
21
-3.90294
0
LINE
8
BLACK
6
CONTINUOUS
10
8.10592
20
-3.90294
11
8.09847
21
-3.90583
0
LINE
8
BLACK
6
CONTINUOUS
10
8.09847
20
-3.90583
11
8.09061
21
-3.9073
0
LINE
8
BLACK
6
CONTINUOUS
10
8.09061
20
-3.9073
11
8.08262
21
-3.9073
0
LINE
8
BLACK
6
CONTINUOUS
10
8.08262
20
-3.9073
11
8.07476
21
-3.90583
0
LINE
8
BLACK
6
CONTINUOUS
10
8.07476
20
-3.90583
11
8.06731
21
-3.90294
0
LINE
8
BLACK
6
CONTINUOUS
10
8.06731
20
-3.90294
11
8.06052
21
-3.89873
0
LINE
8
BLACK
6
CONTINUOUS
10
8.06052
20
-3.89873
11
8.05461
21
-3.89335
0
LINE
8
BLACK
6
CONTINUOUS
10
8.05461
20
-3.89335
11
8.04979
21
-3.88697
0
LINE
8
BLACK
6
CONTINUOUS
10
8.04979
20
-3.88697
11
8.04623
21
-3.87982
0
LINE
8
BLACK
6
CONTINUOUS
10
8.04623
20
-3.87982
11
8.04404
21
-3.87213
0
LINE
8
BLACK
6
CONTINUOUS
10
8.04404
20
-3.87213
11
8.04331
21
-3.86417
0
LINE
8
BLACK
6
CONTINUOUS
10
8.04331
20
-3.86417
11
8.04404
21
-3.85622
0
LINE
8
BLACK
6
CONTINUOUS
10
8.04404
20
-3.85622
11
8.04623
21
-3.84853
0
LINE
8
BLACK
6
CONTINUOUS
10
8.04623
20
-3.84853
11
8.04979
21
-3.84137
0
LINE
8
BLACK
6
CONTINUOUS
10
8.04979
20
-3.84137
11
8.05461
21
-3.835
0
LINE
8
BLACK
6
CONTINUOUS
10
8.05461
20
-3.835
11
8.06052
21
-3.82961
0
LINE
8
BLACK
6
CONTINUOUS
10
8.06052
20
-3.82961
11
8.06731
21
-3.82541
0
LINE
8
BLACK
6
CONTINUOUS
10
8.06731
20
-3.82541
11
8.07476
21
-3.82252
0
LINE
8
BLACK
6
CONTINUOUS
10
8.07476
20
-3.82252
11
8.08262
21
-3.82105
0
LINE
8
BLACK
6
CONTINUOUS
10
8.08262
20
-3.82105
11
8.09061
21
-3.82105
0
LINE
8
BLACK
6
CONTINUOUS
10
8.09061
20
-3.82105
11
8.09847
21
-3.82252
0
LINE
8
BLACK
6
CONTINUOUS
10
5.75247
20
-3.704
11
5.75886
21
-3.70685
0
LINE
8
BLACK
6
CONTINUOUS
10
5.75886
20
-3.70685
11
5.76452
21
-3.71096
0
LINE
8
BLACK
6
CONTINUOUS
10
5.76452
20
-3.71096
11
5.7692
21
-3.71616
0
LINE
8
BLACK
6
CONTINUOUS
10
5.7692
20
-3.71616
11
5.7727
21
-3.72222
0
LINE
8
BLACK
6
CONTINUOUS
10
5.7727
20
-3.72222
11
5.77486
21
-3.72887
0
LINE
8
BLACK
6
CONTINUOUS
10
5.77486
20
-3.72887
11
5.77559
21
-3.73583
0
LINE
8
BLACK
6
CONTINUOUS
10
5.77559
20
-3.73583
11
5.77486
21
-3.74278
0
LINE
8
BLACK
6
CONTINUOUS
10
5.77486
20
-3.74278
11
5.7727
21
-3.74944
0
LINE
8
BLACK
6
CONTINUOUS
10
5.7727
20
-3.74944
11
5.7692
21
-3.7555
0
LINE
8
BLACK
6
CONTINUOUS
10
5.7692
20
-3.7555
11
5.76452
21
-3.7607
0
LINE
8
BLACK
6
CONTINUOUS
10
5.76452
20
-3.7607
11
5.75886
21
-3.76481
0
LINE
8
BLACK
6
CONTINUOUS
10
5.75886
20
-3.76481
11
5.75247
21
-3.76765
0
LINE
8
BLACK
6
CONTINUOUS
10
5.75247
20
-3.76765
11
5.74562
21
-3.76911
0
LINE
8
BLACK
6
CONTINUOUS
10
5.74562
20
-3.76911
11
5.73863
21
-3.76911
0
LINE
8
BLACK
6
CONTINUOUS
10
5.73863
20
-3.76911
11
5.73178
21
-3.76765
0
LINE
8
BLACK
6
CONTINUOUS
10
5.73178
20
-3.76765
11
5.72539
21
-3.76481
0
LINE
8
BLACK
6
CONTINUOUS
10
5.72539
20
-3.76481
11
5.71973
21
-3.7607
0
LINE
8
BLACK
6
CONTINUOUS
10
5.71973
20
-3.7607
11
5.71505
21
-3.7555
0
LINE
8
BLACK
6
CONTINUOUS
10
5.71505
20
-3.7555
11
5.71155
21
-3.74944
0
LINE
8
BLACK
6
CONTINUOUS
10
5.71155
20
-3.74944
11
5.70939
21
-3.74278
0
LINE
8
BLACK
6
CONTINUOUS
10
5.70939
20
-3.74278
11
5.70866
21
-3.73583
0
LINE
8
BLACK
6
CONTINUOUS
10
5.70866
20
-3.73583
11
5.70939
21
-3.72887
0
LINE
8
BLACK
6
CONTINUOUS
10
5.70939
20
-3.72887
11
5.71155
21
-3.72222
0
LINE
8
BLACK
6
CONTINUOUS
10
5.71155
20
-3.72222
11
5.71505
21
-3.71616
0
LINE
8
BLACK
6
CONTINUOUS
10
5.71505
20
-3.71616
11
5.71973
21
-3.71096
0
LINE
8
BLACK
6
CONTINUOUS
10
5.71973
20
-3.71096
11
5.72539
21
-3.70685
0
LINE
8
BLACK
6
CONTINUOUS
10
5.72539
20
-3.70685
11
5.73178
21
-3.704
0
LINE
8
BLACK
6
CONTINUOUS
10
5.73178
20
-3.704
11
5.73863
21
-3.70255
0
LINE
8
BLACK
6
CONTINUOUS
10
5.73863
20
-3.70255
11
5.74562
21
-3.70255
0
LINE
8
BLACK
6
CONTINUOUS
10
5.74562
20
-3.70255
11
5.75247
21
-3.704
0
LINE
8
BLACK
6
CONTINUOUS
10
5.65247
20
-3.704
11
5.65886
21
-3.70685
0
LINE
8
BLACK
6
CONTINUOUS
10
5.65886
20
-3.70685
11
5.66452
21
-3.71096
0
LINE
8
BLACK
6
CONTINUOUS
10
5.66452
20
-3.71096
11
5.6692
21
-3.71616
0
LINE
8
BLACK
6
CONTINUOUS
10
5.6692
20
-3.71616
11
5.6727
21
-3.72222
0
LINE
8
BLACK
6
CONTINUOUS
10
5.6727
20
-3.72222
11
5.67486
21
-3.72887
0
LINE
8
BLACK
6
CONTINUOUS
10
5.67486
20
-3.72887
11
5.67559
21
-3.73583
0
LINE
8
BLACK
6
CONTINUOUS
10
5.67559
20
-3.73583
11
5.67486
21
-3.74278
0
LINE
8
BLACK
6
CONTINUOUS
10
5.67486
20
-3.74278
11
5.6727
21
-3.74944
0
LINE
8
BLACK
6
CONTINUOUS
10
5.6727
20
-3.74944
11
5.6692
21
-3.7555
0
LINE
8
BLACK
6
CONTINUOUS
10
5.6692
20
-3.7555
11
5.66452
21
-3.7607
0
LINE
8
BLACK
6
CONTINUOUS
10
5.66452
20
-3.7607
11
5.65886
21
-3.76481
0
LINE
8
BLACK
6
CONTINUOUS
10
5.65886
20
-3.76481
11
5.65247
21
-3.76765
0
LINE
8
BLACK
6
CONTINUOUS
10
5.65247
20
-3.76765
11
5.64562
21
-3.76911
0
LINE
8
BLACK
6
CONTINUOUS
10
5.64562
20
-3.76911
11
5.63863
21
-3.76911
0
LINE
8
BLACK
6
CONTINUOUS
10
5.63863
20
-3.76911
11
5.63178
21
-3.76765
0
LINE
8
BLACK
6
CONTINUOUS
10
5.63178
20
-3.76765
11
5.62539
21
-3.76481
0
LINE
8
BLACK
6
CONTINUOUS
10
5.62539
20
-3.76481
11
5.61973
21
-3.7607
0
LINE
8
BLACK
6
CONTINUOUS
10
5.61973
20
-3.7607
11
5.61505
21
-3.7555
0
LINE
8
BLACK
6
CONTINUOUS
10
5.61505
20
-3.7555
11
5.61155
21
-3.74944
0
LINE
8
BLACK
6
CONTINUOUS
10
5.61155
20
-3.74944
11
5.60939
21
-3.74278
0
LINE
8
BLACK
6
CONTINUOUS
10
5.60939
20
-3.74278
11
5.60866
21
-3.73583
0
LINE
8
BLACK
6
CONTINUOUS
10
5.60866
20
-3.73583
11
5.60939
21
-3.72887
0
LINE
8
BLACK
6
CONTINUOUS
10
5.60939
20
-3.72887
11
5.61155
21
-3.72222
0
LINE
8
BLACK
6
CONTINUOUS
10
5.61155
20
-3.72222
11
5.61505
21
-3.71616
0
LINE
8
BLACK
6
CONTINUOUS
10
5.61505
20
-3.71616
11
5.61973
21
-3.71096
0
LINE
8
BLACK
6
CONTINUOUS
10
5.61973
20
-3.71096
11
5.62539
21
-3.70685
0
LINE
8
BLACK
6
CONTINUOUS
10
5.62539
20
-3.70685
11
5.63178
21
-3.704
0
LINE
8
BLACK
6
CONTINUOUS
10
5.63178
20
-3.704
11
5.63863
21
-3.70255
0
LINE
8
BLACK
6
CONTINUOUS
10
5.63863
20
-3.70255
11
5.64562
21
-3.70255
0
LINE
8
BLACK
6
CONTINUOUS
10
5.64562
20
-3.70255
11
5.65247
21
-3.704
0
LINE
8
BLACK
6
CONTINUOUS
10
5.55247
20
-3.704
11
5.55886
21
-3.70685
0
LINE
8
BLACK
6
CONTINUOUS
10
5.55886
20
-3.70685
11
5.56452
21
-3.71096
0
LINE
8
BLACK
6
CONTINUOUS
10
5.56452
20
-3.71096
11
5.5692
21
-3.71616
0
LINE
8
BLACK
6
CONTINUOUS
10
5.5692
20
-3.71616
11
5.5727
21
-3.72222
0
LINE
8
BLACK
6
CONTINUOUS
10
5.5727
20
-3.72222
11
5.57486
21
-3.72887
0
LINE
8
BLACK
6
CONTINUOUS
10
5.57486
20
-3.72887
11
5.57559
21
-3.73583
0
LINE
8
BLACK
6
CONTINUOUS
10
5.57559
20
-3.73583
11
5.57486
21
-3.74278
0
LINE
8
BLACK
6
CONTINUOUS
10
5.57486
20
-3.74278
11
5.5727
21
-3.74944
0
LINE
8
BLACK
6
CONTINUOUS
10
5.5727
20
-3.74944
11
5.5692
21
-3.7555
0
LINE
8
BLACK
6
CONTINUOUS
10
5.5692
20
-3.7555
11
5.56452
21
-3.7607
0
LINE
8
BLACK
6
CONTINUOUS
10
5.56452
20
-3.7607
11
5.55886
21
-3.76481
0
LINE
8
BLACK
6
CONTINUOUS
10
5.55886
20
-3.76481
11
5.55247
21
-3.76765
0
LINE
8
BLACK
6
CONTINUOUS
10
5.55247
20
-3.76765
11
5.54562
21
-3.76911
0
LINE
8
BLACK
6
CONTINUOUS
10
5.54562
20
-3.76911
11
5.53863
21
-3.76911
0
LINE
8
BLACK
6
CONTINUOUS
10
5.53863
20
-3.76911
11
5.53178
21
-3.76765
0
LINE
8
BLACK
6
CONTINUOUS
10
5.53178
20
-3.76765
11
5.52539
21
-3.76481
0
LINE
8
BLACK
6
CONTINUOUS
10
5.52539
20
-3.76481
11
5.51973
21
-3.7607
0
LINE
8
BLACK
6
CONTINUOUS
10
5.51973
20
-3.7607
11
5.51505
21
-3.7555
0
LINE
8
BLACK
6
CONTINUOUS
10
5.51505
20
-3.7555
11
5.51155
21
-3.74944
0
LINE
8
BLACK
6
CONTINUOUS
10
5.51155
20
-3.74944
11
5.50939
21
-3.74278
0
LINE
8
BLACK
6
CONTINUOUS
10
5.50939
20
-3.74278
11
5.50866
21
-3.73583
0
LINE
8
BLACK
6
CONTINUOUS
10
5.50866
20
-3.73583
11
5.50939
21
-3.72887
0
LINE
8
BLACK
6
CONTINUOUS
10
5.50939
20
-3.72887
11
5.51155
21
-3.72222
0
LINE
8
BLACK
6
CONTINUOUS
10
5.51155
20
-3.72222
11
5.51505
21
-3.71616
0
LINE
8
BLACK
6
CONTINUOUS
10
5.51505
20
-3.71616
11
5.51973
21
-3.71096
0
LINE
8
BLACK
6
CONTINUOUS
10
5.51973
20
-3.71096
11
5.52539
21
-3.70685
0
LINE
8
BLACK
6
CONTINUOUS
10
5.52539
20
-3.70685
11
5.53178
21
-3.704
0
LINE
8
BLACK
6
CONTINUOUS
10
5.53178
20
-3.704
11
5.53863
21
-3.70255
0
LINE
8
BLACK
6
CONTINUOUS
10
5.53863
20
-3.70255
11
5.54562
21
-3.70255
0
LINE
8
BLACK
6
CONTINUOUS
10
5.54562
20
-3.70255
11
5.55247
21
-3.704
0
LINE
8
BLACK
6
CONTINUOUS
10
5.57559
20
-3.66929
11
5.50866
21
-3.66929
0
LINE
8
BLACK
6
CONTINUOUS
10
5.50866
20
-3.66929
11
5.50866
21
-3.60236
0
LINE
8
BLACK
6
CONTINUOUS
10
5.50866
20
-3.60236
11
5.57559
21
-3.60236
0
LINE
8
BLACK
6
CONTINUOUS
10
5.57559
20
-3.60236
11
5.57559
21
-3.66929
0
LINE
8
BLACK
6
CONTINUOUS
10
5.75247
20
-3.604
11
5.75886
21
-3.60685
0
LINE
8
BLACK
6
CONTINUOUS
10
5.75886
20
-3.60685
11
5.76452
21
-3.61096
0
LINE
8
BLACK
6
CONTINUOUS
10
5.76452
20
-3.61096
11
5.7692
21
-3.61616
0
LINE
8
BLACK
6
CONTINUOUS
10
5.7692
20
-3.61616
11
5.7727
21
-3.62222
0
LINE
8
BLACK
6
CONTINUOUS
10
5.7727
20
-3.62222
11
5.77486
21
-3.62887
0
LINE
8
BLACK
6
CONTINUOUS
10
5.77486
20
-3.62887
11
5.77559
21
-3.63583
0
LINE
8
BLACK
6
CONTINUOUS
10
5.77559
20
-3.63583
11
5.77486
21
-3.64278
0
LINE
8
BLACK
6
CONTINUOUS
10
5.77486
20
-3.64278
11
5.7727
21
-3.64944
0
LINE
8
BLACK
6
CONTINUOUS
10
5.7727
20
-3.64944
11
5.7692
21
-3.6555
0
LINE
8
BLACK
6
CONTINUOUS
10
5.7692
20
-3.6555
11
5.76452
21
-3.6607
0
LINE
8
BLACK
6
CONTINUOUS
10
5.76452
20
-3.6607
11
5.75886
21
-3.66481
0
LINE
8
BLACK
6
CONTINUOUS
10
5.75886
20
-3.66481
11
5.75247
21
-3.66765
0
LINE
8
BLACK
6
CONTINUOUS
10
5.75247
20
-3.66765
11
5.74562
21
-3.66911
0
LINE
8
BLACK
6
CONTINUOUS
10
5.74562
20
-3.66911
11
5.73863
21
-3.66911
0
LINE
8
BLACK
6
CONTINUOUS
10
5.73863
20
-3.66911
11
5.73178
21
-3.66765
0
LINE
8
BLACK
6
CONTINUOUS
10
5.73178
20
-3.66765
11
5.72539
21
-3.66481
0
LINE
8
BLACK
6
CONTINUOUS
10
5.72539
20
-3.66481
11
5.71973
21
-3.6607
0
LINE
8
BLACK
6
CONTINUOUS
10
5.71973
20
-3.6607
11
5.71505
21
-3.6555
0
LINE
8
BLACK
6
CONTINUOUS
10
5.71505
20
-3.6555
11
5.71155
21
-3.64944
0
LINE
8
BLACK
6
CONTINUOUS
10
5.71155
20
-3.64944
11
5.70939
21
-3.64278
0
LINE
8
BLACK
6
CONTINUOUS
10
5.70939
20
-3.64278
11
5.70866
21
-3.63583
0
LINE
8
BLACK
6
CONTINUOUS
10
5.70866
20
-3.63583
11
5.70939
21
-3.62887
0
LINE
8
BLACK
6
CONTINUOUS
10
5.70939
20
-3.62887
11
5.71155
21
-3.62222
0
LINE
8
BLACK
6
CONTINUOUS
10
5.71155
20
-3.62222
11
5.71505
21
-3.61616
0
LINE
8
BLACK
6
CONTINUOUS
10
5.71505
20
-3.61616
11
5.71973
21
-3.61096
0
LINE
8
BLACK
6
CONTINUOUS
10
5.71973
20
-3.61096
11
5.72539
21
-3.60685
0
LINE
8
BLACK
6
CONTINUOUS
10
5.72539
20
-3.60685
11
5.73178
21
-3.604
0
LINE
8
BLACK
6
CONTINUOUS
10
5.73178
20
-3.604
11
5.73863
21
-3.60255
0
LINE
8
BLACK
6
CONTINUOUS
10
5.73863
20
-3.60255
11
5.74562
21
-3.60255
0
LINE
8
BLACK
6
CONTINUOUS
10
5.74562
20
-3.60255
11
5.75247
21
-3.604
0
LINE
8
BLACK
6
CONTINUOUS
10
5.65247
20
-3.604
11
5.65886
21
-3.60685
0
LINE
8
BLACK
6
CONTINUOUS
10
5.65886
20
-3.60685
11
5.66452
21
-3.61096
0
LINE
8
BLACK
6
CONTINUOUS
10
5.66452
20
-3.61096
11
5.6692
21
-3.61616
0
LINE
8
BLACK
6
CONTINUOUS
10
5.6692
20
-3.61616
11
5.6727
21
-3.62222
0
LINE
8
BLACK
6
CONTINUOUS
10
5.6727
20
-3.62222
11
5.67486
21
-3.62887
0
LINE
8
BLACK
6
CONTINUOUS
10
5.67486
20
-3.62887
11
5.67559
21
-3.63583
0
LINE
8
BLACK
6
CONTINUOUS
10
5.67559
20
-3.63583
11
5.67486
21
-3.64278
0
LINE
8
BLACK
6
CONTINUOUS
10
5.67486
20
-3.64278
11
5.6727
21
-3.64944
0
LINE
8
BLACK
6
CONTINUOUS
10
5.6727
20
-3.64944
11
5.6692
21
-3.6555
0
LINE
8
BLACK
6
CONTINUOUS
10
5.6692
20
-3.6555
11
5.66452
21
-3.6607
0
LINE
8
BLACK
6
CONTINUOUS
10
5.66452
20
-3.6607
11
5.65886
21
-3.66481
0
LINE
8
BLACK
6
CONTINUOUS
10
5.65886
20
-3.66481
11
5.65247
21
-3.66765
0
LINE
8
BLACK
6
CONTINUOUS
10
5.65247
20
-3.66765
11
5.64562
21
-3.66911
0
LINE
8
BLACK
6
CONTINUOUS
10
5.64562
20
-3.66911
11
5.63863
21
-3.66911
0
LINE
8
BLACK
6
CONTINUOUS
10
5.63863
20
-3.66911
11
5.63178
21
-3.66765
0
LINE
8
BLACK
6
CONTINUOUS
10
5.63178
20
-3.66765
11
5.62539
21
-3.66481
0
LINE
8
BLACK
6
CONTINUOUS
10
5.62539
20
-3.66481
11
5.61973
21
-3.6607
0
LINE
8
BLACK
6
CONTINUOUS
10
5.61973
20
-3.6607
11
5.61505
21
-3.6555
0
LINE
8
BLACK
6
CONTINUOUS
10
5.61505
20
-3.6555
11
5.61155
21
-3.64944
0
LINE
8
BLACK
6
CONTINUOUS
10
5.61155
20
-3.64944
11
5.60939
21
-3.64278
0
LINE
8
BLACK
6
CONTINUOUS
10
5.60939
20
-3.64278
11
5.60866
21
-3.63583
0
LINE
8
BLACK
6
CONTINUOUS
10
5.60866
20
-3.63583
11
5.60939
21
-3.62887
0
LINE
8
BLACK
6
CONTINUOUS
10
5.60939
20
-3.62887
11
5.61155
21
-3.62222
0
LINE
8
BLACK
6
CONTINUOUS
10
5.61155
20
-3.62222
11
5.61505
21
-3.61616
0
LINE
8
BLACK
6
CONTINUOUS
10
5.61505
20
-3.61616
11
5.61973
21
-3.61096
0
LINE
8
BLACK
6
CONTINUOUS
10
5.61973
20
-3.61096
11
5.62539
21
-3.60685
0
LINE
8
BLACK
6
CONTINUOUS
10
5.62539
20
-3.60685
11
5.63178
21
-3.604
0
LINE
8
BLACK
6
CONTINUOUS
10
5.63178
20
-3.604
11
5.63863
21
-3.60255
0
LINE
8
BLACK
6
CONTINUOUS
10
5.63863
20
-3.60255
11
5.64562
21
-3.60255
0
LINE
8
BLACK
6
CONTINUOUS
10
5.64562
20
-3.60255
11
5.65247
21
-3.604
0
LINE
8
BLACK
6
CONTINUOUS
10
5.29538
20
-3.42408
11
5.30177
21
-3.42692
0
LINE
8
BLACK
6
CONTINUOUS
10
5.30177
20
-3.42692
11
5.30743
21
-3.43104
0
LINE
8
BLACK
6
CONTINUOUS
10
5.30743
20
-3.43104
11
5.31211
21
-3.43624
0
LINE
8
BLACK
6
CONTINUOUS
10
5.31211
20
-3.43624
11
5.31561
21
-3.44229
0
LINE
8
BLACK
6
CONTINUOUS
10
5.31561
20
-3.44229
11
5.31777
21
-3.44895
0
LINE
8
BLACK
6
CONTINUOUS
10
5.31777
20
-3.44895
11
5.3185
21
-3.45591
0
LINE
8
BLACK
6
CONTINUOUS
10
5.3185
20
-3.45591
11
5.31777
21
-3.46286
0
LINE
8
BLACK
6
CONTINUOUS
10
5.31777
20
-3.46286
11
5.31561
21
-3.46952
0
LINE
8
BLACK
6
CONTINUOUS
10
5.31561
20
-3.46952
11
5.31211
21
-3.47558
0
LINE
8
BLACK
6
CONTINUOUS
10
5.31211
20
-3.47558
11
5.30743
21
-3.48077
0
LINE
8
BLACK
6
CONTINUOUS
10
5.30743
20
-3.48077
11
5.30177
21
-3.48489
0
LINE
8
BLACK
6
CONTINUOUS
10
5.30177
20
-3.48489
11
5.29538
21
-3.48773
0
LINE
8
BLACK
6
CONTINUOUS
10
5.29538
20
-3.48773
11
5.28854
21
-3.48919
0
LINE
8
BLACK
6
CONTINUOUS
10
5.28854
20
-3.48919
11
5.28154
21
-3.48919
0
LINE
8
BLACK
6
CONTINUOUS
10
5.28154
20
-3.48919
11
5.2747
21
-3.48773
0
LINE
8
BLACK
6
CONTINUOUS
10
5.2747
20
-3.48773
11
5.26831
21
-3.48489
0
LINE
8
BLACK
6
CONTINUOUS
10
5.26831
20
-3.48489
11
5.26265
21
-3.48077
0
LINE
8
BLACK
6
CONTINUOUS
10
5.26265
20
-3.48077
11
5.25797
21
-3.47558
0
LINE
8
BLACK
6
CONTINUOUS
10
5.25797
20
-3.47558
11
5.25447
21
-3.46952
0
LINE
8
BLACK
6
CONTINUOUS
10
5.25447
20
-3.46952
11
5.25231
21
-3.46286
0
LINE
8
BLACK
6
CONTINUOUS
10
5.25231
20
-3.46286
11
5.25157
21
-3.45591
0
LINE
8
BLACK
6
CONTINUOUS
10
5.25157
20
-3.45591
11
5.25231
21
-3.44895
0
LINE
8
BLACK
6
CONTINUOUS
10
5.25231
20
-3.44895
11
5.25447
21
-3.44229
0
LINE
8
BLACK
6
CONTINUOUS
10
5.25447
20
-3.44229
11
5.25797
21
-3.43624
0
LINE
8
BLACK
6
CONTINUOUS
10
5.25797
20
-3.43624
11
5.26265
21
-3.43104
0
LINE
8
BLACK
6
CONTINUOUS
10
5.26265
20
-3.43104
11
5.26831
21
-3.42692
0
LINE
8
BLACK
6
CONTINUOUS
10
5.26831
20
-3.42692
11
5.2747
21
-3.42408
0
LINE
8
BLACK
6
CONTINUOUS
10
5.2747
20
-3.42408
11
5.28154
21
-3.42262
0
LINE
8
BLACK
6
CONTINUOUS
10
5.28154
20
-3.42262
11
5.28854
21
-3.42262
0
LINE
8
BLACK
6
CONTINUOUS
10
5.28854
20
-3.42262
11
5.29538
21
-3.42408
0
LINE
8
BLACK
6
CONTINUOUS
10
5.19538
20
-3.42408
11
5.20177
21
-3.42692
0
LINE
8
BLACK
6
CONTINUOUS
10
5.20177
20
-3.42692
11
5.20743
21
-3.43104
0
LINE
8
BLACK
6
CONTINUOUS
10
5.20743
20
-3.43104
11
5.21211
21
-3.43624
0
LINE
8
BLACK
6
CONTINUOUS
10
5.21211
20
-3.43624
11
5.21561
21
-3.44229
0
LINE
8
BLACK
6
CONTINUOUS
10
5.21561
20
-3.44229
11
5.21777
21
-3.44895
0
LINE
8
BLACK
6
CONTINUOUS
10
5.21777
20
-3.44895
11
5.2185
21
-3.45591
0
LINE
8
BLACK
6
CONTINUOUS
10
5.2185
20
-3.45591
11
5.21777
21
-3.46286
0
LINE
8
BLACK
6
CONTINUOUS
10
5.21777
20
-3.46286
11
5.21561
21
-3.46952
0
LINE
8
BLACK
6
CONTINUOUS
10
5.21561
20
-3.46952
11
5.21211
21
-3.47558
0
LINE
8
BLACK
6
CONTINUOUS
10
5.21211
20
-3.47558
11
5.20743
21
-3.48077
0
LINE
8
BLACK
6
CONTINUOUS
10
5.20743
20
-3.48077
11
5.20177
21
-3.48489
0
LINE
8
BLACK
6
CONTINUOUS
10
5.20177
20
-3.48489
11
5.19538
21
-3.48773
0
LINE
8
BLACK
6
CONTINUOUS
10
5.19538
20
-3.48773
11
5.18854
21
-3.48919
0
LINE
8
BLACK
6
CONTINUOUS
10
5.18854
20
-3.48919
11
5.18154
21
-3.48919
0
LINE
8
BLACK
6
CONTINUOUS
10
5.18154
20
-3.48919
11
5.1747
21
-3.48773
0
LINE
8
BLACK
6
CONTINUOUS
10
5.1747
20
-3.48773
11
5.16831
21
-3.48489
0
LINE
8
BLACK
6
CONTINUOUS
10
5.16831
20
-3.48489
11
5.16265
21
-3.48077
0
LINE
8
BLACK
6
CONTINUOUS
10
5.16265
20
-3.48077
11
5.15797
21
-3.47558
0
LINE
8
BLACK
6
CONTINUOUS
10
5.15797
20
-3.47558
11
5.15447
21
-3.46952
0
LINE
8
BLACK
6
CONTINUOUS
10
5.15447
20
-3.46952
11
5.15231
21
-3.46286
0
LINE
8
BLACK
6
CONTINUOUS
10
5.15231
20
-3.46286
11
5.15157
21
-3.45591
0
LINE
8
BLACK
6
CONTINUOUS
10
5.15157
20
-3.45591
11
5.15231
21
-3.44895
0
LINE
8
BLACK
6
CONTINUOUS
10
5.15231
20
-3.44895
11
5.15447
21
-3.44229
0
LINE
8
BLACK
6
CONTINUOUS
10
5.15447
20
-3.44229
11
5.15797
21
-3.43624
0
LINE
8
BLACK
6
CONTINUOUS
10
5.15797
20
-3.43624
11
5.16265
21
-3.43104
0
LINE
8
BLACK
6
CONTINUOUS
10
5.16265
20
-3.43104
11
5.16831
21
-3.42692
0
LINE
8
BLACK
6
CONTINUOUS
10
5.16831
20
-3.42692
11
5.1747
21
-3.42408
0
LINE
8
BLACK
6
CONTINUOUS
10
5.1747
20
-3.42408
11
5.18154
21
-3.42262
0
LINE
8
BLACK
6
CONTINUOUS
10
5.18154
20
-3.42262
11
5.18854
21
-3.42262
0
LINE
8
BLACK
6
CONTINUOUS
10
5.18854
20
-3.42262
11
5.19538
21
-3.42408
0
LINE
8
BLACK
6
CONTINUOUS
10
5.29538
20
-3.32408
11
5.30177
21
-3.32692
0
LINE
8
BLACK
6
CONTINUOUS
10
5.30177
20
-3.32692
11
5.30743
21
-3.33104
0
LINE
8
BLACK
6
CONTINUOUS
10
5.30743
20
-3.33104
11
5.31211
21
-3.33624
0
LINE
8
BLACK
6
CONTINUOUS
10
5.31211
20
-3.33624
11
5.31561
21
-3.34229
0
LINE
8
BLACK
6
CONTINUOUS
10
5.31561
20
-3.34229
11
5.31777
21
-3.34895
0
LINE
8
BLACK
6
CONTINUOUS
10
5.31777
20
-3.34895
11
5.3185
21
-3.35591
0
LINE
8
BLACK
6
CONTINUOUS
10
5.3185
20
-3.35591
11
5.31777
21
-3.36286
0
LINE
8
BLACK
6
CONTINUOUS
10
5.31777
20
-3.36286
11
5.31561
21
-3.36952
0
LINE
8
BLACK
6
CONTINUOUS
10
5.31561
20
-3.36952
11
5.31211
21
-3.37558
0
LINE
8
BLACK
6
CONTINUOUS
10
5.31211
20
-3.37558
11
5.30743
21
-3.38077
0
LINE
8
BLACK
6
CONTINUOUS
10
5.30743
20
-3.38077
11
5.30177
21
-3.38489
0
LINE
8
BLACK
6
CONTINUOUS
10
5.30177
20
-3.38489
11
5.29538
21
-3.38773
0
LINE
8
BLACK
6
CONTINUOUS
10
5.29538
20
-3.38773
11
5.28854
21
-3.38919
0
LINE
8
BLACK
6
CONTINUOUS
10
5.28854
20
-3.38919
11
5.28154
21
-3.38919
0
LINE
8
BLACK
6
CONTINUOUS
10
5.28154
20
-3.38919
11
5.2747
21
-3.38773
0
LINE
8
BLACK
6
CONTINUOUS
10
5.2747
20
-3.38773
11
5.26831
21
-3.38489
0
LINE
8
BLACK
6
CONTINUOUS
10
5.26831
20
-3.38489
11
5.26265
21
-3.38077
0
LINE
8
BLACK
6
CONTINUOUS
10
5.26265
20
-3.38077
11
5.25797
21
-3.37558
0
LINE
8
BLACK
6
CONTINUOUS
10
5.25797
20
-3.37558
11
5.25447
21
-3.36952
0
LINE
8
BLACK
6
CONTINUOUS
10
5.25447
20
-3.36952
11
5.25231
21
-3.36286
0
LINE
8
BLACK
6
CONTINUOUS
10
5.25231
20
-3.36286
11
5.25157
21
-3.35591
0
LINE
8
BLACK
6
CONTINUOUS
10
5.25157
20
-3.35591
11
5.25231
21
-3.34895
0
LINE
8
BLACK
6
CONTINUOUS
10
5.25231
20
-3.34895
11
5.25447
21
-3.34229
0
LINE
8
BLACK
6
CONTINUOUS
10
5.25447
20
-3.34229
11
5.25797
21
-3.33624
0
LINE
8
BLACK
6
CONTINUOUS
10
5.25797
20
-3.33624
11
5.26265
21
-3.33104
0
LINE
8
BLACK
6
CONTINUOUS
10
5.26265
20
-3.33104
11
5.26831
21
-3.32692
0
LINE
8
BLACK
6
CONTINUOUS
10
5.26831
20
-3.32692
11
5.2747
21
-3.32408
0
LINE
8
BLACK
6
CONTINUOUS
10
5.2747
20
-3.32408
11
5.28154
21
-3.32262
0
LINE
8
BLACK
6
CONTINUOUS
10
5.28154
20
-3.32262
11
5.28854
21
-3.32262
0
LINE
8
BLACK
6
CONTINUOUS
10
5.28854
20
-3.32262
11
5.29538
21
-3.32408
0
LINE
8
BLACK
6
CONTINUOUS
10
5.19538
20
-3.32408
11
5.20177
21
-3.32692
0
LINE
8
BLACK
6
CONTINUOUS
10
5.20177
20
-3.32692
11
5.20743
21
-3.33104
0
LINE
8
BLACK
6
CONTINUOUS
10
5.20743
20
-3.33104
11
5.21211
21
-3.33624
0
LINE
8
BLACK
6
CONTINUOUS
10
5.21211
20
-3.33624
11
5.21561
21
-3.34229
0
LINE
8
BLACK
6
CONTINUOUS
10
5.21561
20
-3.34229
11
5.21777
21
-3.34895
0
LINE
8
BLACK
6
CONTINUOUS
10
5.21777
20
-3.34895
11
5.2185
21
-3.35591
0
LINE
8
BLACK
6
CONTINUOUS
10
5.2185
20
-3.35591
11
5.21777
21
-3.36286
0
LINE
8
BLACK
6
CONTINUOUS
10
5.21777
20
-3.36286
11
5.21561
21
-3.36952
0
LINE
8
BLACK
6
CONTINUOUS
10
5.21561
20
-3.36952
11
5.21211
21
-3.37558
0
LINE
8
BLACK
6
CONTINUOUS
10
5.21211
20
-3.37558
11
5.20743
21
-3.38077
0
LINE
8
BLACK
6
CONTINUOUS
10
5.20743
20
-3.38077
11
5.20177
21
-3.38489
0
LINE
8
BLACK
6
CONTINUOUS
10
5.20177
20
-3.38489
11
5.19538
21
-3.38773
0
LINE
8
BLACK
6
CONTINUOUS
10
5.19538
20
-3.38773
11
5.18854
21
-3.38919
0
LINE
8
BLACK
6
CONTINUOUS
10
5.18854
20
-3.38919
11
5.18154
21
-3.38919
0
LINE
8
BLACK
6
CONTINUOUS
10
5.18154
20
-3.38919
11
5.1747
21
-3.38773
0
LINE
8
BLACK
6
CONTINUOUS
10
5.1747
20
-3.38773
11
5.16831
21
-3.38489
0
LINE
8
BLACK
6
CONTINUOUS
10
5.16831
20
-3.38489
11
5.16265
21
-3.38077
0
LINE
8
BLACK
6
CONTINUOUS
10
5.16265
20
-3.38077
11
5.15797
21
-3.37558
0
LINE
8
BLACK
6
CONTINUOUS
10
5.15797
20
-3.37558
11
5.15447
21
-3.36952
0
LINE
8
BLACK
6
CONTINUOUS
10
5.15447
20
-3.36952
11
5.15231
21
-3.36286
0
LINE
8
BLACK
6
CONTINUOUS
10
5.15231
20
-3.36286
11
5.15157
21
-3.35591
0
LINE
8
BLACK
6
CONTINUOUS
10
5.15157
20
-3.35591
11
5.15231
21
-3.34895
0
LINE
8
BLACK
6
CONTINUOUS
10
5.15231
20
-3.34895
11
5.15447
21
-3.34229
0
LINE
8
BLACK
6
CONTINUOUS
10
5.15447
20
-3.34229
11
5.15797
21
-3.33624
0
LINE
8
BLACK
6
CONTINUOUS
10
5.15797
20
-3.33624
11
5.16265
21
-3.33104
0
LINE
8
BLACK
6
CONTINUOUS
10
5.16265
20
-3.33104
11
5.16831
21
-3.32692
0
LINE
8
BLACK
6
CONTINUOUS
10
5.16831
20
-3.32692
11
5.1747
21
-3.32408
0
LINE
8
BLACK
6
CONTINUOUS
10
5.1747
20
-3.32408
11
5.18154
21
-3.32262
0
LINE
8
BLACK
6
CONTINUOUS
10
5.18154
20
-3.32262
11
5.18854
21
-3.32262
0
LINE
8
BLACK
6
CONTINUOUS
10
5.18854
20
-3.32262
11
5.19538
21
-3.32408
0
LINE
8
BLACK
6
CONTINUOUS
10
5.29538
20
-3.22408
11
5.30177
21
-3.22692
0
LINE
8
BLACK
6
CONTINUOUS
10
5.30177
20
-3.22692
11
5.30743
21
-3.23104
0
LINE
8
BLACK
6
CONTINUOUS
10
5.30743
20
-3.23104
11
5.31211
21
-3.23624
0
LINE
8
BLACK
6
CONTINUOUS
10
5.31211
20
-3.23624
11
5.31561
21
-3.24229
0
LINE
8
BLACK
6
CONTINUOUS
10
5.31561
20
-3.24229
11
5.31777
21
-3.24895
0
LINE
8
BLACK
6
CONTINUOUS
10
5.31777
20
-3.24895
11
5.3185
21
-3.25591
0
LINE
8
BLACK
6
CONTINUOUS
10
5.3185
20
-3.25591
11
5.31777
21
-3.26286
0
LINE
8
BLACK
6
CONTINUOUS
10
5.31777
20
-3.26286
11
5.31561
21
-3.26952
0
LINE
8
BLACK
6
CONTINUOUS
10
5.31561
20
-3.26952
11
5.31211
21
-3.27558
0
LINE
8
BLACK
6
CONTINUOUS
10
5.31211
20
-3.27558
11
5.30743
21
-3.28077
0
LINE
8
BLACK
6
CONTINUOUS
10
5.30743
20
-3.28077
11
5.30177
21
-3.28489
0
LINE
8
BLACK
6
CONTINUOUS
10
5.30177
20
-3.28489
11
5.29538
21
-3.28773
0
LINE
8
BLACK
6
CONTINUOUS
10
5.29538
20
-3.28773
11
5.28854
21
-3.28919
0
LINE
8
BLACK
6
CONTINUOUS
10
5.28854
20
-3.28919
11
5.28154
21
-3.28919
0
LINE
8
BLACK
6
CONTINUOUS
10
5.28154
20
-3.28919
11
5.2747
21
-3.28773
0
LINE
8
BLACK
6
CONTINUOUS
10
5.2747
20
-3.28773
11
5.26831
21
-3.28489
0
LINE
8
BLACK
6
CONTINUOUS
10
5.26831
20
-3.28489
11
5.26265
21
-3.28077
0
LINE
8
BLACK
6
CONTINUOUS
10
5.26265
20
-3.28077
11
5.25797
21
-3.27558
0
LINE
8
BLACK
6
CONTINUOUS
10
5.25797
20
-3.27558
11
5.25447
21
-3.26952
0
LINE
8
BLACK
6
CONTINUOUS
10
5.25447
20
-3.26952
11
5.25231
21
-3.26286
0
LINE
8
BLACK
6
CONTINUOUS
10
5.25231
20
-3.26286
11
5.25157
21
-3.25591
0
LINE
8
BLACK
6
CONTINUOUS
10
5.25157
20
-3.25591
11
5.25231
21
-3.24895
0
LINE
8
BLACK
6
CONTINUOUS
10
5.25231
20
-3.24895
11
5.25447
21
-3.24229
0
LINE
8
BLACK
6
CONTINUOUS
10
5.25447
20
-3.24229
11
5.25797
21
-3.23624
0
LINE
8
BLACK
6
CONTINUOUS
10
5.25797
20
-3.23624
11
5.26265
21
-3.23104
0
LINE
8
BLACK
6
CONTINUOUS
10
5.26265
20
-3.23104
11
5.26831
21
-3.22692
0
LINE
8
BLACK
6
CONTINUOUS
10
5.26831
20
-3.22692
11
5.2747
21
-3.22408
0
LINE
8
BLACK
6
CONTINUOUS
10
5.2747
20
-3.22408
11
5.28154
21
-3.22262
0
LINE
8
BLACK
6
CONTINUOUS
10
5.28154
20
-3.22262
11
5.28854
21
-3.22262
0
LINE
8
BLACK
6
CONTINUOUS
10
5.28854
20
-3.22262
11
5.29538
21
-3.22408
0
LINE
8
BLACK
6
CONTINUOUS
10
5.19538
20
-3.22408
11
5.20177
21
-3.22692
0
LINE
8
BLACK
6
CONTINUOUS
10
5.20177
20
-3.22692
11
5.20743
21
-3.23104
0
LINE
8
BLACK
6
CONTINUOUS
10
5.20743
20
-3.23104
11
5.21211
21
-3.23624
0
LINE
8
BLACK
6
CONTINUOUS
10
5.21211
20
-3.23624
11
5.21561
21
-3.24229
0
LINE
8
BLACK
6
CONTINUOUS
10
5.21561
20
-3.24229
11
5.21777
21
-3.24895
0
LINE
8
BLACK
6
CONTINUOUS
10
5.21777
20
-3.24895
11
5.2185
21
-3.25591
0
LINE
8
BLACK
6
CONTINUOUS
10
5.2185
20
-3.25591
11
5.21777
21
-3.26286
0
LINE
8
BLACK
6
CONTINUOUS
10
5.21777
20
-3.26286
11
5.21561
21
-3.26952
0
LINE
8
BLACK
6
CONTINUOUS
10
5.21561
20
-3.26952
11
5.21211
21
-3.27558
0
LINE
8
BLACK
6
CONTINUOUS
10
5.21211
20
-3.27558
11
5.20743
21
-3.28077
0
LINE
8
BLACK
6
CONTINUOUS
10
5.20743
20
-3.28077
11
5.20177
21
-3.28489
0
LINE
8
BLACK
6
CONTINUOUS
10
5.20177
20
-3.28489
11
5.19538
21
-3.28773
0
LINE
8
BLACK
6
CONTINUOUS
10
5.19538
20
-3.28773
11
5.18854
21
-3.28919
0
LINE
8
BLACK
6
CONTINUOUS
10
5.18854
20
-3.28919
11
5.18154
21
-3.28919
0
LINE
8
BLACK
6
CONTINUOUS
10
5.18154
20
-3.28919
11
5.1747
21
-3.28773
0
LINE
8
BLACK
6
CONTINUOUS
10
5.1747
20
-3.28773
11
5.16831
21
-3.28489
0
LINE
8
BLACK
6
CONTINUOUS
10
5.16831
20
-3.28489
11
5.16265
21
-3.28077
0
LINE
8
BLACK
6
CONTINUOUS
10
5.16265
20
-3.28077
11
5.15797
21
-3.27558
0
LINE
8
BLACK
6
CONTINUOUS
10
5.15797
20
-3.27558
11
5.15447
21
-3.26952
0
LINE
8
BLACK
6
CONTINUOUS
10
5.15447
20
-3.26952
11
5.15231
21
-3.26286
0
LINE
8
BLACK
6
CONTINUOUS
10
5.15231
20
-3.26286
11
5.15157
21
-3.25591
0
LINE
8
BLACK
6
CONTINUOUS
10
5.15157
20
-3.25591
11
5.15231
21
-3.24895
0
LINE
8
BLACK
6
CONTINUOUS
10
5.15231
20
-3.24895
11
5.15447
21
-3.24229
0
LINE
8
BLACK
6
CONTINUOUS
10
5.15447
20
-3.24229
11
5.15797
21
-3.23624
0
LINE
8
BLACK
6
CONTINUOUS
10
5.15797
20
-3.23624
11
5.16265
21
-3.23104
0
LINE
8
BLACK
6
CONTINUOUS
10
5.16265
20
-3.23104
11
5.16831
21
-3.22692
0
LINE
8
BLACK
6
CONTINUOUS
10
5.16831
20
-3.22692
11
5.1747
21
-3.22408
0
LINE
8
BLACK
6
CONTINUOUS
10
5.1747
20
-3.22408
11
5.18154
21
-3.22262
0
LINE
8
BLACK
6
CONTINUOUS
10
5.18154
20
-3.22262
11
5.18854
21
-3.22262
0
LINE
8
BLACK
6
CONTINUOUS
10
5.18854
20
-3.22262
11
5.19538
21
-3.22408
0
LINE
8
BLACK
6
CONTINUOUS
10
5.3185
20
-3.18937
11
5.25157
21
-3.18937
0
LINE
8
BLACK
6
CONTINUOUS
10
5.25157
20
-3.18937
11
5.25157
21
-3.12244
0
LINE
8
BLACK
6
CONTINUOUS
10
5.25157
20
-3.12244
11
5.3185
21
-3.12244
0
LINE
8
BLACK
6
CONTINUOUS
10
5.3185
20
-3.12244
11
5.3185
21
-3.18937
0
LINE
8
BLACK
6
CONTINUOUS
10
5.19538
20
-3.12408
11
5.20177
21
-3.12692
0
LINE
8
BLACK
6
CONTINUOUS
10
5.20177
20
-3.12692
11
5.20743
21
-3.13104
0
LINE
8
BLACK
6
CONTINUOUS
10
5.20743
20
-3.13104
11
5.21211
21
-3.13624
0
LINE
8
BLACK
6
CONTINUOUS
10
5.21211
20
-3.13624
11
5.21561
21
-3.14229
0
LINE
8
BLACK
6
CONTINUOUS
10
5.21561
20
-3.14229
11
5.21777
21
-3.14895
0
LINE
8
BLACK
6
CONTINUOUS
10
5.21777
20
-3.14895
11
5.2185
21
-3.15591
0
LINE
8
BLACK
6
CONTINUOUS
10
5.2185
20
-3.15591
11
5.21777
21
-3.16286
0
LINE
8
BLACK
6
CONTINUOUS
10
5.21777
20
-3.16286
11
5.21561
21
-3.16952
0
LINE
8
BLACK
6
CONTINUOUS
10
5.21561
20
-3.16952
11
5.21211
21
-3.17558
0
LINE
8
BLACK
6
CONTINUOUS
10
5.21211
20
-3.17558
11
5.20743
21
-3.18077
0
LINE
8
BLACK
6
CONTINUOUS
10
5.20743
20
-3.18077
11
5.20177
21
-3.18489
0
LINE
8
BLACK
6
CONTINUOUS
10
5.20177
20
-3.18489
11
5.19538
21
-3.18773
0
LINE
8
BLACK
6
CONTINUOUS
10
5.19538
20
-3.18773
11
5.18854
21
-3.18919
0
LINE
8
BLACK
6
CONTINUOUS
10
5.18854
20
-3.18919
11
5.18154
21
-3.18919
0
LINE
8
BLACK
6
CONTINUOUS
10
5.18154
20
-3.18919
11
5.1747
21
-3.18773
0
LINE
8
BLACK
6
CONTINUOUS
10
5.1747
20
-3.18773
11
5.16831
21
-3.18489
0
LINE
8
BLACK
6
CONTINUOUS
10
5.16831
20
-3.18489
11
5.16265
21
-3.18077
0
LINE
8
BLACK
6
CONTINUOUS
10
5.16265
20
-3.18077
11
5.15797
21
-3.17558
0
LINE
8
BLACK
6
CONTINUOUS
10
5.15797
20
-3.17558
11
5.15447
21
-3.16952
0
LINE
8
BLACK
6
CONTINUOUS
10
5.15447
20
-3.16952
11
5.15231
21
-3.16286
0
LINE
8
BLACK
6
CONTINUOUS
10
5.15231
20
-3.16286
11
5.15157
21
-3.15591
0
LINE
8
BLACK
6
CONTINUOUS
10
5.15157
20
-3.15591
11
5.15231
21
-3.14895
0
LINE
8
BLACK
6
CONTINUOUS
10
5.15231
20
-3.14895
11
5.15447
21
-3.14229
0
LINE
8
BLACK
6
CONTINUOUS
10
5.15447
20
-3.14229
11
5.15797
21
-3.13624
0
LINE
8
BLACK
6
CONTINUOUS
10
5.15797
20
-3.13624
11
5.16265
21
-3.13104
0
LINE
8
BLACK
6
CONTINUOUS
10
5.16265
20
-3.13104
11
5.16831
21
-3.12692
0
LINE
8
BLACK
6
CONTINUOUS
10
5.16831
20
-3.12692
11
5.1747
21
-3.12408
0
LINE
8
BLACK
6
CONTINUOUS
10
5.1747
20
-3.12408
11
5.18154
21
-3.12262
0
LINE
8
BLACK
6
CONTINUOUS
10
5.18154
20
-3.12262
11
5.18854
21
-3.12262
0
LINE
8
BLACK
6
CONTINUOUS
10
5.18854
20
-3.12262
11
5.19538
21
-3.12408
0
LINE
8
BLACK
6
CONTINUOUS
10
8.1002
20
-2.7606
11
8.10759
21
-2.76284
0
LINE
8
BLACK
6
CONTINUOUS
10
8.10759
20
-2.76284
11
8.11439
21
-2.76648
0
LINE
8
BLACK
6
CONTINUOUS
10
8.11439
20
-2.76648
11
8.12036
21
-2.77137
0
LINE
8
BLACK
6
CONTINUOUS
10
8.12036
20
-2.77137
11
8.12525
21
-2.77734
0
LINE
8
BLACK
6
CONTINUOUS
10
8.12525
20
-2.77734
11
8.12889
21
-2.78415
0
LINE
8
BLACK
6
CONTINUOUS
10
8.12889
20
-2.78415
11
8.13113
21
-2.79153
0
LINE
8
BLACK
6
CONTINUOUS
10
8.13113
20
-2.79153
11
8.13189
21
-2.79921
0
LINE
8
BLACK
6
CONTINUOUS
10
8.13189
20
-2.79921
11
8.13113
21
-2.80689
0
LINE
8
BLACK
6
CONTINUOUS
10
8.13113
20
-2.80689
11
8.12889
21
-2.81428
0
LINE
8
BLACK
6
CONTINUOUS
10
8.12889
20
-2.81428
11
8.12525
21
-2.82109
0
LINE
8
BLACK
6
CONTINUOUS
10
8.12525
20
-2.82109
11
8.12036
21
-2.82705
0
LINE
8
BLACK
6
CONTINUOUS
10
8.12036
20
-2.82705
11
8.11439
21
-2.83195
0
LINE
8
BLACK
6
CONTINUOUS
10
8.11439
20
-2.83195
11
8.10759
21
-2.83559
0
LINE
8
BLACK
6
CONTINUOUS
10
8.10759
20
-2.83559
11
8.1002
21
-2.83783
0
LINE
8
BLACK
6
CONTINUOUS
10
8.1002
20
-2.83783
11
8.09252
21
-2.83858
0
LINE
8
BLACK
6
CONTINUOUS
10
8.09252
20
-2.83858
11
8.08484
21
-2.83783
0
LINE
8
BLACK
6
CONTINUOUS
10
8.08484
20
-2.83783
11
8.07745
21
-2.83559
0
LINE
8
BLACK
6
CONTINUOUS
10
8.07745
20
-2.83559
11
8.07065
21
-2.83195
0
LINE
8
BLACK
6
CONTINUOUS
10
8.07065
20
-2.83195
11
8.06468
21
-2.82705
0
LINE
8
BLACK
6
CONTINUOUS
10
8.06468
20
-2.82705
11
8.05978
21
-2.82109
0
LINE
8
BLACK
6
CONTINUOUS
10
8.05978
20
-2.82109
11
8.05615
21
-2.81428
0
LINE
8
BLACK
6
CONTINUOUS
10
8.05615
20
-2.81428
11
8.05391
21
-2.80689
0
LINE
8
BLACK
6
CONTINUOUS
10
8.05391
20
-2.80689
11
8.05315
21
-2.79921
0
LINE
8
BLACK
6
CONTINUOUS
10
8.05315
20
-2.79921
11
8.05391
21
-2.79153
0
LINE
8
BLACK
6
CONTINUOUS
10
8.05391
20
-2.79153
11
8.05615
21
-2.78415
0
LINE
8
BLACK
6
CONTINUOUS
10
8.05615
20
-2.78415
11
8.05978
21
-2.77734
0
LINE
8
BLACK
6
CONTINUOUS
10
8.05978
20
-2.77734
11
8.06468
21
-2.77137
0
LINE
8
BLACK
6
CONTINUOUS
10
8.06468
20
-2.77137
11
8.07065
21
-2.76648
0
LINE
8
BLACK
6
CONTINUOUS
10
8.07065
20
-2.76648
11
8.07745
21
-2.76284
0
LINE
8
BLACK
6
CONTINUOUS
10
8.07745
20
-2.76284
11
8.08484
21
-2.7606
0
LINE
8
BLACK
6
CONTINUOUS
10
8.08484
20
-2.7606
11
8.09252
21
-2.75984
0
LINE
8
BLACK
6
CONTINUOUS
10
8.09252
20
-2.75984
11
8.1002
21
-2.7606
0
LINE
8
BLACK
6
CONTINUOUS
10
7.83268
20
-2.83858
11
7.75394
21
-2.83858
0
LINE
8
BLACK
6
CONTINUOUS
10
7.75394
20
-2.83858
11
7.75394
21
-2.75984
0
LINE
8
BLACK
6
CONTINUOUS
10
7.75394
20
-2.75984
11
7.83268
21
-2.75984
0
LINE
8
BLACK
6
CONTINUOUS
10
7.83268
20
-2.75984
11
7.83268
21
-2.83858
0
LINE
8
BLACK
6
CONTINUOUS
10
5.28475
20
-2.60414
11
5.28947
21
-2.60717
0
LINE
8
BLACK
6
CONTINUOUS
10
5.28947
20
-2.60717
11
5.29313
21
-2.6114
0
LINE
8
BLACK
6
CONTINUOUS
10
5.29313
20
-2.6114
11
5.29546
21
-2.6165
0
LINE
8
BLACK
6
CONTINUOUS
10
5.29546
20
-2.6165
11
5.29626
21
-2.62205
0
LINE
8
BLACK
6
CONTINUOUS
10
5.29626
20
-2.62205
11
5.29546
21
-2.62759
0
LINE
8
BLACK
6
CONTINUOUS
10
5.29546
20
-2.62759
11
5.29313
21
-2.63269
0
LINE
8
BLACK
6
CONTINUOUS
10
5.29313
20
-2.63269
11
5.28947
21
-2.63692
0
LINE
8
BLACK
6
CONTINUOUS
10
5.28947
20
-2.63692
11
5.28475
21
-2.63995
0
LINE
8
BLACK
6
CONTINUOUS
10
5.28475
20
-2.63995
11
5.27938
21
-2.64153
0
LINE
8
BLACK
6
CONTINUOUS
10
5.27938
20
-2.64153
11
5.27377
21
-2.64153
0
LINE
8
BLACK
6
CONTINUOUS
10
5.27377
20
-2.64153
11
5.2684
21
-2.63995
0
LINE
8
BLACK
6
CONTINUOUS
10
5.2684
20
-2.63995
11
5.26368
21
-2.63692
0
LINE
8
BLACK
6
CONTINUOUS
10
5.26368
20
-2.63692
11
5.26001
21
-2.63269
0
LINE
8
BLACK
6
CONTINUOUS
10
5.26001
20
-2.63269
11
5.25769
21
-2.62759
0
LINE
8
BLACK
6
CONTINUOUS
10
5.25769
20
-2.62759
11
5.25689
21
-2.62205
0
LINE
8
BLACK
6
CONTINUOUS
10
5.25689
20
-2.62205
11
5.25769
21
-2.6165
0
LINE
8
BLACK
6
CONTINUOUS
10
5.25769
20
-2.6165
11
5.26001
21
-2.6114
0
LINE
8
BLACK
6
CONTINUOUS
10
5.26001
20
-2.6114
11
5.26368
21
-2.60717
0
LINE
8
BLACK
6
CONTINUOUS
10
5.26368
20
-2.60717
11
5.2684
21
-2.60414
0
LINE
8
BLACK
6
CONTINUOUS
10
5.2684
20
-2.60414
11
5.27377
21
-2.60256
0
LINE
8
BLACK
6
CONTINUOUS
10
5.27377
20
-2.60256
11
5.27938
21
-2.60256
0
LINE
8
BLACK
6
CONTINUOUS
10
5.27938
20
-2.60256
11
5.28475
21
-2.60414
0
LINE
8
BLACK
6
CONTINUOUS
10
5.28475
20
-2.43091
11
5.28947
21
-2.43394
0
LINE
8
BLACK
6
CONTINUOUS
10
5.28947
20
-2.43394
11
5.29313
21
-2.43818
0
LINE
8
BLACK
6
CONTINUOUS
10
5.29313
20
-2.43818
11
5.29546
21
-2.44327
0
LINE
8
BLACK
6
CONTINUOUS
10
5.29546
20
-2.44327
11
5.29626
21
-2.44882
0
LINE
8
BLACK
6
CONTINUOUS
10
5.29626
20
-2.44882
11
5.29546
21
-2.45436
0
LINE
8
BLACK
6
CONTINUOUS
10
5.29546
20
-2.45436
11
5.29313
21
-2.45946
0
LINE
8
BLACK
6
CONTINUOUS
10
5.29313
20
-2.45946
11
5.28947
21
-2.4637
0
LINE
8
BLACK
6
CONTINUOUS
10
5.28947
20
-2.4637
11
5.28475
21
-2.46673
0
LINE
8
BLACK
6
CONTINUOUS
10
5.28475
20
-2.46673
11
5.27938
21
-2.4683
0
LINE
8
BLACK
6
CONTINUOUS
10
5.27938
20
-2.4683
11
5.27377
21
-2.4683
0
LINE
8
BLACK
6
CONTINUOUS
10
5.27377
20
-2.4683
11
5.2684
21
-2.46673
0
LINE
8
BLACK
6
CONTINUOUS
10
5.2684
20
-2.46673
11
5.26368
21
-2.4637
0
LINE
8
BLACK
6
CONTINUOUS
10
5.26368
20
-2.4637
11
5.26001
21
-2.45946
0
LINE
8
BLACK
6
CONTINUOUS
10
5.26001
20
-2.45946
11
5.25769
21
-2.45436
0
LINE
8
BLACK
6
CONTINUOUS
10
5.25769
20
-2.45436
11
5.25689
21
-2.44882
0
LINE
8
BLACK
6
CONTINUOUS
10
5.25689
20
-2.44882
11
5.25769
21
-2.44327
0
LINE
8
BLACK
6
CONTINUOUS
10
5.25769
20
-2.44327
11
5.26001
21
-2.43818
0
LINE
8
BLACK
6
CONTINUOUS
10
5.26001
20
-2.43818
11
5.26368
21
-2.43394
0
LINE
8
BLACK
6
CONTINUOUS
10
5.26368
20
-2.43394
11
5.2684
21
-2.43091
0
LINE
8
BLACK
6
CONTINUOUS
10
5.2684
20
-2.43091
11
5.27377
21
-2.42933
0
LINE
8
BLACK
6
CONTINUOUS
10
5.27377
20
-2.42933
11
5.27938
21
-2.42933
0
LINE
8
BLACK
6
CONTINUOUS
10
5.27938
20
-2.42933
11
5.28475
21
-2.43091
0
LINE
8
BLACK
6
CONTINUOUS
10
6.93964
20
-1.92397
11
6.94588
21
-1.92615
0
LINE
8
BLACK
6
CONTINUOUS
10
6.94588
20
-1.92615
11
6.95148
21
-1.92967
0
LINE
8
BLACK
6
CONTINUOUS
10
6.95148
20
-1.92967
11
6.95616
21
-1.93435
0
LINE
8
BLACK
6
CONTINUOUS
10
6.95616
20
-1.93435
11
6.95967
21
-1.93994
0
LINE
8
BLACK
6
CONTINUOUS
10
6.95967
20
-1.93994
11
6.96186
21
-1.94619
0
LINE
8
BLACK
6
CONTINUOUS
10
6.96186
20
-1.94619
11
6.9626
21
-1.95276
0
LINE
8
BLACK
6
CONTINUOUS
10
6.9626
20
-1.95276
11
6.96186
21
-1.95933
0
LINE
8
BLACK
6
CONTINUOUS
10
6.96186
20
-1.95933
11
6.95967
21
-1.96557
0
LINE
8
BLACK
6
CONTINUOUS
10
6.95967
20
-1.96557
11
6.95616
21
-1.97117
0
LINE
8
BLACK
6
CONTINUOUS
10
6.95616
20
-1.97117
11
6.95148
21
-1.97584
0
LINE
8
BLACK
6
CONTINUOUS
10
6.95148
20
-1.97584
11
6.94588
21
-1.97936
0
LINE
8
BLACK
6
CONTINUOUS
10
6.94588
20
-1.97936
11
6.93964
21
-1.98154
0
LINE
8
BLACK
6
CONTINUOUS
10
6.93964
20
-1.98154
11
6.93307
21
-1.98228
0
LINE
8
BLACK
6
CONTINUOUS
10
6.93307
20
-1.98228
11
6.9265
21
-1.98154
0
LINE
8
BLACK
6
CONTINUOUS
10
6.9265
20
-1.98154
11
6.92026
21
-1.97936
0
LINE
8
BLACK
6
CONTINUOUS
10
6.92026
20
-1.97936
11
6.91466
21
-1.97584
0
LINE
8
BLACK
6
CONTINUOUS
10
6.91466
20
-1.97584
11
6.90999
21
-1.97117
0
LINE
8
BLACK
6
CONTINUOUS
10
6.90999
20
-1.97117
11
6.90647
21
-1.96557
0
LINE
8
BLACK
6
CONTINUOUS
10
6.90647
20
-1.96557
11
6.90428
21
-1.95933
0
LINE
8
BLACK
6
CONTINUOUS
10
6.90428
20
-1.95933
11
6.90354
21
-1.95276
0
LINE
8
BLACK
6
CONTINUOUS
10
6.90354
20
-1.95276
11
6.90428
21
-1.94619
0
LINE
8
BLACK
6
CONTINUOUS
10
6.90428
20
-1.94619
11
6.90647
21
-1.93994
0
LINE
8
BLACK
6
CONTINUOUS
10
6.90647
20
-1.93994
11
6.90999
21
-1.93435
0
LINE
8
BLACK
6
CONTINUOUS
10
6.90999
20
-1.93435
11
6.91466
21
-1.92967
0
LINE
8
BLACK
6
CONTINUOUS
10
6.91466
20
-1.92967
11
6.92026
21
-1.92615
0
LINE
8
BLACK
6
CONTINUOUS
10
6.92026
20
-1.92615
11
6.9265
21
-1.92397
0
LINE
8
BLACK
6
CONTINUOUS
10
6.9265
20
-1.92397
11
6.93307
21
-1.92323
0
LINE
8
BLACK
6
CONTINUOUS
10
6.93307
20
-1.92323
11
6.93964
21
-1.92397
0
LINE
8
BLACK
6
CONTINUOUS
10
6.83964
20
-1.92397
11
6.84588
21
-1.92615
0
LINE
8
BLACK
6
CONTINUOUS
10
6.84588
20
-1.92615
11
6.85148
21
-1.92967
0
LINE
8
BLACK
6
CONTINUOUS
10
6.85148
20
-1.92967
11
6.85616
21
-1.93435
0
LINE
8
BLACK
6
CONTINUOUS
10
6.85616
20
-1.93435
11
6.85967
21
-1.93994
0
LINE
8
BLACK
6
CONTINUOUS
10
6.85967
20
-1.93994
11
6.86186
21
-1.94619
0
LINE
8
BLACK
6
CONTINUOUS
10
6.86186
20
-1.94619
11
6.8626
21
-1.95276
0
LINE
8
BLACK
6
CONTINUOUS
10
6.8626
20
-1.95276
11
6.86186
21
-1.95933
0
LINE
8
BLACK
6
CONTINUOUS
10
6.86186
20
-1.95933
11
6.85967
21
-1.96557
0
LINE
8
BLACK
6
CONTINUOUS
10
6.85967
20
-1.96557
11
6.85616
21
-1.97117
0
LINE
8
BLACK
6
CONTINUOUS
10
6.85616
20
-1.97117
11
6.85148
21
-1.97584
0
LINE
8
BLACK
6
CONTINUOUS
10
6.85148
20
-1.97584
11
6.84588
21
-1.97936
0
LINE
8
BLACK
6
CONTINUOUS
10
6.84588
20
-1.97936
11
6.83964
21
-1.98154
0
LINE
8
BLACK
6
CONTINUOUS
10
6.83964
20
-1.98154
11
6.83307
21
-1.98228
0
LINE
8
BLACK
6
CONTINUOUS
10
6.83307
20
-1.98228
11
6.8265
21
-1.98154
0
LINE
8
BLACK
6
CONTINUOUS
10
6.8265
20
-1.98154
11
6.82026
21
-1.97936
0
LINE
8
BLACK
6
CONTINUOUS
10
6.82026
20
-1.97936
11
6.81466
21
-1.97584
0
LINE
8
BLACK
6
CONTINUOUS
10
6.81466
20
-1.97584
11
6.80999
21
-1.97117
0
LINE
8
BLACK
6
CONTINUOUS
10
6.80999
20
-1.97117
11
6.80647
21
-1.96557
0
LINE
8
BLACK
6
CONTINUOUS
10
6.80647
20
-1.96557
11
6.80428
21
-1.95933
0
LINE
8
BLACK
6
CONTINUOUS
10
6.80428
20
-1.95933
11
6.80354
21
-1.95276
0
LINE
8
BLACK
6
CONTINUOUS
10
6.80354
20
-1.95276
11
6.80428
21
-1.94619
0
LINE
8
BLACK
6
CONTINUOUS
10
6.80428
20
-1.94619
11
6.80647
21
-1.93994
0
LINE
8
BLACK
6
CONTINUOUS
10
6.80647
20
-1.93994
11
6.80999
21
-1.93435
0
LINE
8
BLACK
6
CONTINUOUS
10
6.80999
20
-1.93435
11
6.81466
21
-1.92967
0
LINE
8
BLACK
6
CONTINUOUS
10
6.81466
20
-1.92967
11
6.82026
21
-1.92615
0
LINE
8
BLACK
6
CONTINUOUS
10
6.82026
20
-1.92615
11
6.8265
21
-1.92397
0
LINE
8
BLACK
6
CONTINUOUS
10
6.8265
20
-1.92397
11
6.83307
21
-1.92323
0
LINE
8
BLACK
6
CONTINUOUS
10
6.83307
20
-1.92323
11
6.83964
21
-1.92397
0
LINE
8
BLACK
6
CONTINUOUS
10
6.73964
20
-1.92397
11
6.74588
21
-1.92615
0
LINE
8
BLACK
6
CONTINUOUS
10
6.74588
20
-1.92615
11
6.75148
21
-1.92967
0
LINE
8
BLACK
6
CONTINUOUS
10
6.75148
20
-1.92967
11
6.75616
21
-1.93435
0
LINE
8
BLACK
6
CONTINUOUS
10
6.75616
20
-1.93435
11
6.75967
21
-1.93994
0
LINE
8
BLACK
6
CONTINUOUS
10
6.75967
20
-1.93994
11
6.76186
21
-1.94619
0
LINE
8
BLACK
6
CONTINUOUS
10
6.76186
20
-1.94619
11
6.7626
21
-1.95276
0
LINE
8
BLACK
6
CONTINUOUS
10
6.7626
20
-1.95276
11
6.76186
21
-1.95933
0
LINE
8
BLACK
6
CONTINUOUS
10
6.76186
20
-1.95933
11
6.75967
21
-1.96557
0
LINE
8
BLACK
6
CONTINUOUS
10
6.75967
20
-1.96557
11
6.75616
21
-1.97117
0
LINE
8
BLACK
6
CONTINUOUS
10
6.75616
20
-1.97117
11
6.75148
21
-1.97584
0
LINE
8
BLACK
6
CONTINUOUS
10
6.75148
20
-1.97584
11
6.74588
21
-1.97936
0
LINE
8
BLACK
6
CONTINUOUS
10
6.74588
20
-1.97936
11
6.73964
21
-1.98154
0
LINE
8
BLACK
6
CONTINUOUS
10
6.73964
20
-1.98154
11
6.73307
21
-1.98228
0
LINE
8
BLACK
6
CONTINUOUS
10
6.73307
20
-1.98228
11
6.7265
21
-1.98154
0
LINE
8
BLACK
6
CONTINUOUS
10
6.7265
20
-1.98154
11
6.72026
21
-1.97936
0
LINE
8
BLACK
6
CONTINUOUS
10
6.72026
20
-1.97936
11
6.71466
21
-1.97584
0
LINE
8
BLACK
6
CONTINUOUS
10
6.71466
20
-1.97584
11
6.70999
21
-1.97117
0
LINE
8
BLACK
6
CONTINUOUS
10
6.70999
20
-1.97117
11
6.70647
21
-1.96557
0
LINE
8
BLACK
6
CONTINUOUS
10
6.70647
20
-1.96557
11
6.70428
21
-1.95933
0
LINE
8
BLACK
6
CONTINUOUS
10
6.70428
20
-1.95933
11
6.70354
21
-1.95276
0
LINE
8
BLACK
6
CONTINUOUS
10
6.70354
20
-1.95276
11
6.70428
21
-1.94619
0
LINE
8
BLACK
6
CONTINUOUS
10
6.70428
20
-1.94619
11
6.70647
21
-1.93994
0
LINE
8
BLACK
6
CONTINUOUS
10
6.70647
20
-1.93994
11
6.70999
21
-1.93435
0
LINE
8
BLACK
6
CONTINUOUS
10
6.70999
20
-1.93435
11
6.71466
21
-1.92967
0
LINE
8
BLACK
6
CONTINUOUS
10
6.71466
20
-1.92967
11
6.72026
21
-1.92615
0
LINE
8
BLACK
6
CONTINUOUS
10
6.72026
20
-1.92615
11
6.7265
21
-1.92397
0
LINE
8
BLACK
6
CONTINUOUS
10
6.7265
20
-1.92397
11
6.73307
21
-1.92323
0
LINE
8
BLACK
6
CONTINUOUS
10
6.73307
20
-1.92323
11
6.73964
21
-1.92397
0
LINE
8
BLACK
6
CONTINUOUS
10
6.63964
20
-1.92397
11
6.64588
21
-1.92615
0
LINE
8
BLACK
6
CONTINUOUS
10
6.64588
20
-1.92615
11
6.65148
21
-1.92967
0
LINE
8
BLACK
6
CONTINUOUS
10
6.65148
20
-1.92967
11
6.65616
21
-1.93435
0
LINE
8
BLACK
6
CONTINUOUS
10
6.65616
20
-1.93435
11
6.65967
21
-1.93994
0
LINE
8
BLACK
6
CONTINUOUS
10
6.65967
20
-1.93994
11
6.66186
21
-1.94619
0
LINE
8
BLACK
6
CONTINUOUS
10
6.66186
20
-1.94619
11
6.6626
21
-1.95276
0
LINE
8
BLACK
6
CONTINUOUS
10
6.6626
20
-1.95276
11
6.66186
21
-1.95933
0
LINE
8
BLACK
6
CONTINUOUS
10
6.66186
20
-1.95933
11
6.65967
21
-1.96557
0
LINE
8
BLACK
6
CONTINUOUS
10
6.65967
20
-1.96557
11
6.65616
21
-1.97117
0
LINE
8
BLACK
6
CONTINUOUS
10
6.65616
20
-1.97117
11
6.65148
21
-1.97584
0
LINE
8
BLACK
6
CONTINUOUS
10
6.65148
20
-1.97584
11
6.64588
21
-1.97936
0
LINE
8
BLACK
6
CONTINUOUS
10
6.64588
20
-1.97936
11
6.63964
21
-1.98154
0
LINE
8
BLACK
6
CONTINUOUS
10
6.63964
20
-1.98154
11
6.63307
21
-1.98228
0
LINE
8
BLACK
6
CONTINUOUS
10
6.63307
20
-1.98228
11
6.6265
21
-1.98154
0
LINE
8
BLACK
6
CONTINUOUS
10
6.6265
20
-1.98154
11
6.62026
21
-1.97936
0
LINE
8
BLACK
6
CONTINUOUS
10
6.62026
20
-1.97936
11
6.61466
21
-1.97584
0
LINE
8
BLACK
6
CONTINUOUS
10
6.61466
20
-1.97584
11
6.60999
21
-1.97117
0
LINE
8
BLACK
6
CONTINUOUS
10
6.60999
20
-1.97117
11
6.60647
21
-1.96557
0
LINE
8
BLACK
6
CONTINUOUS
10
6.60647
20
-1.96557
11
6.60428
21
-1.95933
0
LINE
8
BLACK
6
CONTINUOUS
10
6.60428
20
-1.95933
11
6.60354
21
-1.95276
0
LINE
8
BLACK
6
CONTINUOUS
10
6.60354
20
-1.95276
11
6.60428
21
-1.94619
0
LINE
8
BLACK
6
CONTINUOUS
10
6.60428
20
-1.94619
11
6.60647
21
-1.93994
0
LINE
8
BLACK
6
CONTINUOUS
10
6.60647
20
-1.93994
11
6.60999
21
-1.93435
0
LINE
8
BLACK
6
CONTINUOUS
10
6.60999
20
-1.93435
11
6.61466
21
-1.92967
0
LINE
8
BLACK
6
CONTINUOUS
10
6.61466
20
-1.92967
11
6.62026
21
-1.92615
0
LINE
8
BLACK
6
CONTINUOUS
10
6.62026
20
-1.92615
11
6.6265
21
-1.92397
0
LINE
8
BLACK
6
CONTINUOUS
10
6.6265
20
-1.92397
11
6.63307
21
-1.92323
0
LINE
8
BLACK
6
CONTINUOUS
10
6.63307
20
-1.92323
11
6.63964
21
-1.92397
0
LINE
8
BLACK
6
CONTINUOUS
10
6.53964
20
-1.92397
11
6.54588
21
-1.92615
0
LINE
8
BLACK
6
CONTINUOUS
10
6.54588
20
-1.92615
11
6.55148
21
-1.92967
0
LINE
8
BLACK
6
CONTINUOUS
10
6.55148
20
-1.92967
11
6.55616
21
-1.93435
0
LINE
8
BLACK
6
CONTINUOUS
10
6.55616
20
-1.93435
11
6.55967
21
-1.93994
0
LINE
8
BLACK
6
CONTINUOUS
10
6.55967
20
-1.93994
11
6.56186
21
-1.94619
0
LINE
8
BLACK
6
CONTINUOUS
10
6.56186
20
-1.94619
11
6.5626
21
-1.95276
0
LINE
8
BLACK
6
CONTINUOUS
10
6.5626
20
-1.95276
11
6.56186
21
-1.95933
0
LINE
8
BLACK
6
CONTINUOUS
10
6.56186
20
-1.95933
11
6.55967
21
-1.96557
0
LINE
8
BLACK
6
CONTINUOUS
10
6.55967
20
-1.96557
11
6.55616
21
-1.97117
0
LINE
8
BLACK
6
CONTINUOUS
10
6.55616
20
-1.97117
11
6.55148
21
-1.97584
0
LINE
8
BLACK
6
CONTINUOUS
10
6.55148
20
-1.97584
11
6.54588
21
-1.97936
0
LINE
8
BLACK
6
CONTINUOUS
10
6.54588
20
-1.97936
11
6.53964
21
-1.98154
0
LINE
8
BLACK
6
CONTINUOUS
10
6.53964
20
-1.98154
11
6.53307
21
-1.98228
0
LINE
8
BLACK
6
CONTINUOUS
10
6.53307
20
-1.98228
11
6.5265
21
-1.98154
0
LINE
8
BLACK
6
CONTINUOUS
10
6.5265
20
-1.98154
11
6.52026
21
-1.97936
0
LINE
8
BLACK
6
CONTINUOUS
10
6.52026
20
-1.97936
11
6.51466
21
-1.97584
0
LINE
8
BLACK
6
CONTINUOUS
10
6.51466
20
-1.97584
11
6.50999
21
-1.97117
0
LINE
8
BLACK
6
CONTINUOUS
10
6.50999
20
-1.97117
11
6.50647
21
-1.96557
0
LINE
8
BLACK
6
CONTINUOUS
10
6.50647
20
-1.96557
11
6.50428
21
-1.95933
0
LINE
8
BLACK
6
CONTINUOUS
10
6.50428
20
-1.95933
11
6.50354
21
-1.95276
0
LINE
8
BLACK
6
CONTINUOUS
10
6.50354
20
-1.95276
11
6.50428
21
-1.94619
0
LINE
8
BLACK
6
CONTINUOUS
10
6.50428
20
-1.94619
11
6.50647
21
-1.93994
0
LINE
8
BLACK
6
CONTINUOUS
10
6.50647
20
-1.93994
11
6.50999
21
-1.93435
0
LINE
8
BLACK
6
CONTINUOUS
10
6.50999
20
-1.93435
11
6.51466
21
-1.92967
0
LINE
8
BLACK
6
CONTINUOUS
10
6.51466
20
-1.92967
11
6.52026
21
-1.92615
0
LINE
8
BLACK
6
CONTINUOUS
10
6.52026
20
-1.92615
11
6.5265
21
-1.92397
0
LINE
8
BLACK
6
CONTINUOUS
10
6.5265
20
-1.92397
11
6.53307
21
-1.92323
0
LINE
8
BLACK
6
CONTINUOUS
10
6.53307
20
-1.92323
11
6.53964
21
-1.92397
0
LINE
8
BLACK
6
CONTINUOUS
10
6.4626
20
-1.98228
11
6.40354
21
-1.98228
0
LINE
8
BLACK
6
CONTINUOUS
10
6.40354
20
-1.98228
11
6.40354
21
-1.92323
0
LINE
8
BLACK
6
CONTINUOUS
10
6.40354
20
-1.92323
11
6.4626
21
-1.92323
0
LINE
8
BLACK
6
CONTINUOUS
10
6.4626
20
-1.92323
11
6.4626
21
-1.98228
0
LINE
8
BLACK
6
CONTINUOUS
10
8.09453
20
-1.68669
11
8.10198
21
-1.68958
0
LINE
8
BLACK
6
CONTINUOUS
10
8.10198
20
-1.68958
11
8.10878
21
-1.69379
0
LINE
8
BLACK
6
CONTINUOUS
10
8.10878
20
-1.69379
11
8.11468
21
-1.69917
0
LINE
8
BLACK
6
CONTINUOUS
10
8.11468
20
-1.69917
11
8.1195
21
-1.70555
0
LINE
8
BLACK
6
CONTINUOUS
10
8.1195
20
-1.70555
11
8.12306
21
-1.7127
0
LINE
8
BLACK
6
CONTINUOUS
10
8.12306
20
-1.7127
11
8.12525
21
-1.72039
0
LINE
8
BLACK
6
CONTINUOUS
10
8.12525
20
-1.72039
11
8.12598
21
-1.72835
0
LINE
8
BLACK
6
CONTINUOUS
10
8.12598
20
-1.72835
11
8.12525
21
-1.7363
0
LINE
8
BLACK
6
CONTINUOUS
10
8.12525
20
-1.7363
11
8.12306
21
-1.74399
0
LINE
8
BLACK
6
CONTINUOUS
10
8.12306
20
-1.74399
11
8.1195
21
-1.75114
0
LINE
8
BLACK
6
CONTINUOUS
10
8.1195
20
-1.75114
11
8.11468
21
-1.75752
0
LINE
8
BLACK
6
CONTINUOUS
10
8.11468
20
-1.75752
11
8.10878
21
-1.76291
0
LINE
8
BLACK
6
CONTINUOUS
10
8.10878
20
-1.76291
11
8.10198
21
-1.76711
0
LINE
8
BLACK
6
CONTINUOUS
10
8.10198
20
-1.76711
11
8.09453
21
-1.77
0
LINE
8
BLACK
6
CONTINUOUS
10
8.09453
20
-1.77
11
8.08667
21
-1.77147
0
LINE
8
BLACK
6
CONTINUOUS
10
8.08667
20
-1.77147
11
8.07868
21
-1.77147
0
LINE
8
BLACK
6
CONTINUOUS
10
8.07868
20
-1.77147
11
8.07083
21
-1.77
0
LINE
8
BLACK
6
CONTINUOUS
10
8.07083
20
-1.77
11
8.06337
21
-1.76711
0
LINE
8
BLACK
6
CONTINUOUS
10
8.06337
20
-1.76711
11
8.05658
21
-1.76291
0
LINE
8
BLACK
6
CONTINUOUS
10
8.05658
20
-1.76291
11
8.05067
21
-1.75752
0
LINE
8
BLACK
6
CONTINUOUS
10
8.05067
20
-1.75752
11
8.04586
21
-1.75114
0
LINE
8
BLACK
6
CONTINUOUS
10
8.04586
20
-1.75114
11
8.04229
21
-1.74399
0
LINE
8
BLACK
6
CONTINUOUS
10
8.04229
20
-1.74399
11
8.04011
21
-1.7363
0
LINE
8
BLACK
6
CONTINUOUS
10
8.04011
20
-1.7363
11
8.03937
21
-1.72835
0
LINE
8
BLACK
6
CONTINUOUS
10
8.03937
20
-1.72835
11
8.04011
21
-1.72039
0
LINE
8
BLACK
6
CONTINUOUS
10
8.04011
20
-1.72039
11
8.04229
21
-1.7127
0
LINE
8
BLACK
6
CONTINUOUS
10
8.04229
20
-1.7127
11
8.04586
21
-1.70555
0
LINE
8
BLACK
6
CONTINUOUS
10
8.04586
20
-1.70555
11
8.05067
21
-1.69917
0
LINE
8
BLACK
6
CONTINUOUS
10
8.05067
20
-1.69917
11
8.05658
21
-1.69379
0
LINE
8
BLACK
6
CONTINUOUS
10
8.05658
20
-1.69379
11
8.06337
21
-1.68958
0
LINE
8
BLACK
6
CONTINUOUS
10
8.06337
20
-1.68958
11
8.07083
21
-1.68669
0
LINE
8
BLACK
6
CONTINUOUS
10
8.07083
20
-1.68669
11
8.07868
21
-1.68522
0
LINE
8
BLACK
6
CONTINUOUS
10
8.07868
20
-1.68522
11
8.08667
21
-1.68522
0
LINE
8
BLACK
6
CONTINUOUS
10
8.08667
20
-1.68522
11
8.09453
21
-1.68669
0
LINE
8
BLACK
6
CONTINUOUS
10
6.93964
20
-1.32397
11
6.94588
21
-1.32615
0
LINE
8
BLACK
6
CONTINUOUS
10
6.94588
20
-1.32615
11
6.95148
21
-1.32967
0
LINE
8
BLACK
6
CONTINUOUS
10
6.95148
20
-1.32967
11
6.95616
21
-1.33435
0
LINE
8
BLACK
6
CONTINUOUS
10
6.95616
20
-1.33435
11
6.95967
21
-1.33994
0
LINE
8
BLACK
6
CONTINUOUS
10
6.95967
20
-1.33994
11
6.96186
21
-1.34619
0
LINE
8
BLACK
6
CONTINUOUS
10
6.96186
20
-1.34619
11
6.9626
21
-1.35276
0
LINE
8
BLACK
6
CONTINUOUS
10
6.9626
20
-1.35276
11
6.96186
21
-1.35933
0
LINE
8
BLACK
6
CONTINUOUS
10
6.96186
20
-1.35933
11
6.95967
21
-1.36557
0
LINE
8
BLACK
6
CONTINUOUS
10
6.95967
20
-1.36557
11
6.95616
21
-1.37117
0
LINE
8
BLACK
6
CONTINUOUS
10
6.95616
20
-1.37117
11
6.95148
21
-1.37584
0
LINE
8
BLACK
6
CONTINUOUS
10
6.95148
20
-1.37584
11
6.94588
21
-1.37936
0
LINE
8
BLACK
6
CONTINUOUS
10
6.94588
20
-1.37936
11
6.93964
21
-1.38154
0
LINE
8
BLACK
6
CONTINUOUS
10
6.93964
20
-1.38154
11
6.93307
21
-1.38228
0
LINE
8
BLACK
6
CONTINUOUS
10
6.93307
20
-1.38228
11
6.9265
21
-1.38154
0
LINE
8
BLACK
6
CONTINUOUS
10
6.9265
20
-1.38154
11
6.92026
21
-1.37936
0
LINE
8
BLACK
6
CONTINUOUS
10
6.92026
20
-1.37936
11
6.91466
21
-1.37584
0
LINE
8
BLACK
6
CONTINUOUS
10
6.91466
20
-1.37584
11
6.90999
21
-1.37117
0
LINE
8
BLACK
6
CONTINUOUS
10
6.90999
20
-1.37117
11
6.90647
21
-1.36557
0
LINE
8
BLACK
6
CONTINUOUS
10
6.90647
20
-1.36557
11
6.90428
21
-1.35933
0
LINE
8
BLACK
6
CONTINUOUS
10
6.90428
20
-1.35933
11
6.90354
21
-1.35276
0
LINE
8
BLACK
6
CONTINUOUS
10
6.90354
20
-1.35276
11
6.90428
21
-1.34619
0
LINE
8
BLACK
6
CONTINUOUS
10
6.90428
20
-1.34619
11
6.90647
21
-1.33994
0
LINE
8
BLACK
6
CONTINUOUS
10
6.90647
20
-1.33994
11
6.90999
21
-1.33435
0
LINE
8
BLACK
6
CONTINUOUS
10
6.90999
20
-1.33435
11
6.91466
21
-1.32967
0
LINE
8
BLACK
6
CONTINUOUS
10
6.91466
20
-1.32967
11
6.92026
21
-1.32615
0
LINE
8
BLACK
6
CONTINUOUS
10
6.92026
20
-1.32615
11
6.9265
21
-1.32397
0
LINE
8
BLACK
6
CONTINUOUS
10
6.9265
20
-1.32397
11
6.93307
21
-1.32323
0
LINE
8
BLACK
6
CONTINUOUS
10
6.93307
20
-1.32323
11
6.93964
21
-1.32397
0
LINE
8
BLACK
6
CONTINUOUS
10
6.83964
20
-1.32397
11
6.84588
21
-1.32615
0
LINE
8
BLACK
6
CONTINUOUS
10
6.84588
20
-1.32615
11
6.85148
21
-1.32967
0
LINE
8
BLACK
6
CONTINUOUS
10
6.85148
20
-1.32967
11
6.85616
21
-1.33435
0
LINE
8
BLACK
6
CONTINUOUS
10
6.85616
20
-1.33435
11
6.85967
21
-1.33994
0
LINE
8
BLACK
6
CONTINUOUS
10
6.85967
20
-1.33994
11
6.86186
21
-1.34619
0
LINE
8
BLACK
6
CONTINUOUS
10
6.86186
20
-1.34619
11
6.8626
21
-1.35276
0
LINE
8
BLACK
6
CONTINUOUS
10
6.8626
20
-1.35276
11
6.86186
21
-1.35933
0
LINE
8
BLACK
6
CONTINUOUS
10
6.86186
20
-1.35933
11
6.85967
21
-1.36557
0
LINE
8
BLACK
6
CONTINUOUS
10
6.85967
20
-1.36557
11
6.85616
21
-1.37117
0
LINE
8
BLACK
6
CONTINUOUS
10
6.85616
20
-1.37117
11
6.85148
21
-1.37584
0
LINE
8
BLACK
6
CONTINUOUS
10
6.85148
20
-1.37584
11
6.84588
21
-1.37936
0
LINE
8
BLACK
6
CONTINUOUS
10
6.84588
20
-1.37936
11
6.83964
21
-1.38154
0
LINE
8
BLACK
6
CONTINUOUS
10
6.83964
20
-1.38154
11
6.83307
21
-1.38228
0
LINE
8
BLACK
6
CONTINUOUS
10
6.83307
20
-1.38228
11
6.8265
21
-1.38154
0
LINE
8
BLACK
6
CONTINUOUS
10
6.8265
20
-1.38154
11
6.82026
21
-1.37936
0
LINE
8
BLACK
6
CONTINUOUS
10
6.82026
20
-1.37936
11
6.81466
21
-1.37584
0
LINE
8
BLACK
6
CONTINUOUS
10
6.81466
20
-1.37584
11
6.80999
21
-1.37117
0
LINE
8
BLACK
6
CONTINUOUS
10
6.80999
20
-1.37117
11
6.80647
21
-1.36557
0
LINE
8
BLACK
6
CONTINUOUS
10
6.80647
20
-1.36557
11
6.80428
21
-1.35933
0
LINE
8
BLACK
6
CONTINUOUS
10
6.80428
20
-1.35933
11
6.80354
21
-1.35276
0
LINE
8
BLACK
6
CONTINUOUS
10
6.80354
20
-1.35276
11
6.80428
21
-1.34619
0
LINE
8
BLACK
6
CONTINUOUS
10
6.80428
20
-1.34619
11
6.80647
21
-1.33994
0
LINE
8
BLACK
6
CONTINUOUS
10
6.80647
20
-1.33994
11
6.80999
21
-1.33435
0
LINE
8
BLACK
6
CONTINUOUS
10
6.80999
20
-1.33435
11
6.81466
21
-1.32967
0
LINE
8
BLACK
6
CONTINUOUS
10
6.81466
20
-1.32967
11
6.82026
21
-1.32615
0
LINE
8
BLACK
6
CONTINUOUS
10
6.82026
20
-1.32615
11
6.8265
21
-1.32397
0
LINE
8
BLACK
6
CONTINUOUS
10
6.8265
20
-1.32397
11
6.83307
21
-1.32323
0
LINE
8
BLACK
6
CONTINUOUS
10
6.83307
20
-1.32323
11
6.83964
21
-1.32397
0
LINE
8
BLACK
6
CONTINUOUS
10
6.73964
20
-1.32397
11
6.74588
21
-1.32615
0
LINE
8
BLACK
6
CONTINUOUS
10
6.74588
20
-1.32615
11
6.75148
21
-1.32967
0
LINE
8
BLACK
6
CONTINUOUS
10
6.75148
20
-1.32967
11
6.75616
21
-1.33435
0
LINE
8
BLACK
6
CONTINUOUS
10
6.75616
20
-1.33435
11
6.75967
21
-1.33994
0
LINE
8
BLACK
6
CONTINUOUS
10
6.75967
20
-1.33994
11
6.76186
21
-1.34619
0
LINE
8
BLACK
6
CONTINUOUS
10
6.76186
20
-1.34619
11
6.7626
21
-1.35276
0
LINE
8
BLACK
6
CONTINUOUS
10
6.7626
20
-1.35276
11
6.76186
21
-1.35933
0
LINE
8
BLACK
6
CONTINUOUS
10
6.76186
20
-1.35933
11
6.75967
21
-1.36557
0
LINE
8
BLACK
6
CONTINUOUS
10
6.75967
20
-1.36557
11
6.75616
21
-1.37117
0
LINE
8
BLACK
6
CONTINUOUS
10
6.75616
20
-1.37117
11
6.75148
21
-1.37584
0
LINE
8
BLACK
6
CONTINUOUS
10
6.75148
20
-1.37584
11
6.74588
21
-1.37936
0
LINE
8
BLACK
6
CONTINUOUS
10
6.74588
20
-1.37936
11
6.73964
21
-1.38154
0
LINE
8
BLACK
6
CONTINUOUS
10
6.73964
20
-1.38154
11
6.73307
21
-1.38228
0
LINE
8
BLACK
6
CONTINUOUS
10
6.73307
20
-1.38228
11
6.7265
21
-1.38154
0
LINE
8
BLACK
6
CONTINUOUS
10
6.7265
20
-1.38154
11
6.72026
21
-1.37936
0
LINE
8
BLACK
6
CONTINUOUS
10
6.72026
20
-1.37936
11
6.71466
21
-1.37584
0
LINE
8
BLACK
6
CONTINUOUS
10
6.71466
20
-1.37584
11
6.70999
21
-1.37117
0
LINE
8
BLACK
6
CONTINUOUS
10
6.70999
20
-1.37117
11
6.70647
21
-1.36557
0
LINE
8
BLACK
6
CONTINUOUS
10
6.70647
20
-1.36557
11
6.70428
21
-1.35933
0
LINE
8
BLACK
6
CONTINUOUS
10
6.70428
20
-1.35933
11
6.70354
21
-1.35276
0
LINE
8
BLACK
6
CONTINUOUS
10
6.70354
20
-1.35276
11
6.70428
21
-1.34619
0
LINE
8
BLACK
6
CONTINUOUS
10
6.70428
20
-1.34619
11
6.70647
21
-1.33994
0
LINE
8
BLACK
6
CONTINUOUS
10
6.70647
20
-1.33994
11
6.70999
21
-1.33435
0
LINE
8
BLACK
6
CONTINUOUS
10
6.70999
20
-1.33435
11
6.71466
21
-1.32967
0
LINE
8
BLACK
6
CONTINUOUS
10
6.71466
20
-1.32967
11
6.72026
21
-1.32615
0
LINE
8
BLACK
6
CONTINUOUS
10
6.72026
20
-1.32615
11
6.7265
21
-1.32397
0
LINE
8
BLACK
6
CONTINUOUS
10
6.7265
20
-1.32397
11
6.73307
21
-1.32323
0
LINE
8
BLACK
6
CONTINUOUS
10
6.73307
20
-1.32323
11
6.73964
21
-1.32397
0
LINE
8
BLACK
6
CONTINUOUS
10
6.63964
20
-1.32397
11
6.64588
21
-1.32615
0
LINE
8
BLACK
6
CONTINUOUS
10
6.64588
20
-1.32615
11
6.65148
21
-1.32967
0
LINE
8
BLACK
6
CONTINUOUS
10
6.65148
20
-1.32967
11
6.65616
21
-1.33435
0
LINE
8
BLACK
6
CONTINUOUS
10
6.65616
20
-1.33435
11
6.65967
21
-1.33994
0
LINE
8
BLACK
6
CONTINUOUS
10
6.65967
20
-1.33994
11
6.66186
21
-1.34619
0
LINE
8
BLACK
6
CONTINUOUS
10
6.66186
20
-1.34619
11
6.6626
21
-1.35276
0
LINE
8
BLACK
6
CONTINUOUS
10
6.6626
20
-1.35276
11
6.66186
21
-1.35933
0
LINE
8
BLACK
6
CONTINUOUS
10
6.66186
20
-1.35933
11
6.65967
21
-1.36557
0
LINE
8
BLACK
6
CONTINUOUS
10
6.65967
20
-1.36557
11
6.65616
21
-1.37117
0
LINE
8
BLACK
6
CONTINUOUS
10
6.65616
20
-1.37117
11
6.65148
21
-1.37584
0
LINE
8
BLACK
6
CONTINUOUS
10
6.65148
20
-1.37584
11
6.64588
21
-1.37936
0
LINE
8
BLACK
6
CONTINUOUS
10
6.64588
20
-1.37936
11
6.63964
21
-1.38154
0
LINE
8
BLACK
6
CONTINUOUS
10
6.63964
20
-1.38154
11
6.63307
21
-1.38228
0
LINE
8
BLACK
6
CONTINUOUS
10
6.63307
20
-1.38228
11
6.6265
21
-1.38154
0
LINE
8
BLACK
6
CONTINUOUS
10
6.6265
20
-1.38154
11
6.62026
21
-1.37936
0
LINE
8
BLACK
6
CONTINUOUS
10
6.62026
20
-1.37936
11
6.61466
21
-1.37584
0
LINE
8
BLACK
6
CONTINUOUS
10
6.61466
20
-1.37584
11
6.60999
21
-1.37117
0
LINE
8
BLACK
6
CONTINUOUS
10
6.60999
20
-1.37117
11
6.60647
21
-1.36557
0
LINE
8
BLACK
6
CONTINUOUS
10
6.60647
20
-1.36557
11
6.60428
21
-1.35933
0
LINE
8
BLACK
6
CONTINUOUS
10
6.60428
20
-1.35933
11
6.60354
21
-1.35276
0
LINE
8
BLACK
6
CONTINUOUS
10
6.60354
20
-1.35276
11
6.60428
21
-1.34619
0
LINE
8
BLACK
6
CONTINUOUS
10
6.60428
20
-1.34619
11
6.60647
21
-1.33994
0
LINE
8
BLACK
6
CONTINUOUS
10
6.60647
20
-1.33994
11
6.60999
21
-1.33435
0
LINE
8
BLACK
6
CONTINUOUS
10
6.60999
20
-1.33435
11
6.61466
21
-1.32967
0
LINE
8
BLACK
6
CONTINUOUS
10
6.61466
20
-1.32967
11
6.62026
21
-1.32615
0
LINE
8
BLACK
6
CONTINUOUS
10
6.62026
20
-1.32615
11
6.6265
21
-1.32397
0
LINE
8
BLACK
6
CONTINUOUS
10
6.6265
20
-1.32397
11
6.63307
21
-1.32323
0
LINE
8
BLACK
6
CONTINUOUS
10
6.63307
20
-1.32323
11
6.63964
21
-1.32397
0
LINE
8
BLACK
6
CONTINUOUS
10
6.53964
20
-1.32397
11
6.54588
21
-1.32615
0
LINE
8
BLACK
6
CONTINUOUS
10
6.54588
20
-1.32615
11
6.55148
21
-1.32967
0
LINE
8
BLACK
6
CONTINUOUS
10
6.55148
20
-1.32967
11
6.55616
21
-1.33435
0
LINE
8
BLACK
6
CONTINUOUS
10
6.55616
20
-1.33435
11
6.55967
21
-1.33994
0
LINE
8
BLACK
6
CONTINUOUS
10
6.55967
20
-1.33994
11
6.56186
21
-1.34619
0
LINE
8
BLACK
6
CONTINUOUS
10
6.56186
20
-1.34619
11
6.5626
21
-1.35276
0
LINE
8
BLACK
6
CONTINUOUS
10
6.5626
20
-1.35276
11
6.56186
21
-1.35933
0
LINE
8
BLACK
6
CONTINUOUS
10
6.56186
20
-1.35933
11
6.55967
21
-1.36557
0
LINE
8
BLACK
6
CONTINUOUS
10
6.55967
20
-1.36557
11
6.55616
21
-1.37117
0
LINE
8
BLACK
6
CONTINUOUS
10
6.55616
20
-1.37117
11
6.55148
21
-1.37584
0
LINE
8
BLACK
6
CONTINUOUS
10
6.55148
20
-1.37584
11
6.54588
21
-1.37936
0
LINE
8
BLACK
6
CONTINUOUS
10
6.54588
20
-1.37936
11
6.53964
21
-1.38154
0
LINE
8
BLACK
6
CONTINUOUS
10
6.53964
20
-1.38154
11
6.53307
21
-1.38228
0
LINE
8
BLACK
6
CONTINUOUS
10
6.53307
20
-1.38228
11
6.5265
21
-1.38154
0
LINE
8
BLACK
6
CONTINUOUS
10
6.5265
20
-1.38154
11
6.52026
21
-1.37936
0
LINE
8
BLACK
6
CONTINUOUS
10
6.52026
20
-1.37936
11
6.51466
21
-1.37584
0
LINE
8
BLACK
6
CONTINUOUS
10
6.51466
20
-1.37584
11
6.50999
21
-1.37117
0
LINE
8
BLACK
6
CONTINUOUS
10
6.50999
20
-1.37117
11
6.50647
21
-1.36557
0
LINE
8
BLACK
6
CONTINUOUS
10
6.50647
20
-1.36557
11
6.50428
21
-1.35933
0
LINE
8
BLACK
6
CONTINUOUS
10
6.50428
20
-1.35933
11
6.50354
21
-1.35276
0
LINE
8
BLACK
6
CONTINUOUS
10
6.50354
20
-1.35276
11
6.50428
21
-1.34619
0
LINE
8
BLACK
6
CONTINUOUS
10
6.50428
20
-1.34619
11
6.50647
21
-1.33994
0
LINE
8
BLACK
6
CONTINUOUS
10
6.50647
20
-1.33994
11
6.50999
21
-1.33435
0
LINE
8
BLACK
6
CONTINUOUS
10
6.50999
20
-1.33435
11
6.51466
21
-1.32967
0
LINE
8
BLACK
6
CONTINUOUS
10
6.51466
20
-1.32967
11
6.52026
21
-1.32615
0
LINE
8
BLACK
6
CONTINUOUS
10
6.52026
20
-1.32615
11
6.5265
21
-1.32397
0
LINE
8
BLACK
6
CONTINUOUS
10
6.5265
20
-1.32397
11
6.53307
21
-1.32323
0
LINE
8
BLACK
6
CONTINUOUS
10
6.53307
20
-1.32323
11
6.53964
21
-1.32397
0
LINE
8
BLACK
6
CONTINUOUS
10
6.43964
20
-1.32397
11
6.44588
21
-1.32615
0
LINE
8
BLACK
6
CONTINUOUS
10
6.44588
20
-1.32615
11
6.45148
21
-1.32967
0
LINE
8
BLACK
6
CONTINUOUS
10
6.45148
20
-1.32967
11
6.45616
21
-1.33435
0
LINE
8
BLACK
6
CONTINUOUS
10
6.45616
20
-1.33435
11
6.45967
21
-1.33994
0
LINE
8
BLACK
6
CONTINUOUS
10
6.45967
20
-1.33994
11
6.46186
21
-1.34619
0
LINE
8
BLACK
6
CONTINUOUS
10
6.46186
20
-1.34619
11
6.4626
21
-1.35276
0
LINE
8
BLACK
6
CONTINUOUS
10
6.4626
20
-1.35276
11
6.46186
21
-1.35933
0
LINE
8
BLACK
6
CONTINUOUS
10
6.46186
20
-1.35933
11
6.45967
21
-1.36557
0
LINE
8
BLACK
6
CONTINUOUS
10
6.45967
20
-1.36557
11
6.45616
21
-1.37117
0
LINE
8
BLACK
6
CONTINUOUS
10
6.45616
20
-1.37117
11
6.45148
21
-1.37584
0
LINE
8
BLACK
6
CONTINUOUS
10
6.45148
20
-1.37584
11
6.44588
21
-1.37936
0
LINE
8
BLACK
6
CONTINUOUS
10
6.44588
20
-1.37936
11
6.43964
21
-1.38154
0
LINE
8
BLACK
6
CONTINUOUS
10
6.43964
20
-1.38154
11
6.43307
21
-1.38228
0
LINE
8
BLACK
6
CONTINUOUS
10
6.43307
20
-1.38228
11
6.4265
21
-1.38154
0
LINE
8
BLACK
6
CONTINUOUS
10
6.4265
20
-1.38154
11
6.42026
21
-1.37936
0
LINE
8
BLACK
6
CONTINUOUS
10
6.42026
20
-1.37936
11
6.41466
21
-1.37584
0
LINE
8
BLACK
6
CONTINUOUS
10
6.41466
20
-1.37584
11
6.40999
21
-1.37117
0
LINE
8
BLACK
6
CONTINUOUS
10
6.40999
20
-1.37117
11
6.40647
21
-1.36557
0
LINE
8
BLACK
6
CONTINUOUS
10
6.40647
20
-1.36557
11
6.40428
21
-1.35933
0
LINE
8
BLACK
6
CONTINUOUS
10
6.40428
20
-1.35933
11
6.40354
21
-1.35276
0
LINE
8
BLACK
6
CONTINUOUS
10
6.40354
20
-1.35276
11
6.40428
21
-1.34619
0
LINE
8
BLACK
6
CONTINUOUS
10
6.40428
20
-1.34619
11
6.40647
21
-1.33994
0
LINE
8
BLACK
6
CONTINUOUS
10
6.40647
20
-1.33994
11
6.40999
21
-1.33435
0
LINE
8
BLACK
6
CONTINUOUS
10
6.40999
20
-1.33435
11
6.41466
21
-1.32967
0
LINE
8
BLACK
6
CONTINUOUS
10
6.41466
20
-1.32967
11
6.42026
21
-1.32615
0
LINE
8
BLACK
6
CONTINUOUS
10
6.42026
20
-1.32615
11
6.4265
21
-1.32397
0
LINE
8
BLACK
6
CONTINUOUS
10
6.4265
20
-1.32397
11
6.43307
21
-1.32323
0
LINE
8
BLACK
6
CONTINUOUS
10
6.43307
20
-1.32323
11
6.43964
21
-1.32397
0
LINE
8
BLACK
6
CONTINUOUS
10
5.26185
20
-1.26543
11
5.2693
21
-1.26832
0
LINE
8
BLACK
6
CONTINUOUS
10
5.2693
20
-1.26832
11
5.2761
21
-1.27253
0
LINE
8
BLACK
6
CONTINUOUS
10
5.2761
20
-1.27253
11
5.282
21
-1.27791
0
LINE
8
BLACK
6
CONTINUOUS
10
5.282
20
-1.27791
11
5.28682
21
-1.28429
0
LINE
8
BLACK
6
CONTINUOUS
10
5.28682
20
-1.28429
11
5.29038
21
-1.29144
0
LINE
8
BLACK
6
CONTINUOUS
10
5.29038
20
-1.29144
11
5.29257
21
-1.29913
0
LINE
8
BLACK
6
CONTINUOUS
10
5.29257
20
-1.29913
11
5.29331
21
-1.30709
0
LINE
8
BLACK
6
CONTINUOUS
10
5.29331
20
-1.30709
11
5.29257
21
-1.31504
0
LINE
8
BLACK
6
CONTINUOUS
10
5.29257
20
-1.31504
11
5.29038
21
-1.32273
0
LINE
8
BLACK
6
CONTINUOUS
10
5.29038
20
-1.32273
11
5.28682
21
-1.32988
0
LINE
8
BLACK
6
CONTINUOUS
10
5.28682
20
-1.32988
11
5.282
21
-1.33626
0
LINE
8
BLACK
6
CONTINUOUS
10
5.282
20
-1.33626
11
5.2761
21
-1.34165
0
LINE
8
BLACK
6
CONTINUOUS
10
5.2761
20
-1.34165
11
5.2693
21
-1.34585
0
LINE
8
BLACK
6
CONTINUOUS
10
5.2693
20
-1.34585
11
5.26185
21
-1.34874
0
LINE
8
BLACK
6
CONTINUOUS
10
5.26185
20
-1.34874
11
5.254
21
-1.35021
0
LINE
8
BLACK
6
CONTINUOUS
10
5.254
20
-1.35021
11
5.246
21
-1.35021
0
LINE
8
BLACK
6
CONTINUOUS
10
5.246
20
-1.35021
11
5.23815
21
-1.34874
0
LINE
8
BLACK
6
CONTINUOUS
10
5.23815
20
-1.34874
11
5.2307
21
-1.34585
0
LINE
8
BLACK
6
CONTINUOUS
10
5.2307
20
-1.34585
11
5.2239
21
-1.34165
0
LINE
8
BLACK
6
CONTINUOUS
10
5.2239
20
-1.34165
11
5.218
21
-1.33626
0
LINE
8
BLACK
6
CONTINUOUS
10
5.218
20
-1.33626
11
5.21318
21
-1.32988
0
LINE
8
BLACK
6
CONTINUOUS
10
5.21318
20
-1.32988
11
5.20962
21
-1.32273
0
LINE
8
BLACK
6
CONTINUOUS
10
5.20962
20
-1.32273
11
5.20743
21
-1.31504
0
LINE
8
BLACK
6
CONTINUOUS
10
5.20743
20
-1.31504
11
5.20669
21
-1.30709
0
LINE
8
BLACK
6
CONTINUOUS
10
5.20669
20
-1.30709
11
5.20743
21
-1.29913
0
LINE
8
BLACK
6
CONTINUOUS
10
5.20743
20
-1.29913
11
5.20962
21
-1.29144
0
LINE
8
BLACK
6
CONTINUOUS
10
5.20962
20
-1.29144
11
5.21318
21
-1.28429
0
LINE
8
BLACK
6
CONTINUOUS
10
5.21318
20
-1.28429
11
5.218
21
-1.27791
0
LINE
8
BLACK
6
CONTINUOUS
10
5.218
20
-1.27791
11
5.2239
21
-1.27253
0
LINE
8
BLACK
6
CONTINUOUS
10
5.2239
20
-1.27253
11
5.2307
21
-1.26832
0
LINE
8
BLACK
6
CONTINUOUS
10
5.2307
20
-1.26832
11
5.23815
21
-1.26543
0
LINE
8
BLACK
6
CONTINUOUS
10
5.23815
20
-1.26543
11
5.246
21
-1.26396
0
LINE
8
BLACK
6
CONTINUOUS
10
5.246
20
-1.26396
11
5.254
21
-1.26396
0
LINE
8
BLACK
6
CONTINUOUS
10
5.254
20
-1.26396
11
5.26185
21
-1.26543
  0
ENDSEC
  0
EOF
