  0
SECTION
  2
HEADER
  9
$ANGBASE
  50
0.0
  9
$ANGDIR
  70
1
  9
$MEASUREMENT
  70
0
  0
ENDSEC
  0
SECTION
  2
TABLES
  0
TABLE
  2
LTYPE
  70
4
  0
LTYPE
  5
40F
  2
CONTINUOUS
  70
0
  3
Solid line
  72
65
  73
0
  40
0.0
  0
LTYPE
  5
410
  2
DASHDOT
 70
0
  3
Dash Dot ____ _ ____ _
 72
65
 73
4
 40
2.0
 49
1.25
 49
-0.25
 49
0.25
 49
-0.25
  0
LTYPE
  5
411
  2
DASHED
 70
0
  3
Dashed __ __ __ __ __
 72
65
 73
2
 40
0.75
 49
0.5
 49
-0.25
  0
LTYPE
  5
43B
  2
DOTTED
 70
0
  3
Dotted .  .  .  .
 72
65
 73
2
 40
0.2
 49
0.0
 49
-0.2
  0
ENDTAB
  0
TABLE
  2
STYLE
  70
4
  0
STYLE
  2
KICAD
  70
0
  40
0
  41
1
  42
1
  50
0
  71
0
  3
isocp.shx
  0
STYLE
  2
KICADB
  70
0
  40
0
  41
1
  42
1
  50
0
  71
0
  3
isocp.shx
  0
STYLE
  2
KICADI
  70
0
  40
0
  41
1
  42
1
  50
15
  71
0
  3
isocp.shx
  0
STYLE
  2
KICADBI
  70
0
  40
0
  41
1
  42
1
  50
15
  71
0
  3
isocp.shx
  0
ENDTAB
  0
TABLE
  2
LAYER
  70
1
  0
LAYER
  2
BLACK
  70
0
  62
7
  6
CONTINUOUS
  0
ENDTAB
  0
ENDSEC
  0
SECTION
  2
ENTITIES
0
LINE
8
BLACK
6
CONTINUOUS
10
6.79331
20
-3.86417
11
6.71457
21
-3.86417
0
LINE
8
BLACK
6
CONTINUOUS
10
6.71457
20
-3.86417
11
6.71457
21
-3.80512
0
LINE
8
BLACK
6
CONTINUOUS
10
6.71457
20
-3.80512
11
6.79331
21
-3.80512
0
LINE
8
BLACK
6
CONTINUOUS
10
6.79331
20
-3.80512
11
6.79331
21
-3.86417
0
LINE
8
BLACK
6
CONTINUOUS
10
6.23031
20
-3.86417
11
6.15157
21
-3.86417
0
LINE
8
BLACK
6
CONTINUOUS
10
6.15157
20
-3.86417
11
6.15157
21
-3.80512
0
LINE
8
BLACK
6
CONTINUOUS
10
6.15157
20
-3.80512
11
6.23031
21
-3.80512
0
LINE
8
BLACK
6
CONTINUOUS
10
6.23031
20
-3.80512
11
6.23031
21
-3.86417
0
LINE
8
BLACK
6
CONTINUOUS
10
7.74016
20
-3.86024
11
7.66142
21
-3.86024
0
LINE
8
BLACK
6
CONTINUOUS
10
7.66142
20
-3.86024
11
7.66142
21
-3.80118
0
LINE
8
BLACK
6
CONTINUOUS
10
7.66142
20
-3.80118
11
7.74016
21
-3.80118
0
LINE
8
BLACK
6
CONTINUOUS
10
7.74016
20
-3.80118
11
7.74016
21
-3.86024
0
LINE
8
BLACK
6
CONTINUOUS
10
7.17717
20
-3.86024
11
7.09843
21
-3.86024
0
LINE
8
BLACK
6
CONTINUOUS
10
7.09843
20
-3.86024
11
7.09843
21
-3.80118
0
LINE
8
BLACK
6
CONTINUOUS
10
7.09843
20
-3.80118
11
7.17717
21
-3.80118
0
LINE
8
BLACK
6
CONTINUOUS
10
7.17717
20
-3.80118
11
7.17717
21
-3.86024
0
LINE
8
BLACK
6
CONTINUOUS
10
6.79331
20
-3.66732
11
6.71457
21
-3.66732
0
LINE
8
BLACK
6
CONTINUOUS
10
6.71457
20
-3.66732
11
6.71457
21
-3.60827
0
LINE
8
BLACK
6
CONTINUOUS
10
6.71457
20
-3.60827
11
6.79331
21
-3.60827
0
LINE
8
BLACK
6
CONTINUOUS
10
6.79331
20
-3.60827
11
6.79331
21
-3.66732
0
LINE
8
BLACK
6
CONTINUOUS
10
6.23031
20
-3.66732
11
6.15157
21
-3.66732
0
LINE
8
BLACK
6
CONTINUOUS
10
6.15157
20
-3.66732
11
6.15157
21
-3.60827
0
LINE
8
BLACK
6
CONTINUOUS
10
6.15157
20
-3.60827
11
6.23031
21
-3.60827
0
LINE
8
BLACK
6
CONTINUOUS
10
6.23031
20
-3.60827
11
6.23031
21
-3.66732
0
LINE
8
BLACK
6
CONTINUOUS
10
7.74016
20
-3.66339
11
7.66142
21
-3.66339
0
LINE
8
BLACK
6
CONTINUOUS
10
7.66142
20
-3.66339
11
7.66142
21
-3.60433
0
LINE
8
BLACK
6
CONTINUOUS
10
7.66142
20
-3.60433
11
7.74016
21
-3.60433
0
LINE
8
BLACK
6
CONTINUOUS
10
7.74016
20
-3.60433
11
7.74016
21
-3.66339
0
LINE
8
BLACK
6
CONTINUOUS
10
7.17717
20
-3.66339
11
7.09843
21
-3.66339
0
LINE
8
BLACK
6
CONTINUOUS
10
7.09843
20
-3.66339
11
7.09843
21
-3.60433
0
LINE
8
BLACK
6
CONTINUOUS
10
7.09843
20
-3.60433
11
7.17717
21
-3.60433
0
LINE
8
BLACK
6
CONTINUOUS
10
7.17717
20
-3.60433
11
7.17717
21
-3.66339
0
LINE
8
BLACK
6
CONTINUOUS
10
7.90091
20
-3.60508
11
7.90411
21
-3.60721
0
LINE
8
BLACK
6
CONTINUOUS
10
7.90411
20
-3.60721
11
7.90624
21
-3.61041
0
LINE
8
BLACK
6
CONTINUOUS
10
7.90624
20
-3.61041
11
7.90699
21
-3.61417
0
LINE
8
BLACK
6
CONTINUOUS
10
7.90699
20
-3.61417
11
7.90699
21
-3.64961
0
LINE
8
BLACK
6
CONTINUOUS
10
7.90699
20
-3.64961
11
7.90624
21
-3.65337
0
LINE
8
BLACK
6
CONTINUOUS
10
7.90624
20
-3.65337
11
7.90411
21
-3.65657
0
LINE
8
BLACK
6
CONTINUOUS
10
7.90411
20
-3.65657
11
7.90091
21
-3.6587
0
LINE
8
BLACK
6
CONTINUOUS
10
7.90091
20
-3.6587
11
7.89715
21
-3.65945
0
LINE
8
BLACK
6
CONTINUOUS
10
7.89715
20
-3.65945
11
7.87648
21
-3.65945
0
LINE
8
BLACK
6
CONTINUOUS
10
7.87648
20
-3.65945
11
7.87271
21
-3.6587
0
LINE
8
BLACK
6
CONTINUOUS
10
7.87271
20
-3.6587
11
7.86952
21
-3.65657
0
LINE
8
BLACK
6
CONTINUOUS
10
7.86952
20
-3.65657
11
7.86738
21
-3.65337
0
LINE
8
BLACK
6
CONTINUOUS
10
7.86738
20
-3.65337
11
7.86663
21
-3.64961
0
LINE
8
BLACK
6
CONTINUOUS
10
7.86663
20
-3.64961
11
7.86663
21
-3.61417
0
LINE
8
BLACK
6
CONTINUOUS
10
7.86663
20
-3.61417
11
7.86738
21
-3.61041
0
LINE
8
BLACK
6
CONTINUOUS
10
7.86738
20
-3.61041
11
7.86952
21
-3.60721
0
LINE
8
BLACK
6
CONTINUOUS
10
7.86952
20
-3.60721
11
7.87271
21
-3.60508
0
LINE
8
BLACK
6
CONTINUOUS
10
7.87271
20
-3.60508
11
7.87648
21
-3.60433
0
LINE
8
BLACK
6
CONTINUOUS
10
7.87648
20
-3.60433
11
7.89715
21
-3.60433
0
LINE
8
BLACK
6
CONTINUOUS
10
7.89715
20
-3.60433
11
7.90091
21
-3.60508
0
LINE
8
BLACK
6
CONTINUOUS
10
7.82906
20
-3.60508
11
7.83225
21
-3.60721
0
LINE
8
BLACK
6
CONTINUOUS
10
7.83225
20
-3.60721
11
7.83439
21
-3.61041
0
LINE
8
BLACK
6
CONTINUOUS
10
7.83439
20
-3.61041
11
7.83514
21
-3.61417
0
LINE
8
BLACK
6
CONTINUOUS
10
7.83514
20
-3.61417
11
7.83514
21
-3.64961
0
LINE
8
BLACK
6
CONTINUOUS
10
7.83514
20
-3.64961
11
7.83439
21
-3.65337
0
LINE
8
BLACK
6
CONTINUOUS
10
7.83439
20
-3.65337
11
7.83225
21
-3.65657
0
LINE
8
BLACK
6
CONTINUOUS
10
7.83225
20
-3.65657
11
7.82906
21
-3.6587
0
LINE
8
BLACK
6
CONTINUOUS
10
7.82906
20
-3.6587
11
7.8253
21
-3.65945
0
LINE
8
BLACK
6
CONTINUOUS
10
7.8253
20
-3.65945
11
7.80463
21
-3.65945
0
LINE
8
BLACK
6
CONTINUOUS
10
7.80463
20
-3.65945
11
7.80086
21
-3.6587
0
LINE
8
BLACK
6
CONTINUOUS
10
7.80086
20
-3.6587
11
7.79767
21
-3.65657
0
LINE
8
BLACK
6
CONTINUOUS
10
7.79767
20
-3.65657
11
7.79553
21
-3.65337
0
LINE
8
BLACK
6
CONTINUOUS
10
7.79553
20
-3.65337
11
7.79478
21
-3.64961
0
LINE
8
BLACK
6
CONTINUOUS
10
7.79478
20
-3.64961
11
7.79478
21
-3.61417
0
LINE
8
BLACK
6
CONTINUOUS
10
7.79478
20
-3.61417
11
7.79553
21
-3.61041
0
LINE
8
BLACK
6
CONTINUOUS
10
7.79553
20
-3.61041
11
7.79767
21
-3.60721
0
LINE
8
BLACK
6
CONTINUOUS
10
7.79767
20
-3.60721
11
7.80086
21
-3.60508
0
LINE
8
BLACK
6
CONTINUOUS
10
7.80086
20
-3.60508
11
7.80463
21
-3.60433
0
LINE
8
BLACK
6
CONTINUOUS
10
7.80463
20
-3.60433
11
7.8253
21
-3.60433
0
LINE
8
BLACK
6
CONTINUOUS
10
7.8253
20
-3.60433
11
7.82906
21
-3.60508
0
LINE
8
BLACK
6
CONTINUOUS
10
6.94816
20
-3.60311
11
6.95135
21
-3.60525
0
LINE
8
BLACK
6
CONTINUOUS
10
6.95135
20
-3.60525
11
6.95348
21
-3.60844
0
LINE
8
BLACK
6
CONTINUOUS
10
6.95348
20
-3.60844
11
6.95423
21
-3.6122
0
LINE
8
BLACK
6
CONTINUOUS
10
6.95423
20
-3.6122
11
6.95423
21
-3.64764
0
LINE
8
BLACK
6
CONTINUOUS
10
6.95423
20
-3.64764
11
6.95348
21
-3.6514
0
LINE
8
BLACK
6
CONTINUOUS
10
6.95348
20
-3.6514
11
6.95135
21
-3.6546
0
LINE
8
BLACK
6
CONTINUOUS
10
6.95135
20
-3.6546
11
6.94816
21
-3.65673
0
LINE
8
BLACK
6
CONTINUOUS
10
6.94816
20
-3.65673
11
6.94439
21
-3.65748
0
LINE
8
BLACK
6
CONTINUOUS
10
6.94439
20
-3.65748
11
6.92372
21
-3.65748
0
LINE
8
BLACK
6
CONTINUOUS
10
6.92372
20
-3.65748
11
6.91995
21
-3.65673
0
LINE
8
BLACK
6
CONTINUOUS
10
6.91995
20
-3.65673
11
6.91676
21
-3.6546
0
LINE
8
BLACK
6
CONTINUOUS
10
6.91676
20
-3.6546
11
6.91463
21
-3.6514
0
LINE
8
BLACK
6
CONTINUOUS
10
6.91463
20
-3.6514
11
6.91388
21
-3.64764
0
LINE
8
BLACK
6
CONTINUOUS
10
6.91388
20
-3.64764
11
6.91388
21
-3.6122
0
LINE
8
BLACK
6
CONTINUOUS
10
6.91388
20
-3.6122
11
6.91463
21
-3.60844
0
LINE
8
BLACK
6
CONTINUOUS
10
6.91463
20
-3.60844
11
6.91676
21
-3.60525
0
LINE
8
BLACK
6
CONTINUOUS
10
6.91676
20
-3.60525
11
6.91995
21
-3.60311
0
LINE
8
BLACK
6
CONTINUOUS
10
6.91995
20
-3.60311
11
6.92372
21
-3.60236
0
LINE
8
BLACK
6
CONTINUOUS
10
6.92372
20
-3.60236
11
6.94439
21
-3.60236
0
LINE
8
BLACK
6
CONTINUOUS
10
6.94439
20
-3.60236
11
6.94816
21
-3.60311
0
LINE
8
BLACK
6
CONTINUOUS
10
6.87631
20
-3.60311
11
6.8795
21
-3.60525
0
LINE
8
BLACK
6
CONTINUOUS
10
6.8795
20
-3.60525
11
6.88163
21
-3.60844
0
LINE
8
BLACK
6
CONTINUOUS
10
6.88163
20
-3.60844
11
6.88238
21
-3.6122
0
LINE
8
BLACK
6
CONTINUOUS
10
6.88238
20
-3.6122
11
6.88238
21
-3.64764
0
LINE
8
BLACK
6
CONTINUOUS
10
6.88238
20
-3.64764
11
6.88163
21
-3.6514
0
LINE
8
BLACK
6
CONTINUOUS
10
6.88163
20
-3.6514
11
6.8795
21
-3.6546
0
LINE
8
BLACK
6
CONTINUOUS
10
6.8795
20
-3.6546
11
6.87631
21
-3.65673
0
LINE
8
BLACK
6
CONTINUOUS
10
6.87631
20
-3.65673
11
6.87254
21
-3.65748
0
LINE
8
BLACK
6
CONTINUOUS
10
6.87254
20
-3.65748
11
6.85187
21
-3.65748
0
LINE
8
BLACK
6
CONTINUOUS
10
6.85187
20
-3.65748
11
6.8481
21
-3.65673
0
LINE
8
BLACK
6
CONTINUOUS
10
6.8481
20
-3.65673
11
6.84491
21
-3.6546
0
LINE
8
BLACK
6
CONTINUOUS
10
6.84491
20
-3.6546
11
6.84278
21
-3.6514
0
LINE
8
BLACK
6
CONTINUOUS
10
6.84278
20
-3.6514
11
6.84203
21
-3.64764
0
LINE
8
BLACK
6
CONTINUOUS
10
6.84203
20
-3.64764
11
6.84203
21
-3.6122
0
LINE
8
BLACK
6
CONTINUOUS
10
6.84203
20
-3.6122
11
6.84278
21
-3.60844
0
LINE
8
BLACK
6
CONTINUOUS
10
6.84278
20
-3.60844
11
6.84491
21
-3.60525
0
LINE
8
BLACK
6
CONTINUOUS
10
6.84491
20
-3.60525
11
6.8481
21
-3.60311
0
LINE
8
BLACK
6
CONTINUOUS
10
6.8481
20
-3.60311
11
6.85187
21
-3.60236
0
LINE
8
BLACK
6
CONTINUOUS
10
6.85187
20
-3.60236
11
6.87254
21
-3.60236
0
LINE
8
BLACK
6
CONTINUOUS
10
6.87254
20
-3.60236
11
6.87631
21
-3.60311
0
LINE
8
BLACK
6
CONTINUOUS
10
5.46227
20
-3.33977
11
5.46482
21
-3.34148
0
LINE
8
BLACK
6
CONTINUOUS
10
5.46482
20
-3.34148
11
5.46653
21
-3.34403
0
LINE
8
BLACK
6
CONTINUOUS
10
5.46653
20
-3.34403
11
5.46713
21
-3.34705
0
LINE
8
BLACK
6
CONTINUOUS
10
5.46713
20
-3.34705
11
5.46713
21
-3.3687
0
LINE
8
BLACK
6
CONTINUOUS
10
5.46713
20
-3.3687
11
5.46653
21
-3.37171
0
LINE
8
BLACK
6
CONTINUOUS
10
5.46653
20
-3.37171
11
5.46482
21
-3.37427
0
LINE
8
BLACK
6
CONTINUOUS
10
5.46482
20
-3.37427
11
5.46227
21
-3.37598
0
LINE
8
BLACK
6
CONTINUOUS
10
5.46227
20
-3.37598
11
5.45925
21
-3.37657
0
LINE
8
BLACK
6
CONTINUOUS
10
5.45925
20
-3.37657
11
5.4435
21
-3.37657
0
LINE
8
BLACK
6
CONTINUOUS
10
5.4435
20
-3.37657
11
5.44049
21
-3.37598
0
LINE
8
BLACK
6
CONTINUOUS
10
5.44049
20
-3.37598
11
5.43794
21
-3.37427
0
LINE
8
BLACK
6
CONTINUOUS
10
5.43794
20
-3.37427
11
5.43623
21
-3.37171
0
LINE
8
BLACK
6
CONTINUOUS
10
5.43623
20
-3.37171
11
5.43563
21
-3.3687
0
LINE
8
BLACK
6
CONTINUOUS
10
5.43563
20
-3.3687
11
5.43563
21
-3.34705
0
LINE
8
BLACK
6
CONTINUOUS
10
5.43563
20
-3.34705
11
5.43623
21
-3.34403
0
LINE
8
BLACK
6
CONTINUOUS
10
5.43623
20
-3.34403
11
5.43794
21
-3.34148
0
LINE
8
BLACK
6
CONTINUOUS
10
5.43794
20
-3.34148
11
5.44049
21
-3.33977
0
LINE
8
BLACK
6
CONTINUOUS
10
5.44049
20
-3.33977
11
5.4435
21
-3.33917
0
LINE
8
BLACK
6
CONTINUOUS
10
5.4435
20
-3.33917
11
5.45925
21
-3.33917
0
LINE
8
BLACK
6
CONTINUOUS
10
5.45925
20
-3.33917
11
5.46227
21
-3.33977
0
LINE
8
BLACK
6
CONTINUOUS
10
5.3973
20
-3.33977
11
5.39986
21
-3.34148
0
LINE
8
BLACK
6
CONTINUOUS
10
5.39986
20
-3.34148
11
5.40157
21
-3.34403
0
LINE
8
BLACK
6
CONTINUOUS
10
5.40157
20
-3.34403
11
5.40217
21
-3.34705
0
LINE
8
BLACK
6
CONTINUOUS
10
5.40217
20
-3.34705
11
5.40217
21
-3.3687
0
LINE
8
BLACK
6
CONTINUOUS
10
5.40217
20
-3.3687
11
5.40157
21
-3.37171
0
LINE
8
BLACK
6
CONTINUOUS
10
5.40157
20
-3.37171
11
5.39986
21
-3.37427
0
LINE
8
BLACK
6
CONTINUOUS
10
5.39986
20
-3.37427
11
5.3973
21
-3.37598
0
LINE
8
BLACK
6
CONTINUOUS
10
5.3973
20
-3.37598
11
5.39429
21
-3.37657
0
LINE
8
BLACK
6
CONTINUOUS
10
5.39429
20
-3.37657
11
5.37854
21
-3.37657
0
LINE
8
BLACK
6
CONTINUOUS
10
5.37854
20
-3.37657
11
5.37553
21
-3.37598
0
LINE
8
BLACK
6
CONTINUOUS
10
5.37553
20
-3.37598
11
5.37298
21
-3.37427
0
LINE
8
BLACK
6
CONTINUOUS
10
5.37298
20
-3.37427
11
5.37127
21
-3.37171
0
LINE
8
BLACK
6
CONTINUOUS
10
5.37127
20
-3.37171
11
5.37067
21
-3.3687
0
LINE
8
BLACK
6
CONTINUOUS
10
5.37067
20
-3.3687
11
5.37067
21
-3.34705
0
LINE
8
BLACK
6
CONTINUOUS
10
5.37067
20
-3.34705
11
5.37127
21
-3.34403
0
LINE
8
BLACK
6
CONTINUOUS
10
5.37127
20
-3.34403
11
5.37298
21
-3.34148
0
LINE
8
BLACK
6
CONTINUOUS
10
5.37298
20
-3.34148
11
5.37553
21
-3.33977
0
LINE
8
BLACK
6
CONTINUOUS
10
5.37553
20
-3.33977
11
5.37854
21
-3.33917
0
LINE
8
BLACK
6
CONTINUOUS
10
5.37854
20
-3.33917
11
5.39429
21
-3.33917
0
LINE
8
BLACK
6
CONTINUOUS
10
5.39429
20
-3.33917
11
5.3973
21
-3.33977
0
LINE
8
BLACK
6
CONTINUOUS
10
6.79921
20
-3.31299
11
6.74409
21
-3.31299
0
LINE
8
BLACK
6
CONTINUOUS
10
6.74409
20
-3.31299
11
6.74409
21
-3.26575
0
LINE
8
BLACK
6
CONTINUOUS
10
6.74409
20
-3.26575
11
6.79921
21
-3.26575
0
LINE
8
BLACK
6
CONTINUOUS
10
6.79921
20
-3.26575
11
6.79921
21
-3.31299
0
LINE
8
BLACK
6
CONTINUOUS
10
6.7126
20
-3.31299
11
6.65748
21
-3.31299
0
LINE
8
BLACK
6
CONTINUOUS
10
6.65748
20
-3.31299
11
6.65748
21
-3.26575
0
LINE
8
BLACK
6
CONTINUOUS
10
6.65748
20
-3.26575
11
6.7126
21
-3.26575
0
LINE
8
BLACK
6
CONTINUOUS
10
6.7126
20
-3.26575
11
6.7126
21
-3.31299
0
LINE
8
BLACK
6
CONTINUOUS
10
6.62445
20
-3.26938
11
6.62733
21
-3.2713
0
LINE
8
BLACK
6
CONTINUOUS
10
6.62733
20
-3.2713
11
6.62925
21
-3.27417
0
LINE
8
BLACK
6
CONTINUOUS
10
6.62925
20
-3.27417
11
6.62992
21
-3.27756
0
LINE
8
BLACK
6
CONTINUOUS
10
6.62992
20
-3.27756
11
6.62992
21
-3.29724
0
LINE
8
BLACK
6
CONTINUOUS
10
6.62992
20
-3.29724
11
6.62925
21
-3.30063
0
LINE
8
BLACK
6
CONTINUOUS
10
6.62925
20
-3.30063
11
6.62733
21
-3.30351
0
LINE
8
BLACK
6
CONTINUOUS
10
6.62733
20
-3.30351
11
6.62445
21
-3.30543
0
LINE
8
BLACK
6
CONTINUOUS
10
6.62445
20
-3.30543
11
6.62106
21
-3.3061
0
LINE
8
BLACK
6
CONTINUOUS
10
6.62106
20
-3.3061
11
6.60335
21
-3.3061
0
LINE
8
BLACK
6
CONTINUOUS
10
6.60335
20
-3.3061
11
6.59996
21
-3.30543
0
LINE
8
BLACK
6
CONTINUOUS
10
6.59996
20
-3.30543
11
6.59708
21
-3.30351
0
LINE
8
BLACK
6
CONTINUOUS
10
6.59708
20
-3.30351
11
6.59516
21
-3.30063
0
LINE
8
BLACK
6
CONTINUOUS
10
6.59516
20
-3.30063
11
6.59449
21
-3.29724
0
LINE
8
BLACK
6
CONTINUOUS
10
6.59449
20
-3.29724
11
6.59449
21
-3.27756
0
LINE
8
BLACK
6
CONTINUOUS
10
6.59449
20
-3.27756
11
6.59516
21
-3.27417
0
LINE
8
BLACK
6
CONTINUOUS
10
6.59516
20
-3.27417
11
6.59708
21
-3.2713
0
LINE
8
BLACK
6
CONTINUOUS
10
6.59708
20
-3.2713
11
6.59996
21
-3.26938
0
LINE
8
BLACK
6
CONTINUOUS
10
6.59996
20
-3.26938
11
6.60335
21
-3.2687
0
LINE
8
BLACK
6
CONTINUOUS
10
6.60335
20
-3.2687
11
6.62106
21
-3.2687
0
LINE
8
BLACK
6
CONTINUOUS
10
6.62106
20
-3.2687
11
6.62445
21
-3.26938
0
LINE
8
BLACK
6
CONTINUOUS
10
6.56343
20
-3.26938
11
6.5663
21
-3.2713
0
LINE
8
BLACK
6
CONTINUOUS
10
6.5663
20
-3.2713
11
6.56822
21
-3.27417
0
LINE
8
BLACK
6
CONTINUOUS
10
6.56822
20
-3.27417
11
6.5689
21
-3.27756
0
LINE
8
BLACK
6
CONTINUOUS
10
6.5689
20
-3.27756
11
6.5689
21
-3.29724
0
LINE
8
BLACK
6
CONTINUOUS
10
6.5689
20
-3.29724
11
6.56822
21
-3.30063
0
LINE
8
BLACK
6
CONTINUOUS
10
6.56822
20
-3.30063
11
6.5663
21
-3.30351
0
LINE
8
BLACK
6
CONTINUOUS
10
6.5663
20
-3.30351
11
6.56343
21
-3.30543
0
LINE
8
BLACK
6
CONTINUOUS
10
6.56343
20
-3.30543
11
6.56004
21
-3.3061
0
LINE
8
BLACK
6
CONTINUOUS
10
6.56004
20
-3.3061
11
6.54232
21
-3.3061
0
LINE
8
BLACK
6
CONTINUOUS
10
6.54232
20
-3.3061
11
6.53893
21
-3.30543
0
LINE
8
BLACK
6
CONTINUOUS
10
6.53893
20
-3.30543
11
6.53606
21
-3.30351
0
LINE
8
BLACK
6
CONTINUOUS
10
6.53606
20
-3.30351
11
6.53414
21
-3.30063
0
LINE
8
BLACK
6
CONTINUOUS
10
6.53414
20
-3.30063
11
6.53346
21
-3.29724
0
LINE
8
BLACK
6
CONTINUOUS
10
6.53346
20
-3.29724
11
6.53346
21
-3.27756
0
LINE
8
BLACK
6
CONTINUOUS
10
6.53346
20
-3.27756
11
6.53414
21
-3.27417
0
LINE
8
BLACK
6
CONTINUOUS
10
6.53414
20
-3.27417
11
6.53606
21
-3.2713
0
LINE
8
BLACK
6
CONTINUOUS
10
6.53606
20
-3.2713
11
6.53893
21
-3.26938
0
LINE
8
BLACK
6
CONTINUOUS
10
6.53893
20
-3.26938
11
6.54232
21
-3.2687
0
LINE
8
BLACK
6
CONTINUOUS
10
6.54232
20
-3.2687
11
6.56004
21
-3.2687
0
LINE
8
BLACK
6
CONTINUOUS
10
6.56004
20
-3.2687
11
6.56343
21
-3.26938
0
LINE
8
BLACK
6
CONTINUOUS
10
6.22441
20
-3.27756
11
6.18504
21
-3.27756
0
LINE
8
BLACK
6
CONTINUOUS
10
6.18504
20
-3.27756
11
6.18504
21
-3.25
0
LINE
8
BLACK
6
CONTINUOUS
10
6.18504
20
-3.25
11
6.22441
21
-3.25
0
LINE
8
BLACK
6
CONTINUOUS
10
6.22441
20
-3.25
11
6.22441
21
-3.27756
0
LINE
8
BLACK
6
CONTINUOUS
10
5.98819
20
-3.27756
11
5.94882
21
-3.27756
0
LINE
8
BLACK
6
CONTINUOUS
10
5.94882
20
-3.27756
11
5.94882
21
-3.25
0
LINE
8
BLACK
6
CONTINUOUS
10
5.94882
20
-3.25
11
5.98819
21
-3.25
0
LINE
8
BLACK
6
CONTINUOUS
10
5.98819
20
-3.25
11
5.98819
21
-3.27756
0
LINE
8
BLACK
6
CONTINUOUS
10
6.79921
20
-3.24606
11
6.74409
21
-3.24606
0
LINE
8
BLACK
6
CONTINUOUS
10
6.74409
20
-3.24606
11
6.74409
21
-3.19882
0
LINE
8
BLACK
6
CONTINUOUS
10
6.74409
20
-3.19882
11
6.79921
21
-3.19882
0
LINE
8
BLACK
6
CONTINUOUS
10
6.79921
20
-3.19882
11
6.79921
21
-3.24606
0
LINE
8
BLACK
6
CONTINUOUS
10
6.7126
20
-3.24606
11
6.65748
21
-3.24606
0
LINE
8
BLACK
6
CONTINUOUS
10
6.65748
20
-3.24606
11
6.65748
21
-3.19882
0
LINE
8
BLACK
6
CONTINUOUS
10
6.65748
20
-3.19882
11
6.7126
21
-3.19882
0
LINE
8
BLACK
6
CONTINUOUS
10
6.7126
20
-3.19882
11
6.7126
21
-3.24606
0
LINE
8
BLACK
6
CONTINUOUS
10
6.91776
20
-3.20245
11
6.92063
21
-3.20437
0
LINE
8
BLACK
6
CONTINUOUS
10
6.92063
20
-3.20437
11
6.92255
21
-3.20724
0
LINE
8
BLACK
6
CONTINUOUS
10
6.92255
20
-3.20724
11
6.92323
21
-3.21063
0
LINE
8
BLACK
6
CONTINUOUS
10
6.92323
20
-3.21063
11
6.92323
21
-3.23031
0
LINE
8
BLACK
6
CONTINUOUS
10
6.92323
20
-3.23031
11
6.92255
21
-3.2337
0
LINE
8
BLACK
6
CONTINUOUS
10
6.92255
20
-3.2337
11
6.92063
21
-3.23658
0
LINE
8
BLACK
6
CONTINUOUS
10
6.92063
20
-3.23658
11
6.91776
21
-3.2385
0
LINE
8
BLACK
6
CONTINUOUS
10
6.91776
20
-3.2385
11
6.91437
21
-3.23917
0
LINE
8
BLACK
6
CONTINUOUS
10
6.91437
20
-3.23917
11
6.89665
21
-3.23917
0
LINE
8
BLACK
6
CONTINUOUS
10
6.89665
20
-3.23917
11
6.89326
21
-3.2385
0
LINE
8
BLACK
6
CONTINUOUS
10
6.89326
20
-3.2385
11
6.89039
21
-3.23658
0
LINE
8
BLACK
6
CONTINUOUS
10
6.89039
20
-3.23658
11
6.88847
21
-3.2337
0
LINE
8
BLACK
6
CONTINUOUS
10
6.88847
20
-3.2337
11
6.8878
21
-3.23031
0
LINE
8
BLACK
6
CONTINUOUS
10
6.8878
20
-3.23031
11
6.8878
21
-3.21063
0
LINE
8
BLACK
6
CONTINUOUS
10
6.8878
20
-3.21063
11
6.88847
21
-3.20724
0
LINE
8
BLACK
6
CONTINUOUS
10
6.88847
20
-3.20724
11
6.89039
21
-3.20437
0
LINE
8
BLACK
6
CONTINUOUS
10
6.89039
20
-3.20437
11
6.89326
21
-3.20245
0
LINE
8
BLACK
6
CONTINUOUS
10
6.89326
20
-3.20245
11
6.89665
21
-3.20177
0
LINE
8
BLACK
6
CONTINUOUS
10
6.89665
20
-3.20177
11
6.91437
21
-3.20177
0
LINE
8
BLACK
6
CONTINUOUS
10
6.91437
20
-3.20177
11
6.91776
21
-3.20245
0
LINE
8
BLACK
6
CONTINUOUS
10
6.85674
20
-3.20245
11
6.85961
21
-3.20437
0
LINE
8
BLACK
6
CONTINUOUS
10
6.85961
20
-3.20437
11
6.86153
21
-3.20724
0
LINE
8
BLACK
6
CONTINUOUS
10
6.86153
20
-3.20724
11
6.8622
21
-3.21063
0
LINE
8
BLACK
6
CONTINUOUS
10
6.8622
20
-3.21063
11
6.8622
21
-3.23031
0
LINE
8
BLACK
6
CONTINUOUS
10
6.8622
20
-3.23031
11
6.86153
21
-3.2337
0
LINE
8
BLACK
6
CONTINUOUS
10
6.86153
20
-3.2337
11
6.85961
21
-3.23658
0
LINE
8
BLACK
6
CONTINUOUS
10
6.85961
20
-3.23658
11
6.85674
21
-3.2385
0
LINE
8
BLACK
6
CONTINUOUS
10
6.85674
20
-3.2385
11
6.85335
21
-3.23917
0
LINE
8
BLACK
6
CONTINUOUS
10
6.85335
20
-3.23917
11
6.83563
21
-3.23917
0
LINE
8
BLACK
6
CONTINUOUS
10
6.83563
20
-3.23917
11
6.83224
21
-3.2385
0
LINE
8
BLACK
6
CONTINUOUS
10
6.83224
20
-3.2385
11
6.82937
21
-3.23658
0
LINE
8
BLACK
6
CONTINUOUS
10
6.82937
20
-3.23658
11
6.82745
21
-3.2337
0
LINE
8
BLACK
6
CONTINUOUS
10
6.82745
20
-3.2337
11
6.82677
21
-3.23031
0
LINE
8
BLACK
6
CONTINUOUS
10
6.82677
20
-3.23031
11
6.82677
21
-3.21063
0
LINE
8
BLACK
6
CONTINUOUS
10
6.82677
20
-3.21063
11
6.82745
21
-3.20724
0
LINE
8
BLACK
6
CONTINUOUS
10
6.82745
20
-3.20724
11
6.82937
21
-3.20437
0
LINE
8
BLACK
6
CONTINUOUS
10
6.82937
20
-3.20437
11
6.83224
21
-3.20245
0
LINE
8
BLACK
6
CONTINUOUS
10
6.83224
20
-3.20245
11
6.83563
21
-3.20177
0
LINE
8
BLACK
6
CONTINUOUS
10
6.83563
20
-3.20177
11
6.85335
21
-3.20177
0
LINE
8
BLACK
6
CONTINUOUS
10
6.85335
20
-3.20177
11
6.85674
21
-3.20245
0
LINE
8
BLACK
6
CONTINUOUS
10
6.22441
20
-3.13189
11
6.18504
21
-3.13189
0
LINE
8
BLACK
6
CONTINUOUS
10
6.18504
20
-3.13189
11
6.18504
21
-3.10433
0
LINE
8
BLACK
6
CONTINUOUS
10
6.18504
20
-3.10433
11
6.22441
21
-3.10433
0
LINE
8
BLACK
6
CONTINUOUS
10
6.22441
20
-3.10433
11
6.22441
21
-3.13189
0
LINE
8
BLACK
6
CONTINUOUS
10
5.98819
20
-3.13189
11
5.94882
21
-3.13189
0
LINE
8
BLACK
6
CONTINUOUS
10
5.94882
20
-3.13189
11
5.94882
21
-3.10433
0
LINE
8
BLACK
6
CONTINUOUS
10
5.94882
20
-3.10433
11
5.98819
21
-3.10433
0
LINE
8
BLACK
6
CONTINUOUS
10
5.98819
20
-3.10433
11
5.98819
21
-3.13189
0
LINE
8
BLACK
6
CONTINUOUS
10
6.27959
20
-3.09902
11
6.28214
21
-3.10073
0
LINE
8
BLACK
6
CONTINUOUS
10
6.28214
20
-3.10073
11
6.28385
21
-3.10329
0
LINE
8
BLACK
6
CONTINUOUS
10
6.28385
20
-3.10329
11
6.28445
21
-3.1063
0
LINE
8
BLACK
6
CONTINUOUS
10
6.28445
20
-3.1063
11
6.28445
21
-3.12205
0
LINE
8
BLACK
6
CONTINUOUS
10
6.28445
20
-3.12205
11
6.28385
21
-3.12506
0
LINE
8
BLACK
6
CONTINUOUS
10
6.28385
20
-3.12506
11
6.28214
21
-3.12762
0
LINE
8
BLACK
6
CONTINUOUS
10
6.28214
20
-3.12762
11
6.27959
21
-3.12932
0
LINE
8
BLACK
6
CONTINUOUS
10
6.27959
20
-3.12932
11
6.27657
21
-3.12992
0
LINE
8
BLACK
6
CONTINUOUS
10
6.27657
20
-3.12992
11
6.25492
21
-3.12992
0
LINE
8
BLACK
6
CONTINUOUS
10
6.25492
20
-3.12992
11
6.25191
21
-3.12932
0
LINE
8
BLACK
6
CONTINUOUS
10
6.25191
20
-3.12932
11
6.24935
21
-3.12762
0
LINE
8
BLACK
6
CONTINUOUS
10
6.24935
20
-3.12762
11
6.24765
21
-3.12506
0
LINE
8
BLACK
6
CONTINUOUS
10
6.24765
20
-3.12506
11
6.24705
21
-3.12205
0
LINE
8
BLACK
6
CONTINUOUS
10
6.24705
20
-3.12205
11
6.24705
21
-3.1063
0
LINE
8
BLACK
6
CONTINUOUS
10
6.24705
20
-3.1063
11
6.24765
21
-3.10329
0
LINE
8
BLACK
6
CONTINUOUS
10
6.24765
20
-3.10329
11
6.24935
21
-3.10073
0
LINE
8
BLACK
6
CONTINUOUS
10
6.24935
20
-3.10073
11
6.25191
21
-3.09902
0
LINE
8
BLACK
6
CONTINUOUS
10
6.25191
20
-3.09902
11
6.25492
21
-3.09843
0
LINE
8
BLACK
6
CONTINUOUS
10
6.25492
20
-3.09843
11
6.27657
21
-3.09843
0
LINE
8
BLACK
6
CONTINUOUS
10
6.27657
20
-3.09843
11
6.27959
21
-3.09902
0
LINE
8
BLACK
6
CONTINUOUS
10
6.27959
20
-3.03406
11
6.28214
21
-3.03577
0
LINE
8
BLACK
6
CONTINUOUS
10
6.28214
20
-3.03577
11
6.28385
21
-3.03833
0
LINE
8
BLACK
6
CONTINUOUS
10
6.28385
20
-3.03833
11
6.28445
21
-3.04134
0
LINE
8
BLACK
6
CONTINUOUS
10
6.28445
20
-3.04134
11
6.28445
21
-3.05709
0
LINE
8
BLACK
6
CONTINUOUS
10
6.28445
20
-3.05709
11
6.28385
21
-3.0601
0
LINE
8
BLACK
6
CONTINUOUS
10
6.28385
20
-3.0601
11
6.28214
21
-3.06265
0
LINE
8
BLACK
6
CONTINUOUS
10
6.28214
20
-3.06265
11
6.27959
21
-3.06436
0
LINE
8
BLACK
6
CONTINUOUS
10
6.27959
20
-3.06436
11
6.27657
21
-3.06496
0
LINE
8
BLACK
6
CONTINUOUS
10
6.27657
20
-3.06496
11
6.25492
21
-3.06496
0
LINE
8
BLACK
6
CONTINUOUS
10
6.25492
20
-3.06496
11
6.25191
21
-3.06436
0
LINE
8
BLACK
6
CONTINUOUS
10
6.25191
20
-3.06436
11
6.24935
21
-3.06265
0
LINE
8
BLACK
6
CONTINUOUS
10
6.24935
20
-3.06265
11
6.24765
21
-3.0601
0
LINE
8
BLACK
6
CONTINUOUS
10
6.24765
20
-3.0601
11
6.24705
21
-3.05709
0
LINE
8
BLACK
6
CONTINUOUS
10
6.24705
20
-3.05709
11
6.24705
21
-3.04134
0
LINE
8
BLACK
6
CONTINUOUS
10
6.24705
20
-3.04134
11
6.24765
21
-3.03833
0
LINE
8
BLACK
6
CONTINUOUS
10
6.24765
20
-3.03833
11
6.24935
21
-3.03577
0
LINE
8
BLACK
6
CONTINUOUS
10
6.24935
20
-3.03577
11
6.25191
21
-3.03406
0
LINE
8
BLACK
6
CONTINUOUS
10
6.25191
20
-3.03406
11
6.25492
21
-3.03346
0
LINE
8
BLACK
6
CONTINUOUS
10
6.25492
20
-3.03346
11
6.27657
21
-3.03346
0
LINE
8
BLACK
6
CONTINUOUS
10
6.27657
20
-3.03346
11
6.27959
21
-3.03406
0
LINE
8
BLACK
6
CONTINUOUS
10
5.54473
20
-3.02331
11
5.5476
21
-3.02523
0
LINE
8
BLACK
6
CONTINUOUS
10
5.5476
20
-3.02523
11
5.54952
21
-3.02811
0
LINE
8
BLACK
6
CONTINUOUS
10
5.54952
20
-3.02811
11
5.5502
21
-3.0315
0
LINE
8
BLACK
6
CONTINUOUS
10
5.5502
20
-3.0315
11
5.5502
21
-3.04921
0
LINE
8
BLACK
6
CONTINUOUS
10
5.5502
20
-3.04921
11
5.54952
21
-3.0526
0
LINE
8
BLACK
6
CONTINUOUS
10
5.54952
20
-3.0526
11
5.5476
21
-3.05548
0
LINE
8
BLACK
6
CONTINUOUS
10
5.5476
20
-3.05548
11
5.54473
21
-3.0574
0
LINE
8
BLACK
6
CONTINUOUS
10
5.54473
20
-3.0574
11
5.54134
21
-3.05807
0
LINE
8
BLACK
6
CONTINUOUS
10
5.54134
20
-3.05807
11
5.52165
21
-3.05807
0
LINE
8
BLACK
6
CONTINUOUS
10
5.52165
20
-3.05807
11
5.51826
21
-3.0574
0
LINE
8
BLACK
6
CONTINUOUS
10
5.51826
20
-3.0574
11
5.51539
21
-3.05548
0
LINE
8
BLACK
6
CONTINUOUS
10
5.51539
20
-3.05548
11
5.51347
21
-3.0526
0
LINE
8
BLACK
6
CONTINUOUS
10
5.51347
20
-3.0526
11
5.5128
21
-3.04921
0
LINE
8
BLACK
6
CONTINUOUS
10
5.5128
20
-3.04921
11
5.5128
21
-3.0315
0
LINE
8
BLACK
6
CONTINUOUS
10
5.5128
20
-3.0315
11
5.51347
21
-3.02811
0
LINE
8
BLACK
6
CONTINUOUS
10
5.51347
20
-3.02811
11
5.51539
21
-3.02523
0
LINE
8
BLACK
6
CONTINUOUS
10
5.51539
20
-3.02523
11
5.51826
21
-3.02331
0
LINE
8
BLACK
6
CONTINUOUS
10
5.51826
20
-3.02331
11
5.52165
21
-3.02264
0
LINE
8
BLACK
6
CONTINUOUS
10
5.52165
20
-3.02264
11
5.54134
21
-3.02264
0
LINE
8
BLACK
6
CONTINUOUS
10
5.54134
20
-3.02264
11
5.54473
21
-3.02331
0
LINE
8
BLACK
6
CONTINUOUS
10
6.64315
20
-2.98394
11
6.64603
21
-2.98586
0
LINE
8
BLACK
6
CONTINUOUS
10
6.64603
20
-2.98586
11
6.64795
21
-2.98874
0
LINE
8
BLACK
6
CONTINUOUS
10
6.64795
20
-2.98874
11
6.64862
21
-2.99213
0
LINE
8
BLACK
6
CONTINUOUS
10
6.64862
20
-2.99213
11
6.64862
21
-3.00984
0
LINE
8
BLACK
6
CONTINUOUS
10
6.64862
20
-3.00984
11
6.64795
21
-3.01323
0
LINE
8
BLACK
6
CONTINUOUS
10
6.64795
20
-3.01323
11
6.64603
21
-3.01611
0
LINE
8
BLACK
6
CONTINUOUS
10
6.64603
20
-3.01611
11
6.64315
21
-3.01803
0
LINE
8
BLACK
6
CONTINUOUS
10
6.64315
20
-3.01803
11
6.63976
21
-3.0187
0
LINE
8
BLACK
6
CONTINUOUS
10
6.63976
20
-3.0187
11
6.62008
21
-3.0187
0
LINE
8
BLACK
6
CONTINUOUS
10
6.62008
20
-3.0187
11
6.61669
21
-3.01803
0
LINE
8
BLACK
6
CONTINUOUS
10
6.61669
20
-3.01803
11
6.61381
21
-3.01611
0
LINE
8
BLACK
6
CONTINUOUS
10
6.61381
20
-3.01611
11
6.61189
21
-3.01323
0
LINE
8
BLACK
6
CONTINUOUS
10
6.61189
20
-3.01323
11
6.61122
21
-3.00984
0
LINE
8
BLACK
6
CONTINUOUS
10
6.61122
20
-3.00984
11
6.61122
21
-2.99213
0
LINE
8
BLACK
6
CONTINUOUS
10
6.61122
20
-2.99213
11
6.61189
21
-2.98874
0
LINE
8
BLACK
6
CONTINUOUS
10
6.61189
20
-2.98874
11
6.61381
21
-2.98586
0
LINE
8
BLACK
6
CONTINUOUS
10
6.61381
20
-2.98586
11
6.61669
21
-2.98394
0
LINE
8
BLACK
6
CONTINUOUS
10
6.61669
20
-2.98394
11
6.62008
21
-2.98327
0
LINE
8
BLACK
6
CONTINUOUS
10
6.62008
20
-2.98327
11
6.63976
21
-2.98327
0
LINE
8
BLACK
6
CONTINUOUS
10
6.63976
20
-2.98327
11
6.64315
21
-2.98394
0
LINE
8
BLACK
6
CONTINUOUS
10
5.54473
20
-2.96229
11
5.5476
21
-2.96421
0
LINE
8
BLACK
6
CONTINUOUS
10
5.5476
20
-2.96421
11
5.54952
21
-2.96708
0
LINE
8
BLACK
6
CONTINUOUS
10
5.54952
20
-2.96708
11
5.5502
21
-2.97047
0
LINE
8
BLACK
6
CONTINUOUS
10
5.5502
20
-2.97047
11
5.5502
21
-2.98819
0
LINE
8
BLACK
6
CONTINUOUS
10
5.5502
20
-2.98819
11
5.54952
21
-2.99158
0
LINE
8
BLACK
6
CONTINUOUS
10
5.54952
20
-2.99158
11
5.5476
21
-2.99445
0
LINE
8
BLACK
6
CONTINUOUS
10
5.5476
20
-2.99445
11
5.54473
21
-2.99637
0
LINE
8
BLACK
6
CONTINUOUS
10
5.54473
20
-2.99637
11
5.54134
21
-2.99705
0
LINE
8
BLACK
6
CONTINUOUS
10
5.54134
20
-2.99705
11
5.52165
21
-2.99705
0
LINE
8
BLACK
6
CONTINUOUS
10
5.52165
20
-2.99705
11
5.51826
21
-2.99637
0
LINE
8
BLACK
6
CONTINUOUS
10
5.51826
20
-2.99637
11
5.51539
21
-2.99445
0
LINE
8
BLACK
6
CONTINUOUS
10
5.51539
20
-2.99445
11
5.51347
21
-2.99158
0
LINE
8
BLACK
6
CONTINUOUS
10
5.51347
20
-2.99158
11
5.5128
21
-2.98819
0
LINE
8
BLACK
6
CONTINUOUS
10
5.5128
20
-2.98819
11
5.5128
21
-2.97047
0
LINE
8
BLACK
6
CONTINUOUS
10
5.5128
20
-2.97047
11
5.51347
21
-2.96708
0
LINE
8
BLACK
6
CONTINUOUS
10
5.51347
20
-2.96708
11
5.51539
21
-2.96421
0
LINE
8
BLACK
6
CONTINUOUS
10
5.51539
20
-2.96421
11
5.51826
21
-2.96229
0
LINE
8
BLACK
6
CONTINUOUS
10
5.51826
20
-2.96229
11
5.52165
21
-2.96161
0
LINE
8
BLACK
6
CONTINUOUS
10
5.52165
20
-2.96161
11
5.54134
21
-2.96161
0
LINE
8
BLACK
6
CONTINUOUS
10
5.54134
20
-2.96161
11
5.54473
21
-2.96229
0
LINE
8
BLACK
6
CONTINUOUS
10
5.84296
20
-2.95245
11
5.84583
21
-2.95437
0
LINE
8
BLACK
6
CONTINUOUS
10
5.84583
20
-2.95437
11
5.84775
21
-2.95724
0
LINE
8
BLACK
6
CONTINUOUS
10
5.84775
20
-2.95724
11
5.84843
21
-2.96063
0
LINE
8
BLACK
6
CONTINUOUS
10
5.84843
20
-2.96063
11
5.84843
21
-2.98031
0
LINE
8
BLACK
6
CONTINUOUS
10
5.84843
20
-2.98031
11
5.84775
21
-2.9837
0
LINE
8
BLACK
6
CONTINUOUS
10
5.84775
20
-2.9837
11
5.84583
21
-2.98658
0
LINE
8
BLACK
6
CONTINUOUS
10
5.84583
20
-2.98658
11
5.84296
21
-2.9885
0
LINE
8
BLACK
6
CONTINUOUS
10
5.84296
20
-2.9885
11
5.83957
21
-2.98917
0
LINE
8
BLACK
6
CONTINUOUS
10
5.83957
20
-2.98917
11
5.82185
21
-2.98917
0
LINE
8
BLACK
6
CONTINUOUS
10
5.82185
20
-2.98917
11
5.81846
21
-2.9885
0
LINE
8
BLACK
6
CONTINUOUS
10
5.81846
20
-2.9885
11
5.81559
21
-2.98658
0
LINE
8
BLACK
6
CONTINUOUS
10
5.81559
20
-2.98658
11
5.81367
21
-2.9837
0
LINE
8
BLACK
6
CONTINUOUS
10
5.81367
20
-2.9837
11
5.81299
21
-2.98031
0
LINE
8
BLACK
6
CONTINUOUS
10
5.81299
20
-2.98031
11
5.81299
21
-2.96063
0
LINE
8
BLACK
6
CONTINUOUS
10
5.81299
20
-2.96063
11
5.81367
21
-2.95724
0
LINE
8
BLACK
6
CONTINUOUS
10
5.81367
20
-2.95724
11
5.81559
21
-2.95437
0
LINE
8
BLACK
6
CONTINUOUS
10
5.81559
20
-2.95437
11
5.81846
21
-2.95245
0
LINE
8
BLACK
6
CONTINUOUS
10
5.81846
20
-2.95245
11
5.82185
21
-2.95177
0
LINE
8
BLACK
6
CONTINUOUS
10
5.82185
20
-2.95177
11
5.83957
21
-2.95177
0
LINE
8
BLACK
6
CONTINUOUS
10
5.83957
20
-2.95177
11
5.84296
21
-2.95245
0
LINE
8
BLACK
6
CONTINUOUS
10
5.78193
20
-2.95245
11
5.78481
21
-2.95437
0
LINE
8
BLACK
6
CONTINUOUS
10
5.78481
20
-2.95437
11
5.78673
21
-2.95724
0
LINE
8
BLACK
6
CONTINUOUS
10
5.78673
20
-2.95724
11
5.7874
21
-2.96063
0
LINE
8
BLACK
6
CONTINUOUS
10
5.7874
20
-2.96063
11
5.7874
21
-2.98031
0
LINE
8
BLACK
6
CONTINUOUS
10
5.7874
20
-2.98031
11
5.78673
21
-2.9837
0
LINE
8
BLACK
6
CONTINUOUS
10
5.78673
20
-2.9837
11
5.78481
21
-2.98658
0
LINE
8
BLACK
6
CONTINUOUS
10
5.78481
20
-2.98658
11
5.78193
21
-2.9885
0
LINE
8
BLACK
6
CONTINUOUS
10
5.78193
20
-2.9885
11
5.77854
21
-2.98917
0
LINE
8
BLACK
6
CONTINUOUS
10
5.77854
20
-2.98917
11
5.76083
21
-2.98917
0
LINE
8
BLACK
6
CONTINUOUS
10
5.76083
20
-2.98917
11
5.75744
21
-2.9885
0
LINE
8
BLACK
6
CONTINUOUS
10
5.75744
20
-2.9885
11
5.75456
21
-2.98658
0
LINE
8
BLACK
6
CONTINUOUS
10
5.75456
20
-2.98658
11
5.75264
21
-2.9837
0
LINE
8
BLACK
6
CONTINUOUS
10
5.75264
20
-2.9837
11
5.75197
21
-2.98031
0
LINE
8
BLACK
6
CONTINUOUS
10
5.75197
20
-2.98031
11
5.75197
21
-2.96063
0
LINE
8
BLACK
6
CONTINUOUS
10
5.75197
20
-2.96063
11
5.75264
21
-2.95724
0
LINE
8
BLACK
6
CONTINUOUS
10
5.75264
20
-2.95724
11
5.75456
21
-2.95437
0
LINE
8
BLACK
6
CONTINUOUS
10
5.75456
20
-2.95437
11
5.75744
21
-2.95245
0
LINE
8
BLACK
6
CONTINUOUS
10
5.75744
20
-2.95245
11
5.76083
21
-2.95177
0
LINE
8
BLACK
6
CONTINUOUS
10
5.76083
20
-2.95177
11
5.77854
21
-2.95177
0
LINE
8
BLACK
6
CONTINUOUS
10
5.77854
20
-2.95177
11
5.78193
21
-2.95245
0
LINE
8
BLACK
6
CONTINUOUS
10
5.71535
20
-2.96108
11
5.71727
21
-2.96236
0
LINE
8
BLACK
6
CONTINUOUS
10
5.71727
20
-2.96236
11
5.71855
21
-2.96428
0
LINE
8
BLACK
6
CONTINUOUS
10
5.71855
20
-2.96428
11
5.719
21
-2.96654
0
LINE
8
BLACK
6
CONTINUOUS
10
5.719
20
-2.96654
11
5.719
21
-2.97835
0
LINE
8
BLACK
6
CONTINUOUS
10
5.719
20
-2.97835
11
5.71855
21
-2.98061
0
LINE
8
BLACK
6
CONTINUOUS
10
5.71855
20
-2.98061
11
5.71727
21
-2.98252
0
LINE
8
BLACK
6
CONTINUOUS
10
5.71727
20
-2.98252
11
5.71535
21
-2.9838
0
LINE
8
BLACK
6
CONTINUOUS
10
5.71535
20
-2.9838
11
5.71309
21
-2.98425
0
LINE
8
BLACK
6
CONTINUOUS
10
5.71309
20
-2.98425
11
5.67274
21
-2.98425
0
LINE
8
BLACK
6
CONTINUOUS
10
5.67274
20
-2.98425
11
5.67048
21
-2.9838
0
LINE
8
BLACK
6
CONTINUOUS
10
5.67048
20
-2.9838
11
5.66856
21
-2.98252
0
LINE
8
BLACK
6
CONTINUOUS
10
5.66856
20
-2.98252
11
5.66728
21
-2.98061
0
LINE
8
BLACK
6
CONTINUOUS
10
5.66728
20
-2.98061
11
5.66683
21
-2.97835
0
LINE
8
BLACK
6
CONTINUOUS
10
5.66683
20
-2.97835
11
5.66683
21
-2.96654
0
LINE
8
BLACK
6
CONTINUOUS
10
5.66683
20
-2.96654
11
5.66728
21
-2.96428
0
LINE
8
BLACK
6
CONTINUOUS
10
5.66728
20
-2.96428
11
5.66856
21
-2.96236
0
LINE
8
BLACK
6
CONTINUOUS
10
5.66856
20
-2.96236
11
5.67048
21
-2.96108
0
LINE
8
BLACK
6
CONTINUOUS
10
5.67048
20
-2.96108
11
5.67274
21
-2.96063
0
LINE
8
BLACK
6
CONTINUOUS
10
5.67274
20
-2.96063
11
5.71309
21
-2.96063
0
LINE
8
BLACK
6
CONTINUOUS
10
5.71309
20
-2.96063
11
5.71535
21
-2.96108
0
LINE
8
BLACK
6
CONTINUOUS
10
5.62578
20
-2.96108
11
5.6277
21
-2.96236
0
LINE
8
BLACK
6
CONTINUOUS
10
5.6277
20
-2.96236
11
5.62898
21
-2.96428
0
LINE
8
BLACK
6
CONTINUOUS
10
5.62898
20
-2.96428
11
5.62943
21
-2.96654
0
LINE
8
BLACK
6
CONTINUOUS
10
5.62943
20
-2.96654
11
5.62943
21
-2.97835
0
LINE
8
BLACK
6
CONTINUOUS
10
5.62943
20
-2.97835
11
5.62898
21
-2.98061
0
LINE
8
BLACK
6
CONTINUOUS
10
5.62898
20
-2.98061
11
5.6277
21
-2.98252
0
LINE
8
BLACK
6
CONTINUOUS
10
5.6277
20
-2.98252
11
5.62578
21
-2.9838
0
LINE
8
BLACK
6
CONTINUOUS
10
5.62578
20
-2.9838
11
5.62352
21
-2.98425
0
LINE
8
BLACK
6
CONTINUOUS
10
5.62352
20
-2.98425
11
5.58317
21
-2.98425
0
LINE
8
BLACK
6
CONTINUOUS
10
5.58317
20
-2.98425
11
5.58091
21
-2.9838
0
LINE
8
BLACK
6
CONTINUOUS
10
5.58091
20
-2.9838
11
5.57899
21
-2.98252
0
LINE
8
BLACK
6
CONTINUOUS
10
5.57899
20
-2.98252
11
5.57771
21
-2.98061
0
LINE
8
BLACK
6
CONTINUOUS
10
5.57771
20
-2.98061
11
5.57726
21
-2.97835
0
LINE
8
BLACK
6
CONTINUOUS
10
5.57726
20
-2.97835
11
5.57726
21
-2.96654
0
LINE
8
BLACK
6
CONTINUOUS
10
5.57726
20
-2.96654
11
5.57771
21
-2.96428
0
LINE
8
BLACK
6
CONTINUOUS
10
5.57771
20
-2.96428
11
5.57899
21
-2.96236
0
LINE
8
BLACK
6
CONTINUOUS
10
5.57899
20
-2.96236
11
5.58091
21
-2.96108
0
LINE
8
BLACK
6
CONTINUOUS
10
5.58091
20
-2.96108
11
5.58317
21
-2.96063
0
LINE
8
BLACK
6
CONTINUOUS
10
5.58317
20
-2.96063
11
5.62352
21
-2.96063
0
LINE
8
BLACK
6
CONTINUOUS
10
5.62352
20
-2.96063
11
5.62578
21
-2.96108
0
LINE
8
BLACK
6
CONTINUOUS
10
6.64315
20
-2.92292
11
6.64603
21
-2.92484
0
LINE
8
BLACK
6
CONTINUOUS
10
6.64603
20
-2.92484
11
6.64795
21
-2.92771
0
LINE
8
BLACK
6
CONTINUOUS
10
6.64795
20
-2.92771
11
6.64862
21
-2.9311
0
LINE
8
BLACK
6
CONTINUOUS
10
6.64862
20
-2.9311
11
6.64862
21
-2.94882
0
LINE
8
BLACK
6
CONTINUOUS
10
6.64862
20
-2.94882
11
6.64795
21
-2.95221
0
LINE
8
BLACK
6
CONTINUOUS
10
6.64795
20
-2.95221
11
6.64603
21
-2.95508
0
LINE
8
BLACK
6
CONTINUOUS
10
6.64603
20
-2.95508
11
6.64315
21
-2.957
0
LINE
8
BLACK
6
CONTINUOUS
10
6.64315
20
-2.957
11
6.63976
21
-2.95768
0
LINE
8
BLACK
6
CONTINUOUS
10
6.63976
20
-2.95768
11
6.62008
21
-2.95768
0
LINE
8
BLACK
6
CONTINUOUS
10
6.62008
20
-2.95768
11
6.61669
21
-2.957
0
LINE
8
BLACK
6
CONTINUOUS
10
6.61669
20
-2.957
11
6.61381
21
-2.95508
0
LINE
8
BLACK
6
CONTINUOUS
10
6.61381
20
-2.95508
11
6.61189
21
-2.95221
0
LINE
8
BLACK
6
CONTINUOUS
10
6.61189
20
-2.95221
11
6.61122
21
-2.94882
0
LINE
8
BLACK
6
CONTINUOUS
10
6.61122
20
-2.94882
11
6.61122
21
-2.9311
0
LINE
8
BLACK
6
CONTINUOUS
10
6.61122
20
-2.9311
11
6.61189
21
-2.92771
0
LINE
8
BLACK
6
CONTINUOUS
10
6.61189
20
-2.92771
11
6.61381
21
-2.92484
0
LINE
8
BLACK
6
CONTINUOUS
10
6.61381
20
-2.92484
11
6.61669
21
-2.92292
0
LINE
8
BLACK
6
CONTINUOUS
10
6.61669
20
-2.92292
11
6.62008
21
-2.92224
0
LINE
8
BLACK
6
CONTINUOUS
10
6.62008
20
-2.92224
11
6.63976
21
-2.92224
0
LINE
8
BLACK
6
CONTINUOUS
10
6.63976
20
-2.92224
11
6.64315
21
-2.92292
0
LINE
8
BLACK
6
CONTINUOUS
10
5.62578
20
-2.92368
11
5.6277
21
-2.92496
0
LINE
8
BLACK
6
CONTINUOUS
10
5.6277
20
-2.92496
11
5.62898
21
-2.92687
0
LINE
8
BLACK
6
CONTINUOUS
10
5.62898
20
-2.92687
11
5.62943
21
-2.92913
0
LINE
8
BLACK
6
CONTINUOUS
10
5.62943
20
-2.92913
11
5.62943
21
-2.94094
0
LINE
8
BLACK
6
CONTINUOUS
10
5.62943
20
-2.94094
11
5.62898
21
-2.9432
0
LINE
8
BLACK
6
CONTINUOUS
10
5.62898
20
-2.9432
11
5.6277
21
-2.94512
0
LINE
8
BLACK
6
CONTINUOUS
10
5.6277
20
-2.94512
11
5.62578
21
-2.9464
0
LINE
8
BLACK
6
CONTINUOUS
10
5.62578
20
-2.9464
11
5.62352
21
-2.94685
0
LINE
8
BLACK
6
CONTINUOUS
10
5.62352
20
-2.94685
11
5.58317
21
-2.94685
0
LINE
8
BLACK
6
CONTINUOUS
10
5.58317
20
-2.94685
11
5.58091
21
-2.9464
0
LINE
8
BLACK
6
CONTINUOUS
10
5.58091
20
-2.9464
11
5.57899
21
-2.94512
0
LINE
8
BLACK
6
CONTINUOUS
10
5.57899
20
-2.94512
11
5.57771
21
-2.9432
0
LINE
8
BLACK
6
CONTINUOUS
10
5.57771
20
-2.9432
11
5.57726
21
-2.94094
0
LINE
8
BLACK
6
CONTINUOUS
10
5.57726
20
-2.94094
11
5.57726
21
-2.92913
0
LINE
8
BLACK
6
CONTINUOUS
10
5.57726
20
-2.92913
11
5.57771
21
-2.92687
0
LINE
8
BLACK
6
CONTINUOUS
10
5.57771
20
-2.92687
11
5.57899
21
-2.92496
0
LINE
8
BLACK
6
CONTINUOUS
10
5.57899
20
-2.92496
11
5.58091
21
-2.92368
0
LINE
8
BLACK
6
CONTINUOUS
10
5.58091
20
-2.92368
11
5.58317
21
-2.92323
0
LINE
8
BLACK
6
CONTINUOUS
10
5.58317
20
-2.92323
11
5.62352
21
-2.92323
0
LINE
8
BLACK
6
CONTINUOUS
10
5.62352
20
-2.92323
11
5.62578
21
-2.92368
0
LINE
8
BLACK
6
CONTINUOUS
10
5.84296
20
-2.87764
11
5.84583
21
-2.87956
0
LINE
8
BLACK
6
CONTINUOUS
10
5.84583
20
-2.87956
11
5.84775
21
-2.88244
0
LINE
8
BLACK
6
CONTINUOUS
10
5.84775
20
-2.88244
11
5.84843
21
-2.88583
0
LINE
8
BLACK
6
CONTINUOUS
10
5.84843
20
-2.88583
11
5.84843
21
-2.90551
0
LINE
8
BLACK
6
CONTINUOUS
10
5.84843
20
-2.90551
11
5.84775
21
-2.9089
0
LINE
8
BLACK
6
CONTINUOUS
10
5.84775
20
-2.9089
11
5.84583
21
-2.91178
0
LINE
8
BLACK
6
CONTINUOUS
10
5.84583
20
-2.91178
11
5.84296
21
-2.9137
0
LINE
8
BLACK
6
CONTINUOUS
10
5.84296
20
-2.9137
11
5.83957
21
-2.91437
0
LINE
8
BLACK
6
CONTINUOUS
10
5.83957
20
-2.91437
11
5.82185
21
-2.91437
0
LINE
8
BLACK
6
CONTINUOUS
10
5.82185
20
-2.91437
11
5.81846
21
-2.9137
0
LINE
8
BLACK
6
CONTINUOUS
10
5.81846
20
-2.9137
11
5.81559
21
-2.91178
0
LINE
8
BLACK
6
CONTINUOUS
10
5.81559
20
-2.91178
11
5.81367
21
-2.9089
0
LINE
8
BLACK
6
CONTINUOUS
10
5.81367
20
-2.9089
11
5.81299
21
-2.90551
0
LINE
8
BLACK
6
CONTINUOUS
10
5.81299
20
-2.90551
11
5.81299
21
-2.88583
0
LINE
8
BLACK
6
CONTINUOUS
10
5.81299
20
-2.88583
11
5.81367
21
-2.88244
0
LINE
8
BLACK
6
CONTINUOUS
10
5.81367
20
-2.88244
11
5.81559
21
-2.87956
0
LINE
8
BLACK
6
CONTINUOUS
10
5.81559
20
-2.87956
11
5.81846
21
-2.87764
0
LINE
8
BLACK
6
CONTINUOUS
10
5.81846
20
-2.87764
11
5.82185
21
-2.87697
0
LINE
8
BLACK
6
CONTINUOUS
10
5.82185
20
-2.87697
11
5.83957
21
-2.87697
0
LINE
8
BLACK
6
CONTINUOUS
10
5.83957
20
-2.87697
11
5.84296
21
-2.87764
0
LINE
8
BLACK
6
CONTINUOUS
10
5.78193
20
-2.87764
11
5.78481
21
-2.87956
0
LINE
8
BLACK
6
CONTINUOUS
10
5.78481
20
-2.87956
11
5.78673
21
-2.88244
0
LINE
8
BLACK
6
CONTINUOUS
10
5.78673
20
-2.88244
11
5.7874
21
-2.88583
0
LINE
8
BLACK
6
CONTINUOUS
10
5.7874
20
-2.88583
11
5.7874
21
-2.90551
0
LINE
8
BLACK
6
CONTINUOUS
10
5.7874
20
-2.90551
11
5.78673
21
-2.9089
0
LINE
8
BLACK
6
CONTINUOUS
10
5.78673
20
-2.9089
11
5.78481
21
-2.91178
0
LINE
8
BLACK
6
CONTINUOUS
10
5.78481
20
-2.91178
11
5.78193
21
-2.9137
0
LINE
8
BLACK
6
CONTINUOUS
10
5.78193
20
-2.9137
11
5.77854
21
-2.91437
0
LINE
8
BLACK
6
CONTINUOUS
10
5.77854
20
-2.91437
11
5.76083
21
-2.91437
0
LINE
8
BLACK
6
CONTINUOUS
10
5.76083
20
-2.91437
11
5.75744
21
-2.9137
0
LINE
8
BLACK
6
CONTINUOUS
10
5.75744
20
-2.9137
11
5.75456
21
-2.91178
0
LINE
8
BLACK
6
CONTINUOUS
10
5.75456
20
-2.91178
11
5.75264
21
-2.9089
0
LINE
8
BLACK
6
CONTINUOUS
10
5.75264
20
-2.9089
11
5.75197
21
-2.90551
0
LINE
8
BLACK
6
CONTINUOUS
10
5.75197
20
-2.90551
11
5.75197
21
-2.88583
0
LINE
8
BLACK
6
CONTINUOUS
10
5.75197
20
-2.88583
11
5.75264
21
-2.88244
0
LINE
8
BLACK
6
CONTINUOUS
10
5.75264
20
-2.88244
11
5.75456
21
-2.87956
0
LINE
8
BLACK
6
CONTINUOUS
10
5.75456
20
-2.87956
11
5.75744
21
-2.87764
0
LINE
8
BLACK
6
CONTINUOUS
10
5.75744
20
-2.87764
11
5.76083
21
-2.87697
0
LINE
8
BLACK
6
CONTINUOUS
10
5.76083
20
-2.87697
11
5.77854
21
-2.87697
0
LINE
8
BLACK
6
CONTINUOUS
10
5.77854
20
-2.87697
11
5.78193
21
-2.87764
0
LINE
8
BLACK
6
CONTINUOUS
10
5.71535
20
-2.88628
11
5.71727
21
-2.88756
0
LINE
8
BLACK
6
CONTINUOUS
10
5.71727
20
-2.88756
11
5.71855
21
-2.88947
0
LINE
8
BLACK
6
CONTINUOUS
10
5.71855
20
-2.88947
11
5.719
21
-2.89173
0
LINE
8
BLACK
6
CONTINUOUS
10
5.719
20
-2.89173
11
5.719
21
-2.90354
0
LINE
8
BLACK
6
CONTINUOUS
10
5.719
20
-2.90354
11
5.71855
21
-2.9058
0
LINE
8
BLACK
6
CONTINUOUS
10
5.71855
20
-2.9058
11
5.71727
21
-2.90772
0
LINE
8
BLACK
6
CONTINUOUS
10
5.71727
20
-2.90772
11
5.71535
21
-2.909
0
LINE
8
BLACK
6
CONTINUOUS
10
5.71535
20
-2.909
11
5.71309
21
-2.90945
0
LINE
8
BLACK
6
CONTINUOUS
10
5.71309
20
-2.90945
11
5.67274
21
-2.90945
0
LINE
8
BLACK
6
CONTINUOUS
10
5.67274
20
-2.90945
11
5.67048
21
-2.909
0
LINE
8
BLACK
6
CONTINUOUS
10
5.67048
20
-2.909
11
5.66856
21
-2.90772
0
LINE
8
BLACK
6
CONTINUOUS
10
5.66856
20
-2.90772
11
5.66728
21
-2.9058
0
LINE
8
BLACK
6
CONTINUOUS
10
5.66728
20
-2.9058
11
5.66683
21
-2.90354
0
LINE
8
BLACK
6
CONTINUOUS
10
5.66683
20
-2.90354
11
5.66683
21
-2.89173
0
LINE
8
BLACK
6
CONTINUOUS
10
5.66683
20
-2.89173
11
5.66728
21
-2.88947
0
LINE
8
BLACK
6
CONTINUOUS
10
5.66728
20
-2.88947
11
5.66856
21
-2.88756
0
LINE
8
BLACK
6
CONTINUOUS
10
5.66856
20
-2.88756
11
5.67048
21
-2.88628
0
LINE
8
BLACK
6
CONTINUOUS
10
5.67048
20
-2.88628
11
5.67274
21
-2.88583
0
LINE
8
BLACK
6
CONTINUOUS
10
5.67274
20
-2.88583
11
5.71309
21
-2.88583
0
LINE
8
BLACK
6
CONTINUOUS
10
5.71309
20
-2.88583
11
5.71535
21
-2.88628
0
LINE
8
BLACK
6
CONTINUOUS
10
5.62578
20
-2.88628
11
5.6277
21
-2.88756
0
LINE
8
BLACK
6
CONTINUOUS
10
5.6277
20
-2.88756
11
5.62898
21
-2.88947
0
LINE
8
BLACK
6
CONTINUOUS
10
5.62898
20
-2.88947
11
5.62943
21
-2.89173
0
LINE
8
BLACK
6
CONTINUOUS
10
5.62943
20
-2.89173
11
5.62943
21
-2.90354
0
LINE
8
BLACK
6
CONTINUOUS
10
5.62943
20
-2.90354
11
5.62898
21
-2.9058
0
LINE
8
BLACK
6
CONTINUOUS
10
5.62898
20
-2.9058
11
5.6277
21
-2.90772
0
LINE
8
BLACK
6
CONTINUOUS
10
5.6277
20
-2.90772
11
5.62578
21
-2.909
0
LINE
8
BLACK
6
CONTINUOUS
10
5.62578
20
-2.909
11
5.62352
21
-2.90945
0
LINE
8
BLACK
6
CONTINUOUS
10
5.62352
20
-2.90945
11
5.58317
21
-2.90945
0
LINE
8
BLACK
6
CONTINUOUS
10
5.58317
20
-2.90945
11
5.58091
21
-2.909
0
LINE
8
BLACK
6
CONTINUOUS
10
5.58091
20
-2.909
11
5.57899
21
-2.90772
0
LINE
8
BLACK
6
CONTINUOUS
10
5.57899
20
-2.90772
11
5.57771
21
-2.9058
0
LINE
8
BLACK
6
CONTINUOUS
10
5.57771
20
-2.9058
11
5.57726
21
-2.90354
0
LINE
8
BLACK
6
CONTINUOUS
10
5.57726
20
-2.90354
11
5.57726
21
-2.89173
0
LINE
8
BLACK
6
CONTINUOUS
10
5.57726
20
-2.89173
11
5.57771
21
-2.88947
0
LINE
8
BLACK
6
CONTINUOUS
10
5.57771
20
-2.88947
11
5.57899
21
-2.88756
0
LINE
8
BLACK
6
CONTINUOUS
10
5.57899
20
-2.88756
11
5.58091
21
-2.88628
0
LINE
8
BLACK
6
CONTINUOUS
10
5.58091
20
-2.88628
11
5.58317
21
-2.88583
0
LINE
8
BLACK
6
CONTINUOUS
10
5.58317
20
-2.88583
11
5.62352
21
-2.88583
0
LINE
8
BLACK
6
CONTINUOUS
10
5.62352
20
-2.88583
11
5.62578
21
-2.88628
0
LINE
8
BLACK
6
CONTINUOUS
10
6.89075
20
-2.8937
11
6.86909
21
-2.8937
0
LINE
8
BLACK
6
CONTINUOUS
10
6.86909
20
-2.8937
11
6.86909
21
-2.83465
0
LINE
8
BLACK
6
CONTINUOUS
10
6.86909
20
-2.83465
11
6.89075
21
-2.83465
0
LINE
8
BLACK
6
CONTINUOUS
10
6.89075
20
-2.83465
11
6.89075
21
-2.8937
0
LINE
8
BLACK
6
CONTINUOUS
10
6.85925
20
-2.8937
11
6.8376
21
-2.8937
0
LINE
8
BLACK
6
CONTINUOUS
10
6.8376
20
-2.8937
11
6.8376
21
-2.83465
0
LINE
8
BLACK
6
CONTINUOUS
10
6.8376
20
-2.83465
11
6.85925
21
-2.83465
0
LINE
8
BLACK
6
CONTINUOUS
10
6.85925
20
-2.83465
11
6.85925
21
-2.8937
0
LINE
8
BLACK
6
CONTINUOUS
10
6.82776
20
-2.8937
11
6.8061
21
-2.8937
0
LINE
8
BLACK
6
CONTINUOUS
10
6.8061
20
-2.8937
11
6.8061
21
-2.83465
0
LINE
8
BLACK
6
CONTINUOUS
10
6.8061
20
-2.83465
11
6.82776
21
-2.83465
0
LINE
8
BLACK
6
CONTINUOUS
10
6.82776
20
-2.83465
11
6.82776
21
-2.8937
0
LINE
8
BLACK
6
CONTINUOUS
10
6.79626
20
-2.8937
11
6.77461
21
-2.8937
0
LINE
8
BLACK
6
CONTINUOUS
10
6.77461
20
-2.8937
11
6.77461
21
-2.83465
0
LINE
8
BLACK
6
CONTINUOUS
10
6.77461
20
-2.83465
11
6.79626
21
-2.83465
0
LINE
8
BLACK
6
CONTINUOUS
10
6.79626
20
-2.83465
11
6.79626
21
-2.8937
0
LINE
8
BLACK
6
CONTINUOUS
10
6.76476
20
-2.8937
11
6.74311
21
-2.8937
0
LINE
8
BLACK
6
CONTINUOUS
10
6.74311
20
-2.8937
11
6.74311
21
-2.83465
0
LINE
8
BLACK
6
CONTINUOUS
10
6.74311
20
-2.83465
11
6.76476
21
-2.83465
0
LINE
8
BLACK
6
CONTINUOUS
10
6.76476
20
-2.83465
11
6.76476
21
-2.8937
0
LINE
8
BLACK
6
CONTINUOUS
10
6.73327
20
-2.8937
11
6.71161
21
-2.8937
0
LINE
8
BLACK
6
CONTINUOUS
10
6.71161
20
-2.8937
11
6.71161
21
-2.83465
0
LINE
8
BLACK
6
CONTINUOUS
10
6.71161
20
-2.83465
11
6.73327
21
-2.83465
0
LINE
8
BLACK
6
CONTINUOUS
10
6.73327
20
-2.83465
11
6.73327
21
-2.8937
0
LINE
8
BLACK
6
CONTINUOUS
10
6.70177
20
-2.8937
11
6.68012
21
-2.8937
0
LINE
8
BLACK
6
CONTINUOUS
10
6.68012
20
-2.8937
11
6.68012
21
-2.83465
0
LINE
8
BLACK
6
CONTINUOUS
10
6.68012
20
-2.83465
11
6.70177
21
-2.83465
0
LINE
8
BLACK
6
CONTINUOUS
10
6.70177
20
-2.83465
11
6.70177
21
-2.8937
0
LINE
8
BLACK
6
CONTINUOUS
10
6.67028
20
-2.8937
11
6.64862
21
-2.8937
0
LINE
8
BLACK
6
CONTINUOUS
10
6.64862
20
-2.8937
11
6.64862
21
-2.83465
0
LINE
8
BLACK
6
CONTINUOUS
10
6.64862
20
-2.83465
11
6.67028
21
-2.83465
0
LINE
8
BLACK
6
CONTINUOUS
10
6.67028
20
-2.83465
11
6.67028
21
-2.8937
0
LINE
8
BLACK
6
CONTINUOUS
10
6.63878
20
-2.8937
11
6.61713
21
-2.8937
0
LINE
8
BLACK
6
CONTINUOUS
10
6.61713
20
-2.8937
11
6.61713
21
-2.83465
0
LINE
8
BLACK
6
CONTINUOUS
10
6.61713
20
-2.83465
11
6.63878
21
-2.83465
0
LINE
8
BLACK
6
CONTINUOUS
10
6.63878
20
-2.83465
11
6.63878
21
-2.8937
0
LINE
8
BLACK
6
CONTINUOUS
10
6.60728
20
-2.8937
11
6.58563
21
-2.8937
0
LINE
8
BLACK
6
CONTINUOUS
10
6.58563
20
-2.8937
11
6.58563
21
-2.83465
0
LINE
8
BLACK
6
CONTINUOUS
10
6.58563
20
-2.83465
11
6.60728
21
-2.83465
0
LINE
8
BLACK
6
CONTINUOUS
10
6.60728
20
-2.83465
11
6.60728
21
-2.8937
0
LINE
8
BLACK
6
CONTINUOUS
10
6.57579
20
-2.8937
11
6.55413
21
-2.8937
0
LINE
8
BLACK
6
CONTINUOUS
10
6.55413
20
-2.8937
11
6.55413
21
-2.83465
0
LINE
8
BLACK
6
CONTINUOUS
10
6.55413
20
-2.83465
11
6.57579
21
-2.83465
0
LINE
8
BLACK
6
CONTINUOUS
10
6.57579
20
-2.83465
11
6.57579
21
-2.8937
0
LINE
8
BLACK
6
CONTINUOUS
10
6.97638
20
-2.80807
11
6.91732
21
-2.80807
0
LINE
8
BLACK
6
CONTINUOUS
10
6.91732
20
-2.80807
11
6.91732
21
-2.78642
0
LINE
8
BLACK
6
CONTINUOUS
10
6.91732
20
-2.78642
11
6.97638
21
-2.78642
0
LINE
8
BLACK
6
CONTINUOUS
10
6.97638
20
-2.78642
11
6.97638
21
-2.80807
0
LINE
8
BLACK
6
CONTINUOUS
10
6.52756
20
-2.80807
11
6.4685
21
-2.80807
0
LINE
8
BLACK
6
CONTINUOUS
10
6.4685
20
-2.80807
11
6.4685
21
-2.78642
0
LINE
8
BLACK
6
CONTINUOUS
10
6.4685
20
-2.78642
11
6.52756
21
-2.78642
0
LINE
8
BLACK
6
CONTINUOUS
10
6.52756
20
-2.78642
11
6.52756
21
-2.80807
0
LINE
8
BLACK
6
CONTINUOUS
10
7.09788
20
-2.74575
11
7.10075
21
-2.74767
0
LINE
8
BLACK
6
CONTINUOUS
10
7.10075
20
-2.74767
11
7.10267
21
-2.75055
0
LINE
8
BLACK
6
CONTINUOUS
10
7.10267
20
-2.75055
11
7.10335
21
-2.75394
0
LINE
8
BLACK
6
CONTINUOUS
10
7.10335
20
-2.75394
11
7.10335
21
-2.77362
0
LINE
8
BLACK
6
CONTINUOUS
10
7.10335
20
-2.77362
11
7.10267
21
-2.77701
0
LINE
8
BLACK
6
CONTINUOUS
10
7.10267
20
-2.77701
11
7.10075
21
-2.77989
0
LINE
8
BLACK
6
CONTINUOUS
10
7.10075
20
-2.77989
11
7.09788
21
-2.78181
0
LINE
8
BLACK
6
CONTINUOUS
10
7.09788
20
-2.78181
11
7.09449
21
-2.78248
0
LINE
8
BLACK
6
CONTINUOUS
10
7.09449
20
-2.78248
11
7.07677
21
-2.78248
0
LINE
8
BLACK
6
CONTINUOUS
10
7.07677
20
-2.78248
11
7.07338
21
-2.78181
0
LINE
8
BLACK
6
CONTINUOUS
10
7.07338
20
-2.78181
11
7.07051
21
-2.77989
0
LINE
8
BLACK
6
CONTINUOUS
10
7.07051
20
-2.77989
11
7.06859
21
-2.77701
0
LINE
8
BLACK
6
CONTINUOUS
10
7.06859
20
-2.77701
11
7.06791
21
-2.77362
0
LINE
8
BLACK
6
CONTINUOUS
10
7.06791
20
-2.77362
11
7.06791
21
-2.75394
0
LINE
8
BLACK
6
CONTINUOUS
10
7.06791
20
-2.75394
11
7.06859
21
-2.75055
0
LINE
8
BLACK
6
CONTINUOUS
10
7.06859
20
-2.75055
11
7.07051
21
-2.74767
0
LINE
8
BLACK
6
CONTINUOUS
10
7.07051
20
-2.74767
11
7.07338
21
-2.74575
0
LINE
8
BLACK
6
CONTINUOUS
10
7.07338
20
-2.74575
11
7.07677
21
-2.74508
0
LINE
8
BLACK
6
CONTINUOUS
10
7.07677
20
-2.74508
11
7.09449
21
-2.74508
0
LINE
8
BLACK
6
CONTINUOUS
10
7.09449
20
-2.74508
11
7.09788
21
-2.74575
0
LINE
8
BLACK
6
CONTINUOUS
10
7.03685
20
-2.74575
11
7.03973
21
-2.74767
0
LINE
8
BLACK
6
CONTINUOUS
10
7.03973
20
-2.74767
11
7.04165
21
-2.75055
0
LINE
8
BLACK
6
CONTINUOUS
10
7.04165
20
-2.75055
11
7.04232
21
-2.75394
0
LINE
8
BLACK
6
CONTINUOUS
10
7.04232
20
-2.75394
11
7.04232
21
-2.77362
0
LINE
8
BLACK
6
CONTINUOUS
10
7.04232
20
-2.77362
11
7.04165
21
-2.77701
0
LINE
8
BLACK
6
CONTINUOUS
10
7.04165
20
-2.77701
11
7.03973
21
-2.77989
0
LINE
8
BLACK
6
CONTINUOUS
10
7.03973
20
-2.77989
11
7.03685
21
-2.78181
0
LINE
8
BLACK
6
CONTINUOUS
10
7.03685
20
-2.78181
11
7.03346
21
-2.78248
0
LINE
8
BLACK
6
CONTINUOUS
10
7.03346
20
-2.78248
11
7.01575
21
-2.78248
0
LINE
8
BLACK
6
CONTINUOUS
10
7.01575
20
-2.78248
11
7.01236
21
-2.78181
0
LINE
8
BLACK
6
CONTINUOUS
10
7.01236
20
-2.78181
11
7.00948
21
-2.77989
0
LINE
8
BLACK
6
CONTINUOUS
10
7.00948
20
-2.77989
11
7.00756
21
-2.77701
0
LINE
8
BLACK
6
CONTINUOUS
10
7.00756
20
-2.77701
11
7.00689
21
-2.77362
0
LINE
8
BLACK
6
CONTINUOUS
10
7.00689
20
-2.77362
11
7.00689
21
-2.75394
0
LINE
8
BLACK
6
CONTINUOUS
10
7.00689
20
-2.75394
11
7.00756
21
-2.75055
0
LINE
8
BLACK
6
CONTINUOUS
10
7.00756
20
-2.75055
11
7.00948
21
-2.74767
0
LINE
8
BLACK
6
CONTINUOUS
10
7.00948
20
-2.74767
11
7.01236
21
-2.74575
0
LINE
8
BLACK
6
CONTINUOUS
10
7.01236
20
-2.74575
11
7.01575
21
-2.74508
0
LINE
8
BLACK
6
CONTINUOUS
10
7.01575
20
-2.74508
11
7.03346
21
-2.74508
0
LINE
8
BLACK
6
CONTINUOUS
10
7.03346
20
-2.74508
11
7.03685
21
-2.74575
0
LINE
8
BLACK
6
CONTINUOUS
10
6.97638
20
-2.77657
11
6.91732
21
-2.77657
0
LINE
8
BLACK
6
CONTINUOUS
10
6.91732
20
-2.77657
11
6.91732
21
-2.75492
0
LINE
8
BLACK
6
CONTINUOUS
10
6.91732
20
-2.75492
11
6.97638
21
-2.75492
0
LINE
8
BLACK
6
CONTINUOUS
10
6.97638
20
-2.75492
11
6.97638
21
-2.77657
0
LINE
8
BLACK
6
CONTINUOUS
10
6.52756
20
-2.77657
11
6.4685
21
-2.77657
0
LINE
8
BLACK
6
CONTINUOUS
10
6.4685
20
-2.77657
11
6.4685
21
-2.75492
0
LINE
8
BLACK
6
CONTINUOUS
10
6.4685
20
-2.75492
11
6.52756
21
-2.75492
0
LINE
8
BLACK
6
CONTINUOUS
10
6.52756
20
-2.75492
11
6.52756
21
-2.77657
0
LINE
8
BLACK
6
CONTINUOUS
10
5.4124
20
-2.75
11
5.34547
21
-2.75
0
LINE
8
BLACK
6
CONTINUOUS
10
5.34547
20
-2.75
11
5.34547
21
-2.67126
0
LINE
8
BLACK
6
CONTINUOUS
10
5.34547
20
-2.67126
11
5.4124
21
-2.67126
0
LINE
8
BLACK
6
CONTINUOUS
10
5.4124
20
-2.67126
11
5.4124
21
-2.75
0
LINE
8
BLACK
6
CONTINUOUS
10
5.19783
20
-2.75
11
5.13091
21
-2.75
0
LINE
8
BLACK
6
CONTINUOUS
10
5.13091
20
-2.75
11
5.13091
21
-2.67126
0
LINE
8
BLACK
6
CONTINUOUS
10
5.13091
20
-2.67126
11
5.19783
21
-2.67126
0
LINE
8
BLACK
6
CONTINUOUS
10
5.19783
20
-2.67126
11
5.19783
21
-2.75
0
LINE
8
BLACK
6
CONTINUOUS
10
6.97638
20
-2.74508
11
6.91732
21
-2.74508
0
LINE
8
BLACK
6
CONTINUOUS
10
6.91732
20
-2.74508
11
6.91732
21
-2.72343
0
LINE
8
BLACK
6
CONTINUOUS
10
6.91732
20
-2.72343
11
6.97638
21
-2.72343
0
LINE
8
BLACK
6
CONTINUOUS
10
6.97638
20
-2.72343
11
6.97638
21
-2.74508
0
LINE
8
BLACK
6
CONTINUOUS
10
6.52756
20
-2.74508
11
6.4685
21
-2.74508
0
LINE
8
BLACK
6
CONTINUOUS
10
6.4685
20
-2.74508
11
6.4685
21
-2.72343
0
LINE
8
BLACK
6
CONTINUOUS
10
6.4685
20
-2.72343
11
6.52756
21
-2.72343
0
LINE
8
BLACK
6
CONTINUOUS
10
6.52756
20
-2.72343
11
6.52756
21
-2.74508
0
LINE
8
BLACK
6
CONTINUOUS
10
6.43548
20
-2.68473
11
6.43835
21
-2.68665
0
LINE
8
BLACK
6
CONTINUOUS
10
6.43835
20
-2.68665
11
6.44027
21
-2.68952
0
LINE
8
BLACK
6
CONTINUOUS
10
6.44027
20
-2.68952
11
6.44094
21
-2.69291
0
LINE
8
BLACK
6
CONTINUOUS
10
6.44094
20
-2.69291
11
6.44094
21
-2.7126
0
LINE
8
BLACK
6
CONTINUOUS
10
6.44094
20
-2.7126
11
6.44027
21
-2.71599
0
LINE
8
BLACK
6
CONTINUOUS
10
6.44027
20
-2.71599
11
6.43835
21
-2.71886
0
LINE
8
BLACK
6
CONTINUOUS
10
6.43835
20
-2.71886
11
6.43548
21
-2.72078
0
LINE
8
BLACK
6
CONTINUOUS
10
6.43548
20
-2.72078
11
6.43209
21
-2.72146
0
LINE
8
BLACK
6
CONTINUOUS
10
6.43209
20
-2.72146
11
6.41437
21
-2.72146
0
LINE
8
BLACK
6
CONTINUOUS
10
6.41437
20
-2.72146
11
6.41098
21
-2.72078
0
LINE
8
BLACK
6
CONTINUOUS
10
6.41098
20
-2.72078
11
6.40811
21
-2.71886
0
LINE
8
BLACK
6
CONTINUOUS
10
6.40811
20
-2.71886
11
6.40619
21
-2.71599
0
LINE
8
BLACK
6
CONTINUOUS
10
6.40619
20
-2.71599
11
6.40551
21
-2.7126
0
LINE
8
BLACK
6
CONTINUOUS
10
6.40551
20
-2.7126
11
6.40551
21
-2.69291
0
LINE
8
BLACK
6
CONTINUOUS
10
6.40551
20
-2.69291
11
6.40619
21
-2.68952
0
LINE
8
BLACK
6
CONTINUOUS
10
6.40619
20
-2.68952
11
6.40811
21
-2.68665
0
LINE
8
BLACK
6
CONTINUOUS
10
6.40811
20
-2.68665
11
6.41098
21
-2.68473
0
LINE
8
BLACK
6
CONTINUOUS
10
6.41098
20
-2.68473
11
6.41437
21
-2.68406
0
LINE
8
BLACK
6
CONTINUOUS
10
6.41437
20
-2.68406
11
6.43209
21
-2.68406
0
LINE
8
BLACK
6
CONTINUOUS
10
6.43209
20
-2.68406
11
6.43548
21
-2.68473
0
LINE
8
BLACK
6
CONTINUOUS
10
6.37445
20
-2.68473
11
6.37733
21
-2.68665
0
LINE
8
BLACK
6
CONTINUOUS
10
6.37733
20
-2.68665
11
6.37925
21
-2.68952
0
LINE
8
BLACK
6
CONTINUOUS
10
6.37925
20
-2.68952
11
6.37992
21
-2.69291
0
LINE
8
BLACK
6
CONTINUOUS
10
6.37992
20
-2.69291
11
6.37992
21
-2.7126
0
LINE
8
BLACK
6
CONTINUOUS
10
6.37992
20
-2.7126
11
6.37925
21
-2.71599
0
LINE
8
BLACK
6
CONTINUOUS
10
6.37925
20
-2.71599
11
6.37733
21
-2.71886
0
LINE
8
BLACK
6
CONTINUOUS
10
6.37733
20
-2.71886
11
6.37445
21
-2.72078
0
LINE
8
BLACK
6
CONTINUOUS
10
6.37445
20
-2.72078
11
6.37106
21
-2.72146
0
LINE
8
BLACK
6
CONTINUOUS
10
6.37106
20
-2.72146
11
6.35335
21
-2.72146
0
LINE
8
BLACK
6
CONTINUOUS
10
6.35335
20
-2.72146
11
6.34996
21
-2.72078
0
LINE
8
BLACK
6
CONTINUOUS
10
6.34996
20
-2.72078
11
6.34708
21
-2.71886
0
LINE
8
BLACK
6
CONTINUOUS
10
6.34708
20
-2.71886
11
6.34516
21
-2.71599
0
LINE
8
BLACK
6
CONTINUOUS
10
6.34516
20
-2.71599
11
6.34449
21
-2.7126
0
LINE
8
BLACK
6
CONTINUOUS
10
6.34449
20
-2.7126
11
6.34449
21
-2.69291
0
LINE
8
BLACK
6
CONTINUOUS
10
6.34449
20
-2.69291
11
6.34516
21
-2.68952
0
LINE
8
BLACK
6
CONTINUOUS
10
6.34516
20
-2.68952
11
6.34708
21
-2.68665
0
LINE
8
BLACK
6
CONTINUOUS
10
6.34708
20
-2.68665
11
6.34996
21
-2.68473
0
LINE
8
BLACK
6
CONTINUOUS
10
6.34996
20
-2.68473
11
6.35335
21
-2.68406
0
LINE
8
BLACK
6
CONTINUOUS
10
6.35335
20
-2.68406
11
6.37106
21
-2.68406
0
LINE
8
BLACK
6
CONTINUOUS
10
6.37106
20
-2.68406
11
6.37445
21
-2.68473
0
LINE
8
BLACK
6
CONTINUOUS
10
6.97638
20
-2.71358
11
6.91732
21
-2.71358
0
LINE
8
BLACK
6
CONTINUOUS
10
6.91732
20
-2.71358
11
6.91732
21
-2.69193
0
LINE
8
BLACK
6
CONTINUOUS
10
6.91732
20
-2.69193
11
6.97638
21
-2.69193
0
LINE
8
BLACK
6
CONTINUOUS
10
6.97638
20
-2.69193
11
6.97638
21
-2.71358
0
LINE
8
BLACK
6
CONTINUOUS
10
6.52756
20
-2.71358
11
6.4685
21
-2.71358
0
LINE
8
BLACK
6
CONTINUOUS
10
6.4685
20
-2.71358
11
6.4685
21
-2.69193
0
LINE
8
BLACK
6
CONTINUOUS
10
6.4685
20
-2.69193
11
6.52756
21
-2.69193
0
LINE
8
BLACK
6
CONTINUOUS
10
6.52756
20
-2.69193
11
6.52756
21
-2.71358
0
LINE
8
BLACK
6
CONTINUOUS
10
6.97638
20
-2.68209
11
6.91732
21
-2.68209
0
LINE
8
BLACK
6
CONTINUOUS
10
6.91732
20
-2.68209
11
6.91732
21
-2.66043
0
LINE
8
BLACK
6
CONTINUOUS
10
6.91732
20
-2.66043
11
6.97638
21
-2.66043
0
LINE
8
BLACK
6
CONTINUOUS
10
6.97638
20
-2.66043
11
6.97638
21
-2.68209
0
LINE
8
BLACK
6
CONTINUOUS
10
6.52756
20
-2.68209
11
6.4685
21
-2.68209
0
LINE
8
BLACK
6
CONTINUOUS
10
6.4685
20
-2.68209
11
6.4685
21
-2.66043
0
LINE
8
BLACK
6
CONTINUOUS
10
6.4685
20
-2.66043
11
6.52756
21
-2.66043
0
LINE
8
BLACK
6
CONTINUOUS
10
6.52756
20
-2.66043
11
6.52756
21
-2.68209
0
LINE
8
BLACK
6
CONTINUOUS
10
6.43548
20
-2.62174
11
6.43835
21
-2.62366
0
LINE
8
BLACK
6
CONTINUOUS
10
6.43835
20
-2.62366
11
6.44027
21
-2.62653
0
LINE
8
BLACK
6
CONTINUOUS
10
6.44027
20
-2.62653
11
6.44094
21
-2.62992
0
LINE
8
BLACK
6
CONTINUOUS
10
6.44094
20
-2.62992
11
6.44094
21
-2.64961
0
LINE
8
BLACK
6
CONTINUOUS
10
6.44094
20
-2.64961
11
6.44027
21
-2.653
0
LINE
8
BLACK
6
CONTINUOUS
10
6.44027
20
-2.653
11
6.43835
21
-2.65587
0
LINE
8
BLACK
6
CONTINUOUS
10
6.43835
20
-2.65587
11
6.43548
21
-2.65779
0
LINE
8
BLACK
6
CONTINUOUS
10
6.43548
20
-2.65779
11
6.43209
21
-2.65846
0
LINE
8
BLACK
6
CONTINUOUS
10
6.43209
20
-2.65846
11
6.41437
21
-2.65846
0
LINE
8
BLACK
6
CONTINUOUS
10
6.41437
20
-2.65846
11
6.41098
21
-2.65779
0
LINE
8
BLACK
6
CONTINUOUS
10
6.41098
20
-2.65779
11
6.40811
21
-2.65587
0
LINE
8
BLACK
6
CONTINUOUS
10
6.40811
20
-2.65587
11
6.40619
21
-2.653
0
LINE
8
BLACK
6
CONTINUOUS
10
6.40619
20
-2.653
11
6.40551
21
-2.64961
0
LINE
8
BLACK
6
CONTINUOUS
10
6.40551
20
-2.64961
11
6.40551
21
-2.62992
0
LINE
8
BLACK
6
CONTINUOUS
10
6.40551
20
-2.62992
11
6.40619
21
-2.62653
0
LINE
8
BLACK
6
CONTINUOUS
10
6.40619
20
-2.62653
11
6.40811
21
-2.62366
0
LINE
8
BLACK
6
CONTINUOUS
10
6.40811
20
-2.62366
11
6.41098
21
-2.62174
0
LINE
8
BLACK
6
CONTINUOUS
10
6.41098
20
-2.62174
11
6.41437
21
-2.62106
0
LINE
8
BLACK
6
CONTINUOUS
10
6.41437
20
-2.62106
11
6.43209
21
-2.62106
0
LINE
8
BLACK
6
CONTINUOUS
10
6.43209
20
-2.62106
11
6.43548
21
-2.62174
0
LINE
8
BLACK
6
CONTINUOUS
10
6.37445
20
-2.62174
11
6.37733
21
-2.62366
0
LINE
8
BLACK
6
CONTINUOUS
10
6.37733
20
-2.62366
11
6.37925
21
-2.62653
0
LINE
8
BLACK
6
CONTINUOUS
10
6.37925
20
-2.62653
11
6.37992
21
-2.62992
0
LINE
8
BLACK
6
CONTINUOUS
10
6.37992
20
-2.62992
11
6.37992
21
-2.64961
0
LINE
8
BLACK
6
CONTINUOUS
10
6.37992
20
-2.64961
11
6.37925
21
-2.653
0
LINE
8
BLACK
6
CONTINUOUS
10
6.37925
20
-2.653
11
6.37733
21
-2.65587
0
LINE
8
BLACK
6
CONTINUOUS
10
6.37733
20
-2.65587
11
6.37445
21
-2.65779
0
LINE
8
BLACK
6
CONTINUOUS
10
6.37445
20
-2.65779
11
6.37106
21
-2.65846
0
LINE
8
BLACK
6
CONTINUOUS
10
6.37106
20
-2.65846
11
6.35335
21
-2.65846
0
LINE
8
BLACK
6
CONTINUOUS
10
6.35335
20
-2.65846
11
6.34996
21
-2.65779
0
LINE
8
BLACK
6
CONTINUOUS
10
6.34996
20
-2.65779
11
6.34708
21
-2.65587
0
LINE
8
BLACK
6
CONTINUOUS
10
6.34708
20
-2.65587
11
6.34516
21
-2.653
0
LINE
8
BLACK
6
CONTINUOUS
10
6.34516
20
-2.653
11
6.34449
21
-2.64961
0
LINE
8
BLACK
6
CONTINUOUS
10
6.34449
20
-2.64961
11
6.34449
21
-2.62992
0
LINE
8
BLACK
6
CONTINUOUS
10
6.34449
20
-2.62992
11
6.34516
21
-2.62653
0
LINE
8
BLACK
6
CONTINUOUS
10
6.34516
20
-2.62653
11
6.34708
21
-2.62366
0
LINE
8
BLACK
6
CONTINUOUS
10
6.34708
20
-2.62366
11
6.34996
21
-2.62174
0
LINE
8
BLACK
6
CONTINUOUS
10
6.34996
20
-2.62174
11
6.35335
21
-2.62106
0
LINE
8
BLACK
6
CONTINUOUS
10
6.35335
20
-2.62106
11
6.37106
21
-2.62106
0
LINE
8
BLACK
6
CONTINUOUS
10
6.37106
20
-2.62106
11
6.37445
21
-2.62174
0
LINE
8
BLACK
6
CONTINUOUS
10
6.97638
20
-2.65059
11
6.91732
21
-2.65059
0
LINE
8
BLACK
6
CONTINUOUS
10
6.91732
20
-2.65059
11
6.91732
21
-2.62894
0
LINE
8
BLACK
6
CONTINUOUS
10
6.91732
20
-2.62894
11
6.97638
21
-2.62894
0
LINE
8
BLACK
6
CONTINUOUS
10
6.97638
20
-2.62894
11
6.97638
21
-2.65059
0
LINE
8
BLACK
6
CONTINUOUS
10
6.52756
20
-2.65059
11
6.4685
21
-2.65059
0
LINE
8
BLACK
6
CONTINUOUS
10
6.4685
20
-2.65059
11
6.4685
21
-2.62894
0
LINE
8
BLACK
6
CONTINUOUS
10
6.4685
20
-2.62894
11
6.52756
21
-2.62894
0
LINE
8
BLACK
6
CONTINUOUS
10
6.52756
20
-2.62894
11
6.52756
21
-2.65059
0
LINE
8
BLACK
6
CONTINUOUS
10
7.56469
20
-2.57988
11
7.56788
21
-2.58202
0
LINE
8
BLACK
6
CONTINUOUS
10
7.56788
20
-2.58202
11
7.57002
21
-2.58521
0
LINE
8
BLACK
6
CONTINUOUS
10
7.57002
20
-2.58521
11
7.57077
21
-2.58898
0
LINE
8
BLACK
6
CONTINUOUS
10
7.57077
20
-2.58898
11
7.57077
21
-2.62441
0
LINE
8
BLACK
6
CONTINUOUS
10
7.57077
20
-2.62441
11
7.57002
21
-2.62818
0
LINE
8
BLACK
6
CONTINUOUS
10
7.57002
20
-2.62818
11
7.56788
21
-2.63137
0
LINE
8
BLACK
6
CONTINUOUS
10
7.56788
20
-2.63137
11
7.56469
21
-2.6335
0
LINE
8
BLACK
6
CONTINUOUS
10
7.56469
20
-2.6335
11
7.56093
21
-2.63425
0
LINE
8
BLACK
6
CONTINUOUS
10
7.56093
20
-2.63425
11
7.54026
21
-2.63425
0
LINE
8
BLACK
6
CONTINUOUS
10
7.54026
20
-2.63425
11
7.53649
21
-2.6335
0
LINE
8
BLACK
6
CONTINUOUS
10
7.53649
20
-2.6335
11
7.5333
21
-2.63137
0
LINE
8
BLACK
6
CONTINUOUS
10
7.5333
20
-2.63137
11
7.53116
21
-2.62818
0
LINE
8
BLACK
6
CONTINUOUS
10
7.53116
20
-2.62818
11
7.53041
21
-2.62441
0
LINE
8
BLACK
6
CONTINUOUS
10
7.53041
20
-2.62441
11
7.53041
21
-2.58898
0
LINE
8
BLACK
6
CONTINUOUS
10
7.53041
20
-2.58898
11
7.53116
21
-2.58521
0
LINE
8
BLACK
6
CONTINUOUS
10
7.53116
20
-2.58521
11
7.5333
21
-2.58202
0
LINE
8
BLACK
6
CONTINUOUS
10
7.5333
20
-2.58202
11
7.53649
21
-2.57988
0
LINE
8
BLACK
6
CONTINUOUS
10
7.53649
20
-2.57988
11
7.54026
21
-2.57913
0
LINE
8
BLACK
6
CONTINUOUS
10
7.54026
20
-2.57913
11
7.56093
21
-2.57913
0
LINE
8
BLACK
6
CONTINUOUS
10
7.56093
20
-2.57913
11
7.56469
21
-2.57988
0
LINE
8
BLACK
6
CONTINUOUS
10
7.49284
20
-2.57988
11
7.49603
21
-2.58202
0
LINE
8
BLACK
6
CONTINUOUS
10
7.49603
20
-2.58202
11
7.49817
21
-2.58521
0
LINE
8
BLACK
6
CONTINUOUS
10
7.49817
20
-2.58521
11
7.49892
21
-2.58898
0
LINE
8
BLACK
6
CONTINUOUS
10
7.49892
20
-2.58898
11
7.49892
21
-2.62441
0
LINE
8
BLACK
6
CONTINUOUS
10
7.49892
20
-2.62441
11
7.49817
21
-2.62818
0
LINE
8
BLACK
6
CONTINUOUS
10
7.49817
20
-2.62818
11
7.49603
21
-2.63137
0
LINE
8
BLACK
6
CONTINUOUS
10
7.49603
20
-2.63137
11
7.49284
21
-2.6335
0
LINE
8
BLACK
6
CONTINUOUS
10
7.49284
20
-2.6335
11
7.48907
21
-2.63425
0
LINE
8
BLACK
6
CONTINUOUS
10
7.48907
20
-2.63425
11
7.46841
21
-2.63425
0
LINE
8
BLACK
6
CONTINUOUS
10
7.46841
20
-2.63425
11
7.46464
21
-2.6335
0
LINE
8
BLACK
6
CONTINUOUS
10
7.46464
20
-2.6335
11
7.46145
21
-2.63137
0
LINE
8
BLACK
6
CONTINUOUS
10
7.46145
20
-2.63137
11
7.45931
21
-2.62818
0
LINE
8
BLACK
6
CONTINUOUS
10
7.45931
20
-2.62818
11
7.45856
21
-2.62441
0
LINE
8
BLACK
6
CONTINUOUS
10
7.45856
20
-2.62441
11
7.45856
21
-2.58898
0
LINE
8
BLACK
6
CONTINUOUS
10
7.45856
20
-2.58898
11
7.45931
21
-2.58521
0
LINE
8
BLACK
6
CONTINUOUS
10
7.45931
20
-2.58521
11
7.46145
21
-2.58202
0
LINE
8
BLACK
6
CONTINUOUS
10
7.46145
20
-2.58202
11
7.46464
21
-2.57988
0
LINE
8
BLACK
6
CONTINUOUS
10
7.46464
20
-2.57988
11
7.46841
21
-2.57913
0
LINE
8
BLACK
6
CONTINUOUS
10
7.46841
20
-2.57913
11
7.48907
21
-2.57913
0
LINE
8
BLACK
6
CONTINUOUS
10
7.48907
20
-2.57913
11
7.49284
21
-2.57988
0
LINE
8
BLACK
6
CONTINUOUS
10
7.38615
20
-2.57752
11
7.38934
21
-2.57965
0
LINE
8
BLACK
6
CONTINUOUS
10
7.38934
20
-2.57965
11
7.39148
21
-2.58285
0
LINE
8
BLACK
6
CONTINUOUS
10
7.39148
20
-2.58285
11
7.39222
21
-2.58661
0
LINE
8
BLACK
6
CONTINUOUS
10
7.39222
20
-2.58661
11
7.39222
21
-2.62205
0
LINE
8
BLACK
6
CONTINUOUS
10
7.39222
20
-2.62205
11
7.39148
21
-2.62581
0
LINE
8
BLACK
6
CONTINUOUS
10
7.39148
20
-2.62581
11
7.38934
21
-2.62901
0
LINE
8
BLACK
6
CONTINUOUS
10
7.38934
20
-2.62901
11
7.38615
21
-2.63114
0
LINE
8
BLACK
6
CONTINUOUS
10
7.38615
20
-2.63114
11
7.38238
21
-2.63189
0
LINE
8
BLACK
6
CONTINUOUS
10
7.38238
20
-2.63189
11
7.36171
21
-2.63189
0
LINE
8
BLACK
6
CONTINUOUS
10
7.36171
20
-2.63189
11
7.35795
21
-2.63114
0
LINE
8
BLACK
6
CONTINUOUS
10
7.35795
20
-2.63114
11
7.35475
21
-2.62901
0
LINE
8
BLACK
6
CONTINUOUS
10
7.35475
20
-2.62901
11
7.35262
21
-2.62581
0
LINE
8
BLACK
6
CONTINUOUS
10
7.35262
20
-2.62581
11
7.35187
21
-2.62205
0
LINE
8
BLACK
6
CONTINUOUS
10
7.35187
20
-2.62205
11
7.35187
21
-2.58661
0
LINE
8
BLACK
6
CONTINUOUS
10
7.35187
20
-2.58661
11
7.35262
21
-2.58285
0
LINE
8
BLACK
6
CONTINUOUS
10
7.35262
20
-2.58285
11
7.35475
21
-2.57965
0
LINE
8
BLACK
6
CONTINUOUS
10
7.35475
20
-2.57965
11
7.35795
21
-2.57752
0
LINE
8
BLACK
6
CONTINUOUS
10
7.35795
20
-2.57752
11
7.36171
21
-2.57677
0
LINE
8
BLACK
6
CONTINUOUS
10
7.36171
20
-2.57677
11
7.38238
21
-2.57677
0
LINE
8
BLACK
6
CONTINUOUS
10
7.38238
20
-2.57677
11
7.38615
21
-2.57752
0
LINE
8
BLACK
6
CONTINUOUS
10
7.3143
20
-2.57752
11
7.31749
21
-2.57965
0
LINE
8
BLACK
6
CONTINUOUS
10
7.31749
20
-2.57965
11
7.31962
21
-2.58285
0
LINE
8
BLACK
6
CONTINUOUS
10
7.31962
20
-2.58285
11
7.32037
21
-2.58661
0
LINE
8
BLACK
6
CONTINUOUS
10
7.32037
20
-2.58661
11
7.32037
21
-2.62205
0
LINE
8
BLACK
6
CONTINUOUS
10
7.32037
20
-2.62205
11
7.31962
21
-2.62581
0
LINE
8
BLACK
6
CONTINUOUS
10
7.31962
20
-2.62581
11
7.31749
21
-2.62901
0
LINE
8
BLACK
6
CONTINUOUS
10
7.31749
20
-2.62901
11
7.3143
21
-2.63114
0
LINE
8
BLACK
6
CONTINUOUS
10
7.3143
20
-2.63114
11
7.31053
21
-2.63189
0
LINE
8
BLACK
6
CONTINUOUS
10
7.31053
20
-2.63189
11
7.28986
21
-2.63189
0
LINE
8
BLACK
6
CONTINUOUS
10
7.28986
20
-2.63189
11
7.2861
21
-2.63114
0
LINE
8
BLACK
6
CONTINUOUS
10
7.2861
20
-2.63114
11
7.2829
21
-2.62901
0
LINE
8
BLACK
6
CONTINUOUS
10
7.2829
20
-2.62901
11
7.28077
21
-2.62581
0
LINE
8
BLACK
6
CONTINUOUS
10
7.28077
20
-2.62581
11
7.28002
21
-2.62205
0
LINE
8
BLACK
6
CONTINUOUS
10
7.28002
20
-2.62205
11
7.28002
21
-2.58661
0
LINE
8
BLACK
6
CONTINUOUS
10
7.28002
20
-2.58661
11
7.28077
21
-2.58285
0
LINE
8
BLACK
6
CONTINUOUS
10
7.28077
20
-2.58285
11
7.2829
21
-2.57965
0
LINE
8
BLACK
6
CONTINUOUS
10
7.2829
20
-2.57965
11
7.2861
21
-2.57752
0
LINE
8
BLACK
6
CONTINUOUS
10
7.2861
20
-2.57752
11
7.28986
21
-2.57677
0
LINE
8
BLACK
6
CONTINUOUS
10
7.28986
20
-2.57677
11
7.31053
21
-2.57677
0
LINE
8
BLACK
6
CONTINUOUS
10
7.31053
20
-2.57677
11
7.3143
21
-2.57752
0
LINE
8
BLACK
6
CONTINUOUS
10
6.97638
20
-2.61909
11
6.91732
21
-2.61909
0
LINE
8
BLACK
6
CONTINUOUS
10
6.91732
20
-2.61909
11
6.91732
21
-2.59744
0
LINE
8
BLACK
6
CONTINUOUS
10
6.91732
20
-2.59744
11
6.97638
21
-2.59744
0
LINE
8
BLACK
6
CONTINUOUS
10
6.97638
20
-2.59744
11
6.97638
21
-2.61909
0
LINE
8
BLACK
6
CONTINUOUS
10
6.52756
20
-2.61909
11
6.4685
21
-2.61909
0
LINE
8
BLACK
6
CONTINUOUS
10
6.4685
20
-2.61909
11
6.4685
21
-2.59744
0
LINE
8
BLACK
6
CONTINUOUS
10
6.4685
20
-2.59744
11
6.52756
21
-2.59744
0
LINE
8
BLACK
6
CONTINUOUS
10
6.52756
20
-2.59744
11
6.52756
21
-2.61909
0
LINE
8
BLACK
6
CONTINUOUS
10
5.42224
20
-2.60827
11
5.3435
21
-2.60827
0
LINE
8
BLACK
6
CONTINUOUS
10
5.3435
20
-2.60827
11
5.3435
21
-2.58858
0
LINE
8
BLACK
6
CONTINUOUS
10
5.3435
20
-2.58858
11
5.42224
21
-2.58858
0
LINE
8
BLACK
6
CONTINUOUS
10
5.42224
20
-2.58858
11
5.42224
21
-2.60827
0
LINE
8
BLACK
6
CONTINUOUS
10
6.97638
20
-2.5876
11
6.91732
21
-2.5876
0
LINE
8
BLACK
6
CONTINUOUS
10
6.91732
20
-2.5876
11
6.91732
21
-2.56594
0
LINE
8
BLACK
6
CONTINUOUS
10
6.91732
20
-2.56594
11
6.97638
21
-2.56594
0
LINE
8
BLACK
6
CONTINUOUS
10
6.97638
20
-2.56594
11
6.97638
21
-2.5876
0
LINE
8
BLACK
6
CONTINUOUS
10
6.52756
20
-2.5876
11
6.4685
21
-2.5876
0
LINE
8
BLACK
6
CONTINUOUS
10
6.4685
20
-2.5876
11
6.4685
21
-2.56594
0
LINE
8
BLACK
6
CONTINUOUS
10
6.4685
20
-2.56594
11
6.52756
21
-2.56594
0
LINE
8
BLACK
6
CONTINUOUS
10
6.52756
20
-2.56594
11
6.52756
21
-2.5876
0
LINE
8
BLACK
6
CONTINUOUS
10
5.42224
20
-2.57677
11
5.3435
21
-2.57677
0
LINE
8
BLACK
6
CONTINUOUS
10
5.3435
20
-2.57677
11
5.3435
21
-2.55709
0
LINE
8
BLACK
6
CONTINUOUS
10
5.3435
20
-2.55709
11
5.42224
21
-2.55709
0
LINE
8
BLACK
6
CONTINUOUS
10
5.42224
20
-2.55709
11
5.42224
21
-2.57677
0
LINE
8
BLACK
6
CONTINUOUS
10
6.97638
20
-2.5561
11
6.91732
21
-2.5561
0
LINE
8
BLACK
6
CONTINUOUS
10
6.91732
20
-2.5561
11
6.91732
21
-2.53445
0
LINE
8
BLACK
6
CONTINUOUS
10
6.91732
20
-2.53445
11
6.97638
21
-2.53445
0
LINE
8
BLACK
6
CONTINUOUS
10
6.97638
20
-2.53445
11
6.97638
21
-2.5561
0
LINE
8
BLACK
6
CONTINUOUS
10
6.52756
20
-2.5561
11
6.4685
21
-2.5561
0
LINE
8
BLACK
6
CONTINUOUS
10
6.4685
20
-2.5561
11
6.4685
21
-2.53445
0
LINE
8
BLACK
6
CONTINUOUS
10
6.4685
20
-2.53445
11
6.52756
21
-2.53445
0
LINE
8
BLACK
6
CONTINUOUS
10
6.52756
20
-2.53445
11
6.52756
21
-2.5561
0
LINE
8
BLACK
6
CONTINUOUS
10
5.58569
20
-2.51733
11
5.58824
21
-2.51904
0
LINE
8
BLACK
6
CONTINUOUS
10
5.58824
20
-2.51904
11
5.58995
21
-2.52159
0
LINE
8
BLACK
6
CONTINUOUS
10
5.58995
20
-2.52159
11
5.59055
21
-2.52461
0
LINE
8
BLACK
6
CONTINUOUS
10
5.59055
20
-2.52461
11
5.59055
21
-2.54626
0
LINE
8
BLACK
6
CONTINUOUS
10
5.59055
20
-2.54626
11
5.58995
21
-2.54927
0
LINE
8
BLACK
6
CONTINUOUS
10
5.58995
20
-2.54927
11
5.58824
21
-2.55183
0
LINE
8
BLACK
6
CONTINUOUS
10
5.58824
20
-2.55183
11
5.58569
21
-2.55353
0
LINE
8
BLACK
6
CONTINUOUS
10
5.58569
20
-2.55353
11
5.58268
21
-2.55413
0
LINE
8
BLACK
6
CONTINUOUS
10
5.58268
20
-2.55413
11
5.56693
21
-2.55413
0
LINE
8
BLACK
6
CONTINUOUS
10
5.56693
20
-2.55413
11
5.56392
21
-2.55353
0
LINE
8
BLACK
6
CONTINUOUS
10
5.56392
20
-2.55353
11
5.56136
21
-2.55183
0
LINE
8
BLACK
6
CONTINUOUS
10
5.56136
20
-2.55183
11
5.55965
21
-2.54927
0
LINE
8
BLACK
6
CONTINUOUS
10
5.55965
20
-2.54927
11
5.55906
21
-2.54626
0
LINE
8
BLACK
6
CONTINUOUS
10
5.55906
20
-2.54626
11
5.55906
21
-2.52461
0
LINE
8
BLACK
6
CONTINUOUS
10
5.55906
20
-2.52461
11
5.55965
21
-2.52159
0
LINE
8
BLACK
6
CONTINUOUS
10
5.55965
20
-2.52159
11
5.56136
21
-2.51904
0
LINE
8
BLACK
6
CONTINUOUS
10
5.56136
20
-2.51904
11
5.56392
21
-2.51733
0
LINE
8
BLACK
6
CONTINUOUS
10
5.56392
20
-2.51733
11
5.56693
21
-2.51673
0
LINE
8
BLACK
6
CONTINUOUS
10
5.56693
20
-2.51673
11
5.58268
21
-2.51673
0
LINE
8
BLACK
6
CONTINUOUS
10
5.58268
20
-2.51673
11
5.58569
21
-2.51733
0
LINE
8
BLACK
6
CONTINUOUS
10
5.52073
20
-2.51733
11
5.52328
21
-2.51904
0
LINE
8
BLACK
6
CONTINUOUS
10
5.52328
20
-2.51904
11
5.52499
21
-2.52159
0
LINE
8
BLACK
6
CONTINUOUS
10
5.52499
20
-2.52159
11
5.52559
21
-2.52461
0
LINE
8
BLACK
6
CONTINUOUS
10
5.52559
20
-2.52461
11
5.52559
21
-2.54626
0
LINE
8
BLACK
6
CONTINUOUS
10
5.52559
20
-2.54626
11
5.52499
21
-2.54927
0
LINE
8
BLACK
6
CONTINUOUS
10
5.52499
20
-2.54927
11
5.52328
21
-2.55183
0
LINE
8
BLACK
6
CONTINUOUS
10
5.52328
20
-2.55183
11
5.52073
21
-2.55353
0
LINE
8
BLACK
6
CONTINUOUS
10
5.52073
20
-2.55353
11
5.51772
21
-2.55413
0
LINE
8
BLACK
6
CONTINUOUS
10
5.51772
20
-2.55413
11
5.50197
21
-2.55413
0
LINE
8
BLACK
6
CONTINUOUS
10
5.50197
20
-2.55413
11
5.49896
21
-2.55353
0
LINE
8
BLACK
6
CONTINUOUS
10
5.49896
20
-2.55353
11
5.4964
21
-2.55183
0
LINE
8
BLACK
6
CONTINUOUS
10
5.4964
20
-2.55183
11
5.49469
21
-2.54927
0
LINE
8
BLACK
6
CONTINUOUS
10
5.49469
20
-2.54927
11
5.49409
21
-2.54626
0
LINE
8
BLACK
6
CONTINUOUS
10
5.49409
20
-2.54626
11
5.49409
21
-2.52461
0
LINE
8
BLACK
6
CONTINUOUS
10
5.49409
20
-2.52461
11
5.49469
21
-2.52159
0
LINE
8
BLACK
6
CONTINUOUS
10
5.49469
20
-2.52159
11
5.4964
21
-2.51904
0
LINE
8
BLACK
6
CONTINUOUS
10
5.4964
20
-2.51904
11
5.49896
21
-2.51733
0
LINE
8
BLACK
6
CONTINUOUS
10
5.49896
20
-2.51733
11
5.50197
21
-2.51673
0
LINE
8
BLACK
6
CONTINUOUS
10
5.50197
20
-2.51673
11
5.51772
21
-2.51673
0
LINE
8
BLACK
6
CONTINUOUS
10
5.51772
20
-2.51673
11
5.52073
21
-2.51733
0
LINE
8
BLACK
6
CONTINUOUS
10
7.56642
20
-2.49876
11
7.56953
21
-2.50084
0
LINE
8
BLACK
6
CONTINUOUS
10
7.56953
20
-2.50084
11
7.57161
21
-2.50396
0
LINE
8
BLACK
6
CONTINUOUS
10
7.57161
20
-2.50396
11
7.57234
21
-2.50763
0
LINE
8
BLACK
6
CONTINUOUS
10
7.57234
20
-2.50763
11
7.57234
21
-2.54355
0
LINE
8
BLACK
6
CONTINUOUS
10
7.57234
20
-2.54355
11
7.57161
21
-2.54723
0
LINE
8
BLACK
6
CONTINUOUS
10
7.57161
20
-2.54723
11
7.56953
21
-2.55034
0
LINE
8
BLACK
6
CONTINUOUS
10
7.56953
20
-2.55034
11
7.56642
21
-2.55242
0
LINE
8
BLACK
6
CONTINUOUS
10
7.56642
20
-2.55242
11
7.56275
21
-2.55315
0
LINE
8
BLACK
6
CONTINUOUS
10
7.56275
20
-2.55315
11
7.54355
21
-2.55315
0
LINE
8
BLACK
6
CONTINUOUS
10
7.54355
20
-2.55315
11
7.53988
21
-2.55242
0
LINE
8
BLACK
6
CONTINUOUS
10
7.53988
20
-2.55242
11
7.53677
21
-2.55034
0
LINE
8
BLACK
6
CONTINUOUS
10
7.53677
20
-2.55034
11
7.53469
21
-2.54723
0
LINE
8
BLACK
6
CONTINUOUS
10
7.53469
20
-2.54723
11
7.53396
21
-2.54355
0
LINE
8
BLACK
6
CONTINUOUS
10
7.53396
20
-2.54355
11
7.53396
21
-2.50763
0
LINE
8
BLACK
6
CONTINUOUS
10
7.53396
20
-2.50763
11
7.53469
21
-2.50396
0
LINE
8
BLACK
6
CONTINUOUS
10
7.53469
20
-2.50396
11
7.53677
21
-2.50084
0
LINE
8
BLACK
6
CONTINUOUS
10
7.53677
20
-2.50084
11
7.53988
21
-2.49876
0
LINE
8
BLACK
6
CONTINUOUS
10
7.53988
20
-2.49876
11
7.54355
21
-2.49803
0
LINE
8
BLACK
6
CONTINUOUS
10
7.54355
20
-2.49803
11
7.56275
21
-2.49803
0
LINE
8
BLACK
6
CONTINUOUS
10
7.56275
20
-2.49803
11
7.56642
21
-2.49876
0
LINE
8
BLACK
6
CONTINUOUS
10
7.4926
20
-2.49876
11
7.49571
21
-2.50084
0
LINE
8
BLACK
6
CONTINUOUS
10
7.49571
20
-2.50084
11
7.49779
21
-2.50396
0
LINE
8
BLACK
6
CONTINUOUS
10
7.49779
20
-2.50396
11
7.49852
21
-2.50763
0
LINE
8
BLACK
6
CONTINUOUS
10
7.49852
20
-2.50763
11
7.49852
21
-2.54355
0
LINE
8
BLACK
6
CONTINUOUS
10
7.49852
20
-2.54355
11
7.49779
21
-2.54723
0
LINE
8
BLACK
6
CONTINUOUS
10
7.49779
20
-2.54723
11
7.49571
21
-2.55034
0
LINE
8
BLACK
6
CONTINUOUS
10
7.49571
20
-2.55034
11
7.4926
21
-2.55242
0
LINE
8
BLACK
6
CONTINUOUS
10
7.4926
20
-2.55242
11
7.48893
21
-2.55315
0
LINE
8
BLACK
6
CONTINUOUS
10
7.48893
20
-2.55315
11
7.46973
21
-2.55315
0
LINE
8
BLACK
6
CONTINUOUS
10
7.46973
20
-2.55315
11
7.46606
21
-2.55242
0
LINE
8
BLACK
6
CONTINUOUS
10
7.46606
20
-2.55242
11
7.46295
21
-2.55034
0
LINE
8
BLACK
6
CONTINUOUS
10
7.46295
20
-2.55034
11
7.46087
21
-2.54723
0
LINE
8
BLACK
6
CONTINUOUS
10
7.46087
20
-2.54723
11
7.46014
21
-2.54355
0
LINE
8
BLACK
6
CONTINUOUS
10
7.46014
20
-2.54355
11
7.46014
21
-2.50763
0
LINE
8
BLACK
6
CONTINUOUS
10
7.46014
20
-2.50763
11
7.46087
21
-2.50396
0
LINE
8
BLACK
6
CONTINUOUS
10
7.46087
20
-2.50396
11
7.46295
21
-2.50084
0
LINE
8
BLACK
6
CONTINUOUS
10
7.46295
20
-2.50084
11
7.46606
21
-2.49876
0
LINE
8
BLACK
6
CONTINUOUS
10
7.46606
20
-2.49876
11
7.46973
21
-2.49803
0
LINE
8
BLACK
6
CONTINUOUS
10
7.46973
20
-2.49803
11
7.48893
21
-2.49803
0
LINE
8
BLACK
6
CONTINUOUS
10
7.48893
20
-2.49803
11
7.4926
21
-2.49876
0
LINE
8
BLACK
6
CONTINUOUS
10
5.85462
20
-2.52998
11
5.85654
21
-2.53126
0
LINE
8
BLACK
6
CONTINUOUS
10
5.85654
20
-2.53126
11
5.85782
21
-2.53317
0
LINE
8
BLACK
6
CONTINUOUS
10
5.85782
20
-2.53317
11
5.85827
21
-2.53543
0
LINE
8
BLACK
6
CONTINUOUS
10
5.85827
20
-2.53543
11
5.85827
21
-2.54724
0
LINE
8
BLACK
6
CONTINUOUS
10
5.85827
20
-2.54724
11
5.85782
21
-2.5495
0
LINE
8
BLACK
6
CONTINUOUS
10
5.85782
20
-2.5495
11
5.85654
21
-2.55142
0
LINE
8
BLACK
6
CONTINUOUS
10
5.85654
20
-2.55142
11
5.85462
21
-2.5527
0
LINE
8
BLACK
6
CONTINUOUS
10
5.85462
20
-2.5527
11
5.85236
21
-2.55315
0
LINE
8
BLACK
6
CONTINUOUS
10
5.85236
20
-2.55315
11
5.81201
21
-2.55315
0
LINE
8
BLACK
6
CONTINUOUS
10
5.81201
20
-2.55315
11
5.80975
21
-2.5527
0
LINE
8
BLACK
6
CONTINUOUS
10
5.80975
20
-2.5527
11
5.80783
21
-2.55142
0
LINE
8
BLACK
6
CONTINUOUS
10
5.80783
20
-2.55142
11
5.80655
21
-2.5495
0
LINE
8
BLACK
6
CONTINUOUS
10
5.80655
20
-2.5495
11
5.8061
21
-2.54724
0
LINE
8
BLACK
6
CONTINUOUS
10
5.8061
20
-2.54724
11
5.8061
21
-2.53543
0
LINE
8
BLACK
6
CONTINUOUS
10
5.8061
20
-2.53543
11
5.80655
21
-2.53317
0
LINE
8
BLACK
6
CONTINUOUS
10
5.80655
20
-2.53317
11
5.80783
21
-2.53126
0
LINE
8
BLACK
6
CONTINUOUS
10
5.80783
20
-2.53126
11
5.80975
21
-2.52998
0
LINE
8
BLACK
6
CONTINUOUS
10
5.80975
20
-2.52998
11
5.81201
21
-2.52953
0
LINE
8
BLACK
6
CONTINUOUS
10
5.81201
20
-2.52953
11
5.85236
21
-2.52953
0
LINE
8
BLACK
6
CONTINUOUS
10
5.85236
20
-2.52953
11
5.85462
21
-2.52998
0
LINE
8
BLACK
6
CONTINUOUS
10
5.76506
20
-2.52998
11
5.76697
21
-2.53126
0
LINE
8
BLACK
6
CONTINUOUS
10
5.76697
20
-2.53126
11
5.76825
21
-2.53317
0
LINE
8
BLACK
6
CONTINUOUS
10
5.76825
20
-2.53317
11
5.7687
21
-2.53543
0
LINE
8
BLACK
6
CONTINUOUS
10
5.7687
20
-2.53543
11
5.7687
21
-2.54724
0
LINE
8
BLACK
6
CONTINUOUS
10
5.7687
20
-2.54724
11
5.76825
21
-2.5495
0
LINE
8
BLACK
6
CONTINUOUS
10
5.76825
20
-2.5495
11
5.76697
21
-2.55142
0
LINE
8
BLACK
6
CONTINUOUS
10
5.76697
20
-2.55142
11
5.76506
21
-2.5527
0
LINE
8
BLACK
6
CONTINUOUS
10
5.76506
20
-2.5527
11
5.7628
21
-2.55315
0
LINE
8
BLACK
6
CONTINUOUS
10
5.7628
20
-2.55315
11
5.72244
21
-2.55315
0
LINE
8
BLACK
6
CONTINUOUS
10
5.72244
20
-2.55315
11
5.72018
21
-2.5527
0
LINE
8
BLACK
6
CONTINUOUS
10
5.72018
20
-2.5527
11
5.71827
21
-2.55142
0
LINE
8
BLACK
6
CONTINUOUS
10
5.71827
20
-2.55142
11
5.71698
21
-2.5495
0
LINE
8
BLACK
6
CONTINUOUS
10
5.71698
20
-2.5495
11
5.71654
21
-2.54724
0
LINE
8
BLACK
6
CONTINUOUS
10
5.71654
20
-2.54724
11
5.71654
21
-2.53543
0
LINE
8
BLACK
6
CONTINUOUS
10
5.71654
20
-2.53543
11
5.71698
21
-2.53317
0
LINE
8
BLACK
6
CONTINUOUS
10
5.71698
20
-2.53317
11
5.71827
21
-2.53126
0
LINE
8
BLACK
6
CONTINUOUS
10
5.71827
20
-2.53126
11
5.72018
21
-2.52998
0
LINE
8
BLACK
6
CONTINUOUS
10
5.72018
20
-2.52998
11
5.72244
21
-2.52953
0
LINE
8
BLACK
6
CONTINUOUS
10
5.72244
20
-2.52953
11
5.7628
21
-2.52953
0
LINE
8
BLACK
6
CONTINUOUS
10
5.7628
20
-2.52953
11
5.76506
21
-2.52998
0
LINE
8
BLACK
6
CONTINUOUS
10
7.38482
20
-2.49482
11
7.38794
21
-2.49691
0
LINE
8
BLACK
6
CONTINUOUS
10
7.38794
20
-2.49691
11
7.39002
21
-2.50002
0
LINE
8
BLACK
6
CONTINUOUS
10
7.39002
20
-2.50002
11
7.39075
21
-2.50369
0
LINE
8
BLACK
6
CONTINUOUS
10
7.39075
20
-2.50369
11
7.39075
21
-2.53962
0
LINE
8
BLACK
6
CONTINUOUS
10
7.39075
20
-2.53962
11
7.39002
21
-2.54329
0
LINE
8
BLACK
6
CONTINUOUS
10
7.39002
20
-2.54329
11
7.38794
21
-2.5464
0
LINE
8
BLACK
6
CONTINUOUS
10
7.38794
20
-2.5464
11
7.38482
21
-2.54848
0
LINE
8
BLACK
6
CONTINUOUS
10
7.38482
20
-2.54848
11
7.38115
21
-2.54921
0
LINE
8
BLACK
6
CONTINUOUS
10
7.38115
20
-2.54921
11
7.36196
21
-2.54921
0
LINE
8
BLACK
6
CONTINUOUS
10
7.36196
20
-2.54921
11
7.35829
21
-2.54848
0
LINE
8
BLACK
6
CONTINUOUS
10
7.35829
20
-2.54848
11
7.35517
21
-2.5464
0
LINE
8
BLACK
6
CONTINUOUS
10
7.35517
20
-2.5464
11
7.35309
21
-2.54329
0
LINE
8
BLACK
6
CONTINUOUS
10
7.35309
20
-2.54329
11
7.35236
21
-2.53962
0
LINE
8
BLACK
6
CONTINUOUS
10
7.35236
20
-2.53962
11
7.35236
21
-2.50369
0
LINE
8
BLACK
6
CONTINUOUS
10
7.35236
20
-2.50369
11
7.35309
21
-2.50002
0
LINE
8
BLACK
6
CONTINUOUS
10
7.35309
20
-2.50002
11
7.35517
21
-2.49691
0
LINE
8
BLACK
6
CONTINUOUS
10
7.35517
20
-2.49691
11
7.35829
21
-2.49482
0
LINE
8
BLACK
6
CONTINUOUS
10
7.35829
20
-2.49482
11
7.36196
21
-2.49409
0
LINE
8
BLACK
6
CONTINUOUS
10
7.36196
20
-2.49409
11
7.38115
21
-2.49409
0
LINE
8
BLACK
6
CONTINUOUS
10
7.38115
20
-2.49409
11
7.38482
21
-2.49482
0
LINE
8
BLACK
6
CONTINUOUS
10
7.31101
20
-2.49482
11
7.31412
21
-2.49691
0
LINE
8
BLACK
6
CONTINUOUS
10
7.31412
20
-2.49691
11
7.3162
21
-2.50002
0
LINE
8
BLACK
6
CONTINUOUS
10
7.3162
20
-2.50002
11
7.31693
21
-2.50369
0
LINE
8
BLACK
6
CONTINUOUS
10
7.31693
20
-2.50369
11
7.31693
21
-2.53962
0
LINE
8
BLACK
6
CONTINUOUS
10
7.31693
20
-2.53962
11
7.3162
21
-2.54329
0
LINE
8
BLACK
6
CONTINUOUS
10
7.3162
20
-2.54329
11
7.31412
21
-2.5464
0
LINE
8
BLACK
6
CONTINUOUS
10
7.31412
20
-2.5464
11
7.31101
21
-2.54848
0
LINE
8
BLACK
6
CONTINUOUS
10
7.31101
20
-2.54848
11
7.30733
21
-2.54921
0
LINE
8
BLACK
6
CONTINUOUS
10
7.30733
20
-2.54921
11
7.28814
21
-2.54921
0
LINE
8
BLACK
6
CONTINUOUS
10
7.28814
20
-2.54921
11
7.28447
21
-2.54848
0
LINE
8
BLACK
6
CONTINUOUS
10
7.28447
20
-2.54848
11
7.28135
21
-2.5464
0
LINE
8
BLACK
6
CONTINUOUS
10
7.28135
20
-2.5464
11
7.27927
21
-2.54329
0
LINE
8
BLACK
6
CONTINUOUS
10
7.27927
20
-2.54329
11
7.27854
21
-2.53962
0
LINE
8
BLACK
6
CONTINUOUS
10
7.27854
20
-2.53962
11
7.27854
21
-2.50369
0
LINE
8
BLACK
6
CONTINUOUS
10
7.27854
20
-2.50369
11
7.27927
21
-2.50002
0
LINE
8
BLACK
6
CONTINUOUS
10
7.27927
20
-2.50002
11
7.28135
21
-2.49691
0
LINE
8
BLACK
6
CONTINUOUS
10
7.28135
20
-2.49691
11
7.28447
21
-2.49482
0
LINE
8
BLACK
6
CONTINUOUS
10
7.28447
20
-2.49482
11
7.28814
21
-2.49409
0
LINE
8
BLACK
6
CONTINUOUS
10
7.28814
20
-2.49409
11
7.30733
21
-2.49409
0
LINE
8
BLACK
6
CONTINUOUS
10
7.30733
20
-2.49409
11
7.31101
21
-2.49482
0
LINE
8
BLACK
6
CONTINUOUS
10
5.42224
20
-2.54528
11
5.3435
21
-2.54528
0
LINE
8
BLACK
6
CONTINUOUS
10
5.3435
20
-2.54528
11
5.3435
21
-2.52559
0
LINE
8
BLACK
6
CONTINUOUS
10
5.3435
20
-2.52559
11
5.42224
21
-2.52559
0
LINE
8
BLACK
6
CONTINUOUS
10
5.42224
20
-2.52559
11
5.42224
21
-2.54528
0
LINE
8
BLACK
6
CONTINUOUS
10
6.97638
20
-2.52461
11
6.91732
21
-2.52461
0
LINE
8
BLACK
6
CONTINUOUS
10
6.91732
20
-2.52461
11
6.91732
21
-2.50295
0
LINE
8
BLACK
6
CONTINUOUS
10
6.91732
20
-2.50295
11
6.97638
21
-2.50295
0
LINE
8
BLACK
6
CONTINUOUS
10
6.97638
20
-2.50295
11
6.97638
21
-2.52461
0
LINE
8
BLACK
6
CONTINUOUS
10
6.52756
20
-2.52461
11
6.4685
21
-2.52461
0
LINE
8
BLACK
6
CONTINUOUS
10
6.4685
20
-2.52461
11
6.4685
21
-2.50295
0
LINE
8
BLACK
6
CONTINUOUS
10
6.4685
20
-2.50295
11
6.52756
21
-2.50295
0
LINE
8
BLACK
6
CONTINUOUS
10
6.52756
20
-2.50295
11
6.52756
21
-2.52461
0
LINE
8
BLACK
6
CONTINUOUS
10
6.43646
20
-2.48197
11
6.43933
21
-2.48389
0
LINE
8
BLACK
6
CONTINUOUS
10
6.43933
20
-2.48389
11
6.44125
21
-2.48677
0
LINE
8
BLACK
6
CONTINUOUS
10
6.44125
20
-2.48677
11
6.44193
21
-2.49016
0
LINE
8
BLACK
6
CONTINUOUS
10
6.44193
20
-2.49016
11
6.44193
21
-2.50984
0
LINE
8
BLACK
6
CONTINUOUS
10
6.44193
20
-2.50984
11
6.44125
21
-2.51323
0
LINE
8
BLACK
6
CONTINUOUS
10
6.44125
20
-2.51323
11
6.43933
21
-2.51611
0
LINE
8
BLACK
6
CONTINUOUS
10
6.43933
20
-2.51611
11
6.43646
21
-2.51803
0
LINE
8
BLACK
6
CONTINUOUS
10
6.43646
20
-2.51803
11
6.43307
21
-2.5187
0
LINE
8
BLACK
6
CONTINUOUS
10
6.43307
20
-2.5187
11
6.41535
21
-2.5187
0
LINE
8
BLACK
6
CONTINUOUS
10
6.41535
20
-2.5187
11
6.41196
21
-2.51803
0
LINE
8
BLACK
6
CONTINUOUS
10
6.41196
20
-2.51803
11
6.40909
21
-2.51611
0
LINE
8
BLACK
6
CONTINUOUS
10
6.40909
20
-2.51611
11
6.40717
21
-2.51323
0
LINE
8
BLACK
6
CONTINUOUS
10
6.40717
20
-2.51323
11
6.4065
21
-2.50984
0
LINE
8
BLACK
6
CONTINUOUS
10
6.4065
20
-2.50984
11
6.4065
21
-2.49016
0
LINE
8
BLACK
6
CONTINUOUS
10
6.4065
20
-2.49016
11
6.40717
21
-2.48677
0
LINE
8
BLACK
6
CONTINUOUS
10
6.40717
20
-2.48677
11
6.40909
21
-2.48389
0
LINE
8
BLACK
6
CONTINUOUS
10
6.40909
20
-2.48389
11
6.41196
21
-2.48197
0
LINE
8
BLACK
6
CONTINUOUS
10
6.41196
20
-2.48197
11
6.41535
21
-2.4813
0
LINE
8
BLACK
6
CONTINUOUS
10
6.41535
20
-2.4813
11
6.43307
21
-2.4813
0
LINE
8
BLACK
6
CONTINUOUS
10
6.43307
20
-2.4813
11
6.43646
21
-2.48197
0
LINE
8
BLACK
6
CONTINUOUS
10
6.37544
20
-2.48197
11
6.37831
21
-2.48389
0
LINE
8
BLACK
6
CONTINUOUS
10
6.37831
20
-2.48389
11
6.38023
21
-2.48677
0
LINE
8
BLACK
6
CONTINUOUS
10
6.38023
20
-2.48677
11
6.38091
21
-2.49016
0
LINE
8
BLACK
6
CONTINUOUS
10
6.38091
20
-2.49016
11
6.38091
21
-2.50984
0
LINE
8
BLACK
6
CONTINUOUS
10
6.38091
20
-2.50984
11
6.38023
21
-2.51323
0
LINE
8
BLACK
6
CONTINUOUS
10
6.38023
20
-2.51323
11
6.37831
21
-2.51611
0
LINE
8
BLACK
6
CONTINUOUS
10
6.37831
20
-2.51611
11
6.37544
21
-2.51803
0
LINE
8
BLACK
6
CONTINUOUS
10
6.37544
20
-2.51803
11
6.37205
21
-2.5187
0
LINE
8
BLACK
6
CONTINUOUS
10
6.37205
20
-2.5187
11
6.35433
21
-2.5187
0
LINE
8
BLACK
6
CONTINUOUS
10
6.35433
20
-2.5187
11
6.35094
21
-2.51803
0
LINE
8
BLACK
6
CONTINUOUS
10
6.35094
20
-2.51803
11
6.34807
21
-2.51611
0
LINE
8
BLACK
6
CONTINUOUS
10
6.34807
20
-2.51611
11
6.34615
21
-2.51323
0
LINE
8
BLACK
6
CONTINUOUS
10
6.34615
20
-2.51323
11
6.34547
21
-2.50984
0
LINE
8
BLACK
6
CONTINUOUS
10
6.34547
20
-2.50984
11
6.34547
21
-2.49016
0
LINE
8
BLACK
6
CONTINUOUS
10
6.34547
20
-2.49016
11
6.34615
21
-2.48677
0
LINE
8
BLACK
6
CONTINUOUS
10
6.34615
20
-2.48677
11
6.34807
21
-2.48389
0
LINE
8
BLACK
6
CONTINUOUS
10
6.34807
20
-2.48389
11
6.35094
21
-2.48197
0
LINE
8
BLACK
6
CONTINUOUS
10
6.35094
20
-2.48197
11
6.35433
21
-2.4813
0
LINE
8
BLACK
6
CONTINUOUS
10
6.35433
20
-2.4813
11
6.37205
21
-2.4813
0
LINE
8
BLACK
6
CONTINUOUS
10
6.37205
20
-2.4813
11
6.37544
21
-2.48197
0
LINE
8
BLACK
6
CONTINUOUS
10
5.85462
20
-2.49258
11
5.85654
21
-2.49386
0
LINE
8
BLACK
6
CONTINUOUS
10
5.85654
20
-2.49386
11
5.85782
21
-2.49577
0
LINE
8
BLACK
6
CONTINUOUS
10
5.85782
20
-2.49577
11
5.85827
21
-2.49803
0
LINE
8
BLACK
6
CONTINUOUS
10
5.85827
20
-2.49803
11
5.85827
21
-2.50984
0
LINE
8
BLACK
6
CONTINUOUS
10
5.85827
20
-2.50984
11
5.85782
21
-2.5121
0
LINE
8
BLACK
6
CONTINUOUS
10
5.85782
20
-2.5121
11
5.85654
21
-2.51402
0
LINE
8
BLACK
6
CONTINUOUS
10
5.85654
20
-2.51402
11
5.85462
21
-2.5153
0
LINE
8
BLACK
6
CONTINUOUS
10
5.85462
20
-2.5153
11
5.85236
21
-2.51575
0
LINE
8
BLACK
6
CONTINUOUS
10
5.85236
20
-2.51575
11
5.81201
21
-2.51575
0
LINE
8
BLACK
6
CONTINUOUS
10
5.81201
20
-2.51575
11
5.80975
21
-2.5153
0
LINE
8
BLACK
6
CONTINUOUS
10
5.80975
20
-2.5153
11
5.80783
21
-2.51402
0
LINE
8
BLACK
6
CONTINUOUS
10
5.80783
20
-2.51402
11
5.80655
21
-2.5121
0
LINE
8
BLACK
6
CONTINUOUS
10
5.80655
20
-2.5121
11
5.8061
21
-2.50984
0
LINE
8
BLACK
6
CONTINUOUS
10
5.8061
20
-2.50984
11
5.8061
21
-2.49803
0
LINE
8
BLACK
6
CONTINUOUS
10
5.8061
20
-2.49803
11
5.80655
21
-2.49577
0
LINE
8
BLACK
6
CONTINUOUS
10
5.80655
20
-2.49577
11
5.80783
21
-2.49386
0
LINE
8
BLACK
6
CONTINUOUS
10
5.80783
20
-2.49386
11
5.80975
21
-2.49258
0
LINE
8
BLACK
6
CONTINUOUS
10
5.80975
20
-2.49258
11
5.81201
21
-2.49213
0
LINE
8
BLACK
6
CONTINUOUS
10
5.81201
20
-2.49213
11
5.85236
21
-2.49213
0
LINE
8
BLACK
6
CONTINUOUS
10
5.85236
20
-2.49213
11
5.85462
21
-2.49258
0
LINE
8
BLACK
6
CONTINUOUS
10
5.76506
20
-2.49258
11
5.76697
21
-2.49386
0
LINE
8
BLACK
6
CONTINUOUS
10
5.76697
20
-2.49386
11
5.76825
21
-2.49577
0
LINE
8
BLACK
6
CONTINUOUS
10
5.76825
20
-2.49577
11
5.7687
21
-2.49803
0
LINE
8
BLACK
6
CONTINUOUS
10
5.7687
20
-2.49803
11
5.7687
21
-2.50984
0
LINE
8
BLACK
6
CONTINUOUS
10
5.7687
20
-2.50984
11
5.76825
21
-2.5121
0
LINE
8
BLACK
6
CONTINUOUS
10
5.76825
20
-2.5121
11
5.76697
21
-2.51402
0
LINE
8
BLACK
6
CONTINUOUS
10
5.76697
20
-2.51402
11
5.76506
21
-2.5153
0
LINE
8
BLACK
6
CONTINUOUS
10
5.76506
20
-2.5153
11
5.7628
21
-2.51575
0
LINE
8
BLACK
6
CONTINUOUS
10
5.7628
20
-2.51575
11
5.72244
21
-2.51575
0
LINE
8
BLACK
6
CONTINUOUS
10
5.72244
20
-2.51575
11
5.72018
21
-2.5153
0
LINE
8
BLACK
6
CONTINUOUS
10
5.72018
20
-2.5153
11
5.71827
21
-2.51402
0
LINE
8
BLACK
6
CONTINUOUS
10
5.71827
20
-2.51402
11
5.71698
21
-2.5121
0
LINE
8
BLACK
6
CONTINUOUS
10
5.71698
20
-2.5121
11
5.71654
21
-2.50984
0
LINE
8
BLACK
6
CONTINUOUS
10
5.71654
20
-2.50984
11
5.71654
21
-2.49803
0
LINE
8
BLACK
6
CONTINUOUS
10
5.71654
20
-2.49803
11
5.71698
21
-2.49577
0
LINE
8
BLACK
6
CONTINUOUS
10
5.71698
20
-2.49577
11
5.71827
21
-2.49386
0
LINE
8
BLACK
6
CONTINUOUS
10
5.71827
20
-2.49386
11
5.72018
21
-2.49258
0
LINE
8
BLACK
6
CONTINUOUS
10
5.72018
20
-2.49258
11
5.72244
21
-2.49213
0
LINE
8
BLACK
6
CONTINUOUS
10
5.72244
20
-2.49213
11
5.7628
21
-2.49213
0
LINE
8
BLACK
6
CONTINUOUS
10
5.7628
20
-2.49213
11
5.76506
21
-2.49258
0
LINE
8
BLACK
6
CONTINUOUS
10
5.42224
20
-2.51378
11
5.3435
21
-2.51378
0
LINE
8
BLACK
6
CONTINUOUS
10
5.3435
20
-2.51378
11
5.3435
21
-2.49409
0
LINE
8
BLACK
6
CONTINUOUS
10
5.3435
20
-2.49409
11
5.42224
21
-2.49409
0
LINE
8
BLACK
6
CONTINUOUS
10
5.42224
20
-2.49409
11
5.42224
21
-2.51378
0
LINE
8
BLACK
6
CONTINUOUS
10
6.97638
20
-2.49311
11
6.91732
21
-2.49311
0
LINE
8
BLACK
6
CONTINUOUS
10
6.91732
20
-2.49311
11
6.91732
21
-2.47146
0
LINE
8
BLACK
6
CONTINUOUS
10
6.91732
20
-2.47146
11
6.97638
21
-2.47146
0
LINE
8
BLACK
6
CONTINUOUS
10
6.97638
20
-2.47146
11
6.97638
21
-2.49311
0
LINE
8
BLACK
6
CONTINUOUS
10
6.52756
20
-2.49311
11
6.4685
21
-2.49311
0
LINE
8
BLACK
6
CONTINUOUS
10
6.4685
20
-2.49311
11
6.4685
21
-2.47146
0
LINE
8
BLACK
6
CONTINUOUS
10
6.4685
20
-2.47146
11
6.52756
21
-2.47146
0
LINE
8
BLACK
6
CONTINUOUS
10
6.52756
20
-2.47146
11
6.52756
21
-2.49311
0
LINE
8
BLACK
6
CONTINUOUS
10
5.58471
20
-2.4504
11
5.58726
21
-2.45211
0
LINE
8
BLACK
6
CONTINUOUS
10
5.58726
20
-2.45211
11
5.58897
21
-2.45466
0
LINE
8
BLACK
6
CONTINUOUS
10
5.58897
20
-2.45466
11
5.58957
21
-2.45768
0
LINE
8
BLACK
6
CONTINUOUS
10
5.58957
20
-2.45768
11
5.58957
21
-2.47933
0
LINE
8
BLACK
6
CONTINUOUS
10
5.58957
20
-2.47933
11
5.58897
21
-2.48234
0
LINE
8
BLACK
6
CONTINUOUS
10
5.58897
20
-2.48234
11
5.58726
21
-2.4849
0
LINE
8
BLACK
6
CONTINUOUS
10
5.58726
20
-2.4849
11
5.58471
21
-2.48661
0
LINE
8
BLACK
6
CONTINUOUS
10
5.58471
20
-2.48661
11
5.58169
21
-2.4872
0
LINE
8
BLACK
6
CONTINUOUS
10
5.58169
20
-2.4872
11
5.56594
21
-2.4872
0
LINE
8
BLACK
6
CONTINUOUS
10
5.56594
20
-2.4872
11
5.56293
21
-2.48661
0
LINE
8
BLACK
6
CONTINUOUS
10
5.56293
20
-2.48661
11
5.56038
21
-2.4849
0
LINE
8
BLACK
6
CONTINUOUS
10
5.56038
20
-2.4849
11
5.55867
21
-2.48234
0
LINE
8
BLACK
6
CONTINUOUS
10
5.55867
20
-2.48234
11
5.55807
21
-2.47933
0
LINE
8
BLACK
6
CONTINUOUS
10
5.55807
20
-2.47933
11
5.55807
21
-2.45768
0
LINE
8
BLACK
6
CONTINUOUS
10
5.55807
20
-2.45768
11
5.55867
21
-2.45466
0
LINE
8
BLACK
6
CONTINUOUS
10
5.55867
20
-2.45466
11
5.56038
21
-2.45211
0
LINE
8
BLACK
6
CONTINUOUS
10
5.56038
20
-2.45211
11
5.56293
21
-2.4504
0
LINE
8
BLACK
6
CONTINUOUS
10
5.56293
20
-2.4504
11
5.56594
21
-2.4498
0
LINE
8
BLACK
6
CONTINUOUS
10
5.56594
20
-2.4498
11
5.58169
21
-2.4498
0
LINE
8
BLACK
6
CONTINUOUS
10
5.58169
20
-2.4498
11
5.58471
21
-2.4504
0
LINE
8
BLACK
6
CONTINUOUS
10
5.51975
20
-2.4504
11
5.5223
21
-2.45211
0
LINE
8
BLACK
6
CONTINUOUS
10
5.5223
20
-2.45211
11
5.52401
21
-2.45466
0
LINE
8
BLACK
6
CONTINUOUS
10
5.52401
20
-2.45466
11
5.52461
21
-2.45768
0
LINE
8
BLACK
6
CONTINUOUS
10
5.52461
20
-2.45768
11
5.52461
21
-2.47933
0
LINE
8
BLACK
6
CONTINUOUS
10
5.52461
20
-2.47933
11
5.52401
21
-2.48234
0
LINE
8
BLACK
6
CONTINUOUS
10
5.52401
20
-2.48234
11
5.5223
21
-2.4849
0
LINE
8
BLACK
6
CONTINUOUS
10
5.5223
20
-2.4849
11
5.51975
21
-2.48661
0
LINE
8
BLACK
6
CONTINUOUS
10
5.51975
20
-2.48661
11
5.51673
21
-2.4872
0
LINE
8
BLACK
6
CONTINUOUS
10
5.51673
20
-2.4872
11
5.50098
21
-2.4872
0
LINE
8
BLACK
6
CONTINUOUS
10
5.50098
20
-2.4872
11
5.49797
21
-2.48661
0
LINE
8
BLACK
6
CONTINUOUS
10
5.49797
20
-2.48661
11
5.49542
21
-2.4849
0
LINE
8
BLACK
6
CONTINUOUS
10
5.49542
20
-2.4849
11
5.49371
21
-2.48234
0
LINE
8
BLACK
6
CONTINUOUS
10
5.49371
20
-2.48234
11
5.49311
21
-2.47933
0
LINE
8
BLACK
6
CONTINUOUS
10
5.49311
20
-2.47933
11
5.49311
21
-2.45768
0
LINE
8
BLACK
6
CONTINUOUS
10
5.49311
20
-2.45768
11
5.49371
21
-2.45466
0
LINE
8
BLACK
6
CONTINUOUS
10
5.49371
20
-2.45466
11
5.49542
21
-2.45211
0
LINE
8
BLACK
6
CONTINUOUS
10
5.49542
20
-2.45211
11
5.49797
21
-2.4504
0
LINE
8
BLACK
6
CONTINUOUS
10
5.49797
20
-2.4504
11
5.50098
21
-2.4498
0
LINE
8
BLACK
6
CONTINUOUS
10
5.50098
20
-2.4498
11
5.51673
21
-2.4498
0
LINE
8
BLACK
6
CONTINUOUS
10
5.51673
20
-2.4498
11
5.51975
21
-2.4504
0
LINE
8
BLACK
6
CONTINUOUS
10
5.42224
20
-2.48228
11
5.3435
21
-2.48228
0
LINE
8
BLACK
6
CONTINUOUS
10
5.3435
20
-2.48228
11
5.3435
21
-2.4626
0
LINE
8
BLACK
6
CONTINUOUS
10
5.3435
20
-2.4626
11
5.42224
21
-2.4626
0
LINE
8
BLACK
6
CONTINUOUS
10
5.42224
20
-2.4626
11
5.42224
21
-2.48228
0
LINE
8
BLACK
6
CONTINUOUS
10
5.85462
20
-2.45517
11
5.85654
21
-2.45645
0
LINE
8
BLACK
6
CONTINUOUS
10
5.85654
20
-2.45645
11
5.85782
21
-2.45837
0
LINE
8
BLACK
6
CONTINUOUS
10
5.85782
20
-2.45837
11
5.85827
21
-2.46063
0
LINE
8
BLACK
6
CONTINUOUS
10
5.85827
20
-2.46063
11
5.85827
21
-2.47244
0
LINE
8
BLACK
6
CONTINUOUS
10
5.85827
20
-2.47244
11
5.85782
21
-2.4747
0
LINE
8
BLACK
6
CONTINUOUS
10
5.85782
20
-2.4747
11
5.85654
21
-2.47662
0
LINE
8
BLACK
6
CONTINUOUS
10
5.85654
20
-2.47662
11
5.85462
21
-2.4779
0
LINE
8
BLACK
6
CONTINUOUS
10
5.85462
20
-2.4779
11
5.85236
21
-2.47835
0
LINE
8
BLACK
6
CONTINUOUS
10
5.85236
20
-2.47835
11
5.81201
21
-2.47835
0
LINE
8
BLACK
6
CONTINUOUS
10
5.81201
20
-2.47835
11
5.80975
21
-2.4779
0
LINE
8
BLACK
6
CONTINUOUS
10
5.80975
20
-2.4779
11
5.80783
21
-2.47662
0
LINE
8
BLACK
6
CONTINUOUS
10
5.80783
20
-2.47662
11
5.80655
21
-2.4747
0
LINE
8
BLACK
6
CONTINUOUS
10
5.80655
20
-2.4747
11
5.8061
21
-2.47244
0
LINE
8
BLACK
6
CONTINUOUS
10
5.8061
20
-2.47244
11
5.8061
21
-2.46063
0
LINE
8
BLACK
6
CONTINUOUS
10
5.8061
20
-2.46063
11
5.80655
21
-2.45837
0
LINE
8
BLACK
6
CONTINUOUS
10
5.80655
20
-2.45837
11
5.80783
21
-2.45645
0
LINE
8
BLACK
6
CONTINUOUS
10
5.80783
20
-2.45645
11
5.80975
21
-2.45517
0
LINE
8
BLACK
6
CONTINUOUS
10
5.80975
20
-2.45517
11
5.81201
21
-2.45472
0
LINE
8
BLACK
6
CONTINUOUS
10
5.81201
20
-2.45472
11
5.85236
21
-2.45472
0
LINE
8
BLACK
6
CONTINUOUS
10
5.85236
20
-2.45472
11
5.85462
21
-2.45517
0
LINE
8
BLACK
6
CONTINUOUS
10
5.76506
20
-2.45517
11
5.76697
21
-2.45645
0
LINE
8
BLACK
6
CONTINUOUS
10
5.76697
20
-2.45645
11
5.76825
21
-2.45837
0
LINE
8
BLACK
6
CONTINUOUS
10
5.76825
20
-2.45837
11
5.7687
21
-2.46063
0
LINE
8
BLACK
6
CONTINUOUS
10
5.7687
20
-2.46063
11
5.7687
21
-2.47244
0
LINE
8
BLACK
6
CONTINUOUS
10
5.7687
20
-2.47244
11
5.76825
21
-2.4747
0
LINE
8
BLACK
6
CONTINUOUS
10
5.76825
20
-2.4747
11
5.76697
21
-2.47662
0
LINE
8
BLACK
6
CONTINUOUS
10
5.76697
20
-2.47662
11
5.76506
21
-2.4779
0
LINE
8
BLACK
6
CONTINUOUS
10
5.76506
20
-2.4779
11
5.7628
21
-2.47835
0
LINE
8
BLACK
6
CONTINUOUS
10
5.7628
20
-2.47835
11
5.72244
21
-2.47835
0
LINE
8
BLACK
6
CONTINUOUS
10
5.72244
20
-2.47835
11
5.72018
21
-2.4779
0
LINE
8
BLACK
6
CONTINUOUS
10
5.72018
20
-2.4779
11
5.71827
21
-2.47662
0
LINE
8
BLACK
6
CONTINUOUS
10
5.71827
20
-2.47662
11
5.71698
21
-2.4747
0
LINE
8
BLACK
6
CONTINUOUS
10
5.71698
20
-2.4747
11
5.71654
21
-2.47244
0
LINE
8
BLACK
6
CONTINUOUS
10
5.71654
20
-2.47244
11
5.71654
21
-2.46063
0
LINE
8
BLACK
6
CONTINUOUS
10
5.71654
20
-2.46063
11
5.71698
21
-2.45837
0
LINE
8
BLACK
6
CONTINUOUS
10
5.71698
20
-2.45837
11
5.71827
21
-2.45645
0
LINE
8
BLACK
6
CONTINUOUS
10
5.71827
20
-2.45645
11
5.72018
21
-2.45517
0
LINE
8
BLACK
6
CONTINUOUS
10
5.72018
20
-2.45517
11
5.72244
21
-2.45472
0
LINE
8
BLACK
6
CONTINUOUS
10
5.72244
20
-2.45472
11
5.7628
21
-2.45472
0
LINE
8
BLACK
6
CONTINUOUS
10
5.7628
20
-2.45472
11
5.76506
21
-2.45517
0
LINE
8
BLACK
6
CONTINUOUS
10
6.43684
20
-2.39937
11
6.44003
21
-2.4015
0
LINE
8
BLACK
6
CONTINUOUS
10
6.44003
20
-2.4015
11
6.44216
21
-2.4047
0
LINE
8
BLACK
6
CONTINUOUS
10
6.44216
20
-2.4047
11
6.44291
21
-2.40846
0
LINE
8
BLACK
6
CONTINUOUS
10
6.44291
20
-2.40846
11
6.44291
21
-2.44587
0
LINE
8
BLACK
6
CONTINUOUS
10
6.44291
20
-2.44587
11
6.44216
21
-2.44963
0
LINE
8
BLACK
6
CONTINUOUS
10
6.44216
20
-2.44963
11
6.44003
21
-2.45283
0
LINE
8
BLACK
6
CONTINUOUS
10
6.44003
20
-2.45283
11
6.43684
21
-2.45496
0
LINE
8
BLACK
6
CONTINUOUS
10
6.43684
20
-2.45496
11
6.43307
21
-2.45571
0
LINE
8
BLACK
6
CONTINUOUS
10
6.43307
20
-2.45571
11
6.41339
21
-2.45571
0
LINE
8
BLACK
6
CONTINUOUS
10
6.41339
20
-2.45571
11
6.40962
21
-2.45496
0
LINE
8
BLACK
6
CONTINUOUS
10
6.40962
20
-2.45496
11
6.40643
21
-2.45283
0
LINE
8
BLACK
6
CONTINUOUS
10
6.40643
20
-2.45283
11
6.40429
21
-2.44963
0
LINE
8
BLACK
6
CONTINUOUS
10
6.40429
20
-2.44963
11
6.40354
21
-2.44587
0
LINE
8
BLACK
6
CONTINUOUS
10
6.40354
20
-2.44587
11
6.40354
21
-2.40846
0
LINE
8
BLACK
6
CONTINUOUS
10
6.40354
20
-2.40846
11
6.40429
21
-2.4047
0
LINE
8
BLACK
6
CONTINUOUS
10
6.40429
20
-2.4047
11
6.40643
21
-2.4015
0
LINE
8
BLACK
6
CONTINUOUS
10
6.40643
20
-2.4015
11
6.40962
21
-2.39937
0
LINE
8
BLACK
6
CONTINUOUS
10
6.40962
20
-2.39937
11
6.41339
21
-2.39862
0
LINE
8
BLACK
6
CONTINUOUS
10
6.41339
20
-2.39862
11
6.43307
21
-2.39862
0
LINE
8
BLACK
6
CONTINUOUS
10
6.43307
20
-2.39862
11
6.43684
21
-2.39937
0
LINE
8
BLACK
6
CONTINUOUS
10
6.36203
20
-2.39937
11
6.36523
21
-2.4015
0
LINE
8
BLACK
6
CONTINUOUS
10
6.36523
20
-2.4015
11
6.36736
21
-2.4047
0
LINE
8
BLACK
6
CONTINUOUS
10
6.36736
20
-2.4047
11
6.36811
21
-2.40846
0
LINE
8
BLACK
6
CONTINUOUS
10
6.36811
20
-2.40846
11
6.36811
21
-2.44587
0
LINE
8
BLACK
6
CONTINUOUS
10
6.36811
20
-2.44587
11
6.36736
21
-2.44963
0
LINE
8
BLACK
6
CONTINUOUS
10
6.36736
20
-2.44963
11
6.36523
21
-2.45283
0
LINE
8
BLACK
6
CONTINUOUS
10
6.36523
20
-2.45283
11
6.36203
21
-2.45496
0
LINE
8
BLACK
6
CONTINUOUS
10
6.36203
20
-2.45496
11
6.35827
21
-2.45571
0
LINE
8
BLACK
6
CONTINUOUS
10
6.35827
20
-2.45571
11
6.33858
21
-2.45571
0
LINE
8
BLACK
6
CONTINUOUS
10
6.33858
20
-2.45571
11
6.33482
21
-2.45496
0
LINE
8
BLACK
6
CONTINUOUS
10
6.33482
20
-2.45496
11
6.33162
21
-2.45283
0
LINE
8
BLACK
6
CONTINUOUS
10
6.33162
20
-2.45283
11
6.32949
21
-2.44963
0
LINE
8
BLACK
6
CONTINUOUS
10
6.32949
20
-2.44963
11
6.32874
21
-2.44587
0
LINE
8
BLACK
6
CONTINUOUS
10
6.32874
20
-2.44587
11
6.32874
21
-2.40846
0
LINE
8
BLACK
6
CONTINUOUS
10
6.32874
20
-2.40846
11
6.32949
21
-2.4047
0
LINE
8
BLACK
6
CONTINUOUS
10
6.32949
20
-2.4047
11
6.33162
21
-2.4015
0
LINE
8
BLACK
6
CONTINUOUS
10
6.33162
20
-2.4015
11
6.33482
21
-2.39937
0
LINE
8
BLACK
6
CONTINUOUS
10
6.33482
20
-2.39937
11
6.33858
21
-2.39862
0
LINE
8
BLACK
6
CONTINUOUS
10
6.33858
20
-2.39862
11
6.35827
21
-2.39862
0
LINE
8
BLACK
6
CONTINUOUS
10
6.35827
20
-2.39862
11
6.36203
21
-2.39937
0
LINE
8
BLACK
6
CONTINUOUS
10
6.89075
20
-2.44488
11
6.86909
21
-2.44488
0
LINE
8
BLACK
6
CONTINUOUS
10
6.86909
20
-2.44488
11
6.86909
21
-2.38583
0
LINE
8
BLACK
6
CONTINUOUS
10
6.86909
20
-2.38583
11
6.89075
21
-2.38583
0
LINE
8
BLACK
6
CONTINUOUS
10
6.89075
20
-2.38583
11
6.89075
21
-2.44488
0
LINE
8
BLACK
6
CONTINUOUS
10
6.85925
20
-2.44488
11
6.8376
21
-2.44488
0
LINE
8
BLACK
6
CONTINUOUS
10
6.8376
20
-2.44488
11
6.8376
21
-2.38583
0
LINE
8
BLACK
6
CONTINUOUS
10
6.8376
20
-2.38583
11
6.85925
21
-2.38583
0
LINE
8
BLACK
6
CONTINUOUS
10
6.85925
20
-2.38583
11
6.85925
21
-2.44488
0
LINE
8
BLACK
6
CONTINUOUS
10
6.82776
20
-2.44488
11
6.8061
21
-2.44488
0
LINE
8
BLACK
6
CONTINUOUS
10
6.8061
20
-2.44488
11
6.8061
21
-2.38583
0
LINE
8
BLACK
6
CONTINUOUS
10
6.8061
20
-2.38583
11
6.82776
21
-2.38583
0
LINE
8
BLACK
6
CONTINUOUS
10
6.82776
20
-2.38583
11
6.82776
21
-2.44488
0
LINE
8
BLACK
6
CONTINUOUS
10
6.79626
20
-2.44488
11
6.77461
21
-2.44488
0
LINE
8
BLACK
6
CONTINUOUS
10
6.77461
20
-2.44488
11
6.77461
21
-2.38583
0
LINE
8
BLACK
6
CONTINUOUS
10
6.77461
20
-2.38583
11
6.79626
21
-2.38583
0
LINE
8
BLACK
6
CONTINUOUS
10
6.79626
20
-2.38583
11
6.79626
21
-2.44488
0
LINE
8
BLACK
6
CONTINUOUS
10
6.76476
20
-2.44488
11
6.74311
21
-2.44488
0
LINE
8
BLACK
6
CONTINUOUS
10
6.74311
20
-2.44488
11
6.74311
21
-2.38583
0
LINE
8
BLACK
6
CONTINUOUS
10
6.74311
20
-2.38583
11
6.76476
21
-2.38583
0
LINE
8
BLACK
6
CONTINUOUS
10
6.76476
20
-2.38583
11
6.76476
21
-2.44488
0
LINE
8
BLACK
6
CONTINUOUS
10
6.73327
20
-2.44488
11
6.71161
21
-2.44488
0
LINE
8
BLACK
6
CONTINUOUS
10
6.71161
20
-2.44488
11
6.71161
21
-2.38583
0
LINE
8
BLACK
6
CONTINUOUS
10
6.71161
20
-2.38583
11
6.73327
21
-2.38583
0
LINE
8
BLACK
6
CONTINUOUS
10
6.73327
20
-2.38583
11
6.73327
21
-2.44488
0
LINE
8
BLACK
6
CONTINUOUS
10
6.70177
20
-2.44488
11
6.68012
21
-2.44488
0
LINE
8
BLACK
6
CONTINUOUS
10
6.68012
20
-2.44488
11
6.68012
21
-2.38583
0
LINE
8
BLACK
6
CONTINUOUS
10
6.68012
20
-2.38583
11
6.70177
21
-2.38583
0
LINE
8
BLACK
6
CONTINUOUS
10
6.70177
20
-2.38583
11
6.70177
21
-2.44488
0
LINE
8
BLACK
6
CONTINUOUS
10
6.67028
20
-2.44488
11
6.64862
21
-2.44488
0
LINE
8
BLACK
6
CONTINUOUS
10
6.64862
20
-2.44488
11
6.64862
21
-2.38583
0
LINE
8
BLACK
6
CONTINUOUS
10
6.64862
20
-2.38583
11
6.67028
21
-2.38583
0
LINE
8
BLACK
6
CONTINUOUS
10
6.67028
20
-2.38583
11
6.67028
21
-2.44488
0
LINE
8
BLACK
6
CONTINUOUS
10
6.63878
20
-2.44488
11
6.61713
21
-2.44488
0
LINE
8
BLACK
6
CONTINUOUS
10
6.61713
20
-2.44488
11
6.61713
21
-2.38583
0
LINE
8
BLACK
6
CONTINUOUS
10
6.61713
20
-2.38583
11
6.63878
21
-2.38583
0
LINE
8
BLACK
6
CONTINUOUS
10
6.63878
20
-2.38583
11
6.63878
21
-2.44488
0
LINE
8
BLACK
6
CONTINUOUS
10
6.60728
20
-2.44488
11
6.58563
21
-2.44488
0
LINE
8
BLACK
6
CONTINUOUS
10
6.58563
20
-2.44488
11
6.58563
21
-2.38583
0
LINE
8
BLACK
6
CONTINUOUS
10
6.58563
20
-2.38583
11
6.60728
21
-2.38583
0
LINE
8
BLACK
6
CONTINUOUS
10
6.60728
20
-2.38583
11
6.60728
21
-2.44488
0
LINE
8
BLACK
6
CONTINUOUS
10
6.57579
20
-2.44488
11
6.55413
21
-2.44488
0
LINE
8
BLACK
6
CONTINUOUS
10
6.55413
20
-2.44488
11
6.55413
21
-2.38583
0
LINE
8
BLACK
6
CONTINUOUS
10
6.55413
20
-2.38583
11
6.57579
21
-2.38583
0
LINE
8
BLACK
6
CONTINUOUS
10
6.57579
20
-2.38583
11
6.57579
21
-2.44488
0
LINE
8
BLACK
6
CONTINUOUS
10
5.4124
20
-2.39961
11
5.34547
21
-2.39961
0
LINE
8
BLACK
6
CONTINUOUS
10
5.34547
20
-2.39961
11
5.34547
21
-2.32087
0
LINE
8
BLACK
6
CONTINUOUS
10
5.34547
20
-2.32087
11
5.4124
21
-2.32087
0
LINE
8
BLACK
6
CONTINUOUS
10
5.4124
20
-2.32087
11
5.4124
21
-2.39961
0
LINE
8
BLACK
6
CONTINUOUS
10
5.19783
20
-2.39961
11
5.13091
21
-2.39961
0
LINE
8
BLACK
6
CONTINUOUS
10
5.13091
20
-2.39961
11
5.13091
21
-2.32087
0
LINE
8
BLACK
6
CONTINUOUS
10
5.13091
20
-2.32087
11
5.19783
21
-2.32087
0
LINE
8
BLACK
6
CONTINUOUS
10
5.19783
20
-2.32087
11
5.19783
21
-2.39961
0
LINE
8
BLACK
6
CONTINUOUS
10
7.66874
20
-2.34024
11
7.67162
21
-2.34216
0
LINE
8
BLACK
6
CONTINUOUS
10
7.67162
20
-2.34216
11
7.67354
21
-2.34504
0
LINE
8
BLACK
6
CONTINUOUS
10
7.67354
20
-2.34504
11
7.67421
21
-2.34843
0
LINE
8
BLACK
6
CONTINUOUS
10
7.67421
20
-2.34843
11
7.67421
21
-2.36811
0
LINE
8
BLACK
6
CONTINUOUS
10
7.67421
20
-2.36811
11
7.67354
21
-2.3715
0
LINE
8
BLACK
6
CONTINUOUS
10
7.67354
20
-2.3715
11
7.67162
21
-2.37437
0
LINE
8
BLACK
6
CONTINUOUS
10
7.67162
20
-2.37437
11
7.66874
21
-2.37629
0
LINE
8
BLACK
6
CONTINUOUS
10
7.66874
20
-2.37629
11
7.66535
21
-2.37697
0
LINE
8
BLACK
6
CONTINUOUS
10
7.66535
20
-2.37697
11
7.64764
21
-2.37697
0
LINE
8
BLACK
6
CONTINUOUS
10
7.64764
20
-2.37697
11
7.64425
21
-2.37629
0
LINE
8
BLACK
6
CONTINUOUS
10
7.64425
20
-2.37629
11
7.64137
21
-2.37437
0
LINE
8
BLACK
6
CONTINUOUS
10
7.64137
20
-2.37437
11
7.63945
21
-2.3715
0
LINE
8
BLACK
6
CONTINUOUS
10
7.63945
20
-2.3715
11
7.63878
21
-2.36811
0
LINE
8
BLACK
6
CONTINUOUS
10
7.63878
20
-2.36811
11
7.63878
21
-2.34843
0
LINE
8
BLACK
6
CONTINUOUS
10
7.63878
20
-2.34843
11
7.63945
21
-2.34504
0
LINE
8
BLACK
6
CONTINUOUS
10
7.63945
20
-2.34504
11
7.64137
21
-2.34216
0
LINE
8
BLACK
6
CONTINUOUS
10
7.64137
20
-2.34216
11
7.64425
21
-2.34024
0
LINE
8
BLACK
6
CONTINUOUS
10
7.64425
20
-2.34024
11
7.64764
21
-2.33957
0
LINE
8
BLACK
6
CONTINUOUS
10
7.64764
20
-2.33957
11
7.66535
21
-2.33957
0
LINE
8
BLACK
6
CONTINUOUS
10
7.66535
20
-2.33957
11
7.66874
21
-2.34024
0
LINE
8
BLACK
6
CONTINUOUS
10
7.60772
20
-2.34024
11
7.61059
21
-2.34216
0
LINE
8
BLACK
6
CONTINUOUS
10
7.61059
20
-2.34216
11
7.61251
21
-2.34504
0
LINE
8
BLACK
6
CONTINUOUS
10
7.61251
20
-2.34504
11
7.61319
21
-2.34843
0
LINE
8
BLACK
6
CONTINUOUS
10
7.61319
20
-2.34843
11
7.61319
21
-2.36811
0
LINE
8
BLACK
6
CONTINUOUS
10
7.61319
20
-2.36811
11
7.61251
21
-2.3715
0
LINE
8
BLACK
6
CONTINUOUS
10
7.61251
20
-2.3715
11
7.61059
21
-2.37437
0
LINE
8
BLACK
6
CONTINUOUS
10
7.61059
20
-2.37437
11
7.60772
21
-2.37629
0
LINE
8
BLACK
6
CONTINUOUS
10
7.60772
20
-2.37629
11
7.60433
21
-2.37697
0
LINE
8
BLACK
6
CONTINUOUS
10
7.60433
20
-2.37697
11
7.58661
21
-2.37697
0
LINE
8
BLACK
6
CONTINUOUS
10
7.58661
20
-2.37697
11
7.58322
21
-2.37629
0
LINE
8
BLACK
6
CONTINUOUS
10
7.58322
20
-2.37629
11
7.58035
21
-2.37437
0
LINE
8
BLACK
6
CONTINUOUS
10
7.58035
20
-2.37437
11
7.57843
21
-2.3715
0
LINE
8
BLACK
6
CONTINUOUS
10
7.57843
20
-2.3715
11
7.57776
21
-2.36811
0
LINE
8
BLACK
6
CONTINUOUS
10
7.57776
20
-2.36811
11
7.57776
21
-2.34843
0
LINE
8
BLACK
6
CONTINUOUS
10
7.57776
20
-2.34843
11
7.57843
21
-2.34504
0
LINE
8
BLACK
6
CONTINUOUS
10
7.57843
20
-2.34504
11
7.58035
21
-2.34216
0
LINE
8
BLACK
6
CONTINUOUS
10
7.58035
20
-2.34216
11
7.58322
21
-2.34024
0
LINE
8
BLACK
6
CONTINUOUS
10
7.58322
20
-2.34024
11
7.58661
21
-2.33957
0
LINE
8
BLACK
6
CONTINUOUS
10
7.58661
20
-2.33957
11
7.60433
21
-2.33957
0
LINE
8
BLACK
6
CONTINUOUS
10
7.60433
20
-2.33957
11
7.60772
21
-2.34024
0
LINE
8
BLACK
6
CONTINUOUS
10
6.57819
20
-2.32252
11
6.58107
21
-2.32444
0
LINE
8
BLACK
6
CONTINUOUS
10
6.58107
20
-2.32444
11
6.58299
21
-2.32732
0
LINE
8
BLACK
6
CONTINUOUS
10
6.58299
20
-2.32732
11
6.58366
21
-2.33071
0
LINE
8
BLACK
6
CONTINUOUS
10
6.58366
20
-2.33071
11
6.58366
21
-2.34843
0
LINE
8
BLACK
6
CONTINUOUS
10
6.58366
20
-2.34843
11
6.58299
21
-2.35182
0
LINE
8
BLACK
6
CONTINUOUS
10
6.58299
20
-2.35182
11
6.58107
21
-2.35469
0
LINE
8
BLACK
6
CONTINUOUS
10
6.58107
20
-2.35469
11
6.57819
21
-2.35661
0
LINE
8
BLACK
6
CONTINUOUS
10
6.57819
20
-2.35661
11
6.5748
21
-2.35728
0
LINE
8
BLACK
6
CONTINUOUS
10
6.5748
20
-2.35728
11
6.55512
21
-2.35728
0
LINE
8
BLACK
6
CONTINUOUS
10
6.55512
20
-2.35728
11
6.55173
21
-2.35661
0
LINE
8
BLACK
6
CONTINUOUS
10
6.55173
20
-2.35661
11
6.54885
21
-2.35469
0
LINE
8
BLACK
6
CONTINUOUS
10
6.54885
20
-2.35469
11
6.54693
21
-2.35182
0
LINE
8
BLACK
6
CONTINUOUS
10
6.54693
20
-2.35182
11
6.54626
21
-2.34843
0
LINE
8
BLACK
6
CONTINUOUS
10
6.54626
20
-2.34843
11
6.54626
21
-2.33071
0
LINE
8
BLACK
6
CONTINUOUS
10
6.54626
20
-2.33071
11
6.54693
21
-2.32732
0
LINE
8
BLACK
6
CONTINUOUS
10
6.54693
20
-2.32732
11
6.54885
21
-2.32444
0
LINE
8
BLACK
6
CONTINUOUS
10
6.54885
20
-2.32444
11
6.55173
21
-2.32252
0
LINE
8
BLACK
6
CONTINUOUS
10
6.55173
20
-2.32252
11
6.55512
21
-2.32185
0
LINE
8
BLACK
6
CONTINUOUS
10
6.55512
20
-2.32185
11
6.5748
21
-2.32185
0
LINE
8
BLACK
6
CONTINUOUS
10
6.5748
20
-2.32185
11
6.57819
21
-2.32252
0
LINE
8
BLACK
6
CONTINUOUS
10
6.89512
20
-2.32154
11
6.898
21
-2.32346
0
LINE
8
BLACK
6
CONTINUOUS
10
6.898
20
-2.32346
11
6.89992
21
-2.32633
0
LINE
8
BLACK
6
CONTINUOUS
10
6.89992
20
-2.32633
11
6.90059
21
-2.32972
0
LINE
8
BLACK
6
CONTINUOUS
10
6.90059
20
-2.32972
11
6.90059
21
-2.34744
0
LINE
8
BLACK
6
CONTINUOUS
10
6.90059
20
-2.34744
11
6.89992
21
-2.35083
0
LINE
8
BLACK
6
CONTINUOUS
10
6.89992
20
-2.35083
11
6.898
21
-2.3537
0
LINE
8
BLACK
6
CONTINUOUS
10
6.898
20
-2.3537
11
6.89512
21
-2.35562
0
LINE
8
BLACK
6
CONTINUOUS
10
6.89512
20
-2.35562
11
6.89173
21
-2.3563
0
LINE
8
BLACK
6
CONTINUOUS
10
6.89173
20
-2.3563
11
6.87205
21
-2.3563
0
LINE
8
BLACK
6
CONTINUOUS
10
6.87205
20
-2.3563
11
6.86866
21
-2.35562
0
LINE
8
BLACK
6
CONTINUOUS
10
6.86866
20
-2.35562
11
6.86578
21
-2.3537
0
LINE
8
BLACK
6
CONTINUOUS
10
6.86578
20
-2.3537
11
6.86386
21
-2.35083
0
LINE
8
BLACK
6
CONTINUOUS
10
6.86386
20
-2.35083
11
6.86319
21
-2.34744
0
LINE
8
BLACK
6
CONTINUOUS
10
6.86319
20
-2.34744
11
6.86319
21
-2.32972
0
LINE
8
BLACK
6
CONTINUOUS
10
6.86319
20
-2.32972
11
6.86386
21
-2.32633
0
LINE
8
BLACK
6
CONTINUOUS
10
6.86386
20
-2.32633
11
6.86578
21
-2.32346
0
LINE
8
BLACK
6
CONTINUOUS
10
6.86578
20
-2.32346
11
6.86866
21
-2.32154
0
LINE
8
BLACK
6
CONTINUOUS
10
6.86866
20
-2.32154
11
6.87205
21
-2.32087
0
LINE
8
BLACK
6
CONTINUOUS
10
6.87205
20
-2.32087
11
6.89173
21
-2.32087
0
LINE
8
BLACK
6
CONTINUOUS
10
6.89173
20
-2.32087
11
6.89512
21
-2.32154
0
LINE
8
BLACK
6
CONTINUOUS
10
6.64709
20
-2.32154
11
6.64996
21
-2.32346
0
LINE
8
BLACK
6
CONTINUOUS
10
6.64996
20
-2.32346
11
6.65188
21
-2.32633
0
LINE
8
BLACK
6
CONTINUOUS
10
6.65188
20
-2.32633
11
6.65256
21
-2.32972
0
LINE
8
BLACK
6
CONTINUOUS
10
6.65256
20
-2.32972
11
6.65256
21
-2.34744
0
LINE
8
BLACK
6
CONTINUOUS
10
6.65256
20
-2.34744
11
6.65188
21
-2.35083
0
LINE
8
BLACK
6
CONTINUOUS
10
6.65188
20
-2.35083
11
6.64996
21
-2.3537
0
LINE
8
BLACK
6
CONTINUOUS
10
6.64996
20
-2.3537
11
6.64709
21
-2.35562
0
LINE
8
BLACK
6
CONTINUOUS
10
6.64709
20
-2.35562
11
6.6437
21
-2.3563
0
LINE
8
BLACK
6
CONTINUOUS
10
6.6437
20
-2.3563
11
6.62402
21
-2.3563
0
LINE
8
BLACK
6
CONTINUOUS
10
6.62402
20
-2.3563
11
6.62063
21
-2.35562
0
LINE
8
BLACK
6
CONTINUOUS
10
6.62063
20
-2.35562
11
6.61775
21
-2.3537
0
LINE
8
BLACK
6
CONTINUOUS
10
6.61775
20
-2.3537
11
6.61583
21
-2.35083
0
LINE
8
BLACK
6
CONTINUOUS
10
6.61583
20
-2.35083
11
6.61516
21
-2.34744
0
LINE
8
BLACK
6
CONTINUOUS
10
6.61516
20
-2.34744
11
6.61516
21
-2.32972
0
LINE
8
BLACK
6
CONTINUOUS
10
6.61516
20
-2.32972
11
6.61583
21
-2.32633
0
LINE
8
BLACK
6
CONTINUOUS
10
6.61583
20
-2.32633
11
6.61775
21
-2.32346
0
LINE
8
BLACK
6
CONTINUOUS
10
6.61775
20
-2.32346
11
6.62063
21
-2.32154
0
LINE
8
BLACK
6
CONTINUOUS
10
6.62063
20
-2.32154
11
6.62402
21
-2.32087
0
LINE
8
BLACK
6
CONTINUOUS
10
6.62402
20
-2.32087
11
6.6437
21
-2.32087
0
LINE
8
BLACK
6
CONTINUOUS
10
6.6437
20
-2.32087
11
6.64709
21
-2.32154
0
LINE
8
BLACK
6
CONTINUOUS
10
5.69668
20
-2.18185
11
5.69987
21
-2.18399
0
LINE
8
BLACK
6
CONTINUOUS
10
5.69987
20
-2.18399
11
5.70201
21
-2.18718
0
LINE
8
BLACK
6
CONTINUOUS
10
5.70201
20
-2.18718
11
5.70276
21
-2.19094
0
LINE
8
BLACK
6
CONTINUOUS
10
5.70276
20
-2.19094
11
5.70276
21
-2.30512
0
LINE
8
BLACK
6
CONTINUOUS
10
5.70276
20
-2.30512
11
5.70201
21
-2.30888
0
LINE
8
BLACK
6
CONTINUOUS
10
5.70201
20
-2.30888
11
5.69987
21
-2.31208
0
LINE
8
BLACK
6
CONTINUOUS
10
5.69987
20
-2.31208
11
5.69668
21
-2.31421
0
LINE
8
BLACK
6
CONTINUOUS
10
5.69668
20
-2.31421
11
5.69291
21
-2.31496
0
LINE
8
BLACK
6
CONTINUOUS
10
5.69291
20
-2.31496
11
5.66831
21
-2.31496
0
LINE
8
BLACK
6
CONTINUOUS
10
5.66831
20
-2.31496
11
5.66454
21
-2.31421
0
LINE
8
BLACK
6
CONTINUOUS
10
5.66454
20
-2.31421
11
5.66135
21
-2.31208
0
LINE
8
BLACK
6
CONTINUOUS
10
5.66135
20
-2.31208
11
5.65921
21
-2.30888
0
LINE
8
BLACK
6
CONTINUOUS
10
5.65921
20
-2.30888
11
5.65846
21
-2.30512
0
LINE
8
BLACK
6
CONTINUOUS
10
5.65846
20
-2.30512
11
5.65846
21
-2.19094
0
LINE
8
BLACK
6
CONTINUOUS
10
5.65846
20
-2.19094
11
5.65921
21
-2.18718
0
LINE
8
BLACK
6
CONTINUOUS
10
5.65921
20
-2.18718
11
5.66135
21
-2.18399
0
LINE
8
BLACK
6
CONTINUOUS
10
5.66135
20
-2.18399
11
5.66454
21
-2.18185
0
LINE
8
BLACK
6
CONTINUOUS
10
5.66454
20
-2.18185
11
5.66831
21
-2.1811
0
LINE
8
BLACK
6
CONTINUOUS
10
5.66831
20
-2.1811
11
5.69291
21
-2.1811
0
LINE
8
BLACK
6
CONTINUOUS
10
5.69291
20
-2.1811
11
5.69668
21
-2.18185
0
LINE
8
BLACK
6
CONTINUOUS
10
5.52837
20
-2.18185
11
5.53157
21
-2.18399
0
LINE
8
BLACK
6
CONTINUOUS
10
5.53157
20
-2.18399
11
5.5337
21
-2.18718
0
LINE
8
BLACK
6
CONTINUOUS
10
5.5337
20
-2.18718
11
5.53445
21
-2.19094
0
LINE
8
BLACK
6
CONTINUOUS
10
5.53445
20
-2.19094
11
5.53445
21
-2.30512
0
LINE
8
BLACK
6
CONTINUOUS
10
5.53445
20
-2.30512
11
5.5337
21
-2.30888
0
LINE
8
BLACK
6
CONTINUOUS
10
5.5337
20
-2.30888
11
5.53157
21
-2.31208
0
LINE
8
BLACK
6
CONTINUOUS
10
5.53157
20
-2.31208
11
5.52837
21
-2.31421
0
LINE
8
BLACK
6
CONTINUOUS
10
5.52837
20
-2.31421
11
5.52461
21
-2.31496
0
LINE
8
BLACK
6
CONTINUOUS
10
5.52461
20
-2.31496
11
5.5
21
-2.31496
0
LINE
8
BLACK
6
CONTINUOUS
10
5.5
20
-2.31496
11
5.49623
21
-2.31421
0
LINE
8
BLACK
6
CONTINUOUS
10
5.49623
20
-2.31421
11
5.49304
21
-2.31208
0
LINE
8
BLACK
6
CONTINUOUS
10
5.49304
20
-2.31208
11
5.49091
21
-2.30888
0
LINE
8
BLACK
6
CONTINUOUS
10
5.49091
20
-2.30888
11
5.49016
21
-2.30512
0
LINE
8
BLACK
6
CONTINUOUS
10
5.49016
20
-2.30512
11
5.49016
21
-2.19094
0
LINE
8
BLACK
6
CONTINUOUS
10
5.49016
20
-2.19094
11
5.49091
21
-2.18718
0
LINE
8
BLACK
6
CONTINUOUS
10
5.49091
20
-2.18718
11
5.49304
21
-2.18399
0
LINE
8
BLACK
6
CONTINUOUS
10
5.49304
20
-2.18399
11
5.49623
21
-2.18185
0
LINE
8
BLACK
6
CONTINUOUS
10
5.49623
20
-2.18185
11
5.5
21
-2.1811
0
LINE
8
BLACK
6
CONTINUOUS
10
5.5
20
-2.1811
11
5.52461
21
-2.1811
0
LINE
8
BLACK
6
CONTINUOUS
10
5.52461
20
-2.1811
11
5.52837
21
-2.18185
0
LINE
8
BLACK
6
CONTINUOUS
10
8.03103
20
-2.28869
11
8.03231
21
-2.28954
0
LINE
8
BLACK
6
CONTINUOUS
10
8.03231
20
-2.28954
11
8.03316
21
-2.29082
0
LINE
8
BLACK
6
CONTINUOUS
10
8.03316
20
-2.29082
11
8.03346
21
-2.29232
0
LINE
8
BLACK
6
CONTINUOUS
10
8.03346
20
-2.29232
11
8.03346
21
-2.3002
0
LINE
8
BLACK
6
CONTINUOUS
10
8.03346
20
-2.3002
11
8.03316
21
-2.3017
0
LINE
8
BLACK
6
CONTINUOUS
10
8.03316
20
-2.3017
11
8.03231
21
-2.30298
0
LINE
8
BLACK
6
CONTINUOUS
10
8.03231
20
-2.30298
11
8.03103
21
-2.30383
0
LINE
8
BLACK
6
CONTINUOUS
10
8.03103
20
-2.30383
11
8.02953
21
-2.30413
0
LINE
8
BLACK
6
CONTINUOUS
10
8.02953
20
-2.30413
11
7.97933
21
-2.30413
0
LINE
8
BLACK
6
CONTINUOUS
10
7.97933
20
-2.30413
11
7.97782
21
-2.30383
0
LINE
8
BLACK
6
CONTINUOUS
10
7.97782
20
-2.30383
11
7.97655
21
-2.30298
0
LINE
8
BLACK
6
CONTINUOUS
10
7.97655
20
-2.30298
11
7.97569
21
-2.3017
0
LINE
8
BLACK
6
CONTINUOUS
10
7.97569
20
-2.3017
11
7.97539
21
-2.3002
0
LINE
8
BLACK
6
CONTINUOUS
10
7.97539
20
-2.3002
11
7.97539
21
-2.29232
0
LINE
8
BLACK
6
CONTINUOUS
10
7.97539
20
-2.29232
11
7.97569
21
-2.29082
0
LINE
8
BLACK
6
CONTINUOUS
10
7.97569
20
-2.29082
11
7.97655
21
-2.28954
0
LINE
8
BLACK
6
CONTINUOUS
10
7.97655
20
-2.28954
11
7.97782
21
-2.28869
0
LINE
8
BLACK
6
CONTINUOUS
10
7.97782
20
-2.28869
11
7.97933
21
-2.28839
0
LINE
8
BLACK
6
CONTINUOUS
10
7.97933
20
-2.28839
11
8.02953
21
-2.28839
0
LINE
8
BLACK
6
CONTINUOUS
10
8.02953
20
-2.28839
11
8.03103
21
-2.28869
0
LINE
8
BLACK
6
CONTINUOUS
10
7.80564
20
-2.28869
11
7.80692
21
-2.28954
0
LINE
8
BLACK
6
CONTINUOUS
10
7.80692
20
-2.28954
11
7.80777
21
-2.29082
0
LINE
8
BLACK
6
CONTINUOUS
10
7.80777
20
-2.29082
11
7.80807
21
-2.29232
0
LINE
8
BLACK
6
CONTINUOUS
10
7.80807
20
-2.29232
11
7.80807
21
-2.3002
0
LINE
8
BLACK
6
CONTINUOUS
10
7.80807
20
-2.3002
11
7.80777
21
-2.3017
0
LINE
8
BLACK
6
CONTINUOUS
10
7.80777
20
-2.3017
11
7.80692
21
-2.30298
0
LINE
8
BLACK
6
CONTINUOUS
10
7.80692
20
-2.30298
11
7.80564
21
-2.30383
0
LINE
8
BLACK
6
CONTINUOUS
10
7.80564
20
-2.30383
11
7.80413
21
-2.30413
0
LINE
8
BLACK
6
CONTINUOUS
10
7.80413
20
-2.30413
11
7.75394
21
-2.30413
0
LINE
8
BLACK
6
CONTINUOUS
10
7.75394
20
-2.30413
11
7.75243
21
-2.30383
0
LINE
8
BLACK
6
CONTINUOUS
10
7.75243
20
-2.30383
11
7.75115
21
-2.30298
0
LINE
8
BLACK
6
CONTINUOUS
10
7.75115
20
-2.30298
11
7.7503
21
-2.3017
0
LINE
8
BLACK
6
CONTINUOUS
10
7.7503
20
-2.3017
11
7.75
21
-2.3002
0
LINE
8
BLACK
6
CONTINUOUS
10
7.75
20
-2.3002
11
7.75
21
-2.29232
0
LINE
8
BLACK
6
CONTINUOUS
10
7.75
20
-2.29232
11
7.7503
21
-2.29082
0
LINE
8
BLACK
6
CONTINUOUS
10
7.7503
20
-2.29082
11
7.75115
21
-2.28954
0
LINE
8
BLACK
6
CONTINUOUS
10
7.75115
20
-2.28954
11
7.75243
21
-2.28869
0
LINE
8
BLACK
6
CONTINUOUS
10
7.75243
20
-2.28869
11
7.75394
21
-2.28839
0
LINE
8
BLACK
6
CONTINUOUS
10
7.75394
20
-2.28839
11
7.80413
21
-2.28839
0
LINE
8
BLACK
6
CONTINUOUS
10
7.80413
20
-2.28839
11
7.80564
21
-2.28869
0
LINE
8
BLACK
6
CONTINUOUS
10
6.57819
20
-2.2615
11
6.58107
21
-2.26342
0
LINE
8
BLACK
6
CONTINUOUS
10
6.58107
20
-2.26342
11
6.58299
21
-2.2663
0
LINE
8
BLACK
6
CONTINUOUS
10
6.58299
20
-2.2663
11
6.58366
21
-2.26969
0
LINE
8
BLACK
6
CONTINUOUS
10
6.58366
20
-2.26969
11
6.58366
21
-2.2874
0
LINE
8
BLACK
6
CONTINUOUS
10
6.58366
20
-2.2874
11
6.58299
21
-2.29079
0
LINE
8
BLACK
6
CONTINUOUS
10
6.58299
20
-2.29079
11
6.58107
21
-2.29367
0
LINE
8
BLACK
6
CONTINUOUS
10
6.58107
20
-2.29367
11
6.57819
21
-2.29559
0
LINE
8
BLACK
6
CONTINUOUS
10
6.57819
20
-2.29559
11
6.5748
21
-2.29626
0
LINE
8
BLACK
6
CONTINUOUS
10
6.5748
20
-2.29626
11
6.55512
21
-2.29626
0
LINE
8
BLACK
6
CONTINUOUS
10
6.55512
20
-2.29626
11
6.55173
21
-2.29559
0
LINE
8
BLACK
6
CONTINUOUS
10
6.55173
20
-2.29559
11
6.54885
21
-2.29367
0
LINE
8
BLACK
6
CONTINUOUS
10
6.54885
20
-2.29367
11
6.54693
21
-2.29079
0
LINE
8
BLACK
6
CONTINUOUS
10
6.54693
20
-2.29079
11
6.54626
21
-2.2874
0
LINE
8
BLACK
6
CONTINUOUS
10
6.54626
20
-2.2874
11
6.54626
21
-2.26969
0
LINE
8
BLACK
6
CONTINUOUS
10
6.54626
20
-2.26969
11
6.54693
21
-2.2663
0
LINE
8
BLACK
6
CONTINUOUS
10
6.54693
20
-2.2663
11
6.54885
21
-2.26342
0
LINE
8
BLACK
6
CONTINUOUS
10
6.54885
20
-2.26342
11
6.55173
21
-2.2615
0
LINE
8
BLACK
6
CONTINUOUS
10
6.55173
20
-2.2615
11
6.55512
21
-2.26083
0
LINE
8
BLACK
6
CONTINUOUS
10
6.55512
20
-2.26083
11
6.5748
21
-2.26083
0
LINE
8
BLACK
6
CONTINUOUS
10
6.5748
20
-2.26083
11
6.57819
21
-2.2615
0
LINE
8
BLACK
6
CONTINUOUS
10
6.89512
20
-2.26052
11
6.898
21
-2.26244
0
LINE
8
BLACK
6
CONTINUOUS
10
6.898
20
-2.26244
11
6.89992
21
-2.26531
0
LINE
8
BLACK
6
CONTINUOUS
10
6.89992
20
-2.26531
11
6.90059
21
-2.2687
0
LINE
8
BLACK
6
CONTINUOUS
10
6.90059
20
-2.2687
11
6.90059
21
-2.28642
0
LINE
8
BLACK
6
CONTINUOUS
10
6.90059
20
-2.28642
11
6.89992
21
-2.28981
0
LINE
8
BLACK
6
CONTINUOUS
10
6.89992
20
-2.28981
11
6.898
21
-2.29268
0
LINE
8
BLACK
6
CONTINUOUS
10
6.898
20
-2.29268
11
6.89512
21
-2.2946
0
LINE
8
BLACK
6
CONTINUOUS
10
6.89512
20
-2.2946
11
6.89173
21
-2.29528
0
LINE
8
BLACK
6
CONTINUOUS
10
6.89173
20
-2.29528
11
6.87205
21
-2.29528
0
LINE
8
BLACK
6
CONTINUOUS
10
6.87205
20
-2.29528
11
6.86866
21
-2.2946
0
LINE
8
BLACK
6
CONTINUOUS
10
6.86866
20
-2.2946
11
6.86578
21
-2.29268
0
LINE
8
BLACK
6
CONTINUOUS
10
6.86578
20
-2.29268
11
6.86386
21
-2.28981
0
LINE
8
BLACK
6
CONTINUOUS
10
6.86386
20
-2.28981
11
6.86319
21
-2.28642
0
LINE
8
BLACK
6
CONTINUOUS
10
6.86319
20
-2.28642
11
6.86319
21
-2.2687
0
LINE
8
BLACK
6
CONTINUOUS
10
6.86319
20
-2.2687
11
6.86386
21
-2.26531
0
LINE
8
BLACK
6
CONTINUOUS
10
6.86386
20
-2.26531
11
6.86578
21
-2.26244
0
LINE
8
BLACK
6
CONTINUOUS
10
6.86578
20
-2.26244
11
6.86866
21
-2.26052
0
LINE
8
BLACK
6
CONTINUOUS
10
6.86866
20
-2.26052
11
6.87205
21
-2.25984
0
LINE
8
BLACK
6
CONTINUOUS
10
6.87205
20
-2.25984
11
6.89173
21
-2.25984
0
LINE
8
BLACK
6
CONTINUOUS
10
6.89173
20
-2.25984
11
6.89512
21
-2.26052
0
LINE
8
BLACK
6
CONTINUOUS
10
6.64709
20
-2.26052
11
6.64996
21
-2.26244
0
LINE
8
BLACK
6
CONTINUOUS
10
6.64996
20
-2.26244
11
6.65188
21
-2.26531
0
LINE
8
BLACK
6
CONTINUOUS
10
6.65188
20
-2.26531
11
6.65256
21
-2.2687
0
LINE
8
BLACK
6
CONTINUOUS
10
6.65256
20
-2.2687
11
6.65256
21
-2.28642
0
LINE
8
BLACK
6
CONTINUOUS
10
6.65256
20
-2.28642
11
6.65188
21
-2.28981
0
LINE
8
BLACK
6
CONTINUOUS
10
6.65188
20
-2.28981
11
6.64996
21
-2.29268
0
LINE
8
BLACK
6
CONTINUOUS
10
6.64996
20
-2.29268
11
6.64709
21
-2.2946
0
LINE
8
BLACK
6
CONTINUOUS
10
6.64709
20
-2.2946
11
6.6437
21
-2.29528
0
LINE
8
BLACK
6
CONTINUOUS
10
6.6437
20
-2.29528
11
6.62402
21
-2.29528
0
LINE
8
BLACK
6
CONTINUOUS
10
6.62402
20
-2.29528
11
6.62063
21
-2.2946
0
LINE
8
BLACK
6
CONTINUOUS
10
6.62063
20
-2.2946
11
6.61775
21
-2.29268
0
LINE
8
BLACK
6
CONTINUOUS
10
6.61775
20
-2.29268
11
6.61583
21
-2.28981
0
LINE
8
BLACK
6
CONTINUOUS
10
6.61583
20
-2.28981
11
6.61516
21
-2.28642
0
LINE
8
BLACK
6
CONTINUOUS
10
6.61516
20
-2.28642
11
6.61516
21
-2.2687
0
LINE
8
BLACK
6
CONTINUOUS
10
6.61516
20
-2.2687
11
6.61583
21
-2.26531
0
LINE
8
BLACK
6
CONTINUOUS
10
6.61583
20
-2.26531
11
6.61775
21
-2.26244
0
LINE
8
BLACK
6
CONTINUOUS
10
6.61775
20
-2.26244
11
6.62063
21
-2.26052
0
LINE
8
BLACK
6
CONTINUOUS
10
6.62063
20
-2.26052
11
6.62402
21
-2.25984
0
LINE
8
BLACK
6
CONTINUOUS
10
6.62402
20
-2.25984
11
6.6437
21
-2.25984
0
LINE
8
BLACK
6
CONTINUOUS
10
6.6437
20
-2.25984
11
6.64709
21
-2.26052
0
LINE
8
BLACK
6
CONTINUOUS
10
8.03103
20
-2.26309
11
8.03231
21
-2.26395
0
LINE
8
BLACK
6
CONTINUOUS
10
8.03231
20
-2.26395
11
8.03316
21
-2.26523
0
LINE
8
BLACK
6
CONTINUOUS
10
8.03316
20
-2.26523
11
8.03346
21
-2.26673
0
LINE
8
BLACK
6
CONTINUOUS
10
8.03346
20
-2.26673
11
8.03346
21
-2.27461
0
LINE
8
BLACK
6
CONTINUOUS
10
8.03346
20
-2.27461
11
8.03316
21
-2.27611
0
LINE
8
BLACK
6
CONTINUOUS
10
8.03316
20
-2.27611
11
8.03231
21
-2.27739
0
LINE
8
BLACK
6
CONTINUOUS
10
8.03231
20
-2.27739
11
8.03103
21
-2.27824
0
LINE
8
BLACK
6
CONTINUOUS
10
8.03103
20
-2.27824
11
8.02953
21
-2.27854
0
LINE
8
BLACK
6
CONTINUOUS
10
8.02953
20
-2.27854
11
7.97933
21
-2.27854
0
LINE
8
BLACK
6
CONTINUOUS
10
7.97933
20
-2.27854
11
7.97782
21
-2.27824
0
LINE
8
BLACK
6
CONTINUOUS
10
7.97782
20
-2.27824
11
7.97655
21
-2.27739
0
LINE
8
BLACK
6
CONTINUOUS
10
7.97655
20
-2.27739
11
7.97569
21
-2.27611
0
LINE
8
BLACK
6
CONTINUOUS
10
7.97569
20
-2.27611
11
7.97539
21
-2.27461
0
LINE
8
BLACK
6
CONTINUOUS
10
7.97539
20
-2.27461
11
7.97539
21
-2.26673
0
LINE
8
BLACK
6
CONTINUOUS
10
7.97539
20
-2.26673
11
7.97569
21
-2.26523
0
LINE
8
BLACK
6
CONTINUOUS
10
7.97569
20
-2.26523
11
7.97655
21
-2.26395
0
LINE
8
BLACK
6
CONTINUOUS
10
7.97655
20
-2.26395
11
7.97782
21
-2.26309
0
LINE
8
BLACK
6
CONTINUOUS
10
7.97782
20
-2.26309
11
7.97933
21
-2.2628
0
LINE
8
BLACK
6
CONTINUOUS
10
7.97933
20
-2.2628
11
8.02953
21
-2.2628
0
LINE
8
BLACK
6
CONTINUOUS
10
8.02953
20
-2.2628
11
8.03103
21
-2.26309
0
LINE
8
BLACK
6
CONTINUOUS
10
7.80564
20
-2.26309
11
7.80692
21
-2.26395
0
LINE
8
BLACK
6
CONTINUOUS
10
7.80692
20
-2.26395
11
7.80777
21
-2.26523
0
LINE
8
BLACK
6
CONTINUOUS
10
7.80777
20
-2.26523
11
7.80807
21
-2.26673
0
LINE
8
BLACK
6
CONTINUOUS
10
7.80807
20
-2.26673
11
7.80807
21
-2.27461
0
LINE
8
BLACK
6
CONTINUOUS
10
7.80807
20
-2.27461
11
7.80777
21
-2.27611
0
LINE
8
BLACK
6
CONTINUOUS
10
7.80777
20
-2.27611
11
7.80692
21
-2.27739
0
LINE
8
BLACK
6
CONTINUOUS
10
7.80692
20
-2.27739
11
7.80564
21
-2.27824
0
LINE
8
BLACK
6
CONTINUOUS
10
7.80564
20
-2.27824
11
7.80413
21
-2.27854
0
LINE
8
BLACK
6
CONTINUOUS
10
7.80413
20
-2.27854
11
7.75394
21
-2.27854
0
LINE
8
BLACK
6
CONTINUOUS
10
7.75394
20
-2.27854
11
7.75243
21
-2.27824
0
LINE
8
BLACK
6
CONTINUOUS
10
7.75243
20
-2.27824
11
7.75115
21
-2.27739
0
LINE
8
BLACK
6
CONTINUOUS
10
7.75115
20
-2.27739
11
7.7503
21
-2.27611
0
LINE
8
BLACK
6
CONTINUOUS
10
7.7503
20
-2.27611
11
7.75
21
-2.27461
0
LINE
8
BLACK
6
CONTINUOUS
10
7.75
20
-2.27461
11
7.75
21
-2.26673
0
LINE
8
BLACK
6
CONTINUOUS
10
7.75
20
-2.26673
11
7.7503
21
-2.26523
0
LINE
8
BLACK
6
CONTINUOUS
10
7.7503
20
-2.26523
11
7.75115
21
-2.26395
0
LINE
8
BLACK
6
CONTINUOUS
10
7.75115
20
-2.26395
11
7.75243
21
-2.26309
0
LINE
8
BLACK
6
CONTINUOUS
10
7.75243
20
-2.26309
11
7.75394
21
-2.2628
0
LINE
8
BLACK
6
CONTINUOUS
10
7.75394
20
-2.2628
11
7.80413
21
-2.2628
0
LINE
8
BLACK
6
CONTINUOUS
10
7.80413
20
-2.2628
11
7.80564
21
-2.26309
0
LINE
8
BLACK
6
CONTINUOUS
10
6.02053
20
-2.22658
11
6.02309
21
-2.22829
0
LINE
8
BLACK
6
CONTINUOUS
10
6.02309
20
-2.22829
11
6.02479
21
-2.23084
0
LINE
8
BLACK
6
CONTINUOUS
10
6.02479
20
-2.23084
11
6.02539
21
-2.23386
0
LINE
8
BLACK
6
CONTINUOUS
10
6.02539
20
-2.23386
11
6.02539
21
-2.25551
0
LINE
8
BLACK
6
CONTINUOUS
10
6.02539
20
-2.25551
11
6.02479
21
-2.25853
0
LINE
8
BLACK
6
CONTINUOUS
10
6.02479
20
-2.25853
11
6.02309
21
-2.26108
0
LINE
8
BLACK
6
CONTINUOUS
10
6.02309
20
-2.26108
11
6.02053
21
-2.26279
0
LINE
8
BLACK
6
CONTINUOUS
10
6.02053
20
-2.26279
11
6.01752
21
-2.26339
0
LINE
8
BLACK
6
CONTINUOUS
10
6.01752
20
-2.26339
11
6.00177
21
-2.26339
0
LINE
8
BLACK
6
CONTINUOUS
10
6.00177
20
-2.26339
11
5.99876
21
-2.26279
0
LINE
8
BLACK
6
CONTINUOUS
10
5.99876
20
-2.26279
11
5.9962
21
-2.26108
0
LINE
8
BLACK
6
CONTINUOUS
10
5.9962
20
-2.26108
11
5.9945
21
-2.25853
0
LINE
8
BLACK
6
CONTINUOUS
10
5.9945
20
-2.25853
11
5.9939
21
-2.25551
0
LINE
8
BLACK
6
CONTINUOUS
10
5.9939
20
-2.25551
11
5.9939
21
-2.23386
0
LINE
8
BLACK
6
CONTINUOUS
10
5.9939
20
-2.23386
11
5.9945
21
-2.23084
0
LINE
8
BLACK
6
CONTINUOUS
10
5.9945
20
-2.23084
11
5.9962
21
-2.22829
0
LINE
8
BLACK
6
CONTINUOUS
10
5.9962
20
-2.22829
11
5.99876
21
-2.22658
0
LINE
8
BLACK
6
CONTINUOUS
10
5.99876
20
-2.22658
11
6.00177
21
-2.22598
0
LINE
8
BLACK
6
CONTINUOUS
10
6.00177
20
-2.22598
11
6.01752
21
-2.22598
0
LINE
8
BLACK
6
CONTINUOUS
10
6.01752
20
-2.22598
11
6.02053
21
-2.22658
0
LINE
8
BLACK
6
CONTINUOUS
10
5.95557
20
-2.22658
11
5.95813
21
-2.22829
0
LINE
8
BLACK
6
CONTINUOUS
10
5.95813
20
-2.22829
11
5.95983
21
-2.23084
0
LINE
8
BLACK
6
CONTINUOUS
10
5.95983
20
-2.23084
11
5.96043
21
-2.23386
0
LINE
8
BLACK
6
CONTINUOUS
10
5.96043
20
-2.23386
11
5.96043
21
-2.25551
0
LINE
8
BLACK
6
CONTINUOUS
10
5.96043
20
-2.25551
11
5.95983
21
-2.25853
0
LINE
8
BLACK
6
CONTINUOUS
10
5.95983
20
-2.25853
11
5.95813
21
-2.26108
0
LINE
8
BLACK
6
CONTINUOUS
10
5.95813
20
-2.26108
11
5.95557
21
-2.26279
0
LINE
8
BLACK
6
CONTINUOUS
10
5.95557
20
-2.26279
11
5.95256
21
-2.26339
0
LINE
8
BLACK
6
CONTINUOUS
10
5.95256
20
-2.26339
11
5.93681
21
-2.26339
0
LINE
8
BLACK
6
CONTINUOUS
10
5.93681
20
-2.26339
11
5.9338
21
-2.26279
0
LINE
8
BLACK
6
CONTINUOUS
10
5.9338
20
-2.26279
11
5.93124
21
-2.26108
0
LINE
8
BLACK
6
CONTINUOUS
10
5.93124
20
-2.26108
11
5.92954
21
-2.25853
0
LINE
8
BLACK
6
CONTINUOUS
10
5.92954
20
-2.25853
11
5.92894
21
-2.25551
0
LINE
8
BLACK
6
CONTINUOUS
10
5.92894
20
-2.25551
11
5.92894
21
-2.23386
0
LINE
8
BLACK
6
CONTINUOUS
10
5.92894
20
-2.23386
11
5.92954
21
-2.23084
0
LINE
8
BLACK
6
CONTINUOUS
10
5.92954
20
-2.23084
11
5.93124
21
-2.22829
0
LINE
8
BLACK
6
CONTINUOUS
10
5.93124
20
-2.22829
11
5.9338
21
-2.22658
0
LINE
8
BLACK
6
CONTINUOUS
10
5.9338
20
-2.22658
11
5.93681
21
-2.22598
0
LINE
8
BLACK
6
CONTINUOUS
10
5.93681
20
-2.22598
11
5.95256
21
-2.22598
0
LINE
8
BLACK
6
CONTINUOUS
10
5.95256
20
-2.22598
11
5.95557
21
-2.22658
0
LINE
8
BLACK
6
CONTINUOUS
10
8.03103
20
-2.2375
11
8.03231
21
-2.23836
0
LINE
8
BLACK
6
CONTINUOUS
10
8.03231
20
-2.23836
11
8.03316
21
-2.23964
0
LINE
8
BLACK
6
CONTINUOUS
10
8.03316
20
-2.23964
11
8.03346
21
-2.24114
0
LINE
8
BLACK
6
CONTINUOUS
10
8.03346
20
-2.24114
11
8.03346
21
-2.24902
0
LINE
8
BLACK
6
CONTINUOUS
10
8.03346
20
-2.24902
11
8.03316
21
-2.25052
0
LINE
8
BLACK
6
CONTINUOUS
10
8.03316
20
-2.25052
11
8.03231
21
-2.2518
0
LINE
8
BLACK
6
CONTINUOUS
10
8.03231
20
-2.2518
11
8.03103
21
-2.25265
0
LINE
8
BLACK
6
CONTINUOUS
10
8.03103
20
-2.25265
11
8.02953
21
-2.25295
0
LINE
8
BLACK
6
CONTINUOUS
10
8.02953
20
-2.25295
11
7.97933
21
-2.25295
0
LINE
8
BLACK
6
CONTINUOUS
10
7.97933
20
-2.25295
11
7.97782
21
-2.25265
0
LINE
8
BLACK
6
CONTINUOUS
10
7.97782
20
-2.25265
11
7.97655
21
-2.2518
0
LINE
8
BLACK
6
CONTINUOUS
10
7.97655
20
-2.2518
11
7.97569
21
-2.25052
0
LINE
8
BLACK
6
CONTINUOUS
10
7.97569
20
-2.25052
11
7.97539
21
-2.24902
0
LINE
8
BLACK
6
CONTINUOUS
10
7.97539
20
-2.24902
11
7.97539
21
-2.24114
0
LINE
8
BLACK
6
CONTINUOUS
10
7.97539
20
-2.24114
11
7.97569
21
-2.23964
0
LINE
8
BLACK
6
CONTINUOUS
10
7.97569
20
-2.23964
11
7.97655
21
-2.23836
0
LINE
8
BLACK
6
CONTINUOUS
10
7.97655
20
-2.23836
11
7.97782
21
-2.2375
0
LINE
8
BLACK
6
CONTINUOUS
10
7.97782
20
-2.2375
11
7.97933
21
-2.2372
0
LINE
8
BLACK
6
CONTINUOUS
10
7.97933
20
-2.2372
11
8.02953
21
-2.2372
0
LINE
8
BLACK
6
CONTINUOUS
10
8.02953
20
-2.2372
11
8.03103
21
-2.2375
0
LINE
8
BLACK
6
CONTINUOUS
10
7.80564
20
-2.2375
11
7.80692
21
-2.23836
0
LINE
8
BLACK
6
CONTINUOUS
10
7.80692
20
-2.23836
11
7.80777
21
-2.23964
0
LINE
8
BLACK
6
CONTINUOUS
10
7.80777
20
-2.23964
11
7.80807
21
-2.24114
0
LINE
8
BLACK
6
CONTINUOUS
10
7.80807
20
-2.24114
11
7.80807
21
-2.24902
0
LINE
8
BLACK
6
CONTINUOUS
10
7.80807
20
-2.24902
11
7.80777
21
-2.25052
0
LINE
8
BLACK
6
CONTINUOUS
10
7.80777
20
-2.25052
11
7.80692
21
-2.2518
0
LINE
8
BLACK
6
CONTINUOUS
10
7.80692
20
-2.2518
11
7.80564
21
-2.25265
0
LINE
8
BLACK
6
CONTINUOUS
10
7.80564
20
-2.25265
11
7.80413
21
-2.25295
0
LINE
8
BLACK
6
CONTINUOUS
10
7.80413
20
-2.25295
11
7.75394
21
-2.25295
0
LINE
8
BLACK
6
CONTINUOUS
10
7.75394
20
-2.25295
11
7.75243
21
-2.25265
0
LINE
8
BLACK
6
CONTINUOUS
10
7.75243
20
-2.25265
11
7.75115
21
-2.2518
0
LINE
8
BLACK
6
CONTINUOUS
10
7.75115
20
-2.2518
11
7.7503
21
-2.25052
0
LINE
8
BLACK
6
CONTINUOUS
10
7.7503
20
-2.25052
11
7.75
21
-2.24902
0
LINE
8
BLACK
6
CONTINUOUS
10
7.75
20
-2.24902
11
7.75
21
-2.24114
0
LINE
8
BLACK
6
CONTINUOUS
10
7.75
20
-2.24114
11
7.7503
21
-2.23964
0
LINE
8
BLACK
6
CONTINUOUS
10
7.7503
20
-2.23964
11
7.75115
21
-2.23836
0
LINE
8
BLACK
6
CONTINUOUS
10
7.75115
20
-2.23836
11
7.75243
21
-2.2375
0
LINE
8
BLACK
6
CONTINUOUS
10
7.75243
20
-2.2375
11
7.75394
21
-2.2372
0
LINE
8
BLACK
6
CONTINUOUS
10
7.75394
20
-2.2372
11
7.80413
21
-2.2372
0
LINE
8
BLACK
6
CONTINUOUS
10
7.80413
20
-2.2372
11
7.80564
21
-2.2375
0
LINE
8
BLACK
6
CONTINUOUS
10
8.03103
20
-2.21191
11
8.03231
21
-2.21277
0
LINE
8
BLACK
6
CONTINUOUS
10
8.03231
20
-2.21277
11
8.03316
21
-2.21404
0
LINE
8
BLACK
6
CONTINUOUS
10
8.03316
20
-2.21404
11
8.03346
21
-2.21555
0
LINE
8
BLACK
6
CONTINUOUS
10
8.03346
20
-2.21555
11
8.03346
21
-2.22343
0
LINE
8
BLACK
6
CONTINUOUS
10
8.03346
20
-2.22343
11
8.03316
21
-2.22493
0
LINE
8
BLACK
6
CONTINUOUS
10
8.03316
20
-2.22493
11
8.03231
21
-2.22621
0
LINE
8
BLACK
6
CONTINUOUS
10
8.03231
20
-2.22621
11
8.03103
21
-2.22706
0
LINE
8
BLACK
6
CONTINUOUS
10
8.03103
20
-2.22706
11
8.02953
21
-2.22736
0
LINE
8
BLACK
6
CONTINUOUS
10
8.02953
20
-2.22736
11
7.97933
21
-2.22736
0
LINE
8
BLACK
6
CONTINUOUS
10
7.97933
20
-2.22736
11
7.97782
21
-2.22706
0
LINE
8
BLACK
6
CONTINUOUS
10
7.97782
20
-2.22706
11
7.97655
21
-2.22621
0
LINE
8
BLACK
6
CONTINUOUS
10
7.97655
20
-2.22621
11
7.97569
21
-2.22493
0
LINE
8
BLACK
6
CONTINUOUS
10
7.97569
20
-2.22493
11
7.97539
21
-2.22343
0
LINE
8
BLACK
6
CONTINUOUS
10
7.97539
20
-2.22343
11
7.97539
21
-2.21555
0
LINE
8
BLACK
6
CONTINUOUS
10
7.97539
20
-2.21555
11
7.97569
21
-2.21404
0
LINE
8
BLACK
6
CONTINUOUS
10
7.97569
20
-2.21404
11
7.97655
21
-2.21277
0
LINE
8
BLACK
6
CONTINUOUS
10
7.97655
20
-2.21277
11
7.97782
21
-2.21191
0
LINE
8
BLACK
6
CONTINUOUS
10
7.97782
20
-2.21191
11
7.97933
21
-2.21161
0
LINE
8
BLACK
6
CONTINUOUS
10
7.97933
20
-2.21161
11
8.02953
21
-2.21161
0
LINE
8
BLACK
6
CONTINUOUS
10
8.02953
20
-2.21161
11
8.03103
21
-2.21191
0
LINE
8
BLACK
6
CONTINUOUS
10
7.80564
20
-2.21191
11
7.80692
21
-2.21277
0
LINE
8
BLACK
6
CONTINUOUS
10
7.80692
20
-2.21277
11
7.80777
21
-2.21404
0
LINE
8
BLACK
6
CONTINUOUS
10
7.80777
20
-2.21404
11
7.80807
21
-2.21555
0
LINE
8
BLACK
6
CONTINUOUS
10
7.80807
20
-2.21555
11
7.80807
21
-2.22343
0
LINE
8
BLACK
6
CONTINUOUS
10
7.80807
20
-2.22343
11
7.80777
21
-2.22493
0
LINE
8
BLACK
6
CONTINUOUS
10
7.80777
20
-2.22493
11
7.80692
21
-2.22621
0
LINE
8
BLACK
6
CONTINUOUS
10
7.80692
20
-2.22621
11
7.80564
21
-2.22706
0
LINE
8
BLACK
6
CONTINUOUS
10
7.80564
20
-2.22706
11
7.80413
21
-2.22736
0
LINE
8
BLACK
6
CONTINUOUS
10
7.80413
20
-2.22736
11
7.75394
21
-2.22736
0
LINE
8
BLACK
6
CONTINUOUS
10
7.75394
20
-2.22736
11
7.75243
21
-2.22706
0
LINE
8
BLACK
6
CONTINUOUS
10
7.75243
20
-2.22706
11
7.75115
21
-2.22621
0
LINE
8
BLACK
6
CONTINUOUS
10
7.75115
20
-2.22621
11
7.7503
21
-2.22493
0
LINE
8
BLACK
6
CONTINUOUS
10
7.7503
20
-2.22493
11
7.75
21
-2.22343
0
LINE
8
BLACK
6
CONTINUOUS
10
7.75
20
-2.22343
11
7.75
21
-2.21555
0
LINE
8
BLACK
6
CONTINUOUS
10
7.75
20
-2.21555
11
7.7503
21
-2.21404
0
LINE
8
BLACK
6
CONTINUOUS
10
7.7503
20
-2.21404
11
7.75115
21
-2.21277
0
LINE
8
BLACK
6
CONTINUOUS
10
7.75115
20
-2.21277
11
7.75243
21
-2.21191
0
LINE
8
BLACK
6
CONTINUOUS
10
7.75243
20
-2.21191
11
7.75394
21
-2.21161
0
LINE
8
BLACK
6
CONTINUOUS
10
7.75394
20
-2.21161
11
7.80413
21
-2.21161
0
LINE
8
BLACK
6
CONTINUOUS
10
7.80413
20
-2.21161
11
7.80564
21
-2.21191
0
LINE
8
BLACK
6
CONTINUOUS
10
8.03103
20
-2.18632
11
8.03231
21
-2.18718
0
LINE
8
BLACK
6
CONTINUOUS
10
8.03231
20
-2.18718
11
8.03316
21
-2.18845
0
LINE
8
BLACK
6
CONTINUOUS
10
8.03316
20
-2.18845
11
8.03346
21
-2.18996
0
LINE
8
BLACK
6
CONTINUOUS
10
8.03346
20
-2.18996
11
8.03346
21
-2.19783
0
LINE
8
BLACK
6
CONTINUOUS
10
8.03346
20
-2.19783
11
8.03316
21
-2.19934
0
LINE
8
BLACK
6
CONTINUOUS
10
8.03316
20
-2.19934
11
8.03231
21
-2.20062
0
LINE
8
BLACK
6
CONTINUOUS
10
8.03231
20
-2.20062
11
8.03103
21
-2.20147
0
LINE
8
BLACK
6
CONTINUOUS
10
8.03103
20
-2.20147
11
8.02953
21
-2.20177
0
LINE
8
BLACK
6
CONTINUOUS
10
8.02953
20
-2.20177
11
7.97933
21
-2.20177
0
LINE
8
BLACK
6
CONTINUOUS
10
7.97933
20
-2.20177
11
7.97782
21
-2.20147
0
LINE
8
BLACK
6
CONTINUOUS
10
7.97782
20
-2.20147
11
7.97655
21
-2.20062
0
LINE
8
BLACK
6
CONTINUOUS
10
7.97655
20
-2.20062
11
7.97569
21
-2.19934
0
LINE
8
BLACK
6
CONTINUOUS
10
7.97569
20
-2.19934
11
7.97539
21
-2.19783
0
LINE
8
BLACK
6
CONTINUOUS
10
7.97539
20
-2.19783
11
7.97539
21
-2.18996
0
LINE
8
BLACK
6
CONTINUOUS
10
7.97539
20
-2.18996
11
7.97569
21
-2.18845
0
LINE
8
BLACK
6
CONTINUOUS
10
7.97569
20
-2.18845
11
7.97655
21
-2.18718
0
LINE
8
BLACK
6
CONTINUOUS
10
7.97655
20
-2.18718
11
7.97782
21
-2.18632
0
LINE
8
BLACK
6
CONTINUOUS
10
7.97782
20
-2.18632
11
7.97933
21
-2.18602
0
LINE
8
BLACK
6
CONTINUOUS
10
7.97933
20
-2.18602
11
8.02953
21
-2.18602
0
LINE
8
BLACK
6
CONTINUOUS
10
8.02953
20
-2.18602
11
8.03103
21
-2.18632
0
LINE
8
BLACK
6
CONTINUOUS
10
7.80564
20
-2.18632
11
7.80692
21
-2.18718
0
LINE
8
BLACK
6
CONTINUOUS
10
7.80692
20
-2.18718
11
7.80777
21
-2.18845
0
LINE
8
BLACK
6
CONTINUOUS
10
7.80777
20
-2.18845
11
7.80807
21
-2.18996
0
LINE
8
BLACK
6
CONTINUOUS
10
7.80807
20
-2.18996
11
7.80807
21
-2.19783
0
LINE
8
BLACK
6
CONTINUOUS
10
7.80807
20
-2.19783
11
7.80777
21
-2.19934
0
LINE
8
BLACK
6
CONTINUOUS
10
7.80777
20
-2.19934
11
7.80692
21
-2.20062
0
LINE
8
BLACK
6
CONTINUOUS
10
7.80692
20
-2.20062
11
7.80564
21
-2.20147
0
LINE
8
BLACK
6
CONTINUOUS
10
7.80564
20
-2.20147
11
7.80413
21
-2.20177
0
LINE
8
BLACK
6
CONTINUOUS
10
7.80413
20
-2.20177
11
7.75394
21
-2.20177
0
LINE
8
BLACK
6
CONTINUOUS
10
7.75394
20
-2.20177
11
7.75243
21
-2.20147
0
LINE
8
BLACK
6
CONTINUOUS
10
7.75243
20
-2.20147
11
7.75115
21
-2.20062
0
LINE
8
BLACK
6
CONTINUOUS
10
7.75115
20
-2.20062
11
7.7503
21
-2.19934
0
LINE
8
BLACK
6
CONTINUOUS
10
7.7503
20
-2.19934
11
7.75
21
-2.19783
0
LINE
8
BLACK
6
CONTINUOUS
10
7.75
20
-2.19783
11
7.75
21
-2.18996
0
LINE
8
BLACK
6
CONTINUOUS
10
7.75
20
-2.18996
11
7.7503
21
-2.18845
0
LINE
8
BLACK
6
CONTINUOUS
10
7.7503
20
-2.18845
11
7.75115
21
-2.18718
0
LINE
8
BLACK
6
CONTINUOUS
10
7.75115
20
-2.18718
11
7.75243
21
-2.18632
0
LINE
8
BLACK
6
CONTINUOUS
10
7.75243
20
-2.18632
11
7.75394
21
-2.18602
0
LINE
8
BLACK
6
CONTINUOUS
10
7.75394
20
-2.18602
11
7.80413
21
-2.18602
0
LINE
8
BLACK
6
CONTINUOUS
10
7.80413
20
-2.18602
11
7.80564
21
-2.18632
0
LINE
8
BLACK
6
CONTINUOUS
10
6.02902
20
-2.14246
11
6.03213
21
-2.14454
0
LINE
8
BLACK
6
CONTINUOUS
10
6.03213
20
-2.14454
11
6.03421
21
-2.14766
0
LINE
8
BLACK
6
CONTINUOUS
10
6.03421
20
-2.14766
11
6.03494
21
-2.15133
0
LINE
8
BLACK
6
CONTINUOUS
10
6.03494
20
-2.15133
11
6.03494
21
-2.18725
0
LINE
8
BLACK
6
CONTINUOUS
10
6.03494
20
-2.18725
11
6.03421
21
-2.19093
0
LINE
8
BLACK
6
CONTINUOUS
10
6.03421
20
-2.19093
11
6.03213
21
-2.19404
0
LINE
8
BLACK
6
CONTINUOUS
10
6.03213
20
-2.19404
11
6.02902
21
-2.19612
0
LINE
8
BLACK
6
CONTINUOUS
10
6.02902
20
-2.19612
11
6.02534
21
-2.19685
0
LINE
8
BLACK
6
CONTINUOUS
10
6.02534
20
-2.19685
11
6.00615
21
-2.19685
0
LINE
8
BLACK
6
CONTINUOUS
10
6.00615
20
-2.19685
11
6.00248
21
-2.19612
0
LINE
8
BLACK
6
CONTINUOUS
10
6.00248
20
-2.19612
11
5.99937
21
-2.19404
0
LINE
8
BLACK
6
CONTINUOUS
10
5.99937
20
-2.19404
11
5.99729
21
-2.19093
0
LINE
8
BLACK
6
CONTINUOUS
10
5.99729
20
-2.19093
11
5.99656
21
-2.18725
0
LINE
8
BLACK
6
CONTINUOUS
10
5.99656
20
-2.18725
11
5.99656
21
-2.15133
0
LINE
8
BLACK
6
CONTINUOUS
10
5.99656
20
-2.15133
11
5.99729
21
-2.14766
0
LINE
8
BLACK
6
CONTINUOUS
10
5.99729
20
-2.14766
11
5.99937
21
-2.14454
0
LINE
8
BLACK
6
CONTINUOUS
10
5.99937
20
-2.14454
11
6.00248
21
-2.14246
0
LINE
8
BLACK
6
CONTINUOUS
10
6.00248
20
-2.14246
11
6.00615
21
-2.14173
0
LINE
8
BLACK
6
CONTINUOUS
10
6.00615
20
-2.14173
11
6.02534
21
-2.14173
0
LINE
8
BLACK
6
CONTINUOUS
10
6.02534
20
-2.14173
11
6.02902
21
-2.14246
0
LINE
8
BLACK
6
CONTINUOUS
10
5.9552
20
-2.14246
11
5.95831
21
-2.14454
0
LINE
8
BLACK
6
CONTINUOUS
10
5.95831
20
-2.14454
11
5.96039
21
-2.14766
0
LINE
8
BLACK
6
CONTINUOUS
10
5.96039
20
-2.14766
11
5.96112
21
-2.15133
0
LINE
8
BLACK
6
CONTINUOUS
10
5.96112
20
-2.15133
11
5.96112
21
-2.18725
0
LINE
8
BLACK
6
CONTINUOUS
10
5.96112
20
-2.18725
11
5.96039
21
-2.19093
0
LINE
8
BLACK
6
CONTINUOUS
10
5.96039
20
-2.19093
11
5.95831
21
-2.19404
0
LINE
8
BLACK
6
CONTINUOUS
10
5.95831
20
-2.19404
11
5.9552
21
-2.19612
0
LINE
8
BLACK
6
CONTINUOUS
10
5.9552
20
-2.19612
11
5.95153
21
-2.19685
0
LINE
8
BLACK
6
CONTINUOUS
10
5.95153
20
-2.19685
11
5.93233
21
-2.19685
0
LINE
8
BLACK
6
CONTINUOUS
10
5.93233
20
-2.19685
11
5.92866
21
-2.19612
0
LINE
8
BLACK
6
CONTINUOUS
10
5.92866
20
-2.19612
11
5.92555
21
-2.19404
0
LINE
8
BLACK
6
CONTINUOUS
10
5.92555
20
-2.19404
11
5.92347
21
-2.19093
0
LINE
8
BLACK
6
CONTINUOUS
10
5.92347
20
-2.19093
11
5.92274
21
-2.18725
0
LINE
8
BLACK
6
CONTINUOUS
10
5.92274
20
-2.18725
11
5.92274
21
-2.15133
0
LINE
8
BLACK
6
CONTINUOUS
10
5.92274
20
-2.15133
11
5.92347
21
-2.14766
0
LINE
8
BLACK
6
CONTINUOUS
10
5.92347
20
-2.14766
11
5.92555
21
-2.14454
0
LINE
8
BLACK
6
CONTINUOUS
10
5.92555
20
-2.14454
11
5.92866
21
-2.14246
0
LINE
8
BLACK
6
CONTINUOUS
10
5.92866
20
-2.14246
11
5.93233
21
-2.14173
0
LINE
8
BLACK
6
CONTINUOUS
10
5.93233
20
-2.14173
11
5.95153
21
-2.14173
0
LINE
8
BLACK
6
CONTINUOUS
10
5.95153
20
-2.14173
11
5.9552
21
-2.14246
0
LINE
8
BLACK
6
CONTINUOUS
10
8.03103
20
-2.16073
11
8.03231
21
-2.16159
0
LINE
8
BLACK
6
CONTINUOUS
10
8.03231
20
-2.16159
11
8.03316
21
-2.16286
0
LINE
8
BLACK
6
CONTINUOUS
10
8.03316
20
-2.16286
11
8.03346
21
-2.16437
0
LINE
8
BLACK
6
CONTINUOUS
10
8.03346
20
-2.16437
11
8.03346
21
-2.17224
0
LINE
8
BLACK
6
CONTINUOUS
10
8.03346
20
-2.17224
11
8.03316
21
-2.17375
0
LINE
8
BLACK
6
CONTINUOUS
10
8.03316
20
-2.17375
11
8.03231
21
-2.17503
0
LINE
8
BLACK
6
CONTINUOUS
10
8.03231
20
-2.17503
11
8.03103
21
-2.17588
0
LINE
8
BLACK
6
CONTINUOUS
10
8.03103
20
-2.17588
11
8.02953
21
-2.17618
0
LINE
8
BLACK
6
CONTINUOUS
10
8.02953
20
-2.17618
11
7.97933
21
-2.17618
0
LINE
8
BLACK
6
CONTINUOUS
10
7.97933
20
-2.17618
11
7.97782
21
-2.17588
0
LINE
8
BLACK
6
CONTINUOUS
10
7.97782
20
-2.17588
11
7.97655
21
-2.17503
0
LINE
8
BLACK
6
CONTINUOUS
10
7.97655
20
-2.17503
11
7.97569
21
-2.17375
0
LINE
8
BLACK
6
CONTINUOUS
10
7.97569
20
-2.17375
11
7.97539
21
-2.17224
0
LINE
8
BLACK
6
CONTINUOUS
10
7.97539
20
-2.17224
11
7.97539
21
-2.16437
0
LINE
8
BLACK
6
CONTINUOUS
10
7.97539
20
-2.16437
11
7.97569
21
-2.16286
0
LINE
8
BLACK
6
CONTINUOUS
10
7.97569
20
-2.16286
11
7.97655
21
-2.16159
0
LINE
8
BLACK
6
CONTINUOUS
10
7.97655
20
-2.16159
11
7.97782
21
-2.16073
0
LINE
8
BLACK
6
CONTINUOUS
10
7.97782
20
-2.16073
11
7.97933
21
-2.16043
0
LINE
8
BLACK
6
CONTINUOUS
10
7.97933
20
-2.16043
11
8.02953
21
-2.16043
0
LINE
8
BLACK
6
CONTINUOUS
10
8.02953
20
-2.16043
11
8.03103
21
-2.16073
0
LINE
8
BLACK
6
CONTINUOUS
10
7.80564
20
-2.16073
11
7.80692
21
-2.16159
0
LINE
8
BLACK
6
CONTINUOUS
10
7.80692
20
-2.16159
11
7.80777
21
-2.16286
0
LINE
8
BLACK
6
CONTINUOUS
10
7.80777
20
-2.16286
11
7.80807
21
-2.16437
0
LINE
8
BLACK
6
CONTINUOUS
10
7.80807
20
-2.16437
11
7.80807
21
-2.17224
0
LINE
8
BLACK
6
CONTINUOUS
10
7.80807
20
-2.17224
11
7.80777
21
-2.17375
0
LINE
8
BLACK
6
CONTINUOUS
10
7.80777
20
-2.17375
11
7.80692
21
-2.17503
0
LINE
8
BLACK
6
CONTINUOUS
10
7.80692
20
-2.17503
11
7.80564
21
-2.17588
0
LINE
8
BLACK
6
CONTINUOUS
10
7.80564
20
-2.17588
11
7.80413
21
-2.17618
0
LINE
8
BLACK
6
CONTINUOUS
10
7.80413
20
-2.17618
11
7.75394
21
-2.17618
0
LINE
8
BLACK
6
CONTINUOUS
10
7.75394
20
-2.17618
11
7.75243
21
-2.17588
0
LINE
8
BLACK
6
CONTINUOUS
10
7.75243
20
-2.17588
11
7.75115
21
-2.17503
0
LINE
8
BLACK
6
CONTINUOUS
10
7.75115
20
-2.17503
11
7.7503
21
-2.17375
0
LINE
8
BLACK
6
CONTINUOUS
10
7.7503
20
-2.17375
11
7.75
21
-2.17224
0
LINE
8
BLACK
6
CONTINUOUS
10
7.75
20
-2.17224
11
7.75
21
-2.16437
0
LINE
8
BLACK
6
CONTINUOUS
10
7.75
20
-2.16437
11
7.7503
21
-2.16286
0
LINE
8
BLACK
6
CONTINUOUS
10
7.7503
20
-2.16286
11
7.75115
21
-2.16159
0
LINE
8
BLACK
6
CONTINUOUS
10
7.75115
20
-2.16159
11
7.75243
21
-2.16073
0
LINE
8
BLACK
6
CONTINUOUS
10
7.75243
20
-2.16073
11
7.75394
21
-2.16043
0
LINE
8
BLACK
6
CONTINUOUS
10
7.75394
20
-2.16043
11
7.80413
21
-2.16043
0
LINE
8
BLACK
6
CONTINUOUS
10
7.80413
20
-2.16043
11
7.80564
21
-2.16073
0
LINE
8
BLACK
6
CONTINUOUS
10
6.76164
20
-2.12959
11
6.76483
21
-2.13172
0
LINE
8
BLACK
6
CONTINUOUS
10
6.76483
20
-2.13172
11
6.76697
21
-2.13491
0
LINE
8
BLACK
6
CONTINUOUS
10
6.76697
20
-2.13491
11
6.76772
21
-2.13868
0
LINE
8
BLACK
6
CONTINUOUS
10
6.76772
20
-2.13868
11
6.76772
21
-2.15935
0
LINE
8
BLACK
6
CONTINUOUS
10
6.76772
20
-2.15935
11
6.76697
21
-2.16312
0
LINE
8
BLACK
6
CONTINUOUS
10
6.76697
20
-2.16312
11
6.76483
21
-2.16631
0
LINE
8
BLACK
6
CONTINUOUS
10
6.76483
20
-2.16631
11
6.76164
21
-2.16844
0
LINE
8
BLACK
6
CONTINUOUS
10
6.76164
20
-2.16844
11
6.75787
21
-2.16919
0
LINE
8
BLACK
6
CONTINUOUS
10
6.75787
20
-2.16919
11
6.72244
21
-2.16919
0
LINE
8
BLACK
6
CONTINUOUS
10
6.72244
20
-2.16919
11
6.71867
21
-2.16844
0
LINE
8
BLACK
6
CONTINUOUS
10
6.71867
20
-2.16844
11
6.71548
21
-2.16631
0
LINE
8
BLACK
6
CONTINUOUS
10
6.71548
20
-2.16631
11
6.71335
21
-2.16312
0
LINE
8
BLACK
6
CONTINUOUS
10
6.71335
20
-2.16312
11
6.7126
21
-2.15935
0
LINE
8
BLACK
6
CONTINUOUS
10
6.7126
20
-2.15935
11
6.7126
21
-2.13868
0
LINE
8
BLACK
6
CONTINUOUS
10
6.7126
20
-2.13868
11
6.71335
21
-2.13491
0
LINE
8
BLACK
6
CONTINUOUS
10
6.71335
20
-2.13491
11
6.71548
21
-2.13172
0
LINE
8
BLACK
6
CONTINUOUS
10
6.71548
20
-2.13172
11
6.71867
21
-2.12959
0
LINE
8
BLACK
6
CONTINUOUS
10
6.71867
20
-2.12959
11
6.72244
21
-2.12884
0
LINE
8
BLACK
6
CONTINUOUS
10
6.72244
20
-2.12884
11
6.75787
21
-2.12884
0
LINE
8
BLACK
6
CONTINUOUS
10
6.75787
20
-2.12884
11
6.76164
21
-2.12959
0
LINE
8
BLACK
6
CONTINUOUS
10
6.55888
20
-2.12959
11
6.56208
21
-2.13172
0
LINE
8
BLACK
6
CONTINUOUS
10
6.56208
20
-2.13172
11
6.56421
21
-2.13491
0
LINE
8
BLACK
6
CONTINUOUS
10
6.56421
20
-2.13491
11
6.56496
21
-2.13868
0
LINE
8
BLACK
6
CONTINUOUS
10
6.56496
20
-2.13868
11
6.56496
21
-2.15935
0
LINE
8
BLACK
6
CONTINUOUS
10
6.56496
20
-2.15935
11
6.56421
21
-2.16312
0
LINE
8
BLACK
6
CONTINUOUS
10
6.56421
20
-2.16312
11
6.56208
21
-2.16631
0
LINE
8
BLACK
6
CONTINUOUS
10
6.56208
20
-2.16631
11
6.55888
21
-2.16844
0
LINE
8
BLACK
6
CONTINUOUS
10
6.55888
20
-2.16844
11
6.55512
21
-2.16919
0
LINE
8
BLACK
6
CONTINUOUS
10
6.55512
20
-2.16919
11
6.51969
21
-2.16919
0
LINE
8
BLACK
6
CONTINUOUS
10
6.51969
20
-2.16919
11
6.51592
21
-2.16844
0
LINE
8
BLACK
6
CONTINUOUS
10
6.51592
20
-2.16844
11
6.51273
21
-2.16631
0
LINE
8
BLACK
6
CONTINUOUS
10
6.51273
20
-2.16631
11
6.51059
21
-2.16312
0
LINE
8
BLACK
6
CONTINUOUS
10
6.51059
20
-2.16312
11
6.50984
21
-2.15935
0
LINE
8
BLACK
6
CONTINUOUS
10
6.50984
20
-2.15935
11
6.50984
21
-2.13868
0
LINE
8
BLACK
6
CONTINUOUS
10
6.50984
20
-2.13868
11
6.51059
21
-2.13491
0
LINE
8
BLACK
6
CONTINUOUS
10
6.51059
20
-2.13491
11
6.51273
21
-2.13172
0
LINE
8
BLACK
6
CONTINUOUS
10
6.51273
20
-2.13172
11
6.51592
21
-2.12959
0
LINE
8
BLACK
6
CONTINUOUS
10
6.51592
20
-2.12959
11
6.51969
21
-2.12884
0
LINE
8
BLACK
6
CONTINUOUS
10
6.51969
20
-2.12884
11
6.55512
21
-2.12884
0
LINE
8
BLACK
6
CONTINUOUS
10
6.55512
20
-2.12884
11
6.55888
21
-2.12959
0
LINE
8
BLACK
6
CONTINUOUS
10
6.65731
20
-2.12713
11
6.6605
21
-2.12926
0
LINE
8
BLACK
6
CONTINUOUS
10
6.6605
20
-2.12926
11
6.66264
21
-2.13245
0
LINE
8
BLACK
6
CONTINUOUS
10
6.66264
20
-2.13245
11
6.66339
21
-2.13622
0
LINE
8
BLACK
6
CONTINUOUS
10
6.66339
20
-2.13622
11
6.66339
21
-2.15689
0
LINE
8
BLACK
6
CONTINUOUS
10
6.66339
20
-2.15689
11
6.66264
21
-2.16066
0
LINE
8
BLACK
6
CONTINUOUS
10
6.66264
20
-2.16066
11
6.6605
21
-2.16385
0
LINE
8
BLACK
6
CONTINUOUS
10
6.6605
20
-2.16385
11
6.65731
21
-2.16598
0
LINE
8
BLACK
6
CONTINUOUS
10
6.65731
20
-2.16598
11
6.65354
21
-2.16673
0
LINE
8
BLACK
6
CONTINUOUS
10
6.65354
20
-2.16673
11
6.61811
21
-2.16673
0
LINE
8
BLACK
6
CONTINUOUS
10
6.61811
20
-2.16673
11
6.61434
21
-2.16598
0
LINE
8
BLACK
6
CONTINUOUS
10
6.61434
20
-2.16598
11
6.61115
21
-2.16385
0
LINE
8
BLACK
6
CONTINUOUS
10
6.61115
20
-2.16385
11
6.60902
21
-2.16066
0
LINE
8
BLACK
6
CONTINUOUS
10
6.60902
20
-2.16066
11
6.60827
21
-2.15689
0
LINE
8
BLACK
6
CONTINUOUS
10
6.60827
20
-2.15689
11
6.60827
21
-2.13622
0
LINE
8
BLACK
6
CONTINUOUS
10
6.60827
20
-2.13622
11
6.60902
21
-2.13245
0
LINE
8
BLACK
6
CONTINUOUS
10
6.60902
20
-2.13245
11
6.61115
21
-2.12926
0
LINE
8
BLACK
6
CONTINUOUS
10
6.61115
20
-2.12926
11
6.61434
21
-2.12713
0
LINE
8
BLACK
6
CONTINUOUS
10
6.61434
20
-2.12713
11
6.61811
21
-2.12638
0
LINE
8
BLACK
6
CONTINUOUS
10
6.61811
20
-2.12638
11
6.65354
21
-2.12638
0
LINE
8
BLACK
6
CONTINUOUS
10
6.65354
20
-2.12638
11
6.65731
21
-2.12713
0
LINE
8
BLACK
6
CONTINUOUS
10
6.45455
20
-2.12664
11
6.45775
21
-2.12877
0
LINE
8
BLACK
6
CONTINUOUS
10
6.45775
20
-2.12877
11
6.45988
21
-2.13196
0
LINE
8
BLACK
6
CONTINUOUS
10
6.45988
20
-2.13196
11
6.46063
21
-2.13573
0
LINE
8
BLACK
6
CONTINUOUS
10
6.46063
20
-2.13573
11
6.46063
21
-2.1564
0
LINE
8
BLACK
6
CONTINUOUS
10
6.46063
20
-2.1564
11
6.45988
21
-2.16016
0
LINE
8
BLACK
6
CONTINUOUS
10
6.45988
20
-2.16016
11
6.45775
21
-2.16336
0
LINE
8
BLACK
6
CONTINUOUS
10
6.45775
20
-2.16336
11
6.45455
21
-2.16549
0
LINE
8
BLACK
6
CONTINUOUS
10
6.45455
20
-2.16549
11
6.45079
21
-2.16624
0
LINE
8
BLACK
6
CONTINUOUS
10
6.45079
20
-2.16624
11
6.41535
21
-2.16624
0
LINE
8
BLACK
6
CONTINUOUS
10
6.41535
20
-2.16624
11
6.41159
21
-2.16549
0
LINE
8
BLACK
6
CONTINUOUS
10
6.41159
20
-2.16549
11
6.40839
21
-2.16336
0
LINE
8
BLACK
6
CONTINUOUS
10
6.40839
20
-2.16336
11
6.40626
21
-2.16016
0
LINE
8
BLACK
6
CONTINUOUS
10
6.40626
20
-2.16016
11
6.40551
21
-2.1564
0
LINE
8
BLACK
6
CONTINUOUS
10
6.40551
20
-2.1564
11
6.40551
21
-2.13573
0
LINE
8
BLACK
6
CONTINUOUS
10
6.40551
20
-2.13573
11
6.40626
21
-2.13196
0
LINE
8
BLACK
6
CONTINUOUS
10
6.40626
20
-2.13196
11
6.40839
21
-2.12877
0
LINE
8
BLACK
6
CONTINUOUS
10
6.40839
20
-2.12877
11
6.41159
21
-2.12664
0
LINE
8
BLACK
6
CONTINUOUS
10
6.41159
20
-2.12664
11
6.41535
21
-2.12589
0
LINE
8
BLACK
6
CONTINUOUS
10
6.41535
20
-2.12589
11
6.45079
21
-2.12589
0
LINE
8
BLACK
6
CONTINUOUS
10
6.45079
20
-2.12589
11
6.45455
21
-2.12664
0
LINE
8
BLACK
6
CONTINUOUS
10
6.86597
20
-2.12565
11
6.86916
21
-2.12778
0
LINE
8
BLACK
6
CONTINUOUS
10
6.86916
20
-2.12778
11
6.8713
21
-2.13098
0
LINE
8
BLACK
6
CONTINUOUS
10
6.8713
20
-2.13098
11
6.87205
21
-2.13474
0
LINE
8
BLACK
6
CONTINUOUS
10
6.87205
20
-2.13474
11
6.87205
21
-2.15541
0
LINE
8
BLACK
6
CONTINUOUS
10
6.87205
20
-2.15541
11
6.8713
21
-2.15918
0
LINE
8
BLACK
6
CONTINUOUS
10
6.8713
20
-2.15918
11
6.86916
21
-2.16237
0
LINE
8
BLACK
6
CONTINUOUS
10
6.86916
20
-2.16237
11
6.86597
21
-2.16451
0
LINE
8
BLACK
6
CONTINUOUS
10
6.86597
20
-2.16451
11
6.8622
21
-2.16526
0
LINE
8
BLACK
6
CONTINUOUS
10
6.8622
20
-2.16526
11
6.82677
21
-2.16526
0
LINE
8
BLACK
6
CONTINUOUS
10
6.82677
20
-2.16526
11
6.82301
21
-2.16451
0
LINE
8
BLACK
6
CONTINUOUS
10
6.82301
20
-2.16451
11
6.81981
21
-2.16237
0
LINE
8
BLACK
6
CONTINUOUS
10
6.81981
20
-2.16237
11
6.81768
21
-2.15918
0
LINE
8
BLACK
6
CONTINUOUS
10
6.81768
20
-2.15918
11
6.81693
21
-2.15541
0
LINE
8
BLACK
6
CONTINUOUS
10
6.81693
20
-2.15541
11
6.81693
21
-2.13474
0
LINE
8
BLACK
6
CONTINUOUS
10
6.81693
20
-2.13474
11
6.81768
21
-2.13098
0
LINE
8
BLACK
6
CONTINUOUS
10
6.81768
20
-2.13098
11
6.81981
21
-2.12778
0
LINE
8
BLACK
6
CONTINUOUS
10
6.81981
20
-2.12778
11
6.82301
21
-2.12565
0
LINE
8
BLACK
6
CONTINUOUS
10
6.82301
20
-2.12565
11
6.82677
21
-2.1249
0
LINE
8
BLACK
6
CONTINUOUS
10
6.82677
20
-2.1249
11
6.8622
21
-2.1249
0
LINE
8
BLACK
6
CONTINUOUS
10
6.8622
20
-2.1249
11
6.86597
21
-2.12565
0
LINE
8
BLACK
6
CONTINUOUS
10
8.03103
20
-2.13514
11
8.03231
21
-2.136
0
LINE
8
BLACK
6
CONTINUOUS
10
8.03231
20
-2.136
11
8.03316
21
-2.13727
0
LINE
8
BLACK
6
CONTINUOUS
10
8.03316
20
-2.13727
11
8.03346
21
-2.13878
0
LINE
8
BLACK
6
CONTINUOUS
10
8.03346
20
-2.13878
11
8.03346
21
-2.14665
0
LINE
8
BLACK
6
CONTINUOUS
10
8.03346
20
-2.14665
11
8.03316
21
-2.14816
0
LINE
8
BLACK
6
CONTINUOUS
10
8.03316
20
-2.14816
11
8.03231
21
-2.14944
0
LINE
8
BLACK
6
CONTINUOUS
10
8.03231
20
-2.14944
11
8.03103
21
-2.15029
0
LINE
8
BLACK
6
CONTINUOUS
10
8.03103
20
-2.15029
11
8.02953
21
-2.15059
0
LINE
8
BLACK
6
CONTINUOUS
10
8.02953
20
-2.15059
11
7.97933
21
-2.15059
0
LINE
8
BLACK
6
CONTINUOUS
10
7.97933
20
-2.15059
11
7.97782
21
-2.15029
0
LINE
8
BLACK
6
CONTINUOUS
10
7.97782
20
-2.15029
11
7.97655
21
-2.14944
0
LINE
8
BLACK
6
CONTINUOUS
10
7.97655
20
-2.14944
11
7.97569
21
-2.14816
0
LINE
8
BLACK
6
CONTINUOUS
10
7.97569
20
-2.14816
11
7.97539
21
-2.14665
0
LINE
8
BLACK
6
CONTINUOUS
10
7.97539
20
-2.14665
11
7.97539
21
-2.13878
0
LINE
8
BLACK
6
CONTINUOUS
10
7.97539
20
-2.13878
11
7.97569
21
-2.13727
0
LINE
8
BLACK
6
CONTINUOUS
10
7.97569
20
-2.13727
11
7.97655
21
-2.136
0
LINE
8
BLACK
6
CONTINUOUS
10
7.97655
20
-2.136
11
7.97782
21
-2.13514
0
LINE
8
BLACK
6
CONTINUOUS
10
7.97782
20
-2.13514
11
7.97933
21
-2.13484
0
LINE
8
BLACK
6
CONTINUOUS
10
7.97933
20
-2.13484
11
8.02953
21
-2.13484
0
LINE
8
BLACK
6
CONTINUOUS
10
8.02953
20
-2.13484
11
8.03103
21
-2.13514
0
LINE
8
BLACK
6
CONTINUOUS
10
7.80564
20
-2.13514
11
7.80692
21
-2.136
0
LINE
8
BLACK
6
CONTINUOUS
10
7.80692
20
-2.136
11
7.80777
21
-2.13727
0
LINE
8
BLACK
6
CONTINUOUS
10
7.80777
20
-2.13727
11
7.80807
21
-2.13878
0
LINE
8
BLACK
6
CONTINUOUS
10
7.80807
20
-2.13878
11
7.80807
21
-2.14665
0
LINE
8
BLACK
6
CONTINUOUS
10
7.80807
20
-2.14665
11
7.80777
21
-2.14816
0
LINE
8
BLACK
6
CONTINUOUS
10
7.80777
20
-2.14816
11
7.80692
21
-2.14944
0
LINE
8
BLACK
6
CONTINUOUS
10
7.80692
20
-2.14944
11
7.80564
21
-2.15029
0
LINE
8
BLACK
6
CONTINUOUS
10
7.80564
20
-2.15029
11
7.80413
21
-2.15059
0
LINE
8
BLACK
6
CONTINUOUS
10
7.80413
20
-2.15059
11
7.75394
21
-2.15059
0
LINE
8
BLACK
6
CONTINUOUS
10
7.75394
20
-2.15059
11
7.75243
21
-2.15029
0
LINE
8
BLACK
6
CONTINUOUS
10
7.75243
20
-2.15029
11
7.75115
21
-2.14944
0
LINE
8
BLACK
6
CONTINUOUS
10
7.75115
20
-2.14944
11
7.7503
21
-2.14816
0
LINE
8
BLACK
6
CONTINUOUS
10
7.7503
20
-2.14816
11
7.75
21
-2.14665
0
LINE
8
BLACK
6
CONTINUOUS
10
7.75
20
-2.14665
11
7.75
21
-2.13878
0
LINE
8
BLACK
6
CONTINUOUS
10
7.75
20
-2.13878
11
7.7503
21
-2.13727
0
LINE
8
BLACK
6
CONTINUOUS
10
7.7503
20
-2.13727
11
7.75115
21
-2.136
0
LINE
8
BLACK
6
CONTINUOUS
10
7.75115
20
-2.136
11
7.75243
21
-2.13514
0
LINE
8
BLACK
6
CONTINUOUS
10
7.75243
20
-2.13514
11
7.75394
21
-2.13484
0
LINE
8
BLACK
6
CONTINUOUS
10
7.75394
20
-2.13484
11
7.80413
21
-2.13484
0
LINE
8
BLACK
6
CONTINUOUS
10
7.80413
20
-2.13484
11
7.80564
21
-2.13514
0
LINE
8
BLACK
6
CONTINUOUS
10
8.03103
20
-2.10955
11
8.03231
21
-2.11041
0
LINE
8
BLACK
6
CONTINUOUS
10
8.03231
20
-2.11041
11
8.03316
21
-2.11168
0
LINE
8
BLACK
6
CONTINUOUS
10
8.03316
20
-2.11168
11
8.03346
21
-2.11319
0
LINE
8
BLACK
6
CONTINUOUS
10
8.03346
20
-2.11319
11
8.03346
21
-2.12106
0
LINE
8
BLACK
6
CONTINUOUS
10
8.03346
20
-2.12106
11
8.03316
21
-2.12257
0
LINE
8
BLACK
6
CONTINUOUS
10
8.03316
20
-2.12257
11
8.03231
21
-2.12385
0
LINE
8
BLACK
6
CONTINUOUS
10
8.03231
20
-2.12385
11
8.03103
21
-2.1247
0
LINE
8
BLACK
6
CONTINUOUS
10
8.03103
20
-2.1247
11
8.02953
21
-2.125
0
LINE
8
BLACK
6
CONTINUOUS
10
8.02953
20
-2.125
11
7.97933
21
-2.125
0
LINE
8
BLACK
6
CONTINUOUS
10
7.97933
20
-2.125
11
7.97782
21
-2.1247
0
LINE
8
BLACK
6
CONTINUOUS
10
7.97782
20
-2.1247
11
7.97655
21
-2.12385
0
LINE
8
BLACK
6
CONTINUOUS
10
7.97655
20
-2.12385
11
7.97569
21
-2.12257
0
LINE
8
BLACK
6
CONTINUOUS
10
7.97569
20
-2.12257
11
7.97539
21
-2.12106
0
LINE
8
BLACK
6
CONTINUOUS
10
7.97539
20
-2.12106
11
7.97539
21
-2.11319
0
LINE
8
BLACK
6
CONTINUOUS
10
7.97539
20
-2.11319
11
7.97569
21
-2.11168
0
LINE
8
BLACK
6
CONTINUOUS
10
7.97569
20
-2.11168
11
7.97655
21
-2.11041
0
LINE
8
BLACK
6
CONTINUOUS
10
7.97655
20
-2.11041
11
7.97782
21
-2.10955
0
LINE
8
BLACK
6
CONTINUOUS
10
7.97782
20
-2.10955
11
7.97933
21
-2.10925
0
LINE
8
BLACK
6
CONTINUOUS
10
7.97933
20
-2.10925
11
8.02953
21
-2.10925
0
LINE
8
BLACK
6
CONTINUOUS
10
8.02953
20
-2.10925
11
8.03103
21
-2.10955
0
LINE
8
BLACK
6
CONTINUOUS
10
7.80564
20
-2.10955
11
7.80692
21
-2.11041
0
LINE
8
BLACK
6
CONTINUOUS
10
7.80692
20
-2.11041
11
7.80777
21
-2.11168
0
LINE
8
BLACK
6
CONTINUOUS
10
7.80777
20
-2.11168
11
7.80807
21
-2.11319
0
LINE
8
BLACK
6
CONTINUOUS
10
7.80807
20
-2.11319
11
7.80807
21
-2.12106
0
LINE
8
BLACK
6
CONTINUOUS
10
7.80807
20
-2.12106
11
7.80777
21
-2.12257
0
LINE
8
BLACK
6
CONTINUOUS
10
7.80777
20
-2.12257
11
7.80692
21
-2.12385
0
LINE
8
BLACK
6
CONTINUOUS
10
7.80692
20
-2.12385
11
7.80564
21
-2.1247
0
LINE
8
BLACK
6
CONTINUOUS
10
7.80564
20
-2.1247
11
7.80413
21
-2.125
0
LINE
8
BLACK
6
CONTINUOUS
10
7.80413
20
-2.125
11
7.75394
21
-2.125
0
LINE
8
BLACK
6
CONTINUOUS
10
7.75394
20
-2.125
11
7.75243
21
-2.1247
0
LINE
8
BLACK
6
CONTINUOUS
10
7.75243
20
-2.1247
11
7.75115
21
-2.12385
0
LINE
8
BLACK
6
CONTINUOUS
10
7.75115
20
-2.12385
11
7.7503
21
-2.12257
0
LINE
8
BLACK
6
CONTINUOUS
10
7.7503
20
-2.12257
11
7.75
21
-2.12106
0
LINE
8
BLACK
6
CONTINUOUS
10
7.75
20
-2.12106
11
7.75
21
-2.11319
0
LINE
8
BLACK
6
CONTINUOUS
10
7.75
20
-2.11319
11
7.7503
21
-2.11168
0
LINE
8
BLACK
6
CONTINUOUS
10
7.7503
20
-2.11168
11
7.75115
21
-2.11041
0
LINE
8
BLACK
6
CONTINUOUS
10
7.75115
20
-2.11041
11
7.75243
21
-2.10955
0
LINE
8
BLACK
6
CONTINUOUS
10
7.75243
20
-2.10955
11
7.75394
21
-2.10925
0
LINE
8
BLACK
6
CONTINUOUS
10
7.75394
20
-2.10925
11
7.80413
21
-2.10925
0
LINE
8
BLACK
6
CONTINUOUS
10
7.80413
20
-2.10925
11
7.80564
21
-2.10955
0
LINE
8
BLACK
6
CONTINUOUS
10
6.76164
20
-2.05774
11
6.76483
21
-2.05987
0
LINE
8
BLACK
6
CONTINUOUS
10
6.76483
20
-2.05987
11
6.76697
21
-2.06306
0
LINE
8
BLACK
6
CONTINUOUS
10
6.76697
20
-2.06306
11
6.76772
21
-2.06683
0
LINE
8
BLACK
6
CONTINUOUS
10
6.76772
20
-2.06683
11
6.76772
21
-2.0875
0
LINE
8
BLACK
6
CONTINUOUS
10
6.76772
20
-2.0875
11
6.76697
21
-2.09127
0
LINE
8
BLACK
6
CONTINUOUS
10
6.76697
20
-2.09127
11
6.76483
21
-2.09446
0
LINE
8
BLACK
6
CONTINUOUS
10
6.76483
20
-2.09446
11
6.76164
21
-2.09659
0
LINE
8
BLACK
6
CONTINUOUS
10
6.76164
20
-2.09659
11
6.75787
21
-2.09734
0
LINE
8
BLACK
6
CONTINUOUS
10
6.75787
20
-2.09734
11
6.72244
21
-2.09734
0
LINE
8
BLACK
6
CONTINUOUS
10
6.72244
20
-2.09734
11
6.71867
21
-2.09659
0
LINE
8
BLACK
6
CONTINUOUS
10
6.71867
20
-2.09659
11
6.71548
21
-2.09446
0
LINE
8
BLACK
6
CONTINUOUS
10
6.71548
20
-2.09446
11
6.71335
21
-2.09127
0
LINE
8
BLACK
6
CONTINUOUS
10
6.71335
20
-2.09127
11
6.7126
21
-2.0875
0
LINE
8
BLACK
6
CONTINUOUS
10
6.7126
20
-2.0875
11
6.7126
21
-2.06683
0
LINE
8
BLACK
6
CONTINUOUS
10
6.7126
20
-2.06683
11
6.71335
21
-2.06306
0
LINE
8
BLACK
6
CONTINUOUS
10
6.71335
20
-2.06306
11
6.71548
21
-2.05987
0
LINE
8
BLACK
6
CONTINUOUS
10
6.71548
20
-2.05987
11
6.71867
21
-2.05774
0
LINE
8
BLACK
6
CONTINUOUS
10
6.71867
20
-2.05774
11
6.72244
21
-2.05699
0
LINE
8
BLACK
6
CONTINUOUS
10
6.72244
20
-2.05699
11
6.75787
21
-2.05699
0
LINE
8
BLACK
6
CONTINUOUS
10
6.75787
20
-2.05699
11
6.76164
21
-2.05774
0
LINE
8
BLACK
6
CONTINUOUS
10
6.55888
20
-2.05774
11
6.56208
21
-2.05987
0
LINE
8
BLACK
6
CONTINUOUS
10
6.56208
20
-2.05987
11
6.56421
21
-2.06306
0
LINE
8
BLACK
6
CONTINUOUS
10
6.56421
20
-2.06306
11
6.56496
21
-2.06683
0
LINE
8
BLACK
6
CONTINUOUS
10
6.56496
20
-2.06683
11
6.56496
21
-2.0875
0
LINE
8
BLACK
6
CONTINUOUS
10
6.56496
20
-2.0875
11
6.56421
21
-2.09127
0
LINE
8
BLACK
6
CONTINUOUS
10
6.56421
20
-2.09127
11
6.56208
21
-2.09446
0
LINE
8
BLACK
6
CONTINUOUS
10
6.56208
20
-2.09446
11
6.55888
21
-2.09659
0
LINE
8
BLACK
6
CONTINUOUS
10
6.55888
20
-2.09659
11
6.55512
21
-2.09734
0
LINE
8
BLACK
6
CONTINUOUS
10
6.55512
20
-2.09734
11
6.51969
21
-2.09734
0
LINE
8
BLACK
6
CONTINUOUS
10
6.51969
20
-2.09734
11
6.51592
21
-2.09659
0
LINE
8
BLACK
6
CONTINUOUS
10
6.51592
20
-2.09659
11
6.51273
21
-2.09446
0
LINE
8
BLACK
6
CONTINUOUS
10
6.51273
20
-2.09446
11
6.51059
21
-2.09127
0
LINE
8
BLACK
6
CONTINUOUS
10
6.51059
20
-2.09127
11
6.50984
21
-2.0875
0
LINE
8
BLACK
6
CONTINUOUS
10
6.50984
20
-2.0875
11
6.50984
21
-2.06683
0
LINE
8
BLACK
6
CONTINUOUS
10
6.50984
20
-2.06683
11
6.51059
21
-2.06306
0
LINE
8
BLACK
6
CONTINUOUS
10
6.51059
20
-2.06306
11
6.51273
21
-2.05987
0
LINE
8
BLACK
6
CONTINUOUS
10
6.51273
20
-2.05987
11
6.51592
21
-2.05774
0
LINE
8
BLACK
6
CONTINUOUS
10
6.51592
20
-2.05774
11
6.51969
21
-2.05699
0
LINE
8
BLACK
6
CONTINUOUS
10
6.51969
20
-2.05699
11
6.55512
21
-2.05699
0
LINE
8
BLACK
6
CONTINUOUS
10
6.55512
20
-2.05699
11
6.55888
21
-2.05774
0
LINE
8
BLACK
6
CONTINUOUS
10
6.65731
20
-2.05528
11
6.6605
21
-2.05741
0
LINE
8
BLACK
6
CONTINUOUS
10
6.6605
20
-2.05741
11
6.66264
21
-2.0606
0
LINE
8
BLACK
6
CONTINUOUS
10
6.66264
20
-2.0606
11
6.66339
21
-2.06437
0
LINE
8
BLACK
6
CONTINUOUS
10
6.66339
20
-2.06437
11
6.66339
21
-2.08504
0
LINE
8
BLACK
6
CONTINUOUS
10
6.66339
20
-2.08504
11
6.66264
21
-2.08881
0
LINE
8
BLACK
6
CONTINUOUS
10
6.66264
20
-2.08881
11
6.6605
21
-2.092
0
LINE
8
BLACK
6
CONTINUOUS
10
6.6605
20
-2.092
11
6.65731
21
-2.09413
0
LINE
8
BLACK
6
CONTINUOUS
10
6.65731
20
-2.09413
11
6.65354
21
-2.09488
0
LINE
8
BLACK
6
CONTINUOUS
10
6.65354
20
-2.09488
11
6.61811
21
-2.09488
0
LINE
8
BLACK
6
CONTINUOUS
10
6.61811
20
-2.09488
11
6.61434
21
-2.09413
0
LINE
8
BLACK
6
CONTINUOUS
10
6.61434
20
-2.09413
11
6.61115
21
-2.092
0
LINE
8
BLACK
6
CONTINUOUS
10
6.61115
20
-2.092
11
6.60902
21
-2.08881
0
LINE
8
BLACK
6
CONTINUOUS
10
6.60902
20
-2.08881
11
6.60827
21
-2.08504
0
LINE
8
BLACK
6
CONTINUOUS
10
6.60827
20
-2.08504
11
6.60827
21
-2.06437
0
LINE
8
BLACK
6
CONTINUOUS
10
6.60827
20
-2.06437
11
6.60902
21
-2.0606
0
LINE
8
BLACK
6
CONTINUOUS
10
6.60902
20
-2.0606
11
6.61115
21
-2.05741
0
LINE
8
BLACK
6
CONTINUOUS
10
6.61115
20
-2.05741
11
6.61434
21
-2.05528
0
LINE
8
BLACK
6
CONTINUOUS
10
6.61434
20
-2.05528
11
6.61811
21
-2.05453
0
LINE
8
BLACK
6
CONTINUOUS
10
6.61811
20
-2.05453
11
6.65354
21
-2.05453
0
LINE
8
BLACK
6
CONTINUOUS
10
6.65354
20
-2.05453
11
6.65731
21
-2.05528
0
LINE
8
BLACK
6
CONTINUOUS
10
6.45455
20
-2.05478
11
6.45775
21
-2.05692
0
LINE
8
BLACK
6
CONTINUOUS
10
6.45775
20
-2.05692
11
6.45988
21
-2.06011
0
LINE
8
BLACK
6
CONTINUOUS
10
6.45988
20
-2.06011
11
6.46063
21
-2.06388
0
LINE
8
BLACK
6
CONTINUOUS
10
6.46063
20
-2.06388
11
6.46063
21
-2.08455
0
LINE
8
BLACK
6
CONTINUOUS
10
6.46063
20
-2.08455
11
6.45988
21
-2.08831
0
LINE
8
BLACK
6
CONTINUOUS
10
6.45988
20
-2.08831
11
6.45775
21
-2.09151
0
LINE
8
BLACK
6
CONTINUOUS
10
6.45775
20
-2.09151
11
6.45455
21
-2.09364
0
LINE
8
BLACK
6
CONTINUOUS
10
6.45455
20
-2.09364
11
6.45079
21
-2.09439
0
LINE
8
BLACK
6
CONTINUOUS
10
6.45079
20
-2.09439
11
6.41535
21
-2.09439
0
LINE
8
BLACK
6
CONTINUOUS
10
6.41535
20
-2.09439
11
6.41159
21
-2.09364
0
LINE
8
BLACK
6
CONTINUOUS
10
6.41159
20
-2.09364
11
6.40839
21
-2.09151
0
LINE
8
BLACK
6
CONTINUOUS
10
6.40839
20
-2.09151
11
6.40626
21
-2.08831
0
LINE
8
BLACK
6
CONTINUOUS
10
6.40626
20
-2.08831
11
6.40551
21
-2.08455
0
LINE
8
BLACK
6
CONTINUOUS
10
6.40551
20
-2.08455
11
6.40551
21
-2.06388
0
LINE
8
BLACK
6
CONTINUOUS
10
6.40551
20
-2.06388
11
6.40626
21
-2.06011
0
LINE
8
BLACK
6
CONTINUOUS
10
6.40626
20
-2.06011
11
6.40839
21
-2.05692
0
LINE
8
BLACK
6
CONTINUOUS
10
6.40839
20
-2.05692
11
6.41159
21
-2.05478
0
LINE
8
BLACK
6
CONTINUOUS
10
6.41159
20
-2.05478
11
6.41535
21
-2.05404
0
LINE
8
BLACK
6
CONTINUOUS
10
6.41535
20
-2.05404
11
6.45079
21
-2.05404
0
LINE
8
BLACK
6
CONTINUOUS
10
6.45079
20
-2.05404
11
6.45455
21
-2.05478
0
LINE
8
BLACK
6
CONTINUOUS
10
6.86597
20
-2.0538
11
6.86916
21
-2.05593
0
LINE
8
BLACK
6
CONTINUOUS
10
6.86916
20
-2.05593
11
6.8713
21
-2.05913
0
LINE
8
BLACK
6
CONTINUOUS
10
6.8713
20
-2.05913
11
6.87205
21
-2.06289
0
LINE
8
BLACK
6
CONTINUOUS
10
6.87205
20
-2.06289
11
6.87205
21
-2.08356
0
LINE
8
BLACK
6
CONTINUOUS
10
6.87205
20
-2.08356
11
6.8713
21
-2.08733
0
LINE
8
BLACK
6
CONTINUOUS
10
6.8713
20
-2.08733
11
6.86916
21
-2.09052
0
LINE
8
BLACK
6
CONTINUOUS
10
6.86916
20
-2.09052
11
6.86597
21
-2.09266
0
LINE
8
BLACK
6
CONTINUOUS
10
6.86597
20
-2.09266
11
6.8622
21
-2.09341
0
LINE
8
BLACK
6
CONTINUOUS
10
6.8622
20
-2.09341
11
6.82677
21
-2.09341
0
LINE
8
BLACK
6
CONTINUOUS
10
6.82677
20
-2.09341
11
6.82301
21
-2.09266
0
LINE
8
BLACK
6
CONTINUOUS
10
6.82301
20
-2.09266
11
6.81981
21
-2.09052
0
LINE
8
BLACK
6
CONTINUOUS
10
6.81981
20
-2.09052
11
6.81768
21
-2.08733
0
LINE
8
BLACK
6
CONTINUOUS
10
6.81768
20
-2.08733
11
6.81693
21
-2.08356
0
LINE
8
BLACK
6
CONTINUOUS
10
6.81693
20
-2.08356
11
6.81693
21
-2.06289
0
LINE
8
BLACK
6
CONTINUOUS
10
6.81693
20
-2.06289
11
6.81768
21
-2.05913
0
LINE
8
BLACK
6
CONTINUOUS
10
6.81768
20
-2.05913
11
6.81981
21
-2.05593
0
LINE
8
BLACK
6
CONTINUOUS
10
6.81981
20
-2.05593
11
6.82301
21
-2.0538
0
LINE
8
BLACK
6
CONTINUOUS
10
6.82301
20
-2.0538
11
6.82677
21
-2.05305
0
LINE
8
BLACK
6
CONTINUOUS
10
6.82677
20
-2.05305
11
6.8622
21
-2.05305
0
LINE
8
BLACK
6
CONTINUOUS
10
6.8622
20
-2.05305
11
6.86597
21
-2.0538
0
LINE
8
BLACK
6
CONTINUOUS
10
6.56282
20
-1.20892
11
6.56601
21
-1.21105
0
LINE
8
BLACK
6
CONTINUOUS
10
6.56601
20
-1.21105
11
6.56815
21
-1.21425
0
LINE
8
BLACK
6
CONTINUOUS
10
6.56815
20
-1.21425
11
6.5689
21
-1.21801
0
LINE
8
BLACK
6
CONTINUOUS
10
6.5689
20
-1.21801
11
6.5689
21
-1.23868
0
LINE
8
BLACK
6
CONTINUOUS
10
6.5689
20
-1.23868
11
6.56815
21
-1.24245
0
LINE
8
BLACK
6
CONTINUOUS
10
6.56815
20
-1.24245
11
6.56601
21
-1.24564
0
LINE
8
BLACK
6
CONTINUOUS
10
6.56601
20
-1.24564
11
6.56282
21
-1.24777
0
LINE
8
BLACK
6
CONTINUOUS
10
6.56282
20
-1.24777
11
6.55906
21
-1.24852
0
LINE
8
BLACK
6
CONTINUOUS
10
6.55906
20
-1.24852
11
6.52362
21
-1.24852
0
LINE
8
BLACK
6
CONTINUOUS
10
6.52362
20
-1.24852
11
6.51986
21
-1.24777
0
LINE
8
BLACK
6
CONTINUOUS
10
6.51986
20
-1.24777
11
6.51666
21
-1.24564
0
LINE
8
BLACK
6
CONTINUOUS
10
6.51666
20
-1.24564
11
6.51453
21
-1.24245
0
LINE
8
BLACK
6
CONTINUOUS
10
6.51453
20
-1.24245
11
6.51378
21
-1.23868
0
LINE
8
BLACK
6
CONTINUOUS
10
6.51378
20
-1.23868
11
6.51378
21
-1.21801
0
LINE
8
BLACK
6
CONTINUOUS
10
6.51378
20
-1.21801
11
6.51453
21
-1.21425
0
LINE
8
BLACK
6
CONTINUOUS
10
6.51453
20
-1.21425
11
6.51666
21
-1.21105
0
LINE
8
BLACK
6
CONTINUOUS
10
6.51666
20
-1.21105
11
6.51986
21
-1.20892
0
LINE
8
BLACK
6
CONTINUOUS
10
6.51986
20
-1.20892
11
6.52362
21
-1.20817
0
LINE
8
BLACK
6
CONTINUOUS
10
6.52362
20
-1.20817
11
6.55906
21
-1.20817
0
LINE
8
BLACK
6
CONTINUOUS
10
6.55906
20
-1.20817
11
6.56282
21
-1.20892
0
LINE
8
BLACK
6
CONTINUOUS
10
6.65731
20
-1.20744
11
6.6605
21
-1.20958
0
LINE
8
BLACK
6
CONTINUOUS
10
6.6605
20
-1.20958
11
6.66264
21
-1.21277
0
LINE
8
BLACK
6
CONTINUOUS
10
6.66264
20
-1.21277
11
6.66339
21
-1.21654
0
LINE
8
BLACK
6
CONTINUOUS
10
6.66339
20
-1.21654
11
6.66339
21
-1.2372
0
LINE
8
BLACK
6
CONTINUOUS
10
6.66339
20
-1.2372
11
6.66264
21
-1.24097
0
LINE
8
BLACK
6
CONTINUOUS
10
6.66264
20
-1.24097
11
6.6605
21
-1.24416
0
LINE
8
BLACK
6
CONTINUOUS
10
6.6605
20
-1.24416
11
6.65731
21
-1.2463
0
LINE
8
BLACK
6
CONTINUOUS
10
6.65731
20
-1.2463
11
6.65354
21
-1.24705
0
LINE
8
BLACK
6
CONTINUOUS
10
6.65354
20
-1.24705
11
6.61811
21
-1.24705
0
LINE
8
BLACK
6
CONTINUOUS
10
6.61811
20
-1.24705
11
6.61434
21
-1.2463
0
LINE
8
BLACK
6
CONTINUOUS
10
6.61434
20
-1.2463
11
6.61115
21
-1.24416
0
LINE
8
BLACK
6
CONTINUOUS
10
6.61115
20
-1.24416
11
6.60902
21
-1.24097
0
LINE
8
BLACK
6
CONTINUOUS
10
6.60902
20
-1.24097
11
6.60827
21
-1.2372
0
LINE
8
BLACK
6
CONTINUOUS
10
6.60827
20
-1.2372
11
6.60827
21
-1.21654
0
LINE
8
BLACK
6
CONTINUOUS
10
6.60827
20
-1.21654
11
6.60902
21
-1.21277
0
LINE
8
BLACK
6
CONTINUOUS
10
6.60902
20
-1.21277
11
6.61115
21
-1.20958
0
LINE
8
BLACK
6
CONTINUOUS
10
6.61115
20
-1.20958
11
6.61434
21
-1.20744
0
LINE
8
BLACK
6
CONTINUOUS
10
6.61434
20
-1.20744
11
6.61811
21
-1.20669
0
LINE
8
BLACK
6
CONTINUOUS
10
6.61811
20
-1.20669
11
6.65354
21
-1.20669
0
LINE
8
BLACK
6
CONTINUOUS
10
6.65354
20
-1.20669
11
6.65731
21
-1.20744
0
LINE
8
BLACK
6
CONTINUOUS
10
6.95652
20
-1.19957
11
6.95972
21
-1.2017
0
LINE
8
BLACK
6
CONTINUOUS
10
6.95972
20
-1.2017
11
6.96185
21
-1.20489
0
LINE
8
BLACK
6
CONTINUOUS
10
6.96185
20
-1.20489
11
6.9626
21
-1.20866
0
LINE
8
BLACK
6
CONTINUOUS
10
6.9626
20
-1.20866
11
6.9626
21
-1.22933
0
LINE
8
BLACK
6
CONTINUOUS
10
6.9626
20
-1.22933
11
6.96185
21
-1.2331
0
LINE
8
BLACK
6
CONTINUOUS
10
6.96185
20
-1.2331
11
6.95972
21
-1.23629
0
LINE
8
BLACK
6
CONTINUOUS
10
6.95972
20
-1.23629
11
6.95652
21
-1.23842
0
LINE
8
BLACK
6
CONTINUOUS
10
6.95652
20
-1.23842
11
6.95276
21
-1.23917
0
LINE
8
BLACK
6
CONTINUOUS
10
6.95276
20
-1.23917
11
6.91732
21
-1.23917
0
LINE
8
BLACK
6
CONTINUOUS
10
6.91732
20
-1.23917
11
6.91356
21
-1.23842
0
LINE
8
BLACK
6
CONTINUOUS
10
6.91356
20
-1.23842
11
6.91036
21
-1.23629
0
LINE
8
BLACK
6
CONTINUOUS
10
6.91036
20
-1.23629
11
6.90823
21
-1.2331
0
LINE
8
BLACK
6
CONTINUOUS
10
6.90823
20
-1.2331
11
6.90748
21
-1.22933
0
LINE
8
BLACK
6
CONTINUOUS
10
6.90748
20
-1.22933
11
6.90748
21
-1.20866
0
LINE
8
BLACK
6
CONTINUOUS
10
6.90748
20
-1.20866
11
6.90823
21
-1.20489
0
LINE
8
BLACK
6
CONTINUOUS
10
6.90823
20
-1.20489
11
6.91036
21
-1.2017
0
LINE
8
BLACK
6
CONTINUOUS
10
6.91036
20
-1.2017
11
6.91356
21
-1.19957
0
LINE
8
BLACK
6
CONTINUOUS
10
6.91356
20
-1.19957
11
6.91732
21
-1.19882
0
LINE
8
BLACK
6
CONTINUOUS
10
6.91732
20
-1.19882
11
6.95276
21
-1.19882
0
LINE
8
BLACK
6
CONTINUOUS
10
6.95276
20
-1.19882
11
6.95652
21
-1.19957
0
LINE
8
BLACK
6
CONTINUOUS
10
6.56282
20
-1.13707
11
6.56601
21
-1.1392
0
LINE
8
BLACK
6
CONTINUOUS
10
6.56601
20
-1.1392
11
6.56815
21
-1.14239
0
LINE
8
BLACK
6
CONTINUOUS
10
6.56815
20
-1.14239
11
6.5689
21
-1.14616
0
LINE
8
BLACK
6
CONTINUOUS
10
6.5689
20
-1.14616
11
6.5689
21
-1.16683
0
LINE
8
BLACK
6
CONTINUOUS
10
6.5689
20
-1.16683
11
6.56815
21
-1.1706
0
LINE
8
BLACK
6
CONTINUOUS
10
6.56815
20
-1.1706
11
6.56601
21
-1.17379
0
LINE
8
BLACK
6
CONTINUOUS
10
6.56601
20
-1.17379
11
6.56282
21
-1.17592
0
LINE
8
BLACK
6
CONTINUOUS
10
6.56282
20
-1.17592
11
6.55906
21
-1.17667
0
LINE
8
BLACK
6
CONTINUOUS
10
6.55906
20
-1.17667
11
6.52362
21
-1.17667
0
LINE
8
BLACK
6
CONTINUOUS
10
6.52362
20
-1.17667
11
6.51986
21
-1.17592
0
LINE
8
BLACK
6
CONTINUOUS
10
6.51986
20
-1.17592
11
6.51666
21
-1.17379
0
LINE
8
BLACK
6
CONTINUOUS
10
6.51666
20
-1.17379
11
6.51453
21
-1.1706
0
LINE
8
BLACK
6
CONTINUOUS
10
6.51453
20
-1.1706
11
6.51378
21
-1.16683
0
LINE
8
BLACK
6
CONTINUOUS
10
6.51378
20
-1.16683
11
6.51378
21
-1.14616
0
LINE
8
BLACK
6
CONTINUOUS
10
6.51378
20
-1.14616
11
6.51453
21
-1.14239
0
LINE
8
BLACK
6
CONTINUOUS
10
6.51453
20
-1.14239
11
6.51666
21
-1.1392
0
LINE
8
BLACK
6
CONTINUOUS
10
6.51666
20
-1.1392
11
6.51986
21
-1.13707
0
LINE
8
BLACK
6
CONTINUOUS
10
6.51986
20
-1.13707
11
6.52362
21
-1.13632
0
LINE
8
BLACK
6
CONTINUOUS
10
6.52362
20
-1.13632
11
6.55906
21
-1.13632
0
LINE
8
BLACK
6
CONTINUOUS
10
6.55906
20
-1.13632
11
6.56282
21
-1.13707
0
LINE
8
BLACK
6
CONTINUOUS
10
6.65731
20
-1.13559
11
6.6605
21
-1.13773
0
LINE
8
BLACK
6
CONTINUOUS
10
6.6605
20
-1.13773
11
6.66264
21
-1.14092
0
LINE
8
BLACK
6
CONTINUOUS
10
6.66264
20
-1.14092
11
6.66339
21
-1.14469
0
LINE
8
BLACK
6
CONTINUOUS
10
6.66339
20
-1.14469
11
6.66339
21
-1.16535
0
LINE
8
BLACK
6
CONTINUOUS
10
6.66339
20
-1.16535
11
6.66264
21
-1.16912
0
LINE
8
BLACK
6
CONTINUOUS
10
6.66264
20
-1.16912
11
6.6605
21
-1.17231
0
LINE
8
BLACK
6
CONTINUOUS
10
6.6605
20
-1.17231
11
6.65731
21
-1.17445
0
LINE
8
BLACK
6
CONTINUOUS
10
6.65731
20
-1.17445
11
6.65354
21
-1.1752
0
LINE
8
BLACK
6
CONTINUOUS
10
6.65354
20
-1.1752
11
6.61811
21
-1.1752
0
LINE
8
BLACK
6
CONTINUOUS
10
6.61811
20
-1.1752
11
6.61434
21
-1.17445
0
LINE
8
BLACK
6
CONTINUOUS
10
6.61434
20
-1.17445
11
6.61115
21
-1.17231
0
LINE
8
BLACK
6
CONTINUOUS
10
6.61115
20
-1.17231
11
6.60902
21
-1.16912
0
LINE
8
BLACK
6
CONTINUOUS
10
6.60902
20
-1.16912
11
6.60827
21
-1.16535
0
LINE
8
BLACK
6
CONTINUOUS
10
6.60827
20
-1.16535
11
6.60827
21
-1.14469
0
LINE
8
BLACK
6
CONTINUOUS
10
6.60827
20
-1.14469
11
6.60902
21
-1.14092
0
LINE
8
BLACK
6
CONTINUOUS
10
6.60902
20
-1.14092
11
6.61115
21
-1.13773
0
LINE
8
BLACK
6
CONTINUOUS
10
6.61115
20
-1.13773
11
6.61434
21
-1.13559
0
LINE
8
BLACK
6
CONTINUOUS
10
6.61434
20
-1.13559
11
6.61811
21
-1.13484
0
LINE
8
BLACK
6
CONTINUOUS
10
6.61811
20
-1.13484
11
6.65354
21
-1.13484
0
LINE
8
BLACK
6
CONTINUOUS
10
6.65354
20
-1.13484
11
6.65731
21
-1.13559
0
LINE
8
BLACK
6
CONTINUOUS
10
6.95652
20
-1.12772
11
6.95972
21
-1.12985
0
LINE
8
BLACK
6
CONTINUOUS
10
6.95972
20
-1.12985
11
6.96185
21
-1.13304
0
LINE
8
BLACK
6
CONTINUOUS
10
6.96185
20
-1.13304
11
6.9626
21
-1.13681
0
LINE
8
BLACK
6
CONTINUOUS
10
6.9626
20
-1.13681
11
6.9626
21
-1.15748
0
LINE
8
BLACK
6
CONTINUOUS
10
6.9626
20
-1.15748
11
6.96185
21
-1.16125
0
LINE
8
BLACK
6
CONTINUOUS
10
6.96185
20
-1.16125
11
6.95972
21
-1.16444
0
LINE
8
BLACK
6
CONTINUOUS
10
6.95972
20
-1.16444
11
6.95652
21
-1.16657
0
LINE
8
BLACK
6
CONTINUOUS
10
6.95652
20
-1.16657
11
6.95276
21
-1.16732
0
LINE
8
BLACK
6
CONTINUOUS
10
6.95276
20
-1.16732
11
6.91732
21
-1.16732
0
LINE
8
BLACK
6
CONTINUOUS
10
6.91732
20
-1.16732
11
6.91356
21
-1.16657
0
LINE
8
BLACK
6
CONTINUOUS
10
6.91356
20
-1.16657
11
6.91036
21
-1.16444
0
LINE
8
BLACK
6
CONTINUOUS
10
6.91036
20
-1.16444
11
6.90823
21
-1.16125
0
LINE
8
BLACK
6
CONTINUOUS
10
6.90823
20
-1.16125
11
6.90748
21
-1.15748
0
LINE
8
BLACK
6
CONTINUOUS
10
6.90748
20
-1.15748
11
6.90748
21
-1.13681
0
LINE
8
BLACK
6
CONTINUOUS
10
6.90748
20
-1.13681
11
6.90823
21
-1.13304
0
LINE
8
BLACK
6
CONTINUOUS
10
6.90823
20
-1.13304
11
6.91036
21
-1.12985
0
LINE
8
BLACK
6
CONTINUOUS
10
6.91036
20
-1.12985
11
6.91356
21
-1.12772
0
LINE
8
BLACK
6
CONTINUOUS
10
6.91356
20
-1.12772
11
6.91732
21
-1.12697
0
LINE
8
BLACK
6
CONTINUOUS
10
6.91732
20
-1.12697
11
6.95276
21
-1.12697
0
LINE
8
BLACK
6
CONTINUOUS
10
6.95276
20
-1.12697
11
6.95652
21
-1.12772
  0
ENDSEC
  0
EOF
