M48
; DRILL file {KiCad 7.0.1-0} date 2023 March 30, Thursday 13:35:25
; FORMAT={-:-/ absolute / inch / decimal}
; #@! TF.CreationDate,2023-03-30T13:35:25-06:00
; #@! TF.GenerationSoftware,Kicad,Pcbnew,7.0.1-0
; #@! TF.FileFunction,Plated,1,2,PTH
FMAT,2
INCH
; #@! TA.AperFunction,Plated,PTH,ComponentDrill
T1C0.0315
; #@! TA.AperFunction,Plated,PTH,ComponentDrill
T2C0.0354
; #@! TA.AperFunction,Plated,PTH,ComponentDrill
T3C0.0394
; #@! TA.AperFunction,Plated,PTH,ComponentDrill
T4C0.0512
%
G90
G05
T1
X3.437Y-3.637
X3.837Y-3.637
X4.237Y-3.637
X4.637Y-3.637
X5.6933Y-2.737
X5.6933Y-2.8965
X5.6933Y-3.0559
X5.6933Y-3.2154
X5.6933Y-3.3748
X5.6933Y-3.5343
X5.6933Y-3.6937
X6.0933Y-2.737
X6.0933Y-2.8965
X6.0933Y-3.0559
X6.0933Y-3.2154
X6.0933Y-3.3748
X6.0933Y-3.5343
X6.0933Y-3.6937
X6.237Y-2.537
X6.237Y-2.737
X6.237Y-2.837
X6.237Y-2.937
X6.237Y-3.037
X6.237Y-3.137
X6.237Y-3.237
X6.237Y-3.337
X6.237Y-3.437
X6.537Y-2.737
X6.537Y-2.837
X6.537Y-2.937
X6.537Y-3.037
X6.537Y-3.137
X6.537Y-3.237
X6.537Y-3.337
X6.537Y-3.437
X6.637Y-2.537
X6.837Y-2.037
X6.837Y-2.437
X6.937Y-2.037
X6.937Y-2.437
T2
X6.537Y-2.237
X6.637Y-2.237
X7.137Y-2.237
X7.237Y-2.237
T3
X4.137Y-2.237
X4.137Y-2.837
X4.237Y-2.237
X4.237Y-2.837
X4.337Y-2.237
X4.337Y-2.837
X4.437Y-2.237
X4.437Y-2.837
X4.537Y-2.237
X4.537Y-2.837
X4.637Y-2.237
X4.637Y-2.837
X4.677Y-1.937
X4.777Y-1.937
X4.877Y-1.937
X4.977Y-1.937
X5.037Y-3.837
X5.077Y-1.937
X5.137Y-3.837
X5.177Y-1.937
X5.237Y-3.837
X5.277Y-1.937
X5.337Y-3.837
X5.377Y-1.937
X5.437Y-3.837
X5.477Y-1.937
X5.537Y-3.837
X5.577Y-1.937
X5.637Y-3.837
X5.737Y-1.937
X5.737Y-2.337
X5.737Y-3.837
X5.837Y-1.937
X5.937Y-1.937
X5.937Y-3.837
X6.0362Y-2.337
X6.037Y-1.937
X6.037Y-3.837
X6.137Y-1.937
X6.137Y-3.837
X6.237Y-1.937
X6.237Y-3.837
X6.337Y-1.937
X6.337Y-3.837
X6.437Y-1.937
X6.437Y-3.837
T4
X3.4449Y-3.137
X3.4449Y-3.3339
X3.937Y-3.137
X3.937Y-3.3339
X4.2449Y-3.137
X4.2449Y-3.3339
X4.737Y-3.137
X4.737Y-3.3339
T0
M30
