%TF.GenerationSoftware,KiCad,Pcbnew,7.0.1-0*%
%TF.CreationDate,2023-05-31T17:03:07-06:00*%
%TF.ProjectId,STM32f4 Motion Sensor Shield,53544d33-3266-4342-904d-6f74696f6e20,rev?*%
%TF.SameCoordinates,Original*%
%TF.FileFunction,Copper,L2,Bot*%
%TF.FilePolarity,Positive*%
%FSLAX46Y46*%
G04 Gerber Fmt 4.6, Leading zero omitted, Abs format (unit mm)*
G04 Created by KiCad (PCBNEW 7.0.1-0) date 2023-05-31 17:03:07*
%MOMM*%
%LPD*%
G01*
G04 APERTURE LIST*
%TA.AperFunction,ComponentPad*%
%ADD10R,1.700000X1.700000*%
%TD*%
%TA.AperFunction,ComponentPad*%
%ADD11O,1.700000X1.700000*%
%TD*%
%TA.AperFunction,ComponentPad*%
%ADD12C,2.000000*%
%TD*%
%TA.AperFunction,ComponentPad*%
%ADD13R,2.000000X2.000000*%
%TD*%
%TA.AperFunction,ViaPad*%
%ADD14C,0.800000*%
%TD*%
G04 APERTURE END LIST*
D10*
%TO.P,J1,1,Pin_1*%
%TO.N,GND*%
X164140000Y-54990000D03*
D11*
%TO.P,J1,2,Pin_2*%
X161600000Y-54990000D03*
%TO.P,J1,3,Pin_3*%
%TO.N,+5V*%
X164140000Y-57530000D03*
%TO.P,J1,4,Pin_4*%
X161600000Y-57530000D03*
%TO.P,J1,5,Pin_5*%
%TO.N,unconnected-(J1-Pin_5-Pad5)*%
X164140000Y-60070000D03*
%TO.P,J1,6,Pin_6*%
%TO.N,unconnected-(J1-Pin_6-Pad6)*%
X161600000Y-60070000D03*
%TO.P,J1,7,Pin_7*%
%TO.N,unconnected-(J1-Pin_7-Pad7)*%
X164140000Y-62610000D03*
%TO.P,J1,8,Pin_8*%
%TO.N,unconnected-(J1-Pin_8-Pad8)*%
X161600000Y-62610000D03*
%TO.P,J1,9,Pin_9*%
%TO.N,unconnected-(J1-Pin_9-Pad9)*%
X164140000Y-65150000D03*
%TO.P,J1,10,Pin_10*%
%TO.N,unconnected-(J1-Pin_10-Pad10)*%
X161600000Y-65150000D03*
%TO.P,J1,11,Pin_11*%
%TO.N,unconnected-(J1-Pin_11-Pad11)*%
X164140000Y-67690000D03*
%TO.P,J1,12,Pin_12*%
%TO.N,unconnected-(J1-Pin_12-Pad12)*%
X161600000Y-67690000D03*
%TO.P,J1,13,Pin_13*%
%TO.N,unconnected-(J1-Pin_13-Pad13)*%
X164140000Y-70230000D03*
%TO.P,J1,14,Pin_14*%
%TO.N,unconnected-(J1-Pin_14-Pad14)*%
X161600000Y-70230000D03*
%TO.P,J1,15,Pin_15*%
%TO.N,unconnected-(J1-Pin_15-Pad15)*%
X164140000Y-72770000D03*
%TO.P,J1,16,Pin_16*%
%TO.N,unconnected-(J1-Pin_16-Pad16)*%
X161600000Y-72770000D03*
%TO.P,J1,17,Pin_17*%
%TO.N,unconnected-(J1-Pin_17-Pad17)*%
X164140000Y-75310000D03*
%TO.P,J1,18,Pin_18*%
%TO.N,unconnected-(J1-Pin_18-Pad18)*%
X161600000Y-75310000D03*
%TO.P,J1,19,Pin_19*%
%TO.N,unconnected-(J1-Pin_19-Pad19)*%
X164140000Y-77850000D03*
%TO.P,J1,20,Pin_20*%
%TO.N,unconnected-(J1-Pin_20-Pad20)*%
X161600000Y-77850000D03*
%TO.P,J1,21,Pin_21*%
%TO.N,unconnected-(J1-Pin_21-Pad21)*%
X164140000Y-80390000D03*
%TO.P,J1,22,Pin_22*%
%TO.N,unconnected-(J1-Pin_22-Pad22)*%
X161600000Y-80390000D03*
%TO.P,J1,23,Pin_23*%
%TO.N,SCL*%
X164140000Y-82930000D03*
%TO.P,J1,24,Pin_24*%
%TO.N,SDA*%
X161600000Y-82930000D03*
%TO.P,J1,25,Pin_25*%
%TO.N,unconnected-(J1-Pin_25-Pad25)*%
X164140000Y-85470000D03*
%TO.P,J1,26,Pin_26*%
%TO.N,unconnected-(J1-Pin_26-Pad26)*%
X161600000Y-85470000D03*
%TO.P,J1,27,Pin_27*%
%TO.N,unconnected-(J1-Pin_27-Pad27)*%
X164140000Y-88010000D03*
%TO.P,J1,28,Pin_28*%
%TO.N,unconnected-(J1-Pin_28-Pad28)*%
X161600000Y-88010000D03*
%TO.P,J1,29,Pin_29*%
%TO.N,unconnected-(J1-Pin_29-Pad29)*%
X164140000Y-90550000D03*
%TO.P,J1,30,Pin_30*%
%TO.N,unconnected-(J1-Pin_30-Pad30)*%
X161600000Y-90550000D03*
%TO.P,J1,31,Pin_31*%
%TO.N,unconnected-(J1-Pin_31-Pad31)*%
X164140000Y-93090000D03*
%TO.P,J1,32,Pin_32*%
%TO.N,unconnected-(J1-Pin_32-Pad32)*%
X161600000Y-93090000D03*
%TO.P,J1,33,Pin_33*%
%TO.N,unconnected-(J1-Pin_33-Pad33)*%
X164140000Y-95630000D03*
%TO.P,J1,34,Pin_34*%
%TO.N,unconnected-(J1-Pin_34-Pad34)*%
X161600000Y-95630000D03*
%TO.P,J1,35,Pin_35*%
%TO.N,unconnected-(J1-Pin_35-Pad35)*%
X164140000Y-98170000D03*
%TO.P,J1,36,Pin_36*%
%TO.N,unconnected-(J1-Pin_36-Pad36)*%
X161600000Y-98170000D03*
%TO.P,J1,37,Pin_37*%
%TO.N,unconnected-(J1-Pin_37-Pad37)*%
X164140000Y-100710000D03*
%TO.P,J1,38,Pin_38*%
%TO.N,unconnected-(J1-Pin_38-Pad38)*%
X161600000Y-100710000D03*
%TO.P,J1,39,Pin_39*%
%TO.N,unconnected-(J1-Pin_39-Pad39)*%
X164140000Y-103250000D03*
%TO.P,J1,40,Pin_40*%
%TO.N,unconnected-(J1-Pin_40-Pad40)*%
X161600000Y-103250000D03*
%TO.P,J1,41,Pin_41*%
%TO.N,unconnected-(J1-Pin_41-Pad41)*%
X164140000Y-105790000D03*
%TO.P,J1,42,Pin_42*%
%TO.N,unconnected-(J1-Pin_42-Pad42)*%
X161600000Y-105790000D03*
%TO.P,J1,43,Pin_43*%
%TO.N,Buzzer*%
X164140000Y-108330000D03*
%TO.P,J1,44,Pin_44*%
%TO.N,unconnected-(J1-Pin_44-Pad44)*%
X161600000Y-108330000D03*
%TO.P,J1,45,Pin_45*%
%TO.N,unconnected-(J1-Pin_45-Pad45)*%
X164140000Y-110870000D03*
%TO.P,J1,46,Pin_46*%
%TO.N,Arm_Button*%
X161600000Y-110870000D03*
%TO.P,J1,47,Pin_47*%
%TO.N,unconnected-(J1-Pin_47-Pad47)*%
X164140000Y-113410000D03*
%TO.P,J1,48,Pin_48*%
%TO.N,unconnected-(J1-Pin_48-Pad48)*%
X161600000Y-113410000D03*
%TO.P,J1,49,Pin_49*%
%TO.N,unconnected-(J1-Pin_49-Pad49)*%
X164140000Y-115950000D03*
%TO.P,J1,50,Pin_50*%
%TO.N,unconnected-(J1-Pin_50-Pad50)*%
X161600000Y-115950000D03*
%TD*%
D12*
%TO.P,BZ1,2,+*%
%TO.N,GND*%
X181850000Y-96200000D03*
D13*
%TO.P,BZ1,1,-*%
%TO.N,Buzzer*%
X174250000Y-96200000D03*
%TD*%
D14*
%TO.N,GND*%
X182107291Y-61995029D03*
%TD*%
%TA.AperFunction,Conductor*%
%TO.N,GND*%
G36*
X192337500Y-50817113D02*
G01*
X192382887Y-50862500D01*
X192399500Y-50924500D01*
X192399500Y-125075500D01*
X192382887Y-125137500D01*
X192337500Y-125182887D01*
X192275500Y-125199500D01*
X156924500Y-125199500D01*
X156862500Y-125182887D01*
X156817113Y-125137500D01*
X156800500Y-125075500D01*
X156800500Y-115950000D01*
X160244340Y-115950000D01*
X160264936Y-116185407D01*
X160309709Y-116352501D01*
X160326097Y-116413663D01*
X160425965Y-116627830D01*
X160561505Y-116821401D01*
X160728599Y-116988495D01*
X160922170Y-117124035D01*
X161136337Y-117223903D01*
X161364592Y-117285063D01*
X161600000Y-117305659D01*
X161835408Y-117285063D01*
X162063663Y-117223903D01*
X162277830Y-117124035D01*
X162471401Y-116988495D01*
X162638495Y-116821401D01*
X162768426Y-116635839D01*
X162812743Y-116596975D01*
X162870000Y-116582964D01*
X162927257Y-116596975D01*
X162971573Y-116635839D01*
X163101505Y-116821401D01*
X163268599Y-116988495D01*
X163462170Y-117124035D01*
X163676337Y-117223903D01*
X163904592Y-117285063D01*
X164140000Y-117305659D01*
X164375408Y-117285063D01*
X164603663Y-117223903D01*
X164817830Y-117124035D01*
X165011401Y-116988495D01*
X165178495Y-116821401D01*
X165314035Y-116627830D01*
X165413903Y-116413663D01*
X165475063Y-116185408D01*
X165495659Y-115950000D01*
X165475063Y-115714592D01*
X165413903Y-115486337D01*
X165314035Y-115272171D01*
X165178495Y-115078599D01*
X165011401Y-114911505D01*
X164825839Y-114781573D01*
X164786975Y-114737257D01*
X164772964Y-114680000D01*
X164786975Y-114622743D01*
X164825839Y-114578426D01*
X165011401Y-114448495D01*
X165178495Y-114281401D01*
X165314035Y-114087830D01*
X165413903Y-113873663D01*
X165475063Y-113645408D01*
X165495659Y-113410000D01*
X165475063Y-113174592D01*
X165413903Y-112946337D01*
X165314035Y-112732171D01*
X165178495Y-112538599D01*
X165011401Y-112371505D01*
X164825839Y-112241573D01*
X164786975Y-112197257D01*
X164772964Y-112140000D01*
X164786975Y-112082743D01*
X164825839Y-112038426D01*
X165011401Y-111908495D01*
X165178495Y-111741401D01*
X165314035Y-111547830D01*
X165413903Y-111333663D01*
X165475063Y-111105408D01*
X165495659Y-110870000D01*
X165475063Y-110634592D01*
X165413903Y-110406337D01*
X165314035Y-110192171D01*
X165178495Y-109998599D01*
X165011401Y-109831505D01*
X164825839Y-109701573D01*
X164786974Y-109657255D01*
X164772964Y-109599999D01*
X164786975Y-109542742D01*
X164825837Y-109498428D01*
X165011401Y-109368495D01*
X165178495Y-109201401D01*
X165314035Y-109007830D01*
X165413903Y-108793663D01*
X165475063Y-108565408D01*
X165495659Y-108330000D01*
X165475063Y-108094592D01*
X165413903Y-107866337D01*
X165314035Y-107652171D01*
X165178495Y-107458599D01*
X165011401Y-107291505D01*
X164825839Y-107161573D01*
X164786974Y-107117255D01*
X164772964Y-107059999D01*
X164786975Y-107002742D01*
X164825837Y-106958428D01*
X165011401Y-106828495D01*
X165178495Y-106661401D01*
X165314035Y-106467830D01*
X165413903Y-106253663D01*
X165475063Y-106025408D01*
X165495659Y-105790000D01*
X165475063Y-105554592D01*
X165413903Y-105326337D01*
X165314035Y-105112171D01*
X165178495Y-104918599D01*
X165011401Y-104751505D01*
X164825839Y-104621573D01*
X164786976Y-104577257D01*
X164772965Y-104520000D01*
X164786976Y-104462743D01*
X164825839Y-104418426D01*
X165011401Y-104288495D01*
X165178495Y-104121401D01*
X165314035Y-103927830D01*
X165413903Y-103713663D01*
X165475063Y-103485408D01*
X165495659Y-103250000D01*
X165475063Y-103014592D01*
X165413903Y-102786337D01*
X165314035Y-102572171D01*
X165178495Y-102378599D01*
X165011401Y-102211505D01*
X164825839Y-102081573D01*
X164786975Y-102037257D01*
X164772964Y-101980000D01*
X164786975Y-101922743D01*
X164825839Y-101878426D01*
X165011401Y-101748495D01*
X165178495Y-101581401D01*
X165314035Y-101387830D01*
X165413903Y-101173663D01*
X165475063Y-100945408D01*
X165495659Y-100710000D01*
X165475063Y-100474592D01*
X165413903Y-100246337D01*
X165314035Y-100032171D01*
X165178495Y-99838599D01*
X165011401Y-99671505D01*
X164825839Y-99541573D01*
X164786974Y-99497255D01*
X164772964Y-99439999D01*
X164786975Y-99382742D01*
X164825837Y-99338428D01*
X165011401Y-99208495D01*
X165178495Y-99041401D01*
X165314035Y-98847830D01*
X165413903Y-98633663D01*
X165475063Y-98405408D01*
X165495659Y-98170000D01*
X165475063Y-97934592D01*
X165413903Y-97706337D01*
X165314035Y-97492171D01*
X165178495Y-97298599D01*
X165127765Y-97247869D01*
X172749500Y-97247869D01*
X172754954Y-97298598D01*
X172755909Y-97307483D01*
X172806204Y-97442331D01*
X172892454Y-97557546D01*
X173007669Y-97643796D01*
X173142517Y-97694091D01*
X173202127Y-97700500D01*
X175297872Y-97700499D01*
X175357483Y-97694091D01*
X175492331Y-97643796D01*
X175607546Y-97557546D01*
X175693796Y-97442331D01*
X175700778Y-97423610D01*
X180979942Y-97423610D01*
X181026766Y-97460055D01*
X181245393Y-97578368D01*
X181480506Y-97659083D01*
X181725707Y-97700000D01*
X181974293Y-97700000D01*
X182219493Y-97659083D01*
X182454606Y-97578368D01*
X182673233Y-97460053D01*
X182720056Y-97423609D01*
X181850000Y-96553553D01*
X180979942Y-97423609D01*
X180979942Y-97423610D01*
X175700778Y-97423610D01*
X175744091Y-97307483D01*
X175750500Y-97247873D01*
X175750499Y-96200000D01*
X180344858Y-96200000D01*
X180365386Y-96447732D01*
X180426413Y-96688721D01*
X180526268Y-96916370D01*
X180626563Y-97069882D01*
X180626564Y-97069882D01*
X181496447Y-96200001D01*
X182203553Y-96200001D01*
X183073434Y-97069882D01*
X183173730Y-96916369D01*
X183273586Y-96688721D01*
X183334613Y-96447732D01*
X183355141Y-96200000D01*
X183334613Y-95952267D01*
X183273586Y-95711278D01*
X183173730Y-95483630D01*
X183073434Y-95330116D01*
X182203553Y-96200000D01*
X182203553Y-96200001D01*
X181496447Y-96200001D01*
X181496447Y-96200000D01*
X180626564Y-95330116D01*
X180526266Y-95483634D01*
X180426413Y-95711278D01*
X180365386Y-95952267D01*
X180344858Y-96200000D01*
X175750499Y-96200000D01*
X175750499Y-95152128D01*
X175744091Y-95092517D01*
X175700778Y-94976390D01*
X180979942Y-94976390D01*
X181850000Y-95846447D01*
X181850001Y-95846447D01*
X182720057Y-94976390D01*
X182720056Y-94976388D01*
X182673235Y-94939947D01*
X182454606Y-94821631D01*
X182219493Y-94740916D01*
X181974293Y-94700000D01*
X181725707Y-94700000D01*
X181480506Y-94740916D01*
X181245393Y-94821631D01*
X181026764Y-94939946D01*
X180979942Y-94976388D01*
X180979942Y-94976390D01*
X175700778Y-94976390D01*
X175693796Y-94957669D01*
X175607546Y-94842454D01*
X175492331Y-94756204D01*
X175357483Y-94705909D01*
X175297873Y-94699500D01*
X175297869Y-94699500D01*
X173202130Y-94699500D01*
X173142515Y-94705909D01*
X173007669Y-94756204D01*
X172892454Y-94842454D01*
X172806204Y-94957668D01*
X172755909Y-95092516D01*
X172749500Y-95152130D01*
X172749500Y-97247869D01*
X165127765Y-97247869D01*
X165011401Y-97131505D01*
X164825839Y-97001573D01*
X164786975Y-96957257D01*
X164772964Y-96900000D01*
X164786975Y-96842743D01*
X164825839Y-96798426D01*
X165011401Y-96668495D01*
X165178495Y-96501401D01*
X165314035Y-96307830D01*
X165413903Y-96093663D01*
X165475063Y-95865408D01*
X165495659Y-95630000D01*
X165475063Y-95394592D01*
X165413903Y-95166337D01*
X165314035Y-94952171D01*
X165178495Y-94758599D01*
X165011401Y-94591505D01*
X164825839Y-94461573D01*
X164786975Y-94417257D01*
X164772964Y-94360000D01*
X164786975Y-94302743D01*
X164825839Y-94258426D01*
X165011401Y-94128495D01*
X165178495Y-93961401D01*
X165314035Y-93767830D01*
X165413903Y-93553663D01*
X165475063Y-93325408D01*
X165495659Y-93090000D01*
X165475063Y-92854592D01*
X165413903Y-92626337D01*
X165314035Y-92412171D01*
X165178495Y-92218599D01*
X165011401Y-92051505D01*
X164825839Y-91921573D01*
X164786975Y-91877257D01*
X164772964Y-91820000D01*
X164786975Y-91762743D01*
X164825839Y-91718426D01*
X165011401Y-91588495D01*
X165178495Y-91421401D01*
X165314035Y-91227830D01*
X165413903Y-91013663D01*
X165475063Y-90785408D01*
X165495659Y-90550000D01*
X165475063Y-90314592D01*
X165413903Y-90086337D01*
X165314035Y-89872171D01*
X165178495Y-89678599D01*
X165011401Y-89511505D01*
X164825839Y-89381573D01*
X164786975Y-89337257D01*
X164772964Y-89280000D01*
X164786975Y-89222743D01*
X164825839Y-89178426D01*
X165011401Y-89048495D01*
X165178495Y-88881401D01*
X165314035Y-88687830D01*
X165413903Y-88473663D01*
X165475063Y-88245408D01*
X165495659Y-88010000D01*
X165475063Y-87774592D01*
X165413903Y-87546337D01*
X165314035Y-87332171D01*
X165178495Y-87138599D01*
X165011401Y-86971505D01*
X164825839Y-86841573D01*
X164786975Y-86797257D01*
X164772964Y-86740000D01*
X164786975Y-86682743D01*
X164825839Y-86638426D01*
X165011401Y-86508495D01*
X165178495Y-86341401D01*
X165314035Y-86147830D01*
X165413903Y-85933663D01*
X165475063Y-85705408D01*
X165495659Y-85470000D01*
X165475063Y-85234592D01*
X165413903Y-85006337D01*
X165314035Y-84792171D01*
X165178495Y-84598599D01*
X165011401Y-84431505D01*
X164825839Y-84301573D01*
X164786975Y-84257257D01*
X164772964Y-84200000D01*
X164786975Y-84142743D01*
X164825839Y-84098426D01*
X165011401Y-83968495D01*
X165178495Y-83801401D01*
X165314035Y-83607830D01*
X165413903Y-83393663D01*
X165475063Y-83165408D01*
X165495659Y-82930000D01*
X165475063Y-82694592D01*
X165413903Y-82466337D01*
X165314035Y-82252171D01*
X165178495Y-82058599D01*
X165011401Y-81891505D01*
X164825839Y-81761573D01*
X164786975Y-81717257D01*
X164772964Y-81660000D01*
X164786975Y-81602743D01*
X164825839Y-81558426D01*
X165011401Y-81428495D01*
X165178495Y-81261401D01*
X165314035Y-81067830D01*
X165413903Y-80853663D01*
X165475063Y-80625408D01*
X165495659Y-80390000D01*
X165475063Y-80154592D01*
X165413903Y-79926337D01*
X165314035Y-79712171D01*
X165178495Y-79518599D01*
X165011401Y-79351505D01*
X164825839Y-79221573D01*
X164786974Y-79177255D01*
X164772964Y-79119999D01*
X164786975Y-79062742D01*
X164825837Y-79018428D01*
X165011401Y-78888495D01*
X165178495Y-78721401D01*
X165314035Y-78527830D01*
X165413903Y-78313663D01*
X165475063Y-78085408D01*
X165495659Y-77850000D01*
X165475063Y-77614592D01*
X165413903Y-77386337D01*
X165314035Y-77172171D01*
X165178495Y-76978599D01*
X165011401Y-76811505D01*
X164825839Y-76681573D01*
X164786975Y-76637257D01*
X164772964Y-76580000D01*
X164786975Y-76522743D01*
X164825839Y-76478426D01*
X165011401Y-76348495D01*
X165178495Y-76181401D01*
X165314035Y-75987830D01*
X165413903Y-75773663D01*
X165475063Y-75545408D01*
X165495659Y-75310000D01*
X165475063Y-75074592D01*
X165413903Y-74846337D01*
X165314035Y-74632171D01*
X165178495Y-74438599D01*
X165011401Y-74271505D01*
X164825839Y-74141573D01*
X164786975Y-74097257D01*
X164772964Y-74040000D01*
X164786975Y-73982743D01*
X164825839Y-73938426D01*
X165011401Y-73808495D01*
X165178495Y-73641401D01*
X165314035Y-73447830D01*
X165413903Y-73233663D01*
X165475063Y-73005408D01*
X165495659Y-72770000D01*
X165475063Y-72534592D01*
X165413903Y-72306337D01*
X165314035Y-72092171D01*
X165178495Y-71898599D01*
X165011401Y-71731505D01*
X164825839Y-71601573D01*
X164786976Y-71557257D01*
X164772965Y-71500000D01*
X164786976Y-71442743D01*
X164825839Y-71398426D01*
X165011401Y-71268495D01*
X165178495Y-71101401D01*
X165314035Y-70907830D01*
X165413903Y-70693663D01*
X165475063Y-70465408D01*
X165495659Y-70230000D01*
X165475063Y-69994592D01*
X165413903Y-69766337D01*
X165314035Y-69552171D01*
X165178495Y-69358599D01*
X165011401Y-69191505D01*
X164825839Y-69061573D01*
X164786975Y-69017257D01*
X164772964Y-68960000D01*
X164786975Y-68902743D01*
X164825839Y-68858426D01*
X165011401Y-68728495D01*
X165178495Y-68561401D01*
X165314035Y-68367830D01*
X165413903Y-68153663D01*
X165475063Y-67925408D01*
X165495659Y-67690000D01*
X165475063Y-67454592D01*
X165413903Y-67226337D01*
X165314035Y-67012171D01*
X165178495Y-66818599D01*
X165011401Y-66651505D01*
X164825839Y-66521573D01*
X164786975Y-66477257D01*
X164772964Y-66420000D01*
X164786975Y-66362743D01*
X164825839Y-66318426D01*
X165011401Y-66188495D01*
X165178495Y-66021401D01*
X165314035Y-65827830D01*
X165413903Y-65613663D01*
X165475063Y-65385408D01*
X165495659Y-65150000D01*
X165475063Y-64914592D01*
X165413903Y-64686337D01*
X165314035Y-64472171D01*
X165178495Y-64278599D01*
X165011401Y-64111505D01*
X164825839Y-63981573D01*
X164786975Y-63937257D01*
X164772964Y-63880000D01*
X164786975Y-63822743D01*
X164825839Y-63778426D01*
X165011401Y-63648495D01*
X165178495Y-63481401D01*
X165314035Y-63287830D01*
X165413903Y-63073663D01*
X165475063Y-62845408D01*
X165495659Y-62610000D01*
X165475063Y-62374592D01*
X165413903Y-62146337D01*
X165314035Y-61932171D01*
X165178495Y-61738599D01*
X165011401Y-61571505D01*
X164825839Y-61441573D01*
X164786975Y-61397257D01*
X164772964Y-61340000D01*
X164786975Y-61282743D01*
X164825839Y-61238426D01*
X165011401Y-61108495D01*
X165178495Y-60941401D01*
X165314035Y-60747830D01*
X165413903Y-60533663D01*
X165475063Y-60305408D01*
X165495659Y-60070000D01*
X165475063Y-59834592D01*
X165413903Y-59606337D01*
X165314035Y-59392171D01*
X165178495Y-59198599D01*
X165011401Y-59031505D01*
X164825839Y-58901573D01*
X164786975Y-58857257D01*
X164772964Y-58800000D01*
X164786975Y-58742743D01*
X164825839Y-58698426D01*
X165011401Y-58568495D01*
X165178495Y-58401401D01*
X165314035Y-58207830D01*
X165413903Y-57993663D01*
X165475063Y-57765408D01*
X165495659Y-57530000D01*
X165475063Y-57294592D01*
X165413903Y-57066337D01*
X165314035Y-56852171D01*
X165178495Y-56658599D01*
X165056181Y-56536285D01*
X165024885Y-56483539D01*
X165022696Y-56422246D01*
X165050149Y-56367401D01*
X165100528Y-56332422D01*
X165232089Y-56283352D01*
X165347188Y-56197188D01*
X165433352Y-56082089D01*
X165483597Y-55947375D01*
X165490000Y-55887824D01*
X165490000Y-55240000D01*
X160269364Y-55240000D01*
X160326569Y-55453492D01*
X160426399Y-55667576D01*
X160561893Y-55861081D01*
X160728918Y-56028106D01*
X160914595Y-56158119D01*
X160953460Y-56202437D01*
X160967471Y-56259694D01*
X160953460Y-56316951D01*
X160914595Y-56361269D01*
X160728595Y-56491508D01*
X160561505Y-56658598D01*
X160425965Y-56852170D01*
X160326097Y-57066336D01*
X160264936Y-57294592D01*
X160244340Y-57529999D01*
X160264936Y-57765407D01*
X160309709Y-57932501D01*
X160326097Y-57993663D01*
X160425965Y-58207830D01*
X160561505Y-58401401D01*
X160728599Y-58568495D01*
X160914160Y-58698426D01*
X160953024Y-58742743D01*
X160967035Y-58800000D01*
X160953024Y-58857257D01*
X160914159Y-58901575D01*
X160728595Y-59031508D01*
X160561505Y-59198598D01*
X160425965Y-59392170D01*
X160326097Y-59606336D01*
X160264936Y-59834592D01*
X160244340Y-60070000D01*
X160264936Y-60305407D01*
X160309709Y-60472502D01*
X160326097Y-60533663D01*
X160425965Y-60747830D01*
X160561505Y-60941401D01*
X160728599Y-61108495D01*
X160914160Y-61238426D01*
X160953024Y-61282743D01*
X160967035Y-61340000D01*
X160953024Y-61397257D01*
X160914159Y-61441575D01*
X160728595Y-61571508D01*
X160561505Y-61738598D01*
X160425965Y-61932170D01*
X160326097Y-62146336D01*
X160264936Y-62374592D01*
X160244340Y-62609999D01*
X160264936Y-62845407D01*
X160309709Y-63012502D01*
X160326097Y-63073663D01*
X160425965Y-63287830D01*
X160561505Y-63481401D01*
X160728599Y-63648495D01*
X160914160Y-63778426D01*
X160953024Y-63822743D01*
X160967035Y-63880000D01*
X160953024Y-63937257D01*
X160914159Y-63981575D01*
X160728595Y-64111508D01*
X160561505Y-64278598D01*
X160425965Y-64472170D01*
X160326097Y-64686336D01*
X160264936Y-64914592D01*
X160244340Y-65150000D01*
X160264936Y-65385407D01*
X160309709Y-65552501D01*
X160326097Y-65613663D01*
X160425965Y-65827830D01*
X160561505Y-66021401D01*
X160728599Y-66188495D01*
X160914160Y-66318426D01*
X160953024Y-66362743D01*
X160967035Y-66420000D01*
X160953024Y-66477257D01*
X160914159Y-66521575D01*
X160728595Y-66651508D01*
X160561505Y-66818598D01*
X160425965Y-67012170D01*
X160326097Y-67226336D01*
X160264936Y-67454592D01*
X160244340Y-67689999D01*
X160264936Y-67925407D01*
X160309709Y-68092502D01*
X160326097Y-68153663D01*
X160425965Y-68367830D01*
X160561505Y-68561401D01*
X160728599Y-68728495D01*
X160914160Y-68858426D01*
X160953024Y-68902743D01*
X160967035Y-68960000D01*
X160953024Y-69017257D01*
X160914159Y-69061575D01*
X160728595Y-69191508D01*
X160561505Y-69358598D01*
X160425965Y-69552170D01*
X160326097Y-69766336D01*
X160264936Y-69994592D01*
X160244340Y-70230000D01*
X160264936Y-70465407D01*
X160309709Y-70632502D01*
X160326097Y-70693663D01*
X160425965Y-70907830D01*
X160561505Y-71101401D01*
X160728599Y-71268495D01*
X160914160Y-71398426D01*
X160953024Y-71442743D01*
X160967035Y-71500000D01*
X160953024Y-71557257D01*
X160914159Y-71601575D01*
X160728595Y-71731508D01*
X160561505Y-71898598D01*
X160425965Y-72092170D01*
X160326097Y-72306336D01*
X160264936Y-72534592D01*
X160244340Y-72769999D01*
X160264936Y-73005407D01*
X160309709Y-73172501D01*
X160326097Y-73233663D01*
X160425965Y-73447830D01*
X160561505Y-73641401D01*
X160728599Y-73808495D01*
X160914160Y-73938426D01*
X160953024Y-73982743D01*
X160967035Y-74040000D01*
X160953024Y-74097257D01*
X160914159Y-74141575D01*
X160728595Y-74271508D01*
X160561505Y-74438598D01*
X160425965Y-74632170D01*
X160326097Y-74846336D01*
X160264936Y-75074592D01*
X160244340Y-75310000D01*
X160264936Y-75545407D01*
X160309709Y-75712501D01*
X160326097Y-75773663D01*
X160425965Y-75987830D01*
X160561505Y-76181401D01*
X160728599Y-76348495D01*
X160914160Y-76478426D01*
X160953024Y-76522743D01*
X160967035Y-76580000D01*
X160953024Y-76637257D01*
X160914159Y-76681575D01*
X160728595Y-76811508D01*
X160561505Y-76978598D01*
X160425965Y-77172170D01*
X160326097Y-77386336D01*
X160264936Y-77614592D01*
X160244340Y-77849999D01*
X160264936Y-78085407D01*
X160309709Y-78252501D01*
X160326097Y-78313663D01*
X160425965Y-78527830D01*
X160561505Y-78721401D01*
X160728599Y-78888495D01*
X160914160Y-79018426D01*
X160953024Y-79062743D01*
X160967035Y-79120000D01*
X160953024Y-79177257D01*
X160914159Y-79221575D01*
X160728595Y-79351508D01*
X160561505Y-79518598D01*
X160425965Y-79712170D01*
X160326097Y-79926336D01*
X160264936Y-80154592D01*
X160244340Y-80389999D01*
X160264936Y-80625407D01*
X160309709Y-80792501D01*
X160326097Y-80853663D01*
X160425965Y-81067830D01*
X160561505Y-81261401D01*
X160728599Y-81428495D01*
X160914160Y-81558426D01*
X160953024Y-81602743D01*
X160967035Y-81660000D01*
X160953024Y-81717257D01*
X160914159Y-81761575D01*
X160728595Y-81891508D01*
X160561505Y-82058598D01*
X160425965Y-82252170D01*
X160326097Y-82466336D01*
X160264936Y-82694592D01*
X160244340Y-82930000D01*
X160264936Y-83165407D01*
X160309709Y-83332502D01*
X160326097Y-83393663D01*
X160425965Y-83607830D01*
X160561505Y-83801401D01*
X160728599Y-83968495D01*
X160914160Y-84098426D01*
X160953024Y-84142743D01*
X160967035Y-84200000D01*
X160953024Y-84257257D01*
X160914159Y-84301575D01*
X160728595Y-84431508D01*
X160561505Y-84598598D01*
X160425965Y-84792170D01*
X160326097Y-85006336D01*
X160264936Y-85234592D01*
X160244340Y-85469999D01*
X160264936Y-85705407D01*
X160309709Y-85872501D01*
X160326097Y-85933663D01*
X160425965Y-86147830D01*
X160561505Y-86341401D01*
X160728599Y-86508495D01*
X160914160Y-86638426D01*
X160953024Y-86682743D01*
X160967035Y-86740000D01*
X160953024Y-86797257D01*
X160914159Y-86841575D01*
X160728595Y-86971508D01*
X160561505Y-87138598D01*
X160425965Y-87332170D01*
X160326097Y-87546336D01*
X160264936Y-87774592D01*
X160244340Y-88010000D01*
X160264936Y-88245407D01*
X160309709Y-88412502D01*
X160326097Y-88473663D01*
X160425965Y-88687830D01*
X160561505Y-88881401D01*
X160728599Y-89048495D01*
X160914160Y-89178426D01*
X160953024Y-89222743D01*
X160967035Y-89280000D01*
X160953024Y-89337257D01*
X160914159Y-89381575D01*
X160728595Y-89511508D01*
X160561505Y-89678598D01*
X160425965Y-89872170D01*
X160326097Y-90086336D01*
X160264936Y-90314592D01*
X160244340Y-90549999D01*
X160264936Y-90785407D01*
X160309709Y-90952501D01*
X160326097Y-91013663D01*
X160425965Y-91227830D01*
X160561505Y-91421401D01*
X160728599Y-91588495D01*
X160914160Y-91718426D01*
X160953024Y-91762743D01*
X160967035Y-91820000D01*
X160953024Y-91877257D01*
X160914159Y-91921575D01*
X160728595Y-92051508D01*
X160561505Y-92218598D01*
X160425965Y-92412170D01*
X160326097Y-92626336D01*
X160264936Y-92854592D01*
X160244340Y-93090000D01*
X160264936Y-93325407D01*
X160309709Y-93492501D01*
X160326097Y-93553663D01*
X160425965Y-93767830D01*
X160561505Y-93961401D01*
X160728599Y-94128495D01*
X160914160Y-94258426D01*
X160953024Y-94302743D01*
X160967035Y-94360000D01*
X160953024Y-94417257D01*
X160914159Y-94461575D01*
X160728595Y-94591508D01*
X160561505Y-94758598D01*
X160425965Y-94952170D01*
X160326097Y-95166336D01*
X160264936Y-95394592D01*
X160244340Y-95629999D01*
X160264936Y-95865407D01*
X160309709Y-96032501D01*
X160326097Y-96093663D01*
X160425965Y-96307830D01*
X160561505Y-96501401D01*
X160728599Y-96668495D01*
X160914160Y-96798426D01*
X160953024Y-96842743D01*
X160967035Y-96900000D01*
X160953024Y-96957257D01*
X160914159Y-97001575D01*
X160728595Y-97131508D01*
X160561505Y-97298598D01*
X160425965Y-97492170D01*
X160326097Y-97706336D01*
X160264936Y-97934592D01*
X160244340Y-98170000D01*
X160264936Y-98405407D01*
X160309709Y-98572502D01*
X160326097Y-98633663D01*
X160425965Y-98847830D01*
X160561505Y-99041401D01*
X160728599Y-99208495D01*
X160914160Y-99338426D01*
X160953024Y-99382743D01*
X160967035Y-99440000D01*
X160953024Y-99497257D01*
X160914159Y-99541575D01*
X160728595Y-99671508D01*
X160561505Y-99838598D01*
X160425965Y-100032170D01*
X160326097Y-100246336D01*
X160264936Y-100474592D01*
X160244340Y-100710000D01*
X160264936Y-100945407D01*
X160309709Y-101112501D01*
X160326097Y-101173663D01*
X160425965Y-101387830D01*
X160561505Y-101581401D01*
X160728599Y-101748495D01*
X160914160Y-101878426D01*
X160953024Y-101922743D01*
X160967035Y-101980000D01*
X160953024Y-102037257D01*
X160914159Y-102081575D01*
X160728595Y-102211508D01*
X160561505Y-102378598D01*
X160425965Y-102572170D01*
X160326097Y-102786336D01*
X160264936Y-103014592D01*
X160244340Y-103249999D01*
X160264936Y-103485407D01*
X160309709Y-103652502D01*
X160326097Y-103713663D01*
X160425965Y-103927830D01*
X160561505Y-104121401D01*
X160728599Y-104288495D01*
X160914160Y-104418426D01*
X160953024Y-104462743D01*
X160967035Y-104520000D01*
X160953024Y-104577257D01*
X160914159Y-104621575D01*
X160728595Y-104751508D01*
X160561505Y-104918598D01*
X160425965Y-105112170D01*
X160326097Y-105326336D01*
X160264936Y-105554592D01*
X160244340Y-105790000D01*
X160264936Y-106025407D01*
X160309709Y-106192501D01*
X160326097Y-106253663D01*
X160425965Y-106467830D01*
X160561505Y-106661401D01*
X160728599Y-106828495D01*
X160914160Y-106958426D01*
X160953024Y-107002743D01*
X160967035Y-107060000D01*
X160953024Y-107117257D01*
X160914159Y-107161575D01*
X160728595Y-107291508D01*
X160561505Y-107458598D01*
X160425965Y-107652170D01*
X160326097Y-107866336D01*
X160264936Y-108094592D01*
X160244340Y-108329999D01*
X160264936Y-108565407D01*
X160309709Y-108732501D01*
X160326097Y-108793663D01*
X160425965Y-109007830D01*
X160561505Y-109201401D01*
X160728599Y-109368495D01*
X160914160Y-109498426D01*
X160953024Y-109542743D01*
X160967035Y-109600000D01*
X160953024Y-109657257D01*
X160914159Y-109701575D01*
X160728595Y-109831508D01*
X160561505Y-109998598D01*
X160425965Y-110192170D01*
X160326097Y-110406336D01*
X160264936Y-110634592D01*
X160244340Y-110870000D01*
X160264936Y-111105407D01*
X160309709Y-111272501D01*
X160326097Y-111333663D01*
X160425965Y-111547830D01*
X160561505Y-111741401D01*
X160728599Y-111908495D01*
X160914160Y-112038426D01*
X160953024Y-112082743D01*
X160967035Y-112140000D01*
X160953024Y-112197257D01*
X160914159Y-112241575D01*
X160728595Y-112371508D01*
X160561505Y-112538598D01*
X160425965Y-112732170D01*
X160326097Y-112946336D01*
X160264936Y-113174592D01*
X160244340Y-113409999D01*
X160264936Y-113645407D01*
X160309709Y-113812501D01*
X160326097Y-113873663D01*
X160425965Y-114087830D01*
X160561505Y-114281401D01*
X160728599Y-114448495D01*
X160914160Y-114578426D01*
X160953024Y-114622743D01*
X160967035Y-114680000D01*
X160953024Y-114737257D01*
X160914159Y-114781575D01*
X160728595Y-114911508D01*
X160561505Y-115078598D01*
X160425965Y-115272170D01*
X160326097Y-115486336D01*
X160264936Y-115714592D01*
X160244340Y-115950000D01*
X156800500Y-115950000D01*
X156800500Y-54740000D01*
X160269364Y-54740000D01*
X161350000Y-54740000D01*
X161850000Y-54740000D01*
X163890000Y-54740000D01*
X163890000Y-53640000D01*
X164390000Y-53640000D01*
X164390000Y-54740000D01*
X165490000Y-54740000D01*
X165490000Y-54092176D01*
X165483597Y-54032624D01*
X165433352Y-53897910D01*
X165347188Y-53782811D01*
X165232089Y-53696647D01*
X165097375Y-53646402D01*
X165037824Y-53640000D01*
X164390000Y-53640000D01*
X163890000Y-53640000D01*
X163242176Y-53640000D01*
X163182624Y-53646402D01*
X163047910Y-53696647D01*
X162932811Y-53782811D01*
X162846647Y-53897911D01*
X162797385Y-54029987D01*
X162762405Y-54080366D01*
X162707561Y-54107819D01*
X162646268Y-54105630D01*
X162593522Y-54074334D01*
X162471081Y-53951893D01*
X162277576Y-53816399D01*
X162063492Y-53716569D01*
X161850000Y-53659364D01*
X161850000Y-54740000D01*
X161350000Y-54740000D01*
X161350000Y-53659364D01*
X161349999Y-53659364D01*
X161136507Y-53716569D01*
X160922421Y-53816400D01*
X160728921Y-53951890D01*
X160561890Y-54118921D01*
X160426400Y-54312421D01*
X160326569Y-54526507D01*
X160269364Y-54739999D01*
X160269364Y-54740000D01*
X156800500Y-54740000D01*
X156800500Y-50924500D01*
X156817113Y-50862500D01*
X156862500Y-50817113D01*
X156924500Y-50800500D01*
X192275500Y-50800500D01*
X192337500Y-50817113D01*
G37*
%TD.AperFunction*%
%TD*%
M02*
