%TF.GenerationSoftware,KiCad,Pcbnew,7.0.1-0*%
%TF.CreationDate,2023-05-31T17:03:07-06:00*%
%TF.ProjectId,STM32f4 Motion Sensor Shield,53544d33-3266-4342-904d-6f74696f6e20,rev?*%
%TF.SameCoordinates,Original*%
%TF.FileFunction,Soldermask,Top*%
%TF.FilePolarity,Negative*%
%FSLAX46Y46*%
G04 Gerber Fmt 4.6, Leading zero omitted, Abs format (unit mm)*
G04 Created by KiCad (PCBNEW 7.0.1-0) date 2023-05-31 17:03:07*
%MOMM*%
%LPD*%
G01*
G04 APERTURE LIST*
G04 Aperture macros list*
%AMRoundRect*
0 Rectangle with rounded corners*
0 $1 Rounding radius*
0 $2 $3 $4 $5 $6 $7 $8 $9 X,Y pos of 4 corners*
0 Add a 4 corners polygon primitive as box body*
4,1,4,$2,$3,$4,$5,$6,$7,$8,$9,$2,$3,0*
0 Add four circle primitives for the rounded corners*
1,1,$1+$1,$2,$3*
1,1,$1+$1,$4,$5*
1,1,$1+$1,$6,$7*
1,1,$1+$1,$8,$9*
0 Add four rect primitives between the rounded corners*
20,1,$1+$1,$2,$3,$4,$5,0*
20,1,$1+$1,$4,$5,$6,$7,0*
20,1,$1+$1,$6,$7,$8,$9,0*
20,1,$1+$1,$8,$9,$2,$3,0*%
G04 Aperture macros list end*
%ADD10RoundRect,0.075000X0.075000X-0.350000X0.075000X0.350000X-0.075000X0.350000X-0.075000X-0.350000X0*%
%ADD11RoundRect,0.075000X-0.350000X-0.075000X0.350000X-0.075000X0.350000X0.075000X-0.350000X0.075000X0*%
%ADD12R,0.900000X1.700000*%
%ADD13R,1.700000X1.700000*%
%ADD14O,1.700000X1.700000*%
%ADD15C,2.000000*%
%ADD16R,2.000000X2.000000*%
G04 APERTURE END LIST*
D10*
%TO.C,U1*%
X178000000Y-61250000D03*
X178500000Y-61250000D03*
X179000000Y-61250000D03*
X179500000Y-61250000D03*
X180000000Y-61250000D03*
X180500000Y-61250000D03*
D11*
X181200000Y-61950000D03*
X181200000Y-62450000D03*
X181200000Y-62950000D03*
X181200000Y-63450000D03*
X181200000Y-63950000D03*
X181200000Y-64450000D03*
D10*
X180500000Y-65150000D03*
X180000000Y-65150000D03*
X179500000Y-65150000D03*
X179000000Y-65150000D03*
X178500000Y-65150000D03*
X178000000Y-65150000D03*
D11*
X177300000Y-64450000D03*
X177300000Y-63950000D03*
X177300000Y-63450000D03*
X177300000Y-62950000D03*
X177300000Y-62450000D03*
X177300000Y-61950000D03*
%TD*%
D12*
%TO.C,SW1*%
X183550000Y-110400000D03*
X186950000Y-110400000D03*
%TD*%
D13*
%TO.C,J1*%
X164140000Y-54990000D03*
D14*
X161600000Y-54990000D03*
X164140000Y-57530000D03*
X161600000Y-57530000D03*
X164140000Y-60070000D03*
X161600000Y-60070000D03*
X164140000Y-62610000D03*
X161600000Y-62610000D03*
X164140000Y-65150000D03*
X161600000Y-65150000D03*
X164140000Y-67690000D03*
X161600000Y-67690000D03*
X164140000Y-70230000D03*
X161600000Y-70230000D03*
X164140000Y-72770000D03*
X161600000Y-72770000D03*
X164140000Y-75310000D03*
X161600000Y-75310000D03*
X164140000Y-77850000D03*
X161600000Y-77850000D03*
X164140000Y-80390000D03*
X161600000Y-80390000D03*
X164140000Y-82930000D03*
X161600000Y-82930000D03*
X164140000Y-85470000D03*
X161600000Y-85470000D03*
X164140000Y-88010000D03*
X161600000Y-88010000D03*
X164140000Y-90550000D03*
X161600000Y-90550000D03*
X164140000Y-93090000D03*
X161600000Y-93090000D03*
X164140000Y-95630000D03*
X161600000Y-95630000D03*
X164140000Y-98170000D03*
X161600000Y-98170000D03*
X164140000Y-100710000D03*
X161600000Y-100710000D03*
X164140000Y-103250000D03*
X161600000Y-103250000D03*
X164140000Y-105790000D03*
X161600000Y-105790000D03*
X164140000Y-108330000D03*
X161600000Y-108330000D03*
X164140000Y-110870000D03*
X161600000Y-110870000D03*
X164140000Y-113410000D03*
X161600000Y-113410000D03*
X164140000Y-115950000D03*
X161600000Y-115950000D03*
%TD*%
D15*
%TO.C,BZ1*%
X181850000Y-96200000D03*
D16*
X174250000Y-96200000D03*
%TD*%
M02*
