M48
; DRILL file {KiCad 7.0.1-0} date 2023 May 31, Wednesday 17:03:03
; FORMAT={-:-/ absolute / inch / decimal}
; #@! TF.CreationDate,2023-05-31T17:03:03-06:00
; #@! TF.GenerationSoftware,Kicad,Pcbnew,7.0.1-0
; #@! TF.FileFunction,Plated,1,2,PTH
FMAT,2
INCH
; #@! TA.AperFunction,Plated,PTH,ViaDrill
T1C0.0157
; #@! TA.AperFunction,Plated,PTH,ComponentDrill
T2C0.0394
%
G90
G05
T1
X7.1696Y-2.4407
T2
X6.3622Y-2.165
X6.3622Y-2.265
X6.3622Y-2.365
X6.3622Y-2.465
X6.3622Y-2.565
X6.3622Y-2.665
X6.3622Y-2.765
X6.3622Y-2.865
X6.3622Y-2.965
X6.3622Y-3.065
X6.3622Y-3.165
X6.3622Y-3.265
X6.3622Y-3.365
X6.3622Y-3.465
X6.3622Y-3.565
X6.3622Y-3.665
X6.3622Y-3.765
X6.3622Y-3.865
X6.3622Y-3.965
X6.3622Y-4.065
X6.3622Y-4.165
X6.3622Y-4.265
X6.3622Y-4.365
X6.3622Y-4.465
X6.3622Y-4.565
X6.4622Y-2.165
X6.4622Y-2.265
X6.4622Y-2.365
X6.4622Y-2.465
X6.4622Y-2.565
X6.4622Y-2.665
X6.4622Y-2.765
X6.4622Y-2.865
X6.4622Y-2.965
X6.4622Y-3.065
X6.4622Y-3.165
X6.4622Y-3.265
X6.4622Y-3.365
X6.4622Y-3.465
X6.4622Y-3.565
X6.4622Y-3.665
X6.4622Y-3.765
X6.4622Y-3.865
X6.4622Y-3.965
X6.4622Y-4.065
X6.4622Y-4.165
X6.4622Y-4.265
X6.4622Y-4.365
X6.4622Y-4.465
X6.4622Y-4.565
X6.8602Y-3.7874
X7.1594Y-3.7874
T0
M30
