%TF.GenerationSoftware,KiCad,Pcbnew,7.0.1-0*%
%TF.CreationDate,2023-05-31T17:03:07-06:00*%
%TF.ProjectId,STM32f4 Motion Sensor Shield,53544d33-3266-4342-904d-6f74696f6e20,rev?*%
%TF.SameCoordinates,Original*%
%TF.FileFunction,Legend,Top*%
%TF.FilePolarity,Positive*%
%FSLAX46Y46*%
G04 Gerber Fmt 4.6, Leading zero omitted, Abs format (unit mm)*
G04 Created by KiCad (PCBNEW 7.0.1-0) date 2023-05-31 17:03:07*
%MOMM*%
%LPD*%
G01*
G04 APERTURE LIST*
%ADD10C,0.150000*%
%ADD11C,0.120000*%
G04 APERTURE END LIST*
D10*
X168390476Y-53610000D02*
X168533333Y-53657619D01*
X168533333Y-53657619D02*
X168771428Y-53657619D01*
X168771428Y-53657619D02*
X168866666Y-53610000D01*
X168866666Y-53610000D02*
X168914285Y-53562380D01*
X168914285Y-53562380D02*
X168961904Y-53467142D01*
X168961904Y-53467142D02*
X168961904Y-53371904D01*
X168961904Y-53371904D02*
X168914285Y-53276666D01*
X168914285Y-53276666D02*
X168866666Y-53229047D01*
X168866666Y-53229047D02*
X168771428Y-53181428D01*
X168771428Y-53181428D02*
X168580952Y-53133809D01*
X168580952Y-53133809D02*
X168485714Y-53086190D01*
X168485714Y-53086190D02*
X168438095Y-53038571D01*
X168438095Y-53038571D02*
X168390476Y-52943333D01*
X168390476Y-52943333D02*
X168390476Y-52848095D01*
X168390476Y-52848095D02*
X168438095Y-52752857D01*
X168438095Y-52752857D02*
X168485714Y-52705238D01*
X168485714Y-52705238D02*
X168580952Y-52657619D01*
X168580952Y-52657619D02*
X168819047Y-52657619D01*
X168819047Y-52657619D02*
X168961904Y-52705238D01*
X169247619Y-52657619D02*
X169819047Y-52657619D01*
X169533333Y-53657619D02*
X169533333Y-52657619D01*
X170152381Y-53657619D02*
X170152381Y-52657619D01*
X170152381Y-52657619D02*
X170485714Y-53371904D01*
X170485714Y-53371904D02*
X170819047Y-52657619D01*
X170819047Y-52657619D02*
X170819047Y-53657619D01*
X171200000Y-52657619D02*
X171819047Y-52657619D01*
X171819047Y-52657619D02*
X171485714Y-53038571D01*
X171485714Y-53038571D02*
X171628571Y-53038571D01*
X171628571Y-53038571D02*
X171723809Y-53086190D01*
X171723809Y-53086190D02*
X171771428Y-53133809D01*
X171771428Y-53133809D02*
X171819047Y-53229047D01*
X171819047Y-53229047D02*
X171819047Y-53467142D01*
X171819047Y-53467142D02*
X171771428Y-53562380D01*
X171771428Y-53562380D02*
X171723809Y-53610000D01*
X171723809Y-53610000D02*
X171628571Y-53657619D01*
X171628571Y-53657619D02*
X171342857Y-53657619D01*
X171342857Y-53657619D02*
X171247619Y-53610000D01*
X171247619Y-53610000D02*
X171200000Y-53562380D01*
X172200000Y-52752857D02*
X172247619Y-52705238D01*
X172247619Y-52705238D02*
X172342857Y-52657619D01*
X172342857Y-52657619D02*
X172580952Y-52657619D01*
X172580952Y-52657619D02*
X172676190Y-52705238D01*
X172676190Y-52705238D02*
X172723809Y-52752857D01*
X172723809Y-52752857D02*
X172771428Y-52848095D01*
X172771428Y-52848095D02*
X172771428Y-52943333D01*
X172771428Y-52943333D02*
X172723809Y-53086190D01*
X172723809Y-53086190D02*
X172152381Y-53657619D01*
X172152381Y-53657619D02*
X172771428Y-53657619D01*
X173533333Y-53133809D02*
X173200000Y-53133809D01*
X173200000Y-53657619D02*
X173200000Y-52657619D01*
X173200000Y-52657619D02*
X173676190Y-52657619D01*
X174485714Y-52990952D02*
X174485714Y-53657619D01*
X174247619Y-52610000D02*
X174009524Y-53324285D01*
X174009524Y-53324285D02*
X174628571Y-53324285D01*
X175771429Y-53657619D02*
X175771429Y-52657619D01*
X175771429Y-52657619D02*
X176104762Y-53371904D01*
X176104762Y-53371904D02*
X176438095Y-52657619D01*
X176438095Y-52657619D02*
X176438095Y-53657619D01*
X177057143Y-53657619D02*
X176961905Y-53610000D01*
X176961905Y-53610000D02*
X176914286Y-53562380D01*
X176914286Y-53562380D02*
X176866667Y-53467142D01*
X176866667Y-53467142D02*
X176866667Y-53181428D01*
X176866667Y-53181428D02*
X176914286Y-53086190D01*
X176914286Y-53086190D02*
X176961905Y-53038571D01*
X176961905Y-53038571D02*
X177057143Y-52990952D01*
X177057143Y-52990952D02*
X177200000Y-52990952D01*
X177200000Y-52990952D02*
X177295238Y-53038571D01*
X177295238Y-53038571D02*
X177342857Y-53086190D01*
X177342857Y-53086190D02*
X177390476Y-53181428D01*
X177390476Y-53181428D02*
X177390476Y-53467142D01*
X177390476Y-53467142D02*
X177342857Y-53562380D01*
X177342857Y-53562380D02*
X177295238Y-53610000D01*
X177295238Y-53610000D02*
X177200000Y-53657619D01*
X177200000Y-53657619D02*
X177057143Y-53657619D01*
X177676191Y-52990952D02*
X178057143Y-52990952D01*
X177819048Y-52657619D02*
X177819048Y-53514761D01*
X177819048Y-53514761D02*
X177866667Y-53610000D01*
X177866667Y-53610000D02*
X177961905Y-53657619D01*
X177961905Y-53657619D02*
X178057143Y-53657619D01*
X178390477Y-53657619D02*
X178390477Y-52990952D01*
X178390477Y-52657619D02*
X178342858Y-52705238D01*
X178342858Y-52705238D02*
X178390477Y-52752857D01*
X178390477Y-52752857D02*
X178438096Y-52705238D01*
X178438096Y-52705238D02*
X178390477Y-52657619D01*
X178390477Y-52657619D02*
X178390477Y-52752857D01*
X179009524Y-53657619D02*
X178914286Y-53610000D01*
X178914286Y-53610000D02*
X178866667Y-53562380D01*
X178866667Y-53562380D02*
X178819048Y-53467142D01*
X178819048Y-53467142D02*
X178819048Y-53181428D01*
X178819048Y-53181428D02*
X178866667Y-53086190D01*
X178866667Y-53086190D02*
X178914286Y-53038571D01*
X178914286Y-53038571D02*
X179009524Y-52990952D01*
X179009524Y-52990952D02*
X179152381Y-52990952D01*
X179152381Y-52990952D02*
X179247619Y-53038571D01*
X179247619Y-53038571D02*
X179295238Y-53086190D01*
X179295238Y-53086190D02*
X179342857Y-53181428D01*
X179342857Y-53181428D02*
X179342857Y-53467142D01*
X179342857Y-53467142D02*
X179295238Y-53562380D01*
X179295238Y-53562380D02*
X179247619Y-53610000D01*
X179247619Y-53610000D02*
X179152381Y-53657619D01*
X179152381Y-53657619D02*
X179009524Y-53657619D01*
X179771429Y-52990952D02*
X179771429Y-53657619D01*
X179771429Y-53086190D02*
X179819048Y-53038571D01*
X179819048Y-53038571D02*
X179914286Y-52990952D01*
X179914286Y-52990952D02*
X180057143Y-52990952D01*
X180057143Y-52990952D02*
X180152381Y-53038571D01*
X180152381Y-53038571D02*
X180200000Y-53133809D01*
X180200000Y-53133809D02*
X180200000Y-53657619D01*
X181390477Y-53610000D02*
X181533334Y-53657619D01*
X181533334Y-53657619D02*
X181771429Y-53657619D01*
X181771429Y-53657619D02*
X181866667Y-53610000D01*
X181866667Y-53610000D02*
X181914286Y-53562380D01*
X181914286Y-53562380D02*
X181961905Y-53467142D01*
X181961905Y-53467142D02*
X181961905Y-53371904D01*
X181961905Y-53371904D02*
X181914286Y-53276666D01*
X181914286Y-53276666D02*
X181866667Y-53229047D01*
X181866667Y-53229047D02*
X181771429Y-53181428D01*
X181771429Y-53181428D02*
X181580953Y-53133809D01*
X181580953Y-53133809D02*
X181485715Y-53086190D01*
X181485715Y-53086190D02*
X181438096Y-53038571D01*
X181438096Y-53038571D02*
X181390477Y-52943333D01*
X181390477Y-52943333D02*
X181390477Y-52848095D01*
X181390477Y-52848095D02*
X181438096Y-52752857D01*
X181438096Y-52752857D02*
X181485715Y-52705238D01*
X181485715Y-52705238D02*
X181580953Y-52657619D01*
X181580953Y-52657619D02*
X181819048Y-52657619D01*
X181819048Y-52657619D02*
X181961905Y-52705238D01*
X182771429Y-53610000D02*
X182676191Y-53657619D01*
X182676191Y-53657619D02*
X182485715Y-53657619D01*
X182485715Y-53657619D02*
X182390477Y-53610000D01*
X182390477Y-53610000D02*
X182342858Y-53514761D01*
X182342858Y-53514761D02*
X182342858Y-53133809D01*
X182342858Y-53133809D02*
X182390477Y-53038571D01*
X182390477Y-53038571D02*
X182485715Y-52990952D01*
X182485715Y-52990952D02*
X182676191Y-52990952D01*
X182676191Y-52990952D02*
X182771429Y-53038571D01*
X182771429Y-53038571D02*
X182819048Y-53133809D01*
X182819048Y-53133809D02*
X182819048Y-53229047D01*
X182819048Y-53229047D02*
X182342858Y-53324285D01*
X183247620Y-52990952D02*
X183247620Y-53657619D01*
X183247620Y-53086190D02*
X183295239Y-53038571D01*
X183295239Y-53038571D02*
X183390477Y-52990952D01*
X183390477Y-52990952D02*
X183533334Y-52990952D01*
X183533334Y-52990952D02*
X183628572Y-53038571D01*
X183628572Y-53038571D02*
X183676191Y-53133809D01*
X183676191Y-53133809D02*
X183676191Y-53657619D01*
X184104763Y-53610000D02*
X184200001Y-53657619D01*
X184200001Y-53657619D02*
X184390477Y-53657619D01*
X184390477Y-53657619D02*
X184485715Y-53610000D01*
X184485715Y-53610000D02*
X184533334Y-53514761D01*
X184533334Y-53514761D02*
X184533334Y-53467142D01*
X184533334Y-53467142D02*
X184485715Y-53371904D01*
X184485715Y-53371904D02*
X184390477Y-53324285D01*
X184390477Y-53324285D02*
X184247620Y-53324285D01*
X184247620Y-53324285D02*
X184152382Y-53276666D01*
X184152382Y-53276666D02*
X184104763Y-53181428D01*
X184104763Y-53181428D02*
X184104763Y-53133809D01*
X184104763Y-53133809D02*
X184152382Y-53038571D01*
X184152382Y-53038571D02*
X184247620Y-52990952D01*
X184247620Y-52990952D02*
X184390477Y-52990952D01*
X184390477Y-52990952D02*
X184485715Y-53038571D01*
X185104763Y-53657619D02*
X185009525Y-53610000D01*
X185009525Y-53610000D02*
X184961906Y-53562380D01*
X184961906Y-53562380D02*
X184914287Y-53467142D01*
X184914287Y-53467142D02*
X184914287Y-53181428D01*
X184914287Y-53181428D02*
X184961906Y-53086190D01*
X184961906Y-53086190D02*
X185009525Y-53038571D01*
X185009525Y-53038571D02*
X185104763Y-52990952D01*
X185104763Y-52990952D02*
X185247620Y-52990952D01*
X185247620Y-52990952D02*
X185342858Y-53038571D01*
X185342858Y-53038571D02*
X185390477Y-53086190D01*
X185390477Y-53086190D02*
X185438096Y-53181428D01*
X185438096Y-53181428D02*
X185438096Y-53467142D01*
X185438096Y-53467142D02*
X185390477Y-53562380D01*
X185390477Y-53562380D02*
X185342858Y-53610000D01*
X185342858Y-53610000D02*
X185247620Y-53657619D01*
X185247620Y-53657619D02*
X185104763Y-53657619D01*
X185866668Y-53657619D02*
X185866668Y-52990952D01*
X185866668Y-53181428D02*
X185914287Y-53086190D01*
X185914287Y-53086190D02*
X185961906Y-53038571D01*
X185961906Y-53038571D02*
X186057144Y-52990952D01*
X186057144Y-52990952D02*
X186152382Y-52990952D01*
X187200002Y-53610000D02*
X187342859Y-53657619D01*
X187342859Y-53657619D02*
X187580954Y-53657619D01*
X187580954Y-53657619D02*
X187676192Y-53610000D01*
X187676192Y-53610000D02*
X187723811Y-53562380D01*
X187723811Y-53562380D02*
X187771430Y-53467142D01*
X187771430Y-53467142D02*
X187771430Y-53371904D01*
X187771430Y-53371904D02*
X187723811Y-53276666D01*
X187723811Y-53276666D02*
X187676192Y-53229047D01*
X187676192Y-53229047D02*
X187580954Y-53181428D01*
X187580954Y-53181428D02*
X187390478Y-53133809D01*
X187390478Y-53133809D02*
X187295240Y-53086190D01*
X187295240Y-53086190D02*
X187247621Y-53038571D01*
X187247621Y-53038571D02*
X187200002Y-52943333D01*
X187200002Y-52943333D02*
X187200002Y-52848095D01*
X187200002Y-52848095D02*
X187247621Y-52752857D01*
X187247621Y-52752857D02*
X187295240Y-52705238D01*
X187295240Y-52705238D02*
X187390478Y-52657619D01*
X187390478Y-52657619D02*
X187628573Y-52657619D01*
X187628573Y-52657619D02*
X187771430Y-52705238D01*
X188200002Y-53657619D02*
X188200002Y-52657619D01*
X188628573Y-53657619D02*
X188628573Y-53133809D01*
X188628573Y-53133809D02*
X188580954Y-53038571D01*
X188580954Y-53038571D02*
X188485716Y-52990952D01*
X188485716Y-52990952D02*
X188342859Y-52990952D01*
X188342859Y-52990952D02*
X188247621Y-53038571D01*
X188247621Y-53038571D02*
X188200002Y-53086190D01*
X189104764Y-53657619D02*
X189104764Y-52990952D01*
X189104764Y-52657619D02*
X189057145Y-52705238D01*
X189057145Y-52705238D02*
X189104764Y-52752857D01*
X189104764Y-52752857D02*
X189152383Y-52705238D01*
X189152383Y-52705238D02*
X189104764Y-52657619D01*
X189104764Y-52657619D02*
X189104764Y-52752857D01*
X189961906Y-53610000D02*
X189866668Y-53657619D01*
X189866668Y-53657619D02*
X189676192Y-53657619D01*
X189676192Y-53657619D02*
X189580954Y-53610000D01*
X189580954Y-53610000D02*
X189533335Y-53514761D01*
X189533335Y-53514761D02*
X189533335Y-53133809D01*
X189533335Y-53133809D02*
X189580954Y-53038571D01*
X189580954Y-53038571D02*
X189676192Y-52990952D01*
X189676192Y-52990952D02*
X189866668Y-52990952D01*
X189866668Y-52990952D02*
X189961906Y-53038571D01*
X189961906Y-53038571D02*
X190009525Y-53133809D01*
X190009525Y-53133809D02*
X190009525Y-53229047D01*
X190009525Y-53229047D02*
X189533335Y-53324285D01*
X190580954Y-53657619D02*
X190485716Y-53610000D01*
X190485716Y-53610000D02*
X190438097Y-53514761D01*
X190438097Y-53514761D02*
X190438097Y-52657619D01*
X191390478Y-53657619D02*
X191390478Y-52657619D01*
X191390478Y-53610000D02*
X191295240Y-53657619D01*
X191295240Y-53657619D02*
X191104764Y-53657619D01*
X191104764Y-53657619D02*
X191009526Y-53610000D01*
X191009526Y-53610000D02*
X190961907Y-53562380D01*
X190961907Y-53562380D02*
X190914288Y-53467142D01*
X190914288Y-53467142D02*
X190914288Y-53181428D01*
X190914288Y-53181428D02*
X190961907Y-53086190D01*
X190961907Y-53086190D02*
X191009526Y-53038571D01*
X191009526Y-53038571D02*
X191104764Y-52990952D01*
X191104764Y-52990952D02*
X191295240Y-52990952D01*
X191295240Y-52990952D02*
X191390478Y-53038571D01*
X168438095Y-55277619D02*
X168438095Y-54277619D01*
X168438095Y-54277619D02*
X168771428Y-54991904D01*
X168771428Y-54991904D02*
X169104761Y-54277619D01*
X169104761Y-54277619D02*
X169104761Y-55277619D01*
X170009523Y-55277619D02*
X170009523Y-54753809D01*
X170009523Y-54753809D02*
X169961904Y-54658571D01*
X169961904Y-54658571D02*
X169866666Y-54610952D01*
X169866666Y-54610952D02*
X169676190Y-54610952D01*
X169676190Y-54610952D02*
X169580952Y-54658571D01*
X170009523Y-55230000D02*
X169914285Y-55277619D01*
X169914285Y-55277619D02*
X169676190Y-55277619D01*
X169676190Y-55277619D02*
X169580952Y-55230000D01*
X169580952Y-55230000D02*
X169533333Y-55134761D01*
X169533333Y-55134761D02*
X169533333Y-55039523D01*
X169533333Y-55039523D02*
X169580952Y-54944285D01*
X169580952Y-54944285D02*
X169676190Y-54896666D01*
X169676190Y-54896666D02*
X169914285Y-54896666D01*
X169914285Y-54896666D02*
X170009523Y-54849047D01*
X170914285Y-55277619D02*
X170914285Y-54277619D01*
X170914285Y-55230000D02*
X170819047Y-55277619D01*
X170819047Y-55277619D02*
X170628571Y-55277619D01*
X170628571Y-55277619D02*
X170533333Y-55230000D01*
X170533333Y-55230000D02*
X170485714Y-55182380D01*
X170485714Y-55182380D02*
X170438095Y-55087142D01*
X170438095Y-55087142D02*
X170438095Y-54801428D01*
X170438095Y-54801428D02*
X170485714Y-54706190D01*
X170485714Y-54706190D02*
X170533333Y-54658571D01*
X170533333Y-54658571D02*
X170628571Y-54610952D01*
X170628571Y-54610952D02*
X170819047Y-54610952D01*
X170819047Y-54610952D02*
X170914285Y-54658571D01*
X171771428Y-55230000D02*
X171676190Y-55277619D01*
X171676190Y-55277619D02*
X171485714Y-55277619D01*
X171485714Y-55277619D02*
X171390476Y-55230000D01*
X171390476Y-55230000D02*
X171342857Y-55134761D01*
X171342857Y-55134761D02*
X171342857Y-54753809D01*
X171342857Y-54753809D02*
X171390476Y-54658571D01*
X171390476Y-54658571D02*
X171485714Y-54610952D01*
X171485714Y-54610952D02*
X171676190Y-54610952D01*
X171676190Y-54610952D02*
X171771428Y-54658571D01*
X171771428Y-54658571D02*
X171819047Y-54753809D01*
X171819047Y-54753809D02*
X171819047Y-54849047D01*
X171819047Y-54849047D02*
X171342857Y-54944285D01*
X173009524Y-55277619D02*
X173009524Y-54277619D01*
X173009524Y-54658571D02*
X173104762Y-54610952D01*
X173104762Y-54610952D02*
X173295238Y-54610952D01*
X173295238Y-54610952D02*
X173390476Y-54658571D01*
X173390476Y-54658571D02*
X173438095Y-54706190D01*
X173438095Y-54706190D02*
X173485714Y-54801428D01*
X173485714Y-54801428D02*
X173485714Y-55087142D01*
X173485714Y-55087142D02*
X173438095Y-55182380D01*
X173438095Y-55182380D02*
X173390476Y-55230000D01*
X173390476Y-55230000D02*
X173295238Y-55277619D01*
X173295238Y-55277619D02*
X173104762Y-55277619D01*
X173104762Y-55277619D02*
X173009524Y-55230000D01*
X173819048Y-54610952D02*
X174057143Y-55277619D01*
X174295238Y-54610952D02*
X174057143Y-55277619D01*
X174057143Y-55277619D02*
X173961905Y-55515714D01*
X173961905Y-55515714D02*
X173914286Y-55563333D01*
X173914286Y-55563333D02*
X173819048Y-55610952D01*
X176009524Y-55182380D02*
X175961905Y-55230000D01*
X175961905Y-55230000D02*
X175819048Y-55277619D01*
X175819048Y-55277619D02*
X175723810Y-55277619D01*
X175723810Y-55277619D02*
X175580953Y-55230000D01*
X175580953Y-55230000D02*
X175485715Y-55134761D01*
X175485715Y-55134761D02*
X175438096Y-55039523D01*
X175438096Y-55039523D02*
X175390477Y-54849047D01*
X175390477Y-54849047D02*
X175390477Y-54706190D01*
X175390477Y-54706190D02*
X175438096Y-54515714D01*
X175438096Y-54515714D02*
X175485715Y-54420476D01*
X175485715Y-54420476D02*
X175580953Y-54325238D01*
X175580953Y-54325238D02*
X175723810Y-54277619D01*
X175723810Y-54277619D02*
X175819048Y-54277619D01*
X175819048Y-54277619D02*
X175961905Y-54325238D01*
X175961905Y-54325238D02*
X176009524Y-54372857D01*
X176438096Y-55277619D02*
X176438096Y-54277619D01*
X176866667Y-55277619D02*
X176866667Y-54753809D01*
X176866667Y-54753809D02*
X176819048Y-54658571D01*
X176819048Y-54658571D02*
X176723810Y-54610952D01*
X176723810Y-54610952D02*
X176580953Y-54610952D01*
X176580953Y-54610952D02*
X176485715Y-54658571D01*
X176485715Y-54658571D02*
X176438096Y-54706190D01*
X177342858Y-55277619D02*
X177342858Y-54610952D01*
X177342858Y-54801428D02*
X177390477Y-54706190D01*
X177390477Y-54706190D02*
X177438096Y-54658571D01*
X177438096Y-54658571D02*
X177533334Y-54610952D01*
X177533334Y-54610952D02*
X177628572Y-54610952D01*
X177961906Y-55277619D02*
X177961906Y-54610952D01*
X177961906Y-54277619D02*
X177914287Y-54325238D01*
X177914287Y-54325238D02*
X177961906Y-54372857D01*
X177961906Y-54372857D02*
X178009525Y-54325238D01*
X178009525Y-54325238D02*
X177961906Y-54277619D01*
X177961906Y-54277619D02*
X177961906Y-54372857D01*
X178390477Y-55230000D02*
X178485715Y-55277619D01*
X178485715Y-55277619D02*
X178676191Y-55277619D01*
X178676191Y-55277619D02*
X178771429Y-55230000D01*
X178771429Y-55230000D02*
X178819048Y-55134761D01*
X178819048Y-55134761D02*
X178819048Y-55087142D01*
X178819048Y-55087142D02*
X178771429Y-54991904D01*
X178771429Y-54991904D02*
X178676191Y-54944285D01*
X178676191Y-54944285D02*
X178533334Y-54944285D01*
X178533334Y-54944285D02*
X178438096Y-54896666D01*
X178438096Y-54896666D02*
X178390477Y-54801428D01*
X178390477Y-54801428D02*
X178390477Y-54753809D01*
X178390477Y-54753809D02*
X178438096Y-54658571D01*
X178438096Y-54658571D02*
X178533334Y-54610952D01*
X178533334Y-54610952D02*
X178676191Y-54610952D01*
X178676191Y-54610952D02*
X178771429Y-54658571D01*
X180009525Y-55277619D02*
X180009525Y-54277619D01*
X180009525Y-54277619D02*
X180580953Y-55277619D01*
X180580953Y-55277619D02*
X180580953Y-54277619D01*
X181200001Y-55277619D02*
X181104763Y-55230000D01*
X181104763Y-55230000D02*
X181057144Y-55182380D01*
X181057144Y-55182380D02*
X181009525Y-55087142D01*
X181009525Y-55087142D02*
X181009525Y-54801428D01*
X181009525Y-54801428D02*
X181057144Y-54706190D01*
X181057144Y-54706190D02*
X181104763Y-54658571D01*
X181104763Y-54658571D02*
X181200001Y-54610952D01*
X181200001Y-54610952D02*
X181342858Y-54610952D01*
X181342858Y-54610952D02*
X181438096Y-54658571D01*
X181438096Y-54658571D02*
X181485715Y-54706190D01*
X181485715Y-54706190D02*
X181533334Y-54801428D01*
X181533334Y-54801428D02*
X181533334Y-55087142D01*
X181533334Y-55087142D02*
X181485715Y-55182380D01*
X181485715Y-55182380D02*
X181438096Y-55230000D01*
X181438096Y-55230000D02*
X181342858Y-55277619D01*
X181342858Y-55277619D02*
X181200001Y-55277619D01*
X182390477Y-55277619D02*
X182390477Y-54277619D01*
X182390477Y-55230000D02*
X182295239Y-55277619D01*
X182295239Y-55277619D02*
X182104763Y-55277619D01*
X182104763Y-55277619D02*
X182009525Y-55230000D01*
X182009525Y-55230000D02*
X181961906Y-55182380D01*
X181961906Y-55182380D02*
X181914287Y-55087142D01*
X181914287Y-55087142D02*
X181914287Y-54801428D01*
X181914287Y-54801428D02*
X181961906Y-54706190D01*
X181961906Y-54706190D02*
X182009525Y-54658571D01*
X182009525Y-54658571D02*
X182104763Y-54610952D01*
X182104763Y-54610952D02*
X182295239Y-54610952D01*
X182295239Y-54610952D02*
X182390477Y-54658571D01*
X182866668Y-55277619D02*
X182866668Y-54610952D01*
X182866668Y-54277619D02*
X182819049Y-54325238D01*
X182819049Y-54325238D02*
X182866668Y-54372857D01*
X182866668Y-54372857D02*
X182914287Y-54325238D01*
X182914287Y-54325238D02*
X182866668Y-54277619D01*
X182866668Y-54277619D02*
X182866668Y-54372857D01*
X183342858Y-54610952D02*
X183342858Y-55277619D01*
X183342858Y-54706190D02*
X183390477Y-54658571D01*
X183390477Y-54658571D02*
X183485715Y-54610952D01*
X183485715Y-54610952D02*
X183628572Y-54610952D01*
X183628572Y-54610952D02*
X183723810Y-54658571D01*
X183723810Y-54658571D02*
X183771429Y-54753809D01*
X183771429Y-54753809D02*
X183771429Y-55277619D01*
X184628572Y-55230000D02*
X184533334Y-55277619D01*
X184533334Y-55277619D02*
X184342858Y-55277619D01*
X184342858Y-55277619D02*
X184247620Y-55230000D01*
X184247620Y-55230000D02*
X184200001Y-55134761D01*
X184200001Y-55134761D02*
X184200001Y-54753809D01*
X184200001Y-54753809D02*
X184247620Y-54658571D01*
X184247620Y-54658571D02*
X184342858Y-54610952D01*
X184342858Y-54610952D02*
X184533334Y-54610952D01*
X184533334Y-54610952D02*
X184628572Y-54658571D01*
X184628572Y-54658571D02*
X184676191Y-54753809D01*
X184676191Y-54753809D02*
X184676191Y-54849047D01*
X184676191Y-54849047D02*
X184200001Y-54944285D01*
%TO.C,U1*%
X178488095Y-59287619D02*
X178488095Y-60097142D01*
X178488095Y-60097142D02*
X178535714Y-60192380D01*
X178535714Y-60192380D02*
X178583333Y-60240000D01*
X178583333Y-60240000D02*
X178678571Y-60287619D01*
X178678571Y-60287619D02*
X178869047Y-60287619D01*
X178869047Y-60287619D02*
X178964285Y-60240000D01*
X178964285Y-60240000D02*
X179011904Y-60192380D01*
X179011904Y-60192380D02*
X179059523Y-60097142D01*
X179059523Y-60097142D02*
X179059523Y-59287619D01*
X180059523Y-60287619D02*
X179488095Y-60287619D01*
X179773809Y-60287619D02*
X179773809Y-59287619D01*
X179773809Y-59287619D02*
X179678571Y-59430476D01*
X179678571Y-59430476D02*
X179583333Y-59525714D01*
X179583333Y-59525714D02*
X179488095Y-59573333D01*
%TO.C,SW1*%
X183916667Y-113315000D02*
X184059524Y-113362619D01*
X184059524Y-113362619D02*
X184297619Y-113362619D01*
X184297619Y-113362619D02*
X184392857Y-113315000D01*
X184392857Y-113315000D02*
X184440476Y-113267380D01*
X184440476Y-113267380D02*
X184488095Y-113172142D01*
X184488095Y-113172142D02*
X184488095Y-113076904D01*
X184488095Y-113076904D02*
X184440476Y-112981666D01*
X184440476Y-112981666D02*
X184392857Y-112934047D01*
X184392857Y-112934047D02*
X184297619Y-112886428D01*
X184297619Y-112886428D02*
X184107143Y-112838809D01*
X184107143Y-112838809D02*
X184011905Y-112791190D01*
X184011905Y-112791190D02*
X183964286Y-112743571D01*
X183964286Y-112743571D02*
X183916667Y-112648333D01*
X183916667Y-112648333D02*
X183916667Y-112553095D01*
X183916667Y-112553095D02*
X183964286Y-112457857D01*
X183964286Y-112457857D02*
X184011905Y-112410238D01*
X184011905Y-112410238D02*
X184107143Y-112362619D01*
X184107143Y-112362619D02*
X184345238Y-112362619D01*
X184345238Y-112362619D02*
X184488095Y-112410238D01*
X184821429Y-112362619D02*
X185059524Y-113362619D01*
X185059524Y-113362619D02*
X185250000Y-112648333D01*
X185250000Y-112648333D02*
X185440476Y-113362619D01*
X185440476Y-113362619D02*
X185678572Y-112362619D01*
X186583333Y-113362619D02*
X186011905Y-113362619D01*
X186297619Y-113362619D02*
X186297619Y-112362619D01*
X186297619Y-112362619D02*
X186202381Y-112505476D01*
X186202381Y-112505476D02*
X186107143Y-112600714D01*
X186107143Y-112600714D02*
X186011905Y-112648333D01*
%TO.C,J1*%
X162536666Y-51682619D02*
X162536666Y-52396904D01*
X162536666Y-52396904D02*
X162489047Y-52539761D01*
X162489047Y-52539761D02*
X162393809Y-52635000D01*
X162393809Y-52635000D02*
X162250952Y-52682619D01*
X162250952Y-52682619D02*
X162155714Y-52682619D01*
X163536666Y-52682619D02*
X162965238Y-52682619D01*
X163250952Y-52682619D02*
X163250952Y-51682619D01*
X163250952Y-51682619D02*
X163155714Y-51825476D01*
X163155714Y-51825476D02*
X163060476Y-51920714D01*
X163060476Y-51920714D02*
X162965238Y-51968333D01*
%TO.C,BZ1*%
X177169047Y-88938809D02*
X177311904Y-88986428D01*
X177311904Y-88986428D02*
X177359523Y-89034047D01*
X177359523Y-89034047D02*
X177407142Y-89129285D01*
X177407142Y-89129285D02*
X177407142Y-89272142D01*
X177407142Y-89272142D02*
X177359523Y-89367380D01*
X177359523Y-89367380D02*
X177311904Y-89415000D01*
X177311904Y-89415000D02*
X177216666Y-89462619D01*
X177216666Y-89462619D02*
X176835714Y-89462619D01*
X176835714Y-89462619D02*
X176835714Y-88462619D01*
X176835714Y-88462619D02*
X177169047Y-88462619D01*
X177169047Y-88462619D02*
X177264285Y-88510238D01*
X177264285Y-88510238D02*
X177311904Y-88557857D01*
X177311904Y-88557857D02*
X177359523Y-88653095D01*
X177359523Y-88653095D02*
X177359523Y-88748333D01*
X177359523Y-88748333D02*
X177311904Y-88843571D01*
X177311904Y-88843571D02*
X177264285Y-88891190D01*
X177264285Y-88891190D02*
X177169047Y-88938809D01*
X177169047Y-88938809D02*
X176835714Y-88938809D01*
X177740476Y-88462619D02*
X178407142Y-88462619D01*
X178407142Y-88462619D02*
X177740476Y-89462619D01*
X177740476Y-89462619D02*
X178407142Y-89462619D01*
X179311904Y-89462619D02*
X178740476Y-89462619D01*
X179026190Y-89462619D02*
X179026190Y-88462619D01*
X179026190Y-88462619D02*
X178930952Y-88605476D01*
X178930952Y-88605476D02*
X178835714Y-88700714D01*
X178835714Y-88700714D02*
X178740476Y-88748333D01*
X173859048Y-93741666D02*
X174620953Y-93741666D01*
X174240000Y-94122619D02*
X174240000Y-93360714D01*
%TO.C,U1*%
X177100000Y-65350000D02*
X177100000Y-64825000D01*
X181400000Y-65350000D02*
X180875000Y-65350000D01*
X181400000Y-65350000D02*
X181400000Y-64825000D01*
X177100000Y-65350000D02*
X177625000Y-65350000D01*
X181400000Y-61050000D02*
X181400000Y-61575000D01*
X181400000Y-61050000D02*
X180875000Y-61050000D01*
X177100000Y-61050000D02*
X177625000Y-61050000D01*
D11*
%TO.C,SW1*%
X183600000Y-109000000D02*
X183600000Y-109300000D01*
X186900000Y-109300000D02*
X186900000Y-109000000D01*
X186900000Y-111500000D02*
X186900000Y-111800000D01*
X183600000Y-111800000D02*
X183600000Y-111500000D01*
X186900000Y-109000000D02*
X183600000Y-109000000D01*
X186900000Y-111800000D02*
X183600000Y-111800000D01*
%TO.C,J1*%
X165470000Y-53660000D02*
X165470000Y-54990000D01*
X162870000Y-53660000D02*
X162870000Y-56260000D01*
X164140000Y-53660000D02*
X165470000Y-53660000D01*
X160270000Y-53660000D02*
X160270000Y-117280000D01*
X162870000Y-56260000D02*
X165470000Y-56260000D01*
X160270000Y-53660000D02*
X162870000Y-53660000D01*
X160270000Y-117280000D02*
X165470000Y-117280000D01*
X165470000Y-56260000D02*
X165470000Y-117280000D01*
%TO.C,BZ1*%
X184150000Y-96200000D02*
G75*
G03*
X184150000Y-96200000I-6100000J0D01*
G01*
%TD*%
M02*
